<svg xmlns="http://www.w3.org/2000/svg" width="77" height="85" viewBox="0 0 77 85"><g fill="none"><path fill="#D8C5B4" d="M58.037 74.787c21.727 11.388 21.576-7.517 15.261-8.656.376 3.265 1.429 4.404-1.88 7.289-3.232 2.885-14.81-4.48-13.38 1.367z"/><path fill="#B1A093" d="M17.216 51.857s3.533 24.448 0 27.105c-3.534 2.658 8.42.684 8.42.684l-1.654-20.272-6.766-7.517zm19.621 1.67s3.533 24.448 0 27.106c-3.533 2.657 8.42.683 8.42.683l-1.654-20.272-6.766-7.517z"/><path fill="#D8C5B4" d="M59.09 58.538c-4.887-4.707-10.676-8.2-15.562-12.907-8.42-8.124-14.058-17.615-15.11-29.003-.377-4.176-4.286-4.556-8.346-4.024-6.24.835-9.547 16.172-8.57 16.096 0 0-1.353 20.196 11.653 32.724.827 9.187 4.21 17.842-.602 20.575-4.811 2.734 8.195 3.265 9.097 1.291.902-1.974.376-14.577.376-14.577s6.465 6.074 11.352 4.175c-2.406 3.265.526 7.897.526 7.897s.225.835-1.504 2.126c-1.729 1.29 14.81.987 19.17-.076 4.436-1.063 6.24-15.869-2.48-24.297z"/><path fill="#09A5C5" d="M33.304 29.839c-.075 1.746-6.766 11.389-9.172 15.64-.451.836-1.654.911-2.255.228l-9.773-11.01c-.301-.379-.527-.758-.527-1.29l-.526-7.137c-.075-1.215.827-2.202 2.03-2.278l18.494-1.138c1.428-.076 2.63 1.214 2.255 2.657l-.526 4.328z"/><path fill="#D8C5B4" d="M35.409 13.743c0 7.592-6.24 3.644-13.908 3.644-7.668 0-13.983 3.948-13.983-3.644C7.518 6.15 13.758 0 21.426 0c7.668 0 13.983 6.15 13.983 13.743z"/><path fill="#D8C5B4" d="M32.552 26.726l-22.177.379L7.593 9.946h27.665z"/><ellipse cx="15.411" cy="13.667" fill="#1E1E1C" rx="1.504" ry="1.519"/><ellipse cx="27.365" cy="13.667" fill="#1E1E1C" rx="1.504" ry="1.519"/><path fill="#603713" d="M28.943 4.48c-1.052-1.519.451-3.417 2.18-2.81 6.541 2.126 10 7.593 9.398 14.578-.752 8.124-.677 20.804 1.729 29.383 1.804 6.378-9.999 6.758-9.698-1.29.3-8.049 0-22.17 0-28.928-.075-4.708-1.88-8.428-3.609-10.933zm-15.11 0c1.052-1.519-.451-3.417-2.18-2.81-6.54 2.126-10 7.593-9.322 14.578.676 8.048.676 20.728-1.805 29.307-1.804 6.378 9.999 6.758 9.698-1.29-.3-7.973 0-22.17 0-28.928.075-4.632 1.88-8.352 3.609-10.857z"/><path fill="#C8B7A7" d="M32.552 25.055c0 6.074-5.037 11.01-11.202 11.01-6.164 0-11.126-4.86-11.126-11.01 0-6.15 5.037-7.82 11.202-7.82 6.164 0 11.126 1.746 11.126 7.82z"/><path fill="#1E1E1C" d="M24.358 22.778c-.226 1.518-1.504 2.581-2.632 2.581-1.127 0-2.255-1.139-2.63-2.581-.302-1.443 1.202-1.519 2.63-1.519 1.429 0 2.857.076 2.632 1.519z"/><g fill="#1E1E1C"><path d="M21.727 29.459c-4.435 0-5.037-2.885-5.037-3.037-.075-.228.076-.38.301-.456.226-.076.376.076.451.304 0 .076.602 2.43 4.36 2.43 3.76 0 4.286-2.278 4.36-2.43.076-.228.226-.304.452-.304.225.076.3.228.3.456-.15.152-.751 3.037-5.187 3.037z"/><path d="M21.727 29.459c-.225 0-.376-.152-.376-.38v-3.72c0-.228.15-.38.376-.38s.376.152.376.38v3.72c0 .228-.15.38-.376.38z"/></g></g></svg>