<svg width="195" height="331" viewBox="0 0 195 331" xmlns="http://www.w3.org/2000/svg" xmlns:xlink="http://www.w3.org/1999/xlink"><title>Gustav-Papierflieger-Typ</title><defs><path id="a" d="M0 0h215v349H0z"/></defs><g transform="translate(0 -18)" fill="none" fill-rule="evenodd"><mask id="b" fill="#fff"><use xlink:href="#a"/></mask><g mask="url(#b)"><g fill-rule="nonzero" transform="translate(0 17.796)"><path fill="#183446" d="M142.8 249.54h27.1v132.679h-27.1z"/><path d="M170.7 239.851c0 21.652-16.3 39.151-35.4 39.151-19.1 0-35.4-17.5-35.4-39.151 0-21.652 16.3-34.208 35.4-34.208 19.1 0 35.4 12.556 35.4 34.208z" fill="#1C3F5E"/><path d="M100.7 245.09l-.4 87.597c12.2.099 18.8.099 27.1.198l.3-87.794h-27z" fill="#1C3F5E"/><path d="M157.4 240.543c-3.1 17.994-17.1 31.835-33.8 31.835-3.9 0-7.6-.79-11-2.076 6.1 6.03 14 9.689 22.8 9.689 19.1 0 34.5-17.796 34.5-39.448" fill="#183446"/><path d="M136.9 269.313s16.6-6.92 20.4-28.473h-23.4v9.095l-7.4 11.37 10.4 8.008z" fill="#1C3F5E"/><path fill="#1C3F5E" d="M128.7 258.24l-5.1-5.437 5.1-12.754 5.1 12.754z"/><path d="M181.5 165.7c0 29.859-16.2 62.979-43.1 62.979-26.9 0-38.8-46.369-38.8-76.226 0-7.514-8.6-1.384-6.1-8.009 7.4-19.674 24.7-33.91 44.9-33.91 26.9.098 43.1 25.31 43.1 55.167z" fill="#19B1C6"/><path d="M141 110.73v117.751c25.7-1.582 40.4-34.01 40.4-62.879 0-28.671-14.7-53.19-40.4-54.871z" fill="#14A9BD"/><path d="M175.8 170.446c-9.3 0-16.8-9.293-16.8-19.476v-31.54c-7.7-5.536-11.1-8.7-20.9-8.7-9.6 0-18.6 3.164-26.2 8.404v31.835c0 10.282.2 77.709 26.2 77.709 25.9 0 41.4-31.143 43.2-59.32-1.8.692-3.6 1.087-5.5 1.087z" fill="#19B1C6"/><path fill="#19B1C6" d="M99.4 151.563l71.8 19.378v74.842H99.4z"/><ellipse fill="#F4A78C" cx="172" cy="257.449" rx="9.4" ry="9.788"/><path d="M158.1 245.882v-13.347l-2.8-79.193c0-12.556-1.3-30.747-10.9-37.173 2-2.077-2.2-1.681.1-1.78l-4.6-3.065c7.2 1.088 14.5 4.548 19.2 8.107v29.067c0 9.491 7.5 18.192 16.8 18.192 1.9 0 3.8-.396 5.5-.99-.7 10.184-4.3 28.475-10.1 36.087v44.095h-15.2" fill="#14A9BD"/><path fill="#F4A78C" d="M167.6 165.899h13.9v91.452h-13.9zm-21-65.846v10.381c0 4.548.8 8.305-5.5 8.305s-11.5-3.658-11.5-8.305v-9.59l17-.79z"/><path fill="#14A9BD" d="M167.6 165.899h13.9v76.523h-13.9z"/><path fill="#169EB0" d="M167.6 165.899h1v76.523h-1z"/><path d="M118.3 114.686l10.2-6.427 12.4 10.381-6.2 7.316c-.3.791-1.4.989-1.9.297l-14.5-11.567z" fill="#14A9BD"/><path fill="#EA4E51" d="M130.9 125.56l-4.5 85.62 6.7 9.392 6.8-9.392-4.5-85.62z"/><path d="M181.9 80.873c1.5-1.78 1.4-1.68 1.4-1.68s1.7 1.68 3.8 2.076c2.1.395.5-3.263.5-3.263s-3.6-3.856-3.8-3.856c-.2 0-3.6 2.274-3.6 2.274l1.7 4.45z" fill="#EBC471"/><path d="M126 93.231c-6.9-.593-11.7 3.065-14.1 5.537-2.6 2.67-7 6.426-10.8 6.426-.2 0 .5-2.175.5-2.175 4.6-6.228-.7-11.27-.7-11.27-5.5 6.821-14 6.525-14 6.525 7.2-11.271 3.3-20.17 3.3-20.17-5.5 4.746-11.1 2.67-11.1 2.67s6.5 3.164 4.9-25.606c0 0-3.9-34.801 24.8-48.742 0 0 28.7-14.236 55.8 2.373 0 0 1.6-3.065-2-8.107 0 0 5.5 3.362 6.9 13.446 0 0 5.5-1.78 10.4-.89 0 0-5.2.89-7.8 4.746 0 0 12.1 2.966 15 25.31 0 0 1.6 10.677 0 24.42 0 0-2-1.978 7.2 14.632 0 0-7.2.593-11.1-2.966 0 0-3.3 10.085 4.6 20.466 0 0-6.9 1.186-14.4-5.34 0 0-4.4 6.032.1 13.051.1.099-8.1-2.966-10.9-5.635-3.7-3.56-11.3-9.69-18.4-8.602" fill="#F4CA75"/><path d="M177.7 58.925c0 24.815-21.5 47.456-45.3 47.456-23.8 0-40.8-22.64-40.8-47.456 0-24.816 19.3-44.886 43-44.886s43.1 20.169 43.1 44.886z" fill="#F0B79B"/><ellipse fill="#1E1E1C" cx="110.1" cy="62.088" rx="3.8" ry="4.054"/><ellipse fill="#1E1E1C" cx="140.5" cy="62.088" rx="3.8" ry="4.054"/><path d="M79.4 80.675c-.1 0-.2-.099-.2-.099s.1.1.2.1zm76.7-72.568s.7-1.384.1-3.757C148.7 1.384 141.3.395 134.6.494c7 .989 14.3 3.164 21.5 7.613zm8.6.494c-2-1.285-4.1-2.274-6.1-3.262 1 1.977 2 4.647 2.4 8.107 0 0 4.1-1.285 8.3-1.088C167.7 3.56 162.7.593 162.7.593c3.6 4.944 2 8.008 2 8.008zm18.6 70.492c-2.4-.197-6.6.495-8.8-1.581 0 0 3.1 14.632 13.4 22.047-6.1-9.195-5.6-15.621-4.6-20.466zm3.9-11.666c1.6-13.643 0-24.42 0-24.42-2.9-22.245-15-25.31-15-25.31 2.6-3.856 7.8-4.745 7.8-4.745-4.9-.89-10.4.89-10.4.89 0-.297-.1-.594-.1-.792-1.8.594-4.3 1.879-5.8 4.153 0 0 12.1 2.966 15 25.31 0 0 1.6 10.677 0 24.42 0 0-1.9-1.879 6.5 13.446 4 2.076 9.2 1.68 9.2 1.68-9.1-16.61-7.2-14.632-7.2-14.632z" fill="#EBC471"/><path d="M138.5 14.929c12.5 7.81 20.9 22.146 20.9 38.46 0 24.815-19.3 44.885-43 44.885-2.9 0-9.2 1.483-11.9.89 6.5 4.053 17.4 4.646 25.5 4.646 23.8 0 43-20.07 43-44.885 0-21.751-14.8-39.844-34.5-43.996z" fill="#E5AF99"/><ellipse fill="#F0B79B" cx="91.3" cy="68.218" rx="10.7" ry="11.172"/><path d="M91.3 57.046s.5 3.065 2.1 5.141c0 0 .4-21.355 10.8-34.9 0 0-1.8 6.13 0 9.986 0 0 2.7-2.274 7-4.647 6.5-3.56 14-5.24 21.5-5.042 5.5.099 14.8-.593 22.3-5.833 0 0 18.8 13.248 21.6 39.645 0 0 1.2-1.68 1-4.251l1.2-6.03-5.4-19.675-13.2-15.325-15.1-4.152h-21.3l-15.7 4.152-7.8 7.02-6.9 11.073-6 12.26v5.437l3.9 5.141z" fill="#F4CA75"/><path d="M117.5 83.048c0 4.054 3.5 7.316 7 7.316s8.8-3.262 8.8-7.316h-15.8z" fill="#FFF"/><path d="M144.2 101.14v11.964c0 5.24-4.1 9.49-9.1 9.49s-9.1-4.25-9.1-9.49V102.03l18.2-.89z" fill="#E5AF99"/><path d="M109.9 99.46V81.17c0-1.088 1.4-1.978 2.2-2.274l9.5-3.757-1.3 1.78c-.3.395-.7.691-1.1.89l-4.9 3.657-1.6 13.347c0 2.966 1.4 5.636 3.7 6.624 1.1.495 2.5.692 4.1.495 1-.198 1.9-.989 2.2-2.175.3-.989.6-2.274.3-4.45h3.8s-.3 2.176 0 4.35c.3 1.682 1.3 2.571 2.7 2.67 1.3.1 3.4-.593 5.8-2.373 1.8-1.285 2.9-3.658 2.9-6.228l-.7-12.457-6.9-3.46c-.5-.199-.9-.495-1.2-.99l-1.2-1.68 10.5 3.361c.8.297 2.2 1.286 2.2 2.274l-.3 17.599s-6.8 5.338-15 5.437c-.5 0-.9-.099-1.4 0-1.8.297-9.3-.79-14.3-4.35zm66.8-38.657s-8.2 16.214-21.6 20.367l.7 18.784c0 .1 21.3-11.962 20.9-39.15z" fill="#F4CA75"/><path d="M93 61.199s7.3 17.301 17.8 21.454v16.906c0-.099-20.2-12.062-17.8-38.36z" fill="#F4CA75"/><path d="M93 68.218V98.67c0 2.67.7 5.339 2.1 7.514 4.3 6.624 15 22.64 32.1 26.299 0 0 22.7-3.263 32.3-27.189.7-1.68 1-3.46 1-5.339l-.3-32.626s-13.8 15.325-18.8 13.94l-1.1 17.698s-17.8 13.544-32.5-5.438L97 75.138l-4-6.92z" fill="#F4CA75"/><path d="M167 32.527c.8 14.435-6.2 35.296-15.3 42.908-9.1 7.514 15.3 8.898 15.3 8.898l6.6-5.833s1.4-2.373 2.7-7.217c1.8-6.822 3.7-17.203 2.6-21.158" fill="#F4CA75"/><path d="M179 57.046c-.8 8.503-2.6 16.709-5 21.158 1.5.79 3.2 1.285 4.9 1.285 5.9 0 10.7-5.042 10.7-11.172.1-6.229-4.7-11.27-10.6-11.27z" fill="#E5AF99"/><path d="M166.5 18.488c-3.9-1.878-6.8-4.35-6.8-4.35s-13.5-12.655-53-7.02C122-.198 136.2-.89 150.2 2.175c14 3.065 18.7 9.788 18.7 9.788s.8.395.3 3.56c-.4 3.163.4 4.448-2.7 2.965z" fill="#EBC471"/><path d="M59.5 186.463c-1.2 0-2.5-.297-3.7-.791-3.1-1.483-5-4.647-4.8-8.008l3.3-61.1c.3-4.647 4.3-8.206 8.9-7.91 4.7.297 8.3 4.252 8 8.8L69 158.286l33.9-30.056c3.5-3.065 8.9-2.768 12 .594 3.1 3.46 2.8 8.799-.6 11.864l-49.2 43.6a8.263 8.263 0 0 1-5.6 2.175z" fill="#19B1C6"/><path fill="#EDEDED" d="M73.3 117.454l2.5-29.462-75 11.073z"/><path fill="#FFF" d="M64.8 77.116l11 10.876-75 11.073z"/><path fill="#E3E3E3" d="M73.3 117.454l7.9-24.124L.8 99.065z"/><path fill="#FFF" d="M100 111.818L81.2 93.33.8 99.065z"/><ellipse fill="#F4A78C" cx="64.6" cy="114.092" rx="9.9" ry="9.986"/><path fill="#FFF" d="M100 111.818L81.2 93.33.8 99.065z"/><path fill="#1C3F5E" d="M100.4 330.808h27.1v51.411h-27.1z"/></g></g></g></svg>