<svg width="854" height="474" viewBox="0 0 854 474" xmlns="http://www.w3.org/2000/svg" xmlns:xlink="http://www.w3.org/1999/xlink"><title>Macbook</title><defs><linearGradient x1="50%" y1="0%" x2="50%" y2="100%" id="a"><stop stop-color="#E5E5E5" offset="0%"/><stop stop-color="#E8E8E8" offset="100%"/></linearGradient><rect id="b" x=".42" y=".078" width="9.718" height="7.693" rx="1"/><path id="d" d="M.525.028h7.897v7.856H.525z"/><path id="f" d="M14.945.127H.003v7.505h14.942z"/></defs><g fill="none" fill-rule="evenodd"><path d="M518.94 434.88v3.796c0 2.706-5.32 3.524-9.348 3.524H344.353c-4.237 0-9.596-.816-9.596-3.524v-3.797" stroke="#3B495A" fill="#F5F7FB" fill-rule="nonzero"/><path d="M122.333 0h609.031c17.846 0 32.697 14.63 32.697 32.486v403.198H89.636V32.486C89.636 14.646 104.52 0 122.333 0zM760.06 32.486C760.061 16.852 747.014 4 731.364 4H122.333c-15.617 0-28.697 12.87-28.697 28.486v399.198H760.06V32.486z" fill="#E5E5E5" fill-rule="nonzero"/><path d="M760.061 32.486C760.061 16.852 747.014 4 731.364 4H122.333c-15.617 0-28.697 12.87-28.697 28.486v399.198H760.06V32.486z" fill="#FFF"/><path d="M120 52.002v353.996a2 2 0 0 0 2.005 2.002h609.99a2.002 2.002 0 0 0 2.005-2.002V52.002A2 2 0 0 0 731.995 50h-609.99A2.002 2.002 0 0 0 120 52.002zm-2 .005A4.006 4.006 0 0 1 122.007 48h609.986A4.003 4.003 0 0 1 736 52.007v353.986a4.006 4.006 0 0 1-4.007 4.007H122.007a4.003 4.003 0 0 1-4.007-4.007V52.007zM64.976 469.785h723.868c19.273 0 35.223-2.667 47.034-7.128 4.667-1.763 8.427-3.727 11.004-5.64 1.094-.813 1.922-1.58 2.445-2.238.36-.453.496-.752.497-.768v-17.376c0-.446-.666-.986-1.683-.986H5.678c-1.014 0-1.678.54-1.678.986v16.718c0 .494 1.238 1.915 3.661 3.538 2.957 1.982 7.235 4.027 12.385 5.855 12.35 4.386 28.016 7.039 44.93 7.039zm0 4c-17.367 0-33.485-2.73-46.269-7.27C7.403 462.503 0 457.543 0 453.354v-16.718c0-2.86 2.617-4.986 5.678-4.986H848.14c3.063 0 5.683 2.125 5.683 4.986v17.38c-.008 3.76-6.538 8.61-16.533 12.384-12.283 4.64-28.71 7.386-48.447 7.386H64.976z" fill="#E5E5E5" fill-rule="nonzero"/><path d="M64.976 469.785h723.868c19.273 0 35.223-2.667 47.034-7.128 4.667-1.763 8.427-3.727 11.004-5.64 1.094-.813 1.922-1.58 2.445-2.238.36-.453.496-.752.497-.768v-17.376c0-.446-.666-.986-1.683-.986H5.678c-1.014 0-1.678.54-1.678.986v16.718c0 .494 1.238 1.915 3.661 3.538 2.957 1.982 7.235 4.027 12.385 5.855 12.35 4.386 28.016 7.039 44.93 7.039z" fill="#FFF"/><path d="M2.614 451.481h846.925" stroke="#E5E5E5" stroke-width="2"/><path d="M518.94 434.88v3.796c0 2.706-5.32 3.524-9.348 3.524H344.353c-4.237 0-9.596-.816-9.596-3.524v-3.797" stroke="#E5E5E5" stroke-width="2" fill="#F5F7FB" fill-rule="nonzero"/><ellipse stroke="#E5E5E5" stroke-width="2" cx="428.076" cy="25.366" rx="4.912" ry="4.919"/><path d="M0 3.033A3.024 3.024 0 0 1 3.016 0h611.968A3.027 3.027 0 0 1 618 3.033V26H0V3.033z" fill="url(#a)" fill-rule="nonzero" transform="translate(118 48)"/><g transform="translate(128 59)" fill-rule="nonzero"><ellipse fill="#FF6159" cx="3.957" cy="3.925" rx="3.887" ry="3.847"/><ellipse fill="#FFBD2E" cx="18.211" cy="3.925" rx="3.887" ry="3.847"/><ellipse fill="#28CE41" cx="32.464" cy="3.925" rx="3.887" ry="3.847"/></g><g transform="translate(170 55)" fill-rule="nonzero"><rect fill="#FFF" x=".898" y=".307" width="16.845" height="15.387" rx="4"/><rect fill="#E8E8E8" transform="rotate(-45 9.286 6.011)" x="6.047" y="5.511" width="6.479" height=".641" rx=".321"/><rect fill="#E8E8E8" transform="scale(1 -1) rotate(-45 -15.163 0)" x="6.021" y="9.617" width="6.479" height=".641" rx=".321"/></g><g transform="translate(188 55)" fill-rule="nonzero"><rect fill="#FFF" transform="matrix(-1 0 0 1 17.49 0)" x=".322" y=".307" width="16.845" height="15.387" rx="4"/><rect fill="#E8E8E8" transform="scale(-1 1) rotate(-45 0 27.04)" x="5.471" y="5.511" width="6.479" height=".641" rx=".321"/><rect fill="#E8E8E8" transform="rotate(135 8.736 10.117)" x="5.497" y="9.617" width="6.479" height=".641" rx=".321"/></g><g transform="translate(212 55)"><rect fill="#FFF" fill-rule="nonzero" transform="matrix(-1 0 0 1 24.559 0)" x=".294" y=".231" width="23.971" height="15.387" rx="4"/><g transform="translate(7 4)"><mask id="c" fill="#fff"><use xlink:href="#b"/></mask><rect stroke="#979797" stroke-width="2" mask="url(#c)" x=".42" y=".078" width="9.718" height="7.693" rx="1"/></g><path fill="#979797" fill-rule="nonzero" d="M10.66 4.719h.648v6.411h-.648zm-1.944.641h1.296v.641H8.716zm0 1.282h1.296v.641H8.716zm0 1.283h1.296v.641H8.716z"/></g><g transform="translate(289 54)"><rect fill="#FFF" fill-rule="nonzero" transform="matrix(-1 0 0 1 307.873 0)" x=".391" y=".229" width="307.092" height="15.387" rx="4"/><path d="M26.899 5.817c-.78 0-1.368.384-1.596.84V3.273a.38.38 0 0 0-.384-.384.38.38 0 0 0-.384.384v7.872a.38.38 0 0 0 .384.384.38.38 0 0 0 .384-.384V8.18c0-.96.408-1.68 1.596-1.68 1.164 0 1.44.648 1.44 1.596v3.048a.38.38 0 0 0 .384.384.38.38 0 0 0 .384-.384V7.94c0-1.02-.36-2.124-2.208-2.124zm3.948.168h-.468a.354.354 0 0 0-.36.36c0 .204.156.36.36.36h.468v3.312c0 .876.516 1.512 1.464 1.512a.364.364 0 0 0 .372-.36.364.364 0 0 0-.372-.36c-.408 0-.696-.276-.696-.792V6.705h.78c.204 0 .36-.156.36-.36a.354.354 0 0 0-.36-.36h-.78v-1.26a.387.387 0 0 0-.384-.384.395.395 0 0 0-.384.384v1.26zm3.348 0h-.468a.354.354 0 0 0-.36.36c0 .204.156.36.36.36h.468v3.312c0 .876.516 1.512 1.464 1.512a.364.364 0 0 0 .372-.36.364.364 0 0 0-.372-.36c-.408 0-.696-.276-.696-.792V6.705h.78c.204 0 .36-.156.36-.36a.354.354 0 0 0-.36-.36h-.78v-1.26a.387.387 0 0 0-.384-.384.395.395 0 0 0-.384.384v1.26zm3.432-.096c.204 0 .384.168.384.384v.384c.228-.408.828-.84 1.632-.84 1.56 0 2.508.912 2.508 2.88s-.948 2.892-2.508 2.892c-.804 0-1.38-.432-1.632-.84v2.712c0 .204-.18.384-.384.384a.395.395 0 0 1-.384-.384V6.273c0-.216.18-.384.384-.384zm.36 2.808c0 1.548.72 2.196 1.656 2.196 1.104 0 1.728-.696 1.728-2.196 0-1.5-.648-2.184-1.752-2.184-.888 0-1.632.624-1.632 2.184zm7.068-2.136c.624 0 .984.192 1.308.504a.348.348 0 0 0 .516-.468c-.372-.492-1.008-.768-1.824-.768-1.02 0-1.836.456-1.836 1.452 0 1.968 3.156 1.476 3.156 2.712 0 .624-.588.852-1.272.852-.672 0-1.152-.216-1.524-.588a.368.368 0 0 0-.264-.12.348.348 0 0 0-.348.348c0 .084.024.144.084.228.312.396 1.068.864 2.052.864 1.14 0 2.04-.492 2.04-1.584 0-1.92-3.156-1.452-3.156-2.712 0-.552.528-.72 1.068-.72zm3.564 4.968c.348 0 .564-.168.564-.564 0-.396-.216-.576-.564-.576s-.564.18-.564.576c0 .396.216.564.564.564zm0-4.428c.348 0 .564-.168.564-.564 0-.396-.216-.576-.564-.576s-.564.18-.564.576c0 .396.216.564.564.564zm1.452 4.944a.592.592 0 0 0-.036.18.38.38 0 0 0 .384.384.377.377 0 0 0 .372-.276l3.168-9.348a.592.592 0 0 0 .036-.18.38.38 0 0 0-.384-.384.377.377 0 0 0-.372.276l-3.168 9.348zm4.884 0a.592.592 0 0 0-.036.18.38.38 0 0 0 .384.384.377.377 0 0 0 .372-.276l3.168-9.348a.592.592 0 0 0 .036-.18.38.38 0 0 0-.384-.384.377.377 0 0 0-.372.276l-3.168 9.348zm9.336-.792a.385.385 0 0 0 .372.276c.168 0 .3-.096.36-.252l1.764-4.836a.471.471 0 0 0 .036-.168.38.38 0 0 0-.384-.384c-.168 0-.3.096-.36.252l-1.392 3.972-1.14-3.972a.364.364 0 0 0-.36-.252.364.364 0 0 0-.36.252l-1.14 3.972-1.392-3.972a.375.375 0 0 0-.36-.252.38.38 0 0 0-.384.384c0 .048.012.108.036.168l1.764 4.836c.06.156.192.252.36.252a.385.385 0 0 0 .372-.276l1.104-3.804 1.104 3.804zm7.68 0a.385.385 0 0 0 .372.276c.168 0 .3-.096.36-.252l1.764-4.836a.471.471 0 0 0 .036-.168.38.38 0 0 0-.384-.384c-.168 0-.3.096-.36.252l-1.392 3.972-1.14-3.972a.364.364 0 0 0-.36-.252.364.364 0 0 0-.36.252l-1.14 3.972-1.392-3.972a.375.375 0 0 0-.36-.252.38.38 0 0 0-.384.384c0 .048.012.108.036.168l1.764 4.836c.06.156.192.252.36.252a.385.385 0 0 0 .372-.276l1.104-3.804 1.104 3.804zm7.68 0l-1.104-3.804-1.104 3.804a.385.385 0 0 1-.372.276.375.375 0 0 1-.36-.252L74.947 6.44a.471.471 0 0 1-.036-.168.38.38 0 0 1 .384-.384c.168 0 .3.096.36.252l1.392 3.972 1.14-3.972a.364.364 0 0 1 .36-.252c.204 0 .324.132.36.252l1.14 3.972 1.392-3.972a.375.375 0 0 1 .36-.252.38.38 0 0 1 .384.384.471.471 0 0 1-.036.168l-1.764 4.836a.375.375 0 0 1-.36.252.385.385 0 0 1-.372-.276zm2.856.276c-.348 0-.564-.168-.564-.564 0-.396.216-.576.564-.576s.564.18.564.576c0 .396-.216.564-.564.564zm4.104-5.712c-.78 0-1.368.384-1.596.84V3.273a.38.38 0 0 0-.384-.384.38.38 0 0 0-.384.384v7.872a.38.38 0 0 0 .384.384.38.38 0 0 0 .384-.384V8.18c0-.96.408-1.68 1.596-1.68 1.164 0 1.44.648 1.44 1.596v3.048a.38.38 0 0 0 .384.384.38.38 0 0 0 .384-.384V7.94c0-1.02-.36-2.124-2.208-2.124zm3.288 2.88c0-1.848.912-2.88 2.472-2.88 1.92 0 2.292 1.524 2.292 2.34 0 .348 0 .768-.48.768h-3.504c0 1.188.684 1.956 1.812 1.956.696 0 1.104-.264 1.44-.516a.335.335 0 0 1 .216-.072c.192 0 .348.156.348.348 0 .132-.06.204-.132.276-.18.18-.804.672-1.872.672-1.596 0-2.592-.876-2.592-2.892zm4.008-.444c0-.864-.3-1.74-1.536-1.74-1.044 0-1.62.672-1.692 1.74h3.228zm2.328-5.364a.395.395 0 0 0-.384.384v6.852c0 .924.444 1.404 1.248 1.404.192 0 .36-.156.36-.36a.361.361 0 0 0-.36-.36c-.324 0-.48-.204-.48-.684V3.273a.387.387 0 0 0-.384-.384zm2.628 0a.395.395 0 0 0-.384.384v6.852c0 .924.444 1.404 1.248 1.404.192 0 .36-.156.36-.36a.361.361 0 0 0-.36-.36c-.324 0-.48-.204-.48-.684V3.273a.387.387 0 0 0-.384-.384zm4.404 2.928c1.56 0 2.52.912 2.52 2.88s-.96 2.892-2.52 2.892c-1.548 0-2.52-.924-2.52-2.892s.972-2.88 2.52-2.88zm0 5.076c1.104 0 1.74-.66 1.74-2.196 0-1.512-.636-2.184-1.74-2.184s-1.74.672-1.74 2.184c0 1.536.636 2.196 1.74 2.196zm7.464-.972V8.193c0-1.14-.72-1.68-1.62-1.68-1.104 0-1.716.696-1.716 2.196 0 1.476.612 2.184 1.716 2.184 1.128 0 1.62-.972 1.62-.972zm-1.68 3.204c.984 0 1.68-.492 1.68-1.584v-.684c-.288.372-.84.732-1.62.732-1.56 0-2.484-.912-2.484-2.88s.924-2.892 2.484-2.892c1.368 0 2.4.792 2.4 2.376v3.348c0 1.632-1.116 2.304-2.46 2.304-.936 0-1.608-.348-2.004-.828a.355.355 0 0 1-.072-.216.374.374 0 0 1 .66-.24c.276.276.66.564 1.416.564zm4.14-7.236a.38.38 0 0 0-.384.384v3.132c0 1.14.384 2.184 2.232 2.184 1.86 0 2.232-1.044 2.232-2.184V6.273a.377.377 0 0 0-.372-.384.39.39 0 0 0-.396.384v3.132c0 .78-.252 1.452-1.464 1.452s-1.464-.672-1.464-1.452V6.273a.387.387 0 0 0-.384-.384zm7.224.672c.624 0 .984.192 1.308.504a.348.348 0 0 0 .516-.468c-.372-.492-1.008-.768-1.824-.768-1.02 0-1.836.456-1.836 1.452 0 1.968 3.156 1.476 3.156 2.712 0 .624-.588.852-1.272.852-.672 0-1.152-.216-1.524-.588a.368.368 0 0 0-.264-.12.348.348 0 0 0-.348.348c0 .084.024.144.084.228.312.396 1.068.864 2.052.864 1.14 0 2.04-.492 2.04-1.584 0-1.92-3.156-1.452-3.156-2.712 0-.552.528-.72 1.068-.72zm3.684-.576h-.468a.354.354 0 0 0-.36.36c0 .204.156.36.36.36h.468v3.312c0 .876.516 1.512 1.464 1.512a.364.364 0 0 0 .372-.36.364.364 0 0 0-.372-.36c-.408 0-.696-.276-.696-.792V6.705h.78c.204 0 .36-.156.36-.36a.354.354 0 0 0-.36-.36h-.78v-1.26a.387.387 0 0 0-.384-.384.395.395 0 0 0-.384.384v1.26zm5.052.552c-.636 0-1.02.192-1.392.612-.12.132-.204.168-.312.168a.348.348 0 0 1-.348-.348c0-.084.024-.144.06-.204.336-.528.984-.948 1.992-.948 1.392 0 2.16.816 2.16 2.04v3.3a.374.374 0 0 1-.372.372.374.374 0 0 1-.372-.372v-.432c-.3.564-.996.864-1.716.864-1.272 0-2.076-.612-2.076-1.716 0-1.056.804-1.692 2.1-1.692h1.692v-.324c0-.816-.54-1.32-1.416-1.32zm-.228 4.356c.84 0 1.644-.516 1.644-1.536v-.504h-1.692c-.78 0-1.32.324-1.32 1.02 0 .624.432 1.02 1.368 1.02zm5.556.636a.387.387 0 0 1-.36-.24l-2.04-4.848c-.012-.036-.036-.084-.036-.168a.38.38 0 0 1 .384-.384c.216 0 .312.132.36.252l1.692 4.14 1.692-4.14c.048-.12.144-.252.36-.252a.38.38 0 0 1 .384.384c0 .084-.024.132-.036.168l-2.04 4.848a.387.387 0 0 1-.36.24zm2.748 0c-.348 0-.564-.168-.564-.564 0-.396.216-.576.564-.576s.564.18.564.576c0 .396-.216.564-.564.564zm1.38-2.832c0 1.968.924 2.892 2.472 2.892.972 0 1.548-.432 1.812-.648.12-.108.156-.192.156-.3a.348.348 0 0 0-.348-.348.359.359 0 0 0-.228.084c-.276.204-.696.516-1.392.516-1.104 0-1.692-.696-1.692-2.196 0-1.476.588-2.184 1.692-2.184.792 0 1.116.36 1.296.564.084.096.168.144.288.144a.34.34 0 0 0 .348-.348.359.359 0 0 0-.084-.228c-.192-.264-.78-.828-1.848-.828-1.548 0-2.472.912-2.472 2.88zm7.812-2.88c1.56 0 2.52.912 2.52 2.88s-.96 2.892-2.52 2.892c-1.548 0-2.52-.924-2.52-2.892s.972-2.88 2.52-2.88zm0 5.076c1.104 0 1.74-.66 1.74-2.196 0-1.512-.636-2.184-1.74-2.184s-1.74.672-1.74 2.184c0 1.536.636 2.196 1.74 2.196zm9.708-5.076c-.924 0-1.452.372-1.752.84-.288-.48-.924-.84-1.908-.84-.78 0-1.356.396-1.56.84v-.384a.38.38 0 0 0-.384-.384.38.38 0 0 0-.384.384v4.872a.38.38 0 0 0 .384.384.38.38 0 0 0 .384-.384V8.18c0-1.008.36-1.68 1.476-1.68 1.176 0 1.476.648 1.476 1.596v3.048a.38.38 0 0 0 .384.384.38.38 0 0 0 .384-.384V7.94c0-.888.468-1.44 1.5-1.44 1.164 0 1.5.648 1.5 1.596v3.048a.38.38 0 0 0 .384.384.38.38 0 0 0 .384-.384V7.94c0-1.02-.42-2.124-2.268-2.124z" fill="#000"/></g><g transform="translate(582 59)"><mask id="e" fill="#fff"><use xlink:href="#d"/></mask><path d="M4.474 1.028a2.938 2.938 0 0 0-2.949 2.927 2.938 2.938 0 0 0 2.949 2.928 2.938 2.938 0 0 0 2.948-2.928" stroke="#979797" stroke-width="2" mask="url(#e)"/></g><path fill="#979797" fill-rule="nonzero" d="M586.146 61.329v-3.253l2.62 1.626z"/><g transform="translate(292 56)"><rect fill="#0AAFC4" fill-rule="nonzero" x="1.391" y=".233" width="12" height="12.026" rx="3"/><g transform="translate(0 2)"><mask id="g" fill="#fff"><use xlink:href="#f"/></mask><path d="M4.89 4.309c-.078-1.015.477-2.754 1.724-3.38.612-.308 1.615-.462 2.913.554.218.17.251.478.074.688a.522.522 0 0 1-.715.071c-.698-.545-1.304-.695-1.802-.445-.804.404-1.236 1.715-1.18 2.44.086 1.116.678 2.42 2.065 2.42.819 0 1.06-.971 1.13-1.523-.386-.09-.91-.192-1.238-.192a.5.5 0 0 1-.508-.49.5.5 0 0 1 .508-.49c.697 0 1.793.297 1.916.33.218.06.369.253.369.471 0 .994-.455 2.872-2.177 2.872-1.95 0-2.952-1.67-3.08-3.326z" fill="#FFF" fill-rule="nonzero" mask="url(#g)"/></g></g></g></svg>