<svg width="54" height="57" viewBox="0 0 54 57" xmlns="http://www.w3.org/2000/svg"><title>Ebene_1</title><g fill="none"><path d="M35.458 20.96c-.716-.713-1.874-.713-2.565 0L.74 53.232a1.818 1.818 0 0 0 0 2.58c.345.368.813.54 1.282.54a1.74 1.74 0 0 0 1.282-.54l32.129-32.275c.74-.712.74-1.866.025-2.579" fill="#DBDBDB"/><path d="M48.625 24.423l-4.217-5.674 2.269-6.705a1.85 1.85 0 0 0-.444-1.892 1.824 1.824 0 0 0-1.874-.442l-6.682 2.285-5.647-4.25a1.822 1.822 0 0 0-1.923-.172c-.617.32-1.011.958-.986 1.646l.098 7.074-5.77 4.102a1.772 1.772 0 0 0-.74 1.768 1.841 1.841 0 0 0 1.258 1.474l6.732 2.112 2.096 6.754a1.779 1.779 0 0 0 1.454 1.253c.099.025.198.025.296.025.592 0 1.134-.295 1.48-.762l4.068-5.796 7.052.098a1.83 1.83 0 0 0 1.652-1.007c.296-.59.247-1.351-.172-1.891m-32.03-19.33l1.454 2.652 2.663 1.474-2.663 1.45-1.454 2.676-1.455-2.677-2.663-1.449 2.663-1.474zm20.909 35.172l1.184 2.161 2.145 1.18-2.145 1.178-1.184 2.161-1.183-2.161-2.146-1.179 2.146-1.179zM39.156.402l-1.183 2.161-2.146 1.179 2.146 1.179 1.183 2.161 1.184-2.161 2.145-1.18-2.145-1.178zm12.008 15.571l-1.282.713 1.282.712.715 1.277.69-1.277 1.283-.712-1.282-.713-.69-1.277zm1.628 16.579l-.863 2.923.863 2.923-2.91-.86-2.91.86.839-2.923-.838-2.923 2.91.86z" fill="#FBBA43"/></g></svg>