<svg width="142" height="284" viewBox="0 0 142 284" xmlns="http://www.w3.org/2000/svg"><title>_GG</title><g fill="none"><path d="M0 87.008V52.044C0 35.3 15.74 21.568 34.964 21.568h53.652v65.374H0v.066z" fill="#EA4E51"/><path d="M65.106 87.008v-42.8c0-12.392 11.654-22.573 25.921-22.573h1.809c14.267 0 25.922 10.181 25.922 22.573v42.8H65.106z" fill="#BD4141"/><path fill="#EA4E51" d="M65.106 80.377h76.559v6.631H65.106z"/><path fill="#DDD1C3" d="M27.395 87.008h16.879v196.724H27.395z"/><ellipse fill="#BD4141" cx="44.007" cy="53.853" rx="6.028" ry="6.028"/><path d="M45.815 3.215v51.24c0 1.943-3.014 1.943-3.014 0V3.216c0-1.942 3.014-1.942 3.014 0z" fill="#41475D"/><path d="M40.256 9.98a3.002 3.002 0 0 0 3.014 3.014h15.874c1.675 0 2.01-.87.737-2.01l-2.344-2.076a2.76 2.76 0 0 1-.067-4.085l2.545-2.412c1.206-1.138.804-2.076-.87-2.076H43.27a3.002 3.002 0 0 0-3.014 3.014V9.98z" fill="#FBBA44"/><path fill="#EDEDED" d="M112.662 78.234l-3.55-24.515-58.541 23.108z"/><path fill="#FFF" d="M98.127 46.887l10.985 6.832-58.541 23.108z"/><path fill="#E3E3E3" d="M112.662 78.234l1.809-21.166-63.9 19.76z"/><path fill="#FFF" d="M133.158 68.656l-18.687-11.588-63.9 19.76z"/><path fill="#EA4E51" d="M65.039 49.7v28.065H40.992l.134-9.913z"/></g></svg>