<svg width="422" height="416" viewBox="0 0 422 416" xmlns="http://www.w3.org/2000/svg" xmlns:xlink="http://www.w3.org/1999/xlink"><title>Group 29</title><defs><path id="a" d="M3.642 0h19.66l3.005 33.384H.388z"/><path id="c" d="M0 .094v6.382h3.186V.094z"/><path id="e" d="M3.206 6.477V.093H.02v6.384z"/></defs><g transform="translate(1 1)" fill="none" fill-rule="evenodd"><path d="M221.033 99.121h91.529v41.757h-91.529z"/><path d="M241.222 211.117l2.229 3.499 2.229-3.499a.857.857 0 0 1 1.58.458.802.802 0 0 1-.134.458l-2.82 4.206v3.793a.857.857 0 0 1-1.711 0v-3.793l-2.82-4.206a.795.795 0 0 1-.132-.458.857.857 0 0 1 1.579-.458zm12.177 6.303c0 2.406-1.24 3.542-3.232 3.542-1.993 0-3.233-1.136-3.233-3.542 0-2.42 1.24-3.557 3.233-3.557 1.992 0 3.232 1.136 3.232 3.557zm-1.609 0c0-1.461-.56-2.2-1.623-2.2s-1.624.739-1.624 2.2c0 1.446.56 2.184 1.624 2.184 1.062 0 1.623-.738 1.623-2.184zm3.498-3.469a.794.794 0 0 0-.797.797v3.44c0 1.446.546 2.774 2.923 2.774 2.361 0 2.907-1.328 2.907-2.775v-3.439a.794.794 0 0 0-.797-.797.794.794 0 0 0-.797.797v3.44c0 .678-.236 1.328-1.313 1.328-1.093 0-1.329-.65-1.329-1.329v-3.439a.794.794 0 0 0-.797-.797z" fill="#0AAFC4"/><g stroke="#DADADA"><path d="M377.518 261.3c-6.537 49.772-15.395 87.522-73.391 104.183" stroke-width="2.109" stroke-linecap="round" stroke-linejoin="round" stroke-dasharray="6.450052546281596,4.299964636616632"/><path d="M302.018 366.116c-1.055.21-2.11.633-3.164.844" stroke-width="1.054"/><path stroke-width="1.054" fill="#DADADA" fill-rule="nonzero" stroke-linecap="round" stroke-linejoin="round" d="M373.765 257.018l.662.821 3.887-3.512 3.098 4.112.82-.661-3.759-4.934zm-72.591 104.669l.844.633-2.531 4.429 4.64 2.32-.633 1.054-5.694-2.953z"/></g><g stroke="#DADADA" stroke-linecap="round" stroke-linejoin="round"><path d="M401.982 256.239c13.287 30.02 8.858 56.786 6.96 69.807" stroke-width="2.109" stroke-dasharray="6.326889279437609,4.21792618629174"/><path stroke-width="1.054" fill="#DADADA" fill-rule="nonzero" d="M397.554 255.817l.843.422 2.11-4.85 4.639 2.32.422-.844-5.695-2.953zm7.17 70.44l.844-.633 3.163 4.218 3.796-3.375.844.844-4.85 4.007z"/></g><g stroke="#DADADA" stroke-linecap="round" stroke-linejoin="round"><path d="M217.87 259.824c30.489.207 28.905 23.558 54.84 37.404 26.331 13.845 39.992.413 31.677-9.92-8.514-10.125-28.311 18.392 10.69 34.717 33.26 13.846 47.911 22.732 51.475 25.005" stroke-width="2.109" stroke-dasharray="6.326889279437609,4.21792618629174"/><path stroke-width="1.054" fill="#DADADA" fill-rule="nonzero" d="M215.854 264.226l.734-.94-4.205-3.096 3.54-4.047-.914-.525-4.117 4.543zM366.13 350.72l-.21-1.054 5.06-1.054-1.476-5.062 1.055-.21 1.687 6.115z"/></g><g stroke="#DADADA" stroke-linecap="round" stroke-linejoin="round"><path d="M190.875 307.17c2.738 9.173 9.776 11.54 33.63 13.316 23.659 1.775 32.653 7.398 33.435 15.683" stroke-width="2.109" stroke-dasharray="6.326889279437609,4.21792618629174"/><path stroke-width="1.054" fill="#DADADA" fill-rule="nonzero" d="M185.814 306.01l1.054.422 2.32-4.64 4.429 2.742.633-.843-5.484-3.375zm68.616 33.669l.477-.94 4.532 2.626 2.383-4.703.94.477-2.86 5.644z"/></g><g stroke="#DADADA" stroke-linecap="round" stroke-linejoin="round"><path d="M47.255 335.325c14.763-23.831 32.267-22.144 67.908 2.32 35.853 24.464 61.582 39.648 108.401 36.274" stroke-width="2.109" stroke-dasharray="6.326889279437609,4.21792618629174"/><path stroke-width="1.054" fill="#DADADA" fill-rule="nonzero" d="M49.153 340.176l-.211-1.055-5.062 1.266-1.054-5.062-1.054.211 1.265 6.116zm178.207 37.961l-.843-.633 3.585-3.796-4.007-3.374.843-.844 4.851 4.218z"/></g><g stroke="#DADADA" stroke-linecap="round" stroke-linejoin="round"><path d="M156.92 277.118c-30.368 26.784-26.994 34.165-42.811 51.248-15.606 16.871-29.526 28.681-52.091 35.22" stroke-width="2.109" stroke-dasharray="6.326889279437609,4.21792618629174"/><path stroke-width="1.054" fill="#DADADA" fill-rule="nonzero" d="M156.077 272.689v1.054h5.062l-.422 5.062 1.055.21.632-6.326zM57.8 360.633l.843.421-2.53 4.43 4.64 2.32-.423.843-5.694-2.531z"/></g><g stroke="#DADADA" stroke-linecap="round" stroke-linejoin="round"><path d="M153.125 264.253c-68.752 15.817-103.972-4.429-121.687-33.322" stroke-width="2.109" stroke-dasharray="6.326889279437609,4.21792618629174"/><path stroke-width="1.054" fill="#DADADA" fill-rule="nonzero" d="M154.812 259.402l-.633 1.055 4.43 2.53-2.953 4.219.843.632 3.796-5.061z"/></g><g stroke="#DADADA" stroke-linecap="round" stroke-linejoin="round"><path d="M14.355 232.408c-25.097 57.574-8.014 102.917-4.85 110.299" stroke-width="2.109" stroke-dasharray="6.326889279437609,4.21792618629174"/><path stroke-width="1.054" fill="#DADADA" fill-rule="nonzero" d="M11.402 228.612l.422.843 4.64-2.109 1.898 4.85.844-.421-2.11-5.905zM6.13 345.237l.422-1.054 4.64 2.32 1.898-4.851 1.054.21-2.32 5.906z"/></g><g stroke="#DADADA" stroke-linecap="round" stroke-linejoin="round"><path d="M64.964 69.174c4.256 39.959-8.228 66.434-22.982 86.046" stroke-width="2.109" stroke-dasharray="6.326889279437609,4.21792618629174"/><path stroke-width="1.054" fill="#DADADA" fill-rule="nonzero" d="M60.541 66.221l.844.633 3.374-4.007 3.796 3.585.633-.632-4.64-4.43zm-22.777 87.733l1.055-.21 1.054 5.06 5.062-1.264.21.843-6.115 1.898z"/></g><g stroke="#DADADA" stroke-linecap="round" stroke-linejoin="round"><path d="M103.353 46.608c115.36-25.94 169.772-17.293 252.021 4.85" stroke-width="2.109" stroke-dasharray="6.326889279437609,4.21792618629174"/><path stroke-width="1.054" fill="#DADADA" fill-rule="nonzero" d="M101.666 51.459l.633-.844-4.43-2.742 2.953-4.217-.843-.633-3.796 5.061zm249.069 3.163l-.422-.843 4.64-2.531L352 46.819l1.054-.422 3.375 5.273z"/></g><g stroke="#DADADA" stroke-linecap="round" stroke-linejoin="round"><path d="M377.94 87.311c-19.402 24.464-35.641 46.186-83.936 63.269" stroke-width="2.109" stroke-dasharray="6.326889279437609,4.21792618629174"/><path stroke-width="1.054" fill="#DADADA" fill-rule="nonzero" d="M376.253 82.671l.211 1.055 5.061-.844.422 5.273h1.055l-.422-6.327zm-80.563 62.637l1.055.421-2.32 4.64 4.85 1.898-.42 1.055-5.906-2.32z"/></g><g stroke="#DADADA" stroke-linecap="round" stroke-linejoin="round"><path d="M403.88 79.508c18.348 27.764 21.723 62.945 5.273 100.597" stroke-width="2.109" stroke-dasharray="6.326889279437609,4.21792618629174"/><path stroke-width="1.054" fill="#DADADA" fill-rule="nonzero" d="M398.397 78.875l1.055.211 1.054-5.061 5.062 1.476.21-1.055-5.905-1.898zm6.96 100.176l1.054-.422 1.898 4.85 4.64-2.32.422.845-5.483 2.952z"/></g><g stroke="#DADADA" stroke-linecap="round" stroke-linejoin="round"><path d="M371.824 190.44c-36.274-24.886-59.683-19.192-75.712-16.872" stroke-width="2.109" stroke-dasharray="6.326889279437609,4.21792618629174"/><path stroke-width="1.054" fill="#DADADA" fill-rule="nonzero" d="M371.192 184.956l-1.055.211 1.265 5.061-5.061 1.055.21.844 6.117-1.055zm-72.338-16.028l.844.633-3.375 4.007 4.218 2.952-.421.844-5.273-3.585z"/></g><g stroke="#DADADA" stroke-linecap="round" stroke-linejoin="round"><path d="M283.459 247.592c-21.305-2.168-32.057-11.037-32.057-21.09" stroke-width="2.109" stroke-dasharray="6.326889279437609,4.21792618629174"/><path stroke-width="1.054" fill="#DADADA" fill-rule="nonzero" d="M286.123 243.898l-.726.698 3.276 3.736-3.644 3.283.658.789 4.565-3.999z"/></g><g stroke="#DADADA" stroke-linecap="round" stroke-linejoin="round"><path d="M217.237 247.17c20.464-2.254 30.791-11.479 30.791-21.933" stroke-width="2.109" stroke-dasharray="6.326889279437609,4.21792618629174"/><path stroke-width="1.054" fill="#DADADA" fill-rule="nonzero" d="M214.687 252.154l.557-.863-4.213-2.808 2.992-4.114-.805-.604-3.55 4.977z"/></g><g stroke="#DADADA" stroke-linecap="round" stroke-linejoin="round"><path d="M244.654 55.466c-23.576 2.952-18.311 24.464-51.271 31.634-33.189 7.17-56.535-.422-93.615-20.246" stroke-width="2.109" stroke-dasharray="6.326889279437609,4.21792618629174"/><path stroke-width="1.054" fill="#DADADA" fill-rule="nonzero" d="M246.952 51.162l-.536.777 3.796 3.302-3.72 3.736.747.744 4.464-4.484zM105.04 64.745l.211 1.055-5.061 1.054 1.687 5.062-1.055.21-1.898-5.905z"/></g><g stroke-linecap="round" stroke="#DADADA" stroke-linejoin="round"><path d="M89.645 77.188c50.404 52.724 75.29 109.244 85.624 150.79" stroke-width="2.109" stroke-dasharray="6.326889279437609,4.21792618629174"/><path stroke-width="1.054" fill="#DADADA" fill-rule="nonzero" d="M84.583 78.032h1.055V72.97l5.272.422v-1.055l-6.327-.632zm86.89 152.899l.422-.843 4.428 2.742 2.531-4.64.844.422-2.953 5.694z"/></g><g stroke="#DADADA" stroke-linecap="round" stroke-linejoin="round"><path d="M199.1 168.928c-60.245-14.763-101.626-3.796-132.864 5.905" stroke-width="2.109" stroke-dasharray="6.326889279437609,4.21792618629174"/><path stroke-width="1.054" fill="#DADADA" fill-rule="nonzero" d="M203.107 165.132l-.843.632 2.952 4.218-4.64 2.742.633.844 5.483-3.164zm-139.824 6.327l.844.421-2.742 4.64 4.64 2.32-.422.844-5.694-2.742z"/></g><g stroke="#DADADA" stroke-linecap="round" stroke-linejoin="round"><path d="M240.014 87.733c-39.438 3.585-55.887 36.274-37.118 55.676" stroke-width="2.109" stroke-dasharray="6.326889279437609,4.21792618629174"/><path stroke-width="1.054" fill="#DADADA" fill-rule="nonzero" d="M241.49 83.515l-.632.844 4.218 2.952-3.375 4.007.844.633 4.007-4.85zm-43.866 60.527l.21-1.054 5.062.632v-5.272h1.055v6.327z"/></g><g fill-rule="nonzero"><path d="M285.99 201.406H210.7v-65.589c0-.843.632-1.476 1.476-1.476h72.548c.844 0 1.476.633 1.476 1.476v65.589h-.21z" fill="#DADADA"/><g fill="#B3B2B2"><path d="M265.532 162.39h13.076v35.64h-13.076z"/><path d="M279.663 198.875h-14.974v-37.54h14.974v37.54zm-13.076-1.898h11.177v-33.532h-11.177v33.532z"/></g><path fill="#CFE5EB" d="M217.66 162.179h39.015v25.097H217.66z"/><path d="M257.73 188.33h-40.915v-26.994h40.914v26.994zm-39.016-1.898h37.117v-23.198h-37.117v23.198z" fill="#B3B2B2"/><path d="M241.069 156.696c-2.11 0-3.586-1.687-3.586-3.585v-3.375h7.382v3.375c-.211 1.898-1.687 3.585-3.796 3.585zm14.762 0c-2.109 0-3.585-1.687-3.585-3.585v-3.375h7.381v3.375c-.21 1.898-1.898 3.585-3.796 3.585zm-29.525 0c-2.11 0-3.585-1.687-3.585-3.585v-3.375h7.38v3.375c0 1.898-1.686 3.585-3.795 3.585zm-14.552 0c-2.109 0-3.585-1.687-3.585-3.585v-3.375h7.381v3.375c-.21 1.898-1.898 3.585-3.796 3.585zm58.84 0c-2.109 0-3.585-1.687-3.585-3.585v-3.375h7.381v3.375c-.21 1.898-1.898 3.585-3.796 3.585zm14.552 0c-2.11 0-3.585-1.687-3.585-3.585v-3.375h7.381v3.375c0 1.898-1.687 3.585-3.796 3.585z" fill="#EF6061"/><path d="M233.687 156.696c-2.109 0-3.585-1.687-3.585-3.585v-3.375h7.381v3.375c0 1.898-1.687 3.585-3.796 3.585zm29.526 0c-2.11 0-3.586-1.687-3.586-3.585v-3.375h7.382v3.375c-.211 1.898-1.898 3.585-3.796 3.585zm14.551 0c-2.108 0-3.585-1.687-3.585-3.585v-3.375h7.382v3.375c0 1.898-1.688 3.585-3.797 3.585zm-58.84 0c-2.109 0-3.585-1.687-3.585-3.585v-3.375h7.382v3.375c0 1.898-1.688 3.585-3.797 3.585zm29.526 0c-2.11 0-3.585-1.687-3.585-3.585v-3.375h7.381v3.375c-.21 1.898-1.687 3.585-3.796 3.585z" fill="#F6F5F6"/><path d="M244.654 149.736h-7.17l.632-11.177h6.96zm14.763 0h-7.382l-.21-11.177h6.959zm-29.315 0h-7.381l1.687-11.177h6.96zm-14.762 0h-7.382l2.741-11.177h6.96zm58.84 0h-7.382l-1.265-11.177h6.96z" fill="#F9696A"/><path d="M237.483 149.736h-7.381l1.265-11.177h6.749zm29.315 0h-7.381l-.633-11.177h6.749z" fill="#FFF"/><path fill="#F9696A" d="M288.942 149.736h-7.381l-2.32-11.177h6.748z"/><path d="M281.56 149.736h-7.38l-1.688-11.177h6.749zm-58.84 0h-7.38l2.32-11.177h6.748zm29.315 0h-7.381l.422-11.177h6.748z" fill="#FFF"/><path fill="#C7C6C6" d="M208.802 197.61h79.297v5.483h-79.297z"/><path fill="#CFE5EB" d="M266.587 163.445h11.178V185.8h-11.178z"/></g><circle stroke="#DADADA" stroke-width="1.265" transform="matrix(-1 0 0 1 45.582 0)" cx="22.791" cy="376.661" r="21.09"/><path d="M8.175 407.925l-1.148-2.94-1.148 2.94h2.296zm.546 1.484H5.333l-.854 2.03c-.126.294-.392.532-.756.532a.807.807 0 0 1-.798-.798c0-.084.014-.196.056-.294l3.304-8.05c.084-.196.308-.504.742-.504s.658.308.742.504l3.304 8.05c.042.098.056.21.056.294a.807.807 0 0 1-.798.798c-.364 0-.63-.238-.756-.532l-.854-2.03zm5.936 2.632c-1.764 0-2.842-1.092-2.842-3.374s1.106-3.36 2.996-3.36c1.694 0 2.898.938 2.898 2.8v3.542c0 1.932-.952 3.024-3.024 3.024-1.134 0-1.974-.35-2.45-.924a.636.636 0 0 1-.14-.406c0-.364.308-.672.672-.672.168 0 .28.056.448.168.35.252.812.546 1.47.546.994 0 1.498-.518 1.498-1.372v-.532c-.28.28-.854.56-1.526.56zm1.54-2.002v-1.932c0-.966-.574-1.512-1.386-1.512-.966 0-1.498.7-1.498 2.072 0 1.386.546 2.086 1.498 2.086.84 0 1.386-.714 1.386-.714zm2.534-1.386c0-2.142 1.12-3.346 3.024-3.346 2.366 0 2.8 1.82 2.8 2.786 0 .518 0 1.12-.854 1.12h-3.458c0 1.008.714 1.47 1.638 1.47.616 0 1.05-.21 1.386-.434.154-.098.266-.154.448-.154.364 0 .658.294.658.658a.7.7 0 0 1-.238.518c-.238.224-.98.77-2.254.77-1.946 0-3.15-1.05-3.15-3.388zm3.024-2.058c-.812 0-1.4.462-1.47 1.358h2.772c0-.686-.392-1.358-1.302-1.358zm7.154-1.288c-.938 0-1.526.434-1.792.84a.753.753 0 0 0-.756-.756.753.753 0 0 0-.756.756v5.096c0 .42.322.728.756.728s.756-.308.756-.728v-3.122c0-.826.35-1.442 1.4-1.442.91 0 1.232.546 1.232 1.344v3.22c0 .42.308.728.756.728.42 0 .756-.308.756-.728v-3.5c0-1.218-.448-2.436-2.352-2.436zm3.388 3.36c0 2.282 1.134 3.374 3.038 3.374 1.148 0 1.918-.504 2.24-.798a.667.667 0 0 0 .238-.518.663.663 0 0 0-.672-.672.657.657 0 0 0-.42.14c-.322.238-.742.56-1.386.56-.98 0-1.512-.742-1.512-2.086 0-1.316.532-2.072 1.512-2.072.7 0 1.064.35 1.246.546.126.14.294.238.518.238a.663.663 0 0 0 .672-.672c0-.168-.042-.28-.154-.434-.252-.322-.994-.966-2.282-.966-1.904 0-3.038 1.078-3.038 3.36zm6.51 4.606c-.406 0-.728.294-.728.7 0 .406.322.7.728.7 1.4 0 2.282-.98 2.898-2.352l2.604-5.88a.781.781 0 0 0 .056-.294.753.753 0 0 0-.756-.756c-.42 0-.63.294-.7.476l-1.54 3.892-1.54-3.892a.737.737 0 0 0-.7-.476.753.753 0 0 0-.756.756c0 .126.028.224.056.294l2.156 4.97c-.462 1.148-.882 1.862-1.778 1.862z" fill="#0AAFC4"/><g transform="translate(9.394 359.79)"><mask id="b" fill="#fff"><use xlink:href="#a"/></mask><g mask="url(#b)"><path d="M17.723 23.48l-4.27 10.42-4.27-10.42c-2.97 1.635-4.999 4.915-4.999 8.7 0 5.412 4.15 9.8 9.27 9.8 5.118 0 7.007-4.388 7.007-9.8 0-.82 2.166-1.619 1.986-2.38-.649-2.75-2.398-5.04-4.724-6.32" fill="#296A9C" fill-rule="nonzero"/><path d="M11.38 19.92v2.094c0 1.132 4.091 1.132 4.091 0v-1.908l-4.091-.186z" fill="#E1AC82" fill-rule="nonzero"/><path d="M21.697 11.584c0 4.596-3.722 8.177-8.31 8.322-4.653.148-8.448-3.49-8.309-8.322.133-4.594 3.72-8.323 8.31-8.323s8.31 3.726 8.31 8.323" fill="#424144" fill-rule="nonzero"/><path d="M21.568 12.556c0 4.526-3.663 8.195-8.182 8.195-4.52 0-8.183-3.67-8.183-8.195 0-4.526 3.664-8.195 8.183-8.195s8.182 3.669 8.182 8.195" fill="#EFB689" fill-rule="nonzero"/><path d="M15.005 4.522a8.185 8.185 0 0 1 3.979 7.021c0 4.527-3.664 8.196-8.182 8.196a8.268 8.268 0 0 1-1.62-.162 8.124 8.124 0 0 0 4.204 1.173c4.52 0 8.183-3.668 8.183-8.195 0-3.97-2.82-7.28-6.564-8.033" fill="#E1AC82" fill-rule="nonzero"/><path d="M13.408 17.44c-1.825 0-2.466-.919-2.491-.958a.191.191 0 0 1 .316-.215c.024.035.57.791 2.175.791 1.608 0 2.156-.748 2.178-.78a.19.19 0 1 1 .314.217c-.026.04-.668.946-2.492.946" fill="#DC8F72" fill-rule="nonzero"/><path d="M5.604 14.529S4.927 9.674 6.87 8.725c.177-.097.846-.666 2.596-.756a8.743 8.743 0 0 1 2.278.214c.64.151 1.798.328 2.996.021.207-.054.603-.206.953-.266 1.223-.21 2.256-.14 3.69.391.451.169.837.483 1.068.906.415.758.897 2.28.727 5.17 0 0 1.585-3.186-.647-7.097 0 0 .68-1.046-.011-2.665-.355-.831-.999-1.503-1.784-1.95-.949-.542-2.398-1.558-2.206-2.63 0 0-.663 1.253-4.237 1.367a13.63 13.63 0 0 1-.729 0c-.841-.018-4.175.13-5.898 3.408-.263.5-.39 1.068-.293 1.625.073.414.269.86.729 1.17 0 0-2.03 1.955-.5 6.896" fill="#5D3C30" fill-rule="nonzero"/><path d="M14.176 22.407V42.33c3.772-.228 7.112-4.045 8.421-7.598.414-1.121.482-1.086.482-2.364 0-5.323-3.94-9.66-8.903-9.961" fill="#296A9C" fill-rule="nonzero"/><path d="M18.48 29.681l.003-.13v-5.596c-1.45-.994-3.726-1.215-5.582-1.267-2.055-.058-2.97.254-4.403 1.216v5.648a3.9 3.9 0 0 1 .002.13c0 1.853-1.421 3.356-3.175 3.356-.392 0-.766-.079-1.113-.217.315 5.112 4.325 9.159 9.24 9.159 4.903 0 6.539-3.748 6.868-8.846-.324.118-1.84-1.599-1.84-3.453" fill="#296A9C" fill-rule="nonzero"/><path d="M10.784 35.077l1.576-3.845-3.177-7.752a9.355 9.355 0 0 0-2.38 1.88l3.981 9.717z" fill="#296A9C" fill-rule="nonzero"/><path d="M10.376 22.9c-.715.167-1.532.777-1.532.777l.652.53.88-1.308z" fill="#296A9C" fill-rule="nonzero"/><path d="M17.913 23.588c-.593-.36-1.438-.688-1.438-.688s.728 1.285.75 1.306c.022.023.343.154.35.118.008-.036.338-.736.338-.736" fill="#D3D6D7" fill-rule="nonzero"/><path d="M13.683 25.65a.297.297 0 1 1-.594.002.297.297 0 0 1 .594-.001m0 2.396a.296.296 0 1 1-.594 0 .297.297 0 1 1 .594 0m0 2.396a.297.297 0 1 1-.595 0 .297.297 0 0 1 .595 0m0 2.397a.297.297 0 1 1-.594 0 .297.297 0 0 1 .594 0" fill="#DADADA" fill-rule="nonzero"/><path d="M14.176 22.407v1.417c3.65 1.38 6.262 5.061 6.262 9.395 0 1.278.879 4.988 2.16 1.513.413-1.121.48-1.086.48-2.364 0-5.323-3.94-9.66-8.902-9.961" fill="#2B6594" fill-rule="nonzero"/><path fill="#2B76A8" fill-rule="nonzero" d="M11.363 21.487l2.062 1.2-.985 1.43-2.064-1.218zm4.125 0l-2.063 1.2.985 1.43 2.065-1.218z"/><path d="M14.094 23.542a.715.715 0 1 1-1.43 0 .715.715 0 0 1 1.43 0" fill="#E53748" fill-rule="nonzero"/><path d="M15.652 23.48c0 .456-.05.827-.507.827-.455 0-1.461-.37-1.461-.827 0-.456 1.006-.825 1.461-.825.456 0 .507.37.507.825m-4.454 0c0-.456.051-.825.508-.825.455 0 1.46.37 1.46.825 0 .456-1.005.827-1.46.827-.457 0-.508-.37-.508-.827" fill="#E53748" fill-rule="nonzero"/><path d="M9.526 18.68a.507.507 0 0 1-.507.508H6.621a2.039 2.039 0 0 1-2.037-2.04v-1.36h1.014v1.36c0 .566.458 1.024 1.023 1.024H9.02c.28 0 .507.228.507.508" fill="#BFBFBF" fill-rule="nonzero"/><path d="M10.897 18.68a.507.507 0 0 1-.508.508H7.537v-1.016h2.852c.28 0 .508.228.508.508" fill="#9D9D9C" fill-rule="nonzero"/><path d="M20.812 6.403c-.066.576-.28.905-.28.905.74 1.296 1.055 2.508 1.153 3.555h.366a8.65 8.65 0 0 0-1.24-4.46M6.103 7.632a1.615 1.615 0 0 1-.543-.618 8.643 8.643 0 0 0-.907 3.848h.387c.072-2.267 1.063-3.23 1.063-3.23" fill="#BFBFBF" fill-rule="nonzero"/><path d="M5.637 10.925h.04c0-.09.011-.176.014-.266a8.96 8.96 0 0 0-.054.266" fill="#C5C5C5" fill-rule="nonzero"/><g transform="translate(2.633 9.905)"><mask id="d" fill="#fff"><use xlink:href="#c"/></mask><path d="M3.186 6.476A3.189 3.189 0 0 1 0 3.284 3.189 3.189 0 0 1 3.186.094" fill="#BFBFBF" fill-rule="nonzero" mask="url(#d)"/></g><g transform="translate(20.865 9.905)"><mask id="f" fill="#fff"><use xlink:href="#e"/></mask><path d="M.02.093a3.189 3.189 0 0 1 3.186 3.192A3.189 3.189 0 0 1 .02 6.477" fill="#BFBFBF" fill-rule="nonzero" mask="url(#f)"/></g></g></g><g transform="matrix(-1 0 0 1 419.065 336.59)"><circle stroke="#DADADA" stroke-width="1.687" cx="22.566" cy="21.09" r="21.09"/><path d="M37.182 52.354l1.148-2.94 1.148 2.94h-2.296zm-.546 1.484h3.388l.854 2.03c.126.294.392.532.756.532a.807.807 0 0 0 .798-.798.778.778 0 0 0-.056-.294l-3.304-8.05c-.084-.196-.308-.504-.742-.504s-.658.308-.742.504l-3.304 8.05a.778.778 0 0 0-.056.294c0 .434.364.798.798.798.364 0 .63-.238.756-.532l.854-2.03zM30.7 56.47c1.764 0 2.842-1.092 2.842-3.374s-1.106-3.36-2.996-3.36c-1.694 0-2.898.938-2.898 2.8v3.542c0 1.932.952 3.024 3.024 3.024 1.134 0 1.974-.35 2.45-.924a.636.636 0 0 0 .14-.406.681.681 0 0 0-.672-.672c-.168 0-.28.056-.448.168-.35.252-.812.546-1.47.546-.994 0-1.498-.518-1.498-1.372v-.532c.28.28.854.56 1.526.56zm-1.54-2.002v-1.932c0-.966.574-1.512 1.386-1.512.966 0 1.498.7 1.498 2.072 0 1.386-.546 2.086-1.498 2.086-.84 0-1.386-.714-1.386-.714zm-2.534-1.386c0-2.142-1.12-3.346-3.024-3.346-2.366 0-2.8 1.82-2.8 2.786 0 .518 0 1.12.854 1.12h3.458c0 1.008-.714 1.47-1.638 1.47-.616 0-1.05-.21-1.386-.434-.154-.098-.266-.154-.448-.154a.657.657 0 0 0-.658.658.7.7 0 0 0 .238.518c.238.224.98.77 2.254.77 1.946 0 3.15-1.05 3.15-3.388zm-3.024-2.058c.812 0 1.4.462 1.47 1.358H22.3c0-.686.392-1.358 1.302-1.358zm-7.154-1.288c.938 0 1.526.434 1.792.84 0-.42.336-.756.756-.756s.756.336.756.756v5.096c0 .42-.322.728-.756.728s-.756-.308-.756-.728V52.55c0-.826-.35-1.442-1.4-1.442-.91 0-1.232.546-1.232 1.344v3.22c0 .42-.308.728-.756.728-.42 0-.756-.308-.756-.728v-3.5c0-1.218.448-2.436 2.352-2.436zm-3.388 3.36c0 2.282-1.134 3.374-3.038 3.374-1.148 0-1.918-.504-2.24-.798a.667.667 0 0 1-.238-.518c0-.378.294-.672.672-.672.14 0 .266.028.42.14.322.238.742.56 1.386.56.98 0 1.512-.742 1.512-2.086 0-1.316-.532-2.072-1.512-2.072-.7 0-1.064.35-1.246.546a.675.675 0 0 1-.518.238.663.663 0 0 1-.672-.672c0-.168.042-.28.154-.434.252-.322.994-.966 2.282-.966 1.904 0 3.038 1.078 3.038 3.36zm-6.51 4.606c.406 0 .728.294.728.7 0 .406-.322.7-.728.7-1.4 0-2.282-.98-2.898-2.352l-2.604-5.88a.781.781 0 0 1-.056-.294c0-.42.336-.756.756-.756s.63.294.7.476l1.54 3.892 1.54-3.892a.737.737 0 0 1 .7-.476c.42 0 .756.336.756.756a.781.781 0 0 1-.056.294l-2.156 4.97c.462 1.148.882 1.862 1.778 1.862z" fill="#0AAFC4"/></g><g fill-rule="nonzero"><path d="M404.717 374.338a12.09 12.09 0 0 0 .258-2.4c0-4.965-3.805-9.146-8.48-9.146-4.628 0-8.34 4.205-8.34 9.147 0 .784.095 1.591.259 2.399h16.303z" fill="#A3D8E7"/><path d="M404.717 374.338a12.09 12.09 0 0 0 .258-2.4c0-4.775-3.336-8.79-7.752-9.05l-.094 11.45h7.588z" fill="#9CCFDD"/><path d="M404.693 374.338c.141-.594.212-1.212.259-1.782a3.133 3.133 0 0 1-.94.167c-1.597 0-2.866-1.545-2.866-3.231v-5.25c-1.315-.903-2.89-1.45-4.557-1.45a7.977 7.977 0 0 0-4.487 1.402v5.298c0 1.686-1.292 3.23-2.866 3.23a2.83 2.83 0 0 1-1.01-.19c.047.594.118 1.188.258 1.806h16.21z" fill="#A3D8E7"/><path d="M400.488 369.92v4.442h4.182c.164-.927.282-1.806.305-2.423a2.53 2.53 0 0 1-.94.166c-1.573 0-2.865-1.45-2.865-3.017v-4.823c-.8-.57-2.068-1.164-3.29-1.33l-.187.522c-.4.024-.165-.047-.517.285 1.621 1.093 3.312 4.087 3.312 6.177z" fill="#9CCFDD"/><path d="M392.572 353.93c0 1.022-.799 1.83-1.762 1.83s-1.762-.831-1.762-1.83c0-.997.799-1.828 1.762-1.828s1.762.807 1.762 1.829" fill="#F3A68A"/><path d="M396.565 361.2c-3.17 0-5.92-3.278-5.92-7.34 0-4.063 2.373-8.363 5.92-8.244 3.547-.119 5.92 4.181 5.92 8.244.024 4.038-2.748 7.34-5.92 7.34" fill="#F3A68A"/><path d="M390.67 346.78s-.024-.047-.048-.119l1.88 2.542-.635.5-.775 2.85c-.07.428-.493 1.022-.634.166 0 0-.141-1.496-.212-2.78-.07-1.282-.164-1.805 0-2.256.165-.5.165-.784.423-.903" fill="#432313"/><path fill="#A3D8E7" d="M389.941 372.675h9.396v1.71h-9.396z"/><path fill="#F3A68A" d="M388.18 372.034v2.352h2.372v-2.376zm14.422-.024h2.373v2.376h-2.373zm-4.204-10.928v1.71c0 .76-.846 1.378-1.856 1.378-1.034 0-1.856-.618-1.856-1.378V361.2l3.712-.118z"/><path fill="#A3D8E7" d="M388.18 371.915v2.47h2.372v-2.494z"/><path fill="#9CCFDD" d="M390.387 371.915v2.47h.254v-2.494zm12.215.095h2.373v2.376h-2.373z"/><path fill="#96C6D3" d="M402.602 372.01h1v2.376h-1z"/><path fill="#EA4E50" d="M396.495 365.88l-1.034-.712 1.034-1.045 1.033 1.045z"/><path d="M400.206 363.505l-1.644-1.07-2.02 1.735 1.01 1.212c.047.142.211.166.305.047l2.35-1.924zm-7.352 0l1.644-1.07 2.02 1.735-1.01 1.212c-.047.142-.211.166-.305.047l-2.35-1.924z" fill="#BEE3ED"/><path fill="#EA4E50" d="M396.142 365.287l-.446 9.099h1.621l-.446-9.1z"/><path d="M404.317 353.93c0 1.022-.798 1.83-1.762 1.83-.963 0-1.761-.831-1.761-1.83 0-.997.798-1.828 1.761-1.828.964 0 1.762.807 1.762 1.829" fill="#F3A68A"/><path d="M393.3 352.957c.024.38.352.665.728.641a.689.689 0 0 0 .635-.736.686.686 0 0 0-.729-.642c-.375 0-.657.333-.634.737m4.933 0c.024.38.353.665.728.641a.689.689 0 0 0 .635-.736.686.686 0 0 0-.729-.642c-.399 0-.68.333-.634.737" fill="#020203"/><path d="M402.415 346.305s1.996-4.158-4.722-4.775c0 0-2.725-.285-5.92.855-.047.024-.07.095 0 .119l.517.214s-1.738.689-3.171-.76c-.07-.072-.212-.048-.235.047-.07.214-.118.57.094.926 0 0-1.198.357-1.997-1.235-.047-.071-.14-.071-.164.024-.165.76-.306 3.326 3.782 6.628l.728.333s3.993 2.494 9.161-.048l.729.57.916 3.73c.07.143.422.76.563-.428 0 0 .306-1.449.4-2.732.07-1.282.164-2.114 0-2.59-.188-.474-.447-.76-.681-.878" fill="#432313"/><path d="M402.696 345.093s-4.416 2.09-10.03-.57c0 0 1.292 1.592 2.866 1.83 0 0-2.796.213-5.403-1.83 0 0 .446 2.328 2.466 2.756 0 0-3.476.238-5.59-3.445 0 0 2.09 5.773 8.15 5.94.024 0 6.978.498 7.541-4.68" fill="#3A1E14"/><path d="M396.377 355.665h-1.245c-.516 0-1.01.166-1.41.475l-.845.665a.378.378 0 0 1-.164.095c-.376.143-.775-.023-1.01-.356l-.916-1.093c-.024-.047-.094-.023-.07.024l.187 2.803c.024.214.094.428.211.594l1.903 2.827a2.705 2.705 0 0 0 2.255 1.212h1.104v-7.246z" fill="#432313"/><path d="M396.19 355.665h1.761c.517 0 1.01.166 1.41.475l.845.665a.378.378 0 0 0 .165.095c.376.143.775-.023 1.01-.356l.916-1.093c.024-.047.094-.023.07.024l-.187 2.803a1.288 1.288 0 0 1-.212.594l-1.903 2.827a2.705 2.705 0 0 1-2.255 1.212h-1.62v-7.246z" fill="#432313"/><path d="M398.116 357.257h-3.266s-.281 1.83 1.621 1.83c0 0 1.786 0 1.645-1.83" fill="#FFF"/><path fill="#FFF" d="M394.85 357.233v.442h3.266v-.442zm2.303 1.711s-.094-.476-.752-.476c0 0-.564-.023-.728.476.023 0 .704.308 1.48 0"/></g><g transform="matrix(-1 0 0 1 283.67 350.931)"><circle stroke="#DADADA" stroke-width="1.265" cx="22.566" cy="21.09" r="21.09"/><path d="M37.182 52.354l1.148-2.94 1.148 2.94h-2.296zm-.546 1.484h3.388l.854 2.03c.126.294.392.532.756.532a.807.807 0 0 0 .798-.798.778.778 0 0 0-.056-.294l-3.304-8.05c-.084-.196-.308-.504-.742-.504s-.658.308-.742.504l-3.304 8.05a.778.778 0 0 0-.056.294c0 .434.364.798.798.798.364 0 .63-.238.756-.532l.854-2.03zM30.7 56.47c1.764 0 2.842-1.092 2.842-3.374s-1.106-3.36-2.996-3.36c-1.694 0-2.898.938-2.898 2.8v3.542c0 1.932.952 3.024 3.024 3.024 1.134 0 1.974-.35 2.45-.924a.636.636 0 0 0 .14-.406.681.681 0 0 0-.672-.672c-.168 0-.28.056-.448.168-.35.252-.812.546-1.47.546-.994 0-1.498-.518-1.498-1.372v-.532c.28.28.854.56 1.526.56zm-1.54-2.002v-1.932c0-.966.574-1.512 1.386-1.512.966 0 1.498.7 1.498 2.072 0 1.386-.546 2.086-1.498 2.086-.84 0-1.386-.714-1.386-.714zm-2.534-1.386c0-2.142-1.12-3.346-3.024-3.346-2.366 0-2.8 1.82-2.8 2.786 0 .518 0 1.12.854 1.12h3.458c0 1.008-.714 1.47-1.638 1.47-.616 0-1.05-.21-1.386-.434-.154-.098-.266-.154-.448-.154a.657.657 0 0 0-.658.658.7.7 0 0 0 .238.518c.238.224.98.77 2.254.77 1.946 0 3.15-1.05 3.15-3.388zm-3.024-2.058c.812 0 1.4.462 1.47 1.358H22.3c0-.686.392-1.358 1.302-1.358zm-7.154-1.288c.938 0 1.526.434 1.792.84 0-.42.336-.756.756-.756s.756.336.756.756v5.096c0 .42-.322.728-.756.728s-.756-.308-.756-.728V52.55c0-.826-.35-1.442-1.4-1.442-.91 0-1.232.546-1.232 1.344v3.22c0 .42-.308.728-.756.728-.42 0-.756-.308-.756-.728v-3.5c0-1.218.448-2.436 2.352-2.436zm-3.388 3.36c0 2.282-1.134 3.374-3.038 3.374-1.148 0-1.918-.504-2.24-.798a.667.667 0 0 1-.238-.518c0-.378.294-.672.672-.672.14 0 .266.028.42.14.322.238.742.56 1.386.56.98 0 1.512-.742 1.512-2.086 0-1.316-.532-2.072-1.512-2.072-.7 0-1.064.35-1.246.546a.675.675 0 0 1-.518.238.663.663 0 0 1-.672-.672c0-.168.042-.28.154-.434.252-.322.994-.966 2.282-.966 1.904 0 3.038 1.078 3.038 3.36zm-6.51 4.606c.406 0 .728.294.728.7 0 .406-.322.7-.728.7-1.4 0-2.282-.98-2.898-2.352l-2.604-5.88a.781.781 0 0 1-.056-.294c0-.42.336-.756.756-.756s.63.294.7.476l1.54 3.892 1.54-3.892a.737.737 0 0 1 .7-.476c.42 0 .756.336.756.756a.781.781 0 0 1-.056.294l-2.156 4.97c.462 1.148.882 1.862 1.778 1.862z" fill="#0AAFC4"/></g><g fill-rule="nonzero"><path d="M253.438 382.48c0 3.942 3.152 5.402 7.05 5.402 3.899 0 7.051-1.46 7.051-5.403 0-3.942-3.152-7.13-7.05-7.13-3.899-.025-7.051 3.188-7.051 7.13" fill="#FFF"/><path d="M268.02 365.882c0 4.259-3.416 7.568-7.604 7.69-4.259.146-7.724-3.237-7.604-7.69.12-4.235 3.417-7.69 7.604-7.69 4.188 0 7.605 3.43 7.605 7.69" fill="#434144"/><path fill="#FFF" d="M254.906 383.622h10.997v5.16h-10.997z"/><path d="M267.9 366.782c0 4.186-3.345 7.569-7.484 7.569-4.139 0-7.483-3.383-7.483-7.569s3.344-7.568 7.483-7.568c4.115 0 7.484 3.382 7.484 7.568" fill="#CA7C3C"/><path d="M256.951 367.318a.589.589 0 0 1-.577.584.589.589 0 0 1-.578-.584.59.59 0 0 1 .578-.585c.313 0 .577.268.577.585m8.182 0a.589.589 0 0 1-.578.584.589.589 0 0 1-.577-.584.59.59 0 0 1 .577-.585.59.59 0 0 1 .578.585" fill="#1E1E1C"/><path d="M261.884 359.36c2.19 1.314 3.634 3.723 3.634 6.497 0 4.186-3.345 7.569-7.484 7.569-.505 0-1.01-.049-1.492-.146 1.131.681 2.43 1.095 3.85 1.095 4.14 0 7.484-3.383 7.484-7.569.024-3.699-2.55-6.765-5.992-7.446" fill="#AF6C3F"/><path d="M255.315 368.34c0 1.12-.89 2.02-1.997 2.02-1.107 0-1.998-.9-1.998-2.02s.89-2.02 1.998-2.02c1.107 0 1.997.9 1.997 2.02" fill="#CA7C3C"/><path d="M269.681 368.34c0 1.12-.89 2.02-1.997 2.02-1.107 0-1.998-.9-1.998-2.02s.89-2.02 1.998-2.02c1.083 0 1.997.9 1.997 2.02" fill="#AF6C3F"/><path d="M260.416 371.309c-1.66 0-2.262-.852-2.286-.876-.048-.073-.024-.195.048-.244.073-.048.193-.024.241.049.024.024.53.73 1.997.73 1.468 0 1.974-.681 1.998-.73a.185.185 0 0 1 .24-.049c.073.049.097.17.048.244-.024.024-.601.876-2.286.876" fill="#EAA788"/><path d="M258.9 373.888v2.02c0 .876.722 1.606 1.589 1.606.866 0 1.588-.73 1.588-1.606v-1.874l-3.177-.146z" fill="#AF6C3F"/><path d="M257.096 381.335v6.571c0 .292.048.56.096.828h-2.31v-1.923a7.239 7.239 0 0 1-1.468-4.356c0-3.383 2.334-6.23 5.486-6.96v.389c0 .438.169.852.458 1.144-1.348.949-2.262 2.53-2.262 4.307" fill="#FFF"/><path d="M256.06 388.028a7.165 7.165 0 0 1-1.178-1.241c-.072-.098-.12-.17-.193-.268-.024-.024-.048-.049-.048-.073-.072-.097-.12-.195-.168-.292-.024-.024-.024-.049-.048-.073-.049-.098-.12-.195-.169-.317 0-.024-.024-.048-.024-.073-.048-.121-.12-.219-.168-.34 0 0 0-.025-.024-.025h1.684v-3.99c0-.999-.385-2.313-.77-3.262a6.348 6.348 0 0 1 1.733-1.582l3.73 5.67 3.801-5.767a7.49 7.49 0 0 1 1.805 1.582c-.337.949-.674 2.336-.674 3.358v3.991h1.66s0 .025-.023.025c-.048.121-.096.243-.169.34 0 .025-.024.05-.024.073-.048.098-.12.195-.168.317-.024.024-.024.049-.048.073-.048.097-.12.195-.169.292-.024.024-.048.049-.048.073-.072.097-.12.17-.192.268-.337.462.288.535-.145.9l-.048.34.024.78h-10.997l-.024-.78h1.083z" fill="#293051"/><path d="M260.031 383.793c0 .195.145.34.337.34a.33.33 0 0 0 .337-.34.33.33 0 0 0-.337-.34.346.346 0 0 0-.337.34m0 2.799c0 .195.145.34.337.34a.33.33 0 0 0 .337-.34.33.33 0 0 0-.337-.34c-.168-.025-.337.145-.337.34" fill="#FFF"/><path d="M255.7 385.326v-3.99c0-.999-.385-2.313-.77-3.262.024-.024.024-.048.048-.048l.048-.05c.048-.072.096-.12.169-.194l.024-.024a7.483 7.483 0 0 1 1.468-1.29l1.299 1.996a5.108 5.108 0 0 0-.866 2.871v6.571c0 .292.048.56.096.828h-2.31v-1.071c-.433-.341-.048-.365 0-.852l-.169-.024c-.36-.463-.48-.95-.722-1.485l1.685.024z" fill="#293051"/><path d="M253.294 368.607s-.674-4.55 1.155-5.354c0 0 .938-.608 2.55-.705a7.26 7.26 0 0 1 1.925.194c.578.146 1.637.292 2.744.025.192-.049.36-.146.553-.195.818-.243 2.383-.195 3.706.316.41.146.77.438.987.828.385.706.818 2.117.673 4.77 0 0 1.444-2.945-.601-6.571 0 0 .625-.974 0-2.458-.313-.779-.915-1.387-1.637-1.801-.866-.511-2.19-1.436-2.02-2.434 0 0-.602 1.169-3.875 1.266h-.674c-.77-.024-3.826.122-5.39 3.14-.24.462-.361.997-.265 1.508.072.39.24.803.674 1.07-.048.025-1.925 1.826-.505 6.401" fill="#434144"/><path fill="#293051" d="M265.302 382.308h1v3.115h-1z"/><path d="M265.975 377.977s-.072 1.776-.072 4.332h-.602s-.433-3.14.674-4.332m-11.189 4.429h1.612v3.115h-1.612zm.144-4.332s.072 1.777.072 4.332h.987s.048-3.14-1.06-4.332" fill="#293051"/><path d="M255.363 377.587c-1.251 1.339-2.07 2.629-2.07 4.746v6.474h2.84l-.77-11.22zm10.251 0c1.252 1.339 2.07 2.629 2.07 4.746v6.474h-2.84l.77-11.22z" fill="#293051"/></g><g transform="matrix(-1 0 0 1 90.489 0)"><circle stroke="#DADADA" stroke-width="1.265" cx="22.566" cy="21.09" r="21.09"/><path d="M37.182 52.354l1.148-2.94 1.148 2.94h-2.296zm-.546 1.484h3.388l.854 2.03c.126.294.392.532.756.532a.807.807 0 0 0 .798-.798.778.778 0 0 0-.056-.294l-3.304-8.05c-.084-.196-.308-.504-.742-.504s-.658.308-.742.504l-3.304 8.05a.778.778 0 0 0-.056.294c0 .434.364.798.798.798.364 0 .63-.238.756-.532l.854-2.03zM30.7 56.47c1.764 0 2.842-1.092 2.842-3.374s-1.106-3.36-2.996-3.36c-1.694 0-2.898.938-2.898 2.8v3.542c0 1.932.952 3.024 3.024 3.024 1.134 0 1.974-.35 2.45-.924a.636.636 0 0 0 .14-.406.681.681 0 0 0-.672-.672c-.168 0-.28.056-.448.168-.35.252-.812.546-1.47.546-.994 0-1.498-.518-1.498-1.372v-.532c.28.28.854.56 1.526.56zm-1.54-2.002v-1.932c0-.966.574-1.512 1.386-1.512.966 0 1.498.7 1.498 2.072 0 1.386-.546 2.086-1.498 2.086-.84 0-1.386-.714-1.386-.714zm-2.534-1.386c0-2.142-1.12-3.346-3.024-3.346-2.366 0-2.8 1.82-2.8 2.786 0 .518 0 1.12.854 1.12h3.458c0 1.008-.714 1.47-1.638 1.47-.616 0-1.05-.21-1.386-.434-.154-.098-.266-.154-.448-.154a.657.657 0 0 0-.658.658.7.7 0 0 0 .238.518c.238.224.98.77 2.254.77 1.946 0 3.15-1.05 3.15-3.388zm-3.024-2.058c.812 0 1.4.462 1.47 1.358H22.3c0-.686.392-1.358 1.302-1.358zm-7.154-1.288c.938 0 1.526.434 1.792.84 0-.42.336-.756.756-.756s.756.336.756.756v5.096c0 .42-.322.728-.756.728s-.756-.308-.756-.728V52.55c0-.826-.35-1.442-1.4-1.442-.91 0-1.232.546-1.232 1.344v3.22c0 .42-.308.728-.756.728-.42 0-.756-.308-.756-.728v-3.5c0-1.218.448-2.436 2.352-2.436zm-3.388 3.36c0 2.282-1.134 3.374-3.038 3.374-1.148 0-1.918-.504-2.24-.798a.667.667 0 0 1-.238-.518c0-.378.294-.672.672-.672.14 0 .266.028.42.14.322.238.742.56 1.386.56.98 0 1.512-.742 1.512-2.086 0-1.316-.532-2.072-1.512-2.072-.7 0-1.064.35-1.246.546a.675.675 0 0 1-.518.238.663.663 0 0 1-.672-.672c0-.168.042-.28.154-.434.252-.322.994-.966 2.282-.966 1.904 0 3.038 1.078 3.038 3.36zm-6.51 4.606c.406 0 .728.294.728.7 0 .406-.322.7-.728.7-1.4 0-2.282-.98-2.898-2.352l-2.604-5.88a.781.781 0 0 1-.056-.294c0-.42.336-.756.756-.756s.63.294.7.476l1.54 3.892 1.54-3.892a.737.737 0 0 1 .7-.476c.42 0 .756.336.756.756a.781.781 0 0 1-.056.294l-2.156 4.97c.462 1.148.882 1.862 1.778 1.862z" fill="#0AAFC4"/></g><g fill-rule="nonzero"><path d="M59.908 28.89h13.737l.936-15.376c-.152-5.09-2.404-7.394-4.453-8.417-2.1-1.049-4.503-.998-6.603.051-4.73 2.38-4.452 8.366-4.452 8.366l.835 15.377z" fill="#9B4116"/><path d="M68.94 21.215V23.8c0 1.126-.937 2.047-2.1 2.047-1.164 0-2.126-.921-2.126-2.047v-2.38l4.225-.204z" fill="#EBB98D"/><path d="M61.072 37.461v-5.45l.708 5.45h10.397l.709-5.45v5.45h1.189c1.012-1.74 1.619-3.71 1.619-5.526 0-3.838-2.657-7.061-6.274-8.11-.81-.23-1.695.972-2.58.972-.911 0-1.797-1.202-2.631-.947-3.593 1.1-6.148 4.427-6.148 8.239 0 1.1.203 3.198.607 5.372h2.404z" fill="#2C2D2D"/><path d="M73.847 31.68h1.872s.152-2.943-2.15-5.297c0 0-1.063-1.356-3.466-2.38v1.434l2.1 3.965.177 2.277h1.467z" fill="#2C2D2D"/><path fill="#2C2D2D" d="M72.836 31.55h2.859v5.91h-2.86zm-14.774.692h2.859v5.219h-2.86z"/><path d="M70.938 37.461l1.29-11.845s-.987-1.356-3.39-2.047c0 0 .076 1.202-2.024 1.28 0 0-1.847.562-1.973-1.178 0-.025-1.923.46-3.592 2.047l1.315 11.743h8.374z" fill="#E8E7E7"/><path d="M66.865 4.892c4.047 0 7.336 3.812 7.336 8.52s-3.289 8.52-7.336 8.52c-4.048 0-7.337-3.812-7.337-8.52-.025-4.708 3.264-8.52 7.337-8.52" fill="#F5C08E"/><path d="M60.54 13.31c1.113 0 2.024.92 2.024 2.046s-.91 2.047-2.024 2.047c-1.113 0-2.023-.92-2.023-2.047 0-1.125.91-2.046 2.023-2.046" fill="#F5C08E"/><path d="M75.44 15.356c0 1.126-.91 2.047-2.023 2.047s-2.327-.972-2.024-2.047c.38-1.356.91-2.046 2.024-2.046 1.113 0 2.024.92 2.024 2.046" fill="#EBB98D"/><path d="M65.145 18.094c0 .716.784 1.28 1.745 1.28.961 0 1.746-.564 1.746-1.28h-3.491z" fill="#FFF"/><path d="M68.307 5.072c2.15 1.483 3.567 4.195 3.567 7.291 0 4.708-3.289 8.52-7.337 8.52-.506 0-.986-.077-1.442-.18 1.114.768 2.404 1.229 3.77 1.229 4.047 0 7.336-3.812 7.336-8.52 0-4.12-2.53-7.547-5.894-8.34" fill="#EBB98D"/><path d="M73.822 16.277c.177 0 .329.154.329.333 0 .18-.152.333-.33.333a.337.337 0 0 1-.328-.333c0-.179.152-.333.329-.333m-13.788 0c.177 0 .33.154.33.333 0 .18-.153.333-.33.333a.337.337 0 0 1-.328-.333.32.32 0 0 1 .328-.333" fill="#C8E5E7"/><path d="M64.158 13.898c.38 0 .708.333.708.716 0 .41-.329.717-.708.717a.728.728 0 0 1-.708-.717.71.71 0 0 1 .708-.716m5.464 0c.38 0 .709.333.709.716 0 .41-.33.717-.709.717a.728.728 0 0 1-.708-.717c0-.383.329-.716.708-.716" fill="#030304"/><path d="M69.344 5.25c-.177 7.036-7.615 4.964-8.753 10.593-2.201-3.02-1.214-6.269.405-8.315 3.49-4.4 8.348-2.277 8.348-2.277" fill="#9B4116"/><path d="M68.94 5.148c-3.593-.818 2.301 5.603 3.288 6.703.961 1.075 1.315 3.07 1.315 3.07s.987-1.355.835-2.25c-.202-.922-.202-6.346-5.439-7.523" fill="#9B4116"/><path fill="#FFF" d="M63.171 24.285l2.783 1.817.91-1.254-2.276-1.458z"/><path fill="#FFF" d="M70.533 24.106l-2.859 1.996-.885-1.254 2.251-1.458z"/><path d="M72.177 37.461l.709-5.475v-6.268c-.506-.486-1.594-1.28-2.682-1.868L66.84 37.461h5.338z" fill="#2C2D2D"/><path d="M61.755 37.461h5.186l-3.365-13.56c-1.113.589-2.176 1.357-2.682 1.868v6.09l.178.153.683 5.45z" fill="#2C2D2D"/></g><g transform="matrix(-1 0 0 1 410.63 0)"><circle stroke="#DADADA" stroke-width="1.265" cx="22.566" cy="21.09" r="21.09"/><path d="M37.182 52.354l1.148-2.94 1.148 2.94h-2.296zm-.546 1.484h3.388l.854 2.03c.126.294.392.532.756.532a.807.807 0 0 0 .798-.798.778.778 0 0 0-.056-.294l-3.304-8.05c-.084-.196-.308-.504-.742-.504s-.658.308-.742.504l-3.304 8.05a.778.778 0 0 0-.056.294c0 .434.364.798.798.798.364 0 .63-.238.756-.532l.854-2.03zM30.7 56.47c1.764 0 2.842-1.092 2.842-3.374s-1.106-3.36-2.996-3.36c-1.694 0-2.898.938-2.898 2.8v3.542c0 1.932.952 3.024 3.024 3.024 1.134 0 1.974-.35 2.45-.924a.636.636 0 0 0 .14-.406.681.681 0 0 0-.672-.672c-.168 0-.28.056-.448.168-.35.252-.812.546-1.47.546-.994 0-1.498-.518-1.498-1.372v-.532c.28.28.854.56 1.526.56zm-1.54-2.002v-1.932c0-.966.574-1.512 1.386-1.512.966 0 1.498.7 1.498 2.072 0 1.386-.546 2.086-1.498 2.086-.84 0-1.386-.714-1.386-.714zm-2.534-1.386c0-2.142-1.12-3.346-3.024-3.346-2.366 0-2.8 1.82-2.8 2.786 0 .518 0 1.12.854 1.12h3.458c0 1.008-.714 1.47-1.638 1.47-.616 0-1.05-.21-1.386-.434-.154-.098-.266-.154-.448-.154a.657.657 0 0 0-.658.658.7.7 0 0 0 .238.518c.238.224.98.77 2.254.77 1.946 0 3.15-1.05 3.15-3.388zm-3.024-2.058c.812 0 1.4.462 1.47 1.358H22.3c0-.686.392-1.358 1.302-1.358zm-7.154-1.288c.938 0 1.526.434 1.792.84 0-.42.336-.756.756-.756s.756.336.756.756v5.096c0 .42-.322.728-.756.728s-.756-.308-.756-.728V52.55c0-.826-.35-1.442-1.4-1.442-.91 0-1.232.546-1.232 1.344v3.22c0 .42-.308.728-.756.728-.42 0-.756-.308-.756-.728v-3.5c0-1.218.448-2.436 2.352-2.436zm-3.388 3.36c0 2.282-1.134 3.374-3.038 3.374-1.148 0-1.918-.504-2.24-.798a.667.667 0 0 1-.238-.518c0-.378.294-.672.672-.672.14 0 .266.028.42.14.322.238.742.56 1.386.56.98 0 1.512-.742 1.512-2.086 0-1.316-.532-2.072-1.512-2.072-.7 0-1.064.35-1.246.546a.675.675 0 0 1-.518.238.663.663 0 0 1-.672-.672c0-.168.042-.28.154-.434.252-.322.994-.966 2.282-.966 1.904 0 3.038 1.078 3.038 3.36zm-6.51 4.606c.406 0 .728.294.728.7 0 .406-.322.7-.728.7-1.4 0-2.282-.98-2.898-2.352l-2.604-5.88a.781.781 0 0 1-.056-.294c0-.42.336-.756.756-.756s.63.294.7.476l1.54 3.892 1.54-3.892a.737.737 0 0 1 .7-.476c.42 0 .756.336.756.756a.781.781 0 0 1-.056.294l-2.156 4.97c.462 1.148.882 1.862 1.778 1.862z" fill="#0AAFC4"/></g><g fill-rule="nonzero"><path d="M382.048 23.53h13.737l.936-12.02c-.152-3.98-2.403-5.78-4.452-6.58-2.1-.82-4.503-.78-6.603.04-4.73 1.86-4.452 6.54-4.452 6.54l.834 12.02z" fill="#434144"/><path d="M383.212 37.461v-5.45l.709 5.45h10.397l.708-5.45v5.45h1.19c1.011-1.74 1.618-3.71 1.618-5.526 0-3.838-2.656-7.061-6.274-8.11-.81-.23-1.694.972-2.58.972-.91 0-1.796-1.202-2.63-.947-3.593 1.1-6.148 4.427-6.148 8.239 0 1.1.202 3.198.607 5.372h2.403z" fill="#159588"/><path d="M395.988 31.68h1.872s.151-2.943-2.15-5.297c0 0-1.063-1.356-3.466-2.38v1.434l2.1 3.965.176 2.277h1.468z" fill="#159588"/><path fill="#159588" d="M394.976 31.55h2.86v5.91h-2.86zm-14.774.692h2.86v5.219h-2.86zm14.167-6.626s-.987-1.356-3.39-2.047c0 0-1.898.026-3.997.102 0-.013-.633.038-1.348.371-.682.319-1.429.901-2.245 1.676l1.316 11.743h8.373l1.29-11.845z"/><path d="M389.005 4.892c4.048 0 7.337 3.812 7.337 8.52s-3.289 8.52-7.337 8.52c-4.047 0-7.336-3.812-7.336-8.52-.025-4.708 3.263-8.52 7.336-8.52" fill="#CA7C3C"/><path d="M382.68 13.31c1.114 0 2.025.92 2.025 2.046s-.911 2.047-2.024 2.047-2.024-.92-2.024-2.047c0-1.125.91-2.046 2.024-2.046m8.399 7.905V23.8c0 1.126-.936 2.047-2.1 2.047-1.164 0-2.125-.921-2.125-2.047v-2.38l4.225-.204zm6.501-5.859c0 1.126-.91 2.047-2.023 2.047-1.114 0-2.328-.972-2.024-2.047.38-1.356.91-2.046 2.024-2.046 1.113 0 2.023.92 2.023 2.046" fill="#CA7C3C"/><path d="M387.285 17.672c0 .717.784 1.28 1.746 1.28.961 0 1.745-.563 1.745-1.28h-3.49z" fill="#FFF"/><path d="M390.447 5.072c2.15 1.483 3.567 4.195 3.567 7.291 0 4.708-3.288 8.52-7.336 8.52-.506 0-.987-.077-1.442-.18 1.113.768 2.403 1.229 3.77 1.229 4.047 0 7.336-3.812 7.336-8.52 0-4.12-2.53-7.547-5.895-8.34" fill="#CA7C3C"/><path d="M395.962 16.277c.177 0 .33.154.33.333 0 .18-.153.333-.33.333a.337.337 0 0 1-.329-.333c0-.179.152-.333.33-.333m-13.788 0c.177 0 .329.154.329.333 0 .18-.152.333-.329.333a.337.337 0 0 1-.329-.333.32.32 0 0 1 .329-.333" fill="#C8E5E7"/><path d="M385.877 13.476c.38 0 .708.333.708.717a.711.711 0 0 1-.708.716.728.728 0 0 1-.709-.716c0-.384.304-.717.709-.717m6.308 0c.38 0 .708.333.708.717a.711.711 0 0 1-.708.716.728.728 0 0 1-.709-.716.73.73 0 0 1 .709-.717" fill="#030304"/><path d="M387.36 5.25c.178 7.036 7.615 4.964 8.754 10.593 2.2-3.02 1.214-6.269-.405-8.315-3.491-4.4-8.348-2.277-8.348-2.277" fill="#434144"/><path d="M386.9 5.062c.725-.13 1.47-.609 1.687-.422 1.154.993-4.252 6.285-5.314 7.211-1.228 1.075-1.68 3.07-1.68 3.07s-1.261-1.355-1.067-2.25c.258-.922 1.37-6.854 8.061-8.031l-1.687.422z" fill="#434144"/><path d="M394.318 37.461l.708-5.475v-6.268c-.506-.486-1.555-1.087-2.643-1.676l-3.403 13.42h5.338z" fill="#159588"/><path d="M383.895 37.461h5.186l-3.447-13.419c-1.113.589-2.093 1.216-2.599 1.727v6.09l.177.153.683 5.45z" fill="#159588"/></g><g transform="matrix(-1 0 0 1 303.603 47.24)"><circle stroke="#DADADA" stroke-width="1.265" cx="25.206" cy="21.09" r="21.09"/><path d="M45.834 54.804a.776.776 0 0 1-.686-.392l-2.198-3.906v5.096a.807.807 0 0 1-.798.798.807.807 0 0 1-.798-.798v-8.05c0-.434.364-.798.798-.798.35 0 .574.196.714.448l2.968 5.32 2.968-5.32c.14-.252.364-.448.714-.448.434 0 .798.364.798.798v8.05a.807.807 0 0 1-.798.798.807.807 0 0 1-.798-.798v-5.096l-2.198 3.906a.776.776 0 0 1-.686.392zm-5.74-1.722c0-2.142-1.12-3.346-3.024-3.346-2.366 0-2.8 1.82-2.8 2.786 0 .518 0 1.12.854 1.12h3.458c0 1.008-.714 1.47-1.638 1.47-.616 0-1.05-.21-1.386-.434-.154-.098-.266-.154-.448-.154a.657.657 0 0 0-.658.658.7.7 0 0 0 .238.518c.238.224.98.77 2.254.77 1.946 0 3.15-1.05 3.15-3.388zm-3.024-2.058c.812 0 1.4.462 1.47 1.358h-2.772c0-.686.392-1.358 1.302-1.358zm-3.57 2.058c0-2.142-1.12-3.346-3.024-3.346-2.366 0-2.8 1.82-2.8 2.786 0 .518 0 1.12.854 1.12h3.458c0 1.008-.714 1.47-1.638 1.47-.616 0-1.05-.21-1.386-.434-.154-.098-.266-.154-.448-.154a.657.657 0 0 0-.658.658.7.7 0 0 0 .238.518c.238.224.98.77 2.254.77 1.946 0 3.15-1.05 3.15-3.388zm-3.024-2.058c.812 0 1.4.462 1.47 1.358h-2.772c0-.686.392-1.358 1.302-1.358zm-4.34-1.092h.322c.35 0 .63.28.63.63s-.28.63-.63.63h-.322v3.304c0 1.106-.77 1.904-2.016 1.904a.657.657 0 1 1 0-1.316c.252 0 .532-.182.532-.504v-3.388h-.63c-.35 0-.63-.28-.63-.63s.28-.63.63-.63h.63v-1.176c0-.406.336-.742.742-.742.406 0 .742.336.742.742v1.176zm-5.376.644c0-.42.336-.756.756-.756s.756.336.756.756v5.068c0 .42-.336.756-.756.756a.753.753 0 0 1-.756-.756v-5.068zm.756-1.512c-.588 0-.91-.336-.91-.882 0-.644.322-.924.91-.924.574 0 .896.28.896.924 0 .546-.322.882-.896.882zm-5.46.672c.938 0 1.526.434 1.792.84 0-.42.336-.756.756-.756s.756.336.756.756v5.096c0 .42-.322.728-.756.728s-.756-.308-.756-.728V52.55c0-.826-.35-1.442-1.4-1.442-.91 0-1.232.546-1.232 1.344v3.22c0 .42-.308.728-.756.728-.42 0-.756-.308-.756-.728v-3.5c0-1.218.448-2.436 2.352-2.436zM9.812 56.47c1.764 0 2.842-1.092 2.842-3.374s-1.106-3.36-2.996-3.36c-1.694 0-2.898.938-2.898 2.8v3.542c0 1.932.952 3.024 3.024 3.024 1.134 0 1.974-.35 2.45-.924a.636.636 0 0 0 .14-.406.681.681 0 0 0-.672-.672c-.168 0-.28.056-.448.168-.35.252-.812.546-1.47.546-.994 0-1.498-.518-1.498-1.372v-.532c.28.28.854.56 1.526.56zm-1.54-2.002v-1.932c0-.966.574-1.512 1.386-1.512.966 0 1.498.7 1.498 2.072 0 1.386-.546 2.086-1.498 2.086-.84 0-1.386-.714-1.386-.714zm-5.068-3.416c-.574 0-.952.224-1.26.448-.154.112-.28.196-.476.196a.681.681 0 0 1-.672-.672c0-.21.056-.308.14-.42.392-.49 1.274-.868 2.268-.868 1.288 0 2.338.616 2.338 1.876 0 2.38-3.43 1.792-3.43 2.926 0 .392.406.56 1.036.56.7 0 1.162-.266 1.54-.574a.658.658 0 0 1 .434-.168c.364 0 .672.308.672.672a.651.651 0 0 1-.168.434c-.35.434-1.274.98-2.478.98-1.442 0-2.562-.672-2.562-1.988 0-2.31 3.444-1.834 3.444-2.87 0-.35-.308-.532-.826-.532z" fill="#0AAFC4"/></g><g fill-rule="nonzero"><path d="M286.547 64.434c0 .672-.53 1.212-1.19 1.212-.659 0-1.189-.54-1.189-1.212 0-.671.53-1.212 1.19-1.212.659 0 1.19.54 1.19 1.212" fill="#CA7C3C"/><path d="M286.318 70.275s.043 1.066.043 2.6h.587s.03-1.884-.63-2.6" fill="#293051"/><path d="M285.43 72.918c0 2.366 1.877 3.242 4.199 3.242 2.321 0 4.199-.876 4.199-3.242 0-2.365-1.878-4.278-4.2-4.278-2.321-.015-4.199 1.913-4.199 4.278" fill="#FFF"/><path d="M294.115 62.96c0 2.555-2.036 4.54-4.53 4.614-2.536.087-4.6-1.942-4.528-4.614.071-2.541 2.035-4.615 4.529-4.615 2.493 0 4.529 2.06 4.529 4.615" fill="#434144"/><path fill="#FFF" d="M286.304 73.604h6.55V76.7h-6.55z"/><path d="M294.043 63.5c0 2.511-1.992 4.541-4.457 4.541-2.466 0-4.458-2.03-4.458-4.541 0-2.512 1.992-4.541 4.458-4.541 2.45 0 4.457 2.03 4.457 4.54" fill="#CA7C3C"/><path d="M287.522 63.821c0 .19-.158.35-.344.35a.352.352 0 0 1-.344-.35c0-.19.157-.35.344-.35.186 0 .344.16.344.35m4.873 0c0 .19-.158.35-.344.35a.352.352 0 0 1-.344-.35c0-.19.157-.35.344-.35.186 0 .344.16.344.35" fill="#1E1E1C"/><path d="M290.46 59.046c1.304.789 2.164 2.234 2.164 3.899 0 2.512-1.992 4.541-4.457 4.541-.301 0-.602-.029-.889-.087a4.388 4.388 0 0 0 2.293.657c2.465 0 4.458-2.03 4.458-4.542.014-2.219-1.52-4.059-3.57-4.468" fill="#AF6C3F"/><path d="M295.103 64.434c0 .672-.53 1.212-1.19 1.212-.658 0-1.189-.54-1.189-1.212 0-.671.53-1.212 1.19-1.212.645 0 1.19.54 1.19 1.212" fill="#AF6C3F"/><path d="M289.586 66.216c-.99 0-1.348-.511-1.362-.526-.029-.044-.014-.117.029-.146.043-.03.114-.014.143.03.014.014.315.437 1.19.437.874 0 1.175-.408 1.19-.438.028-.043.1-.058.142-.029.043.03.058.102.03.146-.015.015-.36.526-1.362.526" fill="#EAA788"/><path d="M288.683 67.764v1.212c0 .525.43.963.946.963a.963.963 0 0 0 .946-.963V67.85l-1.892-.087z" fill="#AF6C3F"/><path d="M287.608 72.232v3.942c0 .175.028.336.057.497h-1.376v-1.154a4.364 4.364 0 0 1-.874-2.614c0-2.03 1.39-3.738 3.268-4.176v.234c0 .263.1.511.272.686a3.184 3.184 0 0 0-1.347 2.585" fill="#FFF"/><path d="M286.991 76.247a4.286 4.286 0 0 1-.702-.744c-.043-.059-.071-.103-.114-.161-.015-.015-.03-.03-.03-.044a1.094 1.094 0 0 1-.1-.175c-.014-.015-.014-.03-.028-.044-.029-.058-.072-.117-.1-.19 0-.014-.015-.029-.015-.044-.028-.073-.071-.131-.1-.204 0 0 0-.015-.014-.015h1.003v-2.394c0-.599-.23-1.387-.459-1.957.287-.38.63-.7 1.032-.949l2.222 3.402 2.264-3.46a4.48 4.48 0 0 1 1.075.949c-.2.57-.401 1.401-.401 2.015v2.394h.989s0 .015-.015.015a.899.899 0 0 1-.1.204c0 .015-.014.03-.014.044-.03.059-.072.117-.1.19-.015.015-.015.03-.03.044-.028.058-.071.117-.1.175-.014.015-.028.03-.028.044-.043.058-.072.102-.115.16-.2.278.172.322-.086.54l-.029.205.015.467h-6.55l-.014-.467h.644z" fill="#293051"/><path d="M289.356 73.707c0 .116.086.204.2.204a.198.198 0 0 0 .202-.204.198.198 0 0 0-.201-.205c-.1 0-.2.088-.2.205m-.001 1.679c0 .117.086.204.2.204a.198.198 0 0 0 .202-.204.198.198 0 0 0-.201-.205c-.1-.014-.2.088-.2.205" fill="#FFF"/><path d="M286.777 74.626v-2.394c0-.599-.23-1.387-.46-1.957.015-.015.015-.03.03-.03l.028-.028c.029-.044.058-.073.1-.117l.015-.015c.258-.292.544-.555.874-.774l.774 1.198a3.08 3.08 0 0 0-.516 1.723v3.942c0 .175.029.336.057.497h-1.375v-.643c-.258-.204-.03-.219 0-.51l-.1-.015c-.216-.278-.287-.57-.43-.891l1.003.014z" fill="#293051"/><path d="M285.343 64.595s-.401-2.73.688-3.212c0 0 .56-.365 1.52-.424.386-.014.773.03 1.146.117a3.52 3.52 0 0 0 1.634.015c.115-.03.215-.088.33-.117.487-.146 1.418-.117 2.207.19.243.087.458.262.587.496.23.423.488 1.27.402 2.862 0 0 .86-1.767-.359-3.942 0 0 .373-.585 0-1.475-.186-.468-.544-.833-.974-1.08-.516-.307-1.305-.862-1.204-1.461 0 0-.359.7-2.308.76h-.401c-.459-.015-2.279.072-3.21 1.883a1.424 1.424 0 0 0-.158.905c.043.234.143.482.401.643-.028.014-1.146 1.095-.3 3.84" fill="#434144"/><path fill="#293051" d="M292.496 72.816h1v1.87h-1zm.4-2.599s-.043 1.066-.043 2.599h-.358s-.258-1.884.401-2.6m-6.664 2.658h1v1.87h-1z"/><path d="M286.576 69.983c-.745.803-1.233 1.577-1.233 2.847v3.884h1.691l-.458-6.73zm6.105 0c.746.803 1.233 1.577 1.233 2.847v3.884h-1.691l.458-6.73z" fill="#293051"/><path fill="#2C2D2D" d="M269.419 72.92h1.725v3.546h-1.725z"/><path d="M270.014 63.756c.107 0 .199.092.199.2a.203.203 0 0 1-.199.199.203.203 0 0 1-.198-.2c0-.107.091-.2.198-.2" fill="#C8E5E7"/><path d="M261.616 71.324h8.291l.565-9.226c-.091-3.055-1.45-4.436-2.687-5.05-1.267-.63-2.718-.599-3.985.03-2.856 1.428-2.688 5.02-2.688 5.02l.504 9.226z" fill="#9B4116"/><path d="M267.067 66.719v1.55c0 .675-.565 1.228-1.267 1.228s-1.283-.553-1.283-1.228v-1.428l2.55-.122z" fill="#EBB98D"/><path d="M262.319 76.466v-3.27l.427 3.27h6.276l.427-3.27v3.27h.718c.61-1.044.977-2.226.977-3.316 0-2.302-1.603-4.236-3.787-4.866-.488-.138-1.023.584-1.557.584-.55 0-1.084-.722-1.588-.568-2.168.66-3.71 2.655-3.71 4.943 0 .66.122 1.918.366 3.223h1.45z" fill="#2C2D2D"/><path d="M270.03 72.997h1.13s.091-1.765-1.299-3.178c0 0-.64-.813-2.091-1.427v.86l1.267 2.379.107 1.366h.885zm-9.528.337h1.725v3.132h-1.725z" fill="#2C2D2D"/><path d="M268.273 76.466l.78-7.107s-.596-.814-2.047-1.228c0 0 .046.721-1.221.767 0 0-1.115.338-1.191-.706 0-.015-1.16.277-2.169 1.228l.794 7.046h5.054z" fill="#E8E7E7"/><path d="M265.815 56.925c2.443 0 4.428 2.287 4.428 5.112 0 2.824-1.985 5.111-4.428 5.111-2.443 0-4.428-2.287-4.428-5.111-.015-2.825 1.97-5.112 4.428-5.112" fill="#F5C08E"/><path d="M261.998 61.975a1.228 1.228 0 0 1 0 2.456 1.228 1.228 0 0 1 0-2.456" fill="#F5C08E"/><path d="M270.991 63.203c0 .676-.55 1.228-1.221 1.228-.672 0-1.405-.583-1.222-1.228.23-.813.55-1.228 1.222-1.228.672 0 1.221.553 1.221 1.228" fill="#EBB98D"/><path d="M264.777 64.846c0 .43.473.767 1.053.767s1.054-.337 1.054-.767h-2.107z" fill="#FFF"/><path d="M266.686 57.032c1.297.89 2.152 2.518 2.152 4.375 0 2.825-1.985 5.112-4.428 5.112a4 4 0 0 1-.87-.107c.672.46 1.45.736 2.275.736 2.443 0 4.428-2.287 4.428-5.111 0-2.472-1.527-4.529-3.557-5.005" fill="#EBB98D"/><path d="M261.693 63.756c.106 0 .198.092.198.2a.203.203 0 0 1-.198.199.203.203 0 0 1-.199-.2c0-.107.076-.2.199-.2" fill="#C8E5E7"/><path d="M264.181 62.328c.23 0 .428.2.428.43 0 .246-.199.43-.428.43a.438.438 0 0 1-.427-.43c0-.23.183-.43.427-.43m3.299 0c.229 0 .427.2.427.43 0 .246-.198.43-.428.43a.438.438 0 0 1-.427-.43c0-.23.198-.43.427-.43" fill="#030304"/><path d="M267.312 57.14c-.107 4.221-4.596 2.978-5.284 6.355-1.328-1.811-.732-3.76.245-4.989 2.107-2.64 5.039-1.366 5.039-1.366" fill="#9B4116"/><path d="M267.067 57.078c-2.168-.49 1.39 3.362 1.985 4.022.58.645.794 1.842.794 1.842s.596-.813.504-1.35c-.122-.553-.122-3.807-3.283-4.514" fill="#9B4116"/><path fill="#FFF" d="M263.586 68.56l1.68 1.09.55-.752-1.375-.875z"/><path fill="#FFF" d="M268.03 68.453l-1.726 1.198-.535-.753 1.36-.875z"/><path d="M269.022 76.466l.427-3.285v-3.76c-.305-.292-.962-.768-1.618-1.121l-2.031 8.166h3.222z" fill="#2C2D2D"/><path d="M262.73 76.466h3.131l-2.03-8.136c-.673.353-1.314.814-1.62 1.121v3.653l.108.093.412 3.27z" fill="#2C2D2D"/><path d="M283.868 82.11c.106-.524.166-1.05.166-1.56 0-3.226-2.433-5.944-5.42-5.944-2.958 0-5.33 2.733-5.33 5.945 0 .51.06 1.035.165 1.56h10.42z" fill="#A3D8E7"/><path d="M283.868 82.11c.106-.524.166-1.05.166-1.56 0-3.103-2.132-5.713-4.955-5.882l-.06 7.443h4.85z" fill="#9CCFDD"/><path d="M283.853 82.11c.09-.385.136-.787.166-1.158-.196.062-.39.109-.601.109-1.02 0-1.832-1.004-1.832-2.1v-3.413a5.089 5.089 0 0 0-2.912-.942 5.04 5.04 0 0 0-2.868.91v3.444c0 1.097-.826 2.1-1.832 2.1-.225 0-.45-.046-.645-.123a8.2 8.2 0 0 0 .165 1.174h10.36z" fill="#A3D8E7"/><path d="M281.166 79.238v2.888h2.672c.105-.602.18-1.174.196-1.575a1.6 1.6 0 0 1-.601.108c-1.006 0-1.832-.942-1.832-1.961v-3.135c-.51-.37-1.32-.756-2.102-.865l-.12.34c-.255.016-.105-.03-.33.185 1.036.71 2.117 2.656 2.117 4.015z" fill="#9CCFDD"/><path d="M276.106 68.846c0 .664-.51 1.189-1.126 1.189-.615 0-1.126-.54-1.126-1.19 0-.648.51-1.188 1.126-1.188.616 0 1.126.525 1.126 1.189" fill="#F3A68A"/><path d="M278.659 73.571c-2.027 0-3.784-2.13-3.784-4.771s1.517-5.436 3.784-5.359c2.267-.077 3.783 2.718 3.783 5.359.015 2.625-1.756 4.771-3.783 4.771" fill="#F3A68A"/><path d="M274.89 64.198s-.015-.031-.03-.077l1.201 1.652-.405.324-.496 1.853c-.045.278-.315.664-.405.108 0 0-.09-.972-.135-1.806-.045-.834-.105-1.174 0-1.467.105-.325.105-.51.27-.587" fill="#432313"/><path fill="#A3D8E7" d="M274.425 81.03h6.005v1.112h-6.005z"/><path fill="#F3A68A" d="M273.299 80.613v1.528h1.516v-1.544zm9.218-.016h1.516v1.544h-1.516zm-2.687-7.103v1.112c0 .494-.54.895-1.186.895-.661 0-1.186-.401-1.186-.895V73.57l2.372-.077z"/><path fill="#A3D8E7" d="M273.299 80.536v1.605h1.516v-1.62z"/><path fill="#9CCFDD" d="M274.71 80.536v1.605h.162v-1.62zm7.807.061h1.516v1.544h-1.516z"/><path fill="#96C6D3" d="M282.517 80.597h1v1.544h-1z"/><path fill="#EA4E50" d="M278.614 76.613l-.661-.463.66-.68.661.68z"/><path d="M280.986 75.069l-1.051-.695-1.291 1.127.645.788c.03.093.135.108.195.03l1.502-1.25zm-4.7 0l1.051-.695 1.292 1.127-.646.788c-.03.093-.135.108-.195.03l-1.502-1.25z" fill="#BEE3ED"/><path fill="#EA4E50" d="M278.388 76.227l-.285 5.914h1.036l-.285-5.914z"/><path d="M283.613 68.846c0 .664-.51 1.189-1.126 1.189-.615 0-1.126-.54-1.126-1.19 0-.648.51-1.188 1.126-1.188.616 0 1.126.525 1.126 1.189" fill="#F3A68A"/><path d="M276.572 68.213a.441.441 0 0 0 .465.417.445.445 0 0 0 .406-.479.441.441 0 0 0-.466-.417c-.24 0-.42.216-.405.479m3.153 0a.441.441 0 0 0 .465.417.445.445 0 0 0 .405-.479.441.441 0 0 0-.465-.417c-.255 0-.435.216-.405.479" fill="#020203"/><path d="M282.397 63.89s1.276-2.703-3.018-3.105c0 0-1.741-.185-3.783.556-.03.016-.045.062 0 .077l.33.14s-1.11.447-2.027-.495c-.045-.046-.135-.03-.15.031a.738.738 0 0 0 .06.602s-.765.232-1.276-.803c-.03-.046-.09-.046-.105.016-.105.494-.195 2.162 2.417 4.308l.466.216s2.552 1.622 5.855-.03l.465.37.586 2.424c.045.093.27.495.36-.278 0 0 .195-.942.255-1.775.046-.834.106-1.375 0-1.684-.12-.308-.285-.494-.435-.57" fill="#432313"/><path d="M282.577 63.102s-2.822 1.358-6.41-.371c0 0 .825 1.035 1.831 1.189 0 0-1.787.139-3.453-1.19 0 0 .285 1.514 1.576 1.792 0 0-2.222.155-3.573-2.239 0 0 1.336 3.752 5.21 3.86.015 0 4.459.325 4.82-3.041" fill="#3A1E14"/><path d="M278.539 69.973h-.796c-.33 0-.646.108-.901.309l-.54.432a.24.24 0 0 1-.106.062c-.24.093-.495-.015-.645-.231l-.586-.71c-.015-.032-.06-.016-.045.015l.12 1.822c.015.139.06.278.135.386l1.217 1.837c.33.495.855.788 1.44.788h.707v-4.71z" fill="#432313"/><path d="M278.418 69.973h1.126c.33 0 .646.108.901.309l.54.432c.03.031.06.047.106.062.24.093.495-.015.645-.231l.586-.71c.015-.032.06-.016.045.015l-.12 1.822a.846.846 0 0 1-.135.386l-1.216 1.837a1.72 1.72 0 0 1-1.442.788h-1.036v-4.71z" fill="#432313"/><path d="M279.65 71.008h-2.087s-.18 1.189 1.036 1.189c0 0 1.14 0 1.05-1.19" fill="#FFF"/><path fill="#FFF" d="M277.563 70.992v.288h2.087v-.288zm1.471 1.112s-.06-.309-.48-.309c0 0-.36-.015-.466.31.015 0 .45.2.946 0"/></g><g transform="matrix(-1 0 0 1 205.849 240)"><circle stroke="#DADADA" stroke-width="1.265" cx="21.09" cy="21.09" r="21.09"/><path d="M29.219 56.484c-1.498 0-2.814-.616-3.486-1.512a.688.688 0 0 1-.14-.42c0-.42.336-.756.756-.756.196 0 .378.084.602.308.672.686 1.232.924 2.268.924 1.862 0 2.702-.994 2.702-3.444 0-2.31-.84-3.458-2.702-3.458-1.022 0-1.624.35-2.198.98-.182.196-.378.28-.574.28a.75.75 0 0 1-.756-.742c0-.154.042-.294.154-.462.574-.84 1.68-1.512 3.374-1.512 2.786 0 4.382 1.596 4.382 4.914 0 3.43-1.596 4.9-4.382 4.9zM21.91 51.08c.616 0 1.05.28 1.4.532a.66.66 0 0 0 .42.14.657.657 0 0 0 .658-.658.693.693 0 0 0-.182-.462c-.392-.434-1.092-.896-2.296-.896-1.736 0-2.772.854-2.772 2.338v3.584c0 .406.336.742.742.742a.747.747 0 0 0 .742-.742c.378.602.994.812 1.834.812 1.372 0 2.282-.854 2.282-2.114 0-1.302-1.05-1.974-2.268-1.974h-1.834v-.252c0-.63.462-1.05 1.274-1.05zm.154 4.13c-.742 0-1.428-.476-1.428-1.26v-.392h1.638c.616 0 .952.294.952.798 0 .532-.378.854-1.162.854zm-5.082-8.89c.42 0 .756.336.756.756v7.532c0 1.176-.686 1.792-1.778 1.792a.693.693 0 0 1-.7-.7c0-.392.308-.7.7-.7.098 0 .266-.084.266-.252v-7.672c0-.42.336-.756.756-.756zm-3.402 0c.42 0 .756.336.756.756v7.532c0 1.176-.686 1.792-1.778 1.792a.693.693 0 0 1-.7-.7c0-.392.308-.7.7-.7.098 0 .266-.084.266-.252v-7.672c0-.42.336-.756.756-.756zm-4.83 4.732c-.574 0-.952.224-1.26.448-.154.112-.28.196-.476.196a.681.681 0 0 1-.672-.672c0-.21.056-.308.14-.42.392-.49 1.274-.868 2.268-.868 1.288 0 2.338.616 2.338 1.876 0 2.38-3.43 1.792-3.43 2.926 0 .392.406.56 1.036.56.7 0 1.162-.266 1.54-.574a.658.658 0 0 1 .434-.168c.364 0 .672.308.672.672a.651.651 0 0 1-.168.434c-.35.434-1.274.98-2.478.98-1.442 0-2.562-.672-2.562-1.988 0-2.31 3.444-1.834 3.444-2.87 0-.35-.308-.532-.826-.532z" fill="#0AAFC4"/></g><g fill-rule="nonzero"><path d="M193.924 273.276a.951.951 0 0 0 .119-1.151l-3.602-5.88a.952.952 0 0 0-1.424-.234c-.22.184-.475.384-.745.58l4.682 7.641c.387-.357.721-.693.97-.956zm-11.681-18.323a.952.952 0 0 0 .438-1.374l-3.602-5.88a.951.951 0 0 0-1.08-.418c-.346.103-.798.248-1.292.43l4.681 7.642c.297-.152.59-.288.855-.4zm3.775 12.657c-4.403.093-8.645-6.831-6.562-10.711.21-.394.633-.758 1.121-1.077l-4.753-7.759c-1.524.656-3.141 1.632-3.446 2.9-1.757 7.312 8.4 23.892 15.712 25.649 1.269.304 2.873-.694 4.15-1.753l-4.754-7.759c-.506.29-1.022.501-1.468.51z" fill="#64798A"/><path d="M187.486 267.1l4.753 7.759c.254-.21.493-.421.715-.627l-4.682-7.642a8.82 8.82 0 0 1-.786.51zm-6.098-11.747l-4.681-7.642c-.284.105-.58.222-.883.352l4.753 7.759c.26-.17.535-.327.811-.469z" fill="#3A556A"/><path d="M193.38 247.242c-4.542 0-8.223 3.01-8.223 6.723 0 1.14.353 2.21.967 3.15a.875.875 0 0 1 .115.75c-.263.815-.681 1.987-1.193 2.991-.332.653.274 1.391.973 1.173 1.108-.346 2.417-.889 3.375-1.695a.875.875 0 0 1 .842-.163 9.74 9.74 0 0 0 3.144.517c4.54 0 8.222-3.01 8.222-6.723s-3.681-6.723-8.222-6.723z" fill="#EF6061"/><path d="M191.69 252.942c.152-.207.228-.417.228-.629a.71.71 0 0 0-.242-.542.87.87 0 0 0-.614-.223c-.434 0-.795.222-1.083.666l-.72-.416c.233-.348.49-.61.77-.788.28-.176.64-.265 1.082-.265.442 0 .83.14 1.163.42.333.28.5.663.5 1.148 0 .272-.07.533-.212.78s-.401.565-.78.954l-1.242 1.265h2.4v.856h-3.62v-.758l1.606-1.613a8.63 8.63 0 0 0 .765-.855zm4.204 1.083v-.97h.848v.97h.636v.81h-.636v1.333h-.848v-1.333h-2.272v-.788l1.947-3.173h.977l-1.917 3.15z" fill="#FFF"/></g><g transform="matrix(-1 0 0 1 336.183 218.91)"><circle stroke="#DADADA" stroke-width="1.265" cx="21.09" cy="21.09" r="21.09"/><path d="M29.219 56.484c-1.498 0-2.814-.616-3.486-1.512a.688.688 0 0 1-.14-.42c0-.42.336-.756.756-.756.196 0 .378.084.602.308.672.686 1.232.924 2.268.924 1.862 0 2.702-.994 2.702-3.444 0-2.31-.84-3.458-2.702-3.458-1.022 0-1.624.35-2.198.98-.182.196-.378.28-.574.28a.75.75 0 0 1-.756-.742c0-.154.042-.294.154-.462.574-.84 1.68-1.512 3.374-1.512 2.786 0 4.382 1.596 4.382 4.914 0 3.43-1.596 4.9-4.382 4.9zM21.91 51.08c.616 0 1.05.28 1.4.532a.66.66 0 0 0 .42.14.657.657 0 0 0 .658-.658.693.693 0 0 0-.182-.462c-.392-.434-1.092-.896-2.296-.896-1.736 0-2.772.854-2.772 2.338v3.584c0 .406.336.742.742.742a.747.747 0 0 0 .742-.742c.378.602.994.812 1.834.812 1.372 0 2.282-.854 2.282-2.114 0-1.302-1.05-1.974-2.268-1.974h-1.834v-.252c0-.63.462-1.05 1.274-1.05zm.154 4.13c-.742 0-1.428-.476-1.428-1.26v-.392h1.638c.616 0 .952.294.952.798 0 .532-.378.854-1.162.854zm-5.082-8.89c.42 0 .756.336.756.756v7.532c0 1.176-.686 1.792-1.778 1.792a.693.693 0 0 1-.7-.7c0-.392.308-.7.7-.7.098 0 .266-.084.266-.252v-7.672c0-.42.336-.756.756-.756zm-3.402 0c.42 0 .756.336.756.756v7.532c0 1.176-.686 1.792-1.778 1.792a.693.693 0 0 1-.7-.7c0-.392.308-.7.7-.7.098 0 .266-.084.266-.252v-7.672c0-.42.336-.756.756-.756zm-4.83 4.732c-.574 0-.952.224-1.26.448-.154.112-.28.196-.476.196a.681.681 0 0 1-.672-.672c0-.21.056-.308.14-.42.392-.49 1.274-.868 2.268-.868 1.288 0 2.338.616 2.338 1.876 0 2.38-3.43 1.792-3.43 2.926 0 .392.406.56 1.036.56.7 0 1.162-.266 1.54-.574a.658.658 0 0 1 .434-.168c.364 0 .672.308.672.672a.651.651 0 0 1-.168.434c-.35.434-1.274.98-2.478.98-1.442 0-2.562-.672-2.562-1.988 0-2.31 3.444-1.834 3.444-2.87 0-.35-.308-.532-.826-.532z" fill="#0AAFC4"/></g><g fill-rule="nonzero"><path d="M324.258 252.187a.951.951 0 0 0 .119-1.152l-3.602-5.88a.952.952 0 0 0-1.424-.234c-.22.185-.475.385-.745.58l4.682 7.642c.387-.358.721-.694.97-.956zm-11.681-18.324a.952.952 0 0 0 .438-1.374l-3.602-5.88a.951.951 0 0 0-1.08-.418c-.346.103-.798.248-1.292.43l4.681 7.642c.297-.151.59-.287.855-.4zm3.775 12.657c-4.403.094-8.645-6.83-6.563-10.711.212-.393.634-.757 1.122-1.077l-4.753-7.758c-1.524.656-3.141 1.631-3.446 2.9-1.757 7.312 8.4 23.892 15.712 25.648 1.269.305 2.873-.693 4.15-1.753l-4.754-7.758c-.506.289-1.022.5-1.468.51z" fill="#64798A"/><path d="M317.82 246.01l4.753 7.76c.254-.211.493-.422.715-.627l-4.682-7.642a8.82 8.82 0 0 1-.786.51zm-6.098-11.747l-4.681-7.642c-.284.105-.58.222-.883.353l4.753 7.758c.26-.17.535-.327.811-.469z" fill="#3A556A"/><path d="M323.714 226.153c-4.542 0-8.223 3.01-8.223 6.723 0 1.14.353 2.21.967 3.149a.875.875 0 0 1 .115.75c-.263.816-.681 1.988-1.193 2.992-.332.652.274 1.39.973 1.172 1.108-.346 2.417-.888 3.375-1.695a.875.875 0 0 1 .842-.162 9.74 9.74 0 0 0 3.144.516c4.54 0 8.222-3.01 8.222-6.722 0-3.713-3.681-6.723-8.222-6.723z" fill="#F9696A"/><path d="M322.025 231.852a1.06 1.06 0 0 0 .227-.628.71.71 0 0 0-.242-.542.87.87 0 0 0-.614-.224c-.434 0-.795.223-1.083.667l-.72-.417c.233-.348.49-.61.77-.788.28-.176.64-.264 1.082-.264.442 0 .83.14 1.163.42.333.28.5.663.5 1.148 0 .272-.07.532-.212.78-.142.247-.402.565-.78.954l-1.242 1.264h2.4v.856h-3.62v-.757l1.606-1.613a8.85 8.85 0 0 0 .765-.856zm4.203 1.083v-.97h.848v.97h.636v.81h-.636v1.333h-.848v-1.333h-2.272v-.787l1.946-3.174h.977l-1.916 3.151z" fill="#FFF"/></g><g transform="matrix(-1 0 0 1 418.487 190.65)"><circle stroke="#DADADA" stroke-width="1.265" cx="26.206" cy="21.09" r="21.09"/><path d="M45.834 54.804a.776.776 0 0 1-.686-.392l-2.198-3.906v5.096a.807.807 0 0 1-.798.798.807.807 0 0 1-.798-.798v-8.05c0-.434.364-.798.798-.798.35 0 .574.196.714.448l2.968 5.32 2.968-5.32c.14-.252.364-.448.714-.448.434 0 .798.364.798.798v8.05a.807.807 0 0 1-.798.798.807.807 0 0 1-.798-.798v-5.096l-2.198 3.906a.776.776 0 0 1-.686.392zm-5.74-1.722c0-2.142-1.12-3.346-3.024-3.346-2.366 0-2.8 1.82-2.8 2.786 0 .518 0 1.12.854 1.12h3.458c0 1.008-.714 1.47-1.638 1.47-.616 0-1.05-.21-1.386-.434-.154-.098-.266-.154-.448-.154a.657.657 0 0 0-.658.658.7.7 0 0 0 .238.518c.238.224.98.77 2.254.77 1.946 0 3.15-1.05 3.15-3.388zm-3.024-2.058c.812 0 1.4.462 1.47 1.358h-2.772c0-.686.392-1.358 1.302-1.358zm-3.57 2.058c0-2.142-1.12-3.346-3.024-3.346-2.366 0-2.8 1.82-2.8 2.786 0 .518 0 1.12.854 1.12h3.458c0 1.008-.714 1.47-1.638 1.47-.616 0-1.05-.21-1.386-.434-.154-.098-.266-.154-.448-.154a.657.657 0 0 0-.658.658.7.7 0 0 0 .238.518c.238.224.98.77 2.254.77 1.946 0 3.15-1.05 3.15-3.388zm-3.024-2.058c.812 0 1.4.462 1.47 1.358h-2.772c0-.686.392-1.358 1.302-1.358zm-4.34-1.092h.322c.35 0 .63.28.63.63s-.28.63-.63.63h-.322v3.304c0 1.106-.77 1.904-2.016 1.904a.657.657 0 1 1 0-1.316c.252 0 .532-.182.532-.504v-3.388h-.63c-.35 0-.63-.28-.63-.63s.28-.63.63-.63h.63v-1.176c0-.406.336-.742.742-.742.406 0 .742.336.742.742v1.176zm-5.376.644c0-.42.336-.756.756-.756s.756.336.756.756v5.068c0 .42-.336.756-.756.756a.753.753 0 0 1-.756-.756v-5.068zm.756-1.512c-.588 0-.91-.336-.91-.882 0-.644.322-.924.91-.924.574 0 .896.28.896.924 0 .546-.322.882-.896.882zm-5.46.672c.938 0 1.526.434 1.792.84 0-.42.336-.756.756-.756s.756.336.756.756v5.096c0 .42-.322.728-.756.728s-.756-.308-.756-.728V52.55c0-.826-.35-1.442-1.4-1.442-.91 0-1.232.546-1.232 1.344v3.22c0 .42-.308.728-.756.728-.42 0-.756-.308-.756-.728v-3.5c0-1.218.448-2.436 2.352-2.436zM9.812 56.47c1.764 0 2.842-1.092 2.842-3.374s-1.106-3.36-2.996-3.36c-1.694 0-2.898.938-2.898 2.8v3.542c0 1.932.952 3.024 3.024 3.024 1.134 0 1.974-.35 2.45-.924a.636.636 0 0 0 .14-.406.681.681 0 0 0-.672-.672c-.168 0-.28.056-.448.168-.35.252-.812.546-1.47.546-.994 0-1.498-.518-1.498-1.372v-.532c.28.28.854.56 1.526.56zm-1.54-2.002v-1.932c0-.966.574-1.512 1.386-1.512.966 0 1.498.7 1.498 2.072 0 1.386-.546 2.086-1.498 2.086-.84 0-1.386-.714-1.386-.714zm-5.068-3.416c-.574 0-.952.224-1.26.448-.154.112-.28.196-.476.196a.681.681 0 0 1-.672-.672c0-.21.056-.308.14-.42.392-.49 1.274-.868 2.268-.868 1.288 0 2.338.616 2.338 1.876 0 2.38-3.43 1.792-3.43 2.926 0 .392.406.56 1.036.56.7 0 1.162-.266 1.54-.574a.658.658 0 0 1 .434-.168c.364 0 .672.308.672.672a.651.651 0 0 1-.168.434c-.35.434-1.274.98-2.478.98-1.442 0-2.562-.672-2.562-1.988 0-2.31 3.444-1.834 3.444-2.87 0-.35-.308-.532-.826-.532z" fill="#0AAFC4"/></g><g fill-rule="nonzero"><path d="M400.431 207.844c0 .672-.53 1.212-1.19 1.212-.659 0-1.189-.54-1.189-1.212 0-.672.53-1.212 1.19-1.212.659 0 1.19.54 1.19 1.212" fill="#CA7C3C"/><path d="M400.202 213.685s.043 1.066.043 2.599h.587s.03-1.884-.63-2.6" fill="#293051"/><path d="M399.313 216.328c0 2.365 1.878 3.241 4.2 3.241 2.321 0 4.199-.876 4.199-3.241 0-2.366-1.878-4.279-4.2-4.279-2.321-.014-4.199 1.913-4.199 4.279" fill="#FFF"/><path d="M407.999 206.37c0 2.554-2.036 4.54-4.53 4.613-2.536.088-4.6-1.942-4.528-4.614.071-2.54 2.035-4.614 4.529-4.614 2.493 0 4.529 2.059 4.529 4.614" fill="#434144"/><path fill="#FFF" d="M400.188 217.014h6.55v3.096h-6.55z"/><path d="M407.927 206.91c0 2.51-1.992 4.54-4.457 4.54-2.466 0-4.458-2.03-4.458-4.54 0-2.512 1.992-4.542 4.458-4.542 2.45 0 4.457 2.03 4.457 4.541" fill="#CA7C3C"/><path d="M401.406 207.23c0 .19-.158.351-.344.351a.352.352 0 0 1-.344-.35c0-.19.157-.35.344-.35.186 0 .344.16.344.35m4.873-.001c0 .19-.158.351-.344.351a.352.352 0 0 1-.344-.35c0-.19.157-.35.344-.35.186 0 .344.16.344.35" fill="#1E1E1C"/><path d="M404.344 202.456c1.304.788 2.164 2.234 2.164 3.898 0 2.512-1.992 4.542-4.457 4.542-.301 0-.602-.03-.889-.088a4.388 4.388 0 0 0 2.293.657c2.465 0 4.458-2.03 4.458-4.541.014-2.22-1.52-4.06-3.57-4.468" fill="#AF6C3F"/><path d="M408.987 207.844c0 .672-.53 1.212-1.19 1.212-.658 0-1.189-.54-1.189-1.212 0-.672.53-1.212 1.19-1.212.645 0 1.19.54 1.19 1.212" fill="#AF6C3F"/><path d="M403.47 209.625c-.99 0-1.348-.51-1.362-.525-.029-.044-.014-.117.029-.146.043-.03.114-.015.143.029.014.014.315.438 1.19.438.874 0 1.175-.409 1.19-.438.028-.044.1-.059.142-.03.043.03.058.103.03.147-.015.014-.36.525-1.362.525" fill="#EAA788"/><path d="M402.567 211.173v1.212c0 .526.43.964.946.964a.963.963 0 0 0 .946-.964v-1.124l-1.892-.088z" fill="#AF6C3F"/><path d="M401.492 215.641v3.943c0 .175.028.336.057.496h-1.376v-1.153a4.364 4.364 0 0 1-.874-2.614c0-2.03 1.39-3.738 3.268-4.176v.233c0 .263.1.511.272.687a3.184 3.184 0 0 0-1.347 2.584" fill="#FFF"/><path d="M400.875 219.657a4.286 4.286 0 0 1-.702-.745c-.043-.058-.071-.102-.114-.16-.015-.015-.03-.03-.03-.044a1.094 1.094 0 0 1-.1-.176c-.014-.014-.014-.029-.028-.043-.029-.059-.072-.117-.1-.19 0-.015-.015-.03-.015-.044-.028-.073-.071-.131-.1-.204 0 0 0-.015-.014-.015h1.003v-2.395c0-.598-.23-1.387-.459-1.956.287-.38.63-.701 1.032-.95l2.222 3.403 2.264-3.46a4.48 4.48 0 0 1 1.075.948c-.2.57-.401 1.402-.401 2.015v2.395h.989s0 .015-.015.015a.899.899 0 0 1-.1.204c0 .015-.014.03-.014.044-.029.058-.072.117-.1.19-.015.014-.015.029-.03.043-.028.059-.071.117-.1.176-.014.014-.028.029-.028.043-.043.059-.072.103-.115.161-.2.277.172.321-.086.54l-.029.205.015.467h-6.55l-.014-.467h.644z" fill="#293051"/><path d="M403.24 217.116c0 .117.086.204.2.204a.198.198 0 0 0 .202-.204.198.198 0 0 0-.201-.204c-.1 0-.2.087-.2.204m-.001 1.679c0 .117.086.205.2.205a.198.198 0 0 0 .202-.205.198.198 0 0 0-.201-.204c-.1-.015-.2.087-.2.204" fill="#FFF"/><path d="M400.66 218.036v-2.395c0-.598-.229-1.387-.458-1.956.014-.015.014-.03.029-.03l.028-.029c.029-.044.058-.073.1-.117l.015-.014c.258-.292.544-.555.874-.774l.774 1.197a3.08 3.08 0 0 0-.516 1.723v3.943c0 .175.029.336.057.496h-1.375v-.642c-.258-.205-.03-.22 0-.511l-.1-.015c-.216-.277-.287-.57-.43-.89l1.003.014z" fill="#293051"/><path d="M399.227 208.004s-.401-2.73.688-3.212c0 0 .56-.365 1.52-.423.386-.015.773.029 1.146.116a3.52 3.52 0 0 0 1.634.015c.115-.03.215-.088.33-.117.487-.146 1.418-.117 2.207.19a1.1 1.1 0 0 1 .587.497c.23.423.488 1.27.402 2.861 0 0 .86-1.766-.359-3.942 0 0 .373-.584 0-1.475-.186-.467-.544-.832-.974-1.08-.516-.307-1.305-.862-1.204-1.46 0 0-.359.7-2.308.759h-.401c-.459-.015-2.279.073-3.21 1.883-.144.278-.215.6-.158.906.043.233.143.482.401.642-.028.015-1.146 1.095-.3 3.84" fill="#434144"/><path fill="#293051" d="M406.38 216.226h1v1.869h-1zm.4-2.6s-.043 1.066-.043 2.6h-.358s-.258-1.884.401-2.6m-6.664 2.658h1v1.869h-1z"/><path d="M400.46 213.393c-.745.803-1.233 1.577-1.233 2.847v3.884h1.691l-.458-6.731zm6.105 0c.746.803 1.233 1.577 1.233 2.847v3.884h-1.691l.458-6.731z" fill="#293051"/><path fill="#2C2D2D" d="M383.303 216.33h1.725v3.546h-1.725z"/><path d="M383.898 207.165c.107 0 .199.093.199.2 0 .107-.092.2-.199.2a.203.203 0 0 1-.198-.2c0-.107.091-.2.198-.2" fill="#C8E5E7"/><path d="M375.5 214.733h8.291l.565-9.225c-.091-3.055-1.45-4.437-2.687-5.05-1.267-.63-2.718-.6-3.985.03-2.856 1.428-2.688 5.02-2.688 5.02l.504 9.225z" fill="#9B4116"/><path d="M380.951 210.128v1.55c0 .676-.565 1.229-1.267 1.229s-1.283-.553-1.283-1.229v-1.427l2.55-.123z" fill="#EBB98D"/><path d="M376.203 219.876v-3.27l.427 3.27h6.276l.427-3.27v3.27h.718c.61-1.044.977-2.226.977-3.316 0-2.303-1.603-4.237-3.787-4.866-.488-.138-1.023.583-1.557.583-.55 0-1.084-.721-1.588-.568-2.168.66-3.71 2.656-3.71 4.943 0 .66.122 1.919.366 3.224h1.45z" fill="#2C2D2D"/><path d="M383.913 216.406h1.13s.092-1.765-1.298-3.177c0 0-.64-.814-2.091-1.428v.86l1.267 2.38.107 1.365h.885zm-9.527.338h1.725v3.132h-1.725z" fill="#2C2D2D"/><path d="M382.157 219.876l.78-7.108s-.596-.813-2.047-1.228c0 0 .046.722-1.221.768 0 0-1.115.338-1.191-.706 0-.016-1.16.276-2.169 1.228l.794 7.046h5.054z" fill="#E8E7E7"/><path d="M379.7 200.334c2.442 0 4.427 2.288 4.427 5.112 0 2.825-1.985 5.112-4.428 5.112-2.443 0-4.428-2.287-4.428-5.112-.015-2.824 1.97-5.112 4.428-5.112" fill="#F5C08E"/><path d="M375.882 205.385a1.228 1.228 0 0 1 0 2.456 1.228 1.228 0 0 1 0-2.456" fill="#F5C08E"/><path d="M384.875 206.613c0 .675-.55 1.228-1.221 1.228-.672 0-1.405-.583-1.222-1.228.23-.814.55-1.228 1.222-1.228.672 0 1.221.552 1.221 1.228" fill="#EBB98D"/><path d="M378.66 208.255c0 .43.474.768 1.054.768.58 0 1.054-.338 1.054-.768h-2.107z" fill="#FFF"/><path d="M380.57 200.442c1.297.89 2.152 2.517 2.152 4.375 0 2.824-1.985 5.112-4.428 5.112a4 4 0 0 1-.87-.108c.672.46 1.45.737 2.275.737 2.443 0 4.428-2.287 4.428-5.112 0-2.471-1.527-4.528-3.557-5.004" fill="#EBB98D"/><path d="M375.577 207.165c.106 0 .198.093.198.2 0 .107-.092.2-.198.2a.203.203 0 0 1-.199-.2c0-.107.076-.2.199-.2" fill="#C8E5E7"/><path d="M378.065 205.738c.23 0 .428.2.428.43 0 .245-.199.43-.428.43a.438.438 0 0 1-.427-.43c0-.23.183-.43.427-.43m3.299 0c.229 0 .427.2.427.43 0 .245-.198.43-.427.43a.438.438 0 0 1-.428-.43c0-.23.198-.43.428-.43" fill="#030304"/><path d="M381.196 200.55c-.107 4.22-4.596 2.977-5.284 6.354-1.328-1.81-.732-3.76.245-4.988 2.107-2.64 5.039-1.367 5.039-1.367" fill="#9B4116"/><path d="M380.951 200.488c-2.168-.491 1.39 3.362 1.985 4.022.58.644.794 1.842.794 1.842s.596-.814.504-1.351c-.122-.553-.122-3.807-3.283-4.513" fill="#9B4116"/><path fill="#FFF" d="M377.47 211.97l1.68 1.09.55-.752-1.375-.875z"/><path fill="#FFF" d="M381.913 211.863l-1.725 1.197-.535-.752 1.36-.875z"/><path d="M382.906 219.876l.427-3.285v-3.761c-.305-.292-.962-.768-1.618-1.12l-2.031 8.166h3.222z" fill="#2C2D2D"/><path d="M376.615 219.876h3.13l-2.03-8.136c-.673.353-1.314.813-1.62 1.12v3.654l.108.092.412 3.27z" fill="#2C2D2D"/><path d="M397.752 225.52a7.92 7.92 0 0 0 .166-1.56c0-3.227-2.433-5.945-5.42-5.945-2.958 0-5.33 2.734-5.33 5.945 0 .51.06 1.035.165 1.56h10.42z" fill="#A3D8E7"/><path d="M397.752 225.52a7.92 7.92 0 0 0 .166-1.56c0-3.103-2.132-5.713-4.955-5.883l-.06 7.443h4.85z" fill="#9CCFDD"/><path d="M397.737 225.52c.09-.386.136-.787.166-1.158-.196.062-.39.108-.601.108-1.02 0-1.832-1.004-1.832-2.1v-3.413a5.089 5.089 0 0 0-2.912-.942 5.04 5.04 0 0 0-2.868.911v3.444c0 1.096-.826 2.1-1.832 2.1-.225 0-.45-.046-.645-.124.03.387.075.773.165 1.174h10.36z" fill="#A3D8E7"/><path d="M395.05 222.648v2.888h2.672c.105-.603.18-1.174.196-1.576a1.58 1.58 0 0 1-.601.109c-1.006 0-1.832-.942-1.832-1.962v-3.134c-.51-.37-1.32-.757-2.102-.865l-.12.34c-.255.015-.105-.031-.33.185 1.036.71 2.117 2.656 2.117 4.015z" fill="#9CCFDD"/><path d="M389.99 212.255c0 .664-.51 1.19-1.126 1.19-.615 0-1.126-.541-1.126-1.19 0-.648.51-1.189 1.126-1.189.616 0 1.126.525 1.126 1.19" fill="#F3A68A"/><path d="M392.543 216.98c-2.027 0-3.784-2.13-3.784-4.77 0-2.641 1.517-5.436 3.784-5.36 2.267-.076 3.783 2.719 3.783 5.36.015 2.624-1.756 4.77-3.783 4.77" fill="#F3A68A"/><path d="M388.774 207.607s-.015-.03-.03-.077l1.201 1.652-.405.325-.496 1.853c-.045.278-.315.664-.405.108 0 0-.09-.973-.135-1.807-.045-.834-.105-1.173 0-1.467.105-.324.105-.51.27-.587" fill="#432313"/><path fill="#A3D8E7" d="M388.31 224.44h6.004v1.112h-6.005z"/><path fill="#F3A68A" d="M387.183 224.022v1.529h1.516v-1.544zm9.218-.015h1.516v1.544h-1.516zm-2.687-7.104v1.112c0 .494-.54.896-1.186.896-.661 0-1.186-.402-1.186-.896v-1.034l2.372-.078z"/><path fill="#A3D8E7" d="M387.183 223.945v1.606h1.516v-1.621z"/><path fill="#9CCFDD" d="M388.594 223.945v1.606h.162v-1.621zm7.807.062h1.516v1.544h-1.516z"/><path fill="#96C6D3" d="M396.401 224.007h1v1.544h-1z"/><path fill="#EA4E50" d="M392.498 220.023l-.661-.464.66-.679.661.68z"/><path d="M394.87 218.479l-1.051-.695-1.291 1.127.645.787c.03.093.135.109.195.031l1.502-1.25zm-4.7 0l1.051-.695 1.292 1.127-.646.787c-.03.093-.135.109-.195.031l-1.502-1.25z" fill="#BEE3ED"/><path fill="#EA4E50" d="M392.272 219.637l-.285 5.914h1.036l-.285-5.914z"/><path d="M397.497 212.255c0 .664-.51 1.19-1.126 1.19-.615 0-1.126-.541-1.126-1.19 0-.648.51-1.189 1.126-1.189.616 0 1.126.525 1.126 1.19" fill="#F3A68A"/><path d="M390.456 211.622a.441.441 0 0 0 .465.417.445.445 0 0 0 .406-.478.441.441 0 0 0-.466-.417c-.24 0-.42.216-.405.478m3.153 0a.441.441 0 0 0 .465.417.445.445 0 0 0 .405-.478.441.441 0 0 0-.465-.417c-.255 0-.435.216-.405.478" fill="#020203"/><path d="M396.281 207.299s1.276-2.703-3.018-3.104c0 0-1.741-.186-3.783.556-.03.015-.045.061 0 .077l.33.139s-1.11.448-2.027-.494c-.045-.047-.135-.031-.15.03a.738.738 0 0 0 .06.603s-.765.231-1.276-.803c-.03-.047-.09-.047-.105.015-.105.494-.195 2.162 2.417 4.309l.466.216s2.552 1.621 5.855-.031l.465.37.586 2.425c.045.093.27.494.36-.278 0 0 .195-.942.255-1.776.046-.834.106-1.374 0-1.683-.12-.309-.285-.494-.435-.571" fill="#432313"/><path d="M396.461 206.511s-2.822 1.359-6.41-.37c0 0 .825 1.034 1.831 1.188 0 0-1.787.14-3.453-1.189 0 0 .285 1.514 1.576 1.792 0 0-2.222.154-3.573-2.24 0 0 1.336 3.753 5.21 3.861.015 0 4.459.324 4.82-3.042" fill="#3A1E14"/><path d="M392.423 213.383h-.796c-.33 0-.646.108-.901.309l-.54.432a.24.24 0 0 1-.106.062c-.24.092-.495-.016-.645-.232l-.586-.71c-.015-.031-.06-.016-.045.015l.12 1.822c.015.14.06.278.135.386l1.217 1.838c.33.494.855.787 1.44.787h.707v-4.71z" fill="#432313"/><path d="M392.302 213.383h1.126c.33 0 .646.108.901.309l.54.432c.03.03.06.046.106.062.24.092.495-.016.645-.232l.586-.71c.015-.031.06-.016.045.015l-.12 1.822a.846.846 0 0 1-.135.386l-1.216 1.838c-.33.494-.856.787-1.442.787h-1.036v-4.71z" fill="#432313"/><path d="M393.534 214.417h-2.087s-.18 1.19 1.036 1.19c0 0 1.14 0 1.05-1.19" fill="#FFF"/><path fill="#FFF" d="M391.447 214.402v.287h2.087v-.287zm1.471 1.112s-.06-.31-.48-.31c0 0-.36-.015-.466.31.015 0 .45.2.946 0"/></g><path d="M18.873 212.821h3.556a.723.723 0 0 0 .728-.728.723.723 0 0 0-.728-.728h-4.368a.813.813 0 0 0-.812.812v7.798c0 .448.364.812.812.812h4.522a.723.723 0 0 0 .728-.728.723.723 0 0 0-.728-.728h-3.71v-2.576h2.646a.717.717 0 0 0 .714-.714.717.717 0 0 0-.714-.714h-2.646v-2.506zm12.936 1.414c-.952 0-1.554.308-2.002.91-.35-.546-.924-.91-2.072-.91-.938 0-1.526.434-1.792.84a.753.753 0 0 0-.756-.756.753.753 0 0 0-.756.756v5.096c0 .42.322.728.756.728s.756-.308.756-.728v-3.122c0-.826.35-1.442 1.4-1.442.91 0 1.232.546 1.232 1.344v3.22c0 .42.308.728.756.728.42 0 .756-.308.756-.728v-3.234c0-.784.392-1.33 1.4-1.33.91 0 1.232.546 1.232 1.344v3.22c0 .42.308.728.756.728.42 0 .756-.308.756-.728v-3.5c0-1.218-.518-2.436-2.422-2.436zm6.258 1.344c-.616 0-1.05.28-1.4.532a.66.66 0 0 1-.42.14.657.657 0 0 1-.658-.658c0-.154.056-.322.182-.462.392-.434 1.092-.896 2.296-.896 1.736 0 2.772.854 2.772 2.338v3.584a.747.747 0 0 1-.742.742.747.747 0 0 1-.742-.742c-.378.602-.994.812-1.834.812-1.372 0-2.282-.854-2.282-2.114 0-1.302 1.05-1.974 2.268-1.974h1.834v-.252c0-.63-.462-1.05-1.274-1.05zm-.154 4.13c.742 0 1.428-.476 1.428-1.26v-.392h-1.638c-.616 0-.952.294-.952.798 0 .532.378.854 1.162.854zm5.838-4.634a.753.753 0 0 0-.756-.756.753.753 0 0 0-.756.756v5.068c0 .42.336.756.756.756s.756-.336.756-.756v-5.068zm-.756-1.512c.588 0 .91-.336.91-.882 0-.644-.322-.924-.91-.924-.574 0-.896.28-.896.924 0 .546.322.882.896.882zm2.982-2.744a.753.753 0 0 0-.756.756v7.532c0 1.176.686 1.792 1.778 1.792.392 0 .7-.308.7-.7 0-.392-.308-.7-.7-.7-.098 0-.266-.084-.266-.252v-7.672a.753.753 0 0 0-.756-.756zm4.83 4.732c.574 0 .952.224 1.26.448.154.112.28.196.476.196a.681.681 0 0 0 .672-.672.604.604 0 0 0-.14-.42c-.392-.49-1.274-.868-2.268-.868-1.288 0-2.338.616-2.338 1.876 0 2.38 3.43 1.792 3.43 2.926 0 .392-.406.56-1.036.56-.7 0-1.162-.266-1.54-.574a.658.658 0 0 0-.434-.168.681.681 0 0 0-.672.672c0 .168.056.294.168.434.35.434 1.274.98 2.478.98 1.442 0 2.562-.672 2.562-1.988 0-2.31-3.444-1.834-3.444-2.87 0-.35.308-.532.826-.532z" fill="#0AAFC4"/><circle stroke="#DADADA" stroke-width="1.265" transform="matrix(-1 0 0 1 68.359 0)" cx="34.179" cy="185.589" r="21.09"/><g fill-rule="nonzero"><path fill="#D6AD28" d="M48.447 182.852v8.311H20.26v-8.31l14.094-10.742.007.005z"/><path fill="#D6AD28" d="M48.447 182.852v8.311H34.361v-19.047z"/><path fill="#DFDFE2" d="M24.647 175.578h19.414v17.398H24.647z"/><path d="M29.742 179.067h9.224v1.726h-9.224zm0 3.13h9.224v1.726h-9.224zm0 3.129h9.224v1.726h-9.224z" fill="#88868F"/><path fill="#DFDFE2" d="M34.361 175.578h9.7v17.398h-9.7z"/><path d="M34.36 179.067h4.606v1.726H34.36zm0 3.13h4.606v1.726H34.36zm0 3.129h4.606v1.726H34.36z" fill="#88868F"/><path fill="#F0C330" d="M48.447 182.852v16.637H20.26v-16.652l12.622 7.946 1.479.73 1.257-.734z"/><path fill="#F0C330" d="M48.447 182.852v16.637H34.361v-7.976l1.257-.734.003-.002z"/><path fill="#FAE16F" d="M48.447 199.489H20.274l1.042-.757 12.91-9.374.135.097z"/><path fill="#FAE16F" d="M48.447 199.489H34.361v-10.034z"/></g></g></svg>