<svg xmlns="http://www.w3.org/2000/svg" width="313" height="369" viewBox="0 0 313 369"><g fill="none"><g transform="translate(188.133)"><ellipse cx="62.667" cy="298.369" fill="#F8F7F7" rx="61.96" ry="22.338"/><path fill="#424143" d="M96.449 47.867c0 18.987-15.45 33.746-34.422 34.304-19.292.638-35.063-14.44-34.422-34.304.56-18.987 15.45-34.305 34.422-34.305 18.972 0 34.422 15.318 34.422 34.305z"/><ellipse cx="61.947" cy="51.856" fill="#CB7B3C" rx="33.942" ry="33.826"/><ellipse cx="43.695" cy="54.249" fill="#1E1E1C" rx="2.642" ry="2.633"/><ellipse cx="80.679" cy="54.249" fill="#1E1E1C" rx="2.642" ry="2.633"/><path fill="#AF6D40" d="M68.671 18.748c9.846 5.903 16.49 16.673 16.49 28.96 0 18.667-15.21 33.825-33.941 33.825a37.03 37.03 0 0 1-6.724-.638c5.123 3.031 11.047 4.866 17.45 4.866 18.733 0 33.942-15.158 33.942-33.826 0-16.434-11.687-30.076-27.217-33.187z"/><ellipse cx="29.766" cy="58.876" fill="#CB7B3C" rx="9.046" ry="9.015"/><ellipse cx="94.848" cy="58.876" fill="#AF6D40" rx="9.046" ry="9.015"/><path fill="#EAA789" d="M62.027 72.04c-7.605 0-10.247-3.83-10.327-3.99-.24-.398-.16-.877.24-1.116.4-.24.881-.16 1.121.239.08.16 2.402 3.27 9.046 3.27 6.644 0 8.966-3.11 9.046-3.19.24-.32.72-.479 1.12-.16.32.24.48.718.24 1.117-.24.08-2.881 3.83-10.486 3.83z"/><path fill="#2E2E2E" d="M29.686 59.993S26.564 39.65 34.97 36.06c0 0 4.242-2.713 11.527-3.112 2.882-.16 5.844.16 8.645.878 2.642.638 7.445 1.356 12.408.08.88-.24 1.681-.639 2.482-.878 3.682-1.117 10.807-.798 16.73 1.356 1.842.718 3.443 1.995 4.403 3.75 1.682 3.111 3.683 9.414 3.042 21.3 0 0 6.565-13.163-2.641-29.278 0 0 2.802-4.308-.08-11.01-1.441-3.43-4.163-6.222-7.365-8.057-3.923-2.234-9.926-6.462-9.126-10.85 0 0-2.722 5.186-17.531 5.665h-3.042c-3.522-.08-17.291.558-24.496 14.04-1.12 2.075-1.6 4.388-1.2 6.702.32 1.675 1.12 3.51 3.042 4.786 0 .16-8.406 8.218-2.082 28.56z"/><path fill="#1C405F" d="M87.963 178.862c0 14.36-11.687 25.928-25.376 25.928-13.689 0-25.376-11.568-25.376-25.928 0-14.36 11.687-25.928 25.376-25.928 13.689.08 25.376 11.648 25.376 25.928z"/><path fill="#1C405F" d="M37.851 186.52l-.24 53.77c8.726.08 13.449.08 19.373.16l.16-53.93H37.85z"/><path fill="#183446" d="M68.03 185.324v56.163c6.645-.319 13.049-1.276 19.373-2.792v-53.291H68.031v-.08z"/><path fill="#183446" d="M78.437 179.34c-2.241 11.887-12.247 21.062-24.175 21.062-2.722 0-5.443-.559-7.845-1.357 4.323 3.99 10.006 6.383 16.25 6.383 13.69 0 24.656-11.808 24.656-26.088"/><path fill="#1C405F" d="M63.788 198.407s11.848-4.547 14.57-18.827H61.626v5.983l-5.284 7.5 7.445 5.344zm-26.097 85.602h19.373v-44.915H37.691z"/><path fill="#183446" d="M69.231 284.009h-1.2v-52.653h19.372v52.653z"/><path fill="#EEEDED" d="M96.609 127.884c0 19.785-15.21 44.915-34.022 44.915-18.812 0-34.022-25.21-34.022-44.915s15.21-36.459 34.022-36.459c18.812 0 34.022 16.674 34.022 36.459z"/><path fill="#DADADA" d="M64.588 91.505v81.214c17.852-1.037 32.021-25.768 32.021-44.915 0-18.987-14.17-35.182-32.02-36.299z"/><path fill="#EEEDED" d="M92.766 130.995c-6.404 0-11.687-6.143-11.687-12.924V97.17a32.266 32.266 0 0 0-18.412-5.744c-6.724 0-12.968 2.075-18.171 5.585v21.062c0 6.78-5.204 12.923-11.688 12.923-1.44 0-2.802-.24-4.082-.798 1.2 18.668 15.85 42.602 33.941 42.602 18.012 0 32.661-23.854 33.942-42.522a10.91 10.91 0 0 1-3.843.718z"/><path fill="#EEEDED" d="M35.69 130.676h53.794v53.451H35.69z"/><path fill="#CB7B3C" d="M38.172 192.504h-9.526v-64.381l9.526-.159z"/><ellipse cx="35.13" cy="191.866" fill="#CB7B3C" rx="6.484" ry="6.622"/><path fill="#030304" d="M69.231 301.4h14.89l1.841-14.758H69.231z"/><path fill="#030304" d="M99.25 301.4c0-6.78-5.443-11.807-12.407-12.365-22.735-1.995-12.408 5.505-12.408 12.365H99.25zm-42.907 0H44.736l-5.123-14.758h16.73z"/><path fill="#030304" d="M25.924 301.4c0-6.78 5.523-12.365 12.408-12.365 22.814 0 12.408 5.505 12.408 12.365H25.924zm49.471 0c0-6.78 5.364-12.365 11.928-12.365 6.564 0 11.928 5.505 11.928 12.365"/><path fill="#030304" d="M49.86 301.4c0-6.78-5.364-12.365-11.929-12.365-6.564 0-11.927 5.505-11.927 12.365"/><ellipse cx="90.125" cy="191.866" fill="#AF6D40" rx="6.484" ry="6.462"/><path fill="#DADADA" d="M78.437 184.207v-64.54c0-8.297-6.804-20.344-13.448-24.572 1.36-1.356.48-1.117 2.001-1.197l.72-1.994c4.964.718 10.007 3.032 13.289 5.345v19.227c0 6.302 5.203 12.046 11.687 12.046 1.281 0 2.642-.24 3.843-.638-.48 6.701-3.042 22.098-7.045 27.124v29.199H78.918"/><path fill="#AF6D40" d="M87.083 127.964h9.046l.56 63.822h-9.606z"/><path fill="#183446" d="M37.211 284.009h20.253c.16 0 .32.24.32.558v1.516c0 .24-.16.559-.32.559H37.21c-.16 0-.32-.24-.32-.559v-1.516c-.08-.239.16-.558.32-.558z"/><path fill="#17212C" d="M67.71 284.009h20.253c.16 0 .32.24.32.558v1.516c0 .24-.16.559-.32.559H67.71c-.16 0-.32-.24-.32-.559v-1.516c-.08-.239.08-.558.32-.558z"/><path fill="#AF6D40" d="M70.032 84.405v6.86c0 3.032-3.442 5.505-7.525 5.505-4.082 0-7.525-2.393-7.525-5.504v-6.382l15.05-.48z"/><path fill="#1C405F" d="M62.507 191.068l-3.682-3.59 3.682-8.457 3.602 8.457z"/><path fill="#EEEDED" d="M38.172 181.734h-9.526v-54.09l9.526-.079z"/><path fill="#DADADA" d="M38.252 181.734h-.721v-54.09l.721-.079zm48.831-54.01l9.526.08.08 54.089h-9.606z"/><path fill="#C7C6C6" d="M87.083 127.964h1v53.93h-1z"/><path fill="#EA4D51" d="M62.267 103.552l-4.083-2.793 4.083-4.148 4.243 4.148z"/><path fill="#C7C6C6" d="M77.237 94.138l-6.725-4.228-8.165 6.86 4.083 4.867c.16.558.88.638 1.28.16l9.527-7.66z"/><path fill="#DADADA" d="M47.538 94.138l6.724-4.228 8.165 6.86-4.082 4.867c-.16.558-.881.638-1.281.16l-9.526-7.66z"/><path fill="#EA4D51" d="M60.826 101.318l-2.962 59.913 4.403 6.223 4.483-6.223-2.962-59.913z"/></g><g transform="translate(0 6)"><ellipse cx="64.361" cy="292.369" fill="#F8F7F7" rx="61.96" ry="22.338"/><ellipse cx="63.801" cy="123.257" fill="#EEEDED" rx="35.943" ry="37.815"/><path fill="#DADADA" d="M65.882 85.522v75.47c18.892-1.117 33.862-17.552 33.862-37.735.08-20.104-14.97-36.539-33.862-37.735z"/><path fill="#EEEDED" d="M95.661 126.607c-6.804 0-12.328-5.823-12.328-12.924V91.585c-5.603-3.83-12.328-6.063-19.532-6.063a34.156 34.156 0 0 0-19.213 5.903v22.258c0 7.18-5.523 12.924-12.327 12.924-1.521 0-2.962-.319-4.323-.797 1.2 19.705 16.81 35.341 35.863 35.341 19.052 0 34.582-15.557 35.863-35.262a11.124 11.124 0 0 1-4.003.718z"/><ellipse cx="63.801" cy="174.314" fill="#3A5FA9" rx="26.097" ry="27.364"/><path fill="#EEEDED" d="M35.383 129.4h56.836v44.915H35.383z"/><path fill="#DADADA" d="M95.661 126.607c-6.804 0-12.328-5.823-12.328-12.924V91.585c-3.442-2.393-7.284-4.149-11.447-5.106v2.074c0 2.394-3.442 1.835-4.883 3.351 8.005 5.505 14.089 15.956 14.089 25.37v52.493h-.08a42.307 42.307 0 0 1-.48 4.468h11.687v-27.763a38.626 38.626 0 0 0 7.445-20.503 12.752 12.752 0 0 1-4.003.638z"/><path fill="#F0B79B" d="M39.465 221.064h17.771v59.674H39.465zm31.38 2.553h17.771v57.121H70.845z"/><path fill="#3A5FA9" d="M37.704 175.591h20.493v105.307H37.704z"/><path fill="#3A52A0" d="M69.564 194.02v86.718l20.413.239V174.314z"/><path fill="#3A52A0" d="M54.995 196.334c-2.961 0-5.763-.559-8.325-1.436 4.563 4.228 10.567 6.78 17.211 6.78 14.41 0 26.097-12.285 26.097-27.363h2.321-11.687c-2.402 12.525-12.968 22.019-25.617 22.019z"/><path fill="#050707" d="M70.845 296.374h15.69l2.002-15.636H70.845z"/><path fill="#050707" d="M102.546 296.374c0-7.18-5.764-12.445-13.129-13.083-24.015-2.074-13.128 5.824-13.128 13.083h26.257zm-45.309 0H44.909l-5.444-15.636h17.772z"/><path fill="#050707" d="M25.056 296.374c0-7.18 5.844-13.083 13.128-13.083 24.096 0 13.129 5.824 13.129 13.083H25.056zm52.273 0c0-7.18 5.684-13.083 12.648-13.083 6.965 0 12.649 5.824 12.649 13.083"/><path fill="#050707" d="M50.352 296.374c0-7.18-5.683-13.083-12.648-13.083-6.964 0-12.648 5.824-12.648 13.083"/><ellipse cx="92.859" cy="181.255" fill="#E5AF99" rx="6.884" ry="6.781"/><path fill="#E5AF99" d="M99.743 181.255H89.577v-57.759h10.166z"/><path fill="#3A5FA9" d="M82.853 111.13H44.829l-6.725 14.44h51.473z"/><path fill="#3A5FA9" d="M42.507 130.038l4.803-8.377V89.83h-.32a33.405 33.405 0 0 0-4.483 2.952v37.256z"/><path fill="#3A52A0" d="M80.692 89.83h-.24v31.831l4.802 8.377V92.86c-1.44-1.117-2.961-2.074-4.562-3.031z"/><path fill="#3A5FA9" d="M38.104 125.57S57.903 120 67 120c9.097 0 22.577 5.57 22.577 5.57v49.941H38.104v-49.94z"/><path fill="#3A52A0" d="M89.577 175.591h-9.126v-55.763l2.402-8.698 6.724 14.713z"/><g transform="translate(22.414)"><path fill="#F4CA75" d="M33.061 65.657c-4.803-.479-8.165 2.154-9.846 3.91-1.841 1.914-4.883 4.547-7.525 4.547-.16 0 .4-1.596.4-1.596 3.202-4.388-.48-7.978-.48-7.978-3.842 4.787-9.846 4.627-9.846 4.627 5.043-7.977 2.321-14.28 2.321-14.28C4.243 58.237.32 56.802.32 56.802s4.563 2.234 3.442-18.11c0 0-2.721-24.492 17.372-34.384 0 0 20.092-10.052 39.064 1.675 0 0 1.121-2.154-1.36-5.664 0 0 3.842 2.314 4.803 9.494 0 0 3.842-1.277 7.284-.639 0 0-3.682.639-5.443 3.351 0 0 8.485 2.074 10.487 17.79 0 0 1.12 7.58 0 17.153 0 0-1.361-1.436 5.043 10.291 0 0-5.043.399-7.765-2.074 0 0-2.322 7.1 3.202 14.44 0 0-4.803.877-10.007-3.75 0 0-3.122 4.228.08 9.175.08.08-5.683-2.075-7.684-3.99-2.562-2.552-7.845-6.86-12.889-6.062"/><ellipse cx="39.145" cy="41.484" fill="#F0B79B" rx="30.099" ry="31.672"/><ellipse cx="28.018" cy="43.718" fill="#1E1E1C" rx="2.722" ry="2.792"/><ellipse cx="51.393" cy="43.718" fill="#1E1E1C" rx="2.722" ry="2.792"/><path fill="#E5AF99" d="M45.069 10.45c8.725 5.506 14.65 15.558 14.65 27.125 0 17.472-13.45 31.672-30.1 31.672-2.001 0-4.003-.24-5.924-.638 4.483 2.872 9.766 4.547 15.45 4.547 16.65 0 30.1-14.2 30.1-31.672 0-15.317-10.407-28.081-24.176-31.033z"/><ellipse cx="8.806" cy="48.026" fill="#F0B79B" rx="7.525" ry="7.898"/><ellipse cx="70.125" cy="48.026" fill="#E5AF99" rx="7.525" ry="7.898"/><path fill="#F4CA75" d="M8.806 40.128s.4 2.154 1.44 3.59c0 0 .24-15.078 7.525-24.571 0 0-1.28 4.308 0 7.1 0 0 1.922-1.596 4.964-3.271 4.562-2.553 9.766-3.67 15.05-3.51 3.842.08 10.406-.4 15.61-4.149 0 0 13.128 9.334 15.129 27.923 0 0 .8-1.197.72-3.032l3.122-4.468-4.643-14.599-10.727-9.892L46.43 8.297H31.54l-10.967 2.952-5.443 4.946-4.803 7.738-4.243 8.616v3.83l2.722 3.75z"/><path fill="#FFF" d="M32.901 58.477c0 2.872 3.762 5.186 6.564 5.186 2.882 0 6.564-2.314 6.564-5.186H32.901z"/><path fill="#E5AF99" d="M45.87 71.242v8.376c0 3.67-2.883 6.702-6.405 6.702-3.522 0-6.404-3.032-6.404-6.702V71.8l12.808-.558z"/><path fill="#F4CA75" d="M26.177 70.045V57.12c0-.718 1.2-1.436 1.921-1.596l8.405-2.632-1.12 1.276c-.24.32-.56.479-.961.638l-5.764 2.075v9.972c0 2.074 1.281 3.989 3.202 4.707.961.319 2.162.558 3.603.319.88-.08 1.6-.718 1.92-1.516.241-.718.481-1.596.321-3.191h3.362s-.32 1.516 0 3.111c.24 1.197 1.121 1.755 2.402 1.915 1.12.08 2.962-.479 5.123-1.675 1.601-.878 2.562-2.553 2.562-4.388V56.96l-6.725-2.074c-.4-.16-.72-.319-1.04-.638l-1.04-1.197 8.965 2.633c.72.24 1.921.877 1.921 1.595v12.127s-6.004 3.75-13.288 3.829h-1.281c-1.441.08-8.166-.638-12.488-3.191zM68.524 42.84S62.84 54.249 53.394 57.2v12.206s15.45-7.42 15.13-26.566zm-58.277.239s6.564 12.206 15.93 15.158v11.887c0-.08-18.092-8.537-15.93-27.045z"/><path fill="#F4CA75" d="M10.247 48.026v21.46c0 1.915.64 3.75 1.84 5.266 3.683 4.707 12.969 15.955 27.778 18.508 0 0 19.613-2.313 27.938-19.146.56-1.197.88-2.474.88-3.75l-.24-22.976s-10.566 10.85-14.889 9.813l-2.321 12.445s-15.37 9.573-28.098-3.83l-9.286-12.844-3.602-4.946z"/></g><path d="M54.355 131.553c-.24 0-.48-.16-.64-.399-.24-.399-.08-.798.24-1.037l2.321-1.436c.4-.24.8-.08 1.04.24.241.398.08.797-.24 1.037l-2.32 1.436c-.08.16-.24.16-.401.16zm1.2-4.787h-3.121c-.4 0-.8-.319-.72-.797 0-.4.32-.718.8-.718 0 0 2.241.08 3.922 0 .4 0 .8.319.8.797a.8.8 0 0 1-.8.798c-.32-.08-.56-.08-.88-.08zm1.202-3.19c-.16 0-.32-.08-.4-.16 0 0-1.121-.718-2.242-1.197-.4-.16-.56-.638-.4-1.037.16-.399.64-.558 1.04-.399 1.201.559 2.402 1.277 2.482 1.356.32.24.48.718.24 1.037-.24.24-.48.4-.72.4zm12.567.478c-.24 0-.48-.16-.64-.399-.24-.399-.08-.798.24-1.037l2.321-1.436c.4-.24.8-.08 1.04.24.24.398.08.797-.24 1.036l-2.32 1.436c-.161.08-.241.16-.401.16zm4.162 3.43s-2.241-.08-3.922 0a.8.8 0 0 1-.8-.797.8.8 0 0 1 .8-.798h3.922c.4 0 .801.319.72.798.081.478-.24.797-.72.797zm-1.92 4.388c-.08 0-.24 0-.321-.08-1.2-.558-2.401-1.276-2.482-1.356-.32-.24-.48-.718-.24-1.037.24-.319.72-.479 1.041-.24 0 0 1.12.719 2.241 1.197.4.16.56.639.4 1.038-.08.319-.32.478-.64.478zm-7.845.638c-2.962 0-4.483-2.632-4.643-5.185-.08-1.596.72-4.308 2.642-5.265.96-.48 2.401-.718 4.403.877.32.24.4.718.08 1.037a.685.685 0 0 1-1.041.08c-1.04-.878-2.001-1.117-2.722-.718-1.2.638-1.841 2.712-1.761 3.83.16 1.754 1.04 3.749 3.122 3.749 1.2 0 1.601-1.516 1.681-2.393-.56-.16-1.36-.32-1.841-.32a.8.8 0 0 1-.8-.797c0-.479.32-.798.8-.798 1.04 0 2.722.479 2.882.479.32.08.56.398.56.718-.08 1.755-.72 4.706-3.362 4.706z" fill="#FFF"/><path fill="#4A836B" d="M60.919 183.888l-49.392-7.58c-2.881-.478-5.603 1.517-6.003 4.389L.72 211.969c-.48 2.872 1.521 5.585 4.403 5.984l49.392 7.579c2.882.478 5.603-1.516 6.004-4.388l4.803-31.273c.48-2.872-1.521-5.505-4.403-5.983zm-15.45 4.148l-.32 2.234c-.24 1.356-1.441 2.234-2.802 1.994l-15.61-2.393c-1.36-.24-2.241-1.436-2.001-2.792l.32-2.234c.24-1.356 1.44-2.234 2.802-1.994l15.61 2.393c1.28.16 2.161 1.436 2.001 2.792z"/><path fill="#E63840" d="M19.292 180.457l-4.723-.718c-.72-.08-1.2-.798-1.12-1.516l.24-1.515c.08-.718.8-1.197 1.52-1.117l4.724.718c.72.08 1.2.798 1.12 1.516l-.24 1.515c-.08.718-.72 1.277-1.52 1.117zm37.384 5.744l-4.723-.718c-.72-.08-1.2-.798-1.12-1.516l.24-1.515c.08-.718.8-1.197 1.52-1.117l4.724.718c.72.08 1.2.798 1.12 1.516l-.24 1.515c-.16.718-.8 1.197-1.52 1.117z"/><path fill="#F0B79B" d="M38.104 181.973H27.938v-58.397l10.166-.16z"/><ellipse cx="34.822" cy="181.255" fill="#F0B79B" rx="6.884" ry="6.941"/></g><g transform="translate(95.271 10.371)"><ellipse cx="62.688" cy="335.967" fill="#F8F7F7" rx="61.96" ry="22.338"/><ellipse cx="60.028" cy="64.381" fill="#D3945C" rx="35.943" ry="35.82"/><ellipse cx="43.137" cy="66.535" fill="#1E1E1C" rx="3.122" ry="3.111"/><ellipse cx="77.479" cy="66.535" fill="#1E1E1C" rx="3.122" ry="3.111"/><path fill="#CD8F5A" d="M67.153 29.278c10.486 6.303 17.45 17.631 17.45 30.715 0 19.785-16.09 35.82-35.942 35.82-2.402 0-4.803-.24-7.125-.718 5.364 3.271 11.688 5.106 18.492 5.106 19.853 0 35.943-16.035 35.943-35.82 0-17.392-12.408-31.832-28.818-35.103z"/><ellipse cx="25.926" cy="71.8" fill="#D3945C" rx="9.606" ry="9.573"/><path fill="#A97144" d="M60.989 85.84c-8.085 0-10.887-4.068-11.047-4.227-.32-.4-.16-1.037.24-1.277.4-.319 1.04-.16 1.28.24.08.16 2.482 3.43 9.447 3.43 7.044 0 9.366-3.191 9.526-3.35.32-.4.88-.56 1.28-.24.4.32.561.878.24 1.276-.08.16-2.881 4.149-10.966 4.149z"/><path fill="#442A19" d="M37.694 93.58s-12.488-1.197-16.09-18.43c-1.201-5.743-.961-11.727.24-17.47 2.721-12.606 11.127-37.656 35.943-39.012 0 0-5.844-10.77 4.082-16.514C63.871 1.037 66.032.399 68.353.16c3.283-.24 8.486.08 13.369 3.27 4.083 2.713 6.884 6.861 7.685 11.648.56 3.59.08 7.898-4.323 10.69 0 0 6.164 4.388 14.65 2.314 0 0-3.843 4.388-12.088 2.792 0 0 15.21 9.733 13.608 33.108 0 0-.24 23.375-20.893 31.831 0 0 15.45-10.77 13.929-29.278 0 0-1.12-8.935-6.964-14.36 0 0-14.17-14.6-14.41-18.509 0 0-2.401.878-4.162 3.59-1.761 2.713-4.243 6.223-21.534 12.366-6.484 2.313-12.248 6.222-16.41 11.647-6.325 8.377-10.407 20.743 6.884 32.31z"/><ellipse cx="94.93" cy="71.8" fill="#CD8F5A" rx="9.606" ry="9.573"/><path fill="#2C2D2D" d="M99.173 143.44c0-19.864-17.13-35.98-38.104-35.98-21.054 0-37.784 16.674-37.784 36.619 0 10.85 4.963 44.436 12.888 52.972V143.68l3.682 28.082-1.12 6.142c6.244 5.744 13.928 9.494 22.334 9.494 8.725 0 16.81-4.148 23.295-10.45l-.96-5.186 3.681-28.082v30.315c7.365-8.616 12.088-20.183 12.088-30.555z"/><path fill="#D3945C" d="M55.065 325.812h-14.89l-.08-129.399h14.97z"/><path fill="#CD8F5A" d="M81.322 325.812h-14.89V196.413h14.89z"/><path fill="#030304" d="M52.583 213.246c-3.042 0-6.004-.479-8.806-1.436 4.803 4.068 11.127 6.621 18.092 6.542 14.97-.08 23.455-13.483 24.576-27.125.08-1.037-1.361.957-1.361-.08l.24-1.835-.32.08-2.722 1.037-2.882-4.308c-2.481 12.206-13.448 27.125-26.817 27.125z"/><path fill="#CD8F5A" d="M70.115 98.047v10.93c0 4.786-4.083 8.695-9.126 8.695-5.043 0-9.126-3.909-9.126-8.696V98.765l18.252-.718z"/><path fill="#2C2D2D" d="M91.168 142.403h8.005s.64-12.445-9.286-22.497c0 0-4.643-5.824-14.89-10.132v6.063l9.046 16.754.72 9.733 6.405.08z"/><path fill="#E9E8E8" d="M36.973 117.034l8.086 71.401h31.22l7.845-71.8s-4.243-5.824-14.65-8.616c0 0 .32 5.106-8.645 5.425 0 0-7.925 2.393-8.486-5.026.08-.08-8.165 1.915-15.37 8.616z"/><path fill="#E9E8E8" d="M67.553 113.125s11.367 4.787 11.367 12.924v62.386l7.765-50.18-.08-21.62s-7.204-6.302-17.05-8.855c0 .16.16 3.111-2.002 5.345z"/><path fill="#FFF" d="M45.219 110.971l12.087 7.738 3.763-5.345-9.686-6.143z"/><path fill="#FFF" d="M76.919 110.253l-12.248 8.456-3.842-5.345 9.686-6.143z"/><path fill="#727272" d="M87.326 246.114H35.452v-47.388l3.603-10.45h44.668l3.603 9.573z"/><path fill="#2C2D2D" d="M46.98 109.375c-4.723 2.473-9.366 5.824-11.608 7.898v25.848l.72.639 3.683 28.081-3.682 20.264-.72 3.031-.641 21.062 4.243.24c2.801.159 13.768-1.596 14.409-4.15l8.005-45.393-14.41-57.52z"/><path fill="#2C2D2D" d="M87.005 192.025l-3.682-20.263 3.682-28.082v-26.646c-2.161-2.074-6.804-5.345-11.607-7.898l-14.49 57.76 8.006 45.313c.64 2.553 11.607 4.308 14.409 4.148l4.243-.239-.56-24.093z"/><path fill="#CD8F5A" d="M87.165 143.121h11.367v73.236H87.165z"/><path fill="#2C2D2D" d="M86.845 141.845h12.248v64.221H86.845z"/><ellipse cx="91.248" cy="215.799" fill="#CD8F5A" rx="7.285" ry="6.941"/><ellipse cx="30.97" cy="215.799" fill="#D3945C" rx="7.285" ry="6.941"/><path fill="#D3945C" d="M23.685 145.435h11.367v70.524H23.685z"/><path fill="#2C2D2D" d="M23.285 144.717h12.248v61.03H23.285z"/><path fill="#EA4D51" d="M41.376 325.812h13.689v8.855H41.376z"/><path fill="#EA4D51" d="M28.328 336.582c0-6.462 5.043-10.77 11.287-10.77 20.813 0 11.367 4.308 11.367 10.77H28.328z"/><path fill="#803126" d="M28.568 336.582s0-1.834.4-3.11h26.177v3.11H28.568z"/><path fill="#EA4D51" d="M66.432 325.812h13.689v8.855H66.432z"/><path fill="#EA4D51" d="M93.17 336.582c0-6.462-5.044-10.77-11.288-10.77-20.813 0-11.367 4.308-11.367 10.77h22.654z"/><path fill="#803126" d="M93.01 336.582s0-1.834-.401-3.11H66.432v3.11H93.01z"/></g></g></svg>