<svg xmlns="http://www.w3.org/2000/svg" width="18" height="34" viewBox="0 0 18 34"><g fill="none"><path fill="#ADACB2" d="M6.794 22.364c-2.936 2.132-3.536 6.064-1.318 8.796 2.217 2.732 6.382 3.242 9.289 1.11 2.937-2.13 3.536-6.063 1.319-8.795-2.188-2.732-6.353-3.212-9.29-1.11z" opacity=".3"/><path fill="#434142" d="M10.84 22.905l.569 4.352c-.6.78-1.289.27-1.289.27l-2.067-4.773 2.787.15z"/><path fill="#F2B200" d="M12.909 10.67c-3.617-2.917-8.543-2.526-11.003.873C-.554 14.942.383 20.062 4 22.978c3.617 2.916 8.543 2.525 11.003-.873 2.46-3.4 1.523-8.519-2.093-11.435z"/><path fill="#FFBC00" d="M2.959 7.835S4.547 18.01 5.266 18.972c1.408 1.831 4.075 2.101 6.023.63 1.289-.99 1.918-2.521 1.768-3.962v-.06l-.09-.51-1.288-7.355-8.72.12z"/><path fill="#FFCC3C" d="M3.678 1.44C.86 3.603.202 7.536 2.24 10.177c2.037 2.672 5.963 3.092 8.81.93 2.816-2.16 3.475-6.093 1.438-8.735C10.45-.33 6.495-.72 3.678 1.441z"/></g></svg>