<svg xmlns="http://www.w3.org/2000/svg" xmlns:xlink="http://www.w3.org/1999/xlink" width="344" height="503" viewBox="0 0 344 503"><defs><path id="a" d="M0 277.298h178.832V0H0z"/><path id="c" d="M0 277.298h178.832V0H0z"/><path id="e" d="M0 277.298h178.832V0H0z"/><path id="g" d="M0 277.298h178.832V0H0z"/><path id="i" d="M0 277.298h178.832V0H0z"/><path id="k" d="M0 277.298h178.832V0H0z"/><path id="m" d="M0 277.298h178.832V0H0z"/><path id="o" d="M0 277.298h178.832V0H0z"/><path id="q" d="M0 277.298h178.832V0H0z"/><path id="s" d="M0 277.298h178.832V0H0z"/><path id="u" d="M0 277.298h178.832V0H0z"/><path id="w" d="M0 277.298h178.832V0H0z"/><path id="y" d="M0 277.298h178.832V0H0z"/><path id="A" d="M0 277.298h178.832V0H0z"/><path id="C" d="M0 277.298h178.832V0H0z"/><path id="E" d="M0 277.298h178.832V0H0z"/><path id="G" d="M0 277.298h178.832V0H0z"/><path id="I" d="M0 277.298h178.832V0H0z"/><path id="K" d="M0 277.298h178.832V0H0z"/><path id="M" d="M0 277.298h178.832V0H0z"/><path id="O" d="M0 277.298h178.832V0H0z"/><path id="Q" d="M0 277.298h178.832V0H0z"/><path id="S" d="M0 277.298h178.832V0H0z"/></defs><g fill="none" fill-rule="evenodd"><g fill="#FFF" fill-rule="nonzero"><path d="M343.668 440.561s-1.177-24.323-26.674-29.625c0 0-19.614-4.054-33.343 3.12 0 0-5.417-17.411-26.102-23.512-14.864-4.384-31.715-1.52-42.777 7.508-6.27 5.118-11.613 12.928-11.929 24.735 0 0-18.437-13.41-43.934-4.054 0 0-18.437 7.172-20.398 23.388 0 0-24.32-18.71-55.31-2.495 0 0-20.398 11.227-17.652 30.872 0 0-1.084-.703-3.09-1.696-15.837-7.836-36.492-6.308-50.016 3.906-.216.163-.428.326-.634.49v29.732h331.859v-62.37z"/><path d="M69.508 503c.633-2.274.969-4.648.969-7.09 0-16.742-15.777-30.314-35.24-30.314C15.778 465.596 0 479.168 0 495.91c0 2.44.336 4.815.97 7.089h68.538z"/></g><g transform="translate(77 102)"><path fill="#F45827" fill-rule="nonzero" d="M25.927 198.546c4.299 13.054.107 32.26.107 32.26l-1.827-4.823s-1.827 9.312-4.191 13.47c-1.075-4.823-2.257-7.234-2.257-7.234s-.86 6.236-.752 7.15c-4.837-7.15-4.73-13.386-4.73-13.386l-1.181 5.405s-8.384-18.042-1.935-32.343c6.449-14.3 16.766-.499 16.766-.499z"/><path fill="#F9931F" fill-rule="nonzero" d="M21.028 199.295c2.257 4.24 4.407 20.868-3.547 20.868-7.953 0-5.695-17.21-4.084-20.952 1.612-3.741 7.63.084 7.63.084"/><mask id="b" fill="#fff"><use xlink:href="#a"/></mask><path fill="#5FB6CD" fill-rule="nonzero" mask="url(#b)" d="M19.217 182.252h35.286v-16.656H19.217z"/><mask id="d" fill="#fff"><use xlink:href="#c"/></mask><path fill="#5FC1CA" fill-rule="nonzero" d="M28.685 134.834c-3.24 2.557-7.182 4.07-11.446 4.07-4.132 0-7.97-1.41-11.153-3.825C2.436 143.04 0 154.618 0 167.514c0 12.554 1.836 24.532 4.982 32.466.057.028.12.038.174.076.07.049 4.331 2.504 11.991 2.504 7.816 0 12.394-2.44 12.438-2.465.117-.063.242-.088.365-.112 3.335-7.96 4.937-19.55 4.937-32.469 0-13.031-2.487-24.715-6.202-32.68" mask="url(#d)"/><mask id="f" fill="#fff"><use xlink:href="#e"/></mask><path fill="#107A89" fill-rule="nonzero" d="M28.743 134.834c-3.126-6.705-7.12-10.779-11.242-10.779-4.17 0-8.213 4.171-11.357 11.024 3.184 2.415 7.021 3.825 11.153 3.825 4.264 0 8.205-1.513 11.446-4.07" mask="url(#f)"/><mask id="h" fill="#fff"><use xlink:href="#g"/></mask><path fill="#F45827" fill-rule="nonzero" d="M170.17 198.546c4.298 13.054.107 32.26.107 32.26l-1.828-4.823s-1.826 9.312-4.19 13.47c-1.076-4.823-2.258-7.234-2.258-7.234s-.86 6.236-.752 7.15c-4.836-7.15-4.729-13.386-4.729-13.386l-1.182 5.405s-8.383-18.042-1.934-32.343c6.448-14.3 16.765-.499 16.765-.499" mask="url(#h)"/><mask id="j" fill="#fff"><use xlink:href="#i"/></mask><path fill="#F9931F" fill-rule="nonzero" d="M165.27 199.295c2.257 4.24 4.407 20.868-3.547 20.868-7.953 0-5.695-17.21-4.084-20.952 1.613-3.741 7.632.084 7.632.084" mask="url(#j)"/><mask id="l" fill="#fff"><use xlink:href="#k"/></mask><path fill="#5FB6CD" fill-rule="nonzero" mask="url(#l)" d="M124.329 182.252h35.286v-16.656h-35.286z"/><mask id="n" fill="#fff"><use xlink:href="#m"/></mask><path fill="#5FC1CA" fill-rule="nonzero" d="M150.146 134.834c3.241 2.557 7.183 4.07 11.446 4.07 4.132 0 7.97-1.41 11.153-3.825 3.651 7.96 6.087 19.539 6.087 32.435 0 12.554-1.83 24.543-4.975 32.476-.058.029.055-.037 0 0-.07.05-4.513 2.57-12.173 2.57-7.816 0-12.394-2.44-12.438-2.465a1.244 1.244 0 0 0-.365-.112c-3.334-7.96-4.937-19.55-4.937-32.469 0-13.031 2.488-24.715 6.202-32.68" mask="url(#n)"/><mask id="p" fill="#fff"><use xlink:href="#o"/></mask><path fill="#107A89" fill-rule="nonzero" d="M150.088 134.834c3.127-6.705 7.121-10.779 11.242-10.779 4.17 0 8.214 4.171 11.357 11.024-3.184 2.415-7.02 3.825-11.153 3.825-4.263 0-8.205-1.513-11.446-4.07" mask="url(#p)"/><mask id="r" fill="#fff"><use xlink:href="#q"/></mask><path fill="#EC5E21" fill-rule="nonzero" d="M66.158 210.332c-7.296 10.542-9.976 28.657 6.551 58.205 2.829-9.651 2.978-11.136 2.978-11.136s8.933 14.849 13.698 19.897c5.657-6.088 14.293-20.343 14.293-20.343l3.126 11.88s21.59-32.964 7.296-55.83c-23.524 2.97-47.942-2.673-47.942-2.673" mask="url(#r)"/><mask id="t" fill="#fff"><use xlink:href="#s"/></mask><path fill="#FE991D" fill-rule="nonzero" d="M68.242 211.817s-4.02 19.302 8.933 33.557c1.489-8.018 2.68-10.246 2.68-10.246s3.127 9.801 9.678 18.859c6.998-9.058 10.274-19.6 10.274-19.6s2.53 6.978 2.53 10.393c6.85-8.909 10.423-18.412 8.636-31.923-1.786-13.513-42.73-1.04-42.73-1.04" mask="url(#t)"/><mask id="v" fill="#fff"><use xlink:href="#u"/></mask><path fill="#5FC1CA" fill-rule="nonzero" d="M89.165 211.567c11.002 0 18.308.153 30.677 0 11.462-21.277 16.465-55.13 16.465-94.355C136.307 52.477 113.574 0 89.261 0S42.215 52.477 42.215 117.212c0 38.449 5.24 72.981 16.242 94.355h30.708z" mask="url(#v)"/><mask id="x" fill="#fff"><use xlink:href="#w"/></mask><path fill="#107A89" fill-rule="nonzero" d="M89.962 37.224c12.759 0 24.702 1.879 34.962 5.143C116.014 16.483 102.887 0 89.261 0 75.545 0 62.333 16.702 53.42 42.882c10.603-3.582 23.12-5.658 36.54-5.658" mask="url(#x)"/><mask id="z" fill="#fff"><use xlink:href="#y"/></mask><path fill="#062B3A" fill-rule="nonzero" d="M124.325 95.05c0 19.406-15.775 35.139-35.234 35.139-19.46 0-35.235-15.733-35.235-35.138 0-19.407 15.776-35.138 35.235-35.138 19.46 0 35.234 15.731 35.234 35.138" mask="url(#z)"/><mask id="B" fill="#fff"><use xlink:href="#A"/></mask><path fill="#FFF" fill-rule="nonzero" d="M108.372 109.067c6.313 3.874 8.861 7.99 8.861 7.99s-13.015 14.14-29.658 13.132c-13.787-.835-23.633-8.653-25.575-11.921-1.942-3.27-2.67-3.632-2.67-3.632s8.618-6.538 11.168-4.843c2.548 1.695 37.874-.726 37.874-.726" mask="url(#B)"/><mask id="D" fill="#fff"><use xlink:href="#C"/></mask><path fill="#999" fill-rule="nonzero" d="M115.981 94.423c0 14.935-12.064 27.041-26.945 27.041-14.882 0-26.946-12.106-26.946-27.04 0-14.935 12.064-27.041 26.946-27.041 14.88 0 26.945 12.106 26.945 27.04" mask="url(#D)"/><mask id="F" fill="#fff"><use xlink:href="#E"/></mask><path stroke="#107A89" stroke-width="2" d="M124.325 95.05c0 19.406-15.775 35.139-35.234 35.139-19.46 0-35.235-15.733-35.235-35.138 0-19.407 15.776-35.138 35.235-35.138 19.46 0 35.234 15.731 35.234 35.138z" mask="url(#F)"/><mask id="H" fill="#fff"><use xlink:href="#G"/></mask><path stroke="#FFF" stroke-width="1.527" d="M115.981 94.414c0 14.929-12.064 27.03-26.945 27.03-14.882 0-26.946-12.101-26.946-27.03s12.064-27.031 26.946-27.031c14.88 0 26.945 12.102 26.945 27.03z" mask="url(#H)"/><mask id="J" fill="#fff"><use xlink:href="#I"/></mask><path fill="#5FB6CD" fill-rule="nonzero" d="M160.474 146.065l-.055.07c-2.349 2.974-3.384 6.775-2.982 10.54l4.016 37.561 4.172-37.692c.25-2.26.02-4.56-.778-6.69-.488-1.302-1.22-2.677-2.32-3.872-.558-.608-1.538-.561-2.053.083m-144.243 0l-.054.07c-2.35 2.974-3.385 6.775-2.982 10.54l4.015 37.561 4.173-37.692c.25-2.26.02-4.56-.778-6.69-.489-1.302-1.22-2.677-2.32-3.872-.559-.608-1.539-.561-2.054.083" mask="url(#J)"/><mask id="L" fill="#fff"><use xlink:href="#K"/></mask><path fill="#FFF" fill-rule="nonzero" mask="url(#L)" d="M60.44 211.549l1.733 6.868h54.782l.888-6.837z"/><mask id="N" fill="#fff"><use xlink:href="#M"/></mask><path fill="#FFF" fill-rule="nonzero" mask="url(#N)" d="M148.9 199.98l.753 2.58h23.818l.386-2.569z"/><mask id="P" fill="#fff"><use xlink:href="#O"/></mask><path fill="#FFF" fill-rule="nonzero" mask="url(#P)" d="M4.982 199.98l.753 2.58h23.818l.385-2.569z"/><mask id="R" fill="#fff"><use xlink:href="#Q"/></mask><g fill-rule="nonzero" mask="url(#R)"><path fill="#CB7B3C" d="M104.763 99.44c0 9.341-7.594 16.914-16.961 16.914-9.367 0-16.96-7.573-16.96-16.914 0-9.342 7.593-16.915 16.96-16.915s16.96 7.573 16.96 16.915"/><path fill="#1D1D1B" d="M82.14 98.408c0 .969-.789 1.754-1.76 1.754s-1.759-.785-1.759-1.754c0-.97.788-1.755 1.76-1.755.97 0 1.759.786 1.759 1.755m15.218 0c0 .969-.788 1.754-1.76 1.754a1.757 1.757 0 0 1-1.759-1.754c0-.97.788-1.755 1.76-1.755.97 0 1.759.786 1.759 1.755"/><path fill="#B26A39" d="M91.159 82.86c4.934 2.957 8.246 8.331 8.246 14.49 0 9.342-7.593 16.915-16.96 16.915-1.15 0-2.271-.117-3.357-.334a16.891 16.891 0 0 0 8.714 2.423c9.367 0 16.96-7.572 16.96-16.915 0-8.195-5.845-15.026-13.603-16.58"/><path fill="#CB7B3C" d="M76.25 102.93a4.524 4.524 0 0 1-4.53 4.517 4.523 4.523 0 0 1-4.53-4.517 4.524 4.524 0 0 1 4.53-4.518 4.524 4.524 0 0 1 4.53 4.518"/><path fill="#2D2D2D" d="M77.262 113.212s-5.904-.551-7.58-8.698c-.561-2.724-.467-5.539.112-8.26 1.271-5.969 5.256-17.788 16.944-18.42 0 0-2.756-5.09 1.93-7.805a7.188 7.188 0 0 1 3.053-.927c1.545-.119 3.997.022 6.31 1.552 1.91 1.262 3.256 3.258 3.62 5.514.273 1.696.03 3.725-2.035 5.058 0 0 2.916 2.06 6.925 1.09 0 0-1.823 2.06-5.71 1.333 0 0 7.167 4.605 6.44 15.63 0 0-.123 11.025-9.842 15.024 0 0 7.29-5.089 6.56-13.812 0 0-.536-4.206-3.28-6.785 0 0-6.682-6.906-6.803-8.724 0 0-.607-.484-1.701 1.212 0 0-2.263 3.434-10.42 6.33-3.053 1.083-5.784 2.944-7.759 5.503-3.009 3.9-4.935 9.73 3.236 15.185"/><path fill="#B26A39" d="M108.786 102.93a4.524 4.524 0 0 1-4.53 4.517 4.523 4.523 0 0 1-4.53-4.517 4.524 4.524 0 0 1 4.53-4.518 4.524 4.524 0 0 1 4.53 4.518"/><path fill="#FFF" d="M93.08 104.654a4.76 4.76 0 0 1-4.765 4.752 4.76 4.76 0 0 1-4.766-4.752"/><path fill="#B26A39" d="M92.208 114.303v6.347c-1.346 2.172-3.893 4.753-3.893 4.753l-3.894-4.753v-5.995l7.787-.352z"/></g><mask id="T" fill="#fff"><use xlink:href="#S"/></mask><path fill="#FFF" fill-rule="nonzero" d="M82.094 119.983s7.13 2.154 14.382-.162 1.436 3.982 1.436 3.982l-4.904 2.56-6.513 1.137-5.582-5.038 1.181-2.479z" mask="url(#T)"/></g><path d="M9.204 1.062l2.552 3.479c.233.317.606.499 1 .487l4.312-.13c.989-.03 1.583 1.087 1.006 1.891l-2.52 3.503c-.23.318-.287.73-.155 1.1l1.457 4.061a1.194 1.194 0 0 1-1.488 1.54l-4.11-1.313a1.196 1.196 0 0 0-1.094.193l-3.413 2.64c-.782.605-1.92.05-1.925-.939l-.02-4.314a1.194 1.194 0 0 0-.522-.981L.72 9.849c-.819-.557-.642-1.811.298-2.12l4.097-1.353c.373-.124.662-.422.772-.8l1.208-4.141c.278-.95 1.525-1.17 2.11-.373m98.999 42l2.552 3.479c.233.317.606.499 1 .487l4.312-.13c.989-.03 1.583 1.087 1.006 1.891l-2.52 3.503c-.23.318-.287.73-.155 1.1l1.457 4.061a1.194 1.194 0 0 1-1.488 1.54l-4.11-1.313a1.196 1.196 0 0 0-1.094.193l-3.413 2.64c-.782.605-1.92.05-1.925-.939l-.02-4.314a1.194 1.194 0 0 0-.522-.981l-3.565-2.43c-.819-.557-.642-1.811.298-2.12l4.097-1.353c.373-.124.662-.422.772-.8l1.208-4.141c.278-.95 1.525-1.17 2.11-.373m143.341 32.686l-.28 4.305c-.027.393.142.772.451 1.015l3.387 2.673c.778.612.514 1.85-.445 2.095l-4.181 1.063c-.381.097-.69.375-.826.744l-1.495 4.047c-.342.929-1.601 1.06-2.13.224l-2.303-3.648c-.21-.333-.57-.54-.963-.556l-4.311-.17c-.989-.04-1.504-1.196-.872-1.957l2.758-3.319c.252-.302.338-.709.232-1.086l-1.17-4.153c-.269-.954.673-1.8 1.592-1.433l4.008 1.597c.364.145.778.102 1.105-.116l3.587-2.397c.824-.549 1.92.084 1.856 1.072M305.238 30.2l-.22 3.368a.933.933 0 0 0 .354.794l2.65 2.09a.934.934 0 0 1-.349 1.639l-3.27.832a.934.934 0 0 0-.647.58l-1.169 3.167a.934.934 0 0 1-1.666.175l-1.801-2.854a.936.936 0 0 0-.753-.434l-3.373-.134a.935.935 0 0 1-.682-1.53l2.158-2.596a.934.934 0 0 0 .18-.85l-.914-3.248a.934.934 0 0 1 1.245-1.121l3.135 1.25c.285.113.609.08.864-.092l2.806-1.874a.935.935 0 0 1 1.452.838M60.9 98.226l1.01 3.465a.998.998 0 0 0 .646.669l3.428 1.132a1 1 0 0 1 .25 1.774L63.25 107.3a1 1 0 0 0-.436.82l-.017 3.61a1 1 0 0 1-1.61.786l-2.856-2.209a1.001 1.001 0 0 0-.916-.162l-3.438 1.1a1 1 0 0 1-1.245-1.289l1.219-3.398a1 1 0 0 0-.13-.92l-2.108-2.931a1 1 0 0 1 .842-1.582l3.608.109a1 1 0 0 0 .836-.408l2.135-2.91a1 1 0 0 1 1.765.31M188.584 8.797l.369 3.355a.933.933 0 0 0 .486.72l2.972 1.599a.934.934 0 0 1-.058 1.674l-3.077 1.387a.934.934 0 0 0-.535.685l-.602 3.321a.934.934 0 0 1-1.61.462l-2.27-2.498a.936.936 0 0 0-.817-.297l-3.344.454a.935.935 0 0 1-.937-1.389l1.674-2.93a.934.934 0 0 0 .03-.869l-1.465-3.04a.934.934 0 0 1 1.032-1.32l3.304.686c.3.062.613-.027.835-.24l2.438-2.333a.935.935 0 0 1 1.575.573" fill="#FFBB41" fill-rule="nonzero"/></g></svg>