<svg xmlns="http://www.w3.org/2000/svg" width="18" height="16" viewBox="0 0 18 16"><path fill="#FBBA43" d="M16.149 5.146l-4.245-.617-1.897-3.85A1.117 1.117 0 0 0 8.01.678L6.115 4.53l-4.25.608a1.112 1.112 0 0 0-.9.754c-.129.402-.025.845.28 1.129l3.074 2.988-.724 4.24a1.07 1.07 0 0 0 .44 1.075c.336.253.79.283 1.172.09l3.8-1.99 3.795 1.993c.37.2.824.166 1.163-.089.053-.032.095-.074.138-.117.254-.254.361-.614.31-.962l-.734-4.234 3.075-2.99c.297-.298.415-.731.28-1.143a1.094 1.094 0 0 0-.885-.736"/></svg>