<svg xmlns="http://www.w3.org/2000/svg" xmlns:xlink="http://www.w3.org/1999/xlink" width="110" height="110" viewBox="0 0 110 110">
  <defs>
    <circle id="avatar-a" cx="33.084" cy="33.084" r="33.084"/>
    <polygon id="avatar-c" points="25.106 24.902 .376 24.902 .376 .173 25.106 .173 25.106 24.902"/>
    <polygon id="avatar-e" points=".316 .269 29.272 .269 29.272 29.225 .316 29.225 .316 .269"/>
  </defs>
  <g fill="none" fill-rule="evenodd">
    <path fill="#FFF" d="M55,110 C24.6243388,110 0,85.3756612 0,55 C0,24.6243388 24.6243388,0 55,0 C85.3756612,0 110,24.6243388 110,55 C110,85.3756612 85.3756612,110 55,110 Z"/>
    <path fill="#F3F3F4" fill-rule="nonzero" d="M55,107 C83.718807,107 107,83.718807 107,55 C107,26.281193 83.718807,3 55,3 C26.281193,3 3,26.281193 3,55 C3,83.718807 26.281193,107 55,107 Z M55,110 C24.6243388,110 0,85.3756612 0,55 C0,24.6243388 24.6243388,0 55,0 C85.3756612,0 110,24.6243388 110,55 C110,85.3756612 85.3756612,110 55,110 Z"/>
    <g transform="translate(22 22)">
      <mask id="avatar-b" fill="#fff">
        <use xlink:href="#avatar-a"/>
      </mask>
      <use fill="#D8D8D8" xlink:href="#avatar-a"/>
      <g mask="url(#avatar-b)">
        <g transform="translate(16.364 17.076)">
          <g transform="translate(4.269 32.46)">
            <mask id="avatar-d" fill="#fff">
              <use xlink:href="#avatar-c"/>
            </mask>
            <path fill="#FFF" d="M25.1062021,12.5372348 C25.1062021,19.3668265 19.5700991,24.9022179 12.741219,24.9022179 C5.91233884,24.9022179 0.376235864,19.3668265 0.376235864,12.5372348 C0.376235864,5.70835468 5.91233884,0.172963197 12.741219,0.172963197 C19.5700991,0.172963197 25.1062021,5.70835468 25.1062021,12.5372348" mask="url(#avatar-d)"/>
          </g>
          <path fill="#FFF" d="M17.4090197,36.0031681 L16.6114395,36.0031681 C15.1920171,35.7349364 14.1873934,34.9124541 14.1873934,33.579122 L14.1873934,31.2717602 C14.1873934,29.9384281 15.2781074,28.8470026 16.6114395,28.8470026 L17.4090197,28.8470026 C18.7423518,28.8470026 19.8330658,29.9384281 19.8330658,31.2717602 L19.8330658,33.579122 C19.8330658,34.9124541 18.7082003,35.835968 17.4090197,36.0031681"/>
          <g transform="translate(2.134 .443)">
            <mask id="avatar-f" fill="#fff">
              <use xlink:href="#avatar-e"/>
            </mask>
            <path fill="#FFF" d="M29.2716198,14.7467667 C29.2716198,22.7424903 22.7899467,29.2248749 14.7935116,29.2248749 C6.79778803,29.2248749 0.316114966,22.7424903 0.316114966,14.7467667 C0.316114966,6.75104315 6.79778803,0.268658589 14.7935116,0.268658589 C22.7899467,0.268658589 29.2716198,6.75104315 29.2716198,14.7467667" mask="url(#avatar-f)"/>
          </g>
          <path fill="#FFF" d="M30.5542226,18.7856815 C30.5542226,26.3111103 24.4539082,32.4114247 16.9284794,32.4114247 C9.40233914,32.4114247 3.30202467,26.3111103 3.30202467,18.7856815 C3.30202467,11.2602527 9.40233914,5.15922677 16.9284794,5.15922677 C24.4539082,5.15922677 30.5542226,11.2602527 30.5542226,18.7856815"/>
          <path fill="#FFF" d="M34.0901852 19.757719C34.0901852 21.3343807 32.8116378 22.612928 31.2342647 22.612928 29.657603 22.612928 28.3790557 21.3343807 28.3790557 19.757719 28.3790557 18.1803459 29.657603 16.9017985 31.2342647 16.9017985 32.8116378 16.9017985 34.0901852 18.1803459 34.0901852 19.757719M5.7111295 19.5040729C5.7111295 21.081446 4.43258213 22.3599934 2.855209 22.3599934 1.27854737 22.3599934 0 21.081446 0 19.5040729 0 17.9274112 1.27854737 16.6488639 2.855209 16.6488639 4.43258213 16.6488639 5.7111295 17.9274112 5.7111295 19.5040729"/>
          <path fill="#FFF" d="M4.62447096,17.9094817 C4.97736995,16.5903794 5.99551201,13.5921609 7.37295647,10.693551 C7.47327655,10.48295 7.76996784,10.4651628 7.89234411,10.6636685 C8.39963641,11.4875738 9.60063138,12.9447051 11.2185594,11.6967518 C11.2185594,11.6967518 23.8411019,4.34563806 25.9008652,9.10052512 C25.9008652,9.10052512 29.0776676,14.9276275 29.4668526,18.3634122 C29.4910433,18.5818396 29.7123166,18.7212917 29.9236291,18.6572576 L30.9332333,18.3498939 L30.5540092,13.1424993 L28.3555054,8.01834897 L24.4544062,5.15887103 L19.1516719,2.51639751 L15.5358802,2.94827188 L11.2185594,5.15887103 L7.10543627,6.49291461 L4.54264962,9.25420694 L3.10970894,13.5494715 L2.61380048,17.3687493 L3.03713697,18.0724129 C3.03713697,18.0724129 3.53517991,18.0695669 3.99907133,18.2403245 C4.26232259,18.3377986 4.5511875,18.1812708 4.62447096,17.9094817"/>
        </g>
      </g>
    </g>
  </g>
</svg>
