<svg xmlns="http://www.w3.org/2000/svg" width="84" height="84" viewBox="0 0 84 84">
  <g fill="none" fill-rule="evenodd">
    <path fill="#FFF" d="M42,84 C18.8040405,84 0,65.1959595 0,42 C0,18.8040405 18.8040405,0 42,0 C65.1959595,0 84,18.8040405 84,42 C84,65.1959595 65.1959595,84 42,84 Z"/>
    <path fill="#F3F3F4" fill-rule="nonzero" d="M42,81 C63.5391052,81 81,63.5391052 81,42 C81,20.4608948 63.5391052,3 42,3 C20.4608948,3 3,20.4608948 3,42 C3,63.5391052 20.4608948,81 42,81 Z M42,84 C18.8040405,84 0,65.1959595 0,42 C0,18.8040405 18.8040405,0 42,0 C65.1959595,0 84,18.8040405 84,42 C84,65.1959595 65.1959595,84 42,84 Z"/>
    <g fill-rule="nonzero" transform="translate(21 21)">
      <path fill="#AB704D" d="M41.5333333,12.1735632 L0,12.1735632 L0,5.23534828 C0,5.11218046 0.0995367816,5.01264368 0.222704598,5.01264368 L41.3106287,5.01264368 C41.4337966,5.01264368 41.5333333,5.11218046 41.5333333,5.23534828 L41.5333333,12.1735632 Z"/>
      <path fill="#85553B" d="M41.3743609,5.01264368 L0.158972414,5.01264368 C0.0966724138,5.01264368 0.063016092,4.9396023 0.103833333,4.89162414 L4.29655172,0 L37.2367816,0 L41.4295,4.89162414 C41.4703172,4.9396023 41.4366609,5.01264368 41.3743609,5.01264368 Z"/>
      <rect width="37.237" height="29.36" x="2.148" y="12.174" fill="#935F42"/>
      <rect width="15.754" height="5.729" x="12.89" y="16.47" fill="#85563B"/>
      <rect width="20.051" height="8.593" x="10.741" y="27.211" fill="#EDEADA"/>
      <g fill="#CEC9AE" transform="translate(14.322 29.36)">
        <path d="M4.29655172 2.86436782L.716091954 2.86436782C.320809195 2.86436782 0 3.18446092 0 3.58045977 0 3.97645862.320809195 4.29655172.716091954 4.29655172L4.29655172 4.29655172C4.69183448 4.29655172 5.01264368 3.97645862 5.01264368 3.58045977 5.01264368 3.18446092 4.69183448 2.86436782 4.29655172 2.86436782zM4.29655172 1.43218391L12.1735632 1.43218391C12.568846 1.43218391 12.8896552 1.1120908 12.8896552.716091954 12.8896552.320093103 12.568846 0 12.1735632 0L4.29655172 0C3.90126897 0 3.58045977.320093103 3.58045977.716091954 3.58045977 1.1120908 3.90126897 1.43218391 4.29655172 1.43218391zM.716091954 1.43218391C.902275862 1.43218391 1.08845977 1.35341379 1.22451724 1.22451724 1.35341379 1.08845977 1.43218391.902275862 1.43218391.716091954 1.43218391.529191954 1.35341379.343008046 1.22451724.207666667.952402299-.0572873563.479781609-.0572873563.207666667.207666667.0787701149.343008046 0 .529191954 0 .716091954 0 .909436782.0787701149 1.08845977.207666667 1.22451724.343724138 1.35341379.522747126 1.43218391.716091954 1.43218391zM7.36858621 3.07203448C7.23968966 3.20737586 7.16091954 3.39355977 7.16091954 3.58045977 7.16091954 3.76664368 7.23968966 3.95282759 7.36858621 4.08888506 7.50464368 4.21778161 7.69082759 4.29655172 7.87701149 4.29655172 8.0631954 4.29655172 8.24937931 4.21778161 8.38543678 4.08888506 8.51433333 3.95282759 8.59310345 3.76664368 8.59310345 3.58045977 8.59310345 3.39355977 8.51433333 3.20737586 8.38543678 3.07203448 8.12048276 2.80708046 7.63354023 2.80708046 7.36858621 3.07203448zM12.1735632 2.86436782L11.4574713 2.86436782C11.0621885 2.86436782 10.7413793 3.18446092 10.7413793 3.58045977 10.7413793 3.97645862 11.0621885 4.29655172 11.4574713 4.29655172L12.1735632 4.29655172C12.568846 4.29655172 12.8896552 3.97645862 12.8896552 3.58045977 12.8896552 3.18446092 12.568846 2.86436782 12.1735632 2.86436782z"/>
      </g>
    </g>
  </g>
</svg>
