<svg xmlns="http://www.w3.org/2000/svg" width="84" height="84" viewBox="0 0 84 84">
  <g fill="none" fill-rule="evenodd">
    <path fill="#FFF" d="M42,84 C18.8040405,84 0,65.1959595 0,42 C0,18.8040405 18.8040405,0 42,0 C65.1959595,0 84,18.8040405 84,42 C84,65.1959595 65.1959595,84 42,84 Z"/>
    <path fill="#F3F3F4" fill-rule="nonzero" d="M42,81 C63.5391052,81 81,63.5391052 81,42 C81,20.4608948 63.5391052,3 42,3 C20.4608948,3 3,20.4608948 3,42 C3,63.5391052 20.4608948,81 42,81 Z M42,84 C18.8040405,84 0,65.1959595 0,42 C0,18.8040405 18.8040405,0 42,0 C65.1959595,0 84,18.8040405 84,42 C84,65.1959595 65.1959595,84 42,84 Z"/>
    <g fill-rule="nonzero" transform="translate(18 18)">
      <path fill="#ECEBEB" d="M6.83693555,11.9115938 L6.83693555,39.3629824 C6.83693555,40.1092754 7.441875,40.7142148 8.18816797,40.7142148 L30.3191328,40.7142148 C31.0654258,40.7142148 31.6703652,40.1092754 31.6703652,39.3629824 L31.6703652,11.9115938 L6.83693555,11.9115938 Z"/>
      <path fill="#FC494A" d="M31.6704609,35.090125 L6.83693555,35.090125 L6.83693555,39.3629824 C6.83693555,40.1092754 7.441875,40.7142148 8.18816797,40.7142148 L30.3191328,40.7142148 C31.0654258,40.7142148 31.6703652,40.1092754 31.6703652,39.3629824 L31.6703652,35.090125 L31.6704609,35.090125 Z"/>
      <rect width="1.581" height="5.624" x="18.463" y="35.09" fill="#0B0202"/>
      <rect width="1.581" height="5.624" x="11.534" y="35.09" fill="#0B0202"/>
      <path fill="#000" d="M6.83693555,11.9115938 L6.83693555,20.2261855 C7.43756836,20.3582559 8.06097852,20.4299375 8.70132812,20.4299375 C10.6883164,20.4299375 12.5173945,19.7579102 13.9774414,18.6311016 C15.4374883,19.7579102 17.2665664,20.4299375 19.2535547,20.4299375 C21.240543,20.4299375 23.0696211,19.7579102 24.529668,18.6311016 C25.9897148,19.7579102 27.818793,20.4299375 29.805877,20.4299375 C30.4462266,20.4299375 31.069541,20.3582559 31.6702695,20.2261855 L31.6702695,11.9115938 L6.83693555,11.9115938 L6.83693555,11.9115938 Z" opacity=".1"/>
      <path fill="#ECEBEB" d="M29.8060684,0 C27.8190801,0 25.990002,0.672027344 24.5297637,1.79883594 C23.0698125,0.672027344 21.2406387,0 19.2536504,0 C17.2666621,0 15.437584,0.672027344 13.9775371,1.79883594 C12.5173945,0.672027344 10.6882207,0 8.70123242,0 C3.92641211,0 0.0557949219,3.87071289 0.0557949219,8.6455332 C0.0557949219,13.4203535 3.92650781,17.2910664 8.70132813,17.2910664 C10.6883164,17.2910664 12.5173945,16.6190391 13.9774414,15.4922305 C15.4374883,16.6190391 17.2665664,17.2910664 19.2535547,17.2910664 C21.240543,17.2910664 23.0696211,16.6190391 24.529668,15.4922305 C25.9897148,16.6190391 27.818793,17.2910664 29.8059727,17.2910664 C34.580793,17.2910664 38.4515059,13.4202578 38.4515059,8.6455332 C38.4516016,3.87071289 34.5808887,0 29.8060684,0 Z"/>
      <path fill="#ABB4BD" d="M46.1813516,17.822123 L38.3261348,25.6773398 C37.914707,26.0887676 37.247752,26.0887676 36.8363242,25.6773398 L36.8363242,25.6773398 C36.4249922,25.2659121 36.4249922,24.598957 36.8363242,24.1875293 L44.691541,16.3323125 C45.3235645,15.7002891 45.3235645,14.6755957 44.691541,14.0434766 L44.691541,14.0434766 C44.0595176,13.4114531 43.0348242,13.4114531 42.4027051,14.0434766 L34.5474883,21.8986934 C34.1360605,22.3101211 33.4691055,22.3101211 33.0576777,21.8986934 L33.0576777,21.8986934 C32.64625,21.4872656 32.64625,20.8203105 33.0576777,20.4088828 L40.9128945,12.553666 C41.544918,11.9216426 41.544918,10.8969492 40.9128945,10.2648301 L40.9128945,10.2648301 C40.2808711,9.63280664 39.2561777,9.63280664 38.6240586,10.2648301 L26.508043,22.3808457 C25.2350957,23.653793 25.2350957,25.7176309 26.508043,26.9905781 L26.508043,26.9905781 C26.9992871,27.4818223 26.9992871,28.2782637 26.508043,28.7695078 L10.4509727,44.8266738 C9.49623828,45.7814082 9.49623828,47.3292148 10.4509727,48.2839492 L10.4509727,48.2839492 C11.405707,49.2386836 12.9535137,49.2386836 13.908248,48.2839492 L29.9653184,32.2268789 C30.4565625,31.7356348 31.2530039,31.7356348 31.744248,32.2268789 L31.744248,32.2268789 C33.0171953,33.4998262 35.0810332,33.4998262 36.3539805,32.2268789 L48.4700918,20.1107676 C49.1021152,19.4787441 49.1021152,18.4540508 48.4700918,17.8219316 L48.4700918,17.8219316 C47.8382598,17.1900039 46.8134707,17.1900039 46.1813516,17.822123 Z"/>
      <path fill="#969FAB" d="M13.5312734,45.9944434 C13.328957,45.9944434 13.1266406,45.9172109 12.9722715,45.7629375 C12.6635332,45.4541035 12.6635332,44.9535762 12.9722715,44.6448379 L17.4768262,40.1402832 C17.7855645,39.8316406 18.2861875,39.8316406 18.5948301,40.1402832 C18.9035684,40.4491172 18.9035684,40.9496445 18.5948301,41.2583828 L14.0902754,45.7629375 C13.936002,45.9172109 13.7336855,45.9944434 13.5312734,45.9944434 Z"/>
    </g>
  </g>
</svg>
