<svg xmlns="http://www.w3.org/2000/svg" width="84" height="84" viewBox="0 0 84 84">
  <g fill="none" fill-rule="evenodd">
    <path fill="#FFF" d="M42,84 C18.8040405,84 0,65.1959595 0,42 C0,18.8040405 18.8040405,0 42,0 C65.1959595,0 84,18.8040405 84,42 C84,65.1959595 65.1959595,84 42,84 Z"/>
    <path fill="#F3F3F4" fill-rule="nonzero" d="M42,81 C63.5391052,81 81,63.5391052 81,42 C81,20.4608948 63.5391052,3 42,3 C20.4608948,3 3,20.4608948 3,42 C3,63.5391052 20.4608948,81 42,81 Z M42,84 C18.8040405,84 0,65.1959595 0,42 C0,18.8040405 18.8040405,0 42,0 C65.1959595,0 84,18.8040405 84,42 C84,65.1959595 65.1959595,84 42,84 Z"/>
    <g fill-rule="nonzero" transform="translate(18 19)">
      <g transform="translate(6 5)">
        <path fill="#FF974B" d="M38.1895673,40.4967903 L34.0596959,40.4967903 C33.6035556,40.4967903 33.2336842,40.1269935 33.2336842,39.6709452 L33.2336842,0.8580935 C33.2336842,0.4020452 33.6035556,0.0322484 34.0596959,0.0322484 L38.1895673,0.0322484 C38.6457076,0.0322484 39.0155789,0.4020452 39.0155789,0.8580935 L39.0155789,39.6710387 C39.0154854,40.1269935 38.6457076,40.4967903 38.1895673,40.4967903 Z"/>
        <path fill="#FC494A" d="M29.9298246,40.4967903 L25.7999532,40.4967903 C25.3438129,40.4967903 24.9739415,40.1269935 24.9739415,39.6709452 L24.9739415,5.8128839 C24.9739415,5.3568355 25.3438129,4.9870387 25.7999532,4.9870387 L29.9298246,4.9870387 C30.3859649,4.9870387 30.7558363,5.3568355 30.7558363,5.8128839 L30.7558363,39.6709452 C30.7558363,40.1269935 30.3859649,40.4967903 29.9298246,40.4967903 Z"/>
        <path fill="#5872C8" d="M21.6700819,40.4967903 L17.5402105,40.4967903 C17.0840702,40.4967903 16.7141988,40.1269935 16.7141988,39.6709452 L16.7141988,20.6774419 C16.7141988,20.2213935 17.0840702,19.8515968 17.5402105,19.8515968 L21.6700819,19.8515968 C22.1262222,19.8515968 22.4960936,20.2213935 22.4960936,20.6774419 L22.4960936,39.6709452 C22.4960936,40.1269935 22.1262222,40.4967903 21.6700819,40.4967903 Z"/>
        <path fill="#FFBB41" d="M13.4103392,40.4967903 L9.2804678,40.4967903 C8.8243275,40.4967903 8.4544561,40.1269935 8.4544561,39.6709452 L8.4544561,15.7225581 C8.4544561,15.2665097 8.8243275,14.8967129 9.2804678,14.8967129 L13.4103392,14.8967129 C13.8664795,14.8967129 14.2363509,15.2665097 14.2363509,15.7225581 L14.2363509,39.6709452 C14.2363509,40.1269935 13.8664795,40.4967903 13.4103392,40.4967903 Z"/>
        <path fill="#F3969B" d="M5.1505965,40.4967903 L1.0207251,40.4967903 C0.5645848,40.4967903 0.1947135,40.1269935 0.1947135,39.6709452 L0.1947135,25.6322323 C0.1947135,25.1761839 0.5645848,24.8063871 1.0207251,24.8063871 L5.1505965,24.8063871 C5.6067368,24.8063871 5.9766082,25.1761839 5.9766082,25.6322323 L5.9766082,39.6709452 C5.9766082,40.1269935 5.6067368,40.4967903 5.1505965,40.4967903 Z"/>
      </g>
      <path fill="#D7DEED" d="M2.4779415 41.3677516L.8260117 41.3677516C.3698713 41.3677516 0 40.9979548 0 40.5419065L0 40.5419065C0 40.0858581.3698713 39.7160613.8260117 39.7160613L2.4779415 39.7160613 2.4779415 41.3677516zM2.4779415 36.4128677L.8260117 36.4128677C.3698713 36.4128677 0 36.043071 0 35.5870226L0 35.5870226C0 35.1309742.3698713 34.7611774.8260117 34.7611774L2.4779415 34.7611774 2.4779415 36.4128677zM2.4779415 31.4580774L.8260117 31.4580774C.3698713 31.4580774 0 31.0882806 0 30.6322323L0 30.6322323C0 30.1761839.3698713 29.8063871.8260117 29.8063871L2.4779415 29.8063871 2.4779415 31.4580774zM2.4779415 26.5031935L.8260117 26.5031935C.3698713 26.5031935 0 26.1333968 0 25.6773484L0 25.6773484C0 25.2213.3698713 24.8515032.8260117 24.8515032L2.4779415 24.8515032 2.4779415 26.5031935zM2.4779415 21.5484032L.8260117 21.5484032C.3698713 21.5484032 0 21.1786065 0 20.7225581L0 20.7225581C0 20.2665097.3698713 19.8967129.8260117 19.8967129L2.4779415 19.8967129 2.4779415 21.5484032zM2.4779415 16.5935194L.8260117 16.5935194C.3698713 16.5935194 0 16.2237226 0 15.7676742L0 15.7676742C0 15.3116258.3698713 14.941829.8260117 14.941829L2.4779415 14.941829 2.4779415 16.5935194zM2.4779415 11.638729L.8260117 11.638729C.3698713 11.638729 0 11.2689323 0 10.8128839L0 10.8128839C0 10.3568355.3698713 9.9870387.8260117 9.9870387L2.4779415 9.9870387 2.4779415 11.638729zM2.4779415 6.6838452L.8260117 6.6838452C.3698713 6.6838452 0 6.3141419 0 5.8580935L0 5.8580935C0 5.4020452.3698713 5.0322484.8260117 5.0322484L2.4779415 5.0322484 2.4779415 6.6838452z"/>
      <path fill="#C7CFE2" d="M2.4779415,45.4967903 L2.4779415,45.4967903 C2.0218012,45.4967903 1.6519298,45.1269935 1.6519298,44.6709452 L1.6519298,0.9032097 C1.6519298,0.4471613 2.0218012,0.0773645 2.4779415,0.0773645 L2.4779415,0.0773645 C2.9340819,0.0773645 3.3039532,0.4471613 3.3039532,0.9032097 L3.3039532,44.6709452 C3.3038596,45.1269935 2.9340819,45.4967903 2.4779415,45.4967903 Z"/>
      <path fill="#AFB9D2" d="M0,45.4967903 L0,45.4967903 C0,45.0407419 0.3698713,44.6709452 0.8260117,44.6709452 L47.0805146,44.6709452 C47.536655,44.6709452 47.9065263,45.0407419 47.9065263,45.4967903 L47.9065263,45.4967903 C47.9065263,45.9528387 47.536655,46.3226355 47.0805146,46.3226355 L0.8260117,46.3226355 C0.3698713,46.3225419 0,45.9528387 0,45.4967903 Z"/>
    </g>
  </g>
</svg>
