<svg xmlns="http://www.w3.org/2000/svg" width="110" height="110" viewBox="0 0 110 110">
  <g fill="none" fill-rule="evenodd">
    <path fill="#FFF" d="M55,110 C24.6243388,110 0,85.3756612 0,55 C0,24.6243388 24.6243388,0 55,0 C85.3756612,0 110,24.6243388 110,55 C110,85.3756612 85.3756612,110 55,110 Z"/>
    <path fill="#F3F3F4" fill-rule="nonzero" d="M55,107 C83.718807,107 107,83.718807 107,55 C107,26.281193 83.718807,3 55,3 C26.281193,3 3,26.281193 3,55 C3,83.718807 26.281193,107 55,107 Z M55,110 C24.6243388,110 0,85.3756612 0,55 C0,24.6243388 24.6243388,0 55,0 C85.3756612,0 110,24.6243388 110,55 C110,85.3756612 85.3756612,110 55,110 Z"/>
    <g transform="translate(21 22)">
      <path fill="#000" d="M67.9583172,30.6276955 C68.0754394,32.0245518 68.1051211,33.422194 68.0413456,34.8233725 C67.9771691,36.2174784 67.829563,37.6025469 67.5897031,38.9766134 C67.2916833,40.6854539 66.8588926,42.3620744 66.2929357,44.0068678 C65.7013081,45.7243528 64.972102,47.3828986 64.1061196,48.9825054 C63.4198316,50.2512674 62.6465041,51.4701277 61.7957637,52.6414438 C60.9871391,53.7546066 60.1139369,54.8170819 59.1749537,55.8253332 C58.14492,56.9302445 57.0422866,57.9616785 55.8698612,58.9219927 C54.4254876,60.1054895 52.8920691,61.1660001 51.2692045,62.100774 C49.8368641,62.9255283 48.3511769,63.6434063 46.8105385,64.2540152 C45.1202885,64.9239562 43.3871205,65.4591231 41.6082266,65.8520503 C39.9247954,66.2237595 38.2249189,66.4736612 36.5025807,66.5911464 C35.007267,66.6933075 33.5123544,66.7035236 32.0174418,66.6221877 C30.5229303,66.5412447 29.040853,66.3569618 27.5692045,66.0791622 C26.039797,65.7899678 24.5380656,65.405685 23.0652137,64.9153118 C20.984289,64.2214023 18.9887993,63.3384948 17.0843601,62.2606954 C15.3840825,61.2984166 13.7788665,60.2037213 12.269113,58.9726803 C10.5211042,57.5471403 8.93554219,55.9671799 7.50881719,54.2335849 C6.33478736,52.8080449 5.28951175,51.2964539 4.37178704,49.6999905 C3.55955253,48.28781 2.85320934,46.8269066 2.26037843,45.3133509 C1.700438,43.8838816 1.24719109,42.423764 0.887000188,40.9337839 C0.49873204,39.3259257 0.247240172,37.6968494 0.106853961,36.0536277 C-0.0214991454,34.5526457 -0.02551018,33.0473414 0.0486939599,31.5420372 C0.132123479,29.8457703 0.367170106,28.168364 0.711316873,26.5070676 C0.953984466,25.3353586 1.27045509,24.1797596 1.65190448,23.0430211 C2.15007498,21.5597208 2.7437081,20.1149274 3.44363363,18.7106055 C4.09422344,17.4060871 4.82503394,16.1467553 5.64408721,14.938897 C6.75995703,13.2933177 8.01340534,11.7534359 9.40884427,10.3247525 C11.1849304,8.50667814 13.1399086,6.90117747 15.2822022,5.51296555 C17.1272781,4.31728798 19.0718277,3.30707206 21.1182575,2.48428243 C22.426657,1.95815287 23.7635348,1.51650266 25.128891,1.15304497 C27.6393976,0.484675743 30.1952288,0.122003906 32.7943792,0.0229862432 C34.6948074,-0.0493123678 36.5840047,0.0544204218 38.469592,0.282318217 C39.903938,0.455992054 41.3166244,0.730648191 42.7120633,1.09017661 C44.7264049,1.60923348 46.6753666,2.30510762 48.5605529,3.17897778 C50.1846208,3.93182636 51.7384956,4.80216018 53.221375,5.79312267 C54.6986391,6.7805488 56.0852537,7.87878042 57.3876367,9.08074483 C58.9001978,10.4772082 60.2703672,11.9970508 61.4997493,13.637522 C62.3440721,14.7644373 63.1105808,15.9408614 63.8048909,17.1628651 C64.5344981,18.448523 65.1742581,19.7746524 65.7237699,21.1424321 C66.1240711,22.1388956 66.4690201,23.1538266 66.7718532,24.1840818 C67.1067746,25.322785 67.3698984,26.4764193 67.5784722,27.6418415 C67.7084298,28.3691498 67.8223431,29.1007803 67.8817065,29.8386976 C67.9101848,30.101566 67.9282345,30.3652201 67.9583172,30.6276955"/>
      <path fill="#FEFEFE" d="M34.0186673,64.5391625 C16.5048859,64.5505574 2.07438676,50.5933892 2.18188248,33.1175575 C2.28737269,16.0374036 16.5642492,1.8759132 34.571789,2.14231786 C51.6936923,2.395363 65.8879415,16.0605863 65.8875404,33.3607795 C65.8867382,50.6248233 51.5713558,64.5619523 34.0186673,64.5391625"/>
      <path fill="#F2959A" d="M35.024354,25.0532369 C35.024354,26.8210165 35.0267606,28.5887961 35.0211452,30.3569687 C35.0207441,30.5164971 35.0636621,30.5931179 35.2253068,30.6552004 C36.3556164,31.0921355 37.1951259,32.2316245 37.1670487,33.4650231 C37.1570211,33.8893845 37.1080865,34.2988147 36.939623,34.6893843 C36.8946994,34.7935101 36.9424307,34.8445906 37.0070084,34.9086377 C37.486327,35.3801504 37.9644424,35.8528419 38.4421566,36.3263192 C39.4733936,37.3506805 40.5014217,38.3785781 41.5358675,39.399796 C43.0307801,40.8756307 44.5309071,42.3467503 46.0266219,43.8217991 C46.674404,44.4606988 47.3049386,45.1168873 47.9659571,45.7420345 C48.380297,46.1337829 48.407572,46.7428202 48.012084,47.1416413 C47.6462776,47.5113858 47.0125342,47.5106 46.6022053,47.121602 C46.1770357,46.7180657 45.7703168,46.295669 45.3531692,45.8834883 C44.5401325,45.0795592 43.7234858,44.2787735 42.9108502,43.4740585 C42.2446174,42.8151195 41.584,42.1502867 40.9165638,41.4917406 C39.8536396,40.4430178 38.7863033,39.3978314 37.7229781,38.3487157 C37.0370912,37.672095 36.3532098,36.9927238 35.6725372,36.310995 C35.5887066,36.2273015 35.5257333,36.2155137 35.415831,36.2673801 C33.5294414,37.153431 31.3013117,36.0709165 30.9326976,33.9939031 C30.6852168,32.5978327 31.5387649,31.1168899 32.9009123,30.6367329 C33.0521283,30.5832948 33.0645625,30.4999942 33.0645625,30.3730787 C33.062557,26.8178731 33.062557,23.2626675 33.0633592,19.7074619 C33.0633592,19.11257 33.4837156,18.7113913 34.0885796,18.7220004 C34.6084097,18.7310377 35.0235518,19.1746525 35.0239529,19.7302516 C35.0255573,21.5043181 35.024354,23.2787775 35.024354,25.0532369"/>
      <path fill="#0AAEC3" d="M60.4783795 33.024198C61.7679271 33.024198 63.0578758 33.0300919 64.3474234 33.018697 64.5600083 33.0167324 64.6141572 33.0796008 64.5949043 33.2713493 64.5788601 33.4336282 64.578459 33.5998364 64.5949043 33.7617224 64.6149595 33.958579 64.531931 33.9978717 64.3462201 33.9970859 62.5685296 33.990799 60.7908391 33.9931566 59.0131485 33.9931566 58.204524 33.9931566 57.3954983 33.9884415 56.5872748 33.9970859 56.4115915 33.9990505 56.3690746 33.9353963 56.3778988 33.78019 56.3887286 33.5974789 56.3911352 33.413196 56.3774977 33.2304848 56.3654646 33.0678129 56.4204158 33.0198758 56.5888792 33.0206617 57.8852456 33.0273414 59.1820131 33.024198 60.4783795 33.024198M7.58089548 33.0243945C8.87645965 33.0243945 10.1720238 33.0275379 11.4671869 33.0204652 11.6416669 33.0192864 11.7066457 33.0597579 11.692607 33.237361 11.6765629 33.4389327 11.6853872 33.642469 11.6897993 33.8456124 11.6922059 33.9548462 11.6472823 34.0008187 11.5353745 33.9945318 11.4491372 33.9890308 11.3616967 33.993353 11.2750583 33.993353 8.75733192 33.993353 6.24000662 33.9909955 3.72228021 33.9980682 3.5249373 33.9984611 3.46477179 33.9438442 3.48121703 33.756025 3.49726117 33.5740997 3.49445344 33.3894239 3.48161813 33.2071057 3.47118944 33.0570074 3.52654172 33.0196794 3.67454889 33.0212511 4.44226091 33.0279308 5.21037404 33.0243945 5.97808606 33.0243945L7.58089548 33.0243945zM53.6866551 22.9533159C53.6248851 22.9576381 53.6000167 22.9144161 53.577956 22.876695 53.453614 22.6680507 53.3324807 22.4574417 53.2089408 22.2484044 53.1636162 22.1725694 53.1704349 22.1281687 53.2578755 22.0790528 54.4900653 21.3875008 55.7198485 20.6920196 56.9504339 19.9965384 57.9608135 19.4248293 58.9711931 18.8527272 59.9807705 18.2802323 60.2623452 18.1207038 60.2623452 18.1187392 60.4300064 18.3937882 60.5190514 18.5395642 60.6020798 18.6888766 60.6931303 18.8338667 60.7520925 18.9277764 60.7288285 18.9831791 60.6329648 19.0370101 59.9266216 19.4315091 59.2210806 19.8287585 58.5163418 20.2271867 57.1770574 20.9831787 55.8385751 21.7399566 54.4996918 22.4971273 54.2630407 22.6311155 54.0271919 22.7666754 53.7905409 22.9010565 53.756046 22.9207029 53.7191444 22.9368129 53.6866551 22.9533159M23.2190369 14.3016476C23.2278612 14.375125 23.1596736 14.3833764 23.1195632 14.4069521 22.9374623 14.5150071 22.7441304 14.607345 22.5692493 14.7256161 22.4280609 14.8207044 22.3578678 14.7873056 22.2796526 14.6525316 21.9142473 14.0226692 21.5428255 13.3959503 21.1718048 12.7692314 20.3988785 11.4647129 19.6251499 10.1605875 18.8514213 8.85646196 18.68737 8.57984119 18.5265275 8.30125578 18.3540531 8.02974307 18.2722279 7.90007708 18.2874699 7.82659969 18.4306638 7.75744449 18.6035394 7.67414392 18.7740084 7.58102016 18.9308398 7.47139347 19.0832591 7.36491019 19.1490401 7.41481195 19.2308652 7.55626575 19.6456062 8.27178624 20.0691714 8.98180575 20.4907312 9.69339697 21.3843897 11.2010588 22.2788504 12.7079347 23.1725089 14.2155965 23.1893552 14.2438873 23.2033939 14.2729639 23.2190369 14.3016476M45.630091 52.2152749C45.7111139 52.2176325 45.7219437 52.2887523 45.7492187 52.3343319 46.0428265 52.8243121 46.3332254 53.3166499 46.6244265 53.807809 47.6468392 55.5296161 48.6676475 57.2518162 49.6948734 58.9704799 49.7883305 59.1272579 49.7690776 59.2030928 49.6010152 59.2793207 49.4145021 59.3634071 49.2376155 59.4718551 49.0627344 59.5791242 48.976096 59.6329552 48.9327769 59.6325623 48.8774246 59.5382598 48.1787024 58.3496549 47.4767713 57.1634076 46.773637 55.9775532 46.184416 54.9834473 45.5923873 53.991306 45.001963 52.997986 44.9782979 52.9586932 44.9606493 52.9146854 44.9317699 52.8793219 44.8078289 52.727652 44.8559613 52.6349212 45.0240237 52.5555499 45.2041191 52.4706776 45.3733848 52.3645873 45.5470626 52.2675342 45.575942 52.2514242 45.6032171 52.2325637 45.630091 52.2152749M19.115548 59.6183776C19.0401405 59.5751556 18.9599198 59.5283973 18.879298 59.4828177 18.7405162 59.4050181 18.6057455 59.3197529 18.4617493 59.2517765 18.3354017 59.1920516 18.3197587 59.135863 18.3935617 59.0124838 18.9430735 58.0942129 19.4837609 57.1708339 20.0280583 56.2498125 20.7989792 54.9441153 21.5731089 53.6399898 22.3380132 52.3307562 22.4118162 52.2046266 22.4603497 52.197161 22.5750653 52.2702454 22.7423254 52.3767287 22.9156021 52.4761393 23.0952965 52.5610116 23.26015 52.6384183 23.2569412 52.7232905 23.1715061 52.8647443 22.717457 53.6179858 22.2706278 54.3751566 21.8237985 55.1327203 20.9634316 56.5920521 20.1054713 58.0525626 19.2455055 59.5118943 19.2174282 59.5590456 19.2041918 59.6285937 19.115548 59.6183776M14.9137486 44.8241172C14.907732 44.8873785 14.8467643 44.8972017 14.8038462 44.9215631 14.0658159 45.3419953 13.3281866 45.7632133 12.5885518 46.180502 11.1670412 46.9836453 9.7443272 47.784431 8.32201434 48.5860025 8.21211199 48.6476921 8.09498978 48.6995585 7.99351061 48.7730359 7.86154757 48.8685172 7.7837335 48.8598728 7.70872715 48.7058453 7.61968218 48.5231342 7.51379087 48.3478886 7.4010808 48.1781441 7.32406893 48.0630164 7.36257486 48.0083995 7.46806507 47.9494604 8.05889047 47.6194015 8.64811145 47.2865922 9.23733243 46.9533899 10.7623278 46.0917004 12.2873231 45.2292252 13.8123185 44.3675357 13.9859963 44.2693039 14.1604763 44.1734297 14.3333519 44.074805 14.3895064 44.0429778 14.4388421 44.0162588 14.4833646 44.0917008 14.6193386 44.3243137 14.7577193 44.554962 14.8948967 44.7867891 14.9017155 44.798184 14.9065287 44.8103647 14.9137486 44.8241172M14.8961401 22.1724516C14.8752828 22.2121372 14.8532221 22.2596814 14.8267492 22.3044751 14.7224623 22.4793277 14.604939 22.6478935 14.515493 22.8294259 14.4493109 22.9630212 14.3875409 22.9559485 14.2728254 22.8903296 13.3001495 22.3339447 12.325067 21.7818819 11.3499845 21.2298191 10.0744755 20.5076189 8.80057087 19.7838469 7.52064974 19.0691123 7.3537907 18.9759885 7.32009801 18.8981889 7.43000036 18.741411 7.53468836 18.5909198 7.6209256 18.4274621 7.70716285 18.2651832 7.77374602 18.1398394 7.8415325 18.1260869 7.97028672 18.2003502 8.7809168 18.6667548 9.59636014 19.1249079 10.4106002 19.5850257 11.6808948 20.3021179 12.9511895 21.0188172 14.2214841 21.7359094 14.4236403 21.8502512 14.6245931 21.9661648 14.8251448 22.0824712 14.8576342 22.1013317 14.9029589 22.1127266 14.8961401 22.1724516M45.6073885 14.7528852C45.5700859 14.7344176 45.5335855 14.7183076 45.4990906 14.6982683 45.3093687 14.5898204 45.1236578 14.473121 44.9291226 14.3741033 44.8176158 14.3175218 44.810396 14.2746928 44.8737703 14.1686024 45.3149841 13.4302921 45.7469725 12.6868738 46.1837742 11.946206 46.830353 10.8491531 47.4785362 9.75327908 48.1259172 8.6570121 48.365777 8.2515112 48.6088457 7.84797493 48.8434912 7.4393306 48.8948325 7.3497432 48.9321351 7.33088269 49.0251911 7.38746421 49.2233362 7.50769994 49.4270968 7.61889835 49.6316595 7.72852505 49.7355453 7.78432072 49.7523917 7.84168809 49.6902206 7.94620674 48.4447944 10.0467957 47.2029781 12.1493494 45.9599585 14.2511171 45.876529 14.3925709 45.7939016 14.5340247 45.710071 14.6754785 45.686807 14.7143783 45.6647463 14.7568145 45.6073885 14.7528852M60.7051634 48.1068278C60.6835038 48.1472993 60.6634486 48.1885566 60.6401846 48.2278493 60.5326889 48.4085959 60.4187755 48.5854131 60.3180985 48.769696 60.2619441 48.8718571 60.2122072 48.8895388 60.1035082 48.8274563 58.6286508 47.986985 57.1509856 47.1512287 55.6733205 46.3150796 54.9060096 45.8805021 54.1370942 45.4478892 53.3689811 45.0148834 53.1263135 44.8777518 53.1255113 44.8777518 53.2602821 44.6439601 53.3553436 44.4789306 53.4580261 44.3178304 53.5470711 44.1504434 53.5980112 44.0553551 53.6489513 44.0522116 53.7371941 44.1025063 54.9180427 44.7748048 56.1004957 45.4455316 57.2829487 46.1150796 58.3679335 46.728832 59.4541217 47.3406197 60.5387054 47.954372 60.6040853 47.9913072 60.6935314 48.0074172 60.7051634 48.1068278M33.5441218 59.4115407C33.5441218 58.1353131 33.5465284 56.8594783 33.5413141 55.5836436 33.5405119 55.4374747 33.5669847 55.3714629 33.7346459 55.3844295 33.9339944 55.3997537 34.1357494 55.3973961 34.3354989 55.3848224 34.4903249 55.3753922 34.525622 55.4327596 34.5244187 55.5757851 34.5184021 56.3349205 34.522012 57.0940559 34.522012 57.8527984 34.522012 59.6390456 34.5196054 61.4256857 34.5252209 63.2119329 34.525622 63.3883573 34.4839072 63.4618347 34.2925809 63.4453317 34.10687 63.4292217 33.9179502 63.4319722 33.7318382 63.4445459 33.5818255 63.454369 33.5393086 63.4072178 33.540913 63.2590842 33.5485339 62.5262749 33.5441218 61.7934656 33.5441218 61.0602634L33.5441218 59.4115407zM33.5441218 7.60251328C33.5441218 6.31921294 33.5473306 5.0359126 33.5401108 3.75300518 33.5393086 3.59347672 33.5878421 3.55064765 33.742668 3.56007791 33.9488352 3.57225865 34.1566068 3.56832938 34.3635762 3.56125669 34.4879182 3.55693449 34.5364518 3.60408576 34.522012 3.72196393 34.5192043 3.74789712 34.522012 3.77422325 34.522012 3.80054937 34.522012 6.32117758 34.5196054 8.84141285 34.5260231 11.3620411 34.5264242 11.5549683 34.4879182 11.6390548 34.2745312 11.6135145 34.1164964 11.594654 33.9532473 11.5974045 33.7944104 11.6131216 33.6002763 11.6319821 33.5360997 11.5816874 33.5381052 11.3734359 33.5501384 10.1164617 33.5441218 8.8594875 33.5441218 7.60251328"/>
    </g>
  </g>
</svg>
