<svg xmlns="http://www.w3.org/2000/svg" width="84" height="84" viewBox="0 0 84 84">
  <g fill="none" fill-rule="evenodd">
    <path fill="#FFF" d="M42,84 C18.8040405,84 0,65.1959595 0,42 C0,18.8040405 18.8040405,0 42,0 C65.1959595,0 84,18.8040405 84,42 C84,65.1959595 65.1959595,84 42,84 Z"/>
    <path fill="#F3F3F4" fill-rule="nonzero" d="M42,81 C63.5391052,81 81,63.5391052 81,42 C81,20.4608948 63.5391052,3 42,3 C20.4608948,3 3,20.4608948 3,42 C3,63.5391052 20.4608948,81 42,81 Z M42,84 C18.8040405,84 0,65.1959595 0,42 C0,18.8040405 18.8040405,0 42,0 C65.1959595,0 84,18.8040405 84,42 C84,65.1959595 65.1959595,84 42,84 Z"/>
    <g fill-rule="nonzero" transform="translate(13 26)">
      <path fill="#C7CFE2" d="M27.9289414,4.34787313 L53.636046,4.34787313 C55.992569,4.34787313 57.920523,6.30447761 57.920523,8.69574627 L57.920523,23.9134254 C57.920523,26.3048172 55.9924477,28.2612985 53.636046,28.2612985 L39.7113138,28.2612985 L39.7113138,32.3840821 C39.7113138,32.8683694 39.1343473,33.1106978 38.7971464,32.7683843 L34.3556569,28.2614216 L27.9288201,28.2614216 C25.5722971,28.2614216 23.6443431,26.3048172 23.6443431,23.9135485 L23.6443431,8.6958694 C23.6444644,6.30447761 25.5724184,4.34787313 27.9289414,4.34787313 Z"/>
      <path fill="#AFB9D2" d="M52.5283431,13.0437425 L32.8578494,13.0437425 L32.8578494,10.869806 L45.0306904,10.869806 C45.6011046,10.869806 46.0989582,10.4329254 46.1359665,9.85542537 C46.1763724,9.22239179 45.682887,8.6958694 45.0670921,8.6958694 L34.0712385,8.6958694 L34.0712385,4.34787313 L31.929,4.34787313 C31.929,4.34787313 34.3557782,18.6548507 34.3557782,19.5655522 C34.3557782,21.956944 32.4277029,23.9134254 30.0713013,23.9134254 C30.0713013,23.9134254 34.0713598,23.1615672 34.0713598,19.5654291 L40.7494895,19.5654291 C41.2862929,19.5654291 41.7659456,19.1790336 41.8423891,18.6397052 C41.9373975,17.9677612 41.427046,17.3914925 40.7826151,17.3914925 L33.9500209,17.3914925 L33.9500209,15.217556 L52.5651088,15.217556 C53.1809038,15.217556 53.6743891,14.6911567 53.6339833,14.058 C53.5968536,13.4806231 53.0988787,13.0437425 52.5283431,13.0437425 Z"/>
      <path fill="#959CB3" d="M52.5648661 10.869806L49.3514477 10.869806C48.7594351 10.869806 48.2802678 10.383056 48.2802678 9.78277612 48.2802678 9.18249627 48.7593138 8.69574627 49.3514477 8.69574627L52.5648661 8.69574627C53.1568787 8.69574627 53.636046 9.18249627 53.636046 9.78277612 53.636046 10.383056 53.157 10.869806 52.5648661 10.869806zM52.5648661 19.5656754L45.0669707 19.5656754C44.4749582 19.5656754 43.9957908 19.0789254 43.9957908 18.4786455 43.9957908 17.8783657 44.4748368 17.3916157 45.0669707 17.3916157L52.5648661 17.3916157C53.1568787 17.3916157 53.636046 17.8783657 53.636046 18.4786455 53.636046 19.0789254 53.157 19.5656754 52.5648661 19.5656754z"/>
      <path fill="#AFB9D2" d="M52.5648661,23.9135485 L37.5690753,23.9135485 C36.9770628,23.9135485 36.4978954,23.4267985 36.4978954,22.8265187 C36.4978954,22.2262388 36.9769414,21.7394888 37.5690753,21.7394888 L52.5648661,21.7394888 C53.1568787,21.7394888 53.636046,22.2262388 53.636046,22.8265187 C53.636046,23.4267985 53.157,23.9135485 52.5648661,23.9135485 Z"/>
      <path fill="#E4EAF6" d="M30.0711799,0 L4.36407531,0 C2.0075523,0 0.0795983264,1.95660448 0.0795983264,4.34787313 L0.0795983264,19.5655522 C0.0795983264,21.956944 2.00767364,23.9134254 4.36407531,23.9134254 L18.2888075,23.9134254 L18.2888075,28.036209 C18.2888075,28.5204963 18.8657741,28.7628246 19.2029749,28.4205112 L23.6444644,23.9135485 L30.0713013,23.9135485 C32.4278243,23.9135485 34.3557782,21.956944 34.3557782,19.5656754 L34.3557782,4.34787313 C34.3556569,1.95660448 32.4277029,0 30.0711799,0 Z"/>
      <path fill="#AFB9D2" d="M8.6485523,6.52193284 L5.43525523,6.52193284 C4.84324268,6.52193284 4.36407531,6.03518284 4.36407531,5.43490299 C4.36407531,4.83462313 4.84312134,4.34787313 5.43525523,4.34787313 L8.64867364,4.34787313 C9.24068619,4.34787313 9.71985356,4.83462313 9.71985356,5.43490299 C9.71985356,6.03518284 9.24068619,6.52193284 8.6485523,6.52193284 Z"/>
      <path fill="#C7CFE2" d="M29.0001213 6.52193284L12.9331506 6.52193284C12.3411381 6.52193284 11.8619707 6.03518284 11.8619707 5.43490299 11.8619707 4.83462313 12.3410167 4.34787313 12.9331506 4.34787313L29.0001213 4.34787313C29.5921339 4.34787313 30.0713013 4.83462313 30.0713013 5.43490299 30.0713013 6.03518284 29.5921339 6.52193284 29.0001213 6.52193284zM29.0001213 10.869806L5.43525523 10.869806C4.84324268 10.869806 4.36407531 10.383056 4.36407531 9.78277612 4.36407531 9.18249627 4.84312134 8.69574627 5.43525523 8.69574627L29.0001213 8.69574627C29.5921339 8.69574627 30.0713013 9.18249627 30.0713013 9.78277612 30.0711799 10.383056 29.5921339 10.869806 29.0001213 10.869806z"/>
      <path fill="#AFB9D2" d="M29.0001213,15.2176791 L25.7867029,15.2176791 C25.1946904,15.2176791 24.715523,14.7309291 24.715523,14.1306493 C24.715523,13.5303694 25.194569,13.0436194 25.7867029,13.0436194 L29.0001213,13.0436194 C29.5921339,13.0436194 30.0713013,13.5303694 30.0713013,14.1306493 C30.0711799,14.7310522 29.5921339,15.2176791 29.0001213,15.2176791 Z"/>
      <path fill="#C7CFE2" d="M21.5021046 15.2176791L5.43525523 15.2176791C4.84324268 15.2176791 4.36407531 14.7309291 4.36407531 14.1306493 4.36407531 13.5303694 4.84312134 13.0436194 5.43525523 13.0436194L21.5022259 13.0436194C22.0942385 13.0436194 22.5734059 13.5303694 22.5734059 14.1306493 22.5732845 14.7310522 22.0942385 15.2176791 21.5021046 15.2176791zM29.0001213 19.5656754L5.43525523 19.5656754C4.84324268 19.5656754 4.36407531 19.0789254 4.36407531 18.4786455 4.36407531 17.8783657 4.84312134 17.3916157 5.43525523 17.3916157L29.0001213 17.3916157C29.5921339 17.3916157 30.0713013 17.8783657 30.0713013 18.4786455 30.0711799 19.0789254 29.5921339 19.5656754 29.0001213 19.5656754z"/>
    </g>
  </g>
</svg>
