<svg xmlns="http://www.w3.org/2000/svg" width="84" height="84" viewBox="0 0 84 84">
  <g fill="none" fill-rule="evenodd">
    <path fill="#FFF" d="M42,84 C18.8040405,84 0,65.1959595 0,42 C0,18.8040405 18.8040405,0 42,0 C65.1959595,0 84,18.8040405 84,42 C84,65.1959595 65.1959595,84 42,84 Z"/>
    <path fill="#F3F3F4" fill-rule="nonzero" d="M42,81 C63.5391052,81 81,63.5391052 81,42 C81,20.4608948 63.5391052,3 42,3 C20.4608948,3 3,20.4608948 3,42 C3,63.5391052 20.4608948,81 42,81 Z M42,84 C18.8040405,84 0,65.1959595 0,42 C0,18.8040405 18.8040405,0 42,0 C65.1959595,0 84,18.8040405 84,42 C84,65.1959595 65.1959595,84 42,84 Z"/>
    <g fill-rule="nonzero" transform="translate(19 19)">
      <path fill="#ECEBEB" d="M30.9264781,0 L5.36184064,0 C4.30860558,0 3.44688446,0.861721116 3.44688446,1.91495618 L3.44688446,44.0439004 C3.44688446,45.0971355 4.30860558,45.9588566 5.36184064,45.9588566 L40.5969243,45.9588566 C41.6501594,45.9588566 42.5118805,45.0971355 42.5118805,44.0439004 L42.5118805,11.585494 L30.9264781,0 Z"/>
      <path fill="#D3D3D3" d="M30.9264781,9.67053785 C30.9264781,10.7237729 31.7881992,11.585494 32.8414343,11.585494 L42.5119721,11.585494 L30.9264781,0 L30.9264781,9.67053785 Z"/>
      <path fill="#0AAFC4" d="M45.0013785,36.4798327 L0.957478088,36.4798327 C0.383027888,36.4798327 0,36.8628606 0,37.4373108 L0,42.9906653 C0,43.5651155 0.383027888,43.9481434 0.957478088,43.9481434 L45.0013785,43.9481434 C45.5758287,43.9481434 45.9588566,43.5651155 45.9588566,42.9906653 L45.9588566,37.4373108 C45.9588566,36.9586175 45.5758287,36.4798327 45.0013785,36.4798327 Z"/>
      <rect width="1" height="2.011" x="1.915" y="36.48" fill="#F2F2F2"/>
      <rect width="1" height="2.011" x="5.745" y="36.48" fill="#F2F2F2"/>
      <rect width="1" height="2.011" x="9.575" y="36.48" fill="#F2F2F2"/>
      <rect width="1" height="2.011" x="13.309" y="36.48" fill="#F2F2F2"/>
      <rect width="1" height="2.011" x="17.139" y="36.48" fill="#F2F2F2"/>
      <rect width="1" height="2.011" x="20.969" y="36.48" fill="#F2F2F2"/>
      <rect width="1" height="2.011" x="24.799" y="36.48" fill="#F2F2F2"/>
      <rect width="1" height="2.011" x="28.533" y="36.48" fill="#F2F2F2"/>
      <rect width="1" height="2.011" x="32.363" y="36.48" fill="#F2F2F2"/>
      <rect width="1" height="2.011" x="36.193" y="36.48" fill="#F2F2F2"/>
      <rect width="1" height="2.011" x="40.022" y="36.48" fill="#F2F2F2"/>
      <rect width="1" height="2.011" x="43.852" y="36.48" fill="#F2F2F2"/>
      <path fill="#F3969B" d="M45.9588566,31.6924422 C45.9588566,30.7349641 45.1928924,29.969 44.2354143,29.969 L40.7885299,29.969 L40.7885299,33.4158845 L44.2354143,33.4158845 C45.1928924,33.4158845 45.9588566,32.6499203 45.9588566,31.6924422 Z"/>
      <polygon fill="#FFBB41" points="5.266 29.969 5.266 33.416 2.011 32.363 0 31.692 2.011 31.022"/>
      <polygon fill="#666" points="2.011 31.022 2.011 32.363 0 31.692"/>
      <polygon fill="#5DBAA3" points="5.266 29.969 5.266 31.022 39.161 31.022 39.161 29.969"/>
      <rect width="33.895" height="1.341" x="5.266" y="31.022" fill="#458B7A"/>
      <rect width="33.895" height="1.053" x="5.266" y="32.363" fill="#5DBAA3"/>
      <rect width="1.628" height="3.447" x="39.161" y="29.969" fill="#FFBB41"/>
      <path fill="#55BFE9" d="M39.160753,29.969 L40.7884382,29.969 L39.160753,29.969 Z"/>
      <polygon fill="#FFD15C" points="40.788 31.022 40.788 31.022 40.788 29.969"/>
      <polygon fill="#55BFE9" points="40.788 32.363 40.788 32.363 40.788 31.022 40.788 31.022"/>
    </g>
  </g>
</svg>
