<svg xmlns="http://www.w3.org/2000/svg" width="84" height="84" viewBox="0 0 84 84">
  <g fill="none" fill-rule="evenodd">
    <path fill="#FFF" d="M42,84 C18.8040405,84 0,65.1959595 0,42 C0,18.8040405 18.8040405,0 42,0 C65.1959595,0 84,18.8040405 84,42 C84,65.1959595 65.1959595,84 42,84 Z"/>
    <path fill="#F3F3F4" fill-rule="nonzero" d="M42,81 C63.5391052,81 81,63.5391052 81,42 C81,20.4608948 63.5391052,3 42,3 C20.4608948,3 3,20.4608948 3,42 C3,63.5391052 20.4608948,81 42,81 Z M42,84 C18.8040405,84 0,65.1959595 0,42 C0,18.8040405 18.8040405,0 42,0 C65.1959595,0 84,18.8040405 84,42 C84,65.1959595 65.1959595,84 42,84 Z"/>
    <g fill-rule="nonzero" transform="translate(22 20)">
      <g transform="translate(0 8)">
        <path fill="#FFBB41" d="M34.9033931,35.6 L1.5656552,35.6 C0.7984828,35.6 0.2406069,34.8715586 0.4409655,34.1304552 L8.0128828,13.3713655 C8.149931,12.8633931 8.6109793,12.5103448 9.1375724,12.5103448 L42.4753103,12.5103448 C43.2424828,12.5103448 43.6,13.2432552 43.6,13.9798897 L36.0280828,34.7389793 C35.8910345,35.2469517 35.4299862,35.6 34.9033931,35.6 Z"/>
        <path fill="#F7B43A" d="M37.8409931 5.8068966L34.662069 5.8068966 34.662069 12.5103448 39.1310345 12.5103448 39.1310345 7.0969379C39.1310345 6.3841379 38.5530483 5.8068966 37.8409931 5.8068966zM6.3586207.5931034L1.6900414.5931034C.9779862.5931034.4 1.1703448.4 1.8831448L.4 33.7081379C.4513931 33.7096276.5027862 33.7126069.5526897 33.7155862L6.3586207 17.8820414 6.3586207.5931034z"/>
      </g>
      <g transform="translate(6)">
        <path fill="#F4EFDC" d="M2.0128828,21.3713655 C2.149931,20.8633931 2.6109793,20.5103448 3.1375724,20.5103448 L28.662069,20.5103448 L28.662069,11.5724138 L17.4896552,0.4 L0.3586207,0.4 L0.3586207,25.9066207 L2.0128828,21.3713655 Z"/>
        <path fill="#CEC9AE" d="M13.0206897 12.3172414L5.5724138 12.3172414C5.161269 12.3172414 4.8275862 11.9843034 4.8275862 11.5724138 4.8275862 11.1605241 5.161269 10.8275862 5.5724138 10.8275862L13.0206897 10.8275862C13.4318345 10.8275862 13.7655172 11.1605241 13.7655172 11.5724138 13.7655172 11.9843034 13.4318345 12.3172414 13.0206897 12.3172414zM13.0206897 7.1034483L5.5724138 7.1034483C5.161269 7.1034483 4.8275862 6.7705103 4.8275862 6.3586207 4.8275862 5.946731 5.161269 5.6137931 5.5724138 5.6137931L13.0206897 5.6137931C13.4318345 5.6137931 13.7655172 5.946731 13.7655172 6.3586207 13.7655172 6.7705103 13.4318345 7.1034483 13.0206897 7.1034483zM23.4482759 17.5310345L5.5724138 17.5310345C5.161269 17.5310345 4.8275862 17.1980966 4.8275862 16.7862069 4.8275862 16.3743172 5.161269 16.0413793 5.5724138 16.0413793L23.4482759 16.0413793C23.8594207 16.0413793 24.1931034 16.3743172 24.1931034 16.7862069 24.1931034 17.1980966 23.8594207 17.5310345 23.4482759 17.5310345z"/>
        <polygon fill="#D1BF86" points="17.49 11.572 28.662 11.572 17.49 .4"/>
      </g>
    </g>
  </g>
</svg>
