<svg xmlns="http://www.w3.org/2000/svg" width="84" height="84" viewBox="0 0 84 84">
  <g fill="none" fill-rule="evenodd">
    <path fill="#FFF" d="M42,84 C18.8040405,84 0,65.1959595 0,42 C0,18.8040405 18.8040405,0 42,0 C65.1959595,0 84,18.8040405 84,42 C84,65.1959595 65.1959595,84 42,84 Z"/>
    <path fill="#F3F3F4" fill-rule="nonzero" d="M42,81 C63.5391052,81 81,63.5391052 81,42 C81,20.4608948 63.5391052,3 42,3 C20.4608948,3 3,20.4608948 3,42 C3,63.5391052 20.4608948,81 42,81 Z M42,84 C18.8040405,84 0,65.1959595 0,42 C0,18.8040405 18.8040405,0 42,0 C65.1959595,0 84,18.8040405 84,42 C84,65.1959595 65.1959595,84 42,84 Z"/>
    <g fill-rule="nonzero" transform="translate(16 20)">
      <g transform="translate(0 26)">
        <polygon fill="#F1543F" points="26.413 11.209 23.362 11.209 23.362 18.8 26.413 16.249 29.465 18.8 29.465 11.209"/>
        <path fill="#E6E9EE" d="M52.257485,0.0711111 C35.194012,2.3111111 17.7568862,2.3111111 0.6311377,0.0711111 L0.6311377,0.0711111 L0.6311377,15.1288889 L0.6311377,15.1288889 C17.6946108,12.8888889 35.1317365,12.8888889 52.257485,15.1288889 L52.257485,15.1288889 L52.257485,0.0711111 L52.257485,0.0711111 Z"/>
        <path fill="#FF7058" d="M29.9628743,1.7511111 L29.9628743,13.5111111 L26.4754491,13.5111111 L22.988024,13.5111111 L22.988024,1.7511111 C25.2922156,1.8133333 27.5964072,1.8133333 29.9628743,1.7511111 Z"/>
      </g>
      <g transform="translate(1)">
        <path fill="#2B3B4E" d="M26.0359281,10.5155556 L10.4670659,10.5155556 L10.4670659,29.12 C20.4934132,26.4444444 26.0982036,32.8533333 26.0982036,32.8533333 C26.0982036,32.8533333 31.702994,26.4444444 41.7293413,29.12 L41.7293413,10.5155556 L26.0359281,10.5155556 Z"/>
        <polygon fill="#324A5E" points="26.036 0 .503 10.516 26.036 20.969 51.569 10.516"/>
      </g>
      <g transform="translate(44 10)">
        <polygon fill="#F7B33B" points="6.763 20.178 .349 20.178 1.719 14.764 5.393 14.764"/>
        <rect width="1.246" height="16.053" x="2.964" y=".516" fill="#FF7058"/>
        <ellipse cx="3.587" cy="14.764" fill="#FFBB41" rx="2.553" ry="2.551"/>
      </g>
    </g>
  </g>
</svg>
