<svg xmlns="http://www.w3.org/2000/svg" width="84" height="84" viewBox="0 0 84 84">
  <g fill="none" fill-rule="evenodd">
    <path fill="#FFF" d="M42,84 C18.8040405,84 0,65.1959595 0,42 C0,18.8040405 18.8040405,0 42,0 C65.1959595,0 84,18.8040405 84,42 C84,65.1959595 65.1959595,84 42,84 Z"/>
    <path fill="#F3F3F4" fill-rule="nonzero" d="M42,81 C63.5391052,81 81,63.5391052 81,42 C81,20.4608948 63.5391052,3 42,3 C20.4608948,3 3,20.4608948 3,42 C3,63.5391052 20.4608948,81 42,81 Z M42,84 C18.8040405,84 0,65.1959595 0,42 C0,18.8040405 18.8040405,0 42,0 C65.1959595,0 84,18.8040405 84,42 C84,65.1959595 65.1959595,84 42,84 Z"/>
    <g fill-rule="nonzero" transform="translate(16 17)">
      <path fill="#A35D17" d="M10.2604978,44.4078168 C9.09263626,45.5671817 7.25742527,45.5671817 6.17298241,44.4078168 L6.17298241,44.4078168 C5.00512087,43.2484518 5.00512087,41.4265927 6.17298241,40.3500396 L27.0276527,19.6470947 C28.1955143,18.4877298 30.0307252,18.4877298 31.1151681,19.6470947 L31.1151681,19.6470947 C32.2830296,20.8064596 32.2830296,22.6283188 31.1151681,23.7048719 L10.2604978,44.4078168 Z"/>
      <path fill="#6B400C" d="M31.1151681,19.6470947 L31.1151681,19.6470947 C32.2830296,20.8064596 32.2830296,22.6283188 31.1151681,23.7048719 L10.2604978,44.4078168 C9.09263626,45.5671817 7.25742527,45.5671817 6.17298241,44.4078168 L6.17298241,44.4078168"/>
      <path fill="#F4AD31" d="M9.67656702 49.5421471C8.34186812 50.8671356 6.25640109 50.8671356 4.92170219 49.5421471L1.00102417 45.6499935C-.333674725 44.325005-.333674725 42.2547105 1.00102417 40.929722L1.00102417 40.929722C2.33572307 39.6047336 4.42119011 39.6047336 5.75588901 40.929722L9.67656702 44.8218757C11.0112659 46.1468641 11.0112659 48.2171586 9.67656702 49.5421471L9.67656702 49.5421471zM44.5455758 27.3485902C41.0419912 30.8266849 37.2881505 28.922014 33.7845659 25.4439193L25.1924417 16.914306C21.6888571 13.4362112 19.8536461 9.70968115 23.2738121 6.23158641L24.7753483 4.74097438C28.2789329 1.26287964 32.0327736 3.16755057 35.5363582 6.64564531L44.1284824 15.1752586C47.632067 18.6533533 49.467278 22.3798834 46.047112 25.8579782L44.5455758 27.3485902z"/>
      <path fill="#F4AD31" d="M21.4386011,12.2768463 C20.7712516,12.9393405 19.6868088,12.9393405 19.0194593,12.2768463 L19.0194593,12.2768463 C18.3521099,11.6143521 18.3521099,10.5377989 19.0194593,9.87530471 L28.3623516,0.517573622 C29.0297011,-0.144920614 30.1141439,-0.144920614 30.7814934,0.517573622 L30.7814934,0.517573622 C31.4488428,1.18006786 31.4488428,2.25662099 30.7814934,2.91911523 L21.4386011,12.2768463 Z"/>
      <path fill="#DD820A" d="M30.7814934,0.517573622 L30.7814934,0.517573622 C31.4488428,1.18006786 31.4488428,2.25662099 30.7814934,2.91911523 L21.4386011,12.2768463 C20.7712516,12.9393405 19.6868088,12.9393405 19.0194593,12.2768463 L19.0194593,12.2768463"/>
      <path fill="#F4AD31" d="M40.9585725,31.6548027 C40.291223,32.317297 39.2067802,32.317297 38.5394307,31.6548027 L38.5394307,31.6548027 C37.8720813,30.9923085 37.8720813,29.9157553 38.5394307,29.2532611 L47.882323,19.9783418 C48.5496725,19.3158476 49.6341153,19.3158476 50.3014648,19.9783418 L50.3014648,19.9783418 C50.9688142,20.640836 50.9688142,21.7173892 50.3014648,22.3798834 L40.9585725,31.6548027 Z"/>
      <path fill="#DD820A" d="M50.3848835 19.9783418L50.3848835 19.9783418C51.0522329 20.640836 51.0522329 21.7173892 50.3848835 22.3798834L40.9585725 31.6548027C40.291223 32.317297 39.2067802 32.317297 38.5394307 31.6548027L38.5394307 31.6548027M32.2830296 25.9407899C31.6990989 26.5204724 30.6980747 26.5204724 30.1141439 25.9407899L24.858767 20.7236478C24.2748362 20.1439654 24.2748362 19.150224 24.858767 18.5705416L24.858767 18.5705416C25.4426978 17.9908591 26.443722 17.9908591 27.0276527 18.5705416L32.2830296 23.7876837C32.8669604 24.3673661 32.8669604 25.3611075 32.2830296 25.9407899L32.2830296 25.9407899z"/>
      <rect width="17.518" height="7.453" x="33.534" y="41.841" fill="#FC494A"/>
      <path fill="#F9696A" d="M51.8864197 50.2874531C51.8864197 50.6187002 51.6361637 50.9499473 51.2190703 50.9499473L33.3674725 50.9499473C33.0337978 50.9499473 32.700123 50.701512 32.700123 50.2874531L32.700123 49.8733942C32.700123 49.5421471 32.9503791 49.2109 33.3674725 49.2109L51.302489 49.2109C51.6361637 49.2109 51.9698384 49.4593353 51.9698384 49.8733942L51.9698384 50.2874531 51.8864197 50.2874531zM51.8864197 41.1781574C51.8864197 41.5094045 51.6361637 41.8406516 51.2190703 41.8406516L33.3674725 41.8406516C33.0337978 41.8406516 32.700123 41.5922163 32.700123 41.1781574L32.700123 40.7640985C32.700123 40.4328513 32.9503791 40.1016042 33.3674725 40.1016042L51.302489 40.1016042C51.6361637 40.1016042 51.9698384 40.3500396 51.9698384 40.7640985L51.9698384 41.1781574 51.8864197 41.1781574z"/>
    </g>
  </g>
</svg>
