<svg xmlns="http://www.w3.org/2000/svg" width="84" height="84" viewBox="0 0 84 84">
  <g fill="none" fill-rule="evenodd">
    <path fill="#FFF" d="M42,84 C18.8040405,84 0,65.1959595 0,42 C0,18.8040405 18.8040405,0 42,0 C65.1959595,0 84,18.8040405 84,42 C84,65.1959595 65.1959595,84 42,84 Z"/>
    <path fill="#F3F3F4" fill-rule="nonzero" d="M42,81 C63.5391052,81 81,63.5391052 81,42 C81,20.4608948 63.5391052,3 42,3 C20.4608948,3 3,20.4608948 3,42 C3,63.5391052 20.4608948,81 42,81 Z M42,84 C18.8040405,84 0,65.1959595 0,42 C0,18.8040405 18.8040405,0 42,0 C65.1959595,0 84,18.8040405 84,42 C84,65.1959595 65.1959595,84 42,84 Z"/>
    <g fill-rule="nonzero" transform="translate(12 18)">
      <path fill="#FFD3AE" d="M48.4559766,36.0078686 C48.4559766,36.7853136 48.1577344,37.5627586 47.56125,38.1558634 C47.3019141,38.41373 47.0090625,38.6154322 46.6960547,38.7609701 C45.5635547,39.2873069 44.1744141,39.0856047 43.2407812,38.1558634 L34.5098437,29.4757925 L35.2474219,30.2104734 L44.2094531,39.1203287 C44.2188281,39.1296506 44.2283203,39.1389724 44.2362891,39.1484109 C44.8153125,39.7375538 45.1041797,40.5028804 45.1041797,41.2683235 C45.1041797,42.0457685 44.8059375,42.8244952 44.2094531,43.4176 C43.9515234,43.6740683 43.6572656,43.8757705 43.3442578,44.0214249 C42.2117578,44.5477617 40.8226172,44.3473413 39.8875781,43.4176 L37.6105078,41.154713 C38.1828516,41.7424577 38.4676172,42.503939 38.4676172,43.2639055 C38.4676172,44.0413505 38.169375,44.8187955 37.5728906,45.4119002 C37.3149609,45.6683685 37.0207031,45.8700708 36.7091016,46.0157252 C35.5766016,46.542062 34.1874609,46.3416415 33.2524219,45.4119002 L30.3237891,42.4998607 C31.5005859,43.687352 31.4953125,45.5989205 30.3076172,46.77977 C30.2888672,46.7985303 30.2687109,46.8184558 30.2485547,46.8359343 C29.6601562,47.3929168 28.9024219,47.6708254 28.1460937,47.6708254 C27.3642187,47.6708254 26.5823437,47.374273 25.9858594,46.7798865 L13.633125,34.4971411 L12.5839453,33.4551876 L10.6816406,31.5636611 C7.58507812,28.4832451 5.64644531,24.439762 5.19246094,20.1090484 L0,14.9460073 L6.19054687,8.68776146 L14.6810156,0.103822467 L20.6124609,6.00166101 C21.6525,7.03580735 23.2405078,7.28458509 24.5558203,6.62972284 C25.5973828,6.11119313 26.7360937,5.85169523 27.8748047,5.85169523 C28.6378125,5.85169523 29.4009375,5.96786919 30.1358203,6.20173191 C29.4950391,6.59441621 28.8891797,7.06738523 28.3342969,7.61900763 L35.7795703,11.1695962 L36.6863672,17.0137173 C36.6863672,17.0137173 37.3694531,12.2602564 35.4067969,15.6077444 L39.77625,16.212152 C39.7870312,16.2228721 37.8161719,19.4074603 37.8282422,19.4180639 L47.1610547,33.4614799 L47.5613672,33.8595243 C48.1577344,34.4529786 48.4559766,35.2304236 48.4559766,36.0078686 Z"/>
      <path fill="#915046" d="M25.7360156 46.5313418L25.5452344 46.7210421C24.94875 47.3141469 24.166875 47.6106993 23.385 47.6106993 22.603125 47.6106993 21.82125 47.3141469 21.2247656 46.7210421 20.0317969 45.5335508 20.0317969 43.6099804 21.2247656 42.4237708L21.4155469 42.2354688 24.4176563 43.6634647 25.7360156 46.5313418zM16.9057031 37.7510607L16.9044141 37.7523424C16.84125 37.8151486 16.7767969 37.8738765 16.7109375 37.9273608 15.5112891 38.9358719 13.71375 38.8757458 12.5825391 37.7523424 11.9860547 37.1592377 11.6878125 36.3817926 11.6878125 35.6043476 11.6878125 34.8269026 11.9860547 34.0494576 12.5825391 33.4563529L12.5838281 33.4550711 14.475 33.9787279 16.1317969 35.2921811 16.9057031 37.7510607zM16.9057031 37.7510607L20.4084375 39.2440767 21.2830078 42.1036807 20.9628516 42.3864833C19.7644922 43.4631607 17.911875 43.4270384 16.7566406 42.2782329 16.1601563 41.6838464 15.8619141 40.9064014 15.8619141 40.1289564 15.8619141 39.612291 15.9935156 39.0956257 16.2570703 38.6331438 16.3900781 38.3996306 16.8413672 37.8153817 16.9044141 37.7525755L16.9057031 37.7510607z"/>
      <path fill="#AA6455" d="M60,14.7002592 L54.5605078,20.1089319 C54.4328906,21.3259037 54.1870312,22.5214351 53.8324219,23.6782807 L53.8324219,23.6795625 C52.9229297,26.6384445 51.2960156,29.3500636 49.0700391,31.5635446 L47.1610547,33.461713 L37.9223437,24.2753473 L32.3860547,18.7704261 C32.3739844,18.7597059 32.3646094,18.7503841 32.3538281,18.7396639 L32.308125,18.6942197 C32.3068359,18.692938 32.3054297,18.6915397 32.3054297,18.6915397 C32.2785937,18.6648558 32.2651172,18.6514556 32.2651172,18.6514556 L30.2607422,16.6570388 L28.7238281,18.1852449 C27.3857812,19.5157106 25.6326562,20.1809435 23.878125,20.1809435 C22.125,20.1809435 20.3717578,19.5157106 19.0337109,18.1852449 C18.6683203,17.8205263 18.6683203,17.2301015 19.0337109,16.8667812 L28.3341797,7.61900763 C28.8890625,7.0672687 29.4949219,6.59441621 30.1357031,6.20173191 C31.715625,5.2306248 33.5130469,4.74565386 35.3091797,4.74565386 C37.0219922,4.74565386 38.7362109,5.18646238 40.2623437,6.06807942 C41.6057812,6.84552442 43.3146094,6.59441621 44.4134766,5.50165854 L48.0662109,1.87090182 L60,14.7002592 Z"/>
      <path fill="#E5B48F" d="M30.2485547,46.8359343 C29.6601562,47.3929168 28.9024219,47.6708254 28.1460937,47.6708254 C27.3642187,47.6708254 26.5823437,47.374273 25.9858594,46.7798865 L13.633125,34.4971411 L12.5839453,33.4551876 L10.6816406,31.5636611 C7.58507812,28.4832451 5.64644531,24.439762 5.19246094,20.1090484 L0,14.9460073 L6.19054687,8.68776146 L7.87945312,14.2854354 C8.45648437,16.1978196 8.73222656,18.1840797 8.743125,20.1805939 C8.750625,21.5590673 8.97457031,23.3289432 9.84011719,24.8949029 C10.9585547,26.9186836 22.5588281,39.6452672 30.2485547,46.8359343 Z"/>
      <path fill="#E5B48F" d="M36.7091016 46.0157252C35.5766016 46.542062 34.1874609 46.3416415 33.2524219 45.4119002L30.3237891 42.4998607 22.5870703 34.8069771C22.1934375 34.4169729 22.1934375 33.7823857 22.5870703 33.3909832 22.9792969 32.9995806 23.6175 32.9995806 24.0111328 33.3909832L36.7091016 46.0157252zM44.2362891 39.1482943L35.2474219 30.2103569 44.2094531 39.1202122C44.2188281 39.1296506 44.2282031 39.1389724 44.2362891 39.1482943z"/>
      <path fill="#E5B48F" d="M43.2407812 38.1557469L34.5098437 29.475676 35.2474219 30.2103569 31.4294531 26.415302C31.0358203 26.0238994 31.0358203 25.3894288 31.4281641 24.9980262 31.8217969 24.6066237 32.4598828 24.6066237 32.8535156 24.9980262L36.6728906 28.7943629 46.6961719 38.7608536C45.5635547 39.2871904 44.1744141 39.0854881 43.2407812 38.1557469zM43.3442578 44.0213084C42.2117578 44.5476452 40.8226172 44.3472247 39.8875781 43.4174835L37.6105078 41.1545965 27.8115234 31.4098501C27.4178906 31.0198458 27.4178906 30.3852587 27.8115234 29.9938561 28.20375 29.6024536 28.8419531 29.6024536 29.2355859 29.9938561L43.3442578 44.0213084z"/>
      <polygon fill="#874E42" points="30.261 16.657 32.41 14.52 31.301 17.693"/>
    </g>
  </g>
</svg>
