<svg xmlns="http://www.w3.org/2000/svg" width="110" height="110" viewBox="0 0 110 110">
  <g fill="none" fill-rule="evenodd">
    <path fill="#FFF" d="M55,110 C24.6243388,110 0,85.3756612 0,55 C0,24.6243388 24.6243388,0 55,0 C85.3756612,0 110,24.6243388 110,55 C110,85.3756612 85.3756612,110 55,110 Z"/>
    <path fill="#F3F3F4" fill-rule="nonzero" d="M55,107 C83.718807,107 107,83.718807 107,55 C107,26.281193 83.718807,3 55,3 C26.281193,3 3,26.281193 3,55 C3,83.718807 26.281193,107 55,107 Z M55,110 C24.6243388,110 0,85.3756612 0,55 C0,24.6243388 24.6243388,0 55,0 C85.3756612,0 110,24.6243388 110,55 C110,85.3756612 85.3756612,110 55,110 Z"/>
    <g fill-rule="nonzero" transform="translate(15 37)">
      <path fill="#E37E67" d="M56.1631189,24.9425341 L54.3334113,23.6118519 L55.1650682,22.7801949 L53.3353606,16.9582846 L42.6894347,8.4748538 C41.3587524,7.47680312 39.6952827,7.14417154 38.1982066,7.64319688 L28.2176998,10.9699805 L22.3957895,24.277271 L23.7264717,25.2753216 L23.7264717,25.2753216 L43.0220663,38.4163743 C44.020117,39.0817934 45.517193,38.9153996 46.3488499,37.7509552 C47.014269,36.7529045 46.8478752,35.2558285 45.6834308,34.4241715 L44.019961,33.2597271 L46.6814815,35.0894347 C47.6795322,35.7548538 49.1766082,35.58846 50.0082651,34.4240156 C50.6736842,33.4259649 50.5072904,31.9288889 49.342846,31.097232 L50.1745029,31.7626511 C51.1725536,32.4280702 52.6696296,32.2616764 53.5012865,31.097232 C54.1667057,30.0991813 54.0003119,28.6021053 52.8358674,27.7704483 L53.6675244,28.4358674 C54.665575,29.1012865 56.1626511,28.9348928 56.994308,27.7704483 C57.6601949,27.1050292 57.3275634,25.6079532 56.1631189,24.9425341 Z"/>
      <g fill="#FBC1A2" transform="translate(24.327 8.733)">
        <path d="M31.8356335 16.2095906C32.3346589 16.5422222 32.6672904 17.0412476 32.8336842 17.5402729L41.9825341 10.3875244 33.8317349.0743859649 28.1760624 3.23493177 20.1916569.407173489C19.36.0745419103 18.3619493.240779727 17.6965302.90619883L12.539883 5.73005848C12.0408577 6.22908382 11.7082261 6.89450292 11.8744639 7.55976608 12.0408577 9.05684211 12.2070955 11.8846004 13.0389084 13.8807018 13.5379337 15.211384 15.2014035 15.7104094 16.365692 14.8787524L16.365692 14.8787524C16.8647173 14.5461209 17.1973489 13.8807018 17.3637427 13.3816764 17.6963743 12.217232 18.3617934 10.0548928 17.6963743 8.55781676L18.0290058 8.22518519C18.3616374 7.72615984 19.0270565 7.72615984 19.5260819 8.05879142L31.8356335 16.2095906zM6.71812865 17.8730604C7.54978558 16.708616 7.05076023 15.0453021 5.72007797 14.5462768 4.72202729 14.0472515 3.39134503 14.379883 2.72592593 15.3779337L.397192982 18.8711111C-.268226121 19.8691618-.101832359 21.3662378 1.06261209 22.0316569L1.06261209 22.0316569C2.22705653 22.8633138 3.72413255 22.5306823 4.38939571 21.3662378L6.71812865 17.8730604zM4.88826511 24.8594152L4.88826511 24.8594152C6.05270955 25.6910721 7.54978558 25.3584405 8.21504873 24.1939961L10.7101754 20.3681871 10.7101754 20.3681871 11.5418324 19.2037427C12.2072515 18.205692 12.0408577 16.708616 11.042807 15.8769591 9.87836257 15.0453021 8.54768031 15.3779337 7.71602339 16.5423782L6.88436647 17.8730604 6.88436647 17.8730604 4.38923977 21.6988694C3.55758285 22.6969201 3.89021442 24.0276023 4.88826511 24.8594152z"/>
        <path d="M13.7044834,19.5363743 C12.7064327,19.0373489 11.3757505,19.3699805 10.7103314,20.3680312 L8.04881092,24.3602339 C7.38339181,25.3582846 7.54978558,26.8553606 8.71423002,27.5207797 L8.71423002,27.5207797 C9.87867446,28.3524366 11.3757505,28.0198051 12.0410136,26.8553606 L14.7025341,22.8631579 C15.3677973,21.8652632 14.8687719,20.2017934 13.7044834,19.5363743 Z"/>
        <path d="M16.0332164,24.3603899 C15.0351657,23.8613645 13.7044834,24.1939961 13.0390643,25.1920468 L11.8746199,27.0217544 C11.2092008,28.0198051 11.3755945,29.5168811 12.540039,30.1823002 L12.540039,30.1823002 C13.7044834,31.0139571 15.2015595,30.6813255 15.8668226,29.5168811 L17.0312671,27.6871735 C17.6966862,26.6891228 17.3638986,25.025653 16.0332164,24.3603899 Z"/>
      </g>
      <rect width="9.815" height="18.964" x="15.908" y="7.132" fill="#E8EAE9" transform="rotate(-156.416 20.816 16.614)"/>
      <rect width="17.966" height="25.119" x="4.43" y="2.687" fill="#666" rx="2" transform="rotate(-156.416 13.413 15.246)"/>
      <circle cx="13.746" cy="24.776" r="1.663" fill="#344A5E"/>
      <rect width="9.815" height="18.964" x="54.282" y="7.142" fill="#E8EAE9" transform="rotate(-23.584 59.19 16.624)"/>
      <rect width="17.966" height="25.119" x="57.672" y="2.709" fill="#0AAFC4" rx="2" transform="rotate(-23.584 66.655 15.269)"/>
      <circle cx="66.31" cy="24.776" r="1.663" fill="#344A5E"/>
    </g>
  </g>
</svg>
