<svg xmlns="http://www.w3.org/2000/svg" width="84" height="84" viewBox="0 0 84 84">
  <g fill="none" fill-rule="evenodd">
    <path fill="#FFF" d="M42,84 C18.8040405,84 0,65.1959595 0,42 C0,18.8040405 18.8040405,0 42,0 C65.1959595,0 84,18.8040405 84,42 C84,65.1959595 65.1959595,84 42,84 Z"/>
    <path fill="#F3F3F4" fill-rule="nonzero" d="M42,81 C63.5391052,81 81,63.5391052 81,42 C81,20.4608948 63.5391052,3 42,3 C20.4608948,3 3,20.4608948 3,42 C3,63.5391052 20.4608948,81 42,81 Z M42,84 C18.8040405,84 0,65.1959595 0,42 C0,18.8040405 18.8040405,0 42,0 C65.1959595,0 84,18.8040405 84,42 C84,65.1959595 65.1959595,84 42,84 Z"/>
    <g fill-rule="nonzero" transform="translate(16 24)">
      <rect width="42.25" height="26.166" x="4.875" y="3.371" fill="#FFF"/>
      <rect width="42.25" height="6.541" x="4.875" y="3.371" fill="#0AAFC4"/>
      <path fill="#5C546A" d="M46.6306953,0.100574586 L5.36778125,0.100574586 C3.30392969,0.100574586 1.625,1.7863232 1.625,3.85842541 L1.625,33.6254365 C1.625,34.0774088 1.98839062,34.443116 2.4375,34.443116 L49.5625,34.443116 C50.0116094,34.443116 50.375,34.0774088 50.375,33.6254365 L50.375,3.85842541 C50.375,1.7863232 48.6952578,0.100574586 46.6306953,0.100574586 Z M4.875,28.7193591 L4.875,4.18897238 C4.875,3.73740884 5.23879688,3.37129282 5.6875,3.37129282 L46.3125,3.37129282 C46.7612031,3.37129282 47.125,3.73740884 47.125,4.18897238 L47.125,28.7193591 C47.125,29.1709227 46.7612031,29.5370387 46.3125,29.5370387 L5.6875,29.5370387 C5.23879688,29.5370387 4.875,29.1709227 4.875,28.7193591 Z"/>
      <path fill="#B9BBC1" d="M51.1875,32.8077569 L0.8125,32.8077569 C0.363390625,32.8077569 0,33.1734641 0,33.6254365 L0,33.6254365 C0,35.4308729 1.45914844,36.8993232 3.25314844,36.8993232 L48.74675,36.8993232 C50.54075,36.8993232 51.9998984,35.4308729 51.9998984,33.6254365 L51.9998984,33.6254365 C52,33.1734641 51.6366094,32.8077569 51.1875,32.8077569 Z"/>
      <path fill="#FFBB41" d="M14.625,7.45969061 L8.9375,7.45969061 C8.48839063,7.45969061 8.125,7.09398343 8.125,6.64201105 C8.125,6.19003867 8.48839063,5.82433149 8.9375,5.82433149 L14.625,5.82433149 C15.0741094,5.82433149 15.4375,6.19003867 15.4375,6.64201105 C15.4375,7.09398343 15.0741094,7.45969061 14.625,7.45969061 Z"/>
      <path fill="#FFF" d="M29.25 7.45969061L28.4375 7.45969061C27.9883906 7.45969061 27.625 7.09398343 27.625 6.64201105 27.625 6.19003867 27.9883906 5.82433149 28.4375 5.82433149L29.25 5.82433149C29.6991094 5.82433149 30.0625 6.19003867 30.0625 6.64201105 30.0625 7.09398343 29.6991094 7.45969061 29.25 7.45969061zM33.3125 7.45969061L32.5 7.45969061C32.0508906 7.45969061 31.6875 7.09398343 31.6875 6.64201105 31.6875 6.19003867 32.0508906 5.82433149 32.5 5.82433149L33.3125 5.82433149C33.7616094 5.82433149 34.125 6.19003867 34.125 6.64201105 34.125 7.09398343 33.7616094 7.45969061 33.3125 7.45969061zM37.375 7.45969061L36.5625 7.45969061C36.1133906 7.45969061 35.75 7.09398343 35.75 6.64201105 35.75 6.19003867 36.1133906 5.82433149 36.5625 5.82433149L37.375 5.82433149C37.8241094 5.82433149 38.1875 6.19003867 38.1875 6.64201105 38.1875 7.09398343 37.8241094 7.45969061 37.375 7.45969061zM41.4375 7.45969061L40.625 7.45969061C40.1758906 7.45969061 39.8125 7.09398343 39.8125 6.64201105 39.8125 6.19003867 40.1758906 5.82433149 40.625 5.82433149L41.4375 5.82433149C41.8866094 5.82433149 42.25 6.19003867 42.25 6.64201105 42.25 7.09398343 41.8866094 7.45969061 41.4375 7.45969061z"/>
      <path fill="#5872C8" d="M42.25,14.0011271 L8.12986527,14.0011271 C7.68075589,14.0011271 7.31736527,13.6354199 7.31736527,13.1834475 C7.31736527,12.7314751 7.68075589,12.365768 8.12986527,12.365768 L42.25,12.365768 C42.6991094,12.365768 43.0625,12.7314751 43.0625,13.1834475 C43.0625,13.6354199 42.6991094,14.0011271 42.25,14.0011271 Z"/>
      <path fill="#B9BBC1" d="M33.3125 20.5425635L8.12986527 20.5425635C7.68075589 20.5425635 7.31736527 20.1768564 7.31736527 19.724884 7.31736527 19.2729116 7.68075589 18.9072044 8.12986527 18.9072044L33.3125 18.9072044C33.7616094 18.9072044 34.125 19.2729116 34.125 19.724884 34.125 20.1768564 33.7616094 20.5425635 33.3125 20.5425635zM33.3125 23.6518072L8.12986527 23.6518072C7.68075589 23.6518072 7.31736527 23.2861001 7.31736527 22.8341277 7.31736527 22.3821553 7.68075589 22.0164481 8.12986527 22.0164481L33.3125 22.0164481C33.7616094 22.0164481 34.125 22.3821553 34.125 22.8341277 34.125 23.2861001 33.7616094 23.6518072 33.3125 23.6518072zM33.3125 26.7610509L8.12986527 26.7610509C7.68075589 26.7610509 7.31736527 26.3953437 7.31736527 25.9433714 7.31736527 25.491399 7.68075589 25.1256918 8.12986527 25.1256918L33.3125 25.1256918C33.7616094 25.1256918 34.125 25.491399 34.125 25.9433714 34.125 26.3953437 33.7616094 26.7610509 33.3125 26.7610509zM43.0625 20.5425635L36.5625 20.5425635C36.1133906 20.5425635 35.75 20.1768564 35.75 19.724884 35.75 19.2729116 36.1133906 18.9072044 36.5625 18.9072044L43.0625 18.9072044C43.5116094 18.9072044 43.875 19.2729116 43.875 19.724884 43.875 20.1768564 43.5116094 20.5425635 43.0625 20.5425635zM43.0625 23.8132818L36.5625 23.8132818C36.1133906 23.8132818 35.75 23.4475746 35.75 22.9956022 35.75 22.5436298 36.1133906 22.1779227 36.5625 22.1779227L43.0625 22.1779227C43.5116094 22.1779227 43.875 22.5436298 43.875 22.9956022 43.875 23.4475746 43.5116094 23.8132818 43.0625 23.8132818zM43.0625 27.084L36.5625 27.084C36.1133906 27.084 35.75 26.7182928 35.75 26.2663204 35.75 25.8143481 36.1133906 25.4486409 36.5625 25.4486409L43.0625 25.4486409C43.5116094 25.4486409 43.875 25.8143481 43.875 26.2663204 43.875 26.7182928 43.5116094 27.084 43.0625 27.084z"/>
      <path fill="#5872C8" d="M37.375,17.2718453 L8.12986527,17.2718453 C7.68075589,17.2718453 7.31736527,16.9061381 7.31736527,16.4541657 C7.31736527,16.0021934 7.68075589,15.6364862 8.12986527,15.6364862 L37.375,15.6364862 C37.8241094,15.6364862 38.1875,16.0021934 38.1875,16.4541657 C38.1875,16.9061381 37.8241094,17.2718453 37.375,17.2718453 Z"/>
      <path fill="#8B8996" d="M22.75,34.443116 L29.25,34.443116 C30.1474063,34.443116 30.875,33.710884 30.875,32.8077569 L21.125,32.8077569 C21.125,33.7109862 21.8524922,34.443116 22.75,34.443116 Z"/>
    </g>
  </g>
</svg>
