<svg xmlns="http://www.w3.org/2000/svg" width="84" height="84" viewBox="0 0 84 84">
  <g fill="none" fill-rule="evenodd">
    <path fill="#FFF" d="M42,84 C18.8040405,84 0,65.1959595 0,42 C0,18.8040405 18.8040405,0 42,0 C65.1959595,0 84,18.8040405 84,42 C84,65.1959595 65.1959595,84 42,84 Z"/>
    <path fill="#F3F3F4" fill-rule="nonzero" d="M42,81 C63.5391052,81 81,63.5391052 81,42 C81,20.4608948 63.5391052,3 42,3 C20.4608948,3 3,20.4608948 3,42 C3,63.5391052 20.4608948,81 42,81 Z M42,84 C18.8040405,84 0,65.1959595 0,42 C0,18.8040405 18.8040405,0 42,0 C65.1959595,0 84,18.8040405 84,42 C84,65.1959595 65.1959595,84 42,84 Z"/>
    <g fill-rule="nonzero" transform="translate(14 26)">
      <path fill="#D54D4E" d="M39.6753695,23.4540773 L39.6753695,27.3064378 L33.4980296,27.3064378 L33.4980296,26.0034335 C33.4980296,25.5502146 33.1610837,25.2103004 32.7118227,25.2103004 L22.9403941,25.2103004 C22.491133,25.2103004 22.1541872,25.5502146 22.1541872,26.0034335 L22.1541872,27.3064378 L14.2359606,27.3064378 C13.7305419,25.4369099 12.0458128,24.0772532 10.0241379,24.0772532 C8.00246305,24.0772532 6.31773399,25.4369099 5.81231527,27.3064378 L1.99359606,27.3064378 L1.99359606,23.4540773 L39.6753695,23.4540773 Z"/>
      <path fill="#F9696A" d="M1.99359606,23.4540773 C0.926600985,23.4540773 0.0280788177,22.5476395 0.0280788177,21.4712446 L0.0280788177,1.98283262 C0.0280788177,0.906437768 0.926600985,0 1.99359606,0 L37.7098522,0 C38.7768473,0 39.6753695,0.906437768 39.6753695,1.98283262 L39.6753695,23.4540773 L1.99359606,23.4540773 Z"/>
      <polygon fill="#84DBFF" points="39.675 7.818 39.675 28.27 56.41 28.27 56.41 18.809 50.458 7.818"/>
      <path fill="#E6E9EE" d="M56.4103448,18.8085837 L56.4103448,26.7399142 L53.3778325,26.7399142 L53.3778325,28.2695279 L50.2891626,28.2695279 C50.1768473,25.9467811 48.2674877,24.0772532 45.908867,24.0772532 C43.6064039,24.0772532 41.6970443,25.9467811 41.5285714,28.2695279 L39.6192118,28.2695279 L39.6192118,7.87467811 L50.4014778,7.87467811 L56.4103448,18.8085837 Z"/>
      <polygon fill="#84DBFF" points="54.389 17.789 49.728 9.121 40.967 9.121 40.967 17.789"/>
      <ellipse cx="10.024" cy="28.496" fill="#2B3B4E" rx="4.38" ry="4.419"/>
      <ellipse cx="10.024" cy="28.496" fill="#E6E9EE" rx="2.808" ry="2.833"/>
      <path fill="#E6E9EE" d="M32.7118227,29.232618 L22.9965517,29.232618 C22.5472906,29.232618 22.2103448,28.8927039 22.2103448,28.439485 L22.2103448,25.9467811 C22.2103448,25.4935622 22.5472906,25.1536481 22.9965517,25.1536481 L32.7118227,25.1536481 C33.1610837,25.1536481 33.4980296,25.4935622 33.4980296,25.9467811 L33.4980296,28.439485 C33.4980296,28.8927039 33.1610837,29.232618 32.7118227,29.232618 Z"/>
      <rect width="1.629" height="3.286" x="54.782" y="22.774" fill="#FFBB41"/>
      <path fill="#2B3B4E" d="M56.4665025 26.7399142L53.3778325 26.7399142 53.3778325 29.0060086 56.4665025 29.0060086C56.7472906 29.0060086 56.9719212 28.7793991 56.9719212 28.4961373L56.9719212 27.3064378C56.9719212 26.9665236 56.7472906 26.7399142 56.4665025 26.7399142zM50.9068966 28.2695279L50.2891626 28.2695279C50.1768473 25.9467811 48.2674877 24.0772532 45.908867 24.0772532 43.5502463 24.0772532 41.6408867 25.9467811 41.5285714 28.2695279L40.9108374 28.2695279C41.0231527 25.606867 43.2133005 23.4540773 45.908867 23.4540773 48.6044335 23.4540773 50.7945813 25.5502146 50.9068966 28.2695279z"/>
      <ellipse cx="45.909" cy="28.496" fill="#2B3B4E" rx="4.38" ry="4.419"/>
      <ellipse cx="45.909" cy="28.496" fill="#E6E9EE" rx="2.808" ry="2.833"/>
    </g>
  </g>
</svg>
