<svg xmlns="http://www.w3.org/2000/svg" width="110" height="110" viewBox="0 0 110 110">
  <g fill="none" fill-rule="evenodd">
    <path fill="#FFF" d="M55,110 C24.6243388,110 0,85.3756612 0,55 C0,24.6243388 24.6243388,0 55,0 C85.3756612,0 110,24.6243388 110,55 C110,85.3756612 85.3756612,110 55,110 Z"/>
    <path fill="#F3F3F4" fill-rule="nonzero" d="M55,107 C83.718807,107 107,83.718807 107,55 C107,26.281193 83.718807,3 55,3 C26.281193,3 3,26.281193 3,55 C3,83.718807 26.281193,107 55,107 Z M55,110 C24.6243388,110 0,85.3756612 0,55 C0,24.6243388 24.6243388,0 55,0 C85.3756612,0 110,24.6243388 110,55 C110,85.3756612 85.3756612,110 55,110 Z"/>
    <g transform="translate(20 36)">
      <path fill="#C6C6C6" d="M62.0701031,34.8056604 C62.0701031,35.8726415 61.2283505,36.7556604 60.2036082,36.7556604 L11.5283505,36.7556604 C10.5036082,36.7556604 9.66185567,35.8726415 9.66185567,34.8056604 L9.66185567,2.02358491 C9.66185567,0.956603774 10.5036082,0.0735849057 11.5283505,0.0735849057 L60.2402062,0.0735849057 C61.2649485,0.0735849057 62.106701,0.956603774 62.106701,2.02358491 L62.106701,34.8056604 L62.0701031,34.8056604 Z"/>
      <path fill="#C1BFBD" d="M70.8902062,37.6018868 C70.8902062,38.2273585 70.2314433,38.7056604 67.0108247,38.7056604 L4.39175258,38.7056604 C2.08608247,38.7056604 0.256185567,38.2273585 0.256185567,37.6018868 L0.256185567,37.5283019 C0.256185567,36.9028302 0.695360825,36.4245283 1.31752577,36.4245283 L70.0850515,36.4245283 C70.7072165,36.4245283 70.8902062,36.9028302 70.8902062,37.5283019 L70.8902062,37.6018868 Z"/>
      <rect width="70.634" height="2.281" x=".256" y="35.1" fill="#DADADA"/>
      <rect width="46.589" height="29.655" x="12.443" y="2.759" fill="#FFF"/>
      <path fill="#C1BFBD" d="M30.9252577,35.2103774 L30.9252577,35.2471698 C30.9252577,35.6150943 30.9984536,35.7622642 31.4010309,35.7622642 L39.9283505,35.7622642 C40.2943299,35.7622642 40.3675258,35.6150943 40.3675258,35.2471698 L40.3675258,35.2103774 L40.5871134,35.1 L30.7056701,35.1 C30.7056701,35.1 30.9252577,35.1735849 30.9252577,35.2103774 Z"/>
      <g fill="#E4E4E4" transform="translate(34.402 8.094)">
        <path d="M18.5917526.993396226L.58556701.993396226C.365979381.993396226.219587629.846226415.219587629.625471698.219587629.404716981.365979381.25754717.58556701.25754717L18.5917526.25754717C18.8113402.25754717 18.957732.404716981 18.957732.625471698 18.957732.846226415 18.7747423.993396226 18.5917526.993396226zM18.5917526 12.0311321L.58556701 12.0311321C.365979381 12.0311321.219587629 11.8839623.219587629 11.6632075.219587629 11.4424528.365979381 11.295283.58556701 11.295283L18.5917526 11.295283C18.8113402 11.295283 18.957732 11.4424528 18.957732 11.6632075 18.957732 11.8839623 18.7747423 12.0311321 18.5917526 12.0311321zM17.75 8.35188679L.58556701 8.35188679C.365979381 8.35188679.219587629 8.20471698.219587629 7.98396226.219587629 7.76320755.365979381 7.61603774.58556701 7.61603774L17.75 7.61603774C17.9695876 7.61603774 18.1159794 7.76320755 18.1159794 7.98396226 18.1159794 8.20471698 17.9329897 8.35188679 17.75 8.35188679zM14.9319588 4.67264151L.58556701 4.67264151C.365979381 4.67264151.219587629 4.5254717.219587629 4.30471698.219587629 4.08396226.365979381 3.93679245.58556701 3.93679245L14.9319588 3.93679245C15.1515464 3.93679245 15.2979381 4.08396226 15.2979381 4.30471698 15.2979381 4.5254717 15.1149485 4.67264151 14.9319588 4.67264151zM14.9319588 15.7103774L.58556701 15.7103774C.365979381 15.7103774.219587629 15.5632075.219587629 15.3424528.219587629 15.1216981.365979381 14.9745283.58556701 14.9745283L14.9319588 14.9745283C15.1515464 14.9745283 15.2979381 15.1216981 15.2979381 15.3424528 15.2979381 15.5632075 15.1149485 15.7103774 14.9319588 15.7103774z"/>
      </g>
      <g fill="#0AAFC4" fill-rule="nonzero" transform="translate(15 12)">
        <path d="M2.1544757 7.8885953C1.9887468 7.8885953 1.8230179 7.77509033 1.71253197 7.60483288 1.54680307 7.32107046 1.657289 7.03730804 1.87826087 6.86705059L3.48030691 5.84550587C3.75652174 5.67524842 4.03273657 5.78875339 4.19846547 6.01576332 4.36419437 6.29952575 4.25370844 6.58328817 4.03273657 6.75354562L2.43069054 7.77509033C2.37544757 7.8885953 2.26496164 7.8885953 2.1544757 7.8885953zM2.9831202 4.48344625L.828644501 4.48344625C.552429668 4.48344625.276214834 4.25643631.331457801 3.91592141.331457801 3.63215899.552429668 3.40514905.883887468 3.40514905L.883887468 3.40514905C.883887468 3.40514905 2.43069054 3.46190154 3.59079284 3.40514905L3.59079284 3.40514905C3.86700767 3.40514905 4.14322251 3.63215899 4.14322251 3.97267389 4.14322251 4.25643631 3.92225064 4.54019874 3.59079284 4.54019874 3.36982097 4.48344625 3.20409207 4.48344625 2.9831202 4.48344625zM3.81176471 2.21334688C3.70127877 2.21334688 3.59079284 2.1565944 3.53554987 2.09984192 3.53554987 2.09984192 2.76214834 1.58906956 1.9887468 1.24855465 1.71253197 1.13504968 1.60204604.794534779 1.71253197.510772358 1.8230179.227009937 2.1544757.113504968 2.43069054.227009937 3.25933504.624277326 4.08797954 1.13504968 4.14322251 1.19180217 4.36419437 1.36205962 4.47468031 1.70257453 4.30895141 1.92958446 4.14322251 2.09984192 3.97749361 2.21334688 3.81176471 2.21334688z"/>
        <g transform="translate(11.601)">
          <path d="M.883887468 2.55386179C.718158568 2.55386179.552429668 2.44035682.441943734 2.27009937.276214834 1.98633695.386700767 1.70257453.607672634 1.53231707L2.20971867.510772358C2.4859335.340514905 2.76214834.454019874 2.92787724.68102981 3.09360614.964792231 2.9831202 1.24855465 2.76214834 1.4188121L1.1601023 2.44035682C1.04961637 2.4971093.994373402 2.55386179.883887468 2.55386179zM3.75652174 4.99421861L3.75652174 4.99421861C3.75652174 4.99421861 2.20971867 4.93746612 1.04961637 4.99421861L1.04961637 4.99421861C.773401535 4.99421861.497186701 4.76720867.497186701 4.42669377.497186701 4.14293135.718158568 3.85916893 1.04961637 3.85916893L3.75652174 3.85916893C4.03273657 3.85916893 4.30895141 4.08617886 4.25370844 4.42669377 4.30895141 4.76720867 4.08797954 4.99421861 3.75652174 4.99421861zM2.43069054 8.11560524C2.37544757 8.11560524 2.26496164 8.11560524 2.20971867 8.05885276 1.38107417 7.66158537.552429668 7.15081301.497186701 7.09406052.276214834 6.92380307.1657289 6.58328817.331457801 6.35627823.497186701 6.12926829.828644501 6.01576332 1.04961637 6.18602078 1.04961637 6.18602078 1.8230179 6.69679313 2.59641944 7.03730804 2.87263427 7.15081301 2.9831202 7.49132791 2.87263427 7.77509033 2.8173913 8.00210027 2.6516624 8.11560524 2.43069054 8.11560524z"/>
        </g>
        <path d="M8.61790281,8.56962511 C6.57391304,8.56962511 5.52429668,6.69679313 5.41381074,4.88071364 C5.35856777,3.74566396 5.91099744,1.81607949 7.23682864,1.13504968 C7.89974425,0.794534779 8.89411765,0.624277326 10.2751918,1.75932701 C10.4961637,1.92958446 10.5514066,2.27009937 10.3304348,2.4971093 C10.1647059,2.72411924 9.83324808,2.78087173 9.61227621,2.55386179 C8.89411765,1.92958446 8.23120205,1.75932701 7.73401535,2.04308943 C6.90537084,2.4971093 6.46342711,3.97267389 6.51867008,4.76720867 C6.62915601,6.01576332 7.23682864,7.43457543 8.67314578,7.43457543 C9.50179028,7.43457543 9.77800512,6.35627823 9.83324808,5.7320009 C9.44654731,5.61849593 8.89411765,5.50499097 8.56265985,5.50499097 C8.28644501,5.50499097 8.01023018,5.27798103 8.01023018,4.93746612 C8.01023018,4.59695122 8.23120205,4.36994128 8.56265985,4.36994128 C9.28081841,4.36994128 10.4409207,4.71045619 10.5514066,4.71045619 C10.7723785,4.76720867 10.9381074,4.99421861 10.9381074,5.22122855 C10.8828645,6.4697832 10.4409207,8.56962511 8.61790281,8.56962511 Z"/>
      </g>
    </g>
  </g>
</svg>
