<svg xmlns="http://www.w3.org/2000/svg" width="110" height="110" viewBox="0 0 110 110">
  <g fill="none" fill-rule="evenodd">
    <path fill="#FFF" d="M55,110 C24.6243388,110 0,85.3756612 0,55 C0,24.6243388 24.6243388,0 55,0 C85.3756612,0 110,24.6243388 110,55 C110,85.3756612 85.3756612,110 55,110 Z"/>
    <path fill="#F3F3F4" fill-rule="nonzero" d="M55,107 C83.718807,107 107,83.718807 107,55 C107,26.281193 83.718807,3 55,3 C26.281193,3 3,26.281193 3,55 C3,83.718807 26.281193,107 55,107 Z M55,110 C24.6243388,110 0,85.3756612 0,55 C0,24.6243388 24.6243388,0 55,0 C85.3756612,0 110,24.6243388 110,55 C110,85.3756612 85.3756612,110 55,110 Z"/>
    <g fill-rule="nonzero" transform="translate(28 27)">
      <polygon fill="#FFBB41" points="22.528 36.546 27.234 44.124 24.331 47.517"/>
      <path fill="#F9696A" d="M24.6388325,10.5058113 L6.51762972,10.5058113 C5.68199292,10.5058113 5.02225236,11.1667127 5.02225236,12.0038198 L5.02225236,32.1396117 C5.02225236,32.9767188 5.68199292,33.6376202 6.51762972,33.6376202 L24.6388325,33.6376202 C25.4744693,33.6376202 26.1342099,32.9767188 26.1342099,32.1396117 L26.1342099,12.0478713 C26.1343396,11.2107642 25.4744693,10.5058113 24.6388325,10.5058113 Z"/>
      <path fill="#FFBB41" d="M2.11931604,15.3965596 C0.975731132,15.3965596 0.0521462264,16.3218996 0.0521462264,17.4673667 L0.0521462264,26.7641677 C0.0521462264,27.9097648 0.975860849,28.8349747 2.11931604,28.8349747 L5.02225236,28.8349747 L5.02225236,15.3965596 L2.11931604,15.3965596 Z"/>
      <polygon fill="#0AAFC4" points="50.765 41.657 26.134 31.699 26.134 12.533 50.765 2.531"/>
      <path fill="#FFBB41" d="M52.8322995,0.107334753 C51.6887146,0.107334753 50.7651297,1.03267468 50.7651297,2.17814181 L50.7651297,42.0532626 C50.7651297,43.1988597 51.6888443,44.1240697 52.8322995,44.1240697 C53.9758844,44.1240697 54.8994693,43.1987298 54.8994693,42.0532626 L54.8994693,2.13409038 C54.8554953,1.03267468 53.9319104,0.107334753 52.8322995,0.107334753 Z"/>
      <polygon fill="#D8D8D8" points="26.662 55.36 17.821 55.36 8.277 33.682 22.176 33.682"/>
      <g fill="#FFF" transform="translate(9.21 14.554)">
        <path d="M11.5584316.0495091296L1.17834906.0495091296C.606556604.0495091296.122712264.578256239.122712264 1.28320907.122712264 1.94411047.606556604 2.51690901 1.17834906 2.51690901L11.5584316 2.51690901C12.1302241 2.51690901 12.6140684 1.9881619 12.6140684 1.28320907 12.6139387.622307669 12.1302241.0495091296 11.5584316.0495091296zM11.5584316 6.30624163L1.17834906 6.30624163C.606556604 6.30624163.122712264 6.83498874.122712264 7.53994157.122712264 8.20084297.606556604 8.77364151 1.17834906 8.77364151L11.5584316 8.77364151C12.1302241 8.77364151 12.6140684 8.2448944 12.6140684 7.53994157 12.6139387 6.87904017 12.1302241 6.30624163 11.5584316 6.30624163zM11.5584316 12.6068956L1.17834906 12.6068956C.606556604 12.6068956.122712264 13.1356427.122712264 13.8405956.122712264 14.501497.606556604 15.0742955 1.17834906 15.0742955L11.5584316 15.0742955C12.1302241 15.0742955 12.6140684 14.5455484 12.6140684 13.8405956 12.6139387 13.1356427 12.1302241 12.6068956 11.5584316 12.6068956z"/>
      </g>
    </g>
  </g>
</svg>
