<svg xmlns="http://www.w3.org/2000/svg" width="84" height="84" viewBox="0 0 84 84">
  <g fill="none" fill-rule="evenodd">
    <path fill="#FFF" d="M42,84 C18.8040405,84 0,65.1959595 0,42 C0,18.8040405 18.8040405,0 42,0 C65.1959595,0 84,18.8040405 84,42 C84,65.1959595 65.1959595,84 42,84 Z"/>
    <path fill="#F3F3F4" fill-rule="nonzero" d="M42,81 C63.5391052,81 81,63.5391052 81,42 C81,20.4608948 63.5391052,3 42,3 C20.4608948,3 3,20.4608948 3,42 C3,63.5391052 20.4608948,81 42,81 Z M42,84 C18.8040405,84 0,65.1959595 0,42 C0,18.8040405 18.8040405,0 42,0 C65.1959595,0 84,18.8040405 84,42 C84,65.1959595 65.1959595,84 42,84 Z"/>
    <g fill-rule="nonzero" transform="translate(25 16)">
      <g fill="#FFBB41" transform="translate(1.966 33.656)">
        <path d="M.145658814 18.8618003L.145658814 18.8618003 29.0972766 18.8618003 29.0972766 18.8618003C29.0972766 15.6070561 27.131412 13.0033508 24.6889421 13.0033508L4.55384207 13.0033508C2.11152341 13.0035011.145658814 15.6072063.145658814 18.8618003zM30.7653196 2.94357374L20.9359966 5.90232287C20.2211643 6.13896871 19.5063319 5.7247258 19.2679536 5.01463803L19.2083591 4.71879317C18.970132 4.0087054 19.3871428 3.29861763 20.1019751 3.06182154L29.9312981.10307241C30.6461305-.133573429 31.3609628.280669478 31.5993411.990757248L31.6589357 1.28660211C31.8375681 1.99668988 31.4801519 2.70677765 30.7653196 2.94357374z"/>
      </g>
      <rect width="6.791" height="6.509" x="6.103" y="2.618" fill="#BFBFBF" transform="rotate(151.654 9.5 5.873)"/>
      <rect width="7.387" height="1.657" x="3.965" y="1.752" fill="#ACB3BA" transform="rotate(151.654 7.659 2.58)"/>
      <path fill="#CED5E0" d="M12.834765,15.7699285 C12.834765,15.2372875 12.6559813,14.7047968 12.2985651,14.349753 C12.3581596,14.52735 12.4177542,14.7639959 12.4177542,15.0006417 C12.4177542,16.0065743 11.7625164,16.8350602 10.8093058,17.130905 L10.4518896,17.2493031 L10.8689004,18.0777889 L11.2263165,17.9593908 C12.1795272,17.6043469 12.834765,16.7758611 12.834765,15.7699285 Z"/>
      <path fill="#ACB3BA" d="M8.247798,10.5623678 L14.0262026,7.48522059 C14.3240242,7.30762353 14.6814404,7.30762353 15.0388566,7.36682255 C15.3962728,7.48522059 15.6344998,7.66266741 15.8132835,8.0177113 L21.5916882,18.6693283 L21.5916882,18.6693283 L15.3962728,7.13002646 C15.2174891,6.8341816 14.979262,6.5973855 14.6218458,6.47913771 C14.2644297,6.36088992 13.9070135,6.41993869 13.6091919,6.59753576 L7.83078725,9.73388195 C7.17554947,10.0889258 6.93717118,10.8582126 7.29458736,11.5091014 L7.7115981,12.2783882 C7.4137765,11.6276497 7.65215479,10.8583629 8.247798,10.5623678 Z"/>
      <path fill="#BFBFBF" d="M21.651434 18.6694786L15.8730293 8.01786155C15.6942456 7.72201669 15.4560186 7.48522059 15.0986024 7.3669728 14.7411862 7.24857475 14.3837701 7.30777378 14.0859485 7.48537085L8.30754382 10.562518C7.71190061 10.9175619 7.47352233 11.6868487 7.77134393 12.2786887L8.42658171 13.4622184 8.72440332 13.2255725C9.14141406 12.8705286 9.61801938 12.6929316 10.154068 12.6929316 11.166722 12.6929316 12.060338 13.4030193 12.3581596 14.3499032 12.7155758 14.7641461 12.8943595 15.237588 12.8943595 15.7700787 12.8943595 16.7760114 12.2391218 17.6044972 11.2859111 17.9003421L10.8689004 18.0187401 13.5495973 22.9303057 21.651434 18.6694786zM19.2685586 31.3331112C19.983391 31.2147131 20.4599963 30.6230234 20.5791855 29.9721347L20.5791855 29.9129356 19.9835423 27.0724343C18.9112937 27.4274782 17.7794506 27.3682792 16.7070508 27.0724343L17.3026941 30.0311834C17.5409211 30.9190185 18.3749426 31.5107082 19.2685586 31.3331112zM25.463974 26.7765894C26.1192118 26.1257007 26.1192118 25.1196178 25.463974 24.4687291L23.7363365 22.7525584C23.5575528 23.8768891 23.0215041 24.8828217 22.2470772 25.7113075L23.3789203 26.8356382C23.557704 27.0132353 23.795931 27.1906821 24.0937527 27.2498811 24.570358 27.3092304 25.1065579 27.1316333 25.463974 26.7765894z"/>
      <path fill="#FFBB41" d="M23.4385149,19.1429205 L23.2597312,18.8470757 L13.072992,24.3504813 L13.2517757,24.6463261 C13.9666081,25.9482539 15.0984512,26.8949875 16.5282671,27.3684294 C17.1239103,27.5460265 17.7197048,27.6642743 18.3749426,27.6642743 C18.9705858,27.6642743 19.5663803,27.6050753 20.1025801,27.4276284 C20.4599963,27.3092304 20.8174125,27.1909826 21.1152341,27.0133855 C21.651434,26.7175407 22.0684447,26.4216958 22.4853042,26.0074529 C23.3789203,25.1197681 23.9149689,23.9362384 24.0937527,22.6936599 C24.2725364,21.4507809 24.0341581,20.2080522 23.4385149,19.1429205 Z"/>
      <path fill="#CECED2" d="M28.6807196,35.2979432 C26.1786551,39.6178191 21.5916882,42.2807233 16.5877104,42.2807233 C8.96263035,42.2807233 2.70762038,36.126429 2.70762038,28.5519591 C2.70762038,24.1138354 4.91171201,19.9122073 8.60521417,17.3677011 L7.23514404,15.0006417 C2.8864041,18.0777889 0.14611258,23.2851994 0.14611258,28.6111581 C0.14611258,37.1917109 6.81813329,44.2335398 15.3368295,44.8845788 L15.3368295,48.5534157 L17.9579318,48.5534157 L17.9579318,44.8845788 C22.4257097,44.5295349 26.5362226,42.3991214 29.395552,39.0261293 C30.289168,37.7834006 29.9913464,36.06723 28.6807196,35.2979432 Z"/>
      <path fill="#FFBB41" d="M10.0944734,11.0358097 C7.94997639,11.0358097 6.16274426,12.8110291 6.16274426,14.9414427 C6.16274426,17.071706 7.94982514,18.8470757 10.0944734,18.8470757 C12.2391218,18.8470757 14.0262026,17.0718562 14.0262026,14.9414427 C14.0262026,12.8111794 12.2391218,11.0358097 10.0944734,11.0358097 Z"/>
      <ellipse cx="10.094" cy="14.941" fill="#324A5E" rx="1.549" ry="1.539"/>
      <rect width="12.808" height="1.657" x="11.596" y="20.364" fill="#ACB3BA" transform="rotate(151.654 18 21.193)"/>
    </g>
  </g>
</svg>
