<svg xmlns="http://www.w3.org/2000/svg" width="110" height="110" viewBox="0 0 110 110">
  <g fill="none" fill-rule="evenodd">
    <path fill="#FFF" d="M55,110 C24.6243388,110 0,85.3756612 0,55 C0,24.6243388 24.6243388,0 55,0 C85.3756612,0 110,24.6243388 110,55 C110,85.3756612 85.3756612,110 55,110 Z"/>
    <path fill="#F3F3F4" fill-rule="nonzero" d="M55,107 C83.718807,107 107,83.718807 107,55 C107,26.281193 83.718807,3 55,3 C26.281193,3 3,26.281193 3,55 C3,83.718807 26.281193,107 55,107 Z M55,110 C24.6243388,110 0,85.3756612 0,55 C0,24.6243388 24.6243388,0 55,0 C85.3756612,0 110,24.6243388 110,55 C110,85.3756612 85.3756612,110 55,110 Z"/>
    <g fill-rule="nonzero" transform="translate(31 19)">
      <path fill="#726658" d="M20.6034482,36.5895511 C20.6034482,38.4520097 20.6034482,40.3144683 20.6034482,42.1381257 C20.6034482,42.2933305 20.6422494,42.4097342 20.7586531,42.5261379 C22.1166958,43.9229818 23.5135397,45.2810245 24.8715825,46.6778685 C25.2207934,47.0270795 25.6088056,47.3762904 25.9580166,47.7255014 C25.9968179,47.6867002 25.9580166,47.6090978 25.9580166,47.5314953 C25.9580166,42.3321318 25.9580166,37.093967 25.9580166,31.8946034 C25.9580166,28.2860899 25.9580166,24.6775763 25.9580166,21.107864 C25.9580166,20.9526592 25.9192154,20.8750567 25.8028117,20.7586531 C24.4835702,19.4394116 23.1643287,18.1201701 21.8450872,16.8009286 C21.2630689,16.2189102 20.7198518,15.6756932 20.1378335,15.0936748 C20.1378335,15.0548736 20.1378335,15.0548736 20.1766347,15.0160724 C20.3706409,14.8608675 20.564647,14.6668614 20.7198518,14.4728553 C20.7198518,14.4340541 20.7586531,14.4340541 20.7974543,14.4340541 C22.504708,16.1413078 24.2119617,17.8485615 25.9192154,19.6334177 C25.9192154,15.9861029 25.9192154,12.4163906 25.9192154,8.84667831 C26.2296252,8.73027465 26.5012337,8.73027465 26.8116435,8.84667831 C26.8116435,17.3053444 26.8116435,25.7640105 26.8116435,34.2226766 C26.8116435,34.2226766 26.8504447,34.2226766 26.8504447,34.2614779 C27.0444508,34.0286705 27.2772581,33.8346644 27.4712642,33.6018571 C29.2949216,31.7781997 31.0797778,29.9545424 32.9034351,28.130885 C33.0198388,28.0144813 33.05864,27.8980777 33.05864,27.7428728 C33.05864,25.8804142 33.05864,24.0179556 33.05864,22.1942982 C33.0974412,22.155497 33.1362425,22.155497 33.2138449,22.155497 C33.407851,22.1942982 33.6018571,22.1942982 33.7958632,22.155497 C33.8346644,22.155497 33.9122669,22.155497 33.9510681,22.1942982 C33.9510681,23.7851483 33.9510681,25.4147995 33.9510681,27.083252 C36.395545,24.5999739 38.8012207,22.1942982 41.2068964,19.7498213 C41.2456976,19.7498213 41.2844988,19.7498213 41.3233,19.7886225 C41.4785049,19.9826286 41.6337098,20.1378335 41.8277159,20.2930384 C41.8665171,20.3318396 41.8665171,20.3318396 41.8665171,20.4094421 C40.4308719,21.8838885 38.9952268,23.3195336 37.5207804,24.79398 C36.1239364,26.190824 34.7658937,27.5876679 33.3690498,28.9845118 C31.9334046,30.4589582 30.4977594,31.8946034 29.0621143,33.3690498 C28.3636923,34.0674718 27.6652703,34.8046949 26.9280471,35.5031169 C26.8504447,35.5807194 26.7728423,35.697123 26.7728423,35.8135267 C26.7728423,43.6901745 26.7728423,51.5668223 26.7728423,59.4046688 C26.7728423,59.4434701 26.7728423,59.5210725 26.7728423,59.5598737 C26.7728423,59.5598737 26.8116435,59.598675 26.8116435,59.598675 C26.9280471,59.4434701 27.0444508,59.3270664 27.1608545,59.1718615 C28.3636923,57.9690237 29.5665302,56.7273846 30.8081692,55.5245468 C30.8857717,55.4469443 30.8857717,55.3693419 30.8857717,55.2529382 C30.8857717,53.2352748 30.8857717,51.2564125 30.8857717,49.238749 C31.0797778,49.1611466 31.2349826,49.238749 31.4289887,49.1999478 C31.5453924,49.1999478 31.6617961,49.1611466 31.7781997,49.238749 C31.7781997,50.984804 31.7781997,52.7308589 31.7781997,54.4769138 C31.9334046,54.3993114 32.0498083,54.2441065 32.1662119,54.1665041 C33.7182608,52.575654 35.3091108,51.0236052 36.8611596,49.4327551 C38.0251963,48.2687185 39.1504317,47.1046819 40.3144683,45.9406453 C40.3532695,45.9018441 40.4308719,45.8242416 40.4696732,45.7854404 C40.5472756,45.7854404 40.5860768,45.8242416 40.5860768,45.8242416 C40.7412817,45.9794465 40.8964866,46.1346514 41.0904927,46.2898563 C41.1292939,46.3286575 41.1292939,46.3286575 41.1292939,46.4062599 C39.5384439,48.0359112 37.9087926,49.6655625 36.2791413,51.2952137 C37.093967,51.2952137 37.8699914,51.2952137 38.6460158,51.2952137 C38.684817,51.3340149 38.684817,51.3728162 38.684817,51.4504186 C38.684817,51.6444247 38.6072146,51.877232 38.6460158,52.0712381 C38.6460158,52.1100394 38.6460158,52.1488406 38.6072146,52.1876418 C37.5983828,52.1876418 36.5895511,52.1876418 35.5807194,52.1876418 C35.4643157,52.1876418 35.3867133,52.226443 35.3091108,52.3040455 C33.9898693,53.6620882 32.6706278,54.9813297 31.3125851,56.3393724 C29.8381387,57.8138188 28.3636923,59.3270664 26.8892459,60.8015128 C26.8116435,60.8791152 26.7728423,60.9955189 26.7728423,61.1119226 C26.7728423,64.52643 26.7728423,67.9409374 26.7728423,71.3166436 C26.7728423,71.394246 26.7728423,71.4718485 26.7728423,71.5106497 C26.7728423,71.743457 26.5788362,71.9374631 26.3460288,71.9374631 C26.1132215,71.9374631 25.9192154,71.743457 25.8804142,71.5106497 C25.8804142,71.4330473 25.8804142,71.394246 25.8804142,71.3166436 C25.8804142,64.0220141 25.8804142,56.7273846 25.8804142,49.4715564 C25.8804142,49.3163515 25.841613,49.1999478 25.7252093,49.0835442 C23.8627507,47.2210856 22.0390933,45.358627 20.1766347,43.4961684 C18.6245859,41.9441195 17.0725371,40.3532695 15.5204883,38.8012207 C15.1324761,38.3744072 14.7056626,37.986395 14.3176504,37.5595816 C14.240048,37.4819792 14.1236443,37.4431779 14.0072407,37.4431779 C12.6491979,37.4431779 11.2911552,37.4431779 9.93311249,37.4431779 C9.89431127,37.4043767 9.89431127,37.3655755 9.89431127,37.2879731 C9.93311249,37.093967 9.93311249,36.8999609 9.89431127,36.7059548 C9.89431127,36.6671535 9.89431127,36.5895511 9.93311249,36.5507499 C11.0195467,36.5507499 12.1447821,36.5507499 13.3088187,36.5507499 C11.1359503,34.3390803 9.0018832,32.2050132 6.82901484,30.0321448 C6.82901484,29.9545424 6.86781606,29.9157411 6.90661728,29.8769399 C7.10062338,29.721735 7.21702705,29.4889277 7.44983437,29.372524 C8.30346122,30.2261509 9.15708808,31.0797778 10.0107149,31.9334046 C11.6403662,33.5630559 13.2700175,35.2315084 14.8996687,36.8611596 C16.4129163,38.4132085 17.9649652,39.9652573 19.4782128,41.5173061 C19.517014,41.5561073 19.5558152,41.5949086 19.6334177,41.672511 C19.6334177,40.0040585 19.6334177,38.4132085 19.6334177,36.7835572 C20.0214299,36.5507499 20.2930384,36.5507499 20.6034482,36.5895511 Z"/>
      <path fill="#FEC54A" d="M41.9053183 20.2930384C41.7113122 20.0602311 41.4785049 19.866225 41.2844988 19.6334177 40.9352878 19.1290018 40.624878 18.6245859 40.5084744 18.0037664 40.1980646 16.6457237 40.4308719 15.3652834 41.3233 14.2788492 42.4485354 12.8820053 44.310994 12.3387882 46.0182477 12.9596077 47.6090978 13.541626 48.5403271 14.7444639 48.7731344 16.4129163 49.0447429 18.5081823 47.7255014 20.4870445 45.6690367 21.0302616 44.4661989 21.3406714 43.3021623 21.1466653 42.2545293 20.4482433 42.1381257 20.4094421 42.021722 20.3318396 41.9053183 20.2930384zM26.8504447 8.76907587C26.5400349 8.76907587 26.2684264 8.76907587 25.9580166 8.76907587 25.4536008 8.69147343 24.9879861 8.57506977 24.5223715 8.34226244 23.1643287 7.60503925 22.3495031 6.47980385 22.2330994 4.96655625 22.0390933 3.14289887 22.9315214 1.51324761 24.5999739.737223193 26.1520227-4.49640325e-15 27.6652703.155204883 29.0233131 1.24163906 30.2261509 2.17286836 30.7305668 3.41450742 30.6141631 4.92775503 30.4977594 6.86781606 28.9457106 8.49746733 27.0056496 8.76907587 26.9668484 8.73027465 26.8892459 8.76907587 26.8504447 8.76907587zM7.52743681 29.1785179C7.33343071 29.4113253 7.10062338 29.6053314 6.90661728 29.8381387 6.51860507 30.1097472 6.09179165 30.3813558 5.626177 30.5365607 3.10409765 31.3901875.465614648 29.7605363.116403662 27.1608545-.232807324 24.8715825 1.28044028 22.7763165 3.53091108 22.3495031 5.74258066 21.9226897 7.95425024 23.4359373 8.38106367 25.7252093 8.61387099 26.9668484 8.30346122 28.130885 7.52743681 29.1785179zM41.2456976 46.251055C41.0128903 46.0570489 40.8188841 45.8242416 40.5860768 45.6302355 40.2756671 45.2422233 40.0040585 44.8154099 39.8488536 44.310994 39.383239 42.9917525 39.4996426 41.672511 40.2756671 40.5084744 41.2068964 39.0728292 42.5649391 38.4520097 44.2721928 38.6072146 46.0570489 38.8012207 47.4150917 40.0428597 47.8807063 41.7889147 48.4627246 44.0393855 47.0270795 46.4062599 44.7766087 46.949477 43.5737708 47.2210856 42.4485354 47.0270795 41.4397037 46.3286575 41.3233 46.2898563 41.2844988 46.2898563 41.2456976 46.251055zM20.7974543 14.3564516C20.6034482 14.589259 20.4094421 14.8220663 20.1766347 15.0160724 19.8274238 15.2100785 19.4394116 15.3264822 19.0125981 15.3264822 18.0037664 15.2876809 17.1889408 14.5504578 17.0337359 13.5028248 16.878531 12.6103967 17.4605493 11.6403662 18.3529774 11.3299564 19.167803 11.0195467 19.9050262 11.2135528 20.5258457 11.8343723 21.1466653 12.4551918 21.2630689 13.2312162 20.9526592 14.0848431 20.9138579 14.1624455 20.8750567 14.2788492 20.7974543 14.3564516zM34.0286705 22.0778946C33.7182608 22.1166958 33.4466522 22.1166958 33.1362425 22.0778946 32.5154229 21.8838885 32.0110071 21.5346775 31.7393985 20.9138579 31.3513863 20.0990323 31.5841936 19.0902006 32.2438144 18.5081823 32.9422364 17.8873627 33.9898693 17.8097603 34.6882913 18.3141762 35.3867133 18.7797908 35.697123 19.4782128 35.5807194 20.2930384 35.4643157 21.1466653 34.9598998 21.7286836 34.1450742 22.0002921 34.106273 22.0390933 34.0674718 22.0778946 34.0286705 22.0778946zM20.6034482 36.5895511C20.2930384 36.6283523 20.0214299 36.6283523 19.7110201 36.5895511 19.3230079 36.4731474 18.9349957 36.2791413 18.6633871 35.9299303 18.1201701 35.3091108 17.9649652 34.6106888 18.2753749 33.8346644 18.5469835 33.05864 19.1290018 32.6318266 19.9050262 32.5154229 20.7974543 32.3990193 21.6122799 32.8646339 22.0002921 33.6794595 22.3883043 34.455484 22.1942982 35.4255145 21.5734787 36.046334 21.3018701 36.3179425 20.9526592 36.4731474 20.6034482 36.5895511zM10.0107149 36.3567438C10.0495162 36.6671535 10.0495162 36.9387621 10.0107149 37.2491718 9.89431127 37.7147865 9.66150395 38.1027987 9.31229296 38.4132085 8.65267221 38.9176243 7.91544902 39.034028 7.17822582 38.684817 6.44100263 38.335606 6.0141892 37.7147865 5.97538798 36.8611596 5.93658676 35.8523279 6.63500874 34.9598998 7.60503925 34.7658937 8.65267221 34.5718876 9.66150395 35.1539059 9.97191371 36.1627377 9.97191371 36.2791413 10.0107149 36.3179425 10.0107149 36.3567438zM31.8946034 49.0835442C31.5841936 49.1223454 31.3125851 49.1223454 31.0021753 49.0835442 30.2261509 48.8507368 29.6829338 48.3851222 29.4889277 47.5702965 29.1397167 46.251055 30.1485485 44.9706148 31.5065912 45.009416 32.360218 45.009416 33.0198388 45.4362294 33.3690498 46.251055 33.7182608 47.0658807 33.5630559 47.8031039 32.9810376 48.4627246 32.6706278 48.8119356 32.3214168 49.0059417 31.8946034 49.0835442zM38.684817 52.0324369C38.6460158 51.7220272 38.684817 51.4504186 38.7236182 51.1400088 38.8788231 50.7131954 39.1116304 50.3639844 39.4608414 50.0923759 40.7412817 49.1223454 42.5261379 49.8595686 42.720144 51.4504186 42.8365476 52.3428467 42.4873366 53.0024674 41.7113122 53.4680821 41.0516915 53.8948955 40.1204622 53.8560943 39.4608414 53.3516784 39.034028 53.0412687 38.7624195 52.575654 38.684817 52.0324369z"/>
      <path fill="#DAA940" d="M44.5826026 13.5028248C46.4062599 13.5028248 47.99711 14.9772712 47.99711 16.9561334 47.99711 18.8961945 46.4450611 20.4094421 44.5438013 20.4094421 42.6813427 20.3706409 41.1680951 18.8961945 41.1680951 16.9561334 41.1292939 15.0160724 42.6813427 13.5028248 44.5826026 13.5028248zM26.3848301 1.08643418C28.2472886 1.08643418 29.8381387 2.63848301 29.8381387 4.53974282 29.8381387 6.44100263 28.2472886 7.99305146 26.3848301 7.99305146 24.4835702 7.99305146 22.9703226 6.47980385 22.9703226 4.53974282 22.9703226 2.59968179 24.5223715 1.08643418 26.3848301 1.08643418zM4.22933305 29.9545424C2.36687446 29.9933436.814825634 28.4024935.814825634 26.5012337.814825634 24.5999739 2.28927202 23.0091239 4.30693549 23.0479251 6.16939409 23.0867263 7.68264169 24.5611727 7.64384047 26.5400349 7.68264169 28.4024935 6.13059287 29.9933436 4.22933305 29.9545424zM40.3532695 42.8365476C40.3144683 40.9352878 41.9053183 39.3444378 43.7677769 39.383239 45.5914343 39.383239 47.1822843 40.9352878 47.1822843 42.8753488 47.1434831 44.6990062 45.6690367 46.3286575 43.6513733 46.2898563 41.8665171 46.251055 40.3532695 44.7378074 40.3532695 42.8365476z"/>
      <path fill="#FEC54A" d="M43.7677769 17.6157542C43.8453794 17.6157542 43.8841806 17.6157542 43.961783 17.6157542 44.1557891 17.576953 44.2721928 17.6157542 44.2333916 17.8873627 44.2333916 18.0037664 44.310994 18.0813688 44.4273977 18.1201701 44.5438013 18.1589713 44.6990062 18.1201701 44.7766087 18.0037664 44.8542111 17.8873627 44.8930123 17.7321578 44.7766087 17.576953 44.6990062 17.4605493 44.5438013 17.3441456 44.3885964 17.3053444 44.1169879 17.1889408 43.8841806 17.1113383 43.6513733 16.9173322 43.4573672 16.7233261 43.3021623 16.52932 43.3021623 16.2577115 43.3021623 15.9085005 43.3021623 15.5980907 43.5349696 15.3264822 43.6901745 15.1712773 43.8453794 15.0548736 44.0393855 15.0160724 44.1557891 14.9772712 44.2721928 14.93847 44.2333916 14.7832651 44.2333916 14.7056626 44.2721928 14.6668614 44.3497952 14.6668614 44.4273977 14.6668614 44.4661989 14.6668614 44.5438013 14.6668614 44.660205 14.6668614 44.7378074 14.7056626 44.7378074 14.8220663 44.6990062 14.9772712 44.8542111 14.9772712 44.9318135 14.9772712 45.2034221 15.0548736 45.4362294 15.1324761 45.5914343 15.4040846 45.6302355 15.4428858 45.6302355 15.481687 45.6690367 15.5592895 45.707838 15.7144944 45.7854404 15.9085005 45.707838 16.0637054 45.6302355 16.180109 45.4362294 16.1025066 45.3198257 16.1025066 45.2422233 16.1025066 45.1646209 16.1025066 45.0870184 16.1025066 44.9318135 16.1413078 44.8542111 16.1025066 44.8154099 15.9085005 44.8154099 15.7920968 44.7766087 15.6368919 44.5826026 15.6368919 44.4661989 15.6368919 44.3497952 15.6756932 44.310994 15.7920968 44.2333916 15.9473017 44.2333916 16.0637054 44.3497952 16.180109 44.4661989 16.3353139 44.6990062 16.4129163 44.8930123 16.4905188 45.1258196 16.5681212 45.358627 16.6457237 45.5526331 16.8009286 45.9406453 17.1501395 45.9406453 17.576953 45.8630428 18.0037664 45.7466392 18.4305798 45.4362294 18.6245859 45.0482172 18.7021884 44.8542111 18.7409896 44.7766087 18.818592 44.8154099 19.0125981 44.8154099 19.0902006 44.8542111 19.2066042 44.7766087 19.2066042 44.660205 19.2454055 44.5050001 19.2454055 44.3497952 19.2066042 44.2721928 19.167803 44.310994 19.0902006 44.310994 19.0125981 44.310994 18.818592 44.2721928 18.7409896 44.0781867 18.7021884 43.5349696 18.5857847 43.3409635 18.3141762 43.3021623 17.7709591 43.3021623 17.6545554 43.3409635 17.576953 43.4573672 17.6157542 43.5349696 17.6157542 43.6513733 17.6157542 43.7677769 17.6157542zM25.5700044 5.19936357C25.6476069 5.19936357 25.7252093 5.19936357 25.7640105 5.19936357 25.9580166 5.16056235 26.0744203 5.19936357 26.0356191 5.43217089 26.0356191 5.54857456 26.1132215 5.66497822 26.2296252 5.66497822 26.3460288 5.70377944 26.5012337 5.66497822 26.5788362 5.54857456 26.6564386 5.43217089 26.6952398 5.27696601 26.5788362 5.12176113 26.4624325 4.96655625 26.3072276 4.8889538 26.1132215 4.81135136 25.841613 4.6949477 25.5312032 4.61734526 25.3371971 4.34573672 25.1819922 4.19053183 25.1043898 3.99652573 25.1043898 3.80251963 25.1043898 3.64731474 25.1043898 3.45330864 25.143191 3.29810376 25.2207934 2.91009155 25.492402 2.67728423 25.8804142 2.56088056 25.9968179 2.52207934 26.1132215 2.48327812 26.0744203 2.32807324 26.0744203 2.2504708 26.1132215 2.21166958 26.190824 2.21166958 26.2684264 2.21166958 26.3848301 2.21166958 26.4624325 2.21166958 26.5400349 2.21166958 26.5788362 2.2504708 26.5788362 2.32807324 26.5400349 2.52207934 26.6564386 2.56088056 26.8116435 2.56088056 27.3160594 2.67728423 27.5100655 2.91009155 27.5488667 3.49210986 27.5488667 3.64731474 27.5100655 3.68611596 27.3548606 3.64731474 27.2384569 3.64731474 27.1608545 3.64731474 27.0444508 3.64731474 26.8116435 3.68611596 26.6176374 3.64731474 26.5788362 3.33690498 26.5788362 3.1817001 26.3848301 3.10409765 26.2296252 3.1817001 26.0744203 3.25930254 25.9968179 3.49210986 26.0744203 3.64731474 26.1132215 3.76371841 26.190824 3.84132085 26.3072276 3.88012207 26.5012337 3.95772451 26.734041 4.07412817 26.9280471 4.15173061 27.6652703 4.42333916 27.8980777 5.47097211 27.3160594 6.0141892 27.1608545 6.16939409 26.9280471 6.24699653 26.6952398 6.28579775 26.5400349 6.32459897 26.5012337 6.36340019 26.5012337 6.51860507 26.5012337 6.59620751 26.5400349 6.7514124 26.4624325 6.79021362 26.3460288 6.82901484 26.190824 6.82901484 26.0744203 6.79021362 25.9968179 6.79021362 26.0356191 6.67380996 26.0356191 6.63500874 26.0744203 6.44100263 25.9968179 6.32459897 25.7640105 6.28579775 25.2207934 6.16939409 25.0267873 5.85898432 25.0267873 5.35456845 25.0267873 5.23816479 25.0655886 5.16056235 25.2207934 5.16056235 25.3759983 5.19936357 25.492402 5.19936357 25.5700044 5.19936357zM3.45330864 27.1608545C3.49210986 27.1608545 3.5697123 27.1608545 3.60851352 27.1608545 3.88012207 27.1608545 3.88012207 27.1608545 3.91892329 27.432463 3.95772451 27.6264691 4.07412817 27.7040716 4.30693549 27.6652703 4.46214038 27.6264691 4.57854404 27.4712642 4.53974282 27.2772581 4.5009416 27.083252 4.34573672 26.9668484 4.15173061 26.8892459 3.88012207 26.7728423 3.60851352 26.6952398 3.3757062 26.5012337 3.14289887 26.3072276 3.02649521 26.1132215 3.02649521 25.8028117 3.02649521 25.5312032 3.02649521 25.2595947 3.14289887 25.0267873 3.29810376 24.79398 3.49210986 24.6387751 3.76371841 24.5611727 3.88012207 24.5223715 3.95772451 24.4835702 3.95772451 24.3283654 3.95772451 24.2119617 3.99652573 24.1731605 4.11292939 24.1731605 4.19053183 24.1731605 4.26813427 24.1731605 4.34573672 24.1731605 4.42333916 24.1731605 4.5009416 24.2119617 4.46214038 24.2895641 4.42333916 24.444769 4.53974282 24.4835702 4.65614648 24.5223715 5.12176113 24.5999739 5.43217089 24.9879861 5.43217089 25.4536008 5.43217089 25.5700044 5.39336967 25.6088056 5.27696601 25.6088056 5.08295991 25.6088056 4.8889538 25.6088056 4.6949477 25.6088056 4.61734526 25.6088056 4.53974282 25.6088056 4.53974282 25.492402 4.53974282 25.4536008 4.5009416 25.4536008 4.5009416 25.4147995 4.5009416 25.2595947 4.42333916 25.1819922 4.26813427 25.143191 4.15173061 25.143191 4.03532695 25.1819922 3.99652573 25.2983959 3.91892329 25.4147995 3.91892329 25.5700044 3.99652573 25.6864081 4.11292939 25.841613 4.30693549 25.9192154 4.5009416 25.9968179 4.6949477 26.0744203 4.8889538 26.1520227 5.08295991 26.2296252 5.50977334 26.4624325 5.58737578 26.9668484 5.54857456 27.3936618 5.47097211 27.8592764 5.27696601 28.1696862 4.61734526 28.2472886 4.5009416 28.2472886 4.46214038 28.2860899 4.46214038 28.4412948 4.46214038 28.5188972 4.46214038 28.5576984 4.46214038 28.6353009 4.46214038 28.7517045 4.42333916 28.7905057 4.34573672 28.7905057 4.30693549 28.7905057 4.26813427 28.7905057 4.22933305 28.7905057 3.99652573 28.7905057 3.95772451 28.7905057 3.99652573 28.5576984 3.99652573 28.3636923 3.95772451 28.3248911 3.76371841 28.2860899 3.1817001 28.1696862 2.98769399 27.8204752 2.98769399 27.2772581 2.98769399 27.1996557 3.02649521 27.1608545 3.10409765 27.1608545 3.1817001 27.1608545 3.29810376 27.1608545 3.45330864 27.1608545zM44.5050001 41.9829208C44.4273977 41.9829208 44.3497952 41.9829208 44.2721928 41.9829208 44.1169879 41.9829208 44.0393855 41.9829208 44.0393855 41.7889147 44.0393855 41.5949086 43.8841806 41.4785049 43.6901745 41.5173061 43.5349696 41.5561073 43.4185659 41.7501134 43.4573672 41.9053183 43.4961684 42.0605232 43.5737708 42.1381257 43.6901745 42.2157281 43.8841806 42.2933305 44.0781867 42.4097342 44.2721928 42.4485354 44.660205 42.6037403 45.009416 42.9917525 45.009416 43.4961684 45.009416 44.1557891 44.660205 44.5438013 44.0781867 44.6214038 43.9229818 44.660205 43.9229818 44.7378074 43.9229818 44.8542111 43.9229818 44.9318135 43.961783 45.0482172 43.8841806 45.0870184 43.7677769 45.1258196 43.6513733 45.1258196 43.5349696 45.0870184 43.4573672 45.0870184 43.4961684 45.009416 43.4961684 44.9318135 43.4961684 44.6214038 43.4961684 44.6214038 43.1857586 44.5438013 42.6813427 44.4273977 42.4485354 44.1169879 42.4873366 43.612572 42.4873366 43.4961684 42.5261379 43.4573672 42.6425415 43.4573672 42.8365476 43.4573672 43.0305537 43.4573672 43.2245598 43.4573672 43.3409635 43.4573672 43.4185659 43.4961684 43.4185659 43.6513733 43.4185659 43.8065781 43.4961684 43.9229818 43.6513733 43.961783 43.8065781 44.0005842 43.9229818 43.961783 44.0005842 43.8453794 44.1169879 43.6901745 44.0393855 43.4573672 43.8841806 43.3409635 43.6901745 43.1857586 43.4185659 43.1081562 43.1857586 42.9917525 42.7977464 42.8365476 42.5649391 42.5649391 42.5261379 42.1381257 42.4873366 41.672511 42.5649391 41.2456976 43.0305537 40.974089 43.1081562 40.9352878 43.2245598 40.8964866 43.3409635 40.8576854 43.4573672 40.8188841 43.5349696 40.7800829 43.4961684 40.6636793 43.4961684 40.5472756 43.5349696 40.5084744 43.6513733 40.5084744 43.8065781 40.5084744 44.0005842 40.4308719 43.961783 40.7412817 43.961783 40.8188841 44.0005842 40.8188841 44.0781867 40.8188841 44.2333916 40.8576854 44.4273977 40.8964866 44.5826026 40.974089 44.8930123 41.1680951 44.9706148 41.4785049 45.009416 41.8277159 45.009416 41.9053183 44.9706148 41.9441195 44.8930123 41.9441195 44.7378074 41.9829208 44.6214038 41.9829208 44.5050001 41.9829208z"/>
    </g>
  </g>
</svg>
