<svg xmlns="http://www.w3.org/2000/svg" width="84" height="84" viewBox="0 0 84 84">
  <g fill="none" fill-rule="evenodd">
    <path fill="#FFF" d="M42,84 C18.8040405,84 0,65.1959595 0,42 C0,18.8040405 18.8040405,0 42,0 C65.1959595,0 84,18.8040405 84,42 C84,65.1959595 65.1959595,84 42,84 Z"/>
    <path fill="#F3F3F4" fill-rule="nonzero" d="M42,81 C63.5391052,81 81,63.5391052 81,42 C81,20.4608948 63.5391052,3 42,3 C20.4608948,3 3,20.4608948 3,42 C3,63.5391052 20.4608948,81 42,81 Z M42,84 C18.8040405,84 0,65.1959595 0,42 C0,18.8040405 18.8040405,0 42,0 C65.1959595,0 84,18.8040405 84,42 C84,65.1959595 65.1959595,84 42,84 Z"/>
    <g fill-rule="nonzero" transform="translate(20 20)">
      <rect width="34.096" height="44.237" x=".027" fill="#BFA380"/>
      <rect width="6.199" height="44.237" x=".027" fill="#6B5B4B"/>
      <rect width="17.048" height="9.153" x="11.651" y="7.627" fill="#EDEADA"/>
      <rect width="10.849" height="1.525" x="14.751" y="9.915" fill="#CEC9AE"/>
      <rect width="10.849" height="1.525" x="14.751" y="12.966" fill="#CEC9AE"/>
      <rect width="3.1" height="3.051" x="38.773" y="5.339" fill="#E0E1E2"/>
      <path fill="#D75A4A" d="M41.8728814,0 L40.3114271,0 C40.0991003,0 39.8968475,0.0427118644 39.7124176,0.118983051 C39.6202027,0.157118644 39.5326373,0.203644068 39.4512712,0.258559322 C39.0421159,0.530847458 38.7732203,0.991525424 38.7732203,1.51398305 L38.7732203,5.33898305 L41.8728814,5.33898305 L41.8728814,0 Z"/>
      <rect width="3.1" height="28.983" x="41.873" y="8.39" fill="#F19049"/>
      <rect width="3.1" height="3.051" x="41.873" y="5.339" fill="#C4C4C4"/>
      <path fill="#D75A4A" d="M44.9725424,1.51398305 L44.9725424,1.51398305 C44.9725424,0.991525424 44.7036468,0.530847458 44.2944915,0.258559322 C44.7036468,0.530847458 44.9725424,0.991525424 44.9725424,1.51398305 Z"/>
      <path fill="#B74C44" d="M44.9725424,5.33898305 L44.9725424,1.51398305 C44.9725424,0.991525424 44.7036468,0.530847458 44.2944915,0.258559322 C44.2131254,0.20440678 44.1247851,0.157118644 44.0333451,0.118983051 C43.8489153,0.0427118644 43.6466624,0 43.4343356,0 L41.8728814,0 L41.8728814,5.33898305 L44.9725424,5.33898305 Z"/>
      <polygon fill="#EBD6BD" points="44.973 37.373 38.773 37.373 41.873 42.712"/>
      <path fill="#4C4C4C" d="M41.0979661,44.2372881 C41.0979661,44.6590678 41.4443532,45 41.8728814,45 C42.3014095,45 42.6477966,44.6590678 42.6477966,44.2372881 L42.6477966,41.1864407 L41.0979661,41.1864407 L41.0979661,44.2372881 Z"/>
      <rect width="3.1" height="28.983" x="38.773" y="8.39" fill="#FF974B"/>
    </g>
  </g>
</svg>
