<svg xmlns="http://www.w3.org/2000/svg" width="110" height="110" viewBox="0 0 110 110">
  <g fill="none" fill-rule="evenodd">
    <path fill="#FFF" d="M55,110 C24.6243388,110 0,85.3756612 0,55 C0,24.6243388 24.6243388,0 55,0 C85.3756612,0 110,24.6243388 110,55 C110,85.3756612 85.3756612,110 55,110 Z"/>
    <path fill="#F3F3F4" fill-rule="nonzero" d="M55,107 C83.718807,107 107,83.718807 107,55 C107,26.281193 83.718807,3 55,3 C26.281193,3 3,26.281193 3,55 C3,83.718807 26.281193,107 55,107 Z M55,110 C24.6243388,110 0,85.3756612 0,55 C0,24.6243388 24.6243388,0 55,0 C85.3756612,0 110,24.6243388 110,55 C110,85.3756612 85.3756612,110 55,110 Z"/>
    <g fill-rule="nonzero" transform="translate(17 24)">
      <g transform="translate(0 2)">
        <path fill="#9B4116" d="M3.04464286,32.954839 L21.4678571,32.954839 L22.7232143,12.5983874 C22.5196429,5.85806477 19.5,2.80967768 16.7517857,1.45483897 C13.9357143,0.06612929 10.7125,0.133871226 7.89642857,1.5225809 C1.55178571,4.6725809 1.925,12.5983874 1.925,12.5983874 L3.04464286,32.954839 Z"/>
        <path fill="#EBB98D" d="M15.1571429,22.7935486 L15.1571429,26.2145164 C15.1571429,27.704839 13.9017857,28.9241938 12.3410714,28.9241938 C10.7803571,28.9241938 9.49107143,27.704839 9.49107143,26.2145164 L9.49107143,23.0645164 L15.1571429,22.7935486 Z"/>
        <path fill="#2C2D2D" d="M4.60535714,44.3016132 L4.60535714,37.087097 L5.55535714,44.3016132 L19.5,44.3016132 L20.45,37.087097 L20.45,44.3016132 L22.0446429,44.3016132 C23.4017857,41.9983874 24.2160714,39.3903228 24.2160714,36.9854841 C24.2160714,31.904839 20.6535714,27.637097 15.8017857,26.2483874 C14.7160714,25.9435486 13.5285714,27.5354841 12.3410714,27.5354841 C11.1196429,27.5354841 9.93214286,25.9435486 8.8125,26.2822583 C3.99464286,27.7387099 0.567857143,32.1419357 0.567857143,37.1887099 C0.567857143,38.6451615 0.839285714,41.4225809 1.38214286,44.3016132 L4.60535714,44.3016132 L4.60535714,44.3016132 Z"/>
        <path fill="#2C2D2D" d="M21.7392857,36.6467745 L24.25,36.6467745 C24.25,36.6467745 24.4535714,32.7516132 21.3660714,29.6354841 C21.3660714,29.6354841 19.9410714,27.8403228 16.7178571,26.4854841 L16.7178571,28.3822583 L19.5339286,33.6322583 L19.7714286,36.6467745 L21.7392857,36.6467745 L21.7392857,36.6467745 Z"/>
        <rect width="3.834" height="7.824" x="20.382" y="36.477" fill="#2C2D2D"/>
        <rect width="3.834" height="6.91" x=".568" y="37.392" fill="#2C2D2D"/>
        <path fill="#E8E7E7" d="M17.8374996,44.3016125 L19.5678567,28.6193544 C19.5678567,28.6193544 18.2446424,26.8241931 15.0214281,25.909677 C15.0214281,25.909677 15.1232139,27.5016125 12.3071424,27.6032254 C12.3071424,27.6032254 9.83035671,28.3483867 9.66071386,26.0451609 C9.66071386,26.0112899 7.08214243,26.6548383 4.84285671,28.7548383 L6.60714243,44.3016125 L17.8374996,44.3016125 L17.8374996,44.3016125 Z"/>
        <path fill="#F5C08E" d="M12.3749996,1.18387055 C17.803571,1.18387055 22.2142853,6.23064474 22.2142853,12.4629028 C22.2142853,18.6951609 17.803571,23.7419351 12.3749996,23.7419351 C6.94642814,23.7419351 2.53571386,18.6951609 2.53571386,12.4629028 C2.50178529,6.23064474 6.91249957,1.18387055 12.3749996,1.18387055"/>
        <path fill="#F5C08E" d="M3.89285671,12.3274189 C5.38571386,12.3274189 6.60714243,13.5467738 6.60714243,15.0370964 C6.60714243,16.5274189 5.38571386,17.7467738 3.89285671,17.7467738 C2.39999957,17.7467738 1.178571,16.5274189 1.178571,15.0370964 C1.178571,13.5467738 2.39999957,12.3274189 3.89285671,12.3274189"/>
        <path fill="#EBB98D" d="M23.8767853,15.0370964 C23.8767853,16.5274189 22.6553567,17.7467738 21.1624996,17.7467738 C19.6696424,17.7467738 18.041071,16.459677 18.4482139,15.0370964 C18.9571424,13.2419351 19.6696424,12.3274189 21.1624996,12.3274189 C22.6553567,12.3274189 23.8767853,13.5467738 23.8767853,15.0370964"/>
        <path fill="#FFF" d="M10.0678567,18.6612899 C10.0678567,19.609677 11.1196424,20.3548383 12.4089281,20.3548383 C13.6982139,20.3548383 14.7499996,19.609677 14.7499996,18.6612899 L10.0678567,18.6612899 Z"/>
        <path fill="#EBB98D" d="M14.3089281,1.42096732 C17.1928567,3.38548345 19.0928567,6.97580603 19.0928567,11.0741931 C19.0928567,17.3064512 14.6821424,22.3532254 9.253571,22.3532254 C8.57499957,22.3532254 7.93035671,22.2516125 7.31964243,22.1161286 C8.81249957,23.1322576 10.5428567,23.7419351 12.3749996,23.7419351 C17.803571,23.7419351 22.2142853,18.6951609 22.2142853,12.4629028 C22.2142853,7.009677 18.8214281,2.47096732 14.3089281,1.42096732"/>
        <path fill="#C8E5E7" d="M21.7053567 16.2564512C21.9428567 16.2564512 22.1464281 16.459677 22.1464281 16.6967738 22.1464281 16.9338705 21.9428567 17.1370964 21.7053567 17.1370964 21.4678567 17.1370964 21.2642853 16.9338705 21.2642853 16.6967738 21.2642853 16.459677 21.4678567 16.2564512 21.7053567 16.2564512M3.21428529 16.2564512C3.45178529 16.2564512 3.65535671 16.459677 3.65535671 16.6967738 3.65535671 16.9338705 3.45178529 17.1370964 3.21428529 17.1370964 2.97678529 17.1370964 2.77321386 16.9338705 2.77321386 16.6967738 2.77321386 16.459677 2.94285671 16.2564512 3.21428529 16.2564512"/>
        <path fill="#030304" d="M8.74464243 13.1064512C9.253571 13.1064512 9.69464243 13.5467738 9.69464243 14.0548383 9.69464243 14.5967738 9.253571 15.0032254 8.74464243 15.0032254 8.23571386 15.0032254 7.79464243 14.5629028 7.79464243 14.0548383 7.79464243 13.5467738 8.20178529 13.1064512 8.74464243 13.1064512M16.0732139 13.1064512C16.5821424 13.1064512 17.0232139 13.5467738 17.0232139 14.0548383 17.0232139 14.5967738 16.5821424 15.0032254 16.0732139 15.0032254 15.5642853 15.0032254 15.1232139 14.5629028 15.1232139 14.0548383 15.1232139 13.5467738 15.5642853 13.1064512 16.0732139 13.1064512"/>
        <path fill="#9B4116" d="M15.6999996,1.6580641 C15.4624996,10.9725802 5.48749957,8.22903184 3.96071386,15.6806447 C1.00892814,11.6838705 2.33214243,7.38225765 4.503571,4.67258023 C9.18571386,-1.15322623 15.6999996,1.6580641 15.6999996,1.6580641"/>
        <path fill="#9B4116" d="M15.1571424,1.52258023 C10.3392853,0.438709258 18.2446424,8.94032216 19.5678567,10.3967738 C20.8571424,11.8193544 21.3321424,14.4612899 21.3321424,14.4612899 C21.3321424,14.4612899 22.6553567,12.6661286 22.4517853,11.4806447 C22.1803567,10.2612899 22.1803567,3.08064474 15.1571424,1.52258023"/>
        <polygon fill="#FFF" points="7.421 26.858 11.154 29.263 12.375 27.603 9.321 25.673"/>
        <polygon fill="#FFF" points="17.295 26.621 13.461 29.263 12.273 27.603 15.293 25.673"/>
        <path fill="#2C2D2D" d="M19.5000001,44.3016128 L20.4500001,37.0532257 L20.4500001,28.7548386 C19.7714287,28.1112902 18.3125001,27.0612902 16.8535716,26.2822579 L12.3410716,44.3016128 L19.5000001,44.3016128 Z"/>
        <path fill="#2C2D2D" d="M5.52142871,44.3016128 L12.4767859,44.3016128 L7.96428586,26.3499999 C6.47142871,27.1290321 5.04642871,28.1451612 4.36785729,28.8225805 L4.36785729,36.8838708 L4.60535729,37.0870966 L5.52142871,44.3016128 Z"/>
      </g>
      <g transform="translate(50)">
        <path fill="#FFF" d="M3.5642859,38.0370966 C3.5642859,43.5241934 8.0089287,45.5564515 13.5053573,45.5564515 C19.0017859,45.5564515 23.4464287,43.5241934 23.4464287,38.0370966 C23.4464287,32.5499999 19.0017859,28.1129031 13.5053573,28.1129031 C8.0089287,28.0790321 3.5642859,32.5499999 3.5642859,38.0370966"/>
        <path fill="#434144" d="M24.1250001,14.9370966 C24.1250001,20.864516 19.307143,25.4709676 13.4035716,25.6403225 C7.3982144,25.8435483 2.5125001,21.1354837 2.682143,14.9370966 C2.8517859,9.04354826 7.5000001,4.23387084 13.4035716,4.23387084 C19.307143,4.23387084 24.1250001,9.00967729 24.1250001,14.9370966"/>
        <rect width="15.505" height="7.181" x="5.634" y="39.629" fill="#FFF"/>
        <path fill="#CA7C3C" d="M23.9553571,16.1903226 C23.9553571,22.016129 19.2392857,26.7241935 13.4035714,26.7241935 C7.56785714,26.7241935 2.85178571,22.016129 2.85178571,16.1903226 C2.85178571,10.3645161 7.56785714,5.65645161 13.4035714,5.65645161 C19.2053571,5.65645161 23.9553571,10.3645161 23.9553571,16.1903226"/>
        <path fill="#1E1E1C" d="M8.51785714 16.9354839C8.51785714 17.3758065 8.14464286 17.7483871 7.70357143 17.7483871 7.2625 17.7483871 6.88928571 17.3758065 6.88928571 16.9354839 6.88928571 16.4951613 7.2625 16.1225806 7.70357143 16.1225806 8.14464286 16.1225806 8.51785714 16.4951613 8.51785714 16.9354839M20.0535714 16.9354839C20.0535714 17.3758065 19.6803571 17.7483871 19.2392857 17.7483871 18.7982143 17.7483871 18.425 17.3758065 18.425 16.9354839 18.425 16.4951613 18.7982143 16.1225806 19.2392857 16.1225806 19.6803571 16.1225806 20.0535714 16.4951613 20.0535714 16.9354839"/>
        <path fill="#AF6C3F" d="M15.4732143,5.85967742 C18.5607143,7.68870968 20.5964286,11.0419355 20.5964286,14.9032258 C20.5964286,20.7290323 15.8803571,25.4370968 10.0446429,25.4370968 C9.33214286,25.4370968 8.61964286,25.3693548 7.94107143,25.233871 C9.53571429,26.1822581 11.3678571,26.7580645 13.3696429,26.7580645 C19.2053571,26.7580645 23.9214286,22.05 23.9214286,16.2241935 C23.9553571,11.0758065 20.325,6.80806452 15.4732143,5.85967742"/>
        <path fill="#CA7C3C" d="M6.21071429,18.3580645 C6.21071429,19.916129 4.95535714,21.1693548 3.39464286,21.1693548 C1.83392857,21.1693548 0.578571429,19.916129 0.578571429,18.3580645 C0.578571429,16.8 1.83392857,15.5467742 3.39464286,15.5467742 C4.95535714,15.5467742 6.21071429,16.8 6.21071429,18.3580645"/>
        <path fill="#AF6C3F" d="M26.4660714,18.3580645 C26.4660714,19.916129 25.2107143,21.1693548 23.65,21.1693548 C22.0892857,21.1693548 20.8339286,19.916129 20.8339286,18.3580645 C20.8339286,16.8 22.0892857,15.5467742 23.65,15.5467742 C25.1767857,15.5467742 26.4660714,16.8 26.4660714,18.3580645"/>
        <path fill="#EAA788" d="M13.4035714,22.4903226 C11.0625,22.4903226 10.2142857,21.3048387 10.1803571,21.2709677 C10.1125,21.1693548 10.1464286,21 10.2482143,20.9322581 C10.35,20.8645161 10.5196429,20.8983871 10.5875,21 C10.6214286,21.033871 11.3339286,22.016129 13.4035714,22.016129 C15.4732143,22.016129 16.1857143,21.0677419 16.2196429,21 C16.2875,20.8983871 16.4571429,20.8645161 16.5589286,20.9322581 C16.6607143,21 16.6946429,21.1693548 16.6267857,21.2709677 C16.5928571,21.3048387 15.7785714,22.4903226 13.4035714,22.4903226"/>
        <path fill="#AF6C3F" d="M11.2660714,26.0806452 L11.2660714,28.8919355 C11.2660714,30.1112903 12.2839286,31.1274194 13.5053571,31.1274194 C14.7267857,31.1274194 15.7446429,30.1112903 15.7446429,28.8919355 L15.7446429,26.283871 L11.2660714,26.0806452 Z"/>
        <path fill="#FFF" d="M8.72142857,36.4451613 L8.72142857,45.5903226 L8.72142857,45.5903226 C8.72142857,45.9967742 8.78928571,46.3693548 8.85714286,46.7419355 L5.6,46.7419355 L5.6,44.066129 C4.31071429,42.3725806 3.53035714,40.2725806 3.53035714,38.0032258 C3.53035714,33.2951613 6.82142857,29.3322581 11.2660714,28.316129 L11.2660714,28.8580645 C11.2660714,29.4677419 11.5035714,30.0435484 11.9107143,30.45 C10.0107143,31.7709677 8.72142857,33.9725806 8.72142857,36.4451613"/>
        <path fill="#293051" d="M7.2625,45.7596774 C6.65178571,45.2516129 6.075,44.6758065 5.6,44.0322581 C5.49821429,43.8967742 5.43035714,43.7951613 5.32857143,43.6596774 C5.29464286,43.6258065 5.26071429,43.5919355 5.26071429,43.5580645 C5.15892857,43.4225806 5.09107143,43.2870968 5.02321429,43.1516129 C4.98928571,43.1177419 4.98928571,43.083871 4.95535714,43.05 C4.8875,42.9145161 4.78571429,42.7790323 4.71785714,42.6096774 C4.71785714,42.5758065 4.68392857,42.5419355 4.68392857,42.5080645 C4.61607143,42.3387097 4.51428571,42.2032258 4.44642857,42.033871 C4.44642857,42.033871 4.44642857,42 4.4125,42 L6.7875,42 L6.7875,36.4451613 C6.7875,35.0564516 6.24464286,33.2274194 5.70178571,31.9064516 C6.38035714,31.0258065 7.19464286,30.2806452 8.14464286,29.7048387 L13.4035714,37.5967742 L18.7642857,29.5693548 C19.7142857,30.1451613 20.5964286,30.9241935 21.3089286,31.7709677 C20.8339286,33.0919355 20.3589286,35.0225806 20.3589286,36.4451613 L20.3589286,37.766129 L20.3589286,42 L22.7,42 C22.7,42 22.7,42.033871 22.6660714,42.033871 C22.5982143,42.2032258 22.5303571,42.3725806 22.4285714,42.5080645 C22.4285714,42.5419355 22.3946429,42.5758065 22.3946429,42.6096774 C22.3267857,42.7451613 22.225,42.8806452 22.1571429,43.05 C22.1232143,43.083871 22.1232143,43.1177419 22.0892857,43.1516129 C22.0214286,43.2870968 21.9196429,43.4225806 21.8517857,43.5580645 C21.8178571,43.5919355 21.7839286,43.6258065 21.7839286,43.6596774 C21.6821429,43.7951613 21.6142857,43.8967742 21.5125,44.0322581 C21.0375,44.6758065 21.9196429,44.7774194 21.3089286,45.2854839 L21.2410714,45.7596774 L21.275,46.8435484 L5.76964286,46.8435484 L5.73571429,45.7596774 L7.2625,45.7596774 L7.2625,45.7596774 Z"/>
        <path fill="#FFF" d="M12.8607143 39.866129C12.8607143 40.1370968 13.0642857 40.3403226 13.3357143 40.3403226 13.6071429 40.3403226 13.8107143 40.1370968 13.8107143 39.866129 13.8107143 39.5951613 13.6071429 39.3919355 13.3357143 39.3919355 13.0982143 39.3919355 12.8607143 39.5951613 12.8607143 39.866129M12.8607143 43.7612903C12.8607143 44.0322581 13.0642857 44.2354839 13.3357143 44.2354839 13.6071429 44.2354839 13.8107143 44.0322581 13.8107143 43.7612903 13.8107143 43.4903226 13.6071429 43.2870968 13.3357143 43.2870968 13.0982143 43.2532258 12.8607143 43.4903226 12.8607143 43.7612903"/>
        <path fill="#293051" d="M6.75357143,42 L6.75357143,36.4451613 C6.75357143,35.0564516 6.21071429,33.2274194 5.66785714,31.9064516 C5.70178571,31.8725806 5.70178571,31.8387097 5.73571429,31.8387097 C5.76964286,31.8048387 5.76964286,31.8048387 5.80357143,31.7709677 C5.87142857,31.6693548 5.93928571,31.6016129 6.04107143,31.5 C6.04107143,31.5 6.04107143,31.5 6.075,31.466129 C6.68571429,30.7887097 7.36428571,30.1790323 8.14464286,29.6709677 L9.97678571,32.4483871 C9.19642857,33.6 8.75535714,34.9548387 8.75535714,36.4451613 L8.75535714,45.5903226 L8.75535714,45.5903226 C8.75535714,45.9967742 8.82321429,46.3693548 8.89107143,46.7419355 L5.63392857,46.7419355 L5.63392857,45.7258065 L5.63392857,45.2516129 C5.02321429,44.7774194 5.56607143,44.7435484 5.63392857,44.066129 L5.39642857,44.0322581 C4.8875,43.3887097 4.71785714,42.7112903 4.37857143,41.966129 L6.75357143,42 Z"/>
        <path fill="#434144" d="M3.36071429,18.7306452 C3.36071429,18.7306452 2.41071429,12.3967742 4.98928571,11.2790323 C4.98928571,11.2790323 6.3125,10.4322581 8.58571429,10.2967742 C9.50178571,10.2629032 10.4178571,10.3645161 11.3,10.5677419 C12.1142857,10.7709677 13.6071429,10.9741935 15.1678571,10.6016129 C15.4392857,10.533871 15.6767857,10.3983871 15.9482143,10.3306452 C17.1017857,9.99193548 19.3071429,10.0596774 21.1732143,10.7709677 C21.75,10.9741935 22.2589286,11.3806452 22.5642857,11.9225806 C23.1071429,12.9048387 23.7178571,14.8693548 23.5142857,18.5612903 C23.5142857,18.5612903 25.55,14.4629032 22.6660714,9.41612903 C22.6660714,9.41612903 23.5482143,8.06129032 22.6660714,5.99516129 C22.225,4.91129032 21.3767857,4.06451613 20.3589286,3.48870968 C19.1375,2.77741935 17.2714286,1.49032258 17.5089286,0.101612903 C17.5089286,0.101612903 16.6607143,1.72741935 12.0464286,1.86290323 L11.0964286,1.86290323 C10.0107143,1.82903226 5.70178571,2.03225806 3.49642857,6.23225806 C3.15714286,6.87580645 2.9875,7.62096774 3.12321429,8.33225806 C3.225,8.87419355 3.4625,9.45 4.07321429,9.82258065 C4.00535714,9.85645161 1.35892857,12.3629032 3.36071429,18.7306452"/>
        <rect width="1" height="4.335" x="20.291" y="37.8" fill="#293051"/>
        <path fill="#293051" d="M21.2410714,31.7709677 C21.2410714,31.7709677 21.1392857,34.2435484 21.1392857,37.8 L20.2910714,37.8 C20.2910714,37.8 19.6803571,33.4306452 21.2410714,31.7709677"/>
        <rect width="2.273" height="4.335" x="5.464" y="37.935" fill="#293051"/>
        <path fill="#293051" d="M5.6678576,31.9064513 C5.6678576,31.9064513 5.7696433,34.3790319 5.7696433,37.9354835 L7.1607147,37.9354835 C7.1607147,37.9354835 7.2285719,33.5661287 5.6678576,31.9064513"/>
        <path fill="#293051" d="M6.2785719 31.2290319C4.5142861 33.0919351 3.3607147 34.8870964 3.3607147 37.8338706L3.3607147 46.843548 7.3642861 46.843548 6.2785719 31.2290319zM20.7321433 31.2290319C22.496429 33.0919351 23.6500004 34.8870964 23.6500004 37.8338706L23.6500004 46.843548 19.646429 46.843548 20.7321433 31.2290319z"/>
      </g>
      <g transform="translate(25 15)">
        <path fill="#A3D8E7" d="M26.0535714,47.6951613 C26.2910714,46.5435484 26.4267857,45.3919355 26.4267857,44.2741935 C26.4267857,37.1951613 20.9303571,31.233871 14.1785714,31.233871 C7.4946429,31.233871 2.1339286,37.2290323 2.1339286,44.2741935 C2.1339286,45.3919355 2.2696429,46.5435484 2.5071429,47.6951613 L26.0535714,47.6951613 Z"/>
        <path fill="#9CCFDD" d="M26.0535714,47.6951613 C26.2910714,46.5435484 26.4267857,45.3919355 26.4267857,44.2741935 C26.4267857,37.466129 21.6089286,31.7419355 15.2303571,31.3693548 L15.0946429,47.6951613 L26.0535714,47.6951613 L26.0535714,47.6951613 Z"/>
        <path fill="#A3D8E7" d="M26.0196429,47.6951613 C26.2232143,46.8483871 26.325,45.9677419 26.3928571,45.1548387 C25.9517857,45.2903226 25.5107143,45.3919355 25.0357143,45.3919355 C22.7285714,45.3919355 20.8964286,43.1903226 20.8964286,40.7854839 L20.8964286,40.616129 L20.8964286,33.3 C18.9964286,32.0129032 16.7232143,31.233871 14.3142857,31.233871 C11.9392857,31.233871 9.7,31.9790323 7.8339286,33.2322581 L7.8339286,40.616129 L7.8339286,40.7854839 C7.8339286,43.1903226 5.9678571,45.3919355 3.6946429,45.3919355 C3.1857143,45.3919355 2.6767857,45.2903226 2.2357143,45.1209677 C2.3035714,45.9677419 2.4053571,46.8145161 2.6089286,47.6951613 L26.0196429,47.6951613 Z"/>
        <path fill="#9CCFDD" d="M19.9464286,41.3951613 L19.9464286,47.7290323 L25.9857143,47.7290323 C26.2232143,46.4080645 26.3928571,45.1548387 26.4267857,44.2741935 C25.9857143,44.4435484 25.5446429,44.5112903 25.0696429,44.5112903 C22.7964286,44.5112903 20.9303571,42.4451613 20.9303571,40.2096774 L20.9303571,40.0403226 L20.9303571,33.333871 C19.7767857,32.5209677 17.9446429,31.6741935 16.1803571,31.4370968 L15.9089286,32.1822581 C15.3321429,32.216129 15.6714286,32.1145161 15.1625,32.5887097 C17.5035714,34.1467742 19.9464286,38.4145161 19.9464286,41.3951613 Z"/>
        <path fill="#F3A68A" d="M8.51250043,18.5999996 C8.51250043,20.0564513 7.358929,21.2080642 5.96785757,21.2080642 C4.57678614,21.2080642 3.42321471,20.0225803 3.42321471,18.5999996 C3.42321471,17.177419 4.57678614,15.9919351 5.96785757,15.9919351 C7.358929,15.9919351 8.51250043,17.143548 8.51250043,18.5999996"/>
        <path fill="#F3A68A" d="M14.2803576,28.9645158 C9.70000043,28.9645158 5.73035757,24.2903222 5.73035757,18.4983867 C5.73035757,12.7064513 9.15714329,6.5758061 14.2803576,6.74516094 C19.4035719,6.5758061 22.8303576,12.7064513 22.8303576,18.4983867 C22.8642861,24.2564513 18.8607147,28.9645158 14.2803576,28.9645158"/>
        <path fill="#432313" d="M5.7642857,8.4048387 C5.7642857,8.4048387 5.7303571,8.3370968 5.6964286,8.2354839 L8.4107143,11.8596774 L7.4946429,12.5709677 L6.375,16.6354839 C6.2732143,17.2451613 5.6625,18.0919355 5.4589286,16.8725806 C5.4589286,16.8725806 5.2553571,14.7387097 5.1535714,12.9096774 C5.0517857,11.0806452 4.9160714,10.3354839 5.1535714,9.6919355 C5.3910714,8.9806452 5.3910714,8.5741935 5.7642857,8.4048387"/>
        <rect width="13.571" height="2.439" x="4.713" y="45.324" fill="#A3D8E7"/>
        <polygon fill="#F3A68A" points="2.168 44.41 2.168 47.763 5.595 47.763 5.595 44.376"/>
        <rect width="3.427" height="3.387" x="23" y="44.376" fill="#F3A68A"/>
        <path fill="#F3A68A" d="M16.9267857,28.7951613 L16.9267857,31.233871 C16.9267857,32.3177419 15.7053571,33.1983871 14.2464286,33.1983871 C12.7535714,33.1983871 11.5660714,32.3177419 11.5660714,31.233871 L11.5660714,28.9645161 L16.9267857,28.7951613 Z"/>
        <polygon fill="#A3D8E7" points="2.168 44.24 2.168 47.763 5.595 47.763 5.595 44.206"/>
        <polygon fill="#9CCFDD" points="5.357 44.24 5.357 47.763 5.757 47.763 5.757 44.206"/>
        <rect width="3.427" height="3.387" x="23" y="44.376" fill="#9CCFDD"/>
        <rect width="1" height="3.387" x="23" y="44.376" fill="#96C6D3"/>
        <polygon fill="#EA4E50" points="14.179 35.637 12.686 34.621 14.179 33.131 15.671 34.621"/>
        <path fill="#BEE3ED" d="M19.5392857 32.25L17.1642857 30.7258065 14.2464286 33.1983871 15.7053571 34.9258065C15.7732143 35.1290323 16.0107143 35.1629032 16.1464286 34.9935484L19.5392857 32.25zM8.9196429 32.25L11.2946429 30.7258065 14.2125 33.1983871 12.7535714 34.9258065C12.6857143 35.1290323 12.4482143 35.1629032 12.3125 34.9935484L8.9196429 32.25z"/>
        <polygon fill="#EA4E50" points="13.67 34.79 13.025 47.763 15.366 47.763 14.721 34.79"/>
        <path fill="#F3A68A" d="M25.4767853,18.5999998 C25.4767853,20.0564515 24.3232139,21.2080644 22.9321424,21.2080644 C21.541071,21.2080644 20.3874996,20.0225805 20.3874996,18.5999998 C20.3874996,17.1774192 21.541071,15.9919353 22.9321424,15.9919353 C24.3232139,15.9919353 25.4767853,17.1435482 25.4767853,18.5999998"/>
        <path fill="#020203" d="M9.56428529 17.2112902C9.59821386 17.7532256 10.0732139 18.1596773 10.616071 18.1258063 11.1589281 18.0919353 11.566071 17.6177418 11.5321424 17.0758063 11.4982139 16.5338708 11.0232139 16.1274192 10.4803567 16.1612902 9.9374996 16.1612902 9.53035671 16.6354837 9.56428529 17.2112902M16.6892853 17.2112902C16.7232139 17.7532256 17.1982139 18.1596773 17.741071 18.1258063 18.2839281 18.0919353 18.691071 17.6177418 18.6571424 17.0758063 18.6232139 16.5338708 18.1482139 16.1274192 17.6053567 16.1612902 17.028571 16.1612902 16.6214281 16.6354837 16.6892853 17.2112902"/>
        <path fill="#432313" d="M22.728571,7.72741919 C22.728571,7.72741919 25.6124996,1.79999984 15.9089281,0.919354677 C15.9089281,0.919354677 11.9732139,0.512903065 7.35892814,2.13870952 C7.291071,2.17258048 7.25714243,2.27419339 7.35892814,2.30806435 L8.10535671,2.61290306 C8.10535671,2.61290306 5.59464243,3.59516113 3.52499957,1.5290321 C3.42321386,1.42741919 3.21964243,1.46129016 3.18571386,1.59677403 C3.08392814,1.90161274 3.016071,2.40967726 3.32142814,2.91774177 C3.32142814,2.91774177 1.591071,3.42580629 0.437499571,1.15645145 C0.369642429,1.05483855 0.233928143,1.05483855 0.199999571,1.19032242 C-0.0375004286,2.27419339 -0.241071857,5.9322579 5.66249957,10.6403224 L6.71428529,11.114516 C6.71428529,11.114516 12.4821424,14.6709676 19.9464281,11.046774 L20.9982139,11.8596773 L22.3214281,17.1774192 C22.4232139,17.380645 22.9321424,18.2612902 23.1357139,16.5677418 C23.1357139,16.5677418 23.5767853,14.5016127 23.7124996,12.6725805 C23.8142853,10.8435482 23.9499996,9.65806435 23.7124996,8.980645 C23.441071,8.30322565 23.0678567,7.89677403 22.728571,7.72741919"/>
        <path fill="#3A1E14" d="M23.1357139,5.99999984 C23.1357139,5.99999984 16.7571424,8.980645 8.64821386,5.18709661 C8.64821386,5.18709661 10.5142853,7.45645145 12.7874996,7.79516113 C12.7874996,7.79516113 8.74999957,8.09999984 4.98392814,5.18709661 C4.98392814,5.18709661 5.628571,8.50645145 8.54642814,9.11612887 C8.54642814,9.11612887 3.52499957,9.45483855 0.471428143,4.20483855 C0.471428143,4.20483855 3.491071,12.4354837 12.2446424,12.6725805 C12.278571,12.6725805 22.3214281,13.3838708 23.1357139,5.99999984"/>
        <path fill="#432313" d="M14.0089281,21.0725805 L12.2107139,21.0725805 C11.4642853,21.0725805 10.7517853,21.3096773 10.1749996,21.7499998 L8.953571,22.6983869 C8.88571386,22.7661289 8.81785671,22.7999998 8.716071,22.8338708 C8.17321386,23.0370966 7.59642814,22.7999998 7.25714243,22.3258063 L5.93392814,20.7677418 C5.89999957,20.6999998 5.79821386,20.7338708 5.83214243,20.8016127 L6.103571,24.7983869 C6.13749957,25.1032256 6.23928529,25.4080644 6.40892814,25.6451611 L9.15714243,29.6758063 C9.903571,30.7596773 11.091071,31.4032256 12.4142853,31.4032256 L14.0089281,31.4032256 L14.0089281,21.0725805 L14.0089281,21.0725805 Z"/>
        <path fill="#432313" d="M13.7374996,21.0725805 L16.2821424,21.0725805 C17.028571,21.0725805 17.741071,21.3096773 18.3178567,21.7499998 L19.5392853,22.6983869 C19.6071424,22.7661289 19.6749996,22.7999998 19.7767853,22.8338708 C20.3196424,23.0370966 20.8964281,22.7999998 21.2357139,22.3258063 L22.5589281,20.7677418 C22.5928567,20.6999998 22.6946424,20.7338708 22.6607139,20.8016127 L22.3892853,24.7983869 C22.3553567,25.1032256 22.253571,25.4080644 22.0839281,25.6451611 L19.3357139,29.6758063 C18.5892853,30.7596773 17.4017853,31.4032256 16.078571,31.4032256 L13.7374996,31.4032256 L13.7374996,21.0725805 Z"/>
        <path fill="#FFF" d="M16.5196424,23.3419353 L11.803571,23.3419353 C11.803571,23.3419353 11.3964281,25.9499998 14.1446424,25.9499998 C14.1446424,25.9499998 16.7232139,25.9499998 16.5196424,23.3419353"/>
        <polygon fill="#FFF" points="11.804 23.308 11.804 23.884 16.52 23.884 16.52 23.308"/>
        <path fill="#FFF" d="M15.128571,25.746774 C15.128571,25.746774 14.9928567,25.0693547 14.0428567,25.0693547 C14.0428567,25.0693547 13.228571,25.0354837 12.991071,25.746774 C13.0249996,25.746774 14.0089281,26.1870966 15.128571,25.746774"/>
      </g>
    </g>
  </g>
</svg>
