<svg xmlns="http://www.w3.org/2000/svg" width="110" height="110" viewBox="0 0 110 110">
  <g fill="none" fill-rule="evenodd">
    <path fill="#FFF" d="M55,110 C24.6243388,110 0,85.3756612 0,55 C0,24.6243388 24.6243388,0 55,0 C85.3756612,0 110,24.6243388 110,55 C110,85.3756612 85.3756612,110 55,110 Z"/>
    <path fill="#F3F3F4" fill-rule="nonzero" d="M55,107 C83.718807,107 107,83.718807 107,55 C107,26.281193 83.718807,3 55,3 C26.281193,3 3,26.281193 3,55 C3,83.718807 26.281193,107 55,107 Z M55,110 C24.6243388,110 0,85.3756612 0,55 C0,24.6243388 24.6243388,0 55,0 C85.3756612,0 110,24.6243388 110,55 C110,85.3756612 85.3756612,110 55,110 Z"/>
    <g fill-rule="nonzero" transform="translate(31 24)">
      <path fill="#C1BFBD" d="M27.3198113,46.2308824 L21.495283,46.2308824 C20.940566,46.2308824 20.5245283,45.8139706 20.5245283,45.2580882 L20.5245283,43.3125 L28.3367925,43.3125 L28.3367925,45.2580882 C28.290566,45.8139706 27.8283019,46.2308824 27.3198113,46.2308824 L27.3198113,46.2308824 Z"/>
      <path fill="#EA4D50" d="M11.695283 31.5926471L37.0273585 31.5926471C37.5820755 31.5926471 38.090566 31.3610294 38.4603774 30.9904412 38.8301887 30.5735294 39.0150943 30.0639706 38.9688679 29.5080882L37.4433962 7.59705882C37.1660377 3.52058824 33.745283.324264706 29.6773585.324264706L19.1377358.324264706C15.0698113.324264706 11.6490566 3.52058824 11.3716981 7.59705882L9.8 29.5080882C9.75377358 30.0639706 9.93867925 30.5735294 10.3084906 30.9904412 10.6320755 31.3610294 11.1867925 31.5926471 11.695283 31.5926471L11.695283 31.5926471zM37.9981132 35.5301471L37.9056604 35.5301471 10.8632075 35.5301471 10.7707547 35.5301471C8.55188679 35.5764706 6.88773585 37.2441176 6.88773585 39.4213235 6.88773585 41.6448529 8.64433962 43.3588235 10.909434 43.3588235L37.8132075 43.3588235C40.0783019 43.3588235 41.8349057 41.6911765 41.8349057 39.4213235 41.8811321 37.1977941 40.2169811 35.5301471 37.9981132 35.5301471L37.9981132 35.5301471z"/>
      <path fill="#DADADA" d="M35.0858491,46.2308824 L32.5896226,46.2308824 L29.6773585,43.3125 L28.290566,43.3125 L28.290566,44.7022059 L31.4801887,47.8985294 C31.6650943,48.0838235 31.8962264,48.1764706 32.1735849,48.1764706 L35.0858491,48.1764706 C35.640566,48.1764706 36.0566038,47.7595588 36.0566038,47.2036765 C36.0566038,46.6941176 35.640566,46.2308824 35.0858491,46.2308824 L35.0858491,46.2308824 Z"/>
      <g fill="#C1BFBD" transform="translate(0 25.478)">
        <path d="M7.81226415 3.19632353C7.81226415 3.75220588 7.39622642 4.16911765 6.84150943 4.16911765L.970754717 4.16911765C.462264151 4.16911765 0 3.75220588 0 3.19632353L0 1.25073529C0 .694852941.416037736.277941176.970754717.277941176L6.79528302.277941176C7.35.277941176 7.76603774.694852941 7.76603774 1.25073529L7.76603774 3.19632353 7.81226415 3.19632353zM48.7226415 3.19632353C48.7226415 3.75220588 48.3066038 4.16911765 47.7518868 4.16911765L41.9273585 4.16911765C41.3726415 4.16911765 40.9566038 3.75220588 40.9566038 3.19632353L40.9566038 1.25073529C40.9566038.694852941 41.3726415.277941176 41.9273585.277941176L47.7518868.277941176C48.3066038.277941176 48.7226415.694852941 48.7226415 1.25073529L48.7226415 3.19632353z"/>
      </g>
      <path fill="#676767" d="M27.3198113 59.9426471C27.3198113 61.5639706 26.0254717 62.8610294 24.4075472 62.8610294 22.7896226 62.8610294 21.495283 61.5639706 21.495283 59.9426471 21.495283 58.3213235 22.7896226 57.0242647 24.4075472 57.0242647 26.0254717 57.0242647 27.3198113 58.3213235 27.3198113 59.9426471L27.3198113 59.9426471zM39.9858491 59.9426471C39.9858491 61.5639706 38.6915094 62.8610294 37.0735849 62.8610294 35.4556604 62.8610294 34.1613208 61.5639706 34.1613208 59.9426471 34.1613208 58.3213235 35.4556604 57.0242647 37.0735849 57.0242647 38.645283 56.9779412 39.9858491 58.3213235 39.9858491 59.9426471L39.9858491 59.9426471zM14.6537736 59.9426471C14.6537736 61.5639706 13.359434 62.8610294 11.7415094 62.8610294 10.1235849 62.8610294 8.82924528 61.5639706 8.82924528 59.9426471 8.82924528 58.3213235 10.1235849 57.0242647 11.7415094 57.0242647 13.3132075 56.9779412 14.6537736 58.3213235 14.6537736 59.9426471L14.6537736 59.9426471z"/>
      <path fill="#DADADA" d="M12.6660377 59.9426471C12.6660377 60.4985294 12.25 60.9154412 11.695283 60.9154412 11.140566 60.9154412 10.7245283 60.4985294 10.7245283 59.9426471 10.7245283 59.3867647 11.140566 58.9698529 11.695283 58.9698529 12.25 58.9235294 12.6660377 59.3867647 12.6660377 59.9426471L12.6660377 59.9426471zM25.3320755 59.9426471C25.3320755 60.4985294 24.9160377 60.9154412 24.3613208 60.9154412 23.8066038 60.9154412 23.390566 60.4985294 23.390566 59.9426471 23.390566 59.3867647 23.8066038 58.9698529 24.3613208 58.9698529 24.9160377 58.9698529 25.3320755 59.3867647 25.3320755 59.9426471L25.3320755 59.9426471zM37.9981132 59.9426471C37.9981132 60.4985294 37.5820755 60.9154412 37.0273585 60.9154412 36.4726415 60.9154412 36.0566038 60.4985294 36.0566038 59.9426471 36.0566038 59.3867647 36.4726415 58.9698529 37.0273585 58.9698529 37.5820755 58.9235294 37.9981132 59.3867647 37.9981132 59.9426471L37.9981132 59.9426471z"/>
      <rect width="5.825" height="3.891" x="21.449" y="31.593" fill="#C1BFBD"/>
      <path fill="#CC232C" d="M22.4198113 12.0904412C22.4198113 13.1558824 21.5415094 14.0360294 20.4783019 14.0360294 19.4150943 14.0360294 18.5367925 13.1558824 18.5367925 12.0904412 18.5367925 11.025 19.4150943 10.1448529 20.4783019 10.1448529 21.5415094 10.1448529 22.4198113 10.9786765 22.4198113 12.0904412L22.4198113 12.0904412zM30.2320755 12.0904412C30.2320755 13.1558824 29.3537736 14.0360294 28.290566 14.0360294 27.2273585 14.0360294 26.3490566 13.1558824 26.3490566 12.0904412 26.3490566 11.025 27.2273585 10.1448529 28.290566 10.1448529 29.3537736 10.1448529 30.2320755 10.9786765 30.2320755 12.0904412L30.2320755 12.0904412zM22.4198113 19.8727941C22.4198113 20.9382353 21.5415094 21.8183824 20.4783019 21.8183824 19.4150943 21.8183824 18.5367925 20.9382353 18.5367925 19.8727941 18.5367925 18.8073529 19.4150943 17.9272059 20.4783019 17.9272059 21.5415094 17.9272059 22.4198113 18.8073529 22.4198113 19.8727941L22.4198113 19.8727941zM30.2320755 19.8727941C30.2320755 20.9382353 29.3537736 21.8183824 28.290566 21.8183824 27.2273585 21.8183824 26.3490566 20.9382353 26.3490566 19.8727941 26.3490566 18.8073529 27.2273585 17.9272059 28.290566 17.9272059 29.3537736 17.9272059 30.2320755 18.8073529 30.2320755 19.8727941L30.2320755 19.8727941z"/>
      <path fill="#DADADA" d="M43.8688679 29.6470588L43.8688679 36.5029412C43.8688679 37.5683824 42.990566 38.4485294 41.9273585 38.4485294L41.7424528 38.4485294C41.8349057 38.7727941 41.8811321 39.0507353 41.8811321 39.4213235 41.8811321 39.7919118 41.8349057 40.1161765 41.7424528 40.3941176L41.9273585 40.3941176C44.1 40.3941176 45.8103774 38.6338235 45.8103774 36.5029412L45.8103774 29.6470588 43.8688679 29.6470588zM6.88773585 39.375C6.88773585 39.0507353 6.93396226 38.7264706 7.02641509 38.4022059L6.84150943 38.4022059C5.77830189 38.4022059 4.9 37.5220588 4.9 36.4566176L4.9 29.6470588 2.95849057 29.6470588 2.95849057 36.5029412C2.95849057 38.6338235 4.71509434 40.3941176 6.84150943 40.3941176L7.02641509 40.3941176C6.93396226 40.0698529 6.88773585 39.7455882 6.88773585 39.375L6.88773585 39.375zM37.9981132 55.0323529C37.9981132 54.5691176 37.7207547 54.1985294 37.2584906 54.0595588L25.3320755 51.3264706 25.3320755 46.2308824 23.390566 46.2308824 23.390566 51.3264706 11.4641509 54.0595588C11.0018868 54.1522059 10.7245283 54.5691176 10.7245283 55.0323529L10.7245283 55.0323529 10.7245283 57.1632353C11.0481132 57.0705882 11.3716981 56.9779412 11.695283 56.9779412 12.0188679 56.9779412 12.3424528 57.0705882 12.6660377 57.1632353L12.6660377 55.8198529 23.390566 53.3183824 23.390566 57.1632353C23.7141509 57.0705882 24.0377358 56.9779412 24.3613208 56.9779412 24.6849057 56.9779412 25.0084906 57.0705882 25.3320755 57.1632353L25.3320755 53.3183824 36.0566038 55.8198529 36.0566038 57.1632353C36.3801887 57.0705882 36.7037736 56.9779412 37.0273585 56.9779412 37.3509434 56.9779412 37.6745283 57.0705882 37.9981132 57.1632353L37.9981132 55.0323529 37.9981132 55.0323529 37.9981132 55.0323529z"/>
    </g>
  </g>
</svg>
