<svg xmlns="http://www.w3.org/2000/svg" width="110" height="110" viewBox="0 0 110 110">
  <g fill="none" fill-rule="evenodd">
    <path fill="#FFF" d="M55,110 C24.6243388,110 0,85.3756612 0,55 C0,24.6243388 24.6243388,0 55,0 C85.3756612,0 110,24.6243388 110,55 C110,85.3756612 85.3756612,110 55,110 Z"/>
    <path fill="#F3F3F4" fill-rule="nonzero" d="M55,107 C83.718807,107 107,83.718807 107,55 C107,26.281193 83.718807,3 55,3 C26.281193,3 3,26.281193 3,55 C3,83.718807 26.281193,107 55,107 Z M55,110 C24.6243388,110 0,85.3756612 0,55 C0,24.6243388 24.6243388,0 55,0 C85.3756612,0 110,24.6243388 110,55 C110,85.3756612 85.3756612,110 55,110 Z"/>
    <g fill-rule="nonzero" transform="translate(29 18)">
      <path fill="#FEE9EA" d="M27.5731373 68.9033098C27.540076 68.869163 27.5070147 68.869163 27.4739534 68.8350162 27.5070147 68.7667225 27.5731373 68.8008694 27.6392599 68.8008694 28.8625286 68.8350162 30.1188586 68.8350162 31.3421273 68.8008694 31.4082499 68.8008694 31.4413112 68.8008694 31.5074339 68.8350162 31.5074339 68.869163 31.4743726 68.869163 31.4743726 68.9033098 30.1849812 68.9033098 28.8625286 68.9033098 27.5731373 68.9033098zM11.5714605 68.8354537C11.5383992 68.8696005 11.5383992 68.8696005 11.5053379 68.9037474 10.2159466 68.9037474 8.89349392 68.9037474 7.60410261 68.9037474 7.5710413 68.8696005 7.5710413 68.8696005 7.53797998 68.8354537 7.5710413 68.8013069 7.63716393 68.8013069 7.70328656 68.8013069 8.89349392 68.8354537 10.0837013 68.8013069 11.2739087 68.8013069 11.3730926 68.8013069 11.4722765 68.7330132 11.5714605 68.8354537z"/>
      <path fill="#F8D1D2" d="M50.2223096,50.8813649 C50.2223096,50.8813649 50.1881628,50.8813649 50.2223096,50.8813649 C50.1540159,50.8483036 50.1540159,50.7821809 50.1540159,50.7491196 C50.1540159,50.5507517 50.1540159,50.3854451 50.1540159,50.1870772 C50.1540159,50.1209546 50.1540159,50.0878933 50.2223096,50.054832 C50.2223096,50.054832 50.2564564,50.054832 50.2564564,50.054832 C50.2223096,50.3193225 50.2223096,50.6168743 50.2223096,50.8813649 Z"/>
      <path fill="#F19499" d="M0.132245263,43.5748141 C0.132245263,43.4095075 0.132245263,43.2772623 0.132245263,43.1119557 C0.165306579,41.9548096 0.330613157,40.8307249 0.562042367,39.7066402 C0.859594208,38.3180649 1.28939131,36.9956123 1.884495,35.706221 C2.34735342,34.6482589 2.90939578,33.6233581 3.53756078,32.6315186 C4.06654183,31.8049857 4.66164551,31.0115141 5.32287183,30.2841652 C5.6865463,29.8874294 6.05022077,29.4576323 6.44695656,29.0939578 C7.04206025,28.4988541 7.70328656,27.9368118 8.36451287,27.4078307 C9.12492313,26.812727 9.95145603,26.2506847 10.7779889,25.7217036 C11.7367671,25.1596613 12.7286065,24.6306802 13.7865686,24.2008831 C14.0841205,24.0686378 14.3816723,23.9694539 14.6792242,23.8372086 C14.7122855,23.8372086 14.7784081,23.8041473 14.7784081,23.771086 C14.976776,23.9033313 15.1090213,24.0686378 15.1751439,24.2670057 C15.1090213,24.4984349 14.976776,24.6637415 14.8775921,24.8621094 C14.8114694,24.9612934 14.7784081,25.0935386 14.7122855,25.2257839 C15.1090213,25.0935386 15.4726958,24.9612934 15.8363702,24.8621094 C16.1339221,24.7959868 16.4314739,24.6968028 16.7290257,24.6306802 C16.8943323,24.5976189 17.0927002,24.5645576 17.2580068,24.5314963 C17.4233134,24.4984349 17.58862,24.4653736 17.7539265,24.4323123 C18.2829076,24.3331284 18.8118886,24.2339444 19.373931,24.1678218 C19.6053602,24.1347605 19.8367894,24.1016991 20.0682186,24.0686378 C20.2004639,24.0686378 20.3327092,24.0355765 20.4649544,24.0355765 C21.0600581,23.9694539 21.6551618,23.9033313 22.2502655,23.9033313 C22.3163881,23.9033313 22.415572,23.8702699 22.4816947,23.8702699 C22.6139399,23.8702699 22.7792465,23.8702699 22.9114918,23.8702699 C23.5065955,23.8702699 24.0686378,23.8702699 24.6637415,23.8702699 C24.8951707,23.8702699 25.0935386,23.9033313 25.3249678,23.9363926 C25.3910905,23.9694539 25.4572131,23.9694539 25.5233357,23.9694539 C25.9200715,23.9363926 26.283746,24.0025152 26.6474205,24.0686378 C27.0441562,24.1347605 27.4739534,24.2008831 27.8706891,24.300067 C28.0029344,24.3331284 28.069057,24.300067 28.1351797,24.2008831 C28.2343636,24.0025152 28.3666089,23.8041473 28.4988541,23.6388407 C28.5649768,23.5396568 28.5319155,23.4735342 28.4327315,23.4404728 C28.0359957,23.3412889 27.6392599,23.2751663 27.2425241,23.2090436 C26.9780336,23.1759823 26.7135431,23.1098597 26.4159912,23.0767984 C26.3498686,23.0767984 26.283746,23.0767984 26.2506847,23.0106757 C26.2506847,22.8123078 26.3498686,22.6470013 26.4821139,22.514756 C26.5482365,22.6470013 26.6804818,22.6139399 26.7796657,22.6139399 C27.540076,22.7461852 28.3004862,22.8784305 29.0278352,23.0767984 C30.0857973,23.3412889 31.1106981,23.671902 32.1025375,24.0686378 C32.2347828,24.1347605 32.3670281,24.1678218 32.4992733,24.2339444 C32.6976412,24.3331284 32.8960091,24.399251 33.1274383,24.3331284 C33.1274383,24.399251 33.0613157,24.399251 33.0282544,24.4323123 C34.0531552,24.8951707 35.078056,25.4241518 36.0368341,26.0523168 C36.4005086,26.283746 36.7641831,26.5151752 37.1278575,26.7796657 C38.0205131,27.4078307 38.847046,28.1021183 39.6074562,28.8625286 C40.4339891,29.6560002 41.1943994,30.5155944 41.888687,31.4413112 C42.1201162,31.7719244 42.3515454,32.0694762 42.5829746,32.4000894 C42.6490973,32.4992733 42.7152199,32.5984573 42.8144038,32.6315186 C42.7813425,32.6976412 42.7482812,32.7307025 42.8144038,32.8298865 C43.5086915,33.8878486 44.0707338,34.978872 44.5666536,36.1360181 C44.9633894,37.0947962 45.2940025,38.0535744 45.5254317,39.0454138 C45.7568609,40.004192 45.9221675,40.9629702 46.0544128,41.9548096 C46.0874741,42.2854228 46.1205354,42.6490973 46.1205354,42.9797104 C46.1535967,43.3764462 46.186658,43.8062433 46.1535967,44.2029791 C46.0874741,44.2360404 46.0544128,44.2029791 45.9882901,44.1699178 C45.4262478,43.9054273 44.8311441,43.673998 44.2029791,43.6078754 C43.5748141,43.5417528 42.9797104,43.5417528 42.3515454,43.7070594 C41.3266446,43.9715499 40.4670504,44.5005309 39.6735788,45.1617573 C38.7809233,45.8891062 38.0205131,46.7487004 37.4254094,47.7405399 C36.962551,48.5340115 36.6319378,49.3936057 36.5658152,50.3193225 C36.4996925,51.1127941 36.5327539,51.9062657 36.7641831,52.6997372 C36.962551,53.3940249 37.2601028,54.0883125 37.6237773,54.7164775 C37.9543904,55.2785199 38.3511262,55.7744396 38.8139846,56.237298 C39.4421496,56.8324017 40.103376,57.3613827 40.9960315,57.5266893 C41.0621541,57.5266893 41.1282767,57.5597506 41.1943994,57.6258733 C40.9960315,57.8573025 40.7976636,58.0887317 40.5992957,58.3201609 C39.7066402,59.2789391 38.747862,60.1715946 37.6898999,60.9650662 C37.5576546,61.0642501 37.4254094,61.1634341 37.2931641,61.262618 C37.1939802,61.3287406 37.1609189,61.3948633 37.1609189,61.4940472 C37.1609189,62.518948 37.1609189,63.5438488 37.1609189,64.5356883 C37.1609189,64.6018109 37.1939802,64.6679335 37.1278575,64.7340562 C37.0617349,64.6679335 37.0947962,64.5687496 37.0947962,64.5026269 C37.0947962,63.5769101 37.0947962,62.6181319 37.0947962,61.6924151 C37.0947962,61.6262925 37.0947962,61.5601698 37.0947962,61.4940472 C37.0286736,61.4940472 36.9956123,61.5271085 36.9294896,61.5601698 C35.7723436,62.3867027 34.5490749,63.0809904 33.2927449,63.676094 C33.2266223,63.7091554 33.193561,63.7091554 33.1274383,63.7091554 C33.0613157,63.7091554 33.0282544,63.6430327 32.9951931,63.5769101 C32.9951931,63.5107875 32.9951931,63.4446648 32.9951931,63.3785422 C32.9951931,61.8577217 32.9951931,60.3038398 32.9951931,58.7830193 C32.9951931,57.9234251 32.5984573,57.3283214 31.838047,56.9977083 C31.6066178,56.8985243 31.3751886,56.865463 31.1437594,56.865463 C30.0196747,56.865463 28.8955899,56.865463 27.8045665,56.865463 C26.812727,56.865463 25.9531328,57.6589346 25.9531328,58.7168967 C25.9531328,60.9320048 25.9531328,63.1801743 25.9531328,65.3952825 C25.9531328,65.4944664 25.9861941,65.5936504 25.8870102,65.6928343 C25.3249678,65.7258956 24.7629255,65.7589569 24.2008831,65.8250796 C23.6388407,65.8581409 23.0767984,65.8581409 22.5478173,65.8581409 C21.787407,65.8250796 21.0269968,65.7589569 20.2335252,65.6928343 C19.2416857,65.5936504 18.2498463,65.3952825 17.2580068,65.1638533 C17.2249455,65.1638533 17.1588229,65.1638533 17.1257615,65.1638533 C16.7620871,65.0977306 16.3984126,64.9985467 16.0347381,64.8663014 C15.1090213,64.5687496 14.1833044,64.2381364 13.2575876,63.8414006 C13.191465,63.8083393 13.1253423,63.8083393 13.092281,63.7422167 C13.0261584,63.6430327 13.0592197,63.5438488 13.0592197,63.4446648 C13.0592197,61.890783 13.0261584,60.3038398 13.0592197,58.749958 C13.0592197,57.6919959 12.1996255,56.865463 11.207786,56.8985243 C10.0837013,56.8985243 8.95961656,56.8985243 7.86859314,56.8985243 C6.9428763,56.8985243 6.24858867,57.493628 6.05022077,58.3862835 C6.01715946,58.4524062 6.01715946,58.5515901 5.95103683,58.6177127 C5.52123972,58.1879156 5.12450393,57.6919959 4.72776815,57.2291375 C4.0004192,56.336482 3.33919289,55.3446425 2.77715052,54.352803 C2.28123078,53.4270862 1.81837236,52.5013693 1.45469789,51.5095299 C1.0579621,50.4515678 0.727348946,49.3936057 0.528981051,48.2695209 C0.396735788,47.542172 0.264490526,46.814823 0.198367894,46.0874741 C0.165306579,45.7899223 0.165306579,45.4923704 0.132245263,45.1948186 C0.132245263,45.029512 0.132245263,44.8642054 0.132245263,44.6988988 C0.132245263,44.2691017 0.132245263,43.9384886 0.132245263,43.5748141 Z"/>
      <path fill="#EA5C61" d="M50.1870772,50.054832 C50.1870772,50.3193225 50.1870772,50.6168743 50.1870772,50.8813649 C50.1209546,51.939327 49.8895254,52.9972891 49.426667,53.9560672 C48.9638086,54.980968 48.3025822,55.8405622 47.3768654,56.4687272 C47.2115588,56.5679112 47.0793136,56.7001564 46.8809457,56.7993404 C46.5172712,56.964647 46.1535967,57.1630149 45.7237996,57.1960762 C45.0625733,57.2621988 44.401347,57.1960762 43.773182,56.8985243 C42.8474652,56.4687272 42.2193002,55.7413783 41.7233804,54.8487228 C41.3597059,54.2205578 41.1282767,53.5262701 41.0290928,52.7989212 C40.9299088,52.1376949 40.8637862,51.4764686 40.9299088,50.7821809 C40.9629702,50.2201386 41.0621541,49.6250349 41.1943994,49.0629925 C41.4919512,48.0380917 41.9217483,47.1123749 42.6160359,46.285842 C43.2111396,45.5915544 43.9054273,45.0625733 44.7650215,44.7650215 C45.558493,44.5005309 46.3519646,44.5335923 47.1454362,44.8311441 C47.2776815,44.8642054 47.3768654,44.9633894 47.5091107,45.029512 C48.3356436,45.4923704 48.9307472,46.1535967 49.3605443,47.0131909 C49.8895254,47.9719691 50.1209546,48.9968699 50.1870772,50.054832 Z"/>
      <path fill="#FE8D91" d="M47.5091107 45.0625733C47.2446201 44.9633894 47.0131909 44.8311441 46.7487004 44.7650215 45.9221675 44.5666536 45.0956346 44.6327762 44.302163 45.029512 43.8062433 45.2609412 43.3764462 45.5915544 42.9797104 45.9552288 42.3846067 46.5503325 41.9217483 47.2776815 41.5580738 48.071153 41.2935833 48.699318 41.0952154 49.327483 40.9960315 49.9887093 40.8968475 50.583813 40.8637862 51.1458554 40.8968475 51.7409591 40.9629702 52.7327986 41.1613381 53.6915767 41.5911352 54.5842322 42.0209323 55.4438264 42.6160359 56.2042367 43.4756302 56.7001564 44.2691017 57.1630149 45.0956346 57.2291375 45.9882901 57.0638309 46.2527807 57.0307696 46.4842099 56.9315856 46.7156391 56.7993404 46.7487004 56.7662791 46.814823 56.7332178 46.8809457 56.7662791 46.6164551 56.964647 46.3189033 57.0638309 46.0213515 57.1630149 45.1286959 57.4605667 44.2029791 57.6258733 43.2772623 57.6919959 42.5829746 57.7250572 41.888687 57.6589346 41.2274607 57.5597506 40.8637862 57.4605667 40.5001117 57.3944441 40.1694986 57.1960762 39.8719467 57.0307696 39.6074562 56.865463 39.3429657 56.6670951 39.0454138 56.4356659 38.7809233 56.2042367 38.5494941 55.9066849 38.1527583 55.4438264 37.7890839 54.9479067 37.4584707 54.3858643 37.1609189 53.8568833 36.9294896 53.2948409 36.7641831 52.6997372 36.6649991 52.3691241 36.5988765 52.0054496 36.5658152 51.6417751 36.5327539 51.3442233 36.5327539 51.0466714 36.5327539 50.7491196 36.5327539 50.2201386 36.6319378 49.6911575 36.7641831 49.1621765 36.9956123 48.3687049 37.3923481 47.6082946 37.8882678 46.9470683 38.119697 46.6495165 38.3511262 46.3850259 38.6156167 46.0874741 39.0454138 45.6246157 39.5082723 45.1948186 40.004192 44.8311441 40.4670504 44.4674696 40.9629702 44.1699178 41.5250125 43.9384886 41.9217483 43.7401207 42.3846067 43.6078754 42.8144038 43.5417528 43.5086915 43.4425688 44.2029791 43.4425688 44.8642054 43.6409367 45.3270638 43.773182 45.7899223 43.9715499 46.2197194 44.1699178 46.6164551 44.401347 47.0462522 44.6658375 47.4099267 44.930328 47.442988 44.9964507 47.4760494 45.029512 47.5091107 45.0625733zM42.8805265 32.6315186C42.8144038 32.6645799 42.7482812 32.6315186 42.7152199 32.565396 42.516852 32.2678441 42.3184841 31.9702923 42.0870549 31.6727404 41.7233804 31.209882 41.3597059 30.7470236 40.9960315 30.3172265 40.7315409 30.0196747 40.4670504 29.7221228 40.2025599 29.4576323 39.7397015 29.0278352 39.3099044 28.5649768 38.847046 28.168241 38.4503102 27.8376278 38.0866357 27.5070147 37.6898999 27.2094628 37.2270415 26.8457884 36.7311217 26.5151752 36.235202 26.184562 36.2021407 26.1515007 36.1360181 26.1184394 36.1029568 26.0853781 36.4005086 25.7878263 36.6980604 25.4902744 36.9956123 25.1927226 37.4584707 24.7298641 37.9213291 24.300067 38.4172488 23.9363926 38.747862 23.7049634 39.0454138 23.4735342 39.376027 23.2751663 39.4090883 23.2421049 39.4090883 23.2421049 39.376027 23.2090436 39.8388854 23.1098597 40.2356212 22.8453692 40.6984796 22.6800626 41.8556257 22.3163881 42.9466491 22.415572 43.9384886 23.1098597 44.5666536 23.5396568 45.0625733 24.1016991 45.3931865 24.7629255 45.8891062 25.8208876 45.8891062 26.911911 45.5915544 28.0359957 45.2940025 29.0939578 44.7980828 30.052736 44.2029791 30.9453915 43.773182 31.5404952 43.3433849 32.1025375 42.8805265 32.6315186z"/>
      <path fill="#000" d="M27.5070147 0C30.5486557 0 33.094377 2.44653736 33.094377 5.62042367 33.094377 8.76124866 30.581717 11.2739087 27.440892 11.2408473 24.3661897 11.207786 21.8535297 8.69512603 21.9196523 5.52123972 21.9527136 2.47959868 24.4323123 0 27.5070147 0zM15.1751439 24.300067C15.0428986 24.1347605 14.9106534 23.9694539 14.7784081 23.8041473 14.4808563 23.3743502 14.2163658 22.9114918 13.9849365 22.415572 13.5220781 21.3576099 13.3567715 20.2665865 13.4559555 19.1094405 13.5882008 17.7208652 14.0841205 16.4645352 14.9437147 15.3735118 15.7371863 14.4147336 16.6959644 13.6873847 17.8531105 13.2575876 19.2416857 12.7286065 20.6963836 12.6624839 22.1180202 13.092281 23.8041473 13.5882008 25.0935386 14.5800402 26.0192555 16.0347381 26.7466044 17.1918842 27.0772176 18.4812755 27.0441562 19.8367894 27.0110949 20.7625063 26.812727 21.6221005 26.4490526 22.4816947 26.3829299 22.6470013 26.283746 22.8123078 26.2176234 22.9776144 26.2176234 23.043737 26.184562 23.1098597 26.1515007 23.142921 26.0192555 23.3412889 25.8870102 23.5727181 25.7217036 23.8041473 25.6225197 23.9694539 25.4902744 24.0355765 25.2919065 24.0025152 25.1265999 24.0025152 24.9612934 24.0025152 24.7959868 23.9694539 24.7298641 23.9694539 24.6637415 23.9694539 24.6306802 23.9363926 24.6637415 23.771086 24.7959868 23.7049634 24.8951707 23.6057794 25.6225197 22.7461852 26.0523168 21.7543457 26.2176234 20.630261 26.4159912 19.3408697 26.2176234 18.117601 25.6225197 16.960455 25.1927226 16.1339221 24.6306802 15.4396344 23.9033313 14.8775921 23.0106757 14.1833044 21.9857749 13.7865686 20.8616902 13.6543234 19.6714828 13.5551394 18.5473981 13.720446 17.489436 14.2824884 16.1008607 15.0098373 15.1420826 16.1008607 14.5800402 17.5555586 14.5469789 17.6216813 14.5139176 17.6547426 14.5139176 17.7208652 14.4147336 18.0845397 14.3155497 18.4151528 14.2494271 18.7788273 14.1171818 19.7045442 14.1833044 20.5971997 14.447795 21.4898552 14.8445308 22.7461852 15.5388184 23.771086 16.5637192 24.5645576 16.6298418 24.5976189 16.6959644 24.6306802 16.7290257 24.7298641 16.4314739 24.8621094 16.1339221 24.8951707 15.8363702 24.9943547 15.7702476 24.9612934 15.704125 24.928232 15.6710636 24.8951707 15.5388184 24.6637415 15.3073892 24.5314963 15.1751439 24.300067z"/>
      <path fill="#FE8182" d="M39.376027,23.2090436 C39.4090883,23.2090436 39.4421496,23.2090436 39.5082723,23.2090436 C39.2768431,23.3412889 39.0784752,23.4735342 38.8801073,23.6388407 C38.4503102,23.9363926 38.0205131,24.300067 37.6237773,24.6306802 C37.1939802,25.027416 36.7972444,25.4572131 36.3674473,25.8539489 C36.2682633,25.9200715 36.2682633,26.0853781 36.1029568,26.0853781 C35.8384662,25.9200715 35.5739757,25.7547649 35.2764239,25.5894584 C34.9127494,25.3910905 34.5490749,25.1927226 34.1523391,24.9943547 C33.7886647,24.7959868 33.3919289,24.6306802 32.9951931,24.4323123 C33.0613157,24.399251 33.1274383,24.399251 33.193561,24.3331284 C34.4829523,24.1016991 35.8054049,23.8372086 37.0947962,23.6057794 C37.8221452,23.4735342 38.5494941,23.3412889 39.2768431,23.2090436 C39.3099044,23.2090436 39.3429657,23.2090436 39.376027,23.2090436 Z"/>
      <path fill="#FE8D92" d="M25.9200715,65.6928343 C25.9200715,63.3454809 25.9200715,60.9981275 25.9200715,58.6838354 C25.9200715,57.7581185 26.6474205,56.964647 27.5070147,56.8324017 C27.6392599,56.7993404 27.7715052,56.7993404 27.8706891,56.7993404 C28.9947739,56.7993404 30.0857973,56.7993404 31.209882,56.7993404 C31.8711083,56.7993404 32.4000894,57.1299535 32.7637639,57.6589346 C32.9621318,57.9564864 33.0613157,58.2870996 33.0613157,58.6507741 C33.0613157,60.2707785 33.0613157,61.890783 33.0613157,63.5107875 C33.0613157,63.5769101 33.0282544,63.676094 33.1604997,63.676094 C33.094377,63.8744619 33.1274383,64.0728298 33.1274383,64.304259 C33.1274383,64.932424 33.1274383,65.560589 33.1274383,66.1556927 C33.1274383,66.3871219 33.1274383,66.3871219 33.3588675,66.3871219 C34.0531552,66.3871219 34.7474428,66.3871219 35.4417304,66.3871219 C35.5409144,66.3871219 35.607037,66.3540606 35.706221,66.4532446 C35.607037,66.5193672 35.5078531,66.4863059 35.4086691,66.4863059 C34.7143815,66.4863059 33.9870325,66.4863059 33.2927449,66.4863059 C33.1274383,66.4863059 33.094377,66.5193672 33.094377,66.6846738 C33.1274383,67.1144709 33.094377,67.5112067 32.8629478,67.9079425 C32.565396,68.4369235 32.1025375,68.7675367 31.5074339,68.8336593 C30.2841652,68.8997819 29.0608965,68.8336593 27.8045665,68.8667206 C27.7053826,68.8667206 27.5731373,68.8667206 27.4739534,68.8336593 C26.5812978,68.701414 25.8870102,67.8418198 25.9200715,66.916103 C25.9200715,66.5193672 25.9200715,66.0895701 25.9200715,65.6928343 Z"/>
      <path fill="#FE7F87" d="M35.706221,66.4532446 C34.9127494,66.4532446 34.0862165,66.4532446 33.2927449,66.4532446 C33.1274383,66.4532446 33.094377,66.4201833 33.094377,66.2548767 C33.094377,65.4614051 33.094377,64.6679335 33.094377,63.9075233 C33.094377,63.8083393 33.094377,63.7422167 33.193561,63.676094 C33.5241741,63.5438488 33.821726,63.3785422 34.1523391,63.2132356 C34.978872,62.7834385 35.7723436,62.3205801 36.5327539,61.7915991 C36.7311217,61.6593538 36.962551,61.4940472 37.1939802,61.3287406 C37.1939802,62.4858867 37.1939802,63.5769101 37.1939802,64.7009948 C37.1939802,65.5275277 36.5658152,66.3209993 35.706221,66.4532446 Z"/>
      <path fill="#FE8D92" d="M5.95103683,58.5515901 C6.01715946,58.0556704 6.18246604,57.6258733 6.54614051,57.2952601 C6.87675367,56.9977083 7.27348946,56.7993404 7.73634788,56.7993404 C8.92655524,56.7993404 10.1167626,56.7993404 11.30697,56.7993404 C11.9020737,56.7993404 12.3649321,57.0638309 12.7286065,57.5266893 C12.9930971,57.8573025 13.092281,58.2540383 13.092281,58.6838354 C13.092281,60.2707785 13.092281,61.890783 13.092281,63.4777262 C13.092281,63.5438488 13.092281,63.6430327 13.1253423,63.7091554 C13.1584037,63.775278 13.1584037,63.8744619 13.1584037,63.9405846 C13.1584037,64.6679335 13.1584037,65.4283438 13.1584037,66.1556927 C13.1584037,66.3871219 13.1584037,66.3871219 13.3898329,66.3871219 C14.0841205,66.3871219 14.7784081,66.3871219 15.4396344,66.3871219 C15.5388184,66.3871219 15.6380023,66.3540606 15.704125,66.4532446 C15.604941,66.5193672 15.5057571,66.4863059 15.4065731,66.4863059 C14.7122855,66.4863059 14.0179979,66.4863059 13.3237102,66.4863059 C13.092281,66.4863059 13.092281,66.4863059 13.092281,66.7177351 C13.092281,67.0814096 13.092281,67.4120227 12.9269744,67.7426359 C12.6294226,68.3377396 12.1665642,68.701414 11.5383992,68.8336593 C10.4804371,68.8997819 9.42247498,68.8336593 8.33145156,68.8667206 C8.06696103,68.8667206 7.76940919,68.8667206 7.50491867,68.8336593 C6.57920183,68.701414 5.91797551,67.9079425 5.91797551,66.9822256 C5.91797551,64.2381364 5.91797551,61.5271085 5.91797551,58.7830193 C5.95103683,58.7168967 5.95103683,58.6507741 5.95103683,58.5515901 Z"/>
      <path fill="#FB7E85" d="M15.7371863,66.4532446 C14.9437147,66.4532446 14.1171818,66.4532446 13.3237102,66.4532446 C13.1584037,66.4532446 13.1253423,66.4201833 13.1253423,66.2548767 C13.1253423,65.4614051 13.1253423,64.6679335 13.1253423,63.8744619 C13.1253423,63.8083393 13.092281,63.7422167 13.1584037,63.7091554 C14.0841205,64.1058912 15.0098373,64.4695656 16.0016768,64.7671175 C16.2992286,64.8663014 16.5967805,64.932424 16.8943323,65.031608 C16.9935163,65.0646693 17.0927002,65.0646693 17.1588229,65.1307919 C17.0265776,65.6267117 16.7290257,65.9573248 16.33229,66.2218154 C16.1669834,66.3540606 15.9686155,66.4201833 15.7371863,66.4532446 Z"/>
      <path fill="#FEFEFE" d="M16.7620871,24.6968028 C16.2661673,24.3661897 15.8363702,23.9363926 15.4396344,23.4404728 C14.7784081,22.5808786 14.3816723,21.6221005 14.2163658,20.5310771 C14.0841205,19.6384215 14.1833044,18.745766 14.447795,17.8861718 C14.4808563,17.8200492 14.4808563,17.7539265 14.5139176,17.6878039 C14.5469789,17.6547426 14.5469789,17.58862 14.5800402,17.5555586 C14.7784081,16.960455 15.07596,16.4314739 15.4726958,15.9686155 C16.0677994,15.1751439 16.8282097,14.5800402 17.7208652,14.1502431 C18.4151528,13.81963 19.1425018,13.6543234 19.9029121,13.5882008 C20.9278128,13.5220781 21.9196523,13.6873847 22.8453692,14.1502431 C24.0686378,14.7453468 25.027416,15.6380023 25.655581,16.8282097 C26.2176234,17.8861718 26.4490526,19.0102565 26.3498686,20.2004639 C26.2176234,21.6221005 25.6886423,22.8784305 24.6968028,23.9363926 C24.6637415,23.9363926 24.5976189,23.9694539 24.5645576,23.9694539 C24.0025152,23.9694539 23.4735342,23.9694539 22.9114918,23.9694539 C22.7461852,23.8041473 22.6800626,23.6057794 22.5478173,23.4074115 C22.4816947,23.2751663 22.3825107,23.2751663 22.3163881,23.3743502 C22.2502655,23.4404728 22.2833268,23.4735342 22.3163881,23.5396568 C22.3494494,23.6388407 22.415572,23.7049634 22.4486334,23.8041473 C22.4816947,23.8702699 22.514756,23.9033313 22.514756,24.0025152 C22.4486334,24.0025152 22.3494494,24.0355765 22.2833268,24.0355765 C21.7212844,24.0355765 21.1592421,24.1016991 20.5971997,24.1347605 C20.5641384,24.1347605 20.5310771,24.1347605 20.4980157,24.1347605 C20.4649544,24.1016991 20.4649544,24.0355765 20.4318931,24.0025152 C20.3988318,23.9363926 20.3327092,23.9363926 20.2665865,23.9363926 C20.2004639,23.9363926 20.1674026,23.9694539 20.1674026,24.0355765 C20.1674026,24.0686378 20.1674026,24.1347605 20.1343413,24.1678218 C19.3408697,24.300067 18.5804594,24.399251 17.7869878,24.5314963 C17.7539265,24.4653736 17.7869878,24.399251 17.8200492,24.3661897 C17.9853557,24.1016991 18.117601,23.8372086 18.2498463,23.6057794 C18.3159689,23.5065955 18.3159689,23.4404728 18.216785,23.3743502 C18.117601,23.3082276 18.0514784,23.3743502 18.0184171,23.4404728 C17.8200492,23.771086 17.6216813,24.1347605 17.4233134,24.4653736 C17.3902521,24.5314963 17.3571907,24.5976189 17.2910681,24.6306802 C17.1257615,24.6637415 16.9273936,24.6968028 16.7620871,24.6968028 Z"/>
      <path fill="#FE8D91" d="M25.1265999,26.3829299 C25.7878263,26.184562 26.4821139,26.0853781 27.2094628,26.184562 C27.7053826,26.2506847 28.2013023,26.3498686 28.6641607,26.5151752 C29.424571,26.7796657 30.1188586,27.2094628 30.7139623,27.7053826 C31.2760047,28.168241 31.7388631,28.697222 32.1686602,29.2592644 C32.6645799,29.953552 33.094377,30.6478397 33.4249902,31.4413112 C33.5241741,31.6727404 33.6233581,31.9041697 33.722542,32.1686602 C33.7886647,32.3339668 33.7556033,32.3670281 33.5902968,32.3670281 C33.1604997,32.3670281 32.6976412,32.3670281 32.2678441,32.4000894 C31.5074339,32.466212 30.7470236,32.5984573 30.0196747,32.7968252 C29.1931418,33.0282544 28.3996702,33.3919289 27.7053826,33.9539712 C27.0772176,34.449891 26.5812978,35.0449946 26.2506847,35.8054049 C26.184562,35.9376502 26.1515007,36.0698954 26.0853781,36.2021407 C26.0523168,36.2682633 26.0523168,36.334386 25.9531328,36.2682633 C25.2588452,35.6731596 24.6637415,35.0119333 24.2008831,34.2184618 C23.7380247,33.4580515 23.4074115,32.6645799 23.2421049,31.8049857 C23.1098597,31.2760047 23.043737,30.7139623 23.043737,30.1849812 C23.043737,29.4576323 23.1759823,28.7633447 23.4735342,28.1021183 C23.8041473,27.3417081 24.300067,26.7135431 25.1265999,26.3829299 C25.1265999,26.4159912 25.1265999,26.3829299 25.1265999,26.3829299 Z"/>
      <path fill="#FE8182" d="M25.1265999,26.3829299 C25.1265999,26.4159912 25.1265999,26.4159912 25.0935386,26.4490526 C24.7959868,26.5812978 24.5314963,26.7466044 24.2670057,26.9780336 C23.7380247,27.5070147 23.4074115,28.1351797 23.2421049,28.8625286 C23.1098597,29.3584483 23.043737,29.8543681 23.0767984,30.3833491 C23.1098597,31.1437594 23.2421049,31.9041697 23.5065955,32.6645799 C23.7049634,33.1604997 23.9033313,33.6564194 24.1678218,34.1192778 C24.4323123,34.5490749 24.7298641,34.978872 25.0604773,35.3756078 C25.2919065,35.6400983 25.556397,35.9045889 25.8539489,36.1690794 C25.8870102,36.2021407 25.9531328,36.2021407 25.9200715,36.3013246 C25.556397,36.235202 25.1927226,36.1690794 24.8290481,36.1360181 C24.3331284,36.0698954 23.8702699,36.0037728 23.3743502,35.9045889 C23.142921,35.8715275 22.9445531,35.8384662 22.7131239,35.8054049 C21.8535297,35.6731596 20.9608742,35.5078531 20.1012799,35.3756078 C19.7706668,35.3094852 19.4400536,35.2764239 19.1094405,35.2103012 C19.0433178,35.2103012 19.0102565,35.1772399 19.0102565,35.1111173 C19.0102565,34.9458107 18.9771952,34.7805041 18.9771952,34.6482589 C18.9771952,34.1523391 18.9441339,33.6233581 19.0102565,33.1274383 C19.0433178,32.6976412 19.1425018,32.2347828 19.2416857,31.8049857 C19.4069923,31.0445754 19.7045442,30.3172265 20.1343413,29.6229389 C20.5641384,28.8955899 21.1261807,28.3004862 21.8204684,27.8045665 C22.415572,27.3747694 23.043737,27.0441562 23.7380247,26.812727 C24.1678218,26.5812978 24.6306802,26.4490526 25.1265999,26.3829299 Z"/>
      <path fill="#F9F9E5" d="M41.1613381 40.5001117C41.1943994 39.6405175 41.5250125 38.9462299 42.2523615 38.4503102 43.145017 37.8882678 44.2029791 38.119697 44.8642054 38.9131686 45.2609412 39.4090883 45.4593091 39.9711307 45.4262478 40.5992957 45.3931865 41.4588899 45.029512 42.1531775 44.2691017 42.6160359 43.7070594 42.9466491 43.1119557 42.9797104 42.516852 42.7152199 41.7564417 42.3846067 41.3597059 41.7895031 41.1943994 41.0290928 41.1613381 40.8637862 41.1613381 40.6984796 41.1613381 40.5001117zM37.6237773 42.6821586C37.590716 43.5748141 37.2601028 44.302163 36.4666312 44.7650215 35.706221 45.2278799 34.8796881 45.1286959 34.2184618 44.5666536 33.2266223 43.7401207 33.0613157 42.1862388 33.8878486 41.1282767 34.350707 40.5331731 35.0119333 40.2356212 35.7723436 40.3348052 36.4996925 40.4339891 37.0286736 40.8637862 37.3592867 41.5250125 37.5245933 41.8556257 37.6237773 42.2523615 37.6237773 42.6821586z"/>
      <path fill="#ED7478" d="M25.3580291,24.0025152 C25.556397,24.0355765 25.655581,23.9363926 25.7547649,23.8041473 C25.9531328,23.5396568 26.0853781,23.2751663 26.283746,23.0106757 C26.4490526,23.1098597 26.6474205,23.0767984 26.8457884,23.1098597 C27.4078307,23.2090436 28.0029344,23.2751663 28.5649768,23.4404728 C28.6641607,23.4735342 28.6641607,23.5065955 28.6310994,23.5727181 C28.4657928,23.8372086 28.3335476,24.0686378 28.168241,24.3331284 C28.1351797,24.399251 28.069057,24.399251 28.0029344,24.399251 C27.440892,24.2670057 26.8788497,24.2008831 26.3168073,24.0686378 C26.0523168,24.0025152 25.7878263,24.0025152 25.4902744,24.0355765 C25.4241518,24.0355765 25.3910905,24.0355765 25.3580291,24.0025152 Z"/>
      <path fill="#0CAFC4" d="M17.2580068,24.5976189 C17.489436,24.2008831 17.7208652,23.771086 17.9522944,23.3412889 C18.0184171,23.2090436 18.0845397,23.2090436 18.216785,23.2751663 C18.3490302,23.3412889 18.3490302,23.4074115 18.2829076,23.5396568 C18.0845397,23.8372086 17.9192331,24.1678218 17.7539265,24.4984349 C17.58862,24.5645576 17.4563747,24.5976189 17.2580068,24.5976189 Z"/>
      <path fill="#ED7478" d="M15.1751439,24.300067 C15.4065731,24.5314963 15.6380023,24.7298641 15.8694315,24.9612934 C15.4726958,25.0604773 15.07596,25.1927226 14.6461629,25.3580291 C14.8445308,24.9612934 15.0098373,24.6306802 15.1751439,24.300067 Z"/>
      <path fill="#0CAFC4" d="M22.4816947,23.9694539 C22.415572,23.8372086 22.3163881,23.671902 22.2502655,23.5396568 C22.1841428,23.4074115 22.2172042,23.3412889 22.3494494,23.2751663 C22.4486334,23.2090436 22.514756,23.2421049 22.5808786,23.3412889 C22.6800626,23.5396568 22.8123078,23.7380247 22.9114918,23.9694539 C22.7792465,23.9694539 22.6470013,23.9694539 22.4816947,23.9694539 Z"/>
      <path fill="#12B0C4" d="M20.1012799,24.1445301 C20.1012799,24.1445301 20.1012799,24.1445301 20.1012799,24.1445301 C20.1012799,24.0079428 20.0351573,23.8372086 20.2665865,23.8372086 C20.4649544,23.8372086 20.4649544,23.8372086 20.4649544,24.1103833 C20.3327092,24.1445301 20.2335252,24.1445301 20.1012799,24.1445301 Z"/>
      <path fill="#D8452E" d="M49.0629925 50.2201386C49.0299312 50.7160583 48.9638086 51.1127941 48.798502 51.5095299 48.7323793 51.7078978 48.6001341 51.9062657 48.4348275 52.0385109 48.1372757 52.2699401 47.8397238 52.2699401 47.542172 52.0054496 47.2115588 51.7078978 47.0793136 51.311162 47.0131909 50.8813649 46.914007 50.3193225 46.9470683 49.7572801 47.1454362 49.2282991 47.2446201 48.9638086 47.3768654 48.7323793 47.5752333 48.5340115 47.8066625 48.3025822 48.2695209 48.3356436 48.5340115 48.6662567 48.8315633 49.0299312 48.9307472 49.4597283 48.9968699 49.9225867 49.0299312 50.0217707 49.0960538 50.1540159 49.0629925 50.2201386zM44.7980828 52.5344307C44.4674696 52.567492 44.2691017 52.3360628 44.1037952 52.0715722 43.8723659 51.7078978 43.773182 51.2781007 43.7401207 50.8813649 43.7070594 50.3854451 43.773182 49.8564641 43.9715499 49.3936057 44.1037952 49.0960538 44.2691017 48.8315633 44.5997149 48.7323793 44.7650215 48.6662567 44.8972667 48.699318 45.0625733 48.798502 45.3601251 48.9968699 45.5254317 49.2944217 45.6246157 49.5919736 45.7568609 49.9225867 45.7899223 50.2531999 45.7899223 50.583813 45.7899223 51.1458554 45.7237996 51.6748364 45.3931865 52.1376949 45.2940025 52.3691241 45.1286959 52.567492 44.7980828 52.5344307z"/>
      <path fill="#FEFEFE" d="M27.5070147,10.5134984 C24.7959868,10.5134984 22.6470013,8.33145156 22.6470013,5.55430104 C22.6470013,2.90939578 24.8621094,0.69428763 27.540076,0.69428763 C30.2180426,0.69428763 32.4000894,2.90939578 32.4000894,5.58736235 C32.3670281,8.29839024 30.1849812,10.5134984 27.5070147,10.5134984 Z"/>
      <path fill="#B5B5B5" d="M14.5822113,17.5555586 C14.5822113,17.6238523 14.5822113,17.6579991 14.5139176,17.692146 C14.5139176,17.6238523 14.5480644,17.5897055 14.5822113,17.5555586 Z"/>
      <path fill="#F2959A" d="M20.4649544,18.0514784 C20.4649544,18.3490302 20.4649544,18.6796434 20.4649544,18.9771952 C20.4649544,19.0763792 20.4980157,19.1425018 20.5971997,19.2086244 C20.8616902,19.373931 20.9278128,19.6053602 20.8616902,19.8698507 C20.8286289,19.9690347 20.8947515,20.0351573 20.9608742,20.1012799 C21.5890392,20.7294449 22.2502655,21.3906713 22.8784305,22.0188363 C22.9114918,22.0518976 22.9776144,22.1180202 23.0106757,22.1510815 C23.0767984,22.2502655 23.1098597,22.3494494 23.0106757,22.4486334 C22.9114918,22.5478173 22.8123078,22.514756 22.7131239,22.4486334 C22.4486334,22.1841428 22.2172042,21.9527136 21.9527136,21.6882231 C21.5229165,21.258426 21.1261807,20.8286289 20.6963836,20.3988318 C20.5971997,20.2996478 20.5310771,20.2665865 20.3988318,20.2996478 C20.1012799,20.3657705 19.8037281,20.2335252 19.6714828,19.9359734 C19.5392376,19.6714828 19.6714828,19.3408697 19.9359734,19.1755631 C20.0351573,19.1094405 20.0351573,19.0763792 20.0351573,18.9771952 C20.0351573,18.3490302 20.0351573,17.7208652 20.0351573,17.1257615 C20.0351573,17.0596389 20.0351573,16.9935163 20.0682186,16.9273936 C20.1343413,16.861271 20.2004639,16.8282097 20.2665865,16.8282097 C20.3657705,16.861271 20.4318931,16.9273936 20.4318931,17.0265776 C20.4649544,17.3902521 20.4649544,17.7208652 20.4649544,18.0514784 Z"/>
      <path fill="#0BAFC4" d="M25.3580291 22.5808786C25.3580291 22.7461852 25.1927226 22.8123078 25.027416 22.7461852 24.6306802 22.514756 24.2670057 22.3163881 23.8702699 22.0849589 23.7380247 22.0188363 23.7049634 21.9196523 23.8041473 21.787407 23.8702699 21.6551618 23.9694539 21.6882231 24.0686378 21.7543457 24.4653736 21.9857749 24.8621094 22.2172042 25.2588452 22.4486334 25.2919065 22.4486334 25.3580291 22.4816947 25.3580291 22.5808786zM17.489436 14.6792242C17.5555586 14.6792242 17.58862 14.7122855 17.6216813 14.7784081 17.8531105 15.1751439 18.0845397 15.604941 18.3490302 16.0016768 18.4151528 16.1008607 18.3820915 16.1669834 18.2829076 16.2000447 18.1837236 16.233106 18.117601 16.33229 18.0184171 16.2000447 17.7869878 15.7702476 17.5224973 15.3404505 17.2910681 14.9437147 17.2249455 14.8114694 17.3571907 14.6792242 17.489436 14.6792242zM23.9363926 17.8200492C23.8041473 17.8200492 23.8041473 17.6878039 23.771086 17.6216813 23.7380247 17.5555586 23.8041473 17.489436 23.8372086 17.4563747 24.2008831 17.2249455 24.5645576 17.0265776 24.9612934 16.8282097 24.9943547 16.7951484 25.0604773 16.7951484 25.0935386 16.7620871 25.1927226 16.6959644 25.2588452 16.7620871 25.2919065 16.861271 25.3249678 16.9273936 25.3910905 17.0265776 25.2919065 17.0927002 24.8621094 17.3571907 24.4323123 17.58862 24.0025152 17.8200492 24.0025152 17.8200492 23.9694539 17.8200492 23.9363926 17.8200492z"/>
      <path fill="#0CAFC4" d="M20.1012799,14.7784081 C20.1012799,14.5469789 20.1012799,14.3155497 20.1012799,14.0841205 C20.1012799,13.9518752 20.1674026,13.9188139 20.2665865,13.9188139 C20.3657705,13.9188139 20.4649544,13.9188139 20.4649544,14.0510592 C20.4649544,14.5139176 20.4649544,15.0098373 20.4649544,15.4726958 C20.4649544,15.604941 20.3657705,15.6380023 20.2665865,15.6380023 C20.1343413,15.6380023 20.1012799,15.604941 20.1012799,15.4726958 C20.1012799,15.2412665 20.1012799,15.0098373 20.1012799,14.7784081 Z"/>
      <path fill="#0BAFC4" d="M23.3082276 14.8445308C23.2751663 14.8775921 23.2751663 14.9106534 23.2751663 14.9437147 23.043737 15.3404505 22.8123078 15.7371863 22.5808786 16.1669834 22.514756 16.2992286 22.415572 16.2661673 22.3163881 16.233106 22.2172042 16.1669834 22.1841428 16.1008607 22.2502655 16.0016768 22.4816947 15.5718797 22.7131239 15.1751439 22.9776144 14.7784081 23.0106757 14.7122855 23.043737 14.6792242 23.1098597 14.7122855 23.1759823 14.7122855 23.2751663 14.7453468 23.3082276 14.8445308zM15.3735118 22.7792465C15.2743279 22.7461852 15.2412665 22.6470013 15.2082052 22.5808786 15.1751439 22.514756 15.2082052 22.4816947 15.2743279 22.4486334 15.704125 22.2172042 16.1008607 21.9527136 16.5306579 21.7212844 16.6298418 21.6551618 16.6959644 21.7212844 16.7290257 21.8204684 16.7951484 21.9196523 16.8282097 21.9857749 16.6959644 22.0518976 16.3984126 22.2172042 16.1008607 22.3825107 15.8033089 22.5808786 15.704125 22.6470013 15.5718797 22.7131239 15.4726958 22.7792465 15.4726958 22.7461852 15.4065731 22.7792465 15.3735118 22.7792465zM15.4065731 16.7290257C15.4396344 16.7620871 15.4726958 16.7620871 15.5057571 16.7951484 15.9024929 17.0265776 16.2661673 17.2580068 16.6629031 17.4563747 16.7951484 17.5224973 16.7951484 17.58862 16.7290257 17.7208652 16.6629031 17.8531105 16.5637192 17.8531105 16.4645352 17.7869878 16.233106 17.6216813 16.0016768 17.5224973 15.8033089 17.3902521 15.6380023 17.2910681 15.4396344 17.1918842 15.2743279 17.0927002 15.2082052 17.0596389 15.1751439 16.9935163 15.2082052 16.9273936 15.2743279 16.8282097 15.2743279 16.7290257 15.4065731 16.7290257z"/>
      <path fill="#0CAFC4" d="M15.3404505 19.9359734C15.1090213 19.9359734 14.8775921 19.9359734 14.6461629 19.9359734 14.5139176 19.9359734 14.4808563 19.8698507 14.4808563 19.7706668 14.4808563 19.6714828 14.4808563 19.5722989 14.6461629 19.5722989 15.1090213 19.5722989 15.604941 19.5722989 16.0677994 19.5722989 16.2000447 19.5722989 16.2000447 19.6384215 16.2000447 19.7706668 16.2000447 19.8698507 16.2000447 19.9690347 16.0677994 19.9690347 15.8033089 19.9359734 15.5718797 19.9359734 15.3404505 19.9359734zM25.1927226 19.9359734C24.9612934 19.9359734 24.7298641 19.9359734 24.4984349 19.9359734 24.3661897 19.9359734 24.3331284 19.8698507 24.3331284 19.7706668 24.3331284 19.6714828 24.3331284 19.5722989 24.4984349 19.5722989 24.9612934 19.5722989 25.4241518 19.5722989 25.8870102 19.5722989 26.0523168 19.5722989 26.0192555 19.6714828 26.0523168 19.7706668 26.0523168 19.8698507 26.0192555 19.9359734 25.8870102 19.9359734 25.6886423 19.9359734 25.4572131 19.9359734 25.1927226 19.9359734z"/>
      <path fill="#C84435" d="M42.2523615 40.5992957C42.2523615 40.004192 42.5829746 39.5413336 43.045833 39.4421496 43.5748141 39.3099044 44.0707338 39.5743949 44.2691017 40.1364373 44.4344083 40.5992957 44.3352244 41.0621541 44.0046112 41.4258286 43.5417528 41.888687 42.8144038 41.7895031 42.4837907 41.2274607 42.3184841 40.9960315 42.2193002 40.7646023 42.2523615 40.5992957zM36.5327539 42.6160359C36.5327539 43.2111396 36.1690794 43.7070594 35.607037 43.773182 35.1772399 43.8393046 34.7474428 43.5748141 34.5490749 43.1119557 34.2845844 42.5499133 34.5490749 41.7895031 35.078056 41.5580738 35.607037 41.3266446 36.235202 41.5911352 36.4335699 42.1531775 36.4996925 42.3515454 36.5327539 42.4837907 36.5327539 42.6160359z"/>
      <path fill="#F2969B" d="M27.6723212,4.26490973 C27.6723212,4.49633894 27.6723212,4.76082946 27.6723212,4.99225867 C27.6723212,5.09144262 27.7053826,5.15756525 27.7715052,5.22368788 C27.9698731,5.35593314 28.0359957,5.52123972 27.9698731,5.75266893 C27.9368118,5.8849142 28.0029344,5.91797551 28.069057,5.98409814 C28.5980381,6.51307919 29.0939578,7.00899893 29.6229389,7.53797998 C29.7221228,7.63716393 29.8213068,7.73634788 29.7221228,7.86859314 C29.5898776,8.0008384 29.4906936,7.86859314 29.424571,7.76940919 C28.8955899,7.24042814 28.3996702,6.71144709 27.8706891,6.18246604 C27.8045665,6.11634341 27.7384439,6.08328209 27.6392599,6.11634341 C27.440892,6.18246604 27.1764015,6.05022077 27.0772176,5.8849142 C26.9780336,5.65348499 27.0110949,5.35593314 27.2425241,5.22368788 C27.3747694,5.15756525 27.3747694,5.09144262 27.3747694,4.95919736 C27.3747694,4.49633894 27.3747694,4.0004192 27.3747694,3.53756078 C27.3747694,3.43837683 27.3747694,3.33919289 27.4739534,3.30613157 C27.6061986,3.27307025 27.7053826,3.33919289 27.7053826,3.50449946 C27.6723212,3.76898999 27.6723212,4.0004192 27.6723212,4.26490973 Z"/>
      <path fill="#0CAFC4" d="M25.2588452 9.78614945C25.1927226 9.75308813 25.1265999 9.72002682 25.0604773 9.65390419 25.027416 9.58778155 25.0604773 9.55472024 25.0935386 9.48859761 25.2919065 9.15798445 25.4572131 8.86043261 25.655581 8.52981945 25.7217036 8.4306355 25.7547649 8.39757419 25.8870102 8.46369682 25.9861941 8.52981945 26.0192555 8.59594208 25.9531328 8.69512603 25.7547649 9.02573919 25.5894584 9.35635234 25.3910905 9.65390419 25.3249678 9.72002682 25.2919065 9.75308813 25.2588452 9.78614945zM24.6968028 3.86817394C24.6968028 4.03348052 24.5645576 4.09960315 24.399251 4.03348052 24.1016991 3.86817394 23.771086 3.66980604 23.4735342 3.50449946 23.3412889 3.43837683 23.3412889 3.3722542 23.4074115 3.24000894 23.4735342 3.10776368 23.5396568 3.14082499 23.6388407 3.20694762 23.9363926 3.40531552 24.2670057 3.5706221 24.5645576 3.73592867 24.6306802 3.80205131 24.6968028 3.80205131 24.6968028 3.86817394zM27.6831764 1.62000447C27.6831764 1.81837236 27.6831764 1.98367894 27.6831764 2.18204684 27.6831764 2.3142921 27.6148827 2.34735342 27.5124422 2.34735342 27.4100017 2.34735342 27.3417081 2.3142921 27.3417081 2.21510815 27.3417081 1.81837236 27.3417081 1.45469789 27.3417081 1.0579621 27.3417081.92571684 27.4441486.92571684 27.5124422.92571684 27.6148827.92571684 27.6831764.958778155 27.6831764 1.0579621 27.6831764 1.22326868 27.6831764 1.42163658 27.6831764 1.62000447zM29.9866133 9.62084287C29.953552 9.72002682 29.8874294 9.75308813 29.8213068 9.78614945 29.7551841 9.81921076 29.7221228 9.78614945 29.6890615 9.72002682 29.4906936 9.38941366 29.325387 9.0588005 29.1270191 8.72818735 29.0608965 8.6290034 29.0939578 8.56288077 29.1931418 8.49675814 29.2923257 8.4306355 29.3584483 8.46369682 29.424571 8.56288077 29.5898776 8.89349392 29.7882455 9.19104577 29.9866133 9.52165892 29.953552 9.55472024 29.953552 9.58778155 29.9866133 9.62084287zM24.5314963 7.17430551C24.6306802 7.17430551 24.6306802 7.27348946 24.6637415 7.33961209 24.6968028 7.40573472 24.6637415 7.43879603 24.6306802 7.47185735 24.300067 7.67022524 23.9363926 7.86859314 23.6057794 8.06696103 23.5065955 8.10002235 23.4735342 8.06696103 23.4074115 8.0008384 23.3743502 7.93471577 23.3082276 7.86859314 23.4074115 7.80247051 23.771086 7.60410261 24.1016991 7.40573472 24.4653736 7.17430551 24.4984349 7.17430551 24.5314963 7.17430551 24.5314963 7.17430551zM29.953552 1.6861271C29.9204907 1.78531105 29.8543681 1.85143368 29.8213068 1.95061763 29.6560002 2.21510815 29.5237549 2.47959868 29.3584483 2.7440892 29.2923257 2.87633447 29.2262031 2.84327315 29.1270191 2.77715052 29.0278352 2.71102789 29.0278352 2.64490526 29.0608965 2.54572131 29.2592644 2.21510815 29.4576323 1.884495 29.6229389 1.55388184 29.6560002 1.48775921 29.7221228 1.45469789 29.7882455 1.48775921 29.8543681 1.55388184 29.953552 1.55388184 29.953552 1.6861271zM30.4825331 7.17430551C30.5155944 7.17430551 30.5486557 7.20736682 30.581717 7.20736682 30.8792689 7.3726734 31.209882 7.5710413 31.5074339 7.73634788 31.6066178 7.80247051 31.6396791 7.83553182 31.5735565 7.96777709 31.5074339 8.06696103 31.4413112 8.10002235 31.3421273 8.03389972 31.0445754 7.83553182 30.7139623 7.67022524 30.4164104 7.50491867 30.3502878 7.47185735 30.2841652 7.43879603 30.3172265 7.33961209 30.3502878 7.27348946 30.3502878 7.17430551 30.4825331 7.17430551z"/>
      <path fill="#0BAFC4" d="M27.6831764,9.65390419 C27.6831764,9.81921076 27.6831764,10.0175787 27.6831764,10.1828852 C27.6831764,10.3151305 27.6148827,10.3481918 27.5124422,10.3481918 C27.4100017,10.3481918 27.3417081,10.3151305 27.3417081,10.1828852 C27.3417081,9.81921076 27.3417081,9.42247498 27.3417081,9.0588005 C27.3417081,8.92655524 27.3758549,8.89349392 27.5124422,8.89349392 C27.6148827,8.89349392 27.6831764,8.89349392 27.6831764,9.0588005 C27.6831764,9.29022971 27.6831764,9.48859761 27.6831764,9.65390419 Z"/>
      <path fill="#0CAFC4" d="M30.4825331 4.09960315C30.3833491 4.09960315 30.3833491 4.0004192 30.3172265 3.93429657 30.2841652 3.86817394 30.2841652 3.80205131 30.3502878 3.76898999 30.680901 3.5706221 31.0445754 3.3722542 31.3751886 3.17388631 31.4743726 3.14082499 31.5074339 3.17388631 31.5735565 3.24000894 31.6066178 3.30613157 31.6727404 3.40531552 31.5735565 3.43837683 31.209882 3.63674473 30.8792689 3.83511262 30.5155944 4.06654183 30.5155944 4.09960315 30.4825331 4.09960315 30.4825331 4.09960315zM25.9531328 2.64490526C25.9531328 2.7440892 25.8539489 2.77715052 25.7878263 2.81021183 25.7217036 2.84327315 25.655581 2.81021183 25.6225197 2.7440892 25.4902744 2.47959868 25.3249678 2.24816947 25.1927226 1.98367894 25.1596613 1.91755631 25.1265999 1.85143368 25.0935386 1.78531105 24.9943547 1.62000447 25.027416 1.58694315 25.1596613 1.52082052 25.2257839 1.48775921 25.2919065 1.48775921 25.3249678 1.55388184 25.5233357 1.884495 25.7217036 2.24816947 25.9200715 2.57878263 25.9531328 2.61184394 25.9531328 2.64490526 25.9531328 2.64490526z"/>
      <path fill="#0DAFC4" d="M31.5074339 5.79658538C31.309066 5.79658538 31.1437594 5.79658538 30.9453915 5.79658538 30.8131462 5.79658538 30.7800849 5.76243855 30.7800849 5.62585124 30.7800849 5.52341075 30.7800849 5.45511709 30.9123302 5.45511709 31.309066 5.45511709 31.6727404 5.45511709 32.0694762 5.45511709 32.2017215 5.45511709 32.2017215 5.55755758 32.2017215 5.62585124 32.2017215 5.72829172 32.2017215 5.79658538 32.0694762 5.79658538 31.8711083 5.79658538 31.7058018 5.79658538 31.5074339 5.79658538zM23.5065955 5.79658538C23.3082276 5.79658538 23.142921 5.79658538 22.9445531 5.79658538 22.8123078 5.79658538 22.7792465 5.72829172 22.7792465 5.62585124 22.7792465 5.52341075 22.8123078 5.45511709 22.9114918 5.45511709 23.2751663 5.45511709 23.671902 5.45511709 24.0355765 5.45511709 24.1678218 5.45511709 24.1678218 5.52341075 24.1678218 5.62585124 24.1678218 5.72829172 24.1347605 5.79658538 24.0355765 5.79658538 23.8702699 5.79658538 23.671902 5.79658538 23.5065955 5.79658538z"/>
    </g>
  </g>
</svg>
