<svg xmlns="http://www.w3.org/2000/svg" width="84" height="84" viewBox="0 0 84 84">
  <g fill="none" fill-rule="evenodd">
    <path fill="#FFF" d="M42,84 C18.8040405,84 0,65.1959595 0,42 C0,18.8040405 18.8040405,0 42,0 C65.1959595,0 84,18.8040405 84,42 C84,65.1959595 65.1959595,84 42,84 Z"/>
    <path fill="#F3F3F4" fill-rule="nonzero" d="M42,81 C63.5391052,81 81,63.5391052 81,42 C81,20.4608948 63.5391052,3 42,3 C20.4608948,3 3,20.4608948 3,42 C3,63.5391052 20.4608948,81 42,81 Z M42,84 C18.8040405,84 0,65.1959595 0,42 C0,18.8040405 18.8040405,0 42,0 C65.1959595,0 84,18.8040405 84,42 C84,65.1959595 65.1959595,84 42,84 Z"/>
    <g fill-rule="nonzero" transform="translate(18 19)">
      <rect width="47.367" height="4.66" x=".817" y=".088" fill="#8D959D"/>
      <rect width="44.1" height="32.621" x="2.45" y="4.748" fill="#ECF0F1"/>
      <rect width="4.9" height="3.883" x="7.35" y="28.048" fill="#0AAFC4"/>
      <rect width="4.9" height="3.883" x="14.7" y="28.048" fill="#0AAFC4"/>
      <rect width="4.9" height="3.883" x="22.05" y="28.048" fill="#0AAFC4"/>
      <rect width="4.9" height="3.883" x="29.4" y="28.048" fill="#0AAFC4"/>
      <rect width="4.9" height="3.883" x="36.75" y="28.048" fill="#0AAFC4"/>
      <rect width="4.9" height="3.883" x="7.35" y="24.165" fill="#FFBB41"/>
      <rect width="4.9" height="8.544" x="14.7" y="19.505" fill="#F3969B"/>
      <rect width="4.9" height="13.204" x="22.05" y="14.845" fill="#F3969B"/>
      <rect width="4.9" height="7.767" x="29.4" y="20.282" fill="#FFBB41"/>
      <rect width="4.9" height="17.864" x="36.75" y="10.185" fill="#F3969B"/>
      <path fill="#D1D4D1" d="M6.53333333,17.1748366 C6.32426667,17.1748366 6.1152,17.0987211 5.95595,16.9472669 C5.63663333,16.6435817 5.63663333,16.1527146 5.95595,15.8490294 L11.6726167,10.4122102 C11.9919333,10.1085251 12.5080667,10.1085251 12.8273833,10.4122102 C13.1467,10.7158954 13.1467,11.2067625 12.8273833,11.5104477 L7.11071667,16.9472669 C6.95146667,17.0987211 6.7424,17.1748366 6.53333333,17.1748366 Z"/>
      <path fill="#D1D4D1" d="M12.25,15.6214597 C11.7983833,15.6214597 11.4333333,15.27428 11.4333333,14.8447712 L11.4333333,10.961329 C11.4333333,10.5318203 11.7983833,10.1846405 12.25,10.1846405 C12.7016167,10.1846405 13.0666667,10.5318203 13.0666667,10.961329 L13.0666667,14.8447712 C13.0666667,15.27428 12.7016167,15.6214597 12.25,15.6214597 Z"/>
      <path fill="#D1D4D1" d="M12.25,11.7380174 L8.16666667,11.7380174 C7.71505,11.7380174 7.35,11.3908377 7.35,10.961329 C7.35,10.5318203 7.71505,10.1846405 8.16666667,10.1846405 L12.25,10.1846405 C12.7016167,10.1846405 13.0666667,10.5318203 13.0666667,10.961329 C13.0666667,11.3908377 12.7016167,11.7380174 12.25,11.7380174 Z"/>
      <path fill="#8D959D" d="M48.1833333,38.1454248 L0.816666667,38.1454248 C0.36505,38.1454248 0,37.7982451 0,37.3687364 C0,36.9392277 0.36505,36.5920479 0.816666667,36.5920479 L48.1833333,36.5920479 C48.63495,36.5920479 49,36.9392277 49,37.3687364 C49,37.7982451 48.63495,38.1454248 48.1833333,38.1454248 Z"/>
      <path fill="#8D959D" d="M24.5,40.4754902 C24.0483833,40.4754902 23.6833333,40.1283105 23.6833333,39.6988017 L23.6833333,37.3687364 C23.6833333,36.9392277 24.0483833,36.5920479 24.5,36.5920479 C24.9516167,36.5920479 25.3166667,36.9392277 25.3166667,37.3687364 L25.3166667,39.6988017 C25.3166667,40.1283105 24.9516167,40.4754902 24.5,40.4754902 Z"/>
      <path fill="#8D959D" d="M24.5,45.9123094 C22.6984333,45.9123094 21.2333333,44.5189303 21.2333333,42.8055556 C21.2333333,41.0921808 22.6984333,39.6988017 24.5,39.6988017 C26.3015667,39.6988017 27.7666667,41.0921808 27.7666667,42.8055556 C27.7666667,44.5189303 26.3015667,45.9123094 24.5,45.9123094 Z M24.5,41.2521786 C23.5992167,41.2521786 22.8666667,41.9488682 22.8666667,42.8055556 C22.8666667,43.6622429 23.5992167,44.3589325 24.5,44.3589325 C25.4007833,44.3589325 26.1333333,43.6622429 26.1333333,42.8055556 C26.1333333,41.9488682 25.4007833,41.2521786 24.5,41.2521786 Z"/>
    </g>
  </g>
</svg>
