<svg xmlns="http://www.w3.org/2000/svg" width="84" height="84" viewBox="0 0 84 84">
  <g fill="none" fill-rule="evenodd">
    <path fill="#FFF" d="M42,84 C18.8040405,84 0,65.1959595 0,42 C0,18.8040405 18.8040405,0 42,0 C65.1959595,0 84,18.8040405 84,42 C84,65.1959595 65.1959595,84 42,84 Z"/>
    <path fill="#F3F3F4" fill-rule="nonzero" d="M42,81 C63.5391052,81 81,63.5391052 81,42 C81,20.4608948 63.5391052,3 42,3 C20.4608948,3 3,20.4608948 3,42 C3,63.5391052 20.4608948,81 42,81 Z M42,84 C18.8040405,84 0,65.1959595 0,42 C0,18.8040405 18.8040405,0 42,0 C65.1959595,0 84,18.8040405 84,42 C84,65.1959595 65.1959595,84 42,84 Z"/>
    <g fill-rule="nonzero" transform="translate(24 20)">
      <path fill="#ABB4BD" d="M28.2182833,29.2943262 C28.092515,29.2943262 27.9647382,29.2743546 27.83897,29.232227 C27.2109013,29.0208085 26.8716052,28.3352199 27.0806524,27.7012766 L29.351279,20.8224539 L27.7212361,19.1763546 L23.7045322,19.1763546 L22.0744893,20.8224539 L24.3451159,27.7012766 C24.5541631,28.3352199 24.215176,29.0208085 23.5867983,29.232227 C22.9598112,29.4439574 22.2801373,29.100695 22.0707811,28.4664397 L19.5659227,20.8776879 C19.4226953,20.4426809 19.5345579,19.9633617 19.8557768,19.6392908 L22.3606352,17.1097589 C22.5854421,16.8824255 22.8901288,16.7552624 23.208103,16.7552624 L28.2179742,16.7552624 C28.535794,16.7552624 28.8406352,16.8827376 29.0654421,17.1097589 L31.5703004,19.6392908 C31.8915193,19.9633617 32.003382,20.4426809 31.8601545,20.8776879 L29.3552961,28.4664397 C29.1878112,28.9736879 28.7199657,29.2943262 28.2182833,29.2943262 Z"/>
      <rect width="5.01" height="10.118" x="23.207" y="5.318" fill="#747B83"/>
      <rect width="2.529" height="10.118" x="25.69" y="5.318" fill="#63696F"/>
      <rect width="10.019" height="5.059" x="20.704" y="12.906" fill="#939CA5"/>
      <rect width="23.069" height="7.765" x="5.21" y="1.17" fill="#FFBB41"/>
      <rect width="7.689" height="31.059" x="1.364" y="5.054" fill="#FFBB41"/>
      <rect width="34.602" height="11.647" x="1.364" y="32.232" fill="#FC494A"/>
      <ellipse cx="5.908" cy="5.877" fill="#ABB4BD" rx="5.767" ry="5.824"/>
      <path fill="#8D959D" d="M0.143381974,5.75104965 C0.142609442,5.79302128 0.140137339,5.83468085 0.140137339,5.87696454 C0.140137339,9.09333333 2.72224893,11.7008794 5.90724464,11.7008794 C9.09224034,11.7008794 11.6743519,9.09333333 11.6743519,5.87696454 C11.6743519,5.83468085 11.6718798,5.79302128 11.6711073,5.75104965 L0.143381974,5.75104965 Z"/>
      <ellipse cx="5.908" cy="5.877" fill="#747B83" rx="3.495" ry="3.529"/>
      <path fill="#63696F" d="M2.41833476,5.75104965 C2.41694421,5.79302128 2.412,5.83436879 2.412,5.87696454 C2.412,7.82622695 3.9768412,9.40648227 5.90709013,9.40648227 C7.83733906,9.40648227 9.40218026,7.82622695 9.40218026,5.87696454 C9.40218026,5.83452482 9.39739056,5.79333333 9.39584549,5.75104965 L2.41833476,5.75104965 Z"/>
    </g>
  </g>
</svg>
