<svg xmlns="http://www.w3.org/2000/svg" width="110" height="110" viewBox="0 0 110 110">
  <g fill="none" fill-rule="evenodd">
    <path fill="#FFF" d="M55,110 C24.6243388,110 0,85.3756612 0,55 C0,24.6243388 24.6243388,0 55,0 C85.3756612,0 110,24.6243388 110,55 C110,85.3756612 85.3756612,110 55,110 Z"/>
    <path fill="#F3F3F4" fill-rule="nonzero" d="M55,107 C83.718807,107 107,83.718807 107,55 C107,26.281193 83.718807,3 55,3 C26.281193,3 3,26.281193 3,55 C3,83.718807 26.281193,107 55,107 Z M55,110 C24.6243388,110 0,85.3756612 0,55 C0,24.6243388 24.6243388,0 55,0 C85.3756612,0 110,24.6243388 110,55 C110,85.3756612 85.3756612,110 55,110 Z"/>
    <g fill-rule="nonzero" transform="translate(20 26)">
      <ellipse cx="30.833" cy="6.601" fill="#E3AA95" rx="2.125" ry="2.137"/>
      <g fill="#FBBA44" transform="translate(25.615 16.79)">
        <path d="M21.5548718,11.4473684 C18.9364103,4.06381579 8.61435897,2.57565789 5.21794872,2.27039474 C6.84974359,0.973026316 8.78512821,0.133552632 10.834359,0.133552632 C16.5266667,0.133552632 21.1753846,6.525 21.5548718,11.4473684 Z"/>
        <path d="M21.5928205,12.0769737 C21.5928205,12.3631579 21.5738462,12.6302632 21.5548718,12.8973684 C21.0615385,17.3618421 16.4507692,19.8230263 10.8533333,19.8230263 C4.91435897,19.8230263 0.113846154,17.0565789 0.113846154,12.0769737 C0.113846154,8.98618421 1.97333333,5.09407895 4.81948718,2.61381579 C4.95230769,2.49934211 5.08512821,2.38486842 5.23692308,2.27039474 C7.51578337,2.46241331 13.2889568,2.51293119 17.3846154,5.21052632 C21.480274,7.90812144 20.7122713,9.01789485 21.5738462,11.4473684 C21.5738462,11.6572368 21.5928205,11.8671053 21.5928205,12.0769737 Z"/>
      </g>
      <g transform="translate(32.256 23.086)">
        <ellipse cx="4.421" cy="4.426" fill="#F49514" rx="4.326" ry="4.35"/>
        <path fill="#FBBA44" d="M4.34512821,0.686842105 C2.27692308,0.725 0.645128205,2.42302632 0.683076923,4.50263158 C0.721025641,6.56315789 2.40974359,8.22302632 4.47794872,8.18486842 C6.52717949,8.14671053 8.17794872,6.44868421 8.14,4.36907895 C8.10205128,2.28947368 6.41333333,0.648684211 4.34512821,0.686842105 Z M5.46461538,5.76184211 C5.29384615,5.95263158 5.08512821,6.08618421 4.81948718,6.14342105 L4.81948718,6.48684211 L4.19333333,6.48684211 L4.19333333,6.20065789 C4.00358974,6.18157895 3.83282051,6.14342105 3.68102564,6.08618421 C3.49128205,6.00986842 3.2825641,5.87631579 3.11179487,5.70460526 L3.54820513,4.96052632 C3.7,5.13223684 3.83282051,5.24671053 3.98461538,5.32302632 C4.06051282,5.36118421 4.1174359,5.38026316 4.19333333,5.41842105 C4.26923077,5.4375 4.34512821,5.45657895 4.42102564,5.45657895 C4.55384615,5.45657895 4.64871795,5.41842105 4.72461538,5.34210526 C4.7625641,5.30394737 4.80051282,5.26578947 4.81948718,5.22763158 L4.81948718,4.92236842 C4.80051282,4.88421053 4.78153846,4.84605263 4.74358974,4.80789474 C4.66769231,4.75065789 4.51589744,4.67434211 4.26923077,4.61710526 C4.25025641,4.61710526 4.21230769,4.59802632 4.19333333,4.59802632 C3.87076923,4.50263158 3.62410256,4.38815789 3.49128205,4.25460526 C3.33948718,4.10197368 3.26358974,3.89210526 3.26358974,3.625 C3.26358974,3.30065789 3.35846154,3.03355263 3.56717949,2.82368421 C3.73794872,2.65197368 3.94666667,2.5375 4.21230769,2.48026316 L4.21230769,2.07960526 L4.83846154,2.07960526 L4.83846154,2.44210526 C4.95230769,2.46118421 5.06615385,2.48026316 5.16102564,2.51842105 C5.29384615,2.57565789 5.44564103,2.63289474 5.57846154,2.72828947 L5.27487179,3.45328947 C5.16102564,3.35789474 5.04717949,3.30065789 4.93333333,3.24342105 C4.89538462,3.22434211 4.87641026,3.22434211 4.83846154,3.20526316 C4.74358974,3.18618421 4.66769231,3.16710526 4.57282051,3.16710526 C4.45897436,3.16710526 4.36410256,3.20526316 4.28820513,3.2625 C4.25025641,3.30065789 4.21230769,3.33881579 4.21230769,3.37697368 C4.19333333,3.41513158 4.19333333,3.45328947 4.19333333,3.49144737 C4.19333333,3.52960526 4.19333333,3.56776316 4.21230769,3.60592105 C4.23128205,3.64407895 4.25025641,3.68223684 4.28820513,3.72039474 C4.34512821,3.77763158 4.47794872,3.81578947 4.66769231,3.87302632 L4.70564103,3.87302632 C4.74358974,3.89210526 4.80051282,3.89210526 4.83846154,3.91118421 C5.16102564,4.00657895 5.38871795,4.10197368 5.5025641,4.21644737 C5.5974359,4.31184211 5.65435897,4.40723684 5.71128205,4.54078947 C5.76820513,4.65526316 5.78717949,4.80789474 5.78717949,4.96052632 C5.76820513,5.24671053 5.67333333,5.53289474 5.46461538,5.76184211 Z"/>
      </g>
      <g fill="#FBBA44" transform="translate(30.17)">
        <path d="M10.8912821,4.80789474 L10.4358974,6.71578947 L1.21435897,6.71578947 L1.0625641,6.12434211 C3.14974359,6.33421053 7.98820513,6.54407895 10.8912821,4.80789474 Z"/>
        <path d="M11.4984615,2.28947368 L11.4984615,2.28947368 L11.4794872,2.34671053 C11.4794872,2.38486842 11.4605128,2.42302632 11.4415385,2.46118421 L11.3846154,2.72828947 L11.1569231,3.68223684 L11.1569231,3.68223684 L10.8912821,4.80789474 C7.98820513,6.54407895 3.14974359,6.33421053 1.0625641,6.12434211 L0.967692308,5.74276316 L0.151794872,2.5375 C0.132820513,2.46118421 0.113846154,2.40394737 0.0948717949,2.32763158 L0.0948717949,2.32763158 C0.0758974359,2.21315789 0.0569230769,2.07960526 0.0569230769,1.94605263 C0.0569230769,0.973026316 0.777948718,0.171710526 1.70769231,0.0381578947 L1.70769231,0.0381578947 L1.70769231,0.0381578947 C1.78358974,0.0190789474 1.87846154,0.0190789474 1.95435897,0.0190789474 C3.01692308,0.0190789474 3.87076923,0.877631579 3.87076923,1.94605263 L3.87076923,2.02236842 L3.87076923,2.02236842 L3.87076923,1.94605263 L3.87076923,1.83157895 C3.92769231,0.820394737 4.7625641,0.0190789474 5.78717949,0.0190789474 C6.84974359,0.0190789474 7.70358974,0.877631579 7.70358974,1.94605263 L7.70358974,2.02236842 L7.70358974,2.02236842 L7.70358974,1.94605263 C7.70358974,0.877631579 8.5574359,0.0190789474 9.62,0.0190789474 C10.6825641,0.0190789474 11.5364103,0.877631579 11.5364103,1.94605263 C11.5364103,2.07960526 11.5174359,2.175 11.4984615,2.28947368 Z"/>
        <path d="M3.92769231 3.73947368C3.54820513.0953947368 1.76461538.0572368421 1.70769231.0572368421 1.78358974.0381578947 1.87846154.0381578947 1.95435897.0381578947 3.01692308.0381578947 3.87076923.896710526 3.87076923 1.96513158L3.87076923 1.85065789C3.88974359 2.76644737 3.92769231 3.73947368 3.92769231 3.73947368zM7.76051282 3.73947368C7.38102564.0953947368 5.5974359.0572368421 5.54051282.0572368421 5.61641026.0381578947 5.71128205.0381578947 5.78717949.0381578947 6.84974359.0381578947 7.70358974.896710526 7.70358974 1.96513158L7.70358974 1.85065789C7.7225641 2.76644737 7.76051282 3.73947368 7.76051282 3.73947368zM11.4984615 2.28947368L11.4984615 2.28947368 11.4794872 2.34671053C11.4794872 2.38486842 11.4605128 2.42302632 11.4415385 2.46118421L11.3846154 2.72828947 11.1569231 3.68223684 11.1569231 3.68223684C11.1569231 3.68223684 11.3466667 2.51842105 11.1948718 1.8125 10.8153846.114473684 9.62.0190789474 9.62.0190789474 10.6825641.0190789474 11.5364103.877631579 11.5364103 1.94605263 11.5364103 2.07960526 11.5174359 2.175 11.4984615 2.28947368z"/>
      </g>
      <rect width="14.117" height="10.741" x="37.892" y="7.746" fill="#F0B69A"/>
      <ellipse cx="35.937" cy="13.05" fill="#F0B69A" rx="7.761" ry="7.803"/>
      <g transform="translate(46.677 6.487)">
        <path fill="#9AD2D8" d="M6.20461538,6.37236842 L6.20461538,6.37236842 L6.16666667,1.16381579 C6.16666667,0.591447368 5.71128205,0.133552632 5.14205128,0.133552632 L1.04358974,0.152631579 C0.474358974,0.152631579 0.018974359,0.610526316 0.018974359,1.18289474 L0.0758974359,12.0197368 C0.0948717949,12.5921053 0.55025641,13.05 1.11948718,13.05 L5.21794872,13.0309211 C5.78717949,13.0309211 6.2425641,12.5730263 6.2425641,12.0006579 L6.20461538,6.37236842 Z"/>
        <ellipse cx="1.765" cy="2.271" fill="#FFF" rx="1.006" ry="1.011" transform="rotate(-.308 1.765 2.27)"/>
      </g>
      <path fill="#EA4D50" d="M73.9810256,5.99078947 L50.7564103,5.99078947 C50.3579487,5.99078947 50.0733333,6.44868421 50.0923077,7.02105263 L50.0923077,19.4605263 C50.0733333,20.0138158 50.3579487,20.4717105 50.7374359,20.4907895 L73.9620513,20.4907895 L73.9810256,5.99078947 Z"/>
      <rect width="14.117" height="10.741" x="21.991" y="45.16" fill="#F0B69A"/>
      <ellipse cx="36.45" cy="48.098" fill="#F0B69A" rx="7.761" ry="7.803"/>
      <g transform="translate(21.062 43.882)">
        <g fill="#9AD2D8">
          <path d="M6.20461538,6.60131579 L6.2425641,1.18289474 C6.2425641,0.610526316 5.78717949,0.152631579 5.21794872,0.152631579 L1.11948718,0.133552632 C0.55025641,0.133552632 0.0948717949,0.591447368 0.0948717949,1.16381579 L0.0569230769,6.58223684 L1.46102564,6.58223684 L6.20461538,6.60131579 Z"/>
          <path d="M6.18564103,12.0388158 L6.20461538,6.02894737 L1.46102564,6.06710526 L0.0569230769,6.06710526 L0.018974359,12.0197368 C0.018974359,12.5921053 0.474358974,13.05 1.04358974,13.05 L5.14205128,13.0690789 C5.71128205,13.0690789 6.18564103,12.5921053 6.18564103,12.0388158 Z"/>
        </g>
        <ellipse cx="4.506" cy="2.279" fill="#FFF" rx="1.006" ry="1.011" transform="rotate(-89.692 4.506 2.279)"/>
      </g>
      <path fill="#00767C" d="M23.9076923,44.4157895 C23.9266667,43.8625 23.6420513,43.4046053 23.2435897,43.3855263 L0.018974359,43.3855263 L0.0569230769,57.9046053 L23.2815385,57.9046053 C23.6610256,57.8855263 23.945641,57.4276316 23.9266667,56.8743421 L23.9076923,44.4157895 Z"/>
      <ellipse cx="36.867" cy="27.512" fill="#FBBA44" rx="3.055" ry="3.072"/>
      <path fill="#F49514" d="M35.5579487,28.1796053 C35.7097436,28.7328947 36.0323077,28.9809211 36.6394872,28.9809211 C37.0758974,28.9809211 37.3035897,28.8855263 37.5882051,28.5802632 C37.6830769,28.4848684 37.7589744,28.4467105 37.8348718,28.4467105 C38.005641,28.4467105 38.1574359,28.5993421 38.1574359,28.7710526 C38.1574359,28.8473684 38.1384615,28.9046053 38.1005128,28.9427632 C37.8158974,29.3243421 37.265641,29.5914474 36.6394872,29.5914474 C35.6528205,29.5914474 35.0266667,29.1717105 34.8369231,28.1796053 L34.7420513,28.1796053 C34.5902564,28.1796053 34.4953846,28.0651316 34.4953846,27.9315789 C34.4953846,27.7980263 34.6092308,27.6835526 34.7420513,27.6835526 L34.78,27.6835526 L34.78,27.4164474 L34.7420513,27.4164474 C34.5902564,27.4164474 34.4953846,27.3019737 34.4953846,27.1684211 C34.4953846,27.0348684 34.6092308,26.9203947 34.7420513,26.9203947 L34.8369231,26.9203947 C35.0076923,25.9282895 35.6338462,25.4513158 36.6394872,25.4513158 C37.3605128,25.4513158 37.8158974,25.7375 38.0625641,26.1 C38.1194872,26.1763158 38.1194872,26.2335526 38.1194872,26.2907895 C38.1194872,26.4625 37.9866667,26.6151316 37.7969231,26.6151316 C37.7210256,26.6151316 37.6261538,26.5769737 37.5502564,26.5006579 C37.3225641,26.2335526 37.0569231,26.0809211 36.6205128,26.0809211 C36.0133333,26.0809211 35.6717949,26.3671053 35.5389744,26.9394737 L36.26,26.9394737 C36.3928205,26.9394737 36.5066667,27.0539474 36.5066667,27.1875 C36.5066667,27.3210526 36.3928205,27.4355263 36.26,27.4355263 L35.4630769,27.4355263 L35.4630769,27.7026316 L36.26,27.7026316 C36.3928205,27.7026316 36.5066667,27.8171053 36.5066667,27.9506579 C36.5066667,28.0842105 36.3928205,28.1986842 36.26,28.1986842 L35.5579487,28.1796053 L35.5579487,28.1796053 Z"/>
    </g>
  </g>
</svg>
