<svg xmlns="http://www.w3.org/2000/svg" width="84" height="84" viewBox="0 0 84 84">
  <g fill="none" fill-rule="evenodd">
    <path fill="#FFF" d="M42,84 C18.8040405,84 0,65.1959595 0,42 C0,18.8040405 18.8040405,0 42,0 C65.1959595,0 84,18.8040405 84,42 C84,65.1959595 65.1959595,84 42,84 Z"/>
    <path fill="#F3F3F4" fill-rule="nonzero" d="M42,81 C63.5391052,81 81,63.5391052 81,42 C81,20.4608948 63.5391052,3 42,3 C20.4608948,3 3,20.4608948 3,42 C3,63.5391052 20.4608948,81 42,81 Z M42,84 C18.8040405,84 0,65.1959595 0,42 C0,18.8040405 18.8040405,0 42,0 C65.1959595,0 84,18.8040405 84,42 C84,65.1959595 65.1959595,84 42,84 Z"/>
    <g fill-rule="nonzero" transform="translate(15 17)">
      <path fill="#ECEBEB" d="M3.72834891,26.3472165 L2.06084486,26.3472165 C0.922766355,26.3472165 0,25.4286598 0,24.2957732 L0,19.1203093 C0,17.9874227 0.922766355,17.068866 2.06084486,17.068866 L3.72834891,17.068866 L3.72834891,26.3472165 Z"/>
      <path fill="#FC494A" d="M18.6902131,30.1986598 L6.19651589,29.4424742 C4.83287227,29.3459794 3.77588536,28.2168041 3.77588536,26.8556701 L3.77588536,16.5242268 C3.77588536,15.3412371 4.69399128,14.3605155 5.87867414,14.2760825 L18.689281,13.4976289 L18.689281,30.1986598 L18.6902131,30.1986598 Z"/>
      <path fill="#ECEBEB" d="M39.1457994,42.2354639 L20.8451988,33.1269072 C19.5244312,32.4690722 18.689281,31.125567 18.689281,29.6558763 L18.689281,13.9652577 C18.689281,12.5345361 19.4806231,11.2197938 20.7473296,10.5443299 L39.0488623,0.785360825 C41.6465894,-0.599896907 44.7886555,1.27340206 44.7886555,4.20536082 L44.7886555,38.7635052 C44.7886555,41.6490722 41.737934,43.5260825 39.1457994,42.2354639"/>
      <path fill="#FC494A" d="M45.6722741,17.068866 L44.7401869,17.068866 L44.7401869,26.3472165 L45.6722741,26.3472165 C47.722866,26.3472165 49.4006231,24.6771134 49.4006231,22.6358763 L49.4006231,20.7802062 C49.4006231,18.7389691 47.722866,17.068866 45.6722741,17.068866"/>
      <path fill="#FFF" d="M52.1959526,28.2028866 C52.0086031,28.2028866 51.8184573,28.1462887 51.6534779,28.0293814 C51.2359028,27.7306186 51.1389657,27.1507216 51.4400299,26.7341237 C51.9675913,26.001134 53.1895576,24.0461856 53.129904,21.7321649 C53.0832997,19.8987629 52.5137944,18.1980412 51.4363016,16.6754639 C51.1398978,16.2560825 51.2405632,15.6780412 51.6609346,15.3829897 C52.0813059,15.0879381 52.6638604,15.1881443 52.9602642,15.6065979 C54.2540012,17.434433 54.9381533,19.4793814 54.9950106,21.6848454 C55.0695776,24.5592784 53.5940835,26.9298969 52.9556037,27.8159794 C52.7719826,28.0683505 52.4867639,28.2028866 52.1959526,28.2028866"/>
      <path fill="#FC494A" d="M7.50516636,29.5241237 L7.50516636,46.4357732 C7.50516636,48.2218557 8.97320374,49.6831959 10.7674717,49.6831959 C12.5617396,49.6831959 14.0297769,48.2218557 14.0297769,46.4357732 L14.0297769,29.9286598 L7.50516636,29.5241237 Z"/>
      <path fill="#FFBB41" d="M39.0003938,0.785360825 L37.2834891,1.70113402 L37.2834891,41.3326804 L39.0982629,42.2354639 C41.6903975,43.5260825 44.7401869,41.65 44.7401869,38.764433 L44.7401869,4.20628866 C44.7401869,1.27340206 41.5971888,-0.599896907 39.0003938,0.785360825"/>
      <path fill="#FFF" d="M28.797767 11.0908247C28.5694056 10.6324742 28.0129495 10.442268 27.5487701 10.6705155L23.4000498 12.7126804C22.1902006 13.3575258 21.4380062 14.6073196 21.4380062 15.9749485L21.4380062 17.996701C21.4380062 18.5097938 21.8546492 18.9245361 22.3700935 18.9245361 22.8855377 18.9245361 23.3021807 18.5097938 23.3021807 17.996701L23.3021807 15.9749485C23.3021807 15.2929897 23.6768798 14.6694845 24.2538417 14.3623711L28.3764636 12.3341237C28.8369146 12.1068041 29.0270604 11.5501031 28.797767 11.0908247M22.3700935 19.8523711C21.8546492 19.8523711 21.4380062 20.2671134 21.4380062 20.7802062L21.4380062 22.6358763C21.4380062 23.1489691 21.8546492 23.5637113 22.3700935 23.5637113 22.8855377 23.5637113 23.3021807 23.1489691 23.3021807 22.6358763L23.3021807 20.7802062C23.3021807 20.2680412 22.8855377 19.8523711 22.3700935 19.8523711"/>
    </g>
  </g>
</svg>
