<svg xmlns="http://www.w3.org/2000/svg" width="110" height="110" viewBox="0 0 110 110">
  <g fill="none" fill-rule="evenodd">
    <path fill="#FFF" d="M55,110 C24.6243388,110 0,85.3756612 0,55 C0,24.6243388 24.6243388,0 55,0 C85.3756612,0 110,24.6243388 110,55 C110,85.3756612 85.3756612,110 55,110 Z"/>
    <path fill="#F3F3F4" fill-rule="nonzero" d="M55,107 C83.718807,107 107,83.718807 107,55 C107,26.281193 83.718807,3 55,3 C26.281193,3 3,26.281193 3,55 C3,83.718807 26.281193,107 55,107 Z M55,110 C24.6243388,110 0,85.3756612 0,55 C0,24.6243388 24.6243388,0 55,0 C85.3756612,0 110,24.6243388 110,55 C110,85.3756612 85.3756612,110 55,110 Z"/>
    <g transform="translate(21 24)">
      <polygon fill="#55161C" points="7.073 50.928 62.046 50.928 62.046 .594 7.073 .594"/>
      <path fill="#A43337" d="M21.3243183,0.470204237 C19.3944252,18.5693568 15.9349443,29.3957466 8.07789847,35.8553822 C10.3570053,44.2808314 12.6261046,52.0079415 13.8907534,56.2401534 C14.393242,57.9213992 13.1507153,59.6170602 11.4172878,59.6170602 L3.98951679,59.6170602 C2.56263893,59.6170602 1.40596718,58.4440856 1.40596718,56.9977551 L1.40596718,3.18294153 C1.40596718,1.7424839 2.55421145,0.572178814 3.97582214,0.564170339 L21.3243183,0.470204237 Z"/>
      <path fill="#F0A64F" d="M8.54799389,37.0555856 L1.48523817,37.0555856 C0.95430687,37.0555856 0.523978626,36.6193907 0.523978626,36.0806873 C0.523978626,35.5425178 0.95430687,35.1063229 1.48523817,35.1063229 L8.54799389,35.1063229 C9.07892519,35.1063229 9.50978015,35.5425178 9.50978015,36.0806873 C9.50978015,36.6193907 9.07892519,37.0555856 8.54799389,37.0555856"/>
      <path fill="#A43337" d="M48.0610282,0.470204237 C49.9909214,18.5693568 53.4504023,29.3957466 61.3074481,35.8553822 C59.0283412,44.2808314 56.759242,52.0079415 55.4945931,56.2401534 C54.9921046,57.9213992 56.2346313,59.6170602 57.9680588,59.6170602 L65.3958298,59.6170602 C66.8227076,59.6170602 67.9793794,58.4440856 67.9793794,56.9977551 L67.9793794,3.18294153 C67.9793794,1.7424839 66.8311351,0.572178814 65.4095244,0.564170339 L48.0610282,0.470204237 Z"/>
      <path fill="#F8C46D" d="M41.5621237,20.7230492 C41.5621237,24.5115915 38.5319176,27.5831085 34.7943298,27.5831085 C31.056742,27.5831085 28.0265359,24.5115915 28.0265359,20.7230492 C28.0265359,16.9345068 31.056742,13.8629898 34.7943298,13.8629898 C38.5319176,13.8629898 41.5621237,16.9345068 41.5621237,20.7230492"/>
      <polygon fill="#131414" points="35.685 62.988 38.98 62.988 38.98 60.593 35.685 60.593"/>
      <polygon fill="#091321" points="30.546 62.988 33.841 62.988 33.841 60.593 30.546 60.593"/>
      <path fill="#E1E2DC" d="M32.1222389 62.9882542C32.1222389 62.1019831 31.4138038 61.3838898 30.5394527 61.3838898 29.6656282 61.3838898 28.9566664 62.1019831 28.9566664 62.9882542L32.1222389 62.9882542zM40.5553031 62.9882542C40.5553031 62.1019831 39.8468679 61.3838898 38.9725168 61.3838898 38.0986924 61.3838898 37.3897305 62.1019831 37.3897305 62.9882542L40.5553031 62.9882542z"/>
      <polygon fill="#2D78AA" points="30.537 60.651 33.841 60.651 33.841 42.509 30.537 42.509"/>
      <polygon fill="#1C6188" points="35.679 60.651 38.983 60.651 38.983 42.182 35.679 42.182"/>
      <path fill="#53606B" d="M38.9726748,42.3230797 C38.9726748,44.6754356 37.0849191,46.5825203 34.7563008,46.5825203 C32.4282092,46.5825203 30.5404534,44.6754356 30.5404534,42.3230797 C30.5404534,39.9707237 32.4282092,38.0631051 34.7563008,38.0631051 C37.0849191,38.0631051 38.9726748,39.9707237 38.9726748,42.3230797"/>
      <path fill="#9AAFBB" d="M40.5643626,34.3925008 C40.5643626,37.6423398 37.9650115,40.277128 34.7588817,40.277128 C31.5527519,40.277128 28.9534008,37.6423398 28.9534008,34.3925008 C28.9534008,31.1426619 31.5527519,28.5078737 34.7588817,28.5078737 C37.9650115,28.5078737 40.5643626,31.1426619 40.5643626,34.3925008"/>
      <polygon fill="#9AAFBB" points="30.17 42.319 39.348 42.319 39.348 35.337 30.17 35.337"/>
      <path fill="#E37E67" d="M40.8490534,21.4633525 C40.8490534,24.9107339 38.0922137,27.7051576 34.6911985,27.7051576 C31.2901832,27.7051576 28.5333435,24.9107339 28.5333435,21.4633525 C28.5333435,18.0159712 31.2901832,15.2215475 34.6911985,15.2215475 C38.0922137,15.2215475 40.8490534,18.0159712 40.8490534,21.4633525"/>
      <path fill="#131514" d="M31.8516641 21.9028042C31.8516641 22.1713551 31.6367634 22.3886517 31.3718244 22.3886517 31.1074122 22.3886517 30.8925115 22.1713551 30.8925115 21.9028042 30.8925115 21.6342534 31.1074122 21.4169568 31.3718244 21.4169568 31.6367634 21.4169568 31.8516641 21.6342534 31.8516641 21.9028042M38.5708947 21.9028042C38.5708947 22.1713551 38.3559939 22.3886517 38.091055 22.3886517 37.8266427 22.3886517 37.611742 22.1713551 37.611742 21.9028042 37.611742 21.6342534 37.8266427 21.4169568 38.091055 21.4169568 38.3559939 21.4169568 38.5708947 21.6342534 38.5708947 21.9028042"/>
      <path fill="#C3725C" d="M35.9097595,15.3449314 C37.701126,16.4362195 38.9036221,18.4196517 38.9036221,20.6924568 C38.9036221,24.1398381 36.1467824,26.9342619 32.7462939,26.9342619 C32.3286069,26.9342619 31.9214542,26.8910161 31.5274695,26.8109314 C32.4529122,27.374728 33.5326832,27.705211 34.6914618,27.705211 C38.0919504,27.705211 40.8487901,24.9107873 40.8487901,21.4634059 C40.8487901,18.438872 38.726645,15.9183381 35.9097595,15.3449314"/>
      <path fill="#E37E67" d="M30.4972099,22.751222 C30.4972099,23.6716627 29.7608588,24.4180525 28.8527977,24.4180525 C27.9442099,24.4180525 27.2078588,23.6716627 27.2078588,22.751222 C27.2078588,21.8307814 27.9442099,21.0843915 28.8527977,21.0843915 C29.7608588,21.0843915 30.4972099,21.8307814 30.4972099,22.751222"/>
      <path fill="#C3725C" d="M42.3097466,22.751222 C42.3097466,23.6716627 41.5733954,24.4180525 40.6653344,24.4180525 C39.7567466,24.4180525 39.0203954,23.6716627 39.0203954,22.751222 C39.0203954,21.8307814 39.7567466,21.0843915 40.6653344,21.0843915 C41.5733954,21.0843915 42.3097466,21.8307814 42.3097466,22.751222"/>
      <path fill="#DE9B7E" d="M34.8516893,25.2003737 C33.4695824,25.2003737 32.9828954,24.4934924 32.9628802,24.4630602 C32.9133687,24.3888483 32.9328573,24.2879415 33.0065977,24.2377551 C33.0792847,24.1881025 33.1777809,24.206789 33.2283458,24.2810008 C33.2467809,24.3076958 33.654987,24.8752297 34.8516893,24.8752297 C36.0520786,24.8752297 36.4608115,24.3125008 36.4776664,24.2884754 C36.528758,24.2158653 36.6283076,24.1982466 36.7004679,24.2489669 C36.7726282,24.3002212 36.7910634,24.4000602 36.7410252,24.4737381 C36.7210099,24.5031025 36.2332695,25.2003737 34.8516893,25.2003737"/>
      <path fill="#C3725C" d="M36.063087,27.3268907 L36.063087,28.9835771 C36.063087,29.7134161 35.4789573,30.3055093 34.7589344,30.3055093 C34.0383847,30.3055093 33.4547817,29.7134161 33.4547817,28.9835771 L33.4547817,27.4464839 L36.063087,27.3268907 Z"/>
      <path fill="#323B41" d="M33.3290542,45.7502263 C32.8571153,45.7502263 32.4046649,45.6685398 31.9806573,45.5238534 C32.7228023,46.1810822 33.6919626,46.5825737 34.7564588,46.5825737 C37.0850771,46.5825737 38.9728328,44.675489 38.9728328,42.3231331 L38.9728328,42.3193958 L39.3483824,42.3193958 L37.456413,42.3193958 C37.074016,44.2739975 35.3758786,45.7502263 33.3290542,45.7502263"/>
      <path fill="#799EAB" d="M37.5452702,33.4597271 L37.5452702,41.6192949 L37.5389496,41.6198288 C37.5321023,41.855278 37.5015527,42.0837864 37.4583618,42.3085576 L39.3482244,42.3085576 L39.3482244,37.9871847 C40.1077511,36.9925322 40.5644153,35.7480153 40.5644153,34.3924475 C40.5644153,31.5980237 38.640316,29.2632864 36.063087,28.6626508 L36.063087,28.9835237 C36.063087,29.3508458 35.9150794,29.6823966 35.6770031,29.9215831 C36.8036519,30.6866593 37.5452702,31.9856339 37.5452702,33.4597271"/>
      <path fill="#F8C46D" d="M36.2765656,13.3136085 C34.1823366,13.0514644 32.8286725,12.7588881 32.7191153,11.2330068 C31.3233137,13.6189983 32.3088023,17.0028458 35.1272679,17.0028458 C37.9457336,17.0028458 38.4929931,13.5912356 36.2765656,13.3136085"/>
      <path fill="#F8C46D" d="M35.6046847,13.4491119 C33.5399519,13.8901119 32.1657458,14.0588237 31.5737153,12.6514678 C31.0175015,15.3674085 33.0327229,18.2440525 35.6989672,17.3166712 C38.3646847,16.3892898 37.7900359,12.9819508 35.6046847,13.4491119"/>
      <polygon fill="#E0554D" points="33.045 31.261 33.045 29.332 34.855 30.313"/>
      <polygon fill="#E0554D" points="36.645 31.261 36.645 29.332 34.835 30.313"/>
      <polygon fill="#E37E67" points="28.962 41.235 30.604 41.235 30.604 34.722 28.962 34.722"/>
      <polygon fill="#C3725C" points="38.913 41.617 40.556 41.617 40.556 34.722 38.913 34.722"/>
      <path fill="#BDBEBA" d="M37.7620145,38.4474585 C37.7620145,40.0779839 36.4578618,41.3999161 34.8487397,41.3999161 C33.2401443,41.3999161 31.9359916,40.0779839 31.9359916,38.4474585 C31.9359916,36.8169331 33.2401443,35.4944669 34.8487397,35.4944669 C36.4578618,35.4944669 37.7620145,36.8169331 37.7620145,38.4474585"/>
      <path fill="#F8C46D" d="M36.3282893,38.3721788 C36.3282893,39.1484669 35.7072893,39.7779331 34.9409153,39.7779331 C34.1750679,39.7779331 33.5540679,39.1484669 33.5540679,38.3721788 C33.5540679,37.5953568 34.1750679,36.9658907 34.9409153,36.9658907 C35.7072893,36.9658907 36.3282893,37.5953568 36.3282893,38.3721788"/>
      <path fill="#9AAFBB" d="M36.1237649,41.1739169 C36.1237649,41.840222 35.5912534,42.3799932 34.9339099,42.3799932 C34.2765664,42.3799932 33.744055,41.840222 33.744055,41.1739169 C33.744055,40.5076119 34.2765664,39.9678407 34.9339099,39.9678407 C35.5912534,39.9678407 36.1237649,40.5076119 36.1237649,41.1739169"/>
      <path fill="#E37E67" d="M36.1820725,38.5239127 C36.1820725,39.2302602 35.6169046,39.8031331 34.9200573,39.8031331 C34.2226832,39.8031331 33.658042,39.2302602 33.658042,38.5239127 C33.658042,37.8175653 34.2226832,37.2446924 34.9200573,37.2446924 C35.6169046,37.2446924 36.1820725,37.8175653 36.1820725,38.5239127"/>
      <path fill="#131514" d="M34.3797689 38.6342499C34.3797689 38.7004642 34.3261022 38.7544642 34.2602967 38.7544642 34.1944911 38.7544642 34.1414634 38.7004642 34.1414634 38.6342499 34.1414634 38.5680356 34.1944911 38.5140356 34.2602967 38.5140356 34.3261022 38.5140356 34.3797689 38.5680356 34.3797689 38.6342499M35.7569773 38.6342499C35.7569773 38.7004642 35.7033106 38.7544642 35.6375051 38.7544642 35.5716995 38.7544642 35.5186718 38.7004642 35.5186718 38.6342499 35.5186718 38.5680356 35.5716995 38.5140356 35.6375051 38.5140356 35.7033106 38.5140356 35.7569773 38.5680356 35.7569773 38.6342499"/>
      <path fill="#C3725C" d="M35.1696687,37.2697856 C35.5367908,37.493489 35.7832947,37.8997856 35.7832947,38.3658788 C35.7832947,39.0722263 35.2181267,39.6450992 34.5212794,39.6450992 C34.4354244,39.6450992 34.3522031,39.6365568 34.2716153,39.6200059 C34.4612336,39.735328 34.682455,39.8031331 34.9200046,39.8031331 C35.6168519,39.8031331 36.1820198,39.2302602 36.1820198,38.5239127 C36.1820198,37.9040568 35.7469511,37.3872432 35.1696687,37.2697856"/>
      <path fill="#E37E67" d="M34.0602962,38.7877653 C34.0602962,38.9767653 33.909655,39.1294602 33.7231969,39.1294602 C33.5372656,39.1294602 33.3860977,38.9767653 33.3860977,38.7877653 C33.3860977,38.5992992 33.5372656,38.4460703 33.7231969,38.4460703 C33.909655,38.4460703 34.0602962,38.5992992 34.0602962,38.7877653"/>
      <path fill="#C3725C" d="M36.4815115,38.7877653 C36.4815115,38.9767653 36.3308702,39.1294602 36.1444122,39.1294602 C35.9584809,39.1294602 35.807313,38.9767653 35.807313,38.7877653 C35.807313,38.5992992 35.9584809,38.4460703 36.1444122,38.4460703 C36.3308702,38.4460703 36.4815115,38.5992992 36.4815115,38.7877653"/>
      <path fill="#DE9B7E" d="M34.9528191,39.3313682 C34.669445,39.3313682 34.5698954,39.1571539 34.5656817,39.1494397 C34.555674,39.1307968 34.5593611,39.1063682 34.5746359,39.0935111 C34.589384,39.0812968 34.609926,39.0857968 34.6199336,39.1044397 C34.6236206,39.1102254 34.706842,39.2510111 34.9528191,39.2510111 C35.1987962,39.2510111 35.2825443,39.1121539 35.2862313,39.1063682 C35.2967656,39.0883682 35.3167809,39.0838682 35.331529,39.0967254 C35.3462771,39.1089397 35.3504908,39.1340111 35.3399565,39.1520111 C35.3357427,39.1590825 35.2361931,39.3313682 34.9528191,39.3313682"/>
      <path fill="#C3725C" d="M35.3053843,39.7256644 L35.3053843,40.083057 C35.3053843,40.2403997 35.1624998,40.3685215 34.9862546,40.3685215 C34.8093799,40.3685215 34.6664954,40.2403997 34.6664954,40.083057 L34.6664954,39.7515136 L35.3053843,39.7256644 Z"/>
      <path fill="#799EAB" d="M35.5049771,40.982728 L35.5049771,42.6554314 L35.5033969,42.6554314 C35.5023435,42.7034822 35.4960229,42.7504653 35.4870687,42.7963805 L35.8742061,42.7963805 L35.8742061,41.9106432 C36.0301145,41.7066941 36.1238702,41.4520246 36.1238702,41.1738636 C36.1238702,40.6009907 35.7293588,40.1226178 35.2010611,39.9992873 L35.2010611,40.0649568 C35.2010611,40.1402364 35.1710382,40.2085754 35.1220534,40.2576941 C35.3527557,40.4141263 35.5049771,40.6805415 35.5049771,40.982728"/>
      <path fill="#F8C46D" d="M35.244884,36.8533983 C34.8156092,36.7994746 34.538029,36.739678 34.5159069,36.4268136 C34.2298992,36.9158644 34.4316321,37.6093983 35.0094412,37.6093983 C35.5872504,37.6093983 35.6994412,36.9105254 35.244884,36.8533983"/>
      <path fill="#F8C46D" d="M35.1071473,36.8812144 C34.6841931,36.9714432 34.4023992,37.0061466 34.2807275,36.7178415 C34.1669565,37.2741636 34.5799031,37.8641212 35.1266359,37.6740534 C35.672842,37.4839856 35.5548573,36.7856466 35.1071473,36.8812144"/>
      <polygon fill="#E0554D" points="34.582 40.613 35.033 40.379 34.582 40.136"/>
      <polygon fill="#E0554D" points="34.949 40.379 35.4 40.613 35.4 40.137"/>
      <path fill="#FFF" d="M30.3847557,45.9964068 L39.4142748,45.9964068 L39.4142748,33.7220847 L30.3847557,33.7220847 L30.3847557,45.9964068 Z M34.8992519,40.8090508 C33.6209084,40.8090508 32.5811679,39.7546017 32.5811679,38.4593644 C32.5811679,37.1635932 33.6209084,36.109678 34.8992519,36.109678 C36.1775954,36.109678 37.2173359,37.1635932 37.2173359,38.4593644 C37.2173359,39.7546017 36.1775954,40.8090508 34.8992519,40.8090508 L34.8992519,40.8090508 Z"/>
      <polygon fill="#BDBEBA" points="30.385 42.889 39.414 42.889 39.414 42.621 30.385 42.621"/>
      <path fill="#BDBEBA" d="M34.7439756 43.5679714L31.0859221 43.5679714C31.0253496 43.5679714 30.9758382 43.5081857 30.9758382 43.4342571 30.9758382 43.3603286 31.0253496 43.2999 31.0859221 43.2999L34.7439756 43.2999C34.8045481 43.2999 34.8535328 43.3603286 34.8535328 43.4342571 34.8535328 43.5081857 34.8045481 43.5679714 34.7439756 43.5679714M36.9502374 44.3709011L31.0857641 44.3709011C31.0251916 44.3709011 30.9762069 44.3111154 30.9762069 44.2371868 30.9762069 44.1632582 31.0251916 44.1028297 31.0857641 44.1028297L38.5814817 44.1028297C38.6420542 44.1028297 38.6910389 44.1632582 38.6910389 44.2371868 38.6910389 44.3111154 38.6420542 44.3709011 38.5814817 44.3709011L36.9502374 44.3709011zM37.9022794 45.1735638L31.0855008 45.1735638C31.0249282 45.1735638 30.9759435 45.1137781 30.9759435 45.0398495 30.9759435 44.9659209 31.0249282 44.9054924 31.0855008 44.9054924L37.9022794 44.9054924C37.9628519 44.9054924 38.0118366 44.9659209 38.0118366 45.0398495 38.0118366 45.1137781 37.9628519 45.1735638 37.9022794 45.1735638"/>
      <polygon fill="#BDBEBA" points="30.385 35.121 39.414 35.121 39.414 34.853 30.385 34.853"/>
      <path fill="#BDBEBA" d="M39.5243588,46.1085254 L30.274145,46.1085254 L30.274145,33.6863136 L39.5243588,33.6863136 L39.5243588,46.1085254 Z M30.4932595,45.8864237 L39.3047176,45.8864237 L39.3047176,33.9089492 L30.4932595,33.9089492 L30.4932595,45.8864237 Z"/>
      <path fill="#BDBEBA" d="M36.583484 34.4845994L33.2151252 34.4845994C33.1545527 34.4845994 33.1055679 34.4248137 33.1055679 34.3508851 33.1055679 34.2769565 33.1545527 34.216528 33.2151252 34.216528L36.583484 34.216528C36.6440565 34.216528 36.6930412 34.2769565 36.6930412 34.3508851 36.6930412 34.4248137 36.6440565 34.4845994 36.583484 34.4845994M37.2415122 42.0509517L32.557413 42.0509517C32.4362679 42.0509517 32.3377718 41.9313803 32.3377718 41.7835231 32.3377718 41.6350231 32.4362679 41.5154517 32.557413 41.5154517L37.2415122 41.5154517C37.3626573 41.5154517 37.4606267 41.6350231 37.4606267 41.7835231 37.4606267 41.9313803 37.3626573 42.0509517 37.2415122 42.0509517M34.8993046 40.928911C33.5556481 40.928911 32.4632359 39.821072 32.4632359 38.4590975 32.4632359 37.0976568 33.5556481 35.9898178 34.8993046 35.9898178 36.2424344 35.9898178 37.3359 37.0976568 37.3359 38.4590975 37.3359 39.821072 36.2424344 40.928911 34.8993046 40.928911M34.8993046 36.2119195C33.6767931 36.2119195 32.6823504 37.2199195 32.6823504 38.4590975 32.6823504 39.6982754 33.6767931 40.7068093 34.8993046 40.7068093 36.121816 40.7068093 37.1162588 39.6982754 37.1162588 38.4590975 37.1162588 37.2199195 36.121816 36.2119195 34.8993046 36.2119195"/>
      <path fill="#E37E67" d="M31.2069618,41.3026398 C31.2069618,41.9262331 30.7081603,42.4318347 30.0929542,42.4318347 C29.4777481,42.4318347 28.9794733,41.9262331 28.9794733,41.3026398 C28.9794733,40.6790466 29.4777481,40.1734449 30.0929542,40.1734449 C30.7081603,40.1734449 31.2069618,40.6790466 31.2069618,41.3026398"/>
      <path fill="#C3725C" d="M38.3108015,41.6553864 C38.3108015,42.2789797 38.8096031,42.7845814 39.4248092,42.7845814 C40.0400153,42.7845814 40.5382901,42.2789797 40.5382901,41.6553864 C40.5382901,41.0317932 40.0400153,40.5261915 39.4248092,40.5261915 C38.8096031,40.5261915 38.3108015,41.0317932 38.3108015,41.6553864"/>
      <path fill="#F0A64F" d="M67.658345,37.0555856 L60.5955893,37.0555856 C60.064658,37.0555856 59.6343298,36.6193907 59.6343298,36.0806873 C59.6343298,35.5425178 60.064658,35.1063229 60.5955893,35.1063229 L67.658345,35.1063229 C68.1898031,35.1063229 68.6201313,35.5425178 68.6201313,36.0806873 C68.6201313,36.6193907 68.1898031,37.0555856 67.658345,37.0555856"/>
    </g>
  </g>
</svg>
