<svg xmlns="http://www.w3.org/2000/svg" width="84" height="84" viewBox="0 0 84 84">
  <g fill="none" fill-rule="evenodd">
    <path fill="#FFF" d="M42,84 C18.8040405,84 0,65.1959595 0,42 C0,18.8040405 18.8040405,0 42,0 C65.1959595,0 84,18.8040405 84,42 C84,65.1959595 65.1959595,84 42,84 Z"/>
    <path fill="#F3F3F4" fill-rule="nonzero" d="M42,81 C63.5391052,81 81,63.5391052 81,42 C81,20.4608948 63.5391052,3 42,3 C20.4608948,3 3,20.4608948 3,42 C3,63.5391052 20.4608948,81 42,81 Z M42,84 C18.8040405,84 0,65.1959595 0,42 C0,18.8040405 18.8040405,0 42,0 C65.1959595,0 84,18.8040405 84,42 C84,65.1959595 65.1959595,84 42,84 Z"/>
    <g fill-rule="nonzero" transform="translate(18 22)">
      <path fill="#9B5A50" d="M31.4487188,2.48921946 C31.3775625,2.48921946 31.3052813,2.4800362 31.2329063,2.46083484 C29.3211563,1.95111765 26.7523125,1.67014706 24,1.67014706 C21.2476875,1.67014706 18.6789375,1.95102489 16.7670938,2.46083484 C16.3258125,2.57873303 15.8716875,2.31993213 15.7528125,1.88321719 C15.6336563,1.44659502 15.8950313,0.997264706 16.3364063,0.879366516 C18.38475,0.33319457 21.1063125,0.0323733032 24.0000938,0.0323733032 C26.893875,0.0323733032 29.6153438,0.33319457 31.6637813,0.879366516 C32.1050625,0.997079186 32.3665313,1.44650226 32.247375,1.88321719 C32.1478125,2.24859955 31.8135938,2.48921946 31.4487188,2.48921946 Z"/>
      <path fill="#FFBB41" d="M16.55175.851352941L16.55175.851352941C16.0947187.851352941 15.724125 1.21803394 15.724125 1.67023982L15.724125 5.76448869 17.3792812 5.76448869 17.3792812 1.67014706C17.3792812 1.21794118 17.0087812.851352941 16.55175.851352941zM31.44825.851352941L31.44825.851352941C30.9912188.851352941 30.620625 1.21803394 30.620625 1.67023982L30.620625 5.76448869 32.2757813 5.76448869 32.2757813 1.67014706C32.275875 1.21794118 31.9052813.851352941 31.44825.851352941z"/>
      <path fill="#915046" d="M43.0344375,40.9675339 L4.9655625,40.9675339 C3.13734375,40.9675339 1.65525,39.5010882 1.65525,37.6921719 L1.65525,22.1413914 L46.3449375,22.1413914 L46.3449375,37.6921719 C46.3448437,39.5010882 44.86275,40.9675339 43.0344375,40.9675339 Z"/>
      <path fill="#AA6455" d="M43.0344375,24.5979593 L4.9655625,24.5979593 C2.22309375,24.5979593 0,22.3983371 0,19.6848235 L0,6.57586199 C0,5.67135747 0.741,4.938181 1.65515625,4.938181 L46.3448438,4.938181 C47.259,4.938181 48,5.67135747 48,6.57586199 L48,19.6848235 C48,22.3983371 45.7769062,24.5979593 43.0344375,24.5979593 Z"/>
      <path fill="#874641" d="M43.0344375,26.2356403 C44.241,26.2356403 45.3695625,25.9094027 46.34475,25.349224 L46.34475,23.3394819 C45.46575,24.1194095 44.3079375,24.5978665 43.0344375,24.5978665 L4.9655625,24.5978665 C3.691875,24.5978665 2.53415625,24.1193167 1.65525,23.3393891 L1.65525,25.3491312 C2.6304375,25.90931 3.75909375,26.2355475 4.9655625,26.2355475 L43.0345312,26.2355475 L43.0345312,26.2356403 L43.0344375,26.2356403 Z"/>
      <path fill="#FFBB41" d="M26.4827812,27.8733213 L21.5172187,27.8733213 C21.0601875,27.8733213 20.6895937,27.5066403 20.6895937,27.0544344 L20.6895937,22.9601855 C20.6895937,22.5079796 21.0601875,22.1412986 21.5172187,22.1412986 L26.4827812,22.1412986 C26.9398125,22.1412986 27.3104062,22.5079796 27.3104062,22.9601855 L27.3104062,27.0544344 C27.3103125,27.5066403 26.9398125,27.8733213 26.4827812,27.8733213 Z"/>
      <path fill="#F3CA7F" d="M25.6551563,27.8733213 L22.3448438,27.8733213 L22.3448438,24.5979593 C22.3448438,24.1457534 22.7154375,23.7790724 23.1724688,23.7790724 L24.827625,23.7790724 C25.2846563,23.7790724 25.65525,24.1457534 25.65525,24.5979593 L25.65525,27.8733213 L25.6551563,27.8733213 Z"/>
    </g>
  </g>
</svg>
