<svg xmlns="http://www.w3.org/2000/svg" width="84" height="84" viewBox="0 0 84 84">
  <g fill="none" fill-rule="evenodd">
    <path fill="#FFF" d="M42,84 C18.8040405,84 0,65.1959595 0,42 C0,18.8040405 18.8040405,0 42,0 C65.1959595,0 84,18.8040405 84,42 C84,65.1959595 65.1959595,84 42,84 Z"/>
    <path fill="#F3F3F4" fill-rule="nonzero" d="M42,81 C63.5391052,81 81,63.5391052 81,42 C81,20.4608948 63.5391052,3 42,3 C20.4608948,3 3,20.4608948 3,42 C3,63.5391052 20.4608948,81 42,81 Z M42,84 C18.8040405,84 0,65.1959595 0,42 C0,18.8040405 18.8040405,0 42,0 C65.1959595,0 84,18.8040405 84,42 C84,65.1959595 65.1959595,84 42,84 Z"/>
    <g fill-rule="nonzero" transform="translate(17 15)">
      <g transform="translate(0 16)">
        <path fill="#0AAFC4" d="M25.9193067,12.8241746 C25.9193067,18.4601014 22.2616356,23.232892 17.2151644,24.8463023 C16.02784,25.2261577 14.7632356,25.4312469 13.4502222,25.4312469 C10.4641778,25.4312469 7.7229156,24.3684319 5.576,22.597493 L0.2597333,23.6458385 L2.3504,18.5725859 C1.4759289,16.8479493 0.9823822,14.8943174 0.9823822,12.8241746 C0.9823822,7.0930009 4.7656178,2.2554122 9.9444978,0.7240376 C10.9079467,0.4380451 11.9199289,0.2686892 12.96464,0.2276714 C13.1256711,0.2211286 13.2879467,0.2184864 13.4503467,0.2184864 C19.8230222,0.2184864 25.0778133,5.0495324 25.8265956,11.2862573 C25.8879467,11.7904244 25.9193067,12.3040282 25.9193067,12.8241746"/>
        <path fill="#FFF" d="M11.2619911,15.6408169 C11.2619911,14.9138197 11.3793422,14.2606798 11.6142933,13.6819005 C11.8488711,13.1031211 12.3332089,12.5987023 13.0673067,12.1681408 C13.2874489,12.0346441 13.5588622,11.8826516 13.88192,11.7117859 C14.2046044,11.5412977 14.52032,11.337215 14.8285689,11.0996638 C15.1368178,10.8624901 15.39728,10.5841728 15.6102044,10.2649634 C15.8227556,9.9460056 15.9294044,9.5787324 15.9294044,9.1630178 C15.9294044,8.8513577 15.8705422,8.5769408 15.7533156,8.3393897 C15.6357156,8.102216 15.4815289,7.9017822 15.2910044,7.7384657 C15.0999822,7.5752751 14.8761067,7.4528507 14.6193778,7.3710667 C14.3624,7.2896601 14.1019378,7.2486423 13.8378667,7.2486423 C13.5148089,7.2486423 13.2212444,7.3042554 12.9570489,7.4154817 C12.6928533,7.5268338 12.4541689,7.6680056 12.2414933,7.8384939 C12.0285689,8.0092338 11.8376711,8.2022441 11.6690489,8.4172732 C11.5001778,8.632554 11.3570667,8.8367624 11.2397156,9.0293953 L9.3242667,7.6937991 C9.5147911,7.2339211 9.76816,6.82563 10.0838756,6.4695549 C10.3993422,6.113354 10.7587378,5.812892 11.16256,5.5680432 C11.5661333,5.3231944 12.0026844,5.1378592 12.4725867,5.0116601 C12.9421156,4.8857127 13.4265778,4.8224244 13.9256,4.8224244 C14.4832356,4.8224244 15.0336533,4.9042085 15.5769778,5.0672732 C16.1198044,5.2307155 16.6078756,5.4902854 17.0410667,5.8463606 C17.47376,6.2025615 17.8260622,6.6589164 18.0978489,7.2152995 C18.3692622,7.7718085 18.5051556,8.4361465 18.5051556,9.2075587 C18.5051556,9.682661 18.4501511,10.1017728 18.3401422,10.4651455 C18.2300089,10.8290216 18.0719644,11.1590516 17.8667556,11.455739 C17.6610489,11.7528038 17.4187556,12.019923 17.1402489,12.2570967 C16.8613689,12.4946479 16.5457778,12.7245239 16.1936,12.9471023 C15.8999111,13.1252657 15.6063467,13.2960056 15.3129067,13.4590704 C15.0190933,13.6226385 14.7514133,13.8040732 14.5092444,14.004507 C14.2670756,14.204815 14.06896,14.4350685 13.9147733,14.6945127 C13.7607111,14.9543343 13.68368,15.2698948 13.68368,15.6406911 L11.2619911,15.6408169 M11.3061689,20.8273089 L11.3061689,17.7555005 L13.7498844,17.7555005 L13.7498844,20.8273089 L11.3061689,20.8273089"/>
      </g>
      <g transform="translate(16 19)">
        <path fill="#FFBB41" d="M2.0697244,32.4295343 L8.4758756,35.0965746 C14.6510578,33.0484507 20.1594667,29.5765296 24.6306311,25.0550047 C29.1026667,20.5343606 32.5367111,14.9641127 34.5622933,8.7214742 L31.9244444,2.24443 L24.0510933,13.4815568 L26.6712711,14.3060657 C25.1704711,16.9807812 23.3245867,19.425369 21.1931022,21.5795606 C19.0616178,23.7346329 16.6446578,25.6000638 13.9992178,27.1183531 L13.1837333,24.4690535 L2.0697244,32.4295343 Z"/>
        <polygon fill="#F7B33B" points=".713 29.534 2.07 32.43 13.184 24.469 10.549 22.485"/>
        <polygon fill="#F7B33B" points="29.061 .873 22.088 10.817 24.051 13.482 31.924 2.244"/>
      </g>
      <g transform="translate(14)">
        <path fill="#5DBAA3" d="M0.816,13.2058141 C0.816,18.841615 4.4736711,23.6145315 9.5201422,25.2279418 C10.7074667,25.6077972 11.9720711,25.8130122 13.2850844,25.8130122 C16.2711289,25.8130122 19.0123911,24.7501972 21.1593067,22.9792582 L26.4755733,24.0274779 L24.3849067,18.9540995 C25.2593778,17.2294629 25.7529244,15.275831 25.7529244,13.2058141 C25.7529244,7.4746404 21.9696889,2.6369258 16.7908089,1.1055512 C15.6784,0.7760244 14.5026489,0.6 13.2852089,0.6 C6.3982044,0.6 0.816,6.2437277 0.816,13.2058141 Z"/>
        <path fill="#FFF" d="M17.7491556,20.1180751 C16.1483022,20.1180751 14.8457422,18.8012263 14.8457422,17.1826573 C14.8457422,15.5639624 16.1481778,14.2472394 17.7491556,14.2472394 C19.3501333,14.2472394 20.6525689,15.5640883 20.6525689,17.1826573 C20.6525689,18.8012263 19.3501333,20.1180751 17.7491556,20.1180751 Z M17.7491556,15.4965221 C16.8296356,15.4965221 16.0814756,16.2529615 16.0814756,17.1826573 C16.0814756,18.1123531 16.8296356,18.8687925 17.7491556,18.8687925 C18.6686756,18.8687925 19.4168356,18.1124789 19.4168356,17.1826573 C19.41696,16.2528357 18.6688,15.4965221 17.7491556,15.4965221 Z"/>
        <rect width="1.236" height="14.903" x="12.668" y="5.753" fill="#FFF" transform="rotate(-168.773 13.285 13.205)"/>
        <path fill="#FFF" d="M8.8197689,12.1646404 C7.2189156,12.1646404 5.91648,10.8477915 5.91648,9.2292225 C5.91648,7.6105277 7.2189156,6.2938047 8.8197689,6.2938047 C10.4206222,6.2938047 11.7231822,7.6106535 11.7231822,9.2292225 C11.7233067,10.8477915 10.4206222,12.1646404 8.8197689,12.1646404 Z M8.8197689,7.5430873 C7.9002489,7.5430873 7.1522133,8.2995268 7.1522133,9.2292225 C7.1522133,10.1589183 7.9002489,10.9153577 8.8197689,10.9153577 C9.7392889,10.9153577 10.4874489,10.1590441 10.4874489,9.2292225 C10.4874489,8.2994009 9.7394133,7.5430873 8.8197689,7.5430873 Z"/>
      </g>
    </g>
  </g>
</svg>
