<svg xmlns="http://www.w3.org/2000/svg" width="110" height="110" viewBox="0 0 110 110">
  <g fill="none" fill-rule="evenodd">
    <path fill="#FFF" d="M55,110 C24.6243388,110 0,85.3756612 0,55 C0,24.6243388 24.6243388,0 55,0 C85.3756612,0 110,24.6243388 110,55 C110,85.3756612 85.3756612,110 55,110 Z"/>
    <path fill="#F3F3F4" fill-rule="nonzero" d="M55,107 C83.718807,107 107,83.718807 107,55 C107,26.281193 83.718807,3 55,3 C26.281193,3 3,26.281193 3,55 C3,83.718807 26.281193,107 55,107 Z M55,110 C24.6243388,110 0,85.3756612 0,55 C0,24.6243388 24.6243388,0 55,0 C85.3756612,0 110,24.6243388 110,55 C110,85.3756612 85.3756612,110 55,110 Z"/>
    <g fill-rule="nonzero" transform="translate(27 30)">
      <path fill="#EDEDED" d="M54.015534,49.8648649 L1.95728155,49.8648649 C0.897087379,49.8648649 0.027184466,49 0.027184466,47.9459459 L0.027184466,3.83783784 C0.027184466,2.78378378 0.897087379,1.91891892 1.95728155,1.91891892 L54.015534,1.91891892 C55.0757282,1.91891892 55.9456311,2.78378378 55.9456311,3.83783784 L55.9456311,47.9459459 C55.9456311,49 55.0757282,49.8648649 54.015534,49.8648649 Z"/>
      <path fill="#EA4D50" d="M55.9456311,11.5135135 L0.027184466,11.5135135 L0.027184466,3.83783784 C0.027184466,2.78378378 0.897087379,1.91891892 1.95728155,1.91891892 L54.015534,1.91891892 C55.0757282,1.91891892 55.9456311,2.78378378 55.9456311,3.83783784 L55.9456311,11.5135135 L55.9456311,11.5135135 Z"/>
      <path fill="#C1BFBD" d="M8.20970874 7.67567568L8.20970874 7.67567568C7.42135922 7.67567568 6.76893204 7.02702703 6.76893204 6.24324324L6.76893204 1.45945946C6.76893204.675675676 7.42135922.027027027 8.20970874.027027027L8.20970874.027027027C8.99805825.027027027 9.65048544.675675676 9.65048544 1.45945946L9.65048544 6.24324324C9.65048544 7.02702703 9.02524272 7.67567568 8.20970874 7.67567568zM47.7631068 7.67567568L47.7631068 7.67567568C46.9747573 7.67567568 46.3223301 7.02702703 46.3223301 6.24324324L46.3223301 1.45945946C46.3223301.675675676 46.9747573.027027027 47.7631068.027027027L47.7631068.027027027C48.5514563.027027027 49.2038835.675675676 49.2038835 1.45945946L49.2038835 6.24324324C49.2038835 7.02702703 48.5514563 7.67567568 47.7631068 7.67567568z"/>
      <g fill="#DADADA" transform="translate(5.709 20)">
        <path d="M4.92038835 4.94594595L1.06019417 4.94594595C.516504854 4.94594595.108737864 4.51351351.108737864 4L.108737864 1.13513514C.108737864.594594595.54368932.189189189 1.06019417.189189189L4.92038835.189189189C5.46407767.189189189 5.87184466.621621622 5.87184466 1.13513514L5.87184466 4C5.87184466 4.51351351 5.46407767 4.94594595 4.92038835 4.94594595zM12.6407767 4.94594595L8.78058252 4.94594595C8.2368932 4.94594595 7.82912621 4.51351351 7.82912621 4L7.82912621 1.13513514C7.82912621.594594595 8.26407767.189189189 8.78058252.189189189L12.6407767.189189189C13.184466.189189189 13.592233.621621622 13.592233 1.13513514L13.592233 4C13.592233 4.51351351 13.1572816 4.94594595 12.6407767 4.94594595zM20.361165 4.94594595L16.5009709 4.94594595C15.9572816 4.94594595 15.5495146 4.51351351 15.5495146 4L15.5495146 1.13513514C15.5495146.594594595 15.984466.189189189 16.5009709.189189189L20.361165.189189189C20.9048544.189189189 21.3126214.621621622 21.3126214 1.13513514L21.3126214 4C21.3126214 4.51351351 20.8776699 4.94594595 20.361165 4.94594595zM28.0543689 4.94594595L24.1941748 4.94594595C23.6504854 4.94594595 23.2427184 4.51351351 23.2427184 4L23.2427184 1.13513514C23.2427184.594594595 23.6776699.189189189 24.1941748.189189189L28.0543689.189189189C28.5980583.189189189 29.0058252.621621622 29.0058252 1.13513514L29.0058252 4C29.0330097 4.51351351 28.5980583 4.94594595 28.0543689 4.94594595z"/>
      </g>
      <g fill="#C1BFBD" transform="translate(36.427 20)">
        <path d="M5.05631068 4.94594595L1.1961165 4.94594595C.652427184 4.94594595.244660194 4.51351351.244660194 4L.244660194 1.13513514C.244660194.594594595.67961165.189189189 1.1961165.189189189L5.05631068.189189189C5.6.189189189 6.00776699.621621622 6.00776699 1.13513514L6.00776699 4C6.03495146 4.51351351 5.6 4.94594595 5.05631068 4.94594595zM12.776699 4.94594595L8.91650485 4.94594595C8.37281553 4.94594595 7.96504854 4.51351351 7.96504854 4L7.96504854 1.13513514C7.96504854.594594595 8.4.189189189 8.91650485.189189189L12.776699.189189189C13.3203883.189189189 13.7281553.621621622 13.7281553 1.13513514L13.7281553 4C13.7281553 4.51351351 13.2932039 4.94594595 12.776699 4.94594595z"/>
      </g>
      <g fill="#07AFC4" transform="translate(5.709 16.216)">
        <path d="M4.92038835 2.02702703L1.06019417 2.02702703C.516504854 2.02702703.108737864 1.59459459.108737864 1.08108108L.108737864 1.08108108C.108737864.540540541.54368932.135135135 1.06019417.135135135L4.92038835.135135135C5.46407767.135135135 5.87184466.567567568 5.87184466 1.08108108L5.87184466 1.08108108C5.87184466 1.59459459 5.46407767 2.02702703 4.92038835 2.02702703zM12.6407767 2.02702703L8.78058252 2.02702703C8.2368932 2.02702703 7.82912621 1.59459459 7.82912621 1.08108108L7.82912621 1.08108108C7.82912621.540540541 8.26407767.135135135 8.78058252.135135135L12.6407767.135135135C13.184466.135135135 13.592233.567567568 13.592233 1.08108108L13.592233 1.08108108C13.592233 1.59459459 13.1572816 2.02702703 12.6407767 2.02702703zM20.361165 2.02702703L16.5009709 2.02702703C15.9572816 2.02702703 15.5495146 1.59459459 15.5495146 1.08108108L15.5495146 1.08108108C15.5495146.540540541 15.984466.135135135 16.5009709.135135135L20.361165.135135135C20.9048544.135135135 21.3126214.567567568 21.3126214 1.08108108L21.3126214 1.08108108C21.3126214 1.59459459 20.8776699 2.02702703 20.361165 2.02702703zM28.0543689 2.02702703L24.1941748 2.02702703C23.6504854 2.02702703 23.2427184 1.59459459 23.2427184 1.08108108L23.2427184 1.08108108C23.2427184.540540541 23.6776699.135135135 24.1941748.135135135L28.0543689.135135135C28.5980583.135135135 29.0058252.567567568 29.0058252 1.08108108L29.0058252 1.08108108C29.0330097 1.59459459 28.5980583 2.02702703 28.0543689 2.02702703z"/>
      </g>
      <g fill="#EC6567" transform="translate(36.427 16.216)">
        <path d="M5.05631068 2.02702703L1.1961165 2.02702703C.652427184 2.02702703.244660194 1.59459459.244660194 1.08108108L.244660194 1.08108108C.244660194.540540541.67961165.135135135 1.1961165.135135135L5.05631068.135135135C5.6.135135135 6.00776699.567567568 6.00776699 1.08108108L6.00776699 1.08108108C6.03495146 1.59459459 5.6 2.02702703 5.05631068 2.02702703zM12.776699 2.02702703L8.91650485 2.02702703C8.37281553 2.02702703 7.96504854 1.59459459 7.96504854 1.08108108L7.96504854 1.08108108C7.96504854.540540541 8.4.135135135 8.91650485.135135135L12.776699.135135135C13.3203883.135135135 13.7281553.567567568 13.7281553 1.08108108L13.7281553 1.08108108C13.7281553 1.59459459 13.2932039 2.02702703 12.776699 2.02702703z"/>
      </g>
      <g fill="#DADADA" transform="translate(5.709 26.757)">
        <path d="M4.92038835 4.89189189L1.06019417 4.89189189C.516504854 4.89189189.108737864 4.45945946.108737864 3.94594595L.108737864 1.08108108C.108737864.540540541.54368932.135135135 1.06019417.135135135L4.92038835.135135135C5.46407767.135135135 5.87184466.567567568 5.87184466 1.08108108L5.87184466 3.94594595C5.87184466 4.45945946 5.46407767 4.89189189 4.92038835 4.89189189zM12.6407767 4.89189189L8.78058252 4.89189189C8.2368932 4.89189189 7.82912621 4.45945946 7.82912621 3.94594595L7.82912621 1.08108108C7.82912621.540540541 8.26407767.135135135 8.78058252.135135135L12.6407767.135135135C13.184466.135135135 13.592233.567567568 13.592233 1.08108108L13.592233 3.94594595C13.592233 4.45945946 13.1572816 4.89189189 12.6407767 4.89189189zM20.361165 4.89189189L16.5009709 4.89189189C15.9572816 4.89189189 15.5495146 4.45945946 15.5495146 3.94594595L15.5495146 1.08108108C15.5495146.540540541 15.984466.135135135 16.5009709.135135135L20.361165.135135135C20.9048544.135135135 21.3126214.567567568 21.3126214 1.08108108L21.3126214 3.94594595C21.3126214 4.45945946 20.8776699 4.89189189 20.361165 4.89189189zM28.0543689 4.89189189L24.1941748 4.89189189C23.6504854 4.89189189 23.2427184 4.45945946 23.2427184 3.94594595L23.2427184 1.08108108C23.2427184.540540541 23.6776699.135135135 24.1941748.135135135L28.0543689.135135135C28.5980583.135135135 29.0058252.567567568 29.0058252 1.08108108L29.0058252 3.94594595C29.0330097 4.45945946 28.5980583 4.89189189 28.0543689 4.89189189z"/>
      </g>
      <g fill="#C1BFBD" transform="translate(36.427 26.757)">
        <path d="M5.05631068 4.89189189L1.1961165 4.89189189C.652427184 4.89189189.244660194 4.45945946.244660194 3.94594595L.244660194 1.08108108C.244660194.540540541.67961165.135135135 1.1961165.135135135L5.05631068.135135135C5.6.135135135 6.00776699.567567568 6.00776699 1.08108108L6.00776699 3.94594595C6.03495146 4.45945946 5.6 4.89189189 5.05631068 4.89189189zM12.776699 4.89189189L8.91650485 4.89189189C8.37281553 4.89189189 7.96504854 4.45945946 7.96504854 3.94594595L7.96504854 1.08108108C7.96504854.540540541 8.4.135135135 8.91650485.135135135L12.776699.135135135C13.3203883.135135135 13.7281553.567567568 13.7281553 1.08108108L13.7281553 3.94594595C13.7281553 4.45945946 13.2932039 4.89189189 12.776699 4.89189189z"/>
      </g>
      <g fill="#DADADA" transform="translate(5.709 33.514)">
        <path d="M4.92038835 4.83783784L1.06019417 4.83783784C.516504854 4.83783784.108737864 4.40540541.108737864 3.89189189L.108737864 1.02702703C.108737864.486486486.54368932.0810810811 1.06019417.0810810811L4.92038835.0810810811C5.46407767.0810810811 5.87184466.513513514 5.87184466 1.02702703L5.87184466 3.89189189C5.87184466 4.43243243 5.46407767 4.83783784 4.92038835 4.83783784zM12.6407767 4.83783784L8.78058252 4.83783784C8.2368932 4.83783784 7.82912621 4.40540541 7.82912621 3.89189189L7.82912621 1.02702703C7.82912621.486486486 8.26407767.0810810811 8.78058252.0810810811L12.6407767.0810810811C13.184466.0810810811 13.592233.513513514 13.592233 1.02702703L13.592233 3.89189189C13.592233 4.43243243 13.1572816 4.83783784 12.6407767 4.83783784zM20.361165 4.83783784L16.5009709 4.83783784C15.9572816 4.83783784 15.5495146 4.40540541 15.5495146 3.89189189L15.5495146 1.02702703C15.5495146.486486486 15.984466.0810810811 16.5009709.0810810811L20.361165.0810810811C20.9048544.0810810811 21.3126214.513513514 21.3126214 1.02702703L21.3126214 3.89189189C21.3126214 4.43243243 20.8776699 4.83783784 20.361165 4.83783784zM28.0543689 4.83783784L24.1941748 4.83783784C23.6504854 4.83783784 23.2427184 4.40540541 23.2427184 3.89189189L23.2427184 1.02702703C23.2427184.486486486 23.6776699.0810810811 24.1941748.0810810811L28.0543689.0810810811C28.5980583.0810810811 29.0058252.513513514 29.0058252 1.02702703L29.0058252 3.89189189C29.0330097 4.43243243 28.5980583 4.83783784 28.0543689 4.83783784z"/>
      </g>
      <g fill="#C1BFBD" transform="translate(36.427 33.514)">
        <path d="M5.05631068 4.83783784L1.1961165 4.83783784C.652427184 4.83783784.244660194 4.40540541.244660194 3.89189189L.244660194 1.02702703C.244660194.486486486.67961165.0810810811 1.1961165.0810810811L5.05631068.0810810811C5.6.0810810811 6.00776699.513513514 6.00776699 1.02702703L6.00776699 3.89189189C6.03495146 4.43243243 5.6 4.83783784 5.05631068 4.83783784zM12.776699 4.83783784L8.91650485 4.83783784C8.37281553 4.83783784 7.96504854 4.40540541 7.96504854 3.89189189L7.96504854 1.02702703C7.96504854.486486486 8.4.0810810811 8.91650485.0810810811L12.776699.0810810811C13.3203883.0810810811 13.7281553.513513514 13.7281553 1.02702703L13.7281553 3.89189189C13.7281553 4.43243243 13.2932039 4.83783784 12.776699 4.83783784z"/>
      </g>
      <g fill="#DADADA" transform="translate(5.709 40.27)">
        <path d="M4.92038835 4.81081081L1.06019417 4.81081081C.516504854 4.81081081.108737864 4.37837838.108737864 3.86486486L.108737864 1C.108737864.459459459.54368932.0540540541 1.06019417.0540540541L4.92038835.0540540541C5.46407767.0540540541 5.87184466.486486486 5.87184466 1L5.87184466 3.86486486C5.87184466 4.37837838 5.46407767 4.81081081 4.92038835 4.81081081zM12.6407767 4.81081081L8.78058252 4.81081081C8.2368932 4.81081081 7.82912621 4.37837838 7.82912621 3.86486486L7.82912621 1C7.82912621.459459459 8.26407767.0540540541 8.78058252.0540540541L12.6407767.0540540541C13.184466.0540540541 13.592233.486486486 13.592233 1L13.592233 3.86486486C13.592233 4.37837838 13.1572816 4.81081081 12.6407767 4.81081081zM20.361165 4.81081081L16.5009709 4.81081081C15.9572816 4.81081081 15.5495146 4.37837838 15.5495146 3.86486486L15.5495146 1C15.5495146.459459459 15.984466.0540540541 16.5009709.0540540541L20.361165.0540540541C20.9048544.0540540541 21.3126214.486486486 21.3126214 1L21.3126214 3.86486486C21.3126214 4.37837838 20.8776699 4.81081081 20.361165 4.81081081zM28.0543689 4.81081081L24.1941748 4.81081081C23.6504854 4.81081081 23.2427184 4.37837838 23.2427184 3.86486486L23.2427184 1C23.2427184.459459459 23.6776699.0540540541 24.1941748.0540540541L28.0543689.0540540541C28.5980583.0540540541 29.0058252.486486486 29.0058252 1L29.0058252 3.86486486C29.0330097 4.37837838 28.5980583 4.81081081 28.0543689 4.81081081z"/>
      </g>
      <g fill="#C1BFBD" transform="translate(36.427 40.27)">
        <path d="M5.05631068 4.81081081L1.1961165 4.81081081C.652427184 4.81081081.244660194 4.37837838.244660194 3.86486486L.244660194 1C.244660194.459459459.67961165.0540540541 1.1961165.0540540541L5.05631068.0540540541C5.6.0540540541 6.00776699.486486486 6.00776699 1L6.00776699 3.86486486C6.03495146 4.37837838 5.6 4.81081081 5.05631068 4.81081081zM12.776699 4.81081081L8.91650485 4.81081081C8.37281553 4.81081081 7.96504854 4.37837838 7.96504854 3.86486486L7.96504854 1C7.96504854.459459459 8.4.0540540541 8.91650485.0540540541L12.776699.0540540541C13.3203883.0540540541 13.7281553.486486486 13.7281553 1L13.7281553 3.86486486C13.7281553 4.37837838 13.2932039 4.81081081 12.776699 4.81081081z"/>
      </g>
    </g>
  </g>
</svg>
