<svg xmlns="http://www.w3.org/2000/svg" width="110" height="110" viewBox="0 0 110 110">
  <g fill="none" fill-rule="evenodd">
    <path fill="#FFF" d="M55,110 C24.6243388,110 0,85.3756612 0,55 C0,24.6243388 24.6243388,0 55,0 C85.3756612,0 110,24.6243388 110,55 C110,85.3756612 85.3756612,110 55,110 Z"/>
    <path fill="#F3F3F4" fill-rule="nonzero" d="M55,107 C83.718807,107 107,83.718807 107,55 C107,26.281193 83.718807,3 55,3 C26.281193,3 3,26.281193 3,55 C3,83.718807 26.281193,107 55,107 Z M55,110 C24.6243388,110 0,85.3756612 0,55 C0,24.6243388 24.6243388,0 55,0 C85.3756612,0 110,24.6243388 110,55 C110,85.3756612 85.3756612,110 55,110 Z"/>
    <g transform="translate(18 20)">
      <g fill="#DADADA" transform="rotate(4 7.825 224.081)">
        <path d="M2.39435637,16.3779856 L0.745566689,15.4173228 C5.78615229,6.43512564 15.2078076,0.815248265 25.3831954,0.815248265 C32.6849782,0.815248265 39.6098949,3.64920352 44.8860219,8.74071636 L43.5669901,10.1336774 C38.6677294,5.37839656 32.1667872,2.73657386 25.3831954,2.73657386 C15.9144318,2.73657386 7.10518403,7.97218612 2.39435637,16.3779856 Z" transform="rotate(1 22.816 8.597)"/>
        <path d="M45.8869769,6.33741401 L46.4522762,10.9485954 C46.4993845,11.47696 46.07541,11.9572914 45.5101107,11.8612251 L40.9877161,11.140728 C40.3282003,11.0446617 40.0926589,10.2280983 40.5637417,9.74776695 L44.5208369,5.85708261 C44.9919197,5.37675121 45.7927604,5.66495005 45.8869769,6.33741401 Z" transform="rotate(1 43.386 8.746)"/>
      </g>
      <g fill-rule="nonzero" transform="translate(52 25.619)">
        <path fill="#C1BFBD" d="M13.9386792,23.4823529 L10.9669811,23.4823529 C10.6839623,23.4823529 10.4716981,23.2705882 10.4716981,22.9882353 L10.4716981,22 L14.4575472,22 L14.4575472,22.9882353 C14.4339623,23.2705882 14.1981132,23.4823529 13.9386792,23.4823529 L13.9386792,23.4823529 Z"/>
        <path fill="#EA4D50" d="M5.96698113 16.0470588L18.8915094 16.0470588C19.1745283 16.0470588 19.4339623 15.9294118 19.6226415 15.7411765 19.8113208 15.5294118 19.9056604 15.2705882 19.8820755 14.9882353L19.1037736 3.85882353C18.9622642 1.78823529 17.2169811.164705882 15.1415094.164705882L9.76415094.164705882C7.68867925.164705882 5.94339623 1.78823529 5.80188679 3.85882353L5 14.9882353C4.97641509 15.2705882 5.07075472 15.5294118 5.25943396 15.7411765 5.4245283 15.9294118 5.70754717 16.0470588 5.96698113 16.0470588L5.96698113 16.0470588zM19.3867925 18.0470588L19.3396226 18.0470588 5.54245283 18.0470588 5.49528302 18.0470588C4.36320755 18.0705882 3.51415094 18.9176471 3.51415094 20.0235294 3.51415094 21.1529412 4.41037736 22.0235294 5.56603774 22.0235294L19.2924528 22.0235294C20.4481132 22.0235294 21.3443396 21.1764706 21.3443396 20.0235294 21.3679245 18.8941176 20.5188679 18.0470588 19.3867925 18.0470588L19.3867925 18.0470588z"/>
        <path fill="#DADADA" d="M17.9009434,23.4823529 L16.6273585,23.4823529 L15.1415094,22 L14.4339623,22 L14.4339623,22.7058824 L16.0613208,24.3294118 C16.1556604,24.4235294 16.2735849,24.4705882 16.4150943,24.4705882 L17.9009434,24.4705882 C18.1839623,24.4705882 18.3962264,24.2588235 18.3962264,23.9764706 C18.3962264,23.7176471 18.1839623,23.4823529 17.9009434,23.4823529 L17.9009434,23.4823529 Z"/>
        <g fill="#C1BFBD" transform="translate(0 12.941)">
          <path d="M3.98584906 1.62352941C3.98584906 1.90588235 3.77358491 2.11764706 3.49056604 2.11764706L.495283019 2.11764706C.235849057 2.11764706 0 1.90588235 0 1.62352941L0 .635294118C0 .352941176.212264151.141176471.495283019.141176471L3.46698113.141176471C3.75.141176471 3.96226415.352941176 3.96226415.635294118L3.96226415 1.62352941 3.98584906 1.62352941zM24.8584906 1.62352941C24.8584906 1.90588235 24.6462264 2.11764706 24.3632075 2.11764706L21.3915094 2.11764706C21.1084906 2.11764706 20.8962264 1.90588235 20.8962264 1.62352941L20.8962264.635294118C20.8962264.352941176 21.1084906.141176471 21.3915094.141176471L24.3632075.141176471C24.6462264.141176471 24.8584906.352941176 24.8584906.635294118L24.8584906 1.62352941z"/>
        </g>
        <path fill="#676767" d="M13.9386792 30.4470588C13.9386792 31.2705882 13.2783019 31.9294118 12.4528302 31.9294118 11.6273585 31.9294118 10.9669811 31.2705882 10.9669811 30.4470588 10.9669811 29.6235294 11.6273585 28.9647059 12.4528302 28.9647059 13.2783019 28.9647059 13.9386792 29.6235294 13.9386792 30.4470588L13.9386792 30.4470588zM20.4009434 30.4470588C20.4009434 31.2705882 19.740566 31.9294118 18.9150943 31.9294118 18.0896226 31.9294118 17.4292453 31.2705882 17.4292453 30.4470588 17.4292453 29.6235294 18.0896226 28.9647059 18.9150943 28.9647059 19.7169811 28.9411765 20.4009434 29.6235294 20.4009434 30.4470588L20.4009434 30.4470588zM7.47641509 30.4470588C7.47641509 31.2705882 6.81603774 31.9294118 5.99056604 31.9294118 5.16509434 31.9294118 4.50471698 31.2705882 4.50471698 30.4470588 4.50471698 29.6235294 5.16509434 28.9647059 5.99056604 28.9647059 6.79245283 28.9411765 7.47641509 29.6235294 7.47641509 30.4470588L7.47641509 30.4470588z"/>
        <path fill="#DADADA" d="M6.46226415 30.4470588C6.46226415 30.7294118 6.25 30.9411765 5.96698113 30.9411765 5.68396226 30.9411765 5.47169811 30.7294118 5.47169811 30.4470588 5.47169811 30.1647059 5.68396226 29.9529412 5.96698113 29.9529412 6.25 29.9294118 6.46226415 30.1647059 6.46226415 30.4470588L6.46226415 30.4470588zM12.9245283 30.4470588C12.9245283 30.7294118 12.7122642 30.9411765 12.4292453 30.9411765 12.1462264 30.9411765 11.9339623 30.7294118 11.9339623 30.4470588 11.9339623 30.1647059 12.1462264 29.9529412 12.4292453 29.9529412 12.7122642 29.9529412 12.9245283 30.1647059 12.9245283 30.4470588L12.9245283 30.4470588zM19.3867925 30.4470588C19.3867925 30.7294118 19.1745283 30.9411765 18.8915094 30.9411765 18.6084906 30.9411765 18.3962264 30.7294118 18.3962264 30.4470588 18.3962264 30.1647059 18.6084906 29.9529412 18.8915094 29.9529412 19.1745283 29.9294118 19.3867925 30.1647059 19.3867925 30.4470588L19.3867925 30.4470588z"/>
        <rect width="2.972" height="1.976" x="10.943" y="16.047" fill="#C1BFBD"/>
        <path fill="#CC232C" d="M11.4386792 6.14117647C11.4386792 6.68235294 10.990566 7.12941176 10.4481132 7.12941176 9.90566038 7.12941176 9.45754717 6.68235294 9.45754717 6.14117647 9.45754717 5.6 9.90566038 5.15294118 10.4481132 5.15294118 10.990566 5.15294118 11.4386792 5.57647059 11.4386792 6.14117647L11.4386792 6.14117647zM15.4245283 6.14117647C15.4245283 6.68235294 14.9764151 7.12941176 14.4339623 7.12941176 13.8915094 7.12941176 13.4433962 6.68235294 13.4433962 6.14117647 13.4433962 5.6 13.8915094 5.15294118 14.4339623 5.15294118 14.9764151 5.15294118 15.4245283 5.57647059 15.4245283 6.14117647L15.4245283 6.14117647zM11.4386792 10.0941176C11.4386792 10.6352941 10.990566 11.0823529 10.4481132 11.0823529 9.90566038 11.0823529 9.45754717 10.6352941 9.45754717 10.0941176 9.45754717 9.55294118 9.90566038 9.10588235 10.4481132 9.10588235 10.990566 9.10588235 11.4386792 9.55294118 11.4386792 10.0941176L11.4386792 10.0941176zM15.4245283 10.0941176C15.4245283 10.6352941 14.9764151 11.0823529 14.4339623 11.0823529 13.8915094 11.0823529 13.4433962 10.6352941 13.4433962 10.0941176 13.4433962 9.55294118 13.8915094 9.10588235 14.4339623 9.10588235 14.9764151 9.10588235 15.4245283 9.55294118 15.4245283 10.0941176L15.4245283 10.0941176z"/>
        <path fill="#DADADA" d="M22.3820755 15.0588235L22.3820755 18.5411765C22.3820755 19.0823529 21.9339623 19.5294118 21.3915094 19.5294118L21.2971698 19.5294118C21.3443396 19.6941176 21.3679245 19.8352941 21.3679245 20.0235294 21.3679245 20.2117647 21.3443396 20.3764706 21.2971698 20.5176471L21.3915094 20.5176471C22.5 20.5176471 23.3726415 19.6235294 23.3726415 18.5411765L23.3726415 15.0588235 22.3820755 15.0588235zM3.51415094 20C3.51415094 19.8352941 3.53773585 19.6705882 3.58490566 19.5058824L3.49056604 19.5058824C2.94811321 19.5058824 2.5 19.0588235 2.5 18.5176471L2.5 15.0588235 1.50943396 15.0588235 1.50943396 18.5411765C1.50943396 19.6235294 2.40566038 20.5176471 3.49056604 20.5176471L3.58490566 20.5176471C3.53773585 20.3529412 3.51415094 20.1882353 3.51415094 20L3.51415094 20zM19.3867925 27.9529412C19.3867925 27.7176471 19.245283 27.5294118 19.009434 27.4588235L12.9245283 26.0705882 12.9245283 23.4823529 11.9339623 23.4823529 11.9339623 26.0705882 5.8490566 27.4588235C5.61320755 27.5058824 5.47169811 27.7176471 5.47169811 27.9529412L5.47169811 27.9529412 5.47169811 29.0352941C5.63679245 28.9882353 5.80188679 28.9411765 5.96698113 28.9411765 6.13207547 28.9411765 6.29716981 28.9882353 6.46226415 29.0352941L6.46226415 28.3529412 11.9339623 27.0823529 11.9339623 29.0352941C12.0990566 28.9882353 12.2641509 28.9411765 12.4292453 28.9411765 12.5943396 28.9411765 12.759434 28.9882353 12.9245283 29.0352941L12.9245283 27.0823529 18.3962264 28.3529412 18.3962264 29.0352941C18.5613208 28.9882353 18.7264151 28.9411765 18.8915094 28.9411765 19.0566038 28.9411765 19.2216981 28.9882353 19.3867925 29.0352941L19.3867925 27.9529412 19.3867925 27.9529412 19.3867925 27.9529412z"/>
      </g>
      <g fill-rule="nonzero" transform="translate(0 28.619)">
        <path fill="#EDEDED" d="M27.007767,24.9324324 L0.978640777,24.9324324 C0.448543689,24.9324324 0.013592233,24.5 0.013592233,23.972973 L0.013592233,1.91891892 C0.013592233,1.39189189 0.448543689,0.959459459 0.978640777,0.959459459 L27.007767,0.959459459 C27.5378641,0.959459459 27.9728155,1.39189189 27.9728155,1.91891892 L27.9728155,23.972973 C27.9728155,24.5 27.5378641,24.9324324 27.007767,24.9324324 Z"/>
        <path fill="#EA4D50" d="M27.9728155,5.75675676 L0.013592233,5.75675676 L0.013592233,1.91891892 C0.013592233,1.39189189 0.448543689,0.959459459 0.978640777,0.959459459 L27.007767,0.959459459 C27.5378641,0.959459459 27.9728155,1.39189189 27.9728155,1.91891892 L27.9728155,5.75675676 L27.9728155,5.75675676 Z"/>
        <path fill="#C1BFBD" d="M4.10485437 3.83783784L4.10485437 3.83783784C3.71067961 3.83783784 3.38446602 3.51351351 3.38446602 3.12162162L3.38446602.72972973C3.38446602.337837838 3.71067961.0135135135 4.10485437.0135135135L4.10485437.0135135135C4.49902913.0135135135 4.82524272.337837838 4.82524272.72972973L4.82524272 3.12162162C4.82524272 3.51351351 4.51262136 3.83783784 4.10485437 3.83783784zM23.8815534 3.83783784L23.8815534 3.83783784C23.4873786 3.83783784 23.161165 3.51351351 23.161165 3.12162162L23.161165.72972973C23.161165.337837838 23.4873786.0135135135 23.8815534.0135135135L23.8815534.0135135135C24.2757282.0135135135 24.6019417.337837838 24.6019417.72972973L24.6019417 3.12162162C24.6019417 3.51351351 24.2757282 3.83783784 23.8815534 3.83783784z"/>
        <g fill="#DADADA" transform="translate(2.854 10)">
          <path d="M2.46019417 2.47297297L.530097087 2.47297297C.258252427 2.47297297.054368932 2.25675676.054368932 2L.054368932.567567568C.054368932.297297297.27184466.0945945946.530097087.0945945946L2.46019417.0945945946C2.73203883.0945945946 2.93592233.310810811 2.93592233.567567568L2.93592233 2C2.93592233 2.25675676 2.73203883 2.47297297 2.46019417 2.47297297zM6.32038835 2.47297297L4.39029126 2.47297297C4.1184466 2.47297297 3.91456311 2.25675676 3.91456311 2L3.91456311.567567568C3.91456311.297297297 4.13203883.0945945946 4.39029126.0945945946L6.32038835.0945945946C6.59223301.0945945946 6.7961165.310810811 6.7961165.567567568L6.7961165 2C6.7961165 2.25675676 6.57864078 2.47297297 6.32038835 2.47297297zM10.1805825 2.47297297L8.25048544 2.47297297C7.97864078 2.47297297 7.77475728 2.25675676 7.77475728 2L7.77475728.567567568C7.77475728.297297297 7.99223301.0945945946 8.25048544.0945945946L10.1805825.0945945946C10.4524272.0945945946 10.6563107.310810811 10.6563107.567567568L10.6563107 2C10.6563107 2.25675676 10.438835 2.47297297 10.1805825 2.47297297zM14.0271845 2.47297297L12.0970874 2.47297297C11.8252427 2.47297297 11.6213592 2.25675676 11.6213592 2L11.6213592.567567568C11.6213592.297297297 11.838835.0945945946 12.0970874.0945945946L14.0271845.0945945946C14.2990291.0945945946 14.5029126.310810811 14.5029126.567567568L14.5029126 2C14.5165049 2.25675676 14.2990291 2.47297297 14.0271845 2.47297297z"/>
        </g>
        <g fill="#C1BFBD" transform="translate(18.214 10)">
          <path d="M2.52815534 2.47297297L.598058252 2.47297297C.326213592 2.47297297.122330097 2.25675676.122330097 2L.122330097.567567568C.122330097.297297297.339805825.0945945946.598058252.0945945946L2.52815534.0945945946C2.8.0945945946 3.0038835.310810811 3.0038835.567567568L3.0038835 2C3.01747573 2.25675676 2.8 2.47297297 2.52815534 2.47297297zM6.38834951 2.47297297L4.45825243 2.47297297C4.18640777 2.47297297 3.98252427 2.25675676 3.98252427 2L3.98252427.567567568C3.98252427.297297297 4.2.0945945946 4.45825243.0945945946L6.38834951.0945945946C6.66019417.0945945946 6.86407767.310810811 6.86407767.567567568L6.86407767 2C6.86407767 2.25675676 6.64660194 2.47297297 6.38834951 2.47297297z"/>
        </g>
        <g fill="#07AFC4" transform="translate(2.854 8.108)">
          <path d="M2.46019417 1.01351351L.530097087 1.01351351C.258252427 1.01351351.054368932.797297297.054368932.540540541L.054368932.540540541C.054368932.27027027.27184466.0675675676.530097087.0675675676L2.46019417.0675675676C2.73203883.0675675676 2.93592233.283783784 2.93592233.540540541L2.93592233.540540541C2.93592233.797297297 2.73203883 1.01351351 2.46019417 1.01351351zM6.32038835 1.01351351L4.39029126 1.01351351C4.1184466 1.01351351 3.91456311.797297297 3.91456311.540540541L3.91456311.540540541C3.91456311.27027027 4.13203883.0675675676 4.39029126.0675675676L6.32038835.0675675676C6.59223301.0675675676 6.7961165.283783784 6.7961165.540540541L6.7961165.540540541C6.7961165.797297297 6.57864078 1.01351351 6.32038835 1.01351351zM10.1805825 1.01351351L8.25048544 1.01351351C7.97864078 1.01351351 7.77475728.797297297 7.77475728.540540541L7.77475728.540540541C7.77475728.27027027 7.99223301.0675675676 8.25048544.0675675676L10.1805825.0675675676C10.4524272.0675675676 10.6563107.283783784 10.6563107.540540541L10.6563107.540540541C10.6563107.797297297 10.438835 1.01351351 10.1805825 1.01351351zM14.0271845 1.01351351L12.0970874 1.01351351C11.8252427 1.01351351 11.6213592.797297297 11.6213592.540540541L11.6213592.540540541C11.6213592.27027027 11.838835.0675675676 12.0970874.0675675676L14.0271845.0675675676C14.2990291.0675675676 14.5029126.283783784 14.5029126.540540541L14.5029126.540540541C14.5165049.797297297 14.2990291 1.01351351 14.0271845 1.01351351z"/>
        </g>
        <g fill="#EC6567" transform="translate(18.214 8.108)">
          <path d="M2.52815534 1.01351351L.598058252 1.01351351C.326213592 1.01351351.122330097.797297297.122330097.540540541L.122330097.540540541C.122330097.27027027.339805825.0675675676.598058252.0675675676L2.52815534.0675675676C2.8.0675675676 3.0038835.283783784 3.0038835.540540541L3.0038835.540540541C3.01747573.797297297 2.8 1.01351351 2.52815534 1.01351351zM6.38834951 1.01351351L4.45825243 1.01351351C4.18640777 1.01351351 3.98252427.797297297 3.98252427.540540541L3.98252427.540540541C3.98252427.27027027 4.2.0675675676 4.45825243.0675675676L6.38834951.0675675676C6.66019417.0675675676 6.86407767.283783784 6.86407767.540540541L6.86407767.540540541C6.86407767.797297297 6.64660194 1.01351351 6.38834951 1.01351351z"/>
        </g>
        <g fill="#DADADA" transform="translate(2.854 13.378)">
          <path d="M2.46019417 2.44594595L.530097087 2.44594595C.258252427 2.44594595.054368932 2.22972973.054368932 1.97297297L.054368932.540540541C.054368932.27027027.27184466.0675675676.530097087.0675675676L2.46019417.0675675676C2.73203883.0675675676 2.93592233.283783784 2.93592233.540540541L2.93592233 1.97297297C2.93592233 2.22972973 2.73203883 2.44594595 2.46019417 2.44594595zM6.32038835 2.44594595L4.39029126 2.44594595C4.1184466 2.44594595 3.91456311 2.22972973 3.91456311 1.97297297L3.91456311.540540541C3.91456311.27027027 4.13203883.0675675676 4.39029126.0675675676L6.32038835.0675675676C6.59223301.0675675676 6.7961165.283783784 6.7961165.540540541L6.7961165 1.97297297C6.7961165 2.22972973 6.57864078 2.44594595 6.32038835 2.44594595zM10.1805825 2.44594595L8.25048544 2.44594595C7.97864078 2.44594595 7.77475728 2.22972973 7.77475728 1.97297297L7.77475728.540540541C7.77475728.27027027 7.99223301.0675675676 8.25048544.0675675676L10.1805825.0675675676C10.4524272.0675675676 10.6563107.283783784 10.6563107.540540541L10.6563107 1.97297297C10.6563107 2.22972973 10.438835 2.44594595 10.1805825 2.44594595zM14.0271845 2.44594595L12.0970874 2.44594595C11.8252427 2.44594595 11.6213592 2.22972973 11.6213592 1.97297297L11.6213592.540540541C11.6213592.27027027 11.838835.0675675676 12.0970874.0675675676L14.0271845.0675675676C14.2990291.0675675676 14.5029126.283783784 14.5029126.540540541L14.5029126 1.97297297C14.5165049 2.22972973 14.2990291 2.44594595 14.0271845 2.44594595z"/>
        </g>
        <g fill="#C1BFBD" transform="translate(18.214 13.378)">
          <path d="M2.52815534 2.44594595L.598058252 2.44594595C.326213592 2.44594595.122330097 2.22972973.122330097 1.97297297L.122330097.540540541C.122330097.27027027.339805825.0675675676.598058252.0675675676L2.52815534.0675675676C2.8.0675675676 3.0038835.283783784 3.0038835.540540541L3.0038835 1.97297297C3.01747573 2.22972973 2.8 2.44594595 2.52815534 2.44594595zM6.38834951 2.44594595L4.45825243 2.44594595C4.18640777 2.44594595 3.98252427 2.22972973 3.98252427 1.97297297L3.98252427.540540541C3.98252427.27027027 4.2.0675675676 4.45825243.0675675676L6.38834951.0675675676C6.66019417.0675675676 6.86407767.283783784 6.86407767.540540541L6.86407767 1.97297297C6.86407767 2.22972973 6.64660194 2.44594595 6.38834951 2.44594595z"/>
        </g>
        <g fill="#DADADA" transform="translate(2.854 16.757)">
          <path d="M2.46019417 2.41891892L.530097087 2.41891892C.258252427 2.41891892.054368932 2.2027027.054368932 1.94594595L.054368932.513513514C.054368932.243243243.27184466.0405405405.530097087.0405405405L2.46019417.0405405405C2.73203883.0405405405 2.93592233.256756757 2.93592233.513513514L2.93592233 1.94594595C2.93592233 2.21621622 2.73203883 2.41891892 2.46019417 2.41891892zM6.32038835 2.41891892L4.39029126 2.41891892C4.1184466 2.41891892 3.91456311 2.2027027 3.91456311 1.94594595L3.91456311.513513514C3.91456311.243243243 4.13203883.0405405405 4.39029126.0405405405L6.32038835.0405405405C6.59223301.0405405405 6.7961165.256756757 6.7961165.513513514L6.7961165 1.94594595C6.7961165 2.21621622 6.57864078 2.41891892 6.32038835 2.41891892zM10.1805825 2.41891892L8.25048544 2.41891892C7.97864078 2.41891892 7.77475728 2.2027027 7.77475728 1.94594595L7.77475728.513513514C7.77475728.243243243 7.99223301.0405405405 8.25048544.0405405405L10.1805825.0405405405C10.4524272.0405405405 10.6563107.256756757 10.6563107.513513514L10.6563107 1.94594595C10.6563107 2.21621622 10.438835 2.41891892 10.1805825 2.41891892zM14.0271845 2.41891892L12.0970874 2.41891892C11.8252427 2.41891892 11.6213592 2.2027027 11.6213592 1.94594595L11.6213592.513513514C11.6213592.243243243 11.838835.0405405405 12.0970874.0405405405L14.0271845.0405405405C14.2990291.0405405405 14.5029126.256756757 14.5029126.513513514L14.5029126 1.94594595C14.5165049 2.21621622 14.2990291 2.41891892 14.0271845 2.41891892z"/>
        </g>
        <g fill="#C1BFBD" transform="translate(18.214 16.757)">
          <path d="M2.52815534 2.41891892L.598058252 2.41891892C.326213592 2.41891892.122330097 2.2027027.122330097 1.94594595L.122330097.513513514C.122330097.243243243.339805825.0405405405.598058252.0405405405L2.52815534.0405405405C2.8.0405405405 3.0038835.256756757 3.0038835.513513514L3.0038835 1.94594595C3.01747573 2.21621622 2.8 2.41891892 2.52815534 2.41891892zM6.38834951 2.41891892L4.45825243 2.41891892C4.18640777 2.41891892 3.98252427 2.2027027 3.98252427 1.94594595L3.98252427.513513514C3.98252427.243243243 4.2.0405405405 4.45825243.0405405405L6.38834951.0405405405C6.66019417.0405405405 6.86407767.256756757 6.86407767.513513514L6.86407767 1.94594595C6.86407767 2.21621622 6.64660194 2.41891892 6.38834951 2.41891892z"/>
        </g>
        <g fill="#DADADA" transform="translate(2.854 20.135)">
          <path d="M2.46019417 2.40540541L.530097087 2.40540541C.258252427 2.40540541.054368932 2.18918919.054368932 1.93243243L.054368932.5C.054368932.22972973.27184466.027027027.530097087.027027027L2.46019417.027027027C2.73203883.027027027 2.93592233.243243243 2.93592233.5L2.93592233 1.93243243C2.93592233 2.18918919 2.73203883 2.40540541 2.46019417 2.40540541zM6.32038835 2.40540541L4.39029126 2.40540541C4.1184466 2.40540541 3.91456311 2.18918919 3.91456311 1.93243243L3.91456311.5C3.91456311.22972973 4.13203883.027027027 4.39029126.027027027L6.32038835.027027027C6.59223301.027027027 6.7961165.243243243 6.7961165.5L6.7961165 1.93243243C6.7961165 2.18918919 6.57864078 2.40540541 6.32038835 2.40540541zM10.1805825 2.40540541L8.25048544 2.40540541C7.97864078 2.40540541 7.77475728 2.18918919 7.77475728 1.93243243L7.77475728.5C7.77475728.22972973 7.99223301.027027027 8.25048544.027027027L10.1805825.027027027C10.4524272.027027027 10.6563107.243243243 10.6563107.5L10.6563107 1.93243243C10.6563107 2.18918919 10.438835 2.40540541 10.1805825 2.40540541zM14.0271845 2.40540541L12.0970874 2.40540541C11.8252427 2.40540541 11.6213592 2.18918919 11.6213592 1.93243243L11.6213592.5C11.6213592.22972973 11.838835.027027027 12.0970874.027027027L14.0271845.027027027C14.2990291.027027027 14.5029126.243243243 14.5029126.5L14.5029126 1.93243243C14.5165049 2.18918919 14.2990291 2.40540541 14.0271845 2.40540541z"/>
        </g>
        <g fill="#C1BFBD" transform="translate(18.214 20.135)">
          <path d="M2.52815534 2.40540541L.598058252 2.40540541C.326213592 2.40540541.122330097 2.18918919.122330097 1.93243243L.122330097.5C.122330097.22972973.339805825.027027027.598058252.027027027L2.52815534.027027027C2.8.027027027 3.0038835.243243243 3.0038835.5L3.0038835 1.93243243C3.01747573 2.18918919 2.8 2.40540541 2.52815534 2.40540541zM6.38834951 2.40540541L4.45825243 2.40540541C4.18640777 2.40540541 3.98252427 2.18918919 3.98252427 1.93243243L3.98252427.5C3.98252427.22972973 4.2.027027027 4.45825243.027027027L6.38834951.027027027C6.66019417.027027027 6.86407767.243243243 6.86407767.5L6.86407767 1.93243243C6.86407767 2.18918919 6.64660194 2.40540541 6.38834951 2.40540541z"/>
        </g>
      </g>
    </g>
  </g>
</svg>
