<svg xmlns="http://www.w3.org/2000/svg" width="84" height="84" viewBox="0 0 84 84">
  <g fill="none" fill-rule="evenodd">
    <path fill="#FFF" d="M42,84 C18.8040405,84 0,65.1959595 0,42 C0,18.8040405 18.8040405,0 42,0 C65.1959595,0 84,18.8040405 84,42 C84,65.1959595 65.1959595,84 42,84 Z"/>
    <path fill="#F3F3F4" fill-rule="nonzero" d="M42,81 C63.5391052,81 81,63.5391052 81,42 C81,20.4608948 63.5391052,3 42,3 C20.4608948,3 3,20.4608948 3,42 C3,63.5391052 20.4608948,81 42,81 Z M42,84 C18.8040405,84 0,65.1959595 0,42 C0,18.8040405 18.8040405,0 42,0 C65.1959595,0 84,18.8040405 84,42 C84,65.1959595 65.1959595,84 42,84 Z"/>
    <g fill-rule="nonzero" transform="translate(18 18)">
      <path fill="#FC494A" d="M17.7183626,23.5615439 L23.2523977,17.4493567 L6.65038596,0.764631579 C5.65922807,-0.226526316 4.00729825,-0.226526316 3.01614035,0.764631579 L0.785964912,2.99480702 C-0.205192982,3.98596491 -0.205192982,5.63789474 0.785964912,6.62905263 L17.7183626,23.5615439 Z"/>
      <polygon fill="#ABB4BD" points="43.984 47.432 47.949 47.928 47.371 43.881 43.737 41.403 41.424 43.798"/>
      <polygon fill="#E0E0E0" points="26.391 28.683 41.506 43.798 43.819 41.485 28.704 26.37"/>
      <path fill="#D73A3B" d="M18.2139883,19.0186667 C17.9662222,19.0186667 17.8009825,18.9360468 17.6358363,18.7709006 L3.5942924,4.72935673 C3.26390643,4.39897076 3.26390643,3.90334503 3.5942924,3.57295906 C3.92467836,3.2425731 4.42030409,3.2425731 4.75069006,3.57295906 L18.7922339,17.6145029 C19.1226199,17.9448889 19.1226199,18.4405146 18.7922339,18.7709006 C18.6269942,18.9360468 18.4617544,19.0186667 18.2139883,19.0186667"/>
      <path fill="#ABB4BD" d="M26.3911111,13.8150175 C28.290807,11.9153216 28.5386667,8.94175439 26.5563509,6.9594386 C22.6742456,3.07733333 20.4441637,3.49033918 16.0665263,3.49033918 C22.6742456,0.59948538 27.4648889,-0.0612865497 32.2555322,2.16879532 C34.3204678,3.07733333 35.1464795,3.90334503 36.7984094,5.55527485 L39.771883,8.52874854 C40.5152749,9.27214035 41.010807,10.2632982 41.1760468,11.2544561 C41.4238129,12.8237661 41.010807,13.154152 42.0845848,14.3105497 C42.4149708,14.6409357 42.9105965,14.6409357 43.2409825,14.3105497 C43.5713684,13.9801637 44.0669942,13.9801637 44.3973801,14.3105497 L47.2883275,17.2014971 C47.9490994,17.862269 47.9490994,18.8534269 47.2883275,19.5141988 L41.4239064,25.3786199 C40.7631345,26.0393918 39.7719766,26.0393918 39.1112047,25.3786199 L36.3854971,22.5702924 C36.0551111,22.2399064 36.0551111,21.7442807 36.3854971,21.4138947 C36.715883,21.0835088 36.715883,20.5053567 36.3854971,20.1749708 C35.2290994,19.0185731 34.8987135,19.4315789 33.3294035,19.2664327 C32.2556257,19.101193 31.3470877,18.6056608 30.6036959,17.862269 L26.3911111,13.8150175"/>
      <path fill="#7A8188" d="M26.3911111,13.8150175 L0.785964912,42.4763509 C-0.205192982,43.4675088 -0.287812865,45.1194386 0.703345029,46.0280702 L1.85974269,47.1844678 C2.85090058,48.1756257 4.42030409,48.0930058 5.41146199,47.101848 L31.0992281,18.3579883 L26.3911111,13.8150175 Z"/>
      <polygon fill="#E15649" points="22.344 28.104 24.657 30.417 30.521 24.553 27.878 21.91"/>
    </g>
  </g>
</svg>
