<svg xmlns="http://www.w3.org/2000/svg" width="16" height="16" viewBox="0 0 16 16">
  <path fill="#BFBFBF" d="M436.750831,377.750831 C437.519227,377.750831 438.142136,378.373739 438.142136,379.142136 C438.142136,379.910532 437.519227,380.53344 436.750831,380.53344 L429.53344,380.53344 L429.53344,387.750831 C429.53344,388.519227 428.910532,389.142136 428.142136,389.142136 C427.373739,389.142136 426.750831,388.519227 426.750831,387.750831 L426.750831,380.53344 L419.53344,380.53344 C418.765044,380.53344 418.142136,379.910532 418.142136,379.142136 C418.142136,378.373739 418.765044,377.750831 419.53344,377.750831 L426.750831,377.750831 L426.750831,370.53344 C426.750831,369.765044 427.373739,369.142136 428.142136,369.142136 C428.910532,369.142136 429.53344,369.765044 429.53344,370.53344 L429.53344,377.750831 L436.750831,377.750831 Z" transform="rotate(45 665.979 -313.343)"/>
</svg>
