<svg xmlns="http://www.w3.org/2000/svg" width="77" height="85" viewBox="0 0 77 85">
  <g fill="none">
    <path fill="#D8C5B4" d="M58.0371936,74.786534 C79.7635524,86.1753463 79.6131969,67.2699179 73.2982691,66.1310366 C73.6741577,69.3958295 74.7266457,70.5347107 71.4188263,73.4198765 C68.1861847,76.3050423 56.6088171,68.940277 58.0371936,74.786534 Z"/>
    <path fill="#B1A093" d="M17.215696 51.8570586C17.215696 51.8570586 20.7490485 76.3050423 17.215696 78.9624318 13.6823436 81.6198214 25.6355998 79.6457606 25.6355998 79.6457606L23.9816901 59.3736747 17.215696 51.8570586zM36.8370788 53.5274177C36.8370788 53.5274177 40.3704313 77.9754014 36.8370788 80.632791 33.3037264 83.2901805 45.2569826 81.3161197 45.2569826 81.3161197L43.6030729 61.0440338 36.8370788 53.5274177z"/>
    <path fill="#D8C5B4" d="M59.0896816,58.5384951 C54.2031303,53.8311194 48.4144465,50.3385503 43.5278952,45.6311745 C35.1079915,37.5071551 29.4696631,28.0164782 28.4171751,16.6276659 C28.0412866,12.4517681 24.1320455,12.072141 20.0724491,12.6036189 C13.832699,13.4387985 10.5248797,28.7757324 11.5021899,28.6998069 C11.5021899,28.6998069 10.1489911,48.8959674 23.1547353,61.4236609 C23.9816901,70.6106361 27.3646871,79.2661335 22.5533136,81.9994484 C17.74194,84.7327634 30.7476842,85.2642413 31.6498167,83.2901805 C32.5519493,81.3161197 32.0257053,68.7125008 32.0257053,68.7125008 C32.0257053,68.7125008 38.4909885,74.786534 43.3775398,72.8883986 C40.971853,76.1531915 43.9037838,80.7846418 43.9037838,80.7846418 C43.9037838,80.7846418 44.1293169,81.6198214 42.4002295,82.9105534 C40.6711422,84.2012855 57.2102388,83.8975838 61.5705461,82.834628 C66.0060311,81.7716722 67.8102962,66.9662162 59.0896816,58.5384951 Z"/>
    <path fill="#09A5C5" d="M33.3037264,29.8386882 C33.2285487,31.5849727 26.5377323,41.2275005 24.1320455,45.4793237 C23.6809793,46.3145033 22.4781359,46.3904287 21.8767142,45.7071 L12.1036116,34.6979148 C11.8029008,34.3182877 11.5773676,33.9386606 11.5773676,33.4071827 L11.0511237,26.2701937 C10.9759459,25.055387 11.8780785,24.0683566 13.0809219,23.9924312 L31.574639,22.85355 C33.0030155,22.7776246 34.2058589,24.0683566 33.8299704,25.5109395 L33.3037264,29.8386882 Z"/>
    <path fill="#D8C5B4" d="M35.4087023,13.7425002 C35.4087023,21.3350417 29.1689522,17.3869201 21.5008256,17.3869201 C13.832699,17.3869201 7.51777119,21.3350417 7.51777119,13.7425002 C7.51777119,6.14995863 13.7575213,0 21.4256479,0 C29.0937745,0 35.4087023,6.14995863 35.4087023,13.7425002 Z"/>
    <polygon fill="#D8C5B4" points="32.552 26.726 10.375 27.105 7.593 9.946 35.258 9.946"/>
    <ellipse cx="15.411" cy="13.667" fill="#1E1E1C" rx="1.504" ry="1.519"/>
    <ellipse cx="27.365" cy="13.667" fill="#1E1E1C" rx="1.504" ry="1.519"/>
    <path fill="#603713" d="M28.9434191 4.4795995C27.8909311 2.96109119 29.3944854 1.06295581 31.1235727 1.67035913 37.6640337 3.79627076 41.1222084 9.26290066 40.5207867 16.2480389 39.7690096 24.3720583 39.8441873 37.0516026 42.2498741 45.6311745 44.0541392 52.0089094 32.2512384 52.3885365 32.5519493 44.3404425 32.8526601 36.2923485 32.5519493 22.1702212 32.5519493 15.4128593 32.4767716 10.7054835 30.6725065 6.9851382 28.9434191 4.4795995zM13.832699 4.4795995C14.885187 2.96109119 13.3816327 1.06295581 11.6525454 1.67035913 5.11208441 3.79627076 1.65390966 9.26290066 2.33050907 16.2480389 3.00710848 24.2961329 3.00710848 36.9756772.526243984 45.5552491-1.2780211 51.932984 10.5248797 52.3126111 10.2241688 44.2645171 9.92345798 36.2923485 10.2241688 22.0942958 10.2241688 15.3369339 10.2993465 10.7054835 12.1036116 6.9851382 13.832699 4.4795995z"/>
    <path fill="#C8B7A7" d="M32.5519493,25.055387 C32.5519493,31.1294202 27.5150426,36.0645722 21.3504702,36.0645722 C15.1858978,36.0645722 10.2241688,31.2053457 10.2241688,25.055387 C10.2241688,18.9054284 15.2610755,17.2350693 21.4256479,17.2350693 C27.5902203,17.2350693 32.5519493,18.9813538 32.5519493,25.055387 Z"/>
    <path fill="#1E1E1C" d="M24.3575787,22.7776246 C24.1320455,24.2961329 22.8540244,25.3590887 21.7263587,25.3590887 C20.5986931,25.3590887 19.4710274,24.2202075 19.0951388,22.7776246 C18.794428,21.3350417 20.2979822,21.2591163 21.7263587,21.2591163 C23.1547353,21.2591163 24.5831118,21.3350417 24.3575787,22.7776246 Z"/>
    <g fill="#1E1E1C" transform="translate(16.54 24.296)">
      <path d="M5.18726212,5.16292823 C0.751777119,5.16292823 0.150355424,2.27776246 0.150355424,2.12591163 C0.0751777119,1.89813538 0.225533136,1.74628455 0.451066272,1.67035913 C0.676599407,1.59443372 0.826954831,1.74628455 0.902132543,1.9740608 C0.902132543,2.04998621 1.50355424,4.40367408 5.26243984,4.40367408 C9.02132543,4.40367408 9.54756942,2.12591163 9.62274713,1.9740608 C9.69792484,1.74628455 9.84828026,1.67035913 10.0738134,1.67035913 C10.2993465,1.74628455 10.3745242,1.89813538 10.3745242,2.12591163 C10.2241688,2.27776246 9.62274713,5.16292823 5.18726212,5.16292823 Z"/>
      <path d="M5.18726212,5.16292823 C4.96172899,5.16292823 4.81137356,5.0110774 4.81137356,4.78330116 L4.81137356,1.06295581 C4.81137356,0.835179567 4.96172899,0.683328737 5.18726212,0.683328737 C5.41279526,0.683328737 5.56315068,0.835179567 5.56315068,1.06295581 L5.56315068,4.78330116 C5.56315068,5.0110774 5.41279526,5.16292823 5.18726212,5.16292823 Z"/>
    </g>
  </g>
</svg>
