<?xml version="1.0" encoding="UTF-8"?>
<svg width="195px" height="331px" viewBox="0 0 195 331" version="1.1" xmlns="http://www.w3.org/2000/svg" xmlns:xlink="http://www.w3.org/1999/xlink">
    <!-- Generator: Sketch 42 (36781) - http://www.bohemiancoding.com/sketch -->
    <title>Gustav-Papierflieger-Typ</title>
    <desc>Created with Sketch.</desc>
    <defs>
        <rect id="path-1" x="0" y="0" width="215" height="349"></rect>
    </defs>
    <g id="Page-1" stroke="none" stroke-width="1" fill="none" fill-rule="evenodd">
        <g id="element/signup" transform="translate(-1133.000000, -198.000000)">
            <g id="Gustav-Papierflieger-Typ" transform="translate(1133.000000, 180.000000)">
                <mask id="mask-2" fill="white">
                    <use xlink:href="#path-1"></use>
                </mask>
                <g id="Mask"></g>
                <g mask="url(#mask-2)" id="Ebene_1">
                    <g transform="translate(0.000000, 17.796034)">
                        <g>
                            <rect id="Rectangle-path" fill="#183446" fill-rule="nonzero" x="142.8" y="249.539943" width="27.1" height="132.67932"></rect>
                            <path d="M170.7,239.850992 C170.7,261.502833 154.4,279.002266 135.3,279.002266 C116.2,279.002266 99.9,261.502833 99.9,239.850992 C99.9,218.19915 116.2,205.643059 135.3,205.643059 C154.4,205.643059 170.7,218.19915 170.7,239.850992 Z" id="XMLID_98_" fill="#1C3F5E" fill-rule="nonzero"></path>
                            <path d="M100.7,245.090935 L100.3,332.686969 C112.5,332.785836 119.1,332.785836 127.4,332.884703 L127.7,245.090935 L100.7,245.090935 L100.7,245.090935 Z" id="XMLID_93_" fill="#1C3F5E" fill-rule="nonzero"></path>
                            <g id="XMLID_89_" transform="translate(112.000000, 240.246459)" fill-rule="nonzero" fill="#183446">
                                <path d="M45.4,0.296600567 C42.3,18.2903683 28.3,32.131728 11.6,32.131728 C7.7,32.131728 4,31.3407932 0.6,30.0555241 C6.7,36.0864023 14.6,39.7444759 23.4,39.7444759 C42.5,39.7444759 57.9,21.9484419 57.9,0.296600567 L57.9,0.296600567" id="XMLID_90_"></path>
                            </g>
                            <path d="M136.9,269.313314 C136.9,269.313314 153.5,262.392635 157.3,240.83966 L133.9,240.83966 L133.9,249.935411 L126.5,261.305099 L136.9,269.313314 Z" id="XMLID_77_" fill="#1C3F5E" fill-rule="nonzero"></path>
                            <polygon id="Shape" fill="#1C3F5E" fill-rule="nonzero" points="128.7 258.240227 123.6 252.80255 128.7 240.048725 133.8 252.80255"></polygon>
                            <path d="M181.5,165.70085 C181.5,195.55864 165.3,228.679037 138.4,228.679037 C111.5,228.679037 99.6,182.310482 99.6,152.452691 C99.6,144.93881 91,151.068555 93.5,144.444476 C100.9,124.769972 118.2,110.533144 138.4,110.533144 C165.3,110.632011 181.5,135.843059 181.5,165.70085 Z" id="XMLID_101_" fill="#19B1C6" fill-rule="nonzero"></path>
                            <path d="M141,110.730878 L141,228.481303 C166.7,226.899433 181.4,194.471105 181.4,165.601983 C181.4,136.930595 166.7,112.411615 141,110.730878 Z" id="XMLID_100_" fill="#14A9BD" fill-rule="nonzero"></path>
                            <path d="M175.8,170.446459 C166.5,170.446459 159,161.152975 159,150.969688 L159,150.27762 L159,119.431161 C151.3,113.894618 147.9,110.730878 138.1,110.730878 C128.5,110.730878 119.5,113.894618 111.9,119.134561 L111.9,150.27762 L111.9,150.969688 C111.9,161.251841 112.1,228.679037 138.1,228.679037 C164,228.679037 179.5,197.535977 181.3,169.358924 C179.5,170.050992 177.7,170.446459 175.8,170.446459 Z" id="XMLID_99_" fill="#19B1C6" fill-rule="nonzero"></path>
                            <polygon id="XMLID_97_" fill="#19B1C6" fill-rule="nonzero" points="99.4 151.56289 171.2 170.940793 171.2 245.783003 99.4 245.783003"></polygon>
                            <ellipse id="XMLID_82_" fill="#F4A78C" fill-rule="nonzero" cx="172" cy="257.449292" rx="9.4" ry="9.7878187"></ellipse>
                            <path d="M158.1,245.88187 L158.1,232.534844 L155.3,153.342493 C155.3,140.786402 154,122.594901 144.4,116.168555 C146.4,114.092351 142.2,114.487819 144.5,114.388952 L139.9,111.324079 C147.1,112.411615 154.4,115.871955 159.1,119.431161 L159.1,147.805949 L159.1,148.498017 C159.1,157.989235 166.6,166.689518 175.9,166.689518 C177.8,166.689518 179.7,166.294051 181.4,165.70085 C180.7,175.884136 177.1,194.174504 171.3,201.787252 L171.3,245.88187 L156.1,245.88187" id="XMLID_79_" fill="#14A9BD" fill-rule="nonzero"></path>
                            <rect id="XMLID_78_" fill="#F4A78C" fill-rule="nonzero" x="167.6" y="165.898584" width="13.9" height="91.4518414"></rect>
                            <path d="M146.6,100.053258 L146.6,110.434278 C146.6,114.982153 147.4,118.739093 141.1,118.739093 C134.8,118.739093 129.6,115.08102 129.6,110.434278 L129.6,100.844193 L146.6,100.053258 Z" id="XMLID_60_" fill="#F4A78C" fill-rule="nonzero"></path>
                            <rect id="XMLID_103_" fill="#14A9BD" fill-rule="nonzero" x="167.6" y="165.898584" width="13.9" height="76.5229462"></rect>
                            <rect id="XMLID_104_" fill="#169EB0" fill-rule="nonzero" x="167.6" y="165.898584" width="1" height="76.5229462"></rect>
                            <path d="M118.3,114.685552 L128.5,108.259207 L140.9,118.640227 L134.7,125.956374 C134.4,126.747309 133.3,126.945042 132.8,126.252975 L118.3,114.685552 Z" id="XMLID_105_" fill="#14A9BD" fill-rule="nonzero"></path>
                            <polygon id="Shape" fill="#EA4E51" fill-rule="nonzero" points="130.9 125.560907 126.4 211.179603 133.1 220.571955 139.9 211.179603 135.4 125.560907"></polygon>
                            <path d="M181.9,80.8730878 C183.4,79.0934844 183.3,79.1923513 183.3,79.1923513 C183.3,79.1923513 185,80.8730878 187.1,81.2685552 C189.2,81.6640227 187.6,78.005949 187.6,78.005949 C187.6,78.005949 184,74.1501416 183.8,74.1501416 C183.6,74.1501416 180.2,76.4240793 180.2,76.4240793 L181.9,80.8730878 Z" id="Shape" fill="#EBC471" fill-rule="nonzero"></path>
                            <path d="M126,93.2314448 C119.1,92.6382436 114.3,96.2963173 111.9,98.7679887 C109.3,101.437394 104.9,105.194334 101.1,105.194334 C100.9,105.194334 101.6,103.019263 101.6,103.019263 C106.2,96.7906516 100.9,91.7484419 100.9,91.7484419 C95.4,98.570255 86.9,98.2736544 86.9,98.2736544 C94.1,87.0028329 90.2,78.1048159 90.2,78.1048159 C84.7,82.8504249 79.1,80.774221 79.1,80.774221 C79.1,80.774221 85.6,83.9379603 84,55.1677054 C84,55.1677054 80.1,20.3665722 108.8,6.42634561 C108.8,6.42634561 137.5,-7.81048159 164.6,8.79915014 C164.6,8.79915014 166.2,5.73427762 162.6,0.692067989 C162.6,0.692067989 168.1,4.05354108 169.5,14.1379603 C169.5,14.1379603 175,12.3583569 179.9,13.2481586 C179.9,13.2481586 174.7,14.1379603 172.1,17.9937677 C172.1,17.9937677 184.2,20.9597734 187.1,43.3036827 C187.1,43.3036827 188.7,53.9813031 187.1,67.723796 C187.1,67.723796 185.1,65.7464589 194.3,82.3560907 C194.3,82.3560907 187.1,82.9492918 183.2,79.390085 C183.2,79.390085 179.9,89.4745042 187.8,99.8555241 C187.8,99.8555241 180.9,101.041926 173.4,94.5167139 C173.4,94.5167139 169,100.547592 173.5,107.567139 C173.6,107.666006 165.4,104.601133 162.6,101.931728 C158.9,98.3725212 151.3,92.2427762 144.2,93.3303116" id="XMLID_217_" fill="#F4CA75" fill-rule="nonzero"></path>
                            <path d="M177.7,58.9246459 C177.7,83.7402266 156.2,106.380737 132.4,106.380737 C108.6,106.380737 91.6,83.7402266 91.6,58.9246459 C91.6,34.1090652 110.9,14.0390935 134.6,14.0390935 C158.3,14.0390935 177.7,34.207932 177.7,58.9246459 Z" id="XMLID_211_" fill="#F0B79B" fill-rule="nonzero"></path>
                            <ellipse id="XMLID_210_" fill="#1E1E1C" fill-rule="nonzero" cx="110.1" cy="62.0883853" rx="3.8" ry="4.05354108"></ellipse>
                            <ellipse id="XMLID_209_" fill="#1E1E1C" fill-rule="nonzero" cx="140.5" cy="62.0883853" rx="3.8" ry="4.05354108"></ellipse>
                            <g id="Group" transform="translate(79.000000, 0.000000)" fill-rule="nonzero" fill="#EBC471">
                                <path d="M0.4,80.6753541 C0.3,80.6753541 0.2,80.5764873 0.2,80.5764873 C0.2,80.5764873 0.3,80.6753541 0.4,80.6753541 Z" id="Shape"></path>
                                <path d="M77.1,8.10708215 C77.1,8.10708215 77.8,6.72294618 77.2,4.35014164 C69.7,1.38413598 62.3,0.395467422 55.6,0.494334278 C62.6,1.48300283 69.9,3.65807365 77.1,8.10708215 Z" id="Shape"></path>
                                <path d="M85.7,8.60141643 C83.7,7.31614731 81.6,6.32747875 79.6,5.3388102 C80.6,7.31614731 81.6,9.98555241 82,13.4458924 C82,13.4458924 86.1,12.1606232 90.3,12.3583569 C88.7,3.5592068 83.7,0.593201133 83.7,0.593201133 C87.3,5.53654391 85.7,8.60141643 85.7,8.60141643 Z" id="Shape"></path>
                                <path d="M104.3,79.0934844 C101.9,78.8957507 97.7,79.5878187 95.5,77.5116147 C95.5,77.5116147 98.6,92.1439093 108.9,99.5589235 C102.8,90.3643059 103.3,83.9379603 104.3,79.0934844 Z" id="Shape"></path>
                                <path d="M108.2,67.4271955 C109.8,53.7835694 108.2,43.0070822 108.2,43.0070822 C105.3,20.7620397 93.2,17.6971671 93.2,17.6971671 C95.8,13.8413598 101,12.9515581 101,12.9515581 C96.1,12.0617564 90.6,13.8413598 90.6,13.8413598 C90.6,13.5447592 90.5,13.2481586 90.5,13.0504249 C88.7,13.6436261 86.2,14.9288952 84.7,17.2028329 C84.7,17.2028329 96.8,20.1688385 99.7,42.5127479 C99.7,42.5127479 101.3,53.1903683 99.7,66.9328612 C99.7,66.9328612 97.8,65.0543909 106.2,80.3787535 C110.2,82.4549575 115.4,82.0594901 115.4,82.0594901 C106.3,65.4498584 108.2,67.4271955 108.2,67.4271955 Z" id="Shape"></path>
                            </g>
                            <path d="M138.5,14.9288952 C151,22.7393768 159.4,37.0750708 159.4,53.388102 C159.4,78.2036827 140.1,98.2736544 116.4,98.2736544 C113.5,98.2736544 107.2,99.7566572 104.5,99.1634561 C111,103.216997 121.9,103.810198 130,103.810198 C153.8,103.810198 173,83.7402266 173,58.9246459 C173,37.1739377 158.2,19.0813031 138.5,14.9288952 Z" id="XMLID_208_" fill="#E5AF99" fill-rule="nonzero"></path>
                            <ellipse id="XMLID_207_" fill="#F0B79B" fill-rule="nonzero" cx="91.3" cy="68.2181303" rx="10.7" ry="11.1719547"></ellipse>
                            <path d="M91.3,57.0461756 C91.3,57.0461756 91.8,60.1110482 93.4,62.1872521 C93.4,62.1872521 93.8,40.8320113 104.2,27.2872521 C104.2,27.2872521 102.4,33.4169972 104.2,37.2728045 C104.2,37.2728045 106.9,34.9988669 111.2,32.6260623 C117.7,29.0668555 125.2,27.386119 132.7,27.5838527 C138.2,27.6827195 147.5,26.9906516 155,21.7507082 C155,21.7507082 173.8,34.9988669 176.6,61.3963173 C176.6,61.3963173 177.8,59.7155807 177.6,57.1450425 L178.8,51.1141643 L173.4,31.4396601 L160.2,16.1152975 L145.1,11.9628895 L123.8,11.9628895 L108.1,16.1152975 L100.3,23.1348442 L93.4,34.207932 L87.4,46.4674221 L87.4,51.9050992 L91.3,57.0461756 Z" id="XMLID_205_" fill="#F4CA75" fill-rule="nonzero"></path>
                            <path d="M117.5,83.0481586 C117.5,87.1016997 121,90.3643059 124.5,90.3643059 C128,90.3643059 133.3,87.1016997 133.3,83.0481586 L117.5,83.0481586 Z" id="XMLID_204_" fill="#FFFFFF" fill-rule="nonzero"></path>
                            <path d="M144.2,101.140793 L144.2,113.103683 C144.2,118.343626 140.1,122.594901 135.1,122.594901 C130.1,122.594901 126,118.343626 126,113.103683 L126,102.030595 L144.2,101.140793 Z" id="XMLID_191_" fill="#E5AF99" fill-rule="nonzero"></path>
                            <path d="M109.9,99.4600567 L109.9,81.1696884 C109.9,80.082153 111.3,79.1923513 112.1,78.8957507 L121.6,75.1388102 L120.3,76.9184136 C120,77.313881 119.6,77.6104816 119.2,77.8082153 L114.3,81.466289 L112.7,94.8133144 C112.7,97.7793201 114.1,100.448725 116.4,101.437394 C117.5,101.931728 118.9,102.129462 120.5,101.931728 C121.5,101.733994 122.4,100.943059 122.7,99.7566572 C123,98.7679887 123.3,97.4827195 123,95.3076487 L126.8,95.3076487 C126.8,95.3076487 126.5,97.4827195 126.8,99.6577904 C127.1,101.338527 128.1,102.228329 129.5,102.327195 C130.8,102.426062 132.9,101.733994 135.3,99.9543909 C137.1,98.6691218 138.2,96.2963173 138.2,93.725779 L137.5,81.2685552 L130.6,77.8082153 C130.1,77.6104816 129.7,77.313881 129.4,76.8195467 L128.2,75.1388102 L138.7,78.5002833 C139.5,78.7968839 140.9,79.7855524 140.9,80.774221 L140.6,98.3725212 C140.6,98.3725212 133.8,103.711331 125.6,103.810198 C125.1,103.810198 124.7,103.711331 124.2,103.810198 C122.4,104.106799 114.9,103.019263 109.9,99.4600567 Z" id="XMLID_190_" fill="#F4CA75" fill-rule="nonzero"></path>
                            <path d="M176.7,60.8031161 C176.7,60.8031161 168.5,77.0172805 155.1,81.1696884 L155.8,99.9543909 C155.8,100.053258 177.1,87.9915014 176.7,60.8031161 Z" id="XMLID_189_" fill="#F4CA75" fill-rule="nonzero"></path>
                            <path d="M93,61.1985836 C93,61.1985836 100.3,78.5002833 110.8,82.6526912 L110.8,99.5589235 C110.8,99.4600567 90.6,87.4971671 93,61.1985836 Z" id="XMLID_187_" fill="#F4CA75" fill-rule="nonzero"></path>
                            <path d="M93,68.2181303 L93,98.6691218 C93,101.338527 93.7,104.007932 95.1,106.183003 C99.4,112.807082 110.1,128.823513 127.2,132.481586 C127.2,132.481586 149.9,129.21898 159.5,105.293201 C160.2,103.612465 160.5,101.832861 160.5,99.9543909 L160.2,67.3283286 C160.2,67.3283286 146.4,82.6526912 141.4,81.2685552 L140.3,98.9657224 C140.3,98.9657224 122.5,112.510482 107.8,93.5280453 L97,75.1388102 L93,68.2181303 Z" id="XMLID_186_" fill="#F4CA75" fill-rule="nonzero"></path>
                            <path d="M167,32.5271955 C167.8,46.9617564 160.8,67.8226629 151.7,75.4354108 C142.6,82.9492918 167,84.3334278 167,84.3334278 L173.6,78.5002833 C173.6,78.5002833 175,76.1274788 176.3,71.2830028 C178.1,64.4611898 180,54.08017 178.9,50.1254958" id="Shape" fill="#F4CA75" fill-rule="nonzero"></path>
                            <path d="M179,57.0461756 C178.2,65.5487252 176.4,73.7546742 174,78.2036827 C175.5,78.9946176 177.2,79.4889518 178.9,79.4889518 C184.8,79.4889518 189.6,74.4467422 189.6,68.3169972 C189.7,62.0883853 184.9,57.0461756 179,57.0461756 Z" id="Shape" fill="#E5AF99" fill-rule="nonzero"></path>
                            <path d="M166.5,18.488102 C162.6,16.6096317 159.7,14.1379603 159.7,14.1379603 C159.7,14.1379603 146.2,1.48300283 106.7,7.1184136 C122,-0.197733711 136.2,-0.8898017 150.2,2.17507082 C164.2,5.23994334 168.9,11.9628895 168.9,11.9628895 C168.9,11.9628895 169.7,12.3583569 169.2,15.5220963 C168.8,18.6858357 169.6,19.9711048 166.5,18.488102 Z" id="Shape" fill="#EBC471" fill-rule="nonzero"></path>
                            <path d="M59.5,186.46289 C58.3,186.46289 57,186.166289 55.8,185.671955 C52.7,184.188952 50.8,181.025212 51,177.663739 L54.3,116.564023 C54.6,111.91728 58.6,108.358074 63.2,108.654674 C67.9,108.951275 71.5,112.905949 71.2,117.453824 L69,158.285836 L102.9,128.230312 C106.4,125.165439 111.8,125.46204 114.9,128.823513 C118,132.283853 117.7,137.622663 114.3,140.687535 L65.1,184.287819 C63.6,185.671955 61.6,186.46289 59.5,186.46289 Z" id="Shape" fill="#19B1C6" fill-rule="nonzero"></path>
                            <g id="Group" transform="translate(0.000000, 77.116147)" fill-rule="nonzero">
                                <polygon id="Shape" fill="#EDEDED" points="73.3 40.3376771 75.8 10.8753541 0.8 21.9484419"></polygon>
                                <polygon id="Shape" fill="#FFFFFF" points="64.8 0 75.8 10.8753541 0.8 21.9484419"></polygon>
                                <polygon id="Shape" fill="#E3E3E3" points="73.3 40.3376771 81.2 16.2141643 0.8 21.9484419"></polygon>
                                <polygon id="Shape" fill="#FFFFFF" points="100 34.7022663 81.2 16.2141643 0.8 21.9484419"></polygon>
                            </g>
                            <ellipse id="XMLID_92_" fill="#F4A78C" fill-rule="nonzero" cx="64.6" cy="114.092351" rx="9.9" ry="9.98555241"></ellipse>
                            <polygon id="Shape" fill="#FFFFFF" fill-rule="nonzero" points="100 111.818414 81.2 93.3303116 0.8 99.0645892"></polygon>
                            <rect id="Rectangle-path" fill="#1C3F5E" fill-rule="nonzero" x="100.4" y="330.808499" width="27.1" height="51.4107649"></rect>
                        </g>
                    </g>
                </g>
            </g>
        </g>
    </g>
</svg>