<?xml version="1.0" encoding="UTF-8"?>
<svg width="854px" height="474px" viewBox="0 0 854 474" version="1.1" xmlns="http://www.w3.org/2000/svg" xmlns:xlink="http://www.w3.org/1999/xlink">
    <!-- Generator: Sketch 42 (36781) - http://www.bohemiancoding.com/sketch -->
    <title>Macbook</title>
    <desc>Created with Sketch.</desc>
    <defs>
        <linearGradient x1="50%" y1="0%" x2="50%" y2="100%" id="linearGradient-1">
            <stop stop-color="#E5E5E5" offset="0%"></stop>
            <stop stop-color="#E8E8E8" offset="100%"></stop>
        </linearGradient>
        <rect id="path-2" x="0.420356" y="0.077974" width="9.71809896" height="7.69339595" rx="1"></rect>
        <rect id="path-4" x="0.52513" y="0.0277011" width="7.89694584" height="7.85557788"></rect>
        <path d="M4.473603,1.0277011 C2.845206,1.0277011 1.52513,2.3385169 1.52513,3.9554901 C1.52513,5.5724632 2.845206,6.883279 4.473603,6.883279 C6.102,6.883279 7.422076,5.5724632 7.422076,3.9554901" id="path-6"></path>
        <polygon id="path-8" points="14.945479 0.1274056 0.003371 0.1274056 0.003371 7.6321501 14.945479 7.6321501"></polygon>
    </defs>
    <g id="Page-1" stroke="none" stroke-width="1" fill="none" fill-rule="evenodd">
        <g id="Macbook">
            <path d="M518.939958,434.879244 L518.939958,438.675546 C518.939958,441.382271 513.619183,442.199717 509.591717,442.199717 L344.353354,442.199717 C340.11592,442.199717 334.757075,441.383501 334.757075,438.675546 L334.757075,434.879244" id="touchpad" stroke="#3B495A" fill="#F5F7FB" fill-rule="nonzero"></path>
            <path d="M122.332817,0 L731.364216,0 C749.210169,0 764.061325,14.6293764 764.061363,32.4861513 L764.061363,435.683889 L623.647166,435.683891 L89.6356696,435.683901 L89.6356696,32.4861513 C89.6356696,14.6469311 104.52122,0 122.332817,0 Z M760.061363,32.4861556 C760.06133,16.8521024 747.014391,4 731.364216,4 L122.332817,4 C106.716019,4 93.6356696,16.8706683 93.6356696,32.4861513 L93.6356696,431.683901 L623.647166,431.683891 L760.061363,431.683889 L760.061363,32.4861556 Z" id="bezel" fill="#E5E5E5" fill-rule="nonzero"></path>
            <path d="M760.061363,32.4861556 C760.06133,16.8521024 747.014391,4 731.364216,4 L122.332817,4 C106.716019,4 93.6356696,16.8706683 93.6356696,32.4861513 L93.6356696,431.683901 L623.647166,431.683891 L760.061363,431.683889 L760.061363,32.4861556 Z" id="Path-Copy" fill="#FFFFFF"></path>
            <path d="M120,52.0016239 L120,405.998376 C120,407.106661 120.895049,408 122.004935,408 L731.995065,408 C733.103607,408 734,407.10393 734,405.998376 L734,52.0016239 C734,50.8933392 733.104951,50 731.995065,50 L122.004935,50 C120.896393,50 120,50.8960698 120,52.0016239 Z M118,52.0065305 C118,49.79295 119.793633,48 122.007312,48 L731.992688,48 C734.207018,48 736,49.7895213 736,52.0065305 L736,405.993469 C736,408.20705 734.206367,410 731.992688,410 L122.007312,410 C119.792982,410 118,408.210479 118,405.993469 L118,52.0065305 Z" id="screen" fill="#E5E5E5" fill-rule="nonzero"></path>
            <path d="M64.9758113,469.784659 L788.84401,469.784659 C808.116512,469.784659 824.066955,467.118007 835.877996,462.656946 C840.544649,460.894339 844.305186,458.929861 846.882304,457.016221 C847.976286,456.203884 848.803774,455.436856 849.326663,454.778622 C849.686246,454.325964 849.823469,454.027111 849.823505,454.010785 L849.823505,436.635357 C849.823505,436.189481 849.157821,435.649474 848.141075,435.649474 L5.67751823,435.649474 C4.66376687,435.649474 4,436.188672 4,436.635357 L4,453.352858 C4,453.846894 5.23759843,455.267616 7.66128321,456.891365 C10.618462,458.872527 14.896257,460.917794 20.0455576,462.746393 C32.3955714,467.132082 48.0616883,469.784659 64.9758113,469.784659 Z M64.9758113,473.784659 C47.6094496,473.784659 31.4905198,471.055412 18.7069896,466.515774 C7.40311583,462.501587 0,457.541868 0,453.352858 L0,436.635357 C0,433.774941 2.61650623,431.649474 5.67751823,431.649474 L848.141075,431.649474 C851.204185,431.649474 853.823505,433.774283 853.823505,436.635357 L853.823501,454.014739 C853.816067,457.774848 847.285535,462.624098 837.291352,466.398927 C825.008284,471.038274 808.580924,473.784659 788.84401,473.784659 L64.9758113,473.784659 Z" id="Shape" fill="#E5E5E5" fill-rule="nonzero"></path>
            <path d="M64.9758113,469.784659 L788.84401,469.784659 C808.116512,469.784659 824.066955,467.118007 835.877996,462.656946 C840.544649,460.894339 844.305186,458.929861 846.882304,457.016221 C847.976286,456.203884 848.803774,455.436856 849.326663,454.778622 C849.686246,454.325964 849.823469,454.027111 849.823505,454.010785 L849.823505,436.635357 C849.823505,436.189481 849.157821,435.649474 848.141075,435.649474 L5.67751823,435.649474 C4.66376687,435.649474 4,436.188672 4,436.635357 L4,453.352858 C4,453.846894 5.23759843,455.267616 7.66128321,456.891365 C10.618462,458.872527 14.896257,460.917794 20.0455576,462.746393 C32.3955714,467.132082 48.0616883,469.784659 64.9758113,469.784659 Z" id="Path-Copy-2" fill="#FFFFFF"></path>
            <path d="M2.61394294,451.481147 L849.539239,451.481147" id="Line" stroke="#E5E5E5" stroke-width="2"></path>
            <path d="M518.939958,434.879244 L518.939958,438.675546 C518.939958,441.382271 513.619183,442.199717 509.591717,442.199717 L344.353354,442.199717 C340.11592,442.199717 334.757075,441.383501 334.757075,438.675546 L334.757075,434.879244" id="touchpad" stroke="#E5E5E5" stroke-width="2" fill="#F5F7FB" fill-rule="nonzero"></path>
            <ellipse id="webcam" stroke="#E5E5E5" stroke-width="2" cx="428.076402" cy="25.365641" rx="4.91154354" ry="4.91908232"></ellipse>
            <g id="Browser" transform="translate(118.000000, 48.000000)">
                <path d="M0,3.03341535 C0,1.35810629 1.34891834,0 3.01588803,0 L614.984112,0 C616.649741,0 618,1.36126587 618,3.03341535 L618,26 L0,26 L0,3.03341535 Z" id="rectangle" fill="url(#linearGradient-1)" fill-rule="nonzero"></path>
                <g id="Window-States" transform="translate(10.000000, 11.000000)" fill-rule="nonzero">
                    <ellipse id="close" fill="#FF6159" cx="3.957465" cy="3.924672" rx="3.88723958" ry="3.84669798"></ellipse>
                    <ellipse id="minimize" fill="#FFBD2E" cx="18.210677" cy="3.924672" rx="3.88723958" ry="3.84669798"></ellipse>
                    <ellipse id="maximize" fill="#28CE41" cx="32.463889" cy="3.924672" rx="3.88723958" ry="3.84669798"></ellipse>
                </g>
                <g id="Back" transform="translate(52.000000, 7.000000)" fill-rule="nonzero">
                    <rect id="rectangle" fill="#FFFFFF" x="0.897642" y="0.3073035" width="16.8447049" height="15.3867919" rx="4"></rect>
                    <rect id="rectangle" fill="#E8E8E8" transform="translate(9.286386, 6.011045) rotate(-45.000000) translate(-9.286386, -6.011045) " x="6.04701971" y="5.51104457" width="6.47873264" height="0.64111633" rx="0.320558165"></rect>
                    <rect id="rectangle" fill="#E8E8E8" transform="translate(9.260817, 10.116708) scale(1, -1) rotate(-45.000000) translate(-9.260817, -10.116708) " x="6.02145059" y="9.61670826" width="6.47873264" height="0.64111633" rx="0.320558165"></rect>
                </g>
                <g id="Forward" transform="translate(70.000000, 7.000000)" fill-rule="nonzero">
                    <rect id="rectangle" fill="#FFFFFF" transform="translate(8.744793, 8.000699) scale(-1, 1) translate(-8.744793, -8.000699) " x="0.3224401" y="0.3073035" width="16.8447049" height="15.3867919" rx="4"></rect>
                    <rect id="rectangle" fill="#E8E8E8" transform="translate(8.710619, 6.011045) scale(-1, 1) rotate(-45.000000) translate(-8.710619, -6.011045) " x="5.47125265" y="5.51104457" width="6.47873264" height="0.64111633" rx="0.320558165"></rect>
                    <rect id="rectangle" fill="#E8E8E8" transform="translate(8.736188, 10.116708) scale(-1, -1) rotate(-45.000000) translate(-8.736188, -10.116708) " x="5.49682177" y="9.61670826" width="6.47873264" height="0.64111633" rx="0.320558165"></rect>
                </g>
                <g id="Sidebar" transform="translate(94.000000, 7.000000)">
                    <rect id="rectangle" fill="#FFFFFF" fill-rule="nonzero" transform="translate(12.279405, 7.924672) scale(-1, 1) translate(-12.279405, -7.924672) " x="0.2937492" y="0.2312761" width="23.9713108" height="15.3867919" rx="4"></rect>
                    <g id="rectangle" transform="translate(7.000000, 4.000000)">
                        <g id="path-2-Clipped">
                            <mask id="mask-3" fill="white">
                                <use xlink:href="#path-2"></use>
                            </mask>
                            <g id="path-2"></g>
                            <rect id="path-2" stroke="#979797" stroke-width="2" mask="url(#mask-3)" x="0.420356" y="0.077974" width="9.71809896" height="7.69339595" rx="1"></rect>
                        </g>
                    </g>
                    <rect id="rectangle" fill="#979797" fill-rule="nonzero" x="10.659722" y="4.7190904" width="0.647873264" height="6.4111633"></rect>
                    <rect id="rectangle" fill="#979797" fill-rule="nonzero" x="8.716102" y="5.3602067" width="1.29574653" height="0.64111633"></rect>
                    <rect id="rectangle" fill="#979797" fill-rule="nonzero" x="8.716102" y="6.6424393" width="1.29574653" height="0.64111633"></rect>
                    <rect id="rectangle" fill="#979797" fill-rule="nonzero" x="8.716102" y="7.924672" width="1.29574653" height="0.64111633"></rect>
                </g>
                <g id="URL" transform="translate(171.000000, 6.000000)">
                    <rect id="rectangle" fill="#FFFFFF" fill-rule="nonzero" transform="translate(153.936632, 7.922540) scale(-1, 1) translate(-153.936632, -7.922540) " x="0.390669" y="0.2291439" width="307.091927" height="15.3867919" rx="4"></rect>
                    <path d="M26.898644,5.8165933 C26.118644,5.8165933 25.530644,6.2005933 25.302644,6.6565933 L25.302644,3.2725933 C25.302644,3.0565933 25.134644,2.8885933 24.918644,2.8885933 C24.702644,2.8885933 24.534644,3.0565933 24.534644,3.2725933 L24.534644,11.1445933 C24.534644,11.3605933 24.702644,11.5285933 24.918644,11.5285933 C25.134644,11.5285933 25.302644,11.3605933 25.302644,11.1445933 L25.302644,8.1805933 C25.302644,7.2205933 25.710644,6.5005933 26.898644,6.5005933 C28.062644,6.5005933 28.338644,7.1485933 28.338644,8.0965933 L28.338644,11.1445933 C28.338644,11.3605933 28.506644,11.5285933 28.722644,11.5285933 C28.938644,11.5285933 29.106644,11.3605933 29.106644,11.1445933 L29.106644,7.9405933 C29.106644,6.9205933 28.746644,5.8165933 26.898644,5.8165933 Z M30.846644,5.9845933 L30.378644,5.9845933 C30.174644,5.9845933 30.018644,6.1405933 30.018644,6.3445933 C30.018644,6.5485933 30.174644,6.7045933 30.378644,6.7045933 L30.846644,6.7045933 L30.846644,10.0165933 C30.846644,10.8925933 31.362644,11.5285933 32.310644,11.5285933 C32.514644,11.5285933 32.682644,11.3725933 32.682644,11.1685933 C32.682644,10.9645933 32.514644,10.8085933 32.310644,10.8085933 C31.902644,10.8085933 31.614644,10.5325933 31.614644,10.0165933 L31.614644,6.7045933 L32.394644,6.7045933 C32.598644,6.7045933 32.754644,6.5485933 32.754644,6.3445933 C32.754644,6.1405933 32.598644,5.9845933 32.394644,5.9845933 L31.614644,5.9845933 L31.614644,4.7245933 C31.614644,4.5205933 31.446644,4.3405933 31.230644,4.3405933 C31.026644,4.3405933 30.846644,4.5205933 30.846644,4.7245933 L30.846644,5.9845933 Z M34.194644,5.9845933 L33.726644,5.9845933 C33.522644,5.9845933 33.366644,6.1405933 33.366644,6.3445933 C33.366644,6.5485933 33.522644,6.7045933 33.726644,6.7045933 L34.194644,6.7045933 L34.194644,10.0165933 C34.194644,10.8925933 34.710644,11.5285933 35.658644,11.5285933 C35.862644,11.5285933 36.030644,11.3725933 36.030644,11.1685933 C36.030644,10.9645933 35.862644,10.8085933 35.658644,10.8085933 C35.250644,10.8085933 34.962644,10.5325933 34.962644,10.0165933 L34.962644,6.7045933 L35.742644,6.7045933 C35.946644,6.7045933 36.102644,6.5485933 36.102644,6.3445933 C36.102644,6.1405933 35.946644,5.9845933 35.742644,5.9845933 L34.962644,5.9845933 L34.962644,4.7245933 C34.962644,4.5205933 34.794644,4.3405933 34.578644,4.3405933 C34.374644,4.3405933 34.194644,4.5205933 34.194644,4.7245933 L34.194644,5.9845933 Z M37.626644,5.8885933 C37.830644,5.8885933 38.010644,6.0565933 38.010644,6.2725933 L38.010644,6.6565933 C38.238644,6.2485933 38.838644,5.8165933 39.642644,5.8165933 C41.202644,5.8165933 42.150644,6.7285933 42.150644,8.6965933 C42.150644,10.6645933 41.202644,11.5885933 39.642644,11.5885933 C38.838644,11.5885933 38.262644,11.1565933 38.010644,10.7485933 L38.010644,13.4605933 C38.010644,13.6645933 37.830644,13.8445933 37.626644,13.8445933 C37.422644,13.8445933 37.242644,13.6645933 37.242644,13.4605933 L37.242644,6.2725933 C37.242644,6.0565933 37.422644,5.8885933 37.626644,5.8885933 Z M37.986644,8.6965933 C37.986644,10.2445933 38.706644,10.8925933 39.642644,10.8925933 C40.746644,10.8925933 41.370644,10.1965933 41.370644,8.6965933 C41.370644,7.1965933 40.722644,6.5125933 39.618644,6.5125933 C38.730644,6.5125933 37.986644,7.1365933 37.986644,8.6965933 Z M45.054644,6.5605933 C45.678644,6.5605933 46.038644,6.7525933 46.362644,7.0645933 C46.458644,7.1605933 46.554644,7.1725933 46.614644,7.1725933 C46.806644,7.1725933 46.962644,7.0165933 46.962644,6.8245933 C46.962644,6.7165933 46.914644,6.6445933 46.878644,6.5965933 C46.506644,6.1045933 45.870644,5.8285933 45.054644,5.8285933 C44.034644,5.8285933 43.218644,6.2845933 43.218644,7.2805933 C43.218644,9.2485933 46.374644,8.7565933 46.374644,9.9925933 C46.374644,10.6165933 45.786644,10.8445933 45.102644,10.8445933 C44.430644,10.8445933 43.950644,10.6285933 43.578644,10.2565933 C43.482644,10.1605933 43.386644,10.1365933 43.314644,10.1365933 C43.122644,10.1365933 42.966644,10.2925933 42.966644,10.4845933 C42.966644,10.5685933 42.990644,10.6285933 43.050644,10.7125933 C43.362644,11.1085933 44.118644,11.5765933 45.102644,11.5765933 C46.242644,11.5765933 47.142644,11.0845933 47.142644,9.9925933 C47.142644,8.0725933 43.986644,8.5405933 43.986644,7.2805933 C43.986644,6.7285933 44.514644,6.5605933 45.054644,6.5605933 Z M48.618644,11.5285933 C48.966644,11.5285933 49.182644,11.3605933 49.182644,10.9645933 C49.182644,10.5685933 48.966644,10.3885933 48.618644,10.3885933 C48.270644,10.3885933 48.054644,10.5685933 48.054644,10.9645933 C48.054644,11.3605933 48.270644,11.5285933 48.618644,11.5285933 Z M48.618644,7.1005933 C48.966644,7.1005933 49.182644,6.9325933 49.182644,6.5365933 C49.182644,6.1405933 48.966644,5.9605933 48.618644,5.9605933 C48.270644,5.9605933 48.054644,6.1405933 48.054644,6.5365933 C48.054644,6.9325933 48.270644,7.1005933 48.618644,7.1005933 Z M50.070644,12.0445933 C50.046644,12.1165933 50.034644,12.1765933 50.034644,12.2245933 C50.034644,12.4405933 50.202644,12.6085933 50.418644,12.6085933 C50.574644,12.6085933 50.730644,12.5245933 50.790644,12.3325933 L53.958644,2.9845933 C53.982644,2.9125933 53.994644,2.8525933 53.994644,2.8045933 C53.994644,2.5885933 53.826644,2.4205933 53.610644,2.4205933 C53.454644,2.4205933 53.298644,2.5045933 53.238644,2.6965933 L50.070644,12.0445933 Z M54.954644,12.0445933 C54.930644,12.1165933 54.918644,12.1765933 54.918644,12.2245933 C54.918644,12.4405933 55.086644,12.6085933 55.302644,12.6085933 C55.458644,12.6085933 55.614644,12.5245933 55.674644,12.3325933 L58.842644,2.9845933 C58.866644,2.9125933 58.878644,2.8525933 58.878644,2.8045933 C58.878644,2.5885933 58.710644,2.4205933 58.494644,2.4205933 C58.338644,2.4205933 58.182644,2.5045933 58.122644,2.6965933 L54.954644,12.0445933 Z M64.290644,11.2525933 C64.338644,11.4205933 64.494644,11.5285933 64.662644,11.5285933 C64.830644,11.5285933 64.962644,11.4325933 65.022644,11.2765933 L66.786644,6.4405933 C66.810644,6.3805933 66.822644,6.3205933 66.822644,6.2725933 C66.822644,6.0565933 66.654644,5.8885933 66.438644,5.8885933 C66.270644,5.8885933 66.138644,5.9845933 66.078644,6.1405933 L64.686644,10.1125933 L63.546644,6.1405933 C63.510644,6.0205933 63.390644,5.8885933 63.186644,5.8885933 C62.982644,5.8885933 62.862644,6.0205933 62.826644,6.1405933 L61.686644,10.1125933 L60.294644,6.1405933 C60.234644,5.9845933 60.102644,5.8885933 59.934644,5.8885933 C59.718644,5.8885933 59.550644,6.0565933 59.550644,6.2725933 C59.550644,6.3205933 59.562644,6.3805933 59.586644,6.4405933 L61.350644,11.2765933 C61.410644,11.4325933 61.542644,11.5285933 61.710644,11.5285933 C61.878644,11.5285933 62.034644,11.4205933 62.082644,11.2525933 L63.186644,7.4485933 L64.290644,11.2525933 Z M71.970644,11.2525933 C72.018644,11.4205933 72.174644,11.5285933 72.342644,11.5285933 C72.510644,11.5285933 72.642644,11.4325933 72.702644,11.2765933 L74.466644,6.4405933 C74.490644,6.3805933 74.502644,6.3205933 74.502644,6.2725933 C74.502644,6.0565933 74.334644,5.8885933 74.118644,5.8885933 C73.950644,5.8885933 73.818644,5.9845933 73.758644,6.1405933 L72.366644,10.1125933 L71.226644,6.1405933 C71.190644,6.0205933 71.070644,5.8885933 70.866644,5.8885933 C70.662644,5.8885933 70.542644,6.0205933 70.506644,6.1405933 L69.366644,10.1125933 L67.974644,6.1405933 C67.914644,5.9845933 67.782644,5.8885933 67.614644,5.8885933 C67.398644,5.8885933 67.230644,6.0565933 67.230644,6.2725933 C67.230644,6.3205933 67.242644,6.3805933 67.266644,6.4405933 L69.030644,11.2765933 C69.090644,11.4325933 69.222644,11.5285933 69.390644,11.5285933 C69.558644,11.5285933 69.714644,11.4205933 69.762644,11.2525933 L70.866644,7.4485933 L71.970644,11.2525933 Z M79.650644,11.2525933 L78.546644,7.4485933 L77.442644,11.2525933 C77.394644,11.4205933 77.238644,11.5285933 77.070644,11.5285933 C76.902644,11.5285933 76.770644,11.4325933 76.710644,11.2765933 L74.946644,6.4405933 C74.922644,6.3805933 74.910644,6.3205933 74.910644,6.2725933 C74.910644,6.0565933 75.078644,5.8885933 75.294644,5.8885933 C75.462644,5.8885933 75.594644,5.9845933 75.654644,6.1405933 L77.046644,10.1125933 L78.186644,6.1405933 C78.222644,6.0205933 78.342644,5.8885933 78.546644,5.8885933 C78.750644,5.8885933 78.870644,6.0205933 78.906644,6.1405933 L80.046644,10.1125933 L81.438644,6.1405933 C81.498644,5.9845933 81.630644,5.8885933 81.798644,5.8885933 C82.014644,5.8885933 82.182644,6.0565933 82.182644,6.2725933 C82.182644,6.3205933 82.170644,6.3805933 82.146644,6.4405933 L80.382644,11.2765933 C80.322644,11.4325933 80.190644,11.5285933 80.022644,11.5285933 C79.854644,11.5285933 79.698644,11.4205933 79.650644,11.2525933 Z M82.506644,11.5285933 C82.158644,11.5285933 81.942644,11.3605933 81.942644,10.9645933 C81.942644,10.5685933 82.158644,10.3885933 82.506644,10.3885933 C82.854644,10.3885933 83.070644,10.5685933 83.070644,10.9645933 C83.070644,11.3605933 82.854644,11.5285933 82.506644,11.5285933 Z M86.610644,5.8165933 C85.830644,5.8165933 85.242644,6.2005933 85.014644,6.6565933 L85.014644,3.2725933 C85.014644,3.0565933 84.846644,2.8885933 84.630644,2.8885933 C84.414644,2.8885933 84.246644,3.0565933 84.246644,3.2725933 L84.246644,11.1445933 C84.246644,11.3605933 84.414644,11.5285933 84.630644,11.5285933 C84.846644,11.5285933 85.014644,11.3605933 85.014644,11.1445933 L85.014644,8.1805933 C85.014644,7.2205933 85.422644,6.5005933 86.610644,6.5005933 C87.774644,6.5005933 88.050644,7.1485933 88.050644,8.0965933 L88.050644,11.1445933 C88.050644,11.3605933 88.218644,11.5285933 88.434644,11.5285933 C88.650644,11.5285933 88.818644,11.3605933 88.818644,11.1445933 L88.818644,7.9405933 C88.818644,6.9205933 88.458644,5.8165933 86.610644,5.8165933 Z M89.898644,8.6965933 C89.898644,6.8485933 90.810644,5.8165933 92.370644,5.8165933 C94.290644,5.8165933 94.662644,7.3405933 94.662644,8.1565933 C94.662644,8.5045933 94.662644,8.9245933 94.182644,8.9245933 L90.678644,8.9245933 C90.678644,10.1125933 91.362644,10.8805933 92.490644,10.8805933 C93.186644,10.8805933 93.594644,10.6165933 93.930644,10.3645933 C94.002644,10.3165933 94.050644,10.2925933 94.146644,10.2925933 C94.338644,10.2925933 94.494644,10.4485933 94.494644,10.6405933 C94.494644,10.7725933 94.434644,10.8445933 94.362644,10.9165933 C94.182644,11.0965933 93.558644,11.5885933 92.490644,11.5885933 C90.894644,11.5885933 89.898644,10.7125933 89.898644,8.6965933 Z M93.906644,8.2525933 C93.906644,7.3885933 93.606644,6.5125933 92.370644,6.5125933 C91.326644,6.5125933 90.750644,7.1845933 90.678644,8.2525933 L93.906644,8.2525933 Z M96.234644,2.8885933 C96.030644,2.8885933 95.850644,3.0685933 95.850644,3.2725933 L95.850644,10.1245933 C95.850644,11.0485933 96.294644,11.5285933 97.098644,11.5285933 C97.290644,11.5285933 97.458644,11.3725933 97.458644,11.1685933 C97.458644,10.9645933 97.290644,10.8085933 97.098644,10.8085933 C96.774644,10.8085933 96.618644,10.6045933 96.618644,10.1245933 L96.618644,3.2725933 C96.618644,3.0685933 96.450644,2.8885933 96.234644,2.8885933 Z M98.862644,2.8885933 C98.658644,2.8885933 98.478644,3.0685933 98.478644,3.2725933 L98.478644,10.1245933 C98.478644,11.0485933 98.922644,11.5285933 99.726644,11.5285933 C99.918644,11.5285933 100.086644,11.3725933 100.086644,11.1685933 C100.086644,10.9645933 99.918644,10.8085933 99.726644,10.8085933 C99.402644,10.8085933 99.246644,10.6045933 99.246644,10.1245933 L99.246644,3.2725933 C99.246644,3.0685933 99.078644,2.8885933 98.862644,2.8885933 Z M103.266644,5.8165933 C104.826644,5.8165933 105.786644,6.7285933 105.786644,8.6965933 C105.786644,10.6645933 104.826644,11.5885933 103.266644,11.5885933 C101.718644,11.5885933 100.746644,10.6645933 100.746644,8.6965933 C100.746644,6.7285933 101.718644,5.8165933 103.266644,5.8165933 Z M103.266644,10.8925933 C104.370644,10.8925933 105.006644,10.2325933 105.006644,8.6965933 C105.006644,7.1845933 104.370644,6.5125933 103.266644,6.5125933 C102.162644,6.5125933 101.526644,7.1845933 101.526644,8.6965933 C101.526644,10.2325933 102.162644,10.8925933 103.266644,10.8925933 Z M110.730644,9.9205933 L110.730644,8.1925933 C110.730644,7.0525933 110.010644,6.5125933 109.110644,6.5125933 C108.006644,6.5125933 107.394644,7.2085933 107.394644,8.7085933 C107.394644,10.1845933 108.006644,10.8925933 109.110644,10.8925933 C110.238644,10.8925933 110.730644,9.9205933 110.730644,9.9205933 Z M109.050644,13.1245933 C110.034644,13.1245933 110.730644,12.6325933 110.730644,11.5405933 L110.730644,10.8565933 C110.442644,11.2285933 109.890644,11.5885933 109.110644,11.5885933 C107.550644,11.5885933 106.626644,10.6765933 106.626644,8.7085933 C106.626644,6.7405933 107.550644,5.8165933 109.110644,5.8165933 C110.478644,5.8165933 111.510644,6.6085933 111.510644,8.1925933 L111.510644,11.5405933 C111.510644,13.1725933 110.394644,13.8445933 109.050644,13.8445933 C108.114644,13.8445933 107.442644,13.4965933 107.046644,13.0165933 C107.010644,12.9685933 106.974644,12.8965933 106.974644,12.8005933 C106.974644,12.5965933 107.142644,12.4285933 107.346644,12.4285933 C107.442644,12.4285933 107.526644,12.4525933 107.634644,12.5605933 C107.910644,12.8365933 108.294644,13.1245933 109.050644,13.1245933 Z M113.190644,5.8885933 C112.974644,5.8885933 112.806644,6.0565933 112.806644,6.2725933 L112.806644,9.4045933 C112.806644,10.5445933 113.190644,11.5885933 115.038644,11.5885933 C116.898644,11.5885933 117.270644,10.5445933 117.270644,9.4045933 L117.270644,6.2725933 C117.270644,6.0565933 117.102644,5.8885933 116.898644,5.8885933 C116.682644,5.8885933 116.502644,6.0565933 116.502644,6.2725933 L116.502644,9.4045933 C116.502644,10.1845933 116.250644,10.8565933 115.038644,10.8565933 C113.826644,10.8565933 113.574644,10.1845933 113.574644,9.4045933 L113.574644,6.2725933 C113.574644,6.0565933 113.394644,5.8885933 113.190644,5.8885933 Z M120.414644,6.5605933 C121.038644,6.5605933 121.398644,6.7525933 121.722644,7.0645933 C121.818644,7.1605933 121.914644,7.1725933 121.974644,7.1725933 C122.166644,7.1725933 122.322644,7.0165933 122.322644,6.8245933 C122.322644,6.7165933 122.274644,6.6445933 122.238644,6.5965933 C121.866644,6.1045933 121.230644,5.8285933 120.414644,5.8285933 C119.394644,5.8285933 118.578644,6.2845933 118.578644,7.2805933 C118.578644,9.2485933 121.734644,8.7565933 121.734644,9.9925933 C121.734644,10.6165933 121.146644,10.8445933 120.462644,10.8445933 C119.790644,10.8445933 119.310644,10.6285933 118.938644,10.2565933 C118.842644,10.1605933 118.746644,10.1365933 118.674644,10.1365933 C118.482644,10.1365933 118.326644,10.2925933 118.326644,10.4845933 C118.326644,10.5685933 118.350644,10.6285933 118.410644,10.7125933 C118.722644,11.1085933 119.478644,11.5765933 120.462644,11.5765933 C121.602644,11.5765933 122.502644,11.0845933 122.502644,9.9925933 C122.502644,8.0725933 119.346644,8.5405933 119.346644,7.2805933 C119.346644,6.7285933 119.874644,6.5605933 120.414644,6.5605933 Z M124.098644,5.9845933 L123.630644,5.9845933 C123.426644,5.9845933 123.270644,6.1405933 123.270644,6.3445933 C123.270644,6.5485933 123.426644,6.7045933 123.630644,6.7045933 L124.098644,6.7045933 L124.098644,10.0165933 C124.098644,10.8925933 124.614644,11.5285933 125.562644,11.5285933 C125.766644,11.5285933 125.934644,11.3725933 125.934644,11.1685933 C125.934644,10.9645933 125.766644,10.8085933 125.562644,10.8085933 C125.154644,10.8085933 124.866644,10.5325933 124.866644,10.0165933 L124.866644,6.7045933 L125.646644,6.7045933 C125.850644,6.7045933 126.006644,6.5485933 126.006644,6.3445933 C126.006644,6.1405933 125.850644,5.9845933 125.646644,5.9845933 L124.866644,5.9845933 L124.866644,4.7245933 C124.866644,4.5205933 124.698644,4.3405933 124.482644,4.3405933 C124.278644,4.3405933 124.098644,4.5205933 124.098644,4.7245933 L124.098644,5.9845933 Z M129.150644,6.5365933 C128.514644,6.5365933 128.130644,6.7285933 127.758644,7.1485933 C127.638644,7.2805933 127.554644,7.3165933 127.446644,7.3165933 C127.254644,7.3165933 127.098644,7.1605933 127.098644,6.9685933 C127.098644,6.8845933 127.122644,6.8245933 127.158644,6.7645933 C127.494644,6.2365933 128.142644,5.8165933 129.150644,5.8165933 C130.542644,5.8165933 131.310644,6.6325933 131.310644,7.8565933 L131.310644,11.1565933 C131.310644,11.3605933 131.142644,11.5285933 130.938644,11.5285933 C130.734644,11.5285933 130.566644,11.3605933 130.566644,11.1565933 L130.566644,10.7245933 C130.266644,11.2885933 129.570644,11.5885933 128.850644,11.5885933 C127.578644,11.5885933 126.774644,10.9765933 126.774644,9.8725933 C126.774644,8.8165933 127.578644,8.1805933 128.874644,8.1805933 L130.566644,8.1805933 L130.566644,7.8565933 C130.566644,7.0405933 130.026644,6.5365933 129.150644,6.5365933 Z M128.922644,10.8925933 C129.762644,10.8925933 130.566644,10.3765933 130.566644,9.3565933 L130.566644,8.8525933 L128.874644,8.8525933 C128.094644,8.8525933 127.554644,9.1765933 127.554644,9.8725933 C127.554644,10.4965933 127.986644,10.8925933 128.922644,10.8925933 Z M134.478644,11.5285933 C134.322644,11.5285933 134.190644,11.4445933 134.118644,11.2885933 L132.078644,6.4405933 C132.066644,6.4045933 132.042644,6.3565933 132.042644,6.2725933 C132.042644,6.0565933 132.210644,5.8885933 132.426644,5.8885933 C132.642644,5.8885933 132.738644,6.0205933 132.786644,6.1405933 L134.478644,10.2805933 L136.170644,6.1405933 C136.218644,6.0205933 136.314644,5.8885933 136.530644,5.8885933 C136.746644,5.8885933 136.914644,6.0565933 136.914644,6.2725933 C136.914644,6.3565933 136.890644,6.4045933 136.878644,6.4405933 L134.838644,11.2885933 C134.766644,11.4445933 134.634644,11.5285933 134.478644,11.5285933 Z M137.226644,11.5285933 C136.878644,11.5285933 136.662644,11.3605933 136.662644,10.9645933 C136.662644,10.5685933 136.878644,10.3885933 137.226644,10.3885933 C137.574644,10.3885933 137.790644,10.5685933 137.790644,10.9645933 C137.790644,11.3605933 137.574644,11.5285933 137.226644,11.5285933 Z M138.606644,8.6965933 C138.606644,10.6645933 139.530644,11.5885933 141.078644,11.5885933 C142.050644,11.5885933 142.626644,11.1565933 142.890644,10.9405933 C143.010644,10.8325933 143.046644,10.7485933 143.046644,10.6405933 C143.046644,10.4485933 142.890644,10.2925933 142.698644,10.2925933 C142.614644,10.2925933 142.554644,10.3165933 142.470644,10.3765933 C142.194644,10.5805933 141.774644,10.8925933 141.078644,10.8925933 C139.974644,10.8925933 139.386644,10.1965933 139.386644,8.6965933 C139.386644,7.2205933 139.974644,6.5125933 141.078644,6.5125933 C141.870644,6.5125933 142.194644,6.8725933 142.374644,7.0765933 C142.458644,7.1725933 142.542644,7.2205933 142.662644,7.2205933 C142.854644,7.2205933 143.010644,7.0765933 143.010644,6.8725933 C143.010644,6.7885933 142.986644,6.7285933 142.926644,6.6445933 C142.734644,6.3805933 142.146644,5.8165933 141.078644,5.8165933 C139.530644,5.8165933 138.606644,6.7285933 138.606644,8.6965933 Z M146.418644,5.8165933 C147.978644,5.8165933 148.938644,6.7285933 148.938644,8.6965933 C148.938644,10.6645933 147.978644,11.5885933 146.418644,11.5885933 C144.870644,11.5885933 143.898644,10.6645933 143.898644,8.6965933 C143.898644,6.7285933 144.870644,5.8165933 146.418644,5.8165933 Z M146.418644,10.8925933 C147.522644,10.8925933 148.158644,10.2325933 148.158644,8.6965933 C148.158644,7.1845933 147.522644,6.5125933 146.418644,6.5125933 C145.314644,6.5125933 144.678644,7.1845933 144.678644,8.6965933 C144.678644,10.2325933 145.314644,10.8925933 146.418644,10.8925933 Z M156.126644,5.8165933 C155.202644,5.8165933 154.674644,6.1885933 154.374644,6.6565933 C154.086644,6.1765933 153.450644,5.8165933 152.466644,5.8165933 C151.686644,5.8165933 151.110644,6.2125933 150.906644,6.6565933 L150.906644,6.2725933 C150.906644,6.0565933 150.738644,5.8885933 150.522644,5.8885933 C150.306644,5.8885933 150.138644,6.0565933 150.138644,6.2725933 L150.138644,11.1445933 C150.138644,11.3605933 150.306644,11.5285933 150.522644,11.5285933 C150.738644,11.5285933 150.906644,11.3605933 150.906644,11.1445933 L150.906644,8.1805933 C150.906644,7.1725933 151.266644,6.5005933 152.382644,6.5005933 C153.558644,6.5005933 153.858644,7.1485933 153.858644,8.0965933 L153.858644,11.1445933 C153.858644,11.3605933 154.026644,11.5285933 154.242644,11.5285933 C154.458644,11.5285933 154.626644,11.3605933 154.626644,11.1445933 L154.626644,7.9405933 C154.626644,7.0525933 155.094644,6.5005933 156.126644,6.5005933 C157.290644,6.5005933 157.626644,7.1485933 157.626644,8.0965933 L157.626644,11.1445933 C157.626644,11.3605933 157.794644,11.5285933 158.010644,11.5285933 C158.226644,11.5285933 158.394644,11.3605933 158.394644,11.1445933 L158.394644,7.9405933 C158.394644,6.9205933 157.974644,5.8165933 156.126644,5.8165933 Z" id="https://www.hellogustav.com" fill="#000000"></path>
                </g>
                <g id="Refresh" transform="translate(464.000000, 10.000000)">
                    <g id="oval" transform="translate(-0.000000, 1.000000)">
                        <g id="path-4-Clipped">
                            <mask id="mask-5" fill="white">
                                <use xlink:href="#path-4"></use>
                            </mask>
                            <g id="Rectangle-path"></g>
                            <path d="M4.473603,1.0277011 C2.845206,1.0277011 1.52513,2.3385169 1.52513,3.9554901 C1.52513,5.5724632 2.845206,6.883279 4.473603,6.883279 C6.102,6.883279 7.422076,5.5724632 7.422076,3.9554901" id="path-4" stroke="#979797" stroke-width="2" mask="url(#mask-5)"></path>
                            <mask id="mask-7" fill="white">
                                <use xlink:href="#path-6"></use>
                            </mask>
                            <g id="path-4"></g>
                        </g>
                    </g>
                    <polygon id="triangle" fill="#979797" fill-rule="nonzero" points="4.145995 3.3289407 4.145995 0.0758418 6.76686 1.7023912"></polygon>
                </g>
                <g id="Favicon" transform="translate(174.000000, 8.000000)">
                    <rect id="Rectangle-2" fill="#0AAFC4" fill-rule="nonzero" x="1.390668" y="0.2334082" width="12" height="12.0255864" rx="3"></rect>
                    <g id="Fill-8-Clipped" transform="translate(-0.000000, 2.000000)">
                        <mask id="mask-9" fill="white">
                            <use xlink:href="#path-8"></use>
                        </mask>
                        <g id="path-6"></g>
                        <path d="M4.889607,4.3087842 C4.811517,3.2942876 5.367191,1.5551736 6.613539,0.9289131 C7.226348,0.6210819 8.229101,0.4672474 9.52736,1.4825551 C9.745281,1.6530437 9.778427,1.9613075 9.601292,2.1710524 C9.42427,2.3808513 9.103989,2.4126455 8.885899,2.242265 C8.188202,1.6965716 7.582303,1.5465762 7.084326,1.7966587 C6.280225,2.2007378 5.848146,3.5116024 5.903876,4.2365982 C5.989831,5.3528581 6.582191,6.656423 7.968876,6.656423 C8.787921,6.656423 9.028708,5.6858869 9.099326,5.1341374 C8.71264,5.0444862 8.18927,4.9418037 7.86118,4.9418037 C7.580281,4.9418037 7.35264,4.7226504 7.35264,4.452291 C7.35264,4.1819856 7.580281,3.9628323 7.86118,3.9628323 C8.558146,3.9628323 9.654157,4.2587677 9.776854,4.2924545 C9.995169,4.3525824 10.14573,4.5446457 10.14573,4.7630961 C10.14573,5.7566129 9.690787,7.6353945 7.968876,7.6353945 C6.018539,7.6353945 5.016966,5.9646274 4.889607,4.3087842 Z" id="Fill-8" fill="#FFFFFF" fill-rule="nonzero" mask="url(#mask-9)"></path>
                    </g>
                </g>
            </g>
        </g>
    </g>
</svg>