<?xml version="1.0" encoding="UTF-8"?>
<svg width="54px" height="57px" viewBox="0 0 54 57" version="1.1" xmlns="http://www.w3.org/2000/svg" xmlns:xlink="http://www.w3.org/1999/xlink">
    <!-- Generator: Sketch 42 (36781) - http://www.bohemiancoding.com/sketch -->
    <title>Ebene_1</title>
    <desc>Created with Sketch.</desc>
    <defs></defs>
    <g id="Page-1" stroke="none" stroke-width="1" fill="none" fill-rule="evenodd">
        <g id="element/footer" transform="translate(-114.000000, -262.000000)" fill-rule="nonzero">
            <g id="Group-2" transform="translate(114.000000, 60.000000)">
                <g id="Ebene_1" transform="translate(0.000000, 202.377002)">
                    <g id="Group" transform="translate(0.000000, 6.877193)">
                        <path d="M35.4575342,13.7052632 C34.7424658,12.9929825 33.5835616,12.9929825 32.8931507,13.7052632 L0.739726027,45.9789474 C0.0246575342,46.6912281 0.0246575342,47.845614 0.739726027,48.5578947 C1.08493151,48.9263158 1.55342466,49.0982456 2.02191781,49.0982456 C2.49041096,49.0982456 2.95890411,48.9263158 3.30410959,48.5578947 L35.4328767,16.2842105 C36.1726027,15.5719298 36.1726027,14.4175439 35.4575342,13.7052632" id="Shape" fill="#DBDBDB"></path>
                        <path d="M48.6246575,17.1684211 L44.4082192,11.4947368 L46.6767123,4.78947368 C46.8986301,4.12631579 46.7260274,3.38947368 46.2328767,2.89824561 C45.739726,2.40701754 45.0246575,2.23508772 44.3589041,2.45614035 L37.6767123,4.74035088 L32.030137,0.49122807 C31.4630137,0.0736842105 30.7232877,-5.49990609e-12 30.1068493,0.319298246 C29.490411,0.638596491 29.0958904,1.27719298 29.1205479,1.96491228 L29.2191781,9.03859649 L23.4493151,13.1403509 C22.8821918,13.5333333 22.5863014,14.2210526 22.709589,14.9087719 C22.8082192,15.5964912 23.3013699,16.1614035 23.9671233,16.3824561 L30.6986301,18.4947368 L32.7945205,25.2491228 C32.9917808,25.9122807 33.5589041,26.4035088 34.2493151,26.5017544 C34.3479452,26.5263158 34.4465753,26.5263158 34.5452055,26.5263158 C35.1369863,26.5263158 35.6794521,26.2315789 36.0246575,25.7649123 L40.0931507,19.9684211 L47.1452055,20.0666667 C47.8356164,20.0666667 48.4767123,19.6982456 48.7972603,19.0596491 C49.0931507,18.4701754 49.0438356,17.7087719 48.6246575,17.1684211" id="Shape" fill="#FBBA43"></path>
                    </g>
                    <polygon id="Shape" fill="#FBBA43" points="16.5945205 4.71578947 18.0493151 7.36842105 20.7123288 8.84210526 18.0493151 10.2912281 16.5945205 12.9684211 15.139726 10.2912281 12.4767123 8.84210526 15.139726 7.36842105"></polygon>
                    <polygon id="Shape" fill="#FBBA43" points="37.5041096 39.8877193 38.6876712 42.0491228 40.8328767 43.2280702 38.6876712 44.4070175 37.5041096 46.5684211 36.3205479 44.4070175 34.1753425 43.2280702 36.3205479 42.0491228"></polygon>
                    <polygon id="Shape" fill="#FBBA43" points="39.1561644 0.0245614035 37.9726027 2.18596491 35.8273973 3.36491228 37.9726027 4.54385965 39.1561644 6.70526316 40.339726 4.54385965 42.4849315 3.36491228 40.339726 2.18596491"></polygon>
                    <polygon id="Shape" fill="#FBBA43" points="51.1643836 15.5964912 49.8821918 16.3087719 51.1643836 17.0210526 51.8794521 18.2982456 52.569863 17.0210526 53.8520548 16.3087719 52.569863 15.5964912 51.8794521 14.3192982"></polygon>
                    <polygon id="Shape" fill="#FBBA43" points="52.7917808 32.1754386 51.9287671 35.0982456 52.7917808 38.0210526 49.8821918 37.1614035 46.9726027 38.0210526 47.8109589 35.0982456 46.9726027 32.1754386 49.8821918 33.0350877"></polygon>
                </g>
            </g>
        </g>
    </g>
</svg>