<?xml version="1.0" encoding="UTF-8"?>
<svg width="142px" height="284px" viewBox="0 0 142 284" version="1.1" xmlns="http://www.w3.org/2000/svg" xmlns:xlink="http://www.w3.org/1999/xlink">
    <!-- Generator: Sketch 42 (36781) - http://www.bohemiancoding.com/sketch -->
    <title>_GG</title>
    <desc>Created with Sketch.</desc>
    <defs></defs>
    <g id="Page-1" stroke="none" stroke-width="1" fill="none" fill-rule="evenodd">
        <g id="element/signup" transform="translate(-163.000000, -245.000000)" fill-rule="nonzero">
            <g id="_GG" transform="translate(163.000000, 245.000000)">
                <g id="Ebene_1">
                    <path d="M0,87.0084906 L0,52.0443396 C0,35.2990566 15.740566,21.5679245 34.9641509,21.5679245 L88.6160377,21.5679245 L88.6160377,86.9415094 L0,86.9415094 L0,87.0084906 Z" id="Shape" fill="#EA4E51"></path>
                    <path d="M65.1056604,87.0084906 L65.1056604,44.2075472 C65.1056604,31.8160377 76.7603774,21.6349057 91.0273585,21.6349057 L92.8358491,21.6349057 C107.10283,21.6349057 118.757547,31.8160377 118.757547,44.2075472 L118.757547,87.0084906 L65.1056604,87.0084906 Z" id="Shape" fill="#BD4141"></path>
                    <rect id="Rectangle-path" fill="#EA4E51" x="65.1056604" y="80.3773585" width="76.559434" height="6.63113208"></rect>
                    <rect id="Rectangle-path" fill="#DDD1C3" x="27.395283" y="87.0084906" width="16.8792453" height="196.723585"></rect>
                    <ellipse id="Oval" fill="#BD4141" cx="44.0066038" cy="53.8528302" rx="6.02830189" ry="6.02830189"></ellipse>
                    <path d="M45.8150943,3.21509434 L45.8150943,54.4556604 C45.8150943,56.3981132 42.8009434,56.3981132 42.8009434,54.4556604 L42.8009434,3.21509434 C42.8009434,1.27264151 45.8150943,1.27264151 45.8150943,3.21509434 L45.8150943,3.21509434 Z" id="Shape" fill="#41475D"></path>
                    <path d="M40.2556604,9.98018868 C40.2556604,11.654717 41.595283,12.9943396 43.2698113,12.9943396 L59.1443396,12.9943396 C60.8188679,12.9943396 61.1537736,12.1235849 59.8811321,10.9849057 L57.5367925,8.90849057 C56.3311321,7.83679245 56.2641509,5.96132075 57.4698113,4.82264151 L60.0150943,2.41132075 C61.2207547,1.27264151 60.8188679,0.33490566 59.1443396,0.33490566 L43.2698113,0.33490566 C41.595283,0.33490566 40.2556604,1.6745283 40.2556604,3.3490566 L40.2556604,9.98018868 Z" id="Shape" fill="#FBBA44"></path>
                    <g id="Group" transform="translate(50.235849, 46.886792)">
                        <polygon id="Shape" fill="#EDEDED" points="62.4264151 31.3471698 58.8764151 6.83207547 0.33490566 29.940566"></polygon>
                        <polygon id="Shape" fill="#FFFFFF" points="47.8915094 0 58.8764151 6.83207547 0.33490566 29.940566"></polygon>
                        <polygon id="Shape" fill="#E3E3E3" points="62.4264151 31.3471698 64.2349057 10.1811321 0.33490566 29.940566"></polygon>
                        <polygon id="Shape" fill="#FFFFFF" points="82.9226415 21.7688679 64.2349057 10.1811321 0.33490566 29.940566"></polygon>
                    </g>
                    <polygon id="Shape" fill="#EA4E51" points="65.0386792 49.7 65.0386792 77.7650943 40.9924528 77.7650943 41.1264151 67.8518868"></polygon>
                </g>
            </g>
        </g>
    </g>
</svg>