<svg xmlns="http://www.w3.org/2000/svg" width="313" height="369" viewBox="0 0 313 369">
  <g fill="none">
    <g transform="translate(188.133)">
      <ellipse cx="62.667" cy="298.369" fill="#F8F7F7" rx="61.96" ry="22.338"/>
      <path fill="#424143" d="M96.4488491,47.8666667 C96.4488491,66.8537778 80.998977,81.6126667 62.0268542,82.1711111 C42.7345269,82.8093333 26.9644501,67.7313333 27.6048593,47.8666667 C28.1652174,28.8795556 43.0547315,13.5622222 62.0268542,13.5622222 C80.998977,13.5622222 96.4488491,28.8795556 96.4488491,47.8666667 Z"/>
      <ellipse cx="61.947" cy="51.856" fill="#CB7B3C" rx="33.942" ry="33.826"/>
      <ellipse cx="43.695" cy="54.249" fill="#1E1E1C" rx="2.642" ry="2.633"/>
      <ellipse cx="80.679" cy="54.249" fill="#1E1E1C" rx="2.642" ry="2.633"/>
      <path fill="#AF6D40" d="M68.6710997,18.7477778 C78.5173913,24.6513333 85.1616368,35.4213333 85.1616368,47.7071111 C85.1616368,66.3751111 69.9519182,81.5328889 51.2199488,81.5328889 C48.8984655,81.5328889 46.6570332,81.2935556 44.4956522,80.8946667 C49.6189258,83.9262222 55.542711,85.7611111 61.9468031,85.7611111 C80.6787724,85.7611111 95.888491,70.6033333 95.888491,51.9353333 C95.888491,35.5011111 84.201023,21.8591111 68.6710997,18.7477778 Z"/>
      <ellipse cx="29.766" cy="58.876" fill="#CB7B3C" rx="9.046" ry="9.015"/>
      <ellipse cx="94.848" cy="58.876" fill="#AF6D40" rx="9.046" ry="9.015"/>
      <path fill="#EAA789" d="M62.0268542,72.0393333 C54.4219949,72.0393333 51.7803069,68.21 51.7002558,68.0504444 C51.4601023,67.6515556 51.5401535,67.1728889 51.9404092,66.9335556 C52.340665,66.6942222 52.8209719,66.774 53.0611253,67.1728889 C53.1411765,67.3324444 55.4626598,70.4437778 62.1069054,70.4437778 C68.7511509,70.4437778 71.0726343,67.3324444 71.1526854,67.2526667 C71.3928389,66.9335556 71.8731458,66.774 72.2734015,67.0931111 C72.5936061,67.3324444 72.7537084,67.8111111 72.513555,68.21 C72.2734015,68.2897778 69.6317136,72.0393333 62.0268542,72.0393333 Z"/>
      <path fill="#2E2E2E" d="M29.6861893,59.9928889 C29.6861893,59.9928889 26.5641944,39.6495556 34.9695652,36.0595556 C34.9695652,36.0595556 39.2122762,33.3471111 46.4969309,32.9482222 C49.3787724,32.7886667 52.340665,33.1077778 55.1424552,33.8257778 C57.7841432,34.464 62.5872123,35.182 67.5503836,33.9055556 C68.4309463,33.6662222 69.2314578,33.2673333 70.0319693,33.028 C73.7143223,31.9111111 80.8388747,32.2302222 86.7626598,34.3842222 C88.6038363,35.1022222 90.2048593,36.3786667 91.1654731,38.1337778 C92.8465473,41.2451111 94.8478261,47.5475556 94.2074169,59.4344444 C94.2074169,59.4344444 100.771611,46.2711111 91.5657289,30.156 C91.5657289,30.156 94.3675192,25.848 91.4856777,19.1466667 C90.044757,15.7162222 87.3230179,12.924 84.1209719,11.0891111 C80.1984655,8.85533333 74.1946292,4.62711111 74.9951407,0.239333333 C74.9951407,0.239333333 72.2734015,5.42488889 57.4639386,5.90355556 L54.4219949,5.90355556 C50.8997442,5.82377778 37.1309463,6.462 29.9263427,19.9444444 C28.8056266,22.0186667 28.3253197,24.3322222 28.7255754,26.6457778 C29.0457801,28.3211111 29.8462916,30.156 31.7675192,31.4324444 C31.7675192,31.592 23.3621483,39.6495556 29.6861893,59.9928889 Z"/>
      <path fill="#1C405F" d="M87.9634271,178.861778 C87.9634271,193.221778 76.2759591,204.789556 62.5872123,204.789556 C48.8984655,204.789556 37.2109974,193.221778 37.2109974,178.861778 C37.2109974,164.501778 48.8984655,152.934 62.5872123,152.934 C76.2759591,153.013778 87.9634271,164.581556 87.9634271,178.861778 Z"/>
      <path fill="#1C405F" d="M37.8514066,186.520444 L37.6112532,240.290667 C46.3368286,240.370444 51.0598465,240.370444 56.9836317,240.450222 L57.143734,186.520444 L37.8514066,186.520444 L37.8514066,186.520444 Z"/>
      <path fill="#183446" d="M68.0306905,185.323778 L68.0306905,241.487333 C74.6749361,241.168222 81.0790281,240.210889 87.4030691,238.695111 L87.4030691,185.403556 L68.0306905,185.403556 L68.0306905,185.323778 Z"/>
      <path fill="#183446" d="M32.0204604,0.638222222 C29.7790281,12.5251111 19.7726343,21.6995556 7.84501279,21.6995556 C5.12327366,21.6995556 2.40153453,21.1411111 0,20.3433333 C4.32276215,24.3322222 10.0063939,26.7255556 16.2503836,26.7255556 C29.9391304,26.7255556 40.9061381,14.9184444 40.9061381,0.638222222 L40.9061381,0.638222222" transform="translate(46.417 178.702)"/>
      <path fill="#1C405F" d="M63.7879795,198.407333 C63.7879795,198.407333 75.6355499,193.86 78.357289,179.579778 L61.6265985,179.579778 L61.6265985,185.563111 L56.3432225,193.062222 L63.7879795,198.407333 Z"/>
      <polygon fill="#1C405F" points="37.691 284.009 57.064 284.009 57.064 239.094 37.691 239.094"/>
      <polygon fill="#183446" points="69.231 284.009 68.031 284.009 68.031 231.356 87.403 231.356 87.403 284.009"/>
      <path fill="#EEEDED" d="M96.6089514,127.883778 C96.6089514,147.668667 81.3992327,172.798667 62.5872123,172.798667 C43.7751918,172.798667 28.5654731,147.588889 28.5654731,127.883778 C28.5654731,108.178667 43.7751918,91.4253333 62.5872123,91.4253333 C81.3992327,91.4253333 96.6089514,108.098889 96.6089514,127.883778 Z"/>
      <path fill="#DADADA" d="M64.588491,91.5051111 L64.588491,172.718889 C82.4398977,171.681778 96.6089514,146.950667 96.6089514,127.804 C96.6089514,108.816889 82.4398977,92.622 64.588491,91.5051111 Z"/>
      <path fill="#EEEDED" d="M92.7664962,130.995111 C86.3624041,130.995111 81.0790281,124.852222 81.0790281,118.071111 L81.0790281,117.592444 L81.0790281,97.1693333 C75.7956522,93.4995556 69.3915601,91.4253333 62.6672634,91.4253333 C55.9429668,91.4253333 49.698977,93.4995556 44.4956522,97.0097778 L44.4956522,117.592444 L44.4956522,118.071111 C44.4956522,124.852222 39.2923274,130.995111 32.8081841,130.995111 C31.3672634,130.995111 30.0063939,130.755778 28.7255754,130.197333 C29.9263427,148.865333 44.5757033,172.798667 62.6672634,172.798667 C80.6787724,172.798667 95.328133,148.945111 96.6089514,130.277111 C95.328133,130.755778 94.0473146,130.995111 92.7664962,130.995111 Z"/>
      <rect width="53.794" height="53.451" x="35.69" y="130.676" fill="#EEEDED"/>
      <polygon fill="#CB7B3C" points="38.172 192.504 28.646 192.504 28.646 128.123 38.172 127.964"/>
      <ellipse cx="35.13" cy="191.866" fill="#CB7B3C" rx="6.484" ry="6.622"/>
      <polygon fill="#030304" points="69.231 301.4 84.121 301.4 85.962 286.642 69.231 286.642"/>
      <path fill="#030304" d="M99.2506394,301.400444 C99.2506394,294.619333 93.8071611,289.593333 86.842711,289.034889 C64.1081841,287.040444 74.4347826,294.539556 74.4347826,301.400444 L99.2506394,301.400444 Z"/>
      <polygon fill="#030304" points="56.343 301.4 44.736 301.4 39.613 286.642 56.343 286.642"/>
      <path fill="#030304" d="M25.9237852 301.400444C25.9237852 294.619333 31.4473146 289.034889 38.3317136 289.034889 61.1462916 289.034889 50.7396419 294.539556 50.7396419 301.400444L25.9237852 301.400444zM75.3953964 301.400444C75.3953964 294.619333 80.7588235 289.034889 87.3230179 289.034889 93.8872123 289.034889 99.2506394 294.539556 99.2506394 301.400444"/>
      <path fill="#030304" d="M49.8590793,301.400444 C49.8590793,294.619333 44.4956522,289.034889 37.9314578,289.034889 C31.3672634,289.034889 26.0038363,294.539556 26.0038363,301.400444"/>
      <ellipse cx="90.125" cy="191.866" fill="#AF6D40" rx="6.484" ry="6.462"/>
      <path fill="#DADADA" d="M78.4373402,184.206889 L78.4373402,175.351556 L78.4373402,119.666667 C78.4373402,111.369778 71.6329923,99.3233333 64.9887468,95.0951111 C66.3496164,93.7388889 65.4690537,93.9782222 66.9900256,93.8984444 L67.7104859,91.904 C72.6736573,92.622 77.7168798,94.9355556 80.998977,97.2491111 L80.998977,115.996889 L80.998977,116.475556 C80.998977,122.778 86.2023018,128.522 92.686445,128.522 C93.9672634,128.522 95.328133,128.282667 96.5289003,127.883778 C96.0485934,134.585111 93.4869565,149.982222 89.484399,155.008222 L89.484399,184.206889 L78.9176471,184.206889"/>
      <polygon fill="#AF6D40" points="87.083 127.964 96.129 127.964 96.689 191.786 87.083 191.786"/>
      <path fill="#183446" d="M37.2109974,284.008889 L57.4639386,284.008889 C57.6240409,284.008889 57.7841432,284.248222 57.7841432,284.567333 L57.7841432,286.083111 C57.7841432,286.322444 57.6240409,286.641556 57.4639386,286.641556 L37.2109974,286.641556 C37.0508951,286.641556 36.8907928,286.402222 36.8907928,286.083111 L36.8907928,284.567333 C36.8107417,284.328 37.0508951,284.008889 37.2109974,284.008889 Z"/>
      <path fill="#17212C" d="M67.7104859,284.008889 L87.9634271,284.008889 C88.1235294,284.008889 88.2836317,284.248222 88.2836317,284.567333 L88.2836317,286.083111 C88.2836317,286.322444 88.1235294,286.641556 87.9634271,286.641556 L67.7104859,286.641556 C67.5503836,286.641556 67.3902813,286.402222 67.3902813,286.083111 L67.3902813,284.567333 C67.3102302,284.328 67.4703325,284.008889 67.7104859,284.008889 Z"/>
      <path fill="#AF6D40" d="M70.0319693,84.4048889 L70.0319693,91.2657778 C70.0319693,94.2973333 66.5897698,96.7704444 62.5071611,96.7704444 C58.4245524,96.7704444 54.9823529,94.3771111 54.9823529,91.2657778 L54.9823529,84.8835556 L70.0319693,84.4048889 Z"/>
      <polygon fill="#1C405F" points="62.507 191.068 58.825 187.478 62.507 179.021 66.109 187.478"/>
      <polygon fill="#EEEDED" points="38.172 181.734 28.646 181.734 28.646 127.644 38.172 127.565"/>
      <polygon fill="#DADADA" points="38.252 181.734 37.531 181.734 37.531 127.644 38.252 127.565"/>
      <polygon fill="#DADADA" points="87.083 127.724 96.609 127.804 96.689 181.893 87.083 181.893"/>
      <rect width="1" height="53.93" x="87.083" y="127.964" fill="#C7C6C6"/>
      <polygon fill="#EA4D51" points="62.267 103.552 58.184 100.759 62.267 96.611 66.51 100.759"/>
      <path fill="#C7C6C6" d="M77.2365729,94.1377778 L70.5122762,89.9095556 L62.3470588,96.7704444 L66.4296675,101.636889 C66.5897698,102.195333 67.3102302,102.275111 67.7104859,101.796444 L77.2365729,94.1377778 Z"/>
      <path fill="#DADADA" d="M47.5375959,94.1377778 L54.2618926,89.9095556 L62.42711,96.7704444 L58.3445013,101.636889 C58.184399,102.195333 57.4639386,102.275111 57.0636829,101.796444 L47.5375959,94.1377778 Z"/>
      <polygon fill="#EA4D51" points="60.826 101.318 57.864 161.231 62.267 167.454 66.75 161.231 63.788 101.318"/>
    </g>
    <g transform="translate(0 6)">
      <ellipse cx="64.361" cy="292.369" fill="#F8F7F7" rx="61.96" ry="22.338"/>
      <ellipse cx="63.801" cy="123.257" fill="#EEEDED" rx="35.943" ry="37.815"/>
      <path fill="#DADADA" d="M65.8820972,85.5217778 L65.8820972,160.991556 C84.7741688,159.874667 99.743734,143.440444 99.743734,123.256667 C99.8237852,103.152667 84.7741688,86.7184444 65.8820972,85.5217778 Z"/>
      <path fill="#EEEDED" d="M95.6611253,126.607333 C88.8567775,126.607333 83.3332481,120.783556 83.3332481,113.683333 L83.3332481,113.204667 L83.3332481,91.5848889 C77.7296675,87.7555556 71.0053708,85.5217778 63.8007673,85.5217778 C56.756266,85.5217778 50.1120205,87.6757778 44.588491,91.4253333 L44.588491,113.204667 L44.588491,113.683333 C44.588491,120.863333 39.0649616,126.607333 32.2606138,126.607333 C30.7396419,126.607333 29.2987212,126.288222 27.9378517,125.809556 C29.1386189,145.514667 44.7485934,161.151111 63.8007673,161.151111 C82.8529412,161.151111 98.3828645,145.594444 99.6636829,125.889333 C98.3828645,126.368 97.102046,126.607333 95.6611253,126.607333 Z"/>
      <ellipse cx="63.801" cy="174.314" fill="#3A5FA9" rx="26.097" ry="27.364"/>
      <rect width="56.836" height="44.915" x="35.383" y="129.4" fill="#EEEDED"/>
      <path fill="#DADADA" d="M95.6611253,126.607333 C88.8567775,126.607333 83.3332481,120.783556 83.3332481,113.683333 L83.3332481,113.204667 L83.3332481,91.5848889 C79.8910486,89.1915556 76.0485934,87.4364444 71.8859335,86.4791111 L71.8859335,88.5533333 C71.8859335,90.9466667 68.443734,90.3882222 67.0028133,91.904 C75.0079284,97.4086667 81.0918159,107.859556 81.0918159,117.273333 L81.0918159,169.767111 L81.0117647,169.767111 C80.9317136,171.282889 80.7716113,172.718889 80.5314578,174.234667 L92.2189258,174.234667 L92.2189258,146.472 C96.4616368,140.728 99.183376,133.627778 99.6636829,125.969111 C98.4629156,126.368 97.102046,126.607333 95.6611253,126.607333 Z"/>
      <rect width="17.771" height="59.674" x="39.465" y="221.064" fill="#F0B79B"/>
      <rect width="17.771" height="57.121" x="70.845" y="223.617" fill="#F0B79B"/>
      <rect width="20.493" height="105.307" x="37.704" y="175.591" fill="#3A5FA9"/>
      <polygon fill="#3A52A0" points="69.564 194.02 69.564 280.738 89.977 280.977 89.977 174.314"/>
      <path fill="#3A52A0" d="M8.56547315,22.4175556 C5.60358056,22.4175556 2.80179028,21.8591111 0.240153453,20.9815556 C4.80306905,25.2097778 10.8069054,27.7626667 17.4511509,27.7626667 C31.8603581,27.7626667 43.5478261,15.4768889 43.5478261,0.398888889 L43.5478261,0.398888889 L45.8693095,0.398888889 L45.8693095,0.398888889 L34.1818414,0.398888889 C31.7803069,12.924 21.213555,22.4175556 8.56547315,22.4175556 Z" transform="translate(46.43 173.916)"/>
      <polygon fill="#050707" points="70.845 296.374 86.535 296.374 88.537 280.738 70.845 280.738"/>
      <path fill="#050707" d="M102.545524,296.374444 C102.545524,289.194444 96.7818414,283.929111 89.4171355,283.290889 C65.4017903,281.216667 76.2887468,289.114667 76.2887468,296.374444 L102.545524,296.374444 Z"/>
      <polygon fill="#050707" points="57.237 296.374 44.909 296.374 39.465 280.738 57.237 280.738"/>
      <path fill="#050707" d="M25.0560102 296.374444C25.0560102 289.194444 30.8997442 283.290889 38.184399 283.290889 62.2797954 283.290889 51.3127877 289.114667 51.3127877 296.374444L25.0560102 296.374444zM77.3294118 296.374444C77.3294118 289.194444 83.0130435 283.290889 89.9774936 283.290889 96.9419437 283.290889 102.625575 289.114667 102.625575 296.374444"/>
      <path fill="#050707" d="M50.3521739,296.374444 C50.3521739,289.194444 44.6685422,283.290889 37.7040921,283.290889 C30.7396419,283.290889 25.0560102,289.114667 25.0560102,296.374444"/>
      <ellipse cx="92.859" cy="181.255" fill="#E5AF99" rx="6.884" ry="6.781"/>
      <rect width="10.166" height="57.759" x="89.577" y="123.495" fill="#E5AF99" transform="rotate(-180 94.66 152.375)"/>
      <polygon fill="#3A5FA9" points="82.853 111.13 44.829 111.13 38.104 125.57 89.577 125.57"/>
      <path fill="#3A5FA9" d="M42.5071611,130.037778 L47.3102302,121.661111 L47.3102302,89.8297778 L46.9900256,89.8297778 C45.3890026,90.7073333 43.9480818,91.6646667 42.5071611,92.7815556 L42.5071611,130.037778 Z"/>
      <path fill="#3A52A0" d="M80.6915601,89.8297778 L80.4514066,89.8297778 L80.4514066,121.661111 L85.2544757,130.037778 L85.2544757,92.8613333 C83.813555,91.7444444 82.2925831,90.7871111 80.6915601,89.8297778 Z"/>
      <path fill="#3A5FA9" d="M38.1043478,125.570222 C38.1043478,125.570222 57.9029143,120 67,120 C76.0970857,120 89.5772379,125.570222 89.5772379,125.570222 L89.5772379,175.511111 L38.1043478,175.511111 L38.1043478,125.570222 Z"/>
      <polygon fill="#3A52A0" points="89.577 175.591 80.451 175.591 80.451 119.828 82.853 111.13 89.577 125.843"/>
      <g transform="translate(22.414)">
        <path fill="#F4CA75" d="M33.0611253,65.6571111 C28.2580563,65.1784444 24.8959079,67.8111111 23.2148338,69.5662222 C21.3736573,71.4808889 18.3317136,74.1135556 15.6900256,74.1135556 C15.5299233,74.1135556 16.0902813,72.518 16.0902813,72.518 C19.2923274,68.1302222 15.6099744,64.5402222 15.6099744,64.5402222 C11.7675192,69.3268889 5.76368286,69.1673333 5.76368286,69.1673333 C10.8069054,61.1895556 8.08516624,54.8871111 8.08516624,54.8871111 C4.242711,58.2377778 0.320204604,56.8017778 0.320204604,56.8017778 C0.320204604,56.8017778 4.8831202,59.0355556 3.76240409,38.6922222 C3.76240409,38.6922222 1.04066496,14.2004444 21.1335038,4.308 C21.1335038,4.308 41.2263427,-5.744 60.1984655,5.98333333 C60.1984655,5.98333333 61.3191816,3.82933333 58.8375959,0.319111111 C58.8375959,0.319111111 62.6800512,2.63266667 63.640665,9.81266667 C63.640665,9.81266667 67.4831202,8.53622222 70.9253197,9.17444444 C70.9253197,9.17444444 67.2429668,9.81266667 65.4818414,12.5251111 C65.4818414,12.5251111 73.9672634,14.5993333 75.9685422,30.3155556 C75.9685422,30.3155556 77.0892583,37.8944444 75.9685422,47.4677778 C75.9685422,47.4677778 74.6076726,46.0317778 81.0117647,57.7591111 C81.0117647,57.7591111 75.9685422,58.158 73.2468031,55.6848889 C73.2468031,55.6848889 70.9253197,62.7851111 76.4488491,70.1246667 C76.4488491,70.1246667 71.6457801,71.0022222 66.4424552,66.3751111 C66.4424552,66.3751111 63.3204604,70.6033333 66.5225064,75.5495556 C66.6025575,75.6293333 60.8388747,73.4753333 58.8375959,71.5606667 C56.2759591,69.0077778 50.9925831,64.6997778 45.9493606,65.4975556"/>
        <ellipse cx="39.145" cy="41.484" fill="#F0B79B" rx="30.099" ry="31.672"/>
        <ellipse cx="28.018" cy="43.718" fill="#1E1E1C" rx="2.722" ry="2.792"/>
        <ellipse cx="51.393" cy="43.718" fill="#1E1E1C" rx="2.722" ry="2.792"/>
        <path fill="#E5AF99" d="M45.068798,10.4508889 C53.7943734,15.9555556 59.7181586,26.0075556 59.7181586,37.5753333 C59.7181586,55.0466667 46.2695652,69.2471111 29.6189258,69.2471111 C27.6176471,69.2471111 25.6163683,69.0077778 23.6951407,68.6088889 C28.1780051,71.4808889 33.4613811,73.1562222 39.1450128,73.1562222 C55.7956522,73.1562222 69.2442455,58.9557778 69.2442455,41.4844444 C69.2442455,26.1671111 58.8375959,13.4026667 45.068798,10.4508889 Z"/>
        <ellipse cx="8.806" cy="48.026" fill="#F0B79B" rx="7.525" ry="7.898"/>
        <ellipse cx="70.125" cy="48.026" fill="#E5AF99" rx="7.525" ry="7.898"/>
        <path fill="#F4CA75" d="M8.8056266,40.1282222 C8.8056266,40.1282222 9.20588235,42.2822222 10.2465473,43.7182222 C10.2465473,43.7182222 10.4867008,28.6402222 17.7713555,19.1466667 C17.7713555,19.1466667 16.4905371,23.4546667 17.7713555,26.2468889 C17.7713555,26.2468889 19.6925831,24.6513333 22.7345269,22.976 C27.2974425,20.4231111 32.5007673,19.3062222 37.7841432,19.4657778 C41.6265985,19.5455556 48.1907928,19.0668889 53.3941176,15.3173333 C53.3941176,15.3173333 66.5225064,24.6513333 68.5237852,43.2395556 C68.5237852,43.2395556 69.3242967,42.0428889 69.2442455,40.208 L72.3662404,35.7404444 L67.7232737,21.1411111 L56.9964194,11.2486667 L46.4296675,8.29688889 L31.5401535,8.29688889 L20.5731458,11.2486667 L15.1296675,16.1948889 L10.3265985,23.9333333 L6.08388747,32.5493333 L6.08388747,36.3786667 L8.8056266,40.1282222 Z"/>
        <path fill="#FFF" d="M32.901023,58.4771111 C32.901023,61.3491111 36.6634271,63.6626667 39.4652174,63.6626667 C42.3470588,63.6626667 46.0294118,61.3491111 46.0294118,58.4771111 L32.901023,58.4771111 Z"/>
        <path fill="#E5AF99" d="M45.8693095,71.2415556 L45.8693095,79.6182222 C45.8693095,83.288 42.987468,86.3195556 39.4652174,86.3195556 C35.9429668,86.3195556 33.0611253,83.288 33.0611253,79.6182222 L33.0611253,71.8 L45.8693095,71.2415556 Z"/>
        <path fill="#F4CA75" d="M26.1767263 70.0448889L26.1767263 57.1208889C26.1767263 56.4028889 27.3774936 55.6848889 28.097954 55.5253333L36.5033248 52.8926667 35.3826087 54.1691111C35.1424552 54.4882222 34.8222506 54.6477778 34.4219949 54.8073333L28.658312 56.8815556 28.658312 66.8537778C28.658312 68.928 29.9391304 70.8426667 31.8603581 71.5606667 32.8209719 71.8797778 34.0217391 72.1191111 35.4626598 71.8797778 36.3432225 71.8 37.0636829 71.1617778 37.3838875 70.364 37.6240409 69.646 37.8641944 68.7684444 37.7040921 67.1728889L41.0662404 67.1728889C41.0662404 67.1728889 40.7460358 68.6886667 41.0662404 70.2842222 41.3063939 71.4808889 42.1869565 72.0393333 43.4677749 72.1988889 44.588491 72.2786667 46.4296675 71.7202222 48.5910486 70.5235556 50.1920716 69.646 51.1526854 67.9706667 51.1526854 66.1357778L51.1526854 56.9613333 44.4283887 54.8871111C44.028133 54.7275556 43.7079284 54.568 43.3877238 54.2488889L42.3470588 53.0522222 51.3127877 55.6848889C52.0332481 55.9242222 53.2340153 56.5624444 53.2340153 57.2804444L53.2340153 69.4066667C53.2340153 69.4066667 47.230179 73.1562222 39.9455243 73.236L38.6647059 73.236C37.2237852 73.3157778 30.4994885 72.5977778 26.1767263 70.0448889zM68.5237852 42.8406667C68.5237852 42.8406667 62.8401535 54.2488889 53.3941176 57.2006667L53.3941176 69.4066667C53.3941176 69.4066667 68.8439898 61.9873333 68.5237852 42.8406667zM10.2465473 43.08C10.2465473 43.08 16.8107417 55.286 26.1767263 58.2377778L26.1767263 70.1246667C26.1767263 70.0448889 8.08516624 61.5884444 10.2465473 43.08z"/>
        <path fill="#F4CA75" d="M10.2465473,48.0262222 L10.2465473,69.4864444 C10.2465473,71.4011111 10.8869565,73.236 12.0877238,74.7517778 C15.7700767,79.4586667 25.0560102,90.7073333 39.8654731,93.2602222 C39.8654731,93.2602222 59.4780051,90.9466667 67.8033248,74.1135556 C68.3636829,72.9168889 68.6838875,71.6404444 68.6838875,70.364 L68.443734,47.388 C68.443734,47.388 57.8769821,58.2377778 53.5542199,57.2006667 L51.2327366,69.646 C51.2327366,69.646 35.8629156,79.2193333 23.1347826,65.8166667 L13.8488491,52.9724444 L10.2465473,48.0262222 Z"/>
      </g>
      <g fill="#FFF" transform="translate(51.233 120.464)">
        <path d="M3.12199488 11.0891111C2.88184143 11.0891111 2.64168798 10.9295556 2.48158568 10.6902222 2.24143223 10.2913333 2.40153453 9.89244444 2.72173913 9.65311111L5.04322251 8.21711111C5.44347826 7.97777778 5.84373402 8.13733333 6.08388747 8.45644444 6.32404092 8.85533333 6.16393862 9.25422222 5.84373402 9.49355556L3.52225064 10.9295556C3.44219949 11.0891111 3.28209719 11.0891111 3.12199488 11.0891111zM4.32276215 6.30244444L1.20076726 6.30244444C.800511509 6.30244444.400255754 5.98333333.480306905 5.50466667.480306905 5.10577778.800511509 4.78666667 1.28081841 4.78666667L1.28081841 4.78666667C1.28081841 4.78666667 3.52225064 4.86644444 5.20332481 4.78666667L5.20332481 4.78666667C5.60358056 4.78666667 6.00383632 5.10577778 6.00383632 5.58444444 6.00383632 5.98333333 5.68363171 6.38222222 5.20332481 6.38222222 4.8831202 6.30244444 4.64296675 6.30244444 4.32276215 6.30244444zM5.52352941 3.11133333C5.36342711 3.11133333 5.20332481 3.03155556 5.12327366 2.95177778 5.12327366 2.95177778 4.00255754 2.23377778 2.88184143 1.75511111 2.48158568 1.59555556 2.32148338 1.11688889 2.48158568.718 2.64168798.319111111 3.12199488.159555556 3.52225064.319111111 4.7230179.877555556 5.92378517 1.59555556 6.00383632 1.67533333 6.32404092 1.91466667 6.48414322 2.39333333 6.24398977 2.71244444 6.00383632 2.95177778 5.76368286 3.11133333 5.52352941 3.11133333z"/>
        <g transform="translate(16.81)">
          <path d="M1.28081841 3.59C1.04066496 3.59.800511509 3.43044444.640409207 3.19111111.400255754 2.79222222.560358056 2.39333333.88056266 2.154L3.20204604.718C3.60230179.478666667 4.00255754.638222222 4.242711.957333333 4.48286445 1.35622222 4.32276215 1.75511111 4.00255754 1.99444444L1.68107417 3.43044444C1.52097187 3.51022222 1.44092072 3.59 1.28081841 3.59zM5.44347826 7.02044444L5.44347826 7.02044444C5.44347826 7.02044444 3.20204604 6.94066667 1.52097187 7.02044444L1.52097187 7.02044444C1.12071611 7.02044444.720460358 6.70133333.720460358 6.22266667.720460358 5.82377778 1.04066496 5.42488889 1.52097187 5.42488889L5.44347826 5.42488889C5.84373402 5.42488889 6.24398977 5.744 6.16393862 6.22266667 6.24398977 6.70133333 5.92378517 7.02044444 5.44347826 7.02044444zM3.52225064 11.4082222C3.44219949 11.4082222 3.28209719 11.4082222 3.20204604 11.3284444 2.00127877 10.77.800511509 10.052.720460358 9.97222222.400255754 9.73288889.240153453 9.25422222.480306905 8.93511111.720460358 8.616 1.20076726 8.45644444 1.52097187 8.69577778 1.52097187 8.69577778 2.64168798 9.41377778 3.76240409 9.89244444 4.16265985 10.052 4.32276215 10.5306667 4.16265985 10.9295556 4.0826087 11.2486667 3.84245524 11.4082222 3.52225064 11.4082222z"/>
        </g>
        <path d="M12.4879795,12.0464444 C9.52608696,12.0464444 8.00511509,9.41377778 7.84501279,6.86088889 C7.76496164,5.26533333 8.56547315,2.55288889 10.4867008,1.59555556 C11.4473146,1.11688889 12.8882353,0.877555556 14.8895141,2.47311111 C15.2097187,2.71244444 15.2897698,3.19111111 14.9695652,3.51022222 C14.7294118,3.82933333 14.2491049,3.90911111 13.9289003,3.59 C12.8882353,2.71244444 11.9276215,2.47311111 11.2071611,2.872 C10.0063939,3.51022222 9.36598465,5.58444444 9.44603581,6.70133333 C9.60613811,8.45644444 10.4867008,10.4508889 12.5680307,10.4508889 C13.768798,10.4508889 14.1690537,8.93511111 14.2491049,8.05755556 C13.6887468,7.898 12.8882353,7.73844444 12.4079284,7.73844444 C12.0076726,7.73844444 11.6074169,7.41933333 11.6074169,6.94066667 C11.6074169,6.462 11.9276215,6.14288889 12.4079284,6.14288889 C13.4485934,6.14288889 15.1296675,6.62155556 15.2897698,6.62155556 C15.6099744,6.70133333 15.8501279,7.02044444 15.8501279,7.33955556 C15.7700767,9.09466667 15.1296675,12.0464444 12.4879795,12.0464444 Z"/>
      </g>
      <g transform="translate(0 175.511)">
        <path fill="#4A836B" d="M60.9189258,8.37666667 L11.5273657,0.797777778 C8.6455243,0.319111111 5.92378517,2.31355556 5.52352941,5.18555556 L0.720460358,36.4584444 C0.240153453,39.3304444 2.24143223,42.0428889 5.12327366,42.4417778 L54.5148338,50.0206667 C57.3966752,50.4993333 60.1184143,48.5048889 60.5186701,45.6328889 L65.3217391,14.36 C65.802046,11.488 63.8007673,8.85533333 60.9189258,8.37666667 Z M45.4690537,12.5251111 L45.1488491,14.7588889 C44.9086957,16.1151111 43.7079284,16.9926667 42.3470588,16.7533333 L26.7370844,14.36 C25.3762148,14.1206667 24.4956522,12.924 24.7358056,11.5677778 L25.0560102,9.334 C25.2961637,7.97777778 26.4969309,7.10022222 27.8578005,7.33955556 L43.4677749,9.73288889 C44.7485934,9.89244444 45.629156,11.1688889 45.4690537,12.5251111 Z"/>
        <path fill="#E63840" d="M19.2923274 4.94622222L14.5693095 4.22822222C13.8488491 4.14844444 13.3685422 3.43044444 13.4485934 2.71244444L13.6887468 1.19666667C13.768798.478666667 14.4892583 5.01404473e-14 15.2097187.0797777778L19.9327366.797777778C20.6531969.877555556 21.1335038 1.59555556 21.0534527 2.31355556L20.8132992 3.82933333C20.7332481 4.54733333 20.0928389 5.10577778 19.2923274 4.94622222zM56.6762148 10.6902222L51.9531969 9.97222222C51.2327366 9.89244444 50.7524297 9.17444444 50.8324808 8.45644444L51.0726343 6.94066667C51.1526854 6.22266667 51.8731458 5.744 52.5936061 5.82377778L57.316624 6.54177778C58.0370844 6.62155556 58.5173913 7.33955556 58.4373402 8.05755556L58.1971867 9.57333333C58.0370844 10.2913333 57.3966752 10.77 56.6762148 10.6902222z"/>
      </g>
      <polygon fill="#F0B79B" points="38.104 181.973 27.938 181.973 27.938 123.576 38.104 123.416"/>
      <ellipse cx="34.822" cy="181.255" fill="#F0B79B" rx="6.884" ry="6.941"/>
    </g>
    <g transform="translate(95.271 10.371)">
      <ellipse cx="62.688" cy="335.967" fill="#F8F7F7" rx="61.96" ry="22.338"/>
      <ellipse cx="60.028" cy="64.381" fill="#D3945C" rx="35.943" ry="35.82"/>
      <ellipse cx="43.137" cy="66.535" fill="#1E1E1C" rx="3.122" ry="3.111"/>
      <ellipse cx="77.479" cy="66.535" fill="#1E1E1C" rx="3.122" ry="3.111"/>
      <path fill="#CD8F5A" d="M67.1526854,29.2784444 C77.6393862,35.5808889 84.6038363,46.9093333 84.6038363,59.9928889 C84.6038363,79.7777778 68.513555,95.8131111 48.6608696,95.8131111 C46.259335,95.8131111 43.8578005,95.5737778 41.5363171,95.0951111 C46.8997442,98.366 53.2237852,100.200889 60.028133,100.200889 C79.8808184,100.200889 95.9710997,84.1655556 95.9710997,64.3806667 C95.9710997,46.9891111 83.5631714,32.5493333 67.1526854,29.2784444 Z"/>
      <ellipse cx="25.926" cy="71.8" fill="#D3945C" rx="9.606" ry="9.573"/>
      <path fill="#A97144" d="M60.9887468,85.8408889 C52.9035806,85.8408889 50.1017903,81.7722222 49.941688,81.6126667 C49.6214834,81.2137778 49.7815857,80.5755556 50.1818414,80.3362222 C50.5820972,80.0171111 51.2225064,80.1766667 51.4626598,80.5755556 C51.542711,80.7351111 53.9442455,84.006 60.9086957,84.006 C67.9531969,84.006 70.2746803,80.8148889 70.4347826,80.6553333 C70.7549872,80.2564444 71.3153453,80.0968889 71.715601,80.416 C72.1158568,80.7351111 72.2759591,81.2935556 71.9557545,81.6924444 C71.8757033,81.852 69.073913,85.8408889 60.9887468,85.8408889 Z"/>
      <path fill="#442A19" d="M37.6938619,93.5793333 C37.6938619,93.5793333 25.2058824,92.3826667 21.6035806,75.1506667 C20.4028133,69.4066667 20.6429668,63.4233333 21.843734,57.6793333 C24.5654731,45.0744444 32.970844,20.0242222 57.7867008,18.668 C57.7867008,18.668 51.9429668,7.898 61.8693095,2.154 C63.8705882,1.03711111 66.0319693,0.398888889 68.3534527,0.159555556 C71.6355499,-0.0797777778 76.8388747,0.239333333 81.7219949,3.43044444 C85.8046036,6.14288889 88.6063939,10.2913333 89.4069054,15.078 C89.9672634,18.668 89.4869565,22.976 85.0841432,25.7682222 C85.0841432,25.7682222 91.2480818,30.156 99.7335038,28.0817778 C99.7335038,28.0817778 95.8910486,32.4695556 87.6457801,30.874 C87.6457801,30.874 102.855499,40.6068889 101.254476,63.9817778 C101.254476,63.9817778 101.014322,87.3566667 80.3611253,95.8131111 C80.3611253,95.8131111 95.8109974,85.0431111 94.2900256,66.5346667 C94.2900256,66.5346667 93.1693095,57.5995556 87.3255754,52.1746667 C87.3255754,52.1746667 73.1565217,37.5753333 72.9163683,33.6662222 C72.9163683,33.6662222 70.5148338,34.5437778 68.7537084,37.2562222 C66.9925831,39.9686667 64.5109974,43.4788889 47.2199488,49.6217778 C40.7358056,51.9353333 34.9721228,55.8444444 30.8094629,61.2693333 C24.485422,69.646 20.4028133,82.0115556 37.6938619,93.5793333 Z"/>
      <ellipse cx="94.93" cy="71.8" fill="#CD8F5A" rx="9.606" ry="9.573"/>
      <path fill="#2C2D2D" d="M99.1731458,143.440444 C99.1731458,123.575778 82.0421995,107.460667 61.068798,107.460667 C40.0153453,107.460667 23.2846547,124.134222 23.2846547,144.078667 C23.2846547,154.928444 28.2478261,188.514889 36.17289,197.051111 L36.17289,143.679778 L39.855243,171.761556 L38.7345269,177.904444 C44.9785166,183.648444 52.6634271,187.398 61.068798,187.398 C69.7943734,187.398 77.8795396,183.249556 84.3636829,176.947111 L83.4030691,171.761556 L87.085422,143.679778 L87.085422,173.995333 C94.4501279,165.379333 99.1731458,153.811556 99.1731458,143.440444 Z"/>
      <polygon fill="#D3945C" points="55.065 325.812 40.175 325.812 40.095 196.413 55.065 196.413"/>
      <polygon fill="#CD8F5A" points="81.322 325.812 66.432 325.812 66.432 196.413 81.322 196.413"/>
      <path fill="#030304" d="M9.36598465,27.3637778 C6.32404092,27.3637778 3.36214834,26.8851111 0.560358056,25.9277778 C5.36342711,29.9964444 11.687468,32.5493333 18.6519182,32.4695556 C33.6214834,32.3897778 42.1069054,18.9871111 43.2276215,5.34511111 C43.3076726,4.308 41.8667519,6.30244444 41.8667519,5.26533333 L42.1069054,3.43044444 L41.7867008,3.51022222 L39.0649616,4.54733333 L36.1831202,0.239333333 C33.7015345,12.4453333 22.7345269,27.3637778 9.36598465,27.3637778 Z" transform="translate(43.217 185.882)"/>
      <path fill="#CD8F5A" d="M70.114578,98.0468889 L70.114578,108.976444 C70.114578,113.763111 66.0319693,117.672222 60.9887468,117.672222 C55.9455243,117.672222 51.8629156,113.763111 51.8629156,108.976444 L51.8629156,98.7648889 L70.114578,98.0468889 Z"/>
      <path fill="#2C2D2D" d="M91.1680307,142.403333 L99.1731458,142.403333 C99.1731458,142.403333 99.813555,129.958 89.8872123,119.906 C89.8872123,119.906 85.2442455,114.082222 74.9976982,109.774222 L74.9976982,115.837333 L84.0434783,132.590667 L84.7639386,142.323556 L91.1680307,142.403333 L91.1680307,142.403333 Z"/>
      <path fill="#E9E8E8" d="M36.9734015,117.034 L45.0585678,188.435111 L76.2785166,188.435111 L84.1235294,116.635111 C84.1235294,116.635111 79.8808184,110.811333 69.4741688,108.019111 C69.4741688,108.019111 69.7943734,113.124889 60.8286445,113.444 C60.8286445,113.444 52.9035806,115.837333 52.3432225,108.418 C52.4232737,108.338222 44.1780051,110.332667 36.9734015,117.034 Z"/>
      <path fill="#E9E8E8" d="M67.5529412,113.124889 C67.5529412,113.124889 78.9202046,117.911556 78.9202046,126.048889 L78.9202046,188.435111 L86.6851662,138.254889 L86.6051151,116.635111 C86.6051151,116.635111 79.4005115,110.332667 69.5542199,107.779778 C69.5542199,107.939333 69.7143223,110.891111 67.5529412,113.124889 Z"/>
      <polygon fill="#FFF" points="45.219 110.971 57.306 118.709 61.069 113.364 51.383 107.221"/>
      <polygon fill="#FFF" points="76.919 110.253 64.671 118.709 60.829 113.364 70.515 107.221"/>
      <polygon fill="#727272" points="87.326 246.114 35.452 246.114 35.452 198.726 39.055 188.276 83.723 188.276 87.326 197.849"/>
      <path fill="#2C2D2D" d="M46.9797954,109.375333 C42.2567775,111.848444 37.6138107,115.199111 35.3723785,117.273333 L35.3723785,143.121333 L36.0928389,143.759556 L39.7751918,171.841333 L36.0928389,192.104889 L35.3723785,195.136444 L34.7319693,216.197778 L38.9746803,216.437111 C41.7764706,216.596667 52.7434783,214.841556 53.3838875,212.288667 L61.3890026,166.895111 L46.9797954,109.375333 Z"/>
      <path fill="#2C2D2D" d="M87.0053708,192.025111 L83.3230179,171.761556 L87.0053708,143.679778 L87.0053708,143.679778 L87.0053708,117.034 C84.8439898,114.959778 80.201023,111.688889 75.397954,109.136 L60.9086957,166.895111 L68.9138107,212.208889 C69.5542199,214.761778 80.5212276,216.516889 83.3230179,216.357333 L87.5657289,216.118 L87.0053708,192.025111 L87.0053708,192.025111 Z"/>
      <rect width="11.367" height="73.236" x="87.165" y="143.121" fill="#CD8F5A"/>
      <rect width="12.248" height="64.221" x="86.845" y="141.845" fill="#2C2D2D"/>
      <ellipse cx="91.248" cy="215.799" fill="#CD8F5A" rx="7.285" ry="6.941"/>
      <ellipse cx="30.97" cy="215.799" fill="#D3945C" rx="7.285" ry="6.941"/>
      <rect width="11.367" height="70.524" x="23.685" y="145.435" fill="#D3945C"/>
      <rect width="12.248" height="61.03" x="23.285" y="144.717" fill="#2C2D2D"/>
      <rect width="13.689" height="8.855" x="41.376" y="325.812" fill="#EA4D51"/>
      <path fill="#EA4D51" d="M28.3278772,336.582444 C28.3278772,330.120444 33.3710997,325.812444 39.6150895,325.812444 C60.4283887,325.812444 50.9823529,330.120444 50.9823529,336.582444 L28.3278772,336.582444 Z"/>
      <path fill="#803126" d="M28.5680307,336.582444 C28.5680307,336.582444 28.5680307,334.747556 28.9682864,333.471111 L55.1450128,333.471111 L55.1450128,336.582444 L28.5680307,336.582444 Z"/>
      <rect width="13.689" height="8.855" x="66.432" y="325.812" fill="#EA4D51"/>
      <path fill="#EA4D51" d="M93.1693095,336.582444 C93.1693095,330.120444 88.126087,325.812444 81.8820972,325.812444 C61.068798,325.812444 70.5148338,330.120444 70.5148338,336.582444 L93.1693095,336.582444 Z"/>
      <path fill="#803126" d="M93.0092072,336.582444 C93.0092072,336.582444 93.0092072,334.747556 92.6089514,333.471111 L66.4322251,333.471111 L66.4322251,336.582444 L93.0092072,336.582444 Z"/>
    </g>
  </g>
</svg>
