<svg xmlns="http://www.w3.org/2000/svg" xmlns:xlink="http://www.w3.org/1999/xlink" width="344" height="503" viewBox="0 0 344 503">
  <defs>
    <polygon id="rocket-a" points="0 277.298 178.832 277.298 178.832 0 0 0"/>
    <polygon id="rocket-c" points="0 277.298 178.832 277.298 178.832 0 0 0"/>
    <polygon id="rocket-e" points="0 277.298 178.832 277.298 178.832 0 0 0"/>
    <polygon id="rocket-g" points="0 277.298 178.832 277.298 178.832 0 0 0"/>
    <polygon id="rocket-i" points="0 277.298 178.832 277.298 178.832 0 0 0"/>
    <polygon id="rocket-k" points="0 277.298 178.832 277.298 178.832 0 0 0"/>
    <polygon id="rocket-m" points="0 277.298 178.832 277.298 178.832 0 0 0"/>
    <polygon id="rocket-o" points="0 277.298 178.832 277.298 178.832 0 0 0"/>
    <polygon id="rocket-q" points="0 277.298 178.832 277.298 178.832 0 0 0"/>
    <polygon id="rocket-s" points="0 277.298 178.832 277.298 178.832 0 0 0"/>
    <polygon id="rocket-u" points="0 277.298 178.832 277.298 178.832 0 0 0"/>
    <polygon id="rocket-w" points="0 277.298 178.832 277.298 178.832 0 0 0"/>
    <polygon id="rocket-y" points="0 277.298 178.832 277.298 178.832 0 0 0"/>
    <polygon id="rocket-A" points="0 277.298 178.832 277.298 178.832 0 0 0"/>
    <polygon id="rocket-C" points="0 277.298 178.832 277.298 178.832 0 0 0"/>
    <polygon id="rocket-E" points="0 277.298 178.832 277.298 178.832 0 0 0"/>
    <polygon id="rocket-G" points="0 277.298 178.832 277.298 178.832 0 0 0"/>
    <polygon id="rocket-I" points="0 277.298 178.832 277.298 178.832 0 0 0"/>
    <polygon id="rocket-K" points="0 277.298 178.832 277.298 178.832 0 0 0"/>
    <polygon id="rocket-M" points="0 277.298 178.832 277.298 178.832 0 0 0"/>
    <polygon id="rocket-O" points="0 277.298 178.832 277.298 178.832 0 0 0"/>
    <polygon id="rocket-Q" points="0 277.298 178.832 277.298 178.832 0 0 0"/>
    <polygon id="rocket-S" points="0 277.298 178.832 277.298 178.832 0 0 0"/>
  </defs>
  <g fill="none" fill-rule="evenodd" transform="translate(-1 -1)">
    <g fill="#FFF" fill-rule="nonzero" transform="translate(1 389.3)">
      <path d="M343.667704,52.2614078 C343.667704,52.2614078 342.491331,27.93763 316.993742,22.6363856 C316.993742,22.6363856 297.380395,18.5822522 283.650696,25.7551856 C283.650696,25.7551856 278.234032,8.34469667 257.548879,2.24407445 C242.684989,-2.13972555 225.833742,0.723518892 214.772271,9.75229667 C208.50244,14.8700522 203.159449,22.67983 202.843373,34.4870078 C202.843373,34.4870078 184.406399,21.0769856 158.90881,30.4328744 C158.90881,30.4328744 140.47243,37.6047856 138.511214,53.8208078 C138.511214,53.8208078 114.190592,35.1100522 83.2014798,51.3260744 C83.2014798,51.3260744 62.8032898,62.55263 65.5493485,82.1982078 C65.5493485,82.1982078 64.4650653,81.4949189 62.4586957,80.50183 C46.6216249,72.6659856 25.9667717,74.1942078 12.4426404,84.4077411 C12.226972,84.5707856 12.0148684,84.7343411 11.808706,84.8984078 L11.808706,114.629741 L343.667704,114.629741 L343.667704,52.2614078 Z"/>
      <path d="M69.5079139,114.700015 C70.1413454,112.425787 70.4768069,110.051914 70.4768069,107.610652 C70.4768069,90.8681856 54.699743,77.29563 35.2378984,77.29563 C15.7772421,77.29563 0.000178238342,90.8681856 0.000178238342,107.610652 C0.000178238342,110.051914 0.33563974,112.425787 0.969067538,114.700015 L69.5079139,114.700015 Z"/>
    </g>
    <g transform="translate(78 103)">
      <path fill="#F45827" fill-rule="nonzero" d="M25.9271949,198.54633 C30.2260249,211.599629 26.0340289,230.805619 26.0340289,230.805619 L24.2072383,225.982954 C24.2072383,225.982954 22.3804478,235.295249 20.0159498,239.452548 C18.9412423,234.629883 17.7589933,232.218904 17.7589933,232.218904 C17.7589933,232.218904 16.8986613,238.454853 17.0069103,239.368584 C12.1703727,232.218904 12.2779142,225.982954 12.2779142,225.982954 L11.0956652,231.387726 C11.0956652,231.387726 2.71167312,213.345949 9.1613332,199.045178 C15.6095783,184.744406 25.9271949,198.54633 25.9271949,198.54633 Z"/>
      <path fill="#F9931F" fill-rule="nonzero" d="M21.0278304,199.294602 C23.284787,203.534454 25.4349095,220.162947 17.4810834,220.162947 C9.52796482,220.162947 11.7856289,202.953053 13.3973364,199.211343 C15.0090439,195.469632 21.0278304,199.294602 21.0278304,199.294602"/>
      <mask id="rocket-b" fill="#fff">
        <use xlink:href="#rocket-a"/>
      </mask>
      <polygon fill="#5FB6CD" fill-rule="nonzero" points="19.217 182.252 54.503 182.252 54.503 165.596 19.217 165.596" mask="url(#rocket-b)"/>
      <mask id="rocket-d" fill="#fff">
        <use xlink:href="#rocket-c"/>
      </mask>
      <path fill="#5FC1CA" fill-rule="nonzero" d="M28.6847146,134.833951 C25.4443194,137.390987 21.5027818,138.904464 17.2386198,138.904464 C13.1074696,138.904464 9.26993597,137.494002 6.0861415,135.079494 C2.43539051,143.038479 0.000141501976,154.617814 0.000141501976,167.514474 C0.000141501976,180.06822 1.83612964,192.045505 4.98171858,199.979794 C5.03902688,200.008017 5.10199526,200.017895 5.15647352,200.055997 C5.226517,200.104682 9.4871415,202.560114 17.147351,202.560114 C24.9632126,202.560114 29.5408016,200.119499 29.5853747,200.094804 C29.7021138,200.032007 29.8266356,200.006606 29.9504498,199.982616 C33.2849439,192.02222 34.8874538,180.432302 34.8874538,167.514474 C34.8874538,154.483048 32.399849,142.799286 28.6847146,134.833951" mask="url(#rocket-d)"/>
      <mask id="rocket-f" fill="#fff">
        <use xlink:href="#rocket-e"/>
      </mask>
      <path fill="#107A89" fill-rule="nonzero" d="M28.7434379,134.833951 C25.6169518,128.128789 21.622351,124.055454 17.5011059,124.055454 C13.3310427,124.055454 9.28762372,128.226159 6.14415731,135.079494 C9.32795178,137.494002 13.1654854,138.904464 17.2966356,138.904464 C21.5607976,138.904464 25.5023352,137.390987 28.7434379,134.833951" mask="url(#rocket-f)"/>
      <mask id="rocket-h" fill="#fff">
        <use xlink:href="#rocket-g"/>
      </mask>
      <path fill="#F45827" fill-rule="nonzero" d="M170.169428,198.54633 C174.468258,211.599629 170.276969,230.805619 170.276969,230.805619 L168.449471,225.982954 C168.449471,225.982954 166.622681,235.295249 164.25889,239.452548 C163.183475,234.629883 162.001226,232.218904 162.001226,232.218904 C162.001226,232.218904 161.141602,238.454853 161.249143,239.368584 C156.412606,232.218904 156.520147,225.982954 156.520147,225.982954 L155.337898,231.387726 C155.337898,231.387726 146.954613,213.345949 153.403566,199.045178 C159.851811,184.744406 170.169428,198.54633 170.169428,198.54633" mask="url(#rocket-h)"/>
      <mask id="rocket-j" fill="#fff">
        <use xlink:href="#rocket-i"/>
      </mask>
      <path fill="#F9931F" fill-rule="nonzero" d="M165.2707,199.294602 C167.526949,203.534454 169.677072,220.162947 161.723245,220.162947 C153.770127,220.162947 156.027791,202.953053 157.639498,199.211343 C159.251913,195.469632 165.2707,199.294602 165.2707,199.294602" mask="url(#rocket-j)"/>
      <mask id="rocket-l" fill="#fff">
        <use xlink:href="#rocket-k"/>
      </mask>
      <polygon fill="#5FB6CD" fill-rule="nonzero" points="124.329 182.252 159.615 182.252 159.615 165.596 124.329 165.596" mask="url(#rocket-l)"/>
      <mask id="rocket-n" fill="#fff">
        <use xlink:href="#rocket-m"/>
      </mask>
      <path fill="#5FC1CA" fill-rule="nonzero" d="M150.146332,134.833951 C153.387435,137.390987 157.328972,138.904464 161.592427,138.904464 C165.724285,138.904464 169.561818,137.494002 172.744905,135.079494 C176.396364,143.038479 178.831613,154.617814 178.831613,167.514474 C178.831613,180.06822 177.0027,192.056794 173.857111,199.990378 C173.799095,200.018601 173.911589,199.952982 173.857111,199.990378 C173.787067,200.039769 169.343905,202.560114 161.683696,202.560114 C153.867834,202.560114 149.290245,200.119499 149.245672,200.094804 C149.128933,200.032007 149.005119,200.006606 148.881304,199.982616 C145.54681,192.02222 143.943593,180.432302 143.943593,167.514474 C143.943593,154.483048 146.431905,142.799286 150.146332,134.833951" mask="url(#rocket-n)"/>
      <mask id="rocket-p" fill="#fff">
        <use xlink:href="#rocket-o"/>
      </mask>
      <path fill="#107A89" fill-rule="nonzero" d="M150.088245,134.833951 C153.214732,128.128789 157.209332,124.055454 161.32987,124.055454 C165.499933,124.055454 169.54406,128.226159 172.686819,135.079494 C169.503024,137.494002 165.666198,138.904464 161.53434,138.904464 C157.270886,138.904464 153.329348,137.390987 150.088245,134.833951" mask="url(#rocket-p)"/>
      <g>
        <mask id="rocket-r" fill="#fff">
          <use xlink:href="#rocket-q"/>
        </mask>
        <path fill="#EC5E21" fill-rule="nonzero" d="M66.157834,210.331766 C58.8619921,220.873893 56.1819447,238.98905 72.7093755,268.537487 C75.538,258.885807 75.6865771,257.401258 75.6865771,257.401258 C75.6865771,257.401258 84.6203043,272.249563 89.3846759,277.298015 C95.0419249,271.210238 103.677791,256.955329 103.677791,256.955329 L106.804277,268.834538 C106.804277,268.834538 128.393233,235.871076 114.100119,213.004517 C90.5761225,215.974319 66.157834,210.331766 66.157834,210.331766" mask="url(#rocket-r)"/>
      </g>
      <g>
        <mask id="rocket-t" fill="#fff">
          <use xlink:href="#rocket-s"/>
        </mask>
        <path fill="#FE991D" fill-rule="nonzero" d="M68.2423704,211.816667 C68.2423704,211.816667 64.2222992,231.119322 77.1753901,245.37423 C78.6639909,237.355977 79.8554375,235.128449 79.8554375,235.128449 C79.8554375,235.128449 82.9819237,244.929007 89.5334652,253.986586 C96.5307379,244.929007 99.8065087,234.386175 99.8065087,234.386175 C99.8065087,234.386175 102.337272,241.365104 102.337272,244.780129 C109.186675,235.871428 112.760307,226.367921 110.973137,212.856697 C109.186675,199.344063 68.2423704,211.816667 68.2423704,211.816667" mask="url(#rocket-t)"/>
      </g>
      <g>
        <mask id="rocket-v" fill="#fff">
          <use xlink:href="#rocket-u"/>
        </mask>
        <path fill="#5FC1CA" fill-rule="nonzero" d="M89.1650648,211.566538 C100.166843,211.566538 107.473298,211.720355 119.841986,211.566538 C131.303646,190.289659 136.307156,156.436456 136.307156,117.21235 C136.307156,52.4771569 113.574156,-0.000635025381 89.2605787,-0.000635025381 C64.9477091,-0.000635025381 42.2147091,52.4771569 42.2147091,117.21235 C42.2147091,155.66102 47.4545273,190.192994 58.4570134,211.566538 L89.1650648,211.566538 Z" mask="url(#rocket-v)"/>
      </g>
      <g>
        <mask id="rocket-x" fill="#fff">
          <use xlink:href="#rocket-w"/>
        </mask>
        <path fill="#107A89" fill-rule="nonzero" d="M89.9617209,37.2236355 C102.720954,37.2236355 114.664428,39.1026051 124.924029,42.3666355 C116.014357,16.483001 102.886511,-0.000141116751 89.2605787,-0.000141116751 C75.5447921,-0.000141116751 62.3327526,16.7024376 53.4209581,42.8824173 C64.0237012,39.3001685 76.5416735,37.2236355 89.9617209,37.2236355" mask="url(#rocket-x)"/>
      </g>
      <g>
        <mask id="rocket-z" fill="#fff">
          <use xlink:href="#rocket-y"/>
        </mask>
        <path fill="#062B3A" fill-rule="nonzero" d="M124.324981,95.0508107 C124.324981,114.456481 108.55034,130.188882 89.0909885,130.188882 C69.6316368,130.188882 53.8562889,114.456481 53.8562889,95.0508107 C53.8562889,75.644435 69.6316368,59.9127396 89.0909885,59.9127396 C108.55034,59.9127396 124.324981,75.644435 124.324981,95.0508107" mask="url(#rocket-z)"/>
      </g>
      <g>
        <mask id="rocket-B" fill="#fff">
          <use xlink:href="#rocket-A"/>
        </mask>
        <path fill="#FFF" fill-rule="nonzero" d="M108.372119,109.067091 C114.684522,112.940746 117.232972,117.057121 117.232972,117.057121 C117.232972,117.057121 104.218328,131.196314 87.5748656,130.188741 C73.7876206,129.354035 63.941913,121.536167 61.9997984,118.267903 C60.0576838,114.998934 59.3296561,114.636263 59.3296561,114.636263 C59.3296561,114.636263 67.947834,108.098324 70.4976996,109.793137 C73.0461502,111.487949 108.372119,109.067091 108.372119,109.067091" mask="url(#rocket-B)"/>
      </g>
      <g>
        <mask id="rocket-D" fill="#fff">
          <use xlink:href="#rocket-C"/>
        </mask>
        <path fill="#999" fill-rule="nonzero" d="M115.981317,94.4234761 C115.981317,109.357862 103.916858,121.464268 89.0358028,121.464268 C74.1540399,121.464268 62.0902889,109.357862 62.0902889,94.4234761 C62.0902889,79.4890904 74.1540399,67.3826843 89.0358028,67.3826843 C103.916858,67.3826843 115.981317,79.4890904 115.981317,94.4234761" mask="url(#rocket-D)"/>
      </g>
      <g>
        <mask id="rocket-F" fill="#fff">
          <use xlink:href="#rocket-E"/>
        </mask>
        <path stroke="#107A89" stroke-width="2" d="M124.324981,95.0508107 C124.324981,114.456481 108.55034,130.188882 89.0909885,130.188882 C69.6316368,130.188882 53.8562889,114.456481 53.8562889,95.0508107 C53.8562889,75.644435 69.6316368,59.9127396 89.0909885,59.9127396 C108.55034,59.9127396 124.324981,75.644435 124.324981,95.0508107 Z" mask="url(#rocket-F)"/>
      </g>
      <g>
        <mask id="rocket-H" fill="#fff">
          <use xlink:href="#rocket-G"/>
        </mask>
        <path stroke="#FFF" stroke-width="1.527" d="M115.981317,94.4138096 C115.981317,109.342551 103.916858,121.444723 89.0358028,121.444723 C74.1540399,121.444723 62.0902889,109.342551 62.0902889,94.4138096 C62.0902889,79.4850685 74.1540399,67.3828959 89.0358028,67.3828959 C103.916858,67.3828959 115.981317,79.4850685 115.981317,94.4138096 Z" mask="url(#rocket-H)"/>
      </g>
      <g>
        <mask id="rocket-J" fill="#fff">
          <use xlink:href="#rocket-I"/>
        </mask>
        <path fill="#5FB6CD" fill-rule="nonzero" d="M160.474278,146.065081 C160.455883,146.087659 160.437488,146.110944 160.419092,146.134228 C158.07016,149.108969 157.035073,152.909949 157.436938,156.674944 L161.452764,194.235989 L165.62495,156.543705 C165.875409,154.28372 165.645468,151.983517 164.847397,149.85336 C164.359215,148.551558 163.626942,147.177081 162.526764,145.981822 C161.968539,145.374314 160.989345,145.420883 160.474278,146.065081 M16.2314087,146.065081 C16.2137209,146.087659 16.1946182,146.110944 16.1769304,146.134228 C13.8272901,149.108969 12.7922032,152.909949 13.1947763,156.674944 L17.2098949,194.235989 L21.3827881,156.543705 C21.6332466,154.28372 21.4033059,151.983517 20.6052348,149.85336 C20.1163455,148.551558 19.3840727,147.177081 18.2846024,145.981822 C17.7263771,145.374314 16.7464759,145.420883 16.2314087,146.065081" mask="url(#rocket-J)"/>
      </g>
      <g>
        <mask id="rocket-L" fill="#fff">
          <use xlink:href="#rocket-K"/>
        </mask>
        <polygon fill="#FFF" fill-rule="nonzero" points="60.44 211.549 62.173 218.417 116.955 218.417 117.843 211.58" mask="url(#rocket-L)"/>
      </g>
      <g>
        <mask id="rocket-N" fill="#fff">
          <use xlink:href="#rocket-M"/>
        </mask>
        <polygon fill="#FFF" fill-rule="nonzero" points="148.9 199.98 149.653 202.56 173.471 202.56 173.857 199.991" mask="url(#rocket-N)"/>
      </g>
      <g>
        <mask id="rocket-P" fill="#fff">
          <use xlink:href="#rocket-O"/>
        </mask>
        <polygon fill="#FFF" fill-rule="nonzero" points="4.982 199.98 5.735 202.56 29.553 202.56 29.938 199.991" mask="url(#rocket-P)"/>
      </g>
      <g>
        <mask id="rocket-R" fill="#fff">
          <use xlink:href="#rocket-Q"/>
        </mask>
        <g fill-rule="nonzero" mask="url(#rocket-R)">
          <g transform="translate(67 69)">
            <path fill="#CB7B3C" d="M37.7626914,30.439565 C37.7626914,39.7811059 30.1689171,47.3542069 20.8018754,47.3542069 C11.4348337,47.3542069 3.84105937,39.7811059 3.84105937,30.439565 C3.84105937,21.0980242 11.4348337,13.5249231 20.8018754,13.5249231 C30.1689171,13.5249231 37.7626914,21.0980242 37.7626914,30.439565"/>
            <path fill="#1D1D1B" d="M15.1395288,29.4078393 C15.1395288,30.376888 14.3513274,31.1622027 13.3803762,31.1622027 C12.4086821,31.1622027 11.6212236,30.376888 11.6212236,29.4078393 C11.6212236,28.4387906 12.4086821,27.652735 13.3803762,27.652735 C14.3513274,27.652735 15.1395288,28.4387906 15.1395288,29.4078393 M30.3577585,29.4078393 C30.3577585,30.376888 29.5695572,31.1622027 28.598606,31.1622027 C27.6269119,31.1622027 26.8394534,30.376888 26.8394534,29.4078393 C26.8394534,28.4387906 27.6269119,27.652735 28.598606,27.652735 C29.5695572,27.652735 30.3577585,28.4387906 30.3577585,29.4078393"/>
            <path fill="#B26A39" d="M24.1586029,13.8594969 C29.0928476,16.8170217 32.4053735,22.1912415 32.4053735,28.350776 C32.4053735,37.6923169 24.8115992,45.2654179 15.4445575,45.2654179 C14.2945709,45.2654179 13.1735569,45.1483616 12.0882014,44.9312887 C14.6370411,46.4589481 17.6115541,47.3539106 20.8015039,47.3539106 C30.1692885,47.3539106 37.7623199,39.7815504 37.7623199,30.4392687 C37.7623199,22.2438428 31.9172978,15.4130864 24.1586029,13.8594969"/>
            <path fill="#CB7B3C" d="M9.25015636,33.9297704 C9.25015636,36.4242559 7.22207929,38.4468117 4.72004134,38.4468117 C2.21874628,38.4468117 0.190669209,36.4242559 0.190669209,33.9297704 C0.190669209,31.434544 2.21874628,29.4119881 4.72004134,29.4119881 C7.22207929,29.4119881 9.25015636,31.434544 9.25015636,33.9297704"/>
            <path fill="#2D2D2D" d="M10.2621891,44.2121331 C10.2621891,44.2121331 4.35847903,43.660931 2.68178674,35.5144021 C2.12090828,32.7895082 2.21525472,29.9749699 2.79396243,27.2537803 C4.06503931,21.2853884 8.04987646,9.46640185 19.738435,8.8337049 C19.738435,8.8337049 16.9815873,3.74323561 21.6684512,1.02871378 C22.5985437,0.490106421 23.6489836,0.184130025 24.7209672,0.101894239 C26.2661688,-0.0166438325 28.7176905,0.124120127 31.0317784,1.65400211 C32.9417367,2.91643256 34.2871022,4.91157647 34.651116,7.168245 C34.9237549,8.86408028 34.6808314,10.8933039 32.6163529,12.2261163 C32.6163529,12.2261163 35.532178,14.2857153 39.5407875,13.3166666 C39.5407875,13.3166666 37.7184897,15.3762656 33.8309705,14.649479 C33.8309705,14.649479 40.9983286,19.2539422 40.270301,30.2787237 C40.270301,30.2787237 40.1477249,41.304246 30.4285555,45.3026833 C30.4285555,45.3026833 37.7184897,40.2144366 36.9897192,31.4907755 C36.9897192,31.4907755 36.452613,27.2848965 33.7091373,24.7059526 C33.7091373,24.7059526 27.0268834,17.7996282 26.9057931,15.9822914 C26.9057931,15.9822914 26.2988557,15.4977671 25.2045856,17.1936024 C25.2045856,17.1936024 22.9417567,20.628243 14.7841324,23.5235354 C11.7323593,24.606677 9.00076974,26.4677247 7.02618042,29.0274062 C4.01749464,32.9273087 2.09119287,38.7564184 10.2621891,44.2121331"/>
            <path fill="#B26A39" d="M41.7861586,33.9297704 C41.7861586,36.4242559 39.7580815,38.4468117 37.2560436,38.4468117 C34.7547485,38.4468117 32.7266714,36.4242559 32.7266714,33.9297704 C32.7266714,31.434544 34.7547485,29.4119881 37.2560436,29.4119881 C39.7580815,29.4119881 41.7861586,31.434544 41.7861586,33.9297704"/>
            <path fill="#FFF" d="M26.0797045,35.6538325 C26.0797045,38.2779691 23.9461377,40.4064683 21.3148377,40.4064683 C18.6827948,40.4064683 16.549228,38.2779691 16.549228,35.6538325"/>
            <path fill="#B26A39" d="M25.2083743,45.3027574 L25.2083743,51.6504711 C23.8615231,53.8219404 21.314912,56.4031069 21.314912,56.4031069 L17.4207069,51.6504711 L17.4207069,45.6546673 L25.2083743,45.3027574 Z"/>
          </g>
        </g>
      </g>
      <g>
        <mask id="rocket-T" fill="#fff">
          <use xlink:href="#rocket-S"/>
        </mask>
        <path fill="#FFF" fill-rule="nonzero" d="M82.0940696,119.983318 C82.0940696,119.983318 89.2236466,122.13676 96.4763304,119.821034 C103.728307,117.504603 97.911868,123.802643 97.911868,123.802643 L93.008117,126.362501 L86.494781,127.499902 L80.9125281,122.462034 L82.0940696,119.983318 Z" mask="url(#rocket-T)"/>
      </g>
    </g>
    <g fill="#FFBB41" fill-rule="nonzero">
      <path d="M11.6298623,2.12506203 L13.5394417,5.99386623 C13.713201,6.34670401 14.0491948,6.59049896 14.4383802,6.64723669 L18.7078946,7.26780565 C19.687507,7.40964998 20.0784655,8.61355377 19.3701303,9.30504489 L16.2805834,12.3165774 C15.9986678,12.5905143 15.8710079,12.9859054 15.9366109,13.3733177 L16.6662227,17.6259881 C16.8337763,18.6011679 15.8098376,19.3449642 14.9339488,18.8848566 L11.1147901,16.8768727 C10.766385,16.6942482 10.3514903,16.6942482 10.0030851,16.8768727 L6.18392649,18.8848566 C5.30803773,19.3449642 4.28409894,18.6011679 4.45076603,17.6259881 L5.18037783,13.3733177 C5.24686736,12.9859054 5.11832093,12.5905143 4.83729184,12.3165774 L1.74774495,9.30504489 C1.03852328,8.61355377 1.43036826,7.40964998 2.40998068,7.26780565 L6.67949513,6.64723669 C7.06779399,6.59049896 7.40467428,6.34670401 7.57843359,5.99386623 L9.4871264,2.12506203 C9.92595731,1.23764842 11.191918,1.23764842 11.6298623,2.12506203" transform="rotate(-10 10.559 10.242)"/>
      <path d="M110.629863,44.125062 L112.539442,47.9938661 C112.713201,48.3467039 113.049195,48.5904989 113.43838,48.6472366 L117.707895,49.2678056 C118.687507,49.4096499 119.078466,50.6135537 118.370131,51.3050448 L115.280584,54.3165773 C114.998668,54.5905142 114.871008,54.9859053 114.936611,55.3733176 L115.666223,59.625988 C115.833777,60.6011678 114.809838,61.3449641 113.933949,60.8848565 L110.11479,58.8768726 C109.766385,58.6942481 109.351491,58.6942481 109.003085,58.8768726 L105.183927,60.8848565 C104.308038,61.3449641 103.284099,60.6011678 103.450766,59.625988 L104.180378,55.3733176 C104.246868,54.9859053 104.118321,54.5905142 103.837292,54.3165773 L100.747745,51.3050448 C100.038524,50.6135537 100.430369,49.4096499 101.409981,49.2678056 L105.679495,48.6472366 C106.067794,48.5904989 106.404675,48.3467039 106.578434,47.9938661 L108.487127,44.125062 C108.925958,43.2376483 110.191918,43.2376483 110.629863,44.125062" transform="rotate(-10 109.559 52.242)"/>
      <path d="M248.629936,75.1249002 L250.539515,78.9937043 C250.713274,79.3465421 251.049268,79.5903371 251.438453,79.6470748 L255.707968,80.2676438 C256.68758,80.4094881 257.078539,81.6133919 256.370204,82.304883 L253.280657,85.3164155 C252.998741,85.5903524 252.871081,85.9857435 252.936684,86.3731558 L253.666296,90.6258262 C253.83385,91.601006 252.809911,92.3448023 251.934022,91.8846947 L248.114863,89.8767108 C247.766458,89.6940863 247.351564,89.6940863 247.003158,89.8767108 L243.184,91.8846947 C242.308111,92.3448023 241.284172,91.601006 241.450839,90.6258262 L242.180451,86.3731558 C242.246941,85.9857435 242.118394,85.5903524 241.837365,85.3164155 L238.747818,82.304883 C238.038597,81.6133919 238.430442,80.4094881 239.410054,80.2676438 L243.679568,79.6470748 C244.067867,79.5903371 244.404748,79.3465421 244.578507,78.9937043 L246.4872,75.1249002 C246.926031,74.2374865 248.191991,74.2374865 248.629936,75.1249002" transform="rotate(30 247.559 83.242)"/>
      <path d="M303.175359,29.9307067 L304.669,32.9568194 C304.804911,33.2328031 305.06772,33.4234953 305.372134,33.4678746 L308.711675,33.9532731 C309.477912,34.0642213 309.783713,35.0058943 309.229665,35.5467669 L306.813074,37.9023362 C306.592564,38.116605 306.492711,38.4258731 306.544025,38.7289005 L307.114715,42.0552668 C307.245772,42.8180358 306.444865,43.3998205 305.759759,43.0399322 L302.772479,41.4693215 C302.499962,41.3264756 302.175439,41.3264756 301.902922,41.4693215 L298.915641,43.0399322 C298.230536,43.3998205 297.429628,42.8180358 297.559993,42.0552668 L298.130683,38.7289005 C298.182689,38.4258731 298.082143,38.116605 297.862327,37.9023362 L295.445736,35.5467669 C294.890995,35.0058943 295.197489,34.0642213 295.963725,33.9532731 L299.303266,33.4678746 C299.606987,33.4234953 299.870489,33.2328031 300.006401,32.9568194 L301.499348,29.9307067 C301.842594,29.2365869 302.832807,29.2365869 303.175359,29.9307067" transform="rotate(30 302.338 36.28)"/>
      <path d="M60.733458,98.9668095 L62.3311848,102.203801 C62.4765676,102.499017 62.7576904,102.702998 63.0833181,102.75047 L66.6555801,103.269694 C67.4752125,103.388374 67.8023237,104.395669 67.2096664,104.974233 L64.624672,107.493954 C64.3887959,107.723154 64.2819841,108.053974 64.3368735,108.378118 L64.9473327,111.936287 C65.0875232,112.752211 64.2308034,113.374538 63.4979556,112.98957 L60.302502,111.309509 C60.0109947,111.156709 59.6638563,111.156709 59.372349,111.309509 L56.1768954,112.98957 C55.4440476,113.374538 54.5873278,112.752211 54.7267765,111.936287 L55.3372358,108.378118 C55.3928669,108.053974 55.2853133,107.723154 55.050179,107.493954 L52.4651846,104.974233 C51.8717855,104.395669 52.1996385,103.388374 53.0192709,103.269694 L56.5915329,102.75047 C56.9164189,102.702998 57.1982834,102.499017 57.3436662,102.203801 L58.9406512,98.9668095 C59.3078169,98.224319 60.3670341,98.224319 60.733458,98.9668095" transform="rotate(10 59.837 105.758)"/>
      <path d="M187.463344,9.12815191 L188.956985,12.1542646 C189.092896,12.4302482 189.355705,12.6209405 189.660119,12.6653198 L192.99966,13.1507182 C193.765897,13.2616665 194.071698,14.2033395 193.51765,14.744212 L191.101059,17.0997814 C190.880549,17.3140502 190.780696,17.6233183 190.83201,17.9263456 L191.4027,21.2527119 C191.533757,22.0154809 190.73285,22.5972657 190.047744,22.2373774 L187.060464,20.6667667 C186.787947,20.5239208 186.463424,20.5239208 186.190907,20.6667667 L183.203626,22.2373774 C182.518521,22.5972657 181.717613,22.0154809 181.847978,21.2527119 L182.418668,17.9263456 C182.470675,17.6233183 182.370128,17.3140502 182.150312,17.0997814 L179.733721,14.744212 C179.17898,14.2033395 179.485474,13.2616665 180.25171,13.1507182 L183.591252,12.6653198 C183.894972,12.6209405 184.158474,12.4302482 184.294386,12.1542646 L185.787333,9.12815191 C186.130579,8.43403212 187.120792,8.43403212 187.463344,9.12815191" transform="rotate(20 186.626 15.477)"/>
    </g>
  </g>
</svg>
