<svg xmlns="http://www.w3.org/2000/svg" width="18" height="16" viewBox="0 0 18 16">
  <path fill="#FBBA43" d="M933.780459,34.3296259 L931.215684,30.8916826 L932.595563,26.8286587 C932.730551,26.4268212 932.625561,25.980335 932.325587,25.6826776 C932.025613,25.3850201 931.590651,25.28084 931.185687,25.4147859 L927.121043,26.7988929 L923.686344,24.2241562 C923.341374,23.9711474 922.891414,23.9264987 922.516446,24.1199761 C922.141479,24.3134534 921.9015,24.7004081 921.916499,25.1171285 L921.976494,29.4033955 L918.466801,31.888835 C918.121831,32.126961 917.941847,32.5436814 918.016841,32.9604018 C918.076835,33.3771222 918.376809,33.7194282 918.781774,33.8533741 L922.876415,35.133301 L924.151303,39.2260907 C924.271293,39.6279282 924.616262,39.9255856 925.036226,39.9851171 C925.09622,40 925.156215,40 925.21621,40 C925.576178,40 925.906149,39.8214055 926.116131,39.538631 L928.590914,36.0262733 L932.880538,36.0858048 C933.300501,36.0858048 933.690467,35.8625617 933.88545,35.4756071 C934.065434,35.1184181 934.035437,34.6570491 933.780459,34.3296259" transform="rotate(-45 439.737 1127.417)"/>
</svg>
