<?xml version="1.0" encoding="UTF-8" standalone="no"?>
<svg
   xmlns:dc="http://purl.org/dc/elements/1.1/"
   xmlns:cc="http://creativecommons.org/ns#"
   xmlns:rdf="http://www.w3.org/1999/02/22-rdf-syntax-ns#"
   xmlns:svg="http://www.w3.org/2000/svg"
   xmlns="http://www.w3.org/2000/svg"
   xmlns:xlink="http://www.w3.org/1999/xlink"
   xmlns:sodipodi="http://sodipodi.sourceforge.net/DTD/sodipodi-0.dtd"
   xmlns:inkscape="http://www.inkscape.org/namespaces/inkscape"
   version="1.1"
   id="Layer_1"
   x="0px"
   y="0px"
   width="834"
   height="156"
   viewBox="0 0 834 156"
   enable-background="new 0 0 882 702"
   xml:space="preserve">
<path
   d="m 136.34834,26.143565 c 2.24816,7.545176 -0.60823,17.130629 3.16436,24.067572 l 5.39711,9.585453 c -0.30027,3.372231 -7.75306,3.264443 -3.87268,7.652964 0.60823,3.880376 -3.76489,4.180643 -5.92065,5.612687 1.43204,0.608233 4.08055,-0.408056 4.38852,1.940188 0.30796,3.156655 -4.18065,2.848689 -4.68879,5.912954 0.9162,3.372232 -0.10779,6.936942 -3.37223,8.361287 -8.05332,3.264443 -17.94674,-3.772588 -25.09156,3.164354 -17.230719,15.906466 -27.84016,35.801086 -39.773857,54.563936 -3.164354,0.10779 -5.920653,-2.85638 -8.161108,-5.19693 -3.57241,-3.57241 -6.628976,-8.36128 -4.596398,-13.46583 6.228619,-13.45813 15.298229,-25.69979 26.515904,-37.125342 8.061019,-8.469075 21.934899,-2.956477 31.928409,-6.628976 4.89667,-3.164354 -1.94018,-10.509352 5.60499,-11.525641 0.51584,-1.124078 0.40806,-3.064266 -1.22417,-3.164355 h -2.95647 v -1.016289 c 2.34824,-0.615932 5.4664,-1.347353 6.12083,-3.880376 -0.50045,-1.632222 -1.42435,-3.010371 -0.32337,-4.958258 0,0 3.51852,-2.086472 3.94197,-3.287541 0.70833,-2.001782 -7.86084,-9.716339 -7.2834,-20.010115 0.24637,-4.39622 -2.65621,-18.970728 -8.56916,-26.515904 C 105.43622,44.806327 78.812527,67.449554 54.537078,92.741291 45.867825,103.25064 38.522827,114.26814 32.401996,125.89387 21.28441,124.97767 11.598868,118.44878 5.6782147,108.65545 -1.2510284,95.805557 -0.7505831,78.058995 1.4898722,63.261211 4.045993,51.935748 11.383292,38.577707 24.040709,36.229464 28.421531,35.213175 32.810051,34.189186 37.606628,34.289275 39.546816,31.540676 38.730705,27.6603 40.262837,24.703822 49.540324,3.3848509 72.691696,-0.79579252 94.118455,0.12040741 111.25678,1.4523619 130.23521,8.5971816 136.34834,26.143565"
   id="path1031"
   style="fill:#009b7c;fill-opacity:1"
   clip-path="none" /><path
   d="m 157.02828,39.771077 c -1.94018,9.077308 3.77259,16.322217 7.345,23.767304 -0.30796,0.9162 -1.33195,1.432044 -2.14036,1.732311 -6.4288,1.224166 1.22416,6.528887 -3.6725,8.87713 -1.22417,1.224166 -4.18835,0.307967 -4.18835,2.448333 1.32426,0.200178 3.26445,-0.615933 4.18835,0.9162 0.30026,0.716021 0.50044,1.940188 -0.30797,2.556121 -6.83685,1.324255 -0.81611,8.869431 -6.12083,11.725819 -7.345,2.548421 -15.39832,-1.124077 -22.33526,2.240455 -17.75426,13.56592 -28.45609,32.74452 -39.581378,50.29091 -1.632222,3.6725 -3.772588,7.44508 -3.464622,11.62573 18.46258,1.01629 31.82062,-14.08176 41.81413,-28.24822 10.20139,0.20018 19.89463,-0.72372 28.26362,-4.89666 11.32546,-5.41251 16.83036,-17.13833 18.36249,-28.563883 0.9085,-20.094805 2.23276,-45.286453 -18.16232,-54.47155"
   id="path1033"
   style="fill:#009b7c;fill-opacity:1"
   clip-path="none" /><path
   d="m 289.06116,51.135036 c -7.10632,-3.30294 -16.30682,-4.888966 -23.67491,-4.888966 -21.44216,0 -33.27577,14.520614 -33.27577,33.368155 0,18.655063 11.57184,32.698325 31.1739,32.698325 4.99675,0 8.93872,-0.52354 12.10308,-1.30885 V 87.105507 H 255.91628 V 72.646486 h 37.08685 v 49.397804 c -9.73173,2.62541 -19.85613,4.73498 -29.71875,4.73498 -29.71876,0 -50.3833,-14.85937 -50.3833,-45.848489 0,-31.512658 19.2094,-49.143732 50.3833,-49.143732 10.65564,0 19.07852,1.447442 26.95476,3.834181 l -1.17798,15.513806"
   id="path1035"
   style="fill:#009b7c;fill-opacity:1"
   clip-path="none" /><path
   d="m 307.19268,28.345525 h 17.62338 V 45.175886 H 307.19268 V 28.345525 z m 0,29.179813 h 17.62338 V 125.18555 H 307.19268 V 57.525338 z"
   id="path1037"
   style="fill:#009b7c;fill-opacity:1"
   clip-path="none" /><path
   d="m 338.48977,57.525338 h 15.64469 v 15.37522 h 0.26177 c 0.79301,-6.305611 8.01482,-16.961247 18.53187,-16.961247 1.71692,0 3.55702,0 5.39711,0.531242 v 17.769659 c -1.57832,-0.923899 -4.73498,-1.447442 -7.89163,-1.470539 -14.32044,0 -14.32044,17.885146 -14.32044,27.593787 v 24.82209 H 338.48977 V 57.525338"
   id="path1039"
   style="fill:#009b7c;fill-opacity:1"
   clip-path="none" /><rect
   x="385.03107"
   y="26.61322"
   width="17.623375"
   height="98.572334"
   id="rect1041"
   style="fill:#009b7c;fill-opacity:1"
   clip-path="none" /><path
   d="m 490.30948,50.195738 c -5.78976,-2.502227 -12.24166,-3.949668 -18.70895,-3.949668 -6.33641,0 -14.52832,2.763998 -14.52832,12.765205 0,15.929561 40.3359,9.215894 40.3359,40.01253 0,20.133305 -15.91416,27.747765 -34.51533,27.747765 -10.03201,0 -14.50522,-1.31655 -23.58253,-3.54931 l 1.71692,-16.57629 c 6.31331,3.42613 13.55822,5.65888 20.80312,5.65888 6.99084,0 16.36072,-3.54931 16.36072,-11.8413 0,-17.50789 -40.3205,-10.262981 -40.3205,-40.66696 0,-20.525959 15.91416,-28.01724 32.14399,-28.01724 7.91474,0 15.28283,1.054784 21.9965,3.302939 l -1.70152,15.113449"
   id="path1043"
   style="fill:#009b7c;fill-opacity:1"
   clip-path="none" /><path
   d="m 552.50329,72.092147 c -3.15665,-1.447442 -6.57508,-2.494528 -11.96449,-2.494528 -10.90971,0 -17.87745,8.676952 -17.87745,21.42676 0,12.495731 5.91295,22.088891 18.2778,22.088891 4.98906,0 10.51706,-1.8401 13.54282,-3.15666 l 0.79302,14.58221 c -5.12764,1.57833 -10.39387,2.24045 -17.61568,2.24045 -22.23517,0 -33.40665,-15.11345 -33.40665,-35.754891 0,-19.586661 11.57184,-35.092767 32.74452,-35.092767 7.10633,0 12.22627,0.793013 17.09214,2.248154 l -1.58603,13.912381"
   id="path1045"
   style="fill:#009b7c;fill-opacity:1"
   clip-path="none" /><path
   d="m 559.33244,91.817392 c 0,19.455778 13.01928,34.961878 35.34684,34.961878 22.45075,0 35.47003,-15.5061 35.47003,-34.961878 0,-22.350659 -15.39062,-35.88578 -35.47003,-35.88578 -19.95622,0 -35.34684,13.535121 -35.34684,35.88578 m 18.41639,-2.109569 c 0,-10.116695 5.5126,-20.110204 16.92276,-20.110204 11.54103,0 17.06903,9.724038 17.06903,20.110204 0,11.310067 -3.54931,23.405447 -17.06903,23.405447 -13.38114,0 -16.92276,-12.22627 -16.92276,-23.405447 z"
   id="path1047"
   style="fill:#009b7c;fill-opacity:1"
   clip-path="none" /><path
   d="m 700.18856,125.18555 h -16.69948 v -9.1851 h -0.26177 c -5.38171,6.57508 -13.01158,10.77882 -22.21977,10.77882 -16.04505,0 -23.01279,-11.30236 -23.01279,-26.5467 V 57.525338 h 17.61568 V 93.66519 c 0,8.2766 0.14628,19.44808 11.44095,19.44808 12.75751,0 15.5215,-13.796897 15.5215,-22.473849 V 57.525338 h 17.61568 v 67.660212"
   id="path1049"
   style="fill:#009b7c;fill-opacity:1"
   clip-path="none" /><path
   d="M 717.58866,70.390633 H 704.57708 V 57.525338 h 13.01158 V 43.982517 l 17.61568,-5.651183 v 19.194004 h 15.64469 v 12.865295 h -15.64469 v 31.551157 c 0,5.78206 1.57832,11.17148 8.28429,11.17148 3.15666,0 6.18243,-0.66213 8.02253,-1.8401 l 0.52354,13.91238 c -3.6802,1.04708 -7.76075,1.57833 -13.01928,1.59372 -13.80459,0 -21.42676,-8.54606 -21.42676,-21.9503 V 70.390633"
   id="path1051"
   style="fill:#009b7c;fill-opacity:1"
   clip-path="none" /><path
   d="m 802.45649,71.69949 c -5.39711,-1.847799 -9.34678,-2.902583 -15.76788,-2.902583 -4.68109,0 -10.27837,1.716912 -10.27837,7.498981 0,10.786521 30.51946,3.949668 30.51946,28.402202 0,15.77557 -14.08176,22.08118 -28.30211,22.08118 -6.68287,0 -13.52742,-1.18567 -19.97162,-2.89488 l 1.04709,-14.44362 c 5.528,2.7563 11.31776,4.46551 17.3539,4.46551 4.42702,0 11.45635,-1.70921 11.45635,-8.2843 0,-13.281045 -30.51946,-4.20374 -30.51946,-28.663965 0,-14.589906 12.7498,-21.026403 26.47741,-21.026403 8.2381,0 13.63521,1.316556 19.1555,2.509926 l -1.17027,13.257952"
   id="path1053"
   style="fill:#009b7c;fill-opacity:1"
   clip-path="none" /><path
   d="m 823.15183,103.29684 c -5.97455,0 -10.84811,4.87357 -10.84811,10.84811 0,6.09004 4.65799,10.85582 10.84811,10.85582 5.87446,0 10.84812,-4.98136 10.84812,-10.85582 0.008,-6.12853 -4.71189,-10.84811 -10.84812,-10.84811 m 0,2.09417 c 4.77348,0 8.60766,4.09595 8.60766,8.86173 0,4.77348 -3.83418,8.65386 -8.60766,8.65386 -4.76578,0 -8.59226,-4.08826 -8.59226,-8.86174 0,-4.77347 3.82648,-8.65385 8.59226,-8.65385 z m 4.6195,14.79008 -2.67161,-3.88037 c -0.48505,-0.73912 -0.947,-1.41665 -1.20877,-1.73231 1.99408,-0.20788 3.30294,-1.47054 3.30294,-3.56471 0,-1.8324 -1.14718,-3.04117 -4.03436,-3.04117 h -3.45692 v 12.21856 h 1.94019 v -5.50489 h 0.10778 l 3.55702,5.50489 h 2.46373 z m -2.57152,-8.91562 c 0,0.99319 -0.62364,2.14806 -2.67161,2.14806 h -0.8931 v -3.88037 h 1.41664 c 1.57063,0 2.14807,0.53124 2.14807,1.73231 z"
   id="path1055"
   style="fill:#009b7c;fill-opacity:1"
   clip-path="none" />
</svg>