<svg xmlns="http://www.w3.org/2000/svg" viewBox="0 0 425.2 425.2"><style>.st0{fill:#fff}.st1{fill:#ececec}.st2{fill:#f0b79b}.st3{fill:#0ab0c4}.st4{fill:#f4ca75}.st5{fill:#1e1e1c}.st6{fill:#e5af99}.st7{fill:#f0f0f0}.st8{fill:#593736}</style><g id="Ebene_1"><path id="XMLID_295_" class="st0" d="M319.4 396c0 10.1-1.8 19.8-5.3 28.9H104.2c-3.4-9.1-5.3-18.8-5.3-28.9 0-52 49.3-94.2 110.2-94.2S319.4 344 319.4 396z"/><path id="XMLID_294_" class="st1" d="M215.5 302.1v122.5s71.3.2 98.6.2c2.9 0 5.3-18.8 5.3-28.9 0-50.1-46-91-103.9-93.8z"/><path id="XMLID_293_" class="st0" d="M306.7 404.2c-20.8 0-37.7-14.4-37.7-32.2v-55c-17.2-9.5-37.8-15.2-59.8-15.2-21.7 0-41.8 5.4-58.9 14.7v55.4c0 17.8-16.9 32.2-37.7 32.2-4.7 0-9.1-.8-13.2-2.1.6 7.8 2.3 15.4 5 22.6h209.7c2.7-7.1 4.4-14.6 5-22.4-4 1.4-8.1 2-12.4 2z"/><path id="XMLID_292_" class="st2" d="M130.3 424.6H99.1v-28.2h31.2z"/><path id="XMLID_291_" class="st1" d="M306.7 404.2c-20.8 0-37.7-14.4-37.7-32.2v-55c-10.6-5.9-22.1-10.4-34.8-12.8l-6.6-1c-2.9 6.4-5.3 6.6-9.8 10.4C246 327 262 357.5 262 381.1l-.1 43.6 34.4.2s21.2-3.2 22.8-22.4c-3.9 1.1-8.1 1.7-12.4 1.7z"/><path id="XMLID_290_" transform="rotate(-180 303.611 410.587)" class="st2" d="M288 396.4h31.2v28.4H288z"/><path class="st3" d="M190.1 390.6c-.6 0-1.2-.3-1.6-.9-.5-.9-.3-2 .6-2.6l5.6-3.5c.9-.5 2-.3 2.6.6.5.9.3 2-.6 2.6l-5.6 3.5c-.3.2-.7.3-1 .3zm2.9-11.8c-3.6 0-7.6-.1-7.6-.1-1 0-1.9-.9-1.8-1.9 0-1 .9-1.9 1.9-1.8.1 0 5.5.1 9.5.1 1 0 1.9.8 1.9 1.9 0 1-.8 1.9-1.9 1.9-.7-.1-1.3-.1-2-.1zm2.8-7.8c-.4 0-.7-.1-1-.3 0 0-2.8-1.8-5.4-3-.9-.4-1.4-1.5-1-2.5.4-.9 1.5-1.4 2.5-1 3 1.3 5.9 3.2 6 3.3.9.6 1.1 1.7.5 2.6-.3.6-.9.9-1.6.9zm30.7 1.1c-.6 0-1.2-.3-1.6-.9-.5-.9-.3-2 .6-2.6l5.6-3.5c.9-.5 2-.3 2.6.6.5.9.3 2-.6 2.6l-5.6 3.5c-.3.3-.6.3-1 .3zm10.3 8.5c-.1 0-5.6-.1-9.5-.1-1 0-1.9-.8-1.9-1.9 0-1 .8-1.9 1.9-1.9 4 0 9.5.1 9.6.1 1 0 1.9.9 1.8 1.9-.1 1-.9 1.9-1.9 1.9zm-4.7 10.8c-.3 0-.5-.1-.8-.2-3-1.3-5.9-3.2-6-3.3-.9-.6-1.1-1.7-.5-2.6.6-.9 1.7-1.1 2.6-.5 0 0 2.8 1.8 5.4 3 .9.4 1.4 1.5 1 2.5-.3.7-1 1.1-1.7 1.1zm-19.2 1.5c-7.2 0-10.9-6.4-11.4-12.7-.3-3.9 1.8-10.6 6.4-13 2.3-1.2 6-1.8 10.7 2.1.8.7.9 1.8.3 2.6-.7.8-1.8.9-2.6.3-2.6-2.1-4.8-2.7-6.6-1.7-3 1.5-4.6 6.6-4.4 9.4.3 4.3 2.5 9.3 7.6 9.3 3 0 3.9-3.7 4.2-5.8-1.4-.3-3.4-.7-4.6-.7-1 0-1.9-.8-1.9-1.9s.8-1.9 1.9-1.9c2.6 0 6.6 1.1 7.1 1.3.8.2 1.4 1 1.4 1.8 0 3.7-1.7 10.9-8.1 10.9z"/><path id="XMLID_84_" class="st4" d="M311.2 224c3.2-30.4 0-54.2 0-54.2-5.7-49.5-29.1-56.1-29.1-56.1 5.6 1.5 9.9 4.4 12.8 6.9.4.4 1-.2.7-.6-9.6-12.6-18.5-14.9-18.5-14.9-1.4-12.3-10.8-19.5-19-23.6-1.4-.7-2.6 1.3-1.3 2.2 7.2 5.1 10.8 9.5 10.8 9.5-52.6-37-108.4-5.3-108.4-5.3-55.8 31-48.2 108.3-48.2 108.3 3.2 64.1 6.4 26.5 6.4 26.5s-7.4 24.8 3.3 14.2"/><path id="XMLID_82_" class="st4" d="M289.3 277.3c.1-.5.1-.7.1-.7"/><ellipse id="XMLID_81_" class="st2" cx="209.1" cy="203.8" rx="83.5" ry="92"/><ellipse id="XMLID_80_" class="st5" cx="176.3" cy="207.3" rx="8.4" ry="8.5"/><ellipse id="XMLID_79_" class="st5" cx="245" cy="207.3" rx="8.4" ry="8.5"/><path id="XMLID_78_" class="st6" d="M225.6 113.7c24.3 16.1 40.6 45.3 40.6 78.8 0 50.8-37.4 92-83.5 92-5.7 0-11.2-.6-16.5-1.8 12.6 8.3 27.2 13.2 42.9 13.2 46.1 0 83.5-41.2 83.5-92 0-44.6-28.8-81.7-67-90.2z"/><ellipse id="XMLID_77_" class="st2" cx="125" cy="222.8" rx="20.8" ry="23"/><ellipse id="XMLID_76_" class="st6" cx="295.1" cy="222.8" rx="20.8" ry="23"/><path id="XMLID_75_" class="st4" d="M125 200.9s1 6.7 4.1 11.3c0 0 .7-47.4 20.9-77.5 0 0-12.8 9.5-9.4 18.1 0 0 14.6-.8 23-6.1 12.7-8 27.2-10.1 41.7-11.2 10.1-.8 24.8-3.3 43.4-13 0 0 36.4 29.4 42 88 0 0 2.3-3.7 1.9-9.5l8.8-14.1-12.9-46-29.8-31.1-29.3-9.2H188l-30.4 9.2-15 15.5-13.6 24.6-11.7 27.3v12l7.7 11.7z"/><path id="XMLID_62_" class="st0" d="M191.7 253.2c0 8.3 10.4 15 18.3 15s18.3-6.7 18.3-15h-36.6z"/><path id="XMLID_56_" class="st6" d="M230.2 282.1v25.1c0 11.1-9.5 20-21.2 20s-21.2-9-21.2-20v-23.3l42.4-1.8z"/><path id="XMLID_55_" class="st4" d="M173.1 286.9v-36.5c0-2.2 3.4-4.1 5.4-4.7L206 241c.4-.1.7.4.4.8l-2.3 2.7c-.9 1.1-2.2 1.8-3.5 2l-20.5 3.1v20.8c0 6 2.8 7.4 8.2 9.4.8.3 1.4.4 1.9.5 1.8.4 3.9.8 7 .9 4.4.1 6.6.2 7.3-.7 1.3-1.6 1.1-3.4 1-6.6 0-1.4 1.1-2.6 2.5-2.6h3.3c1.7 0 3 .5 2.9 3.1-.1 1.7.1 3.7.4 5.9.2 1.6 2.6 1.3 6.4 1.1 3.6-.3 7.3-1 14.4-4 4.4-2.6 7.3-4 7.3-9.3v-19.4l-23.3-2.2c-1.5-.1-2.9-.9-3.8-2l-2.2-2.6c-.3-.3 0-.8.4-.8l29.5 3.8c2 .6 5.4 2.5 5.4 4.7V285s-16.7 11-36.8 11.2c-1.2 0-2.3-.1-3.5 0-4.7.1-23.2-2-35.3-9.3z"/><path id="XMLID_54_" class="st4" d="M290.7 207.7s-15.9 43.2-42 51.8v25.4c0-.1 42.9-21.6 42-77.2z"/><path id="XMLID_52_" class="st4" d="M128.8 208.4s18.2 43.4 44.3 51.9v26.6s-50.2-24.6-44.3-78.5z"/><path class="st7" d="M163.6 226.8c10-9.7 18-21.4 23-34.2-7.6-1-16.4-.9-22.8-.4-12.4.9-9.9 15.6-9.9 15.6 1.4 10.1 4.1 16 9.7 19z"/><path class="st0" d="M186.6 192.6c-5 12.8-13 24.5-23 34.2 3.5 1.9 8.3 2.7 14.5 2.7 6.9-10.9 12.8-22.4 16.4-35.1-2.3-.8-5-1.4-7.9-1.8z"/><path class="st7" d="M202.4 201.1c-.7-3.1-3.7-5.3-7.8-6.7-3.7 12.6-9.5 24.2-16.4 35.1h2c16.8-.6 24.4-18.5 22.2-28.4zm26.7 23.8c12.1-9.2 23.2-19.6 30.3-32.5-.4-.1-.8-.1-1.3-.1-13.1-.9-36.4-.7-38.6 8.9-1.5 6.8 1.8 17.6 9.6 23.7z"/><path class="st0" d="M259.4 192.3c-7.2 12.9-18.2 23.3-30.3 32.5 2.4 1.9 5.3 3.3 8.7 4 9.5-10.8 17.8-22.7 26.6-34.5-1.3-.9-2.9-1.6-5-2z"/><path class="st7" d="M264.4 194.5c-8.8 11.7-17.1 23.7-26.6 34.5 1.3.3 2.7.5 4.1.5 17.6.6 23.9-4.4 26.2-21.7-.1 0 1.5-9-3.7-13.3z"/><path class="st8" d="M251.4 188.7c-15.4-.9-26.4 3.3-31.6 4.2-.8.1-1.6.2-2.3.3-3.9.7-8.3.6-12.2.1-.2 0-.4-.1-.5-.1-.8-.1-1.7-.1-2.6-.3-5.2-.9-16.2-5.1-31.6-4.2-15.4.9-22.1 1.5-24.2 1.4 0 0-1.7 5.2-.9 9 0 0 4.1 1.5 4.6 5.6s2.7 19 10.1 23.6c7.4 4.6 27.4 6.1 35.2-1.4 7.8-7.4 8.3-12.6 9.4-14.8 1.1-2.2 2.5-5.3 6.2-5.3 3.8-.1 5.1 3.1 6.2 5.3 1.1 2.2 1.6 7.3 9.4 14.8 7.8 7.4 27.8 5.9 35.2 1.4 7.4-4.6 9.6-19.5 10.1-23.6.5-4.1 4.6-5.6 4.6-5.6.9-3.8-.9-9-.9-9-2.1.1-8.7-.5-24.2-1.4zm-71.3 40.7c-17.6.6-23.9-4.4-26.2-21.7 0 0-2.6-14.7 9.9-15.6 13.1-.9 36.4-.7 38.6 8.9 2.2 10-5.4 27.9-22.3 28.4zm87.9-21.6c-2.3 17.3-8.6 22.2-26.2 21.7-16.9-.5-24.6-18.4-22.3-28.3 2.2-9.6 25.5-9.8 38.6-8.9 12.5.7 9.9 15.5 9.9 15.5z"/></g></svg>