<svg xmlns="http://www.w3.org/2000/svg" viewBox="0 0 425.2 425.2"><style>.st0{fill:#da9381}.st1{fill:#fff}.st2{fill:#ececec}.st3{fill:#cd8c79}.st4{fill:none;stroke:#fff;stroke-width:.5248;stroke-linecap:round;stroke-linejoin:round;stroke-miterlimit:10}.st5{fill:#f4ca75}.st6{fill:#0ab0c4}.st7{fill:#333233}</style><g id="Ebene_1"><path id="XMLID_250_" class="st0" d="M292 207.4c0 52.8-37.4 93.5-83.6 93.5s-83.6-40.8-83.6-93.5 21.4-106.5 83.6-106.5c46.2 0 83.6 53.8 83.6 106.5z"/><path id="XMLID_249_" class="st1" d="M318.5 396.5c0 10.1-1.8 19.8-5.3 28.9H103.3c-3.4-9.1-5.3-18.8-5.3-28.9 0-52 49.3-94.2 110.2-94.2s110.3 42.2 110.3 94.2z"/><path id="XMLID_248_" class="st2" d="M214.6 302.6v122.5s71.3.2 98.6.2c2.9 0 5.3-18.8 5.3-28.9 0-50.1-46-91-103.9-93.8z"/><path id="XMLID_247_" class="st1" d="M305.8 404.7c-20.8 0-37.7-14.4-37.7-32.2v-55c-17.2-9.5-37.8-15.2-59.8-15.2-21.7 0-41.8 5.4-58.9 14.7v55.4c0 17.8-16.9 32.2-37.7 32.2-4.7 0-9.1-.8-13.2-2.1.6 7.8 2.3 15.4 5 22.6h209.7c2.7-7.1 4.4-14.6 5-22.4-4 1.4-8.1 2-12.4 2z"/><path id="XMLID_244_" class="st3" d="M225 102.8c24.3 16.7 40.6 47.1 40.6 81.8 0 52.8-37.4 104.5-83.6 104.5-5.7 0-15.8-3.3-21.2-4.6 14.3 11.8 31.8 16.4 47.6 16.4 46.2 0 83.6-41.8 83.6-94.5 0-46.3-28.8-94.8-67-103.6z"/><ellipse id="XMLID_243_" class="st0" cx="124.2" cy="213.7" rx="20.9" ry="22"/><ellipse id="XMLID_242_" class="st3" cx="294.5" cy="213.7" rx="20.9" ry="22"/><path id="XMLID_144_" class="st0" d="M129.4 425.1H98.2v-28.2h31.2z"/><path id="XMLID_143_" class="st2" d="M305.8 404.7c-20.8 0-37.7-14.4-37.7-32.2v-54.9c-10.6-5.9-22.1-10.4-34.8-12.8l-6.6-1c-2.9 6.4-5.3 6.6-9.8 10.4 28.2 13.4 44.2 43.9 44.2 67.5l-.1 43.6 34.4.2s21.2-3.2 22.8-22.4c-3.9 1-8.1 1.6-12.4 1.6z"/><path id="XMLID_142_" class="st1" d="M191 254.9c0 7.9 10.4 14.4 18.3 14.4s18.3-6.4 18.3-14.4H191z"/><path id="XMLID_136_" transform="rotate(-180 302.726 411.07)" class="st3" d="M287.1 396.9h31.2v28.4h-31.2z"/><path id="XMLID_135_" class="st4" d="M205.3 414H229"/><path id="XMLID_133_" class="st3" d="M229.2 287.2v17.1c0 12.2-9.4 22.1-20.9 22.1s-20.9-9.9-20.9-22.1V295l41.8-7.8z"/><path class="st6" d="M189.2 391.1c-.6 0-1.2-.3-1.6-.9-.5-.9-.3-2 .6-2.6l5.6-3.5c.9-.5 2-.3 2.6.6.5.9.3 2-.6 2.6l-5.6 3.5c-.3.2-.7.3-1 .3zm2.9-11.8c-3.6 0-7.6-.1-7.6-.1-1 0-1.9-.9-1.8-1.9 0-1 .9-1.9 1.9-1.8.1 0 5.5.1 9.5.1 1 0 1.9.8 1.9 1.9 0 1-.8 1.9-1.9 1.9-.6-.1-1.3-.1-2-.1zm2.9-7.8c-.4 0-.7-.1-1-.3 0 0-2.8-1.8-5.4-3-.9-.4-1.4-1.5-1-2.5.4-.9 1.5-1.4 2.5-1 3 1.3 5.9 3.2 6 3.3.9.6 1.1 1.7.5 2.6-.4.6-1 .9-1.6.9zm30.6 1.1c-.6 0-1.2-.3-1.6-.9-.5-.9-.3-2 .6-2.6l5.6-3.5c.9-.5 2-.3 2.6.6.5.9.3 2-.6 2.6l-5.6 3.5c-.3.2-.6.3-1 .3zm10.3 8.4c-.1 0-5.6-.1-9.5-.1-1 0-1.9-.8-1.9-1.9 0-1 .8-1.9 1.9-1.9 4 0 9.5.1 9.6.1 1 0 1.9.9 1.8 1.9 0 1.1-.9 1.9-1.9 1.9zm-4.7 10.9c-.3 0-.5-.1-.8-.2-3-1.3-5.9-3.2-6-3.3-.9-.6-1.1-1.7-.5-2.6.6-.9 1.7-1.1 2.6-.5 0 0 2.8 1.8 5.4 3 .9.4 1.4 1.5 1 2.5-.3.7-1 1.1-1.7 1.1zm-19.2 1.4c-7.2 0-10.9-6.4-11.4-12.7-.3-3.9 1.8-10.6 6.4-13 2.3-1.2 6-1.8 10.7 2.1.8.7.9 1.8.3 2.6-.7.8-1.8.9-2.6.3-2.6-2.1-4.8-2.7-6.6-1.7-3 1.5-4.6 6.6-4.4 9.4.3 4.3 2.5 9.3 7.6 9.3 3 0 3.9-3.7 4.2-5.8-1.4-.3-3.4-.7-4.6-.7-1 0-1.9-.8-1.9-1.9 0-1 .8-1.9 1.9-1.9 2.6 0 6.6 1.1 7.1 1.3.8.2 1.4 1 1.4 1.8 0 3.7-1.7 10.9-8.1 10.9z"/><path class="st7" d="M275.7 149.9s4.6 16.5 7.3 32.5c1.2 7 2 13.3 2.5 18.1.3 2.9 3.9 4.1 5.9 2 .6-.6 1.1-.9 1.4-.8 0 0 .8-44.2-6.2-60-2.3-5.5-10.9-.1-10.9 8.2m-4.1-49.8c-15.9-10.3-69.3-27.5-111.4 2-20.5 14.4-28 27.8-28.9 36.9-.5.4-3.4 3.2-5.2 12.9-.5 2.7-2.8 22-2.2 44.5.3 10.9 6.2 13.2 7.9 7 0 0 6.1-35.1 6.5-41.7.2-3.1 1-18 5.1-22.3 7.8-8.3 23.8 16.4 61.9 17 40.3.6 40.2-6.4 63.1-17 11.2-5.1 29.2-22.5 3.2-39.3z"/><path class="st7" d="M238.1 153.8c5.8-2.7 10.2-3.4 13.9-5.8 15.7-10.3 21-6.1 24.5 4.3 4.2 12.6 12.4 7.3 12.7-2.4.3-9.7-9.4-29.6-9.4-29.6l-29.5 11.2-12.2 22.3"/><ellipse id="XMLID_175_" cx="179.5" cy="211.6" rx="7.5" ry="7.9"/><ellipse id="XMLID_174_" cx="238.4" cy="211.6" rx="7.5" ry="7.9"/></g></svg>