<svg xmlns="http://www.w3.org/2000/svg" viewBox="0 0 425.2 425.2"><style>.st0{fill:#f0b79b}.st1{fill:#fff}.st2{fill:#ececec}.st3{fill:#e5af99}.st4{fill:none;stroke:#fff;stroke-width:.5248;stroke-linecap:round;stroke-linejoin:round;stroke-miterlimit:10}.st5{fill:#f4ca75}.st6{fill:#0ab0c4}.st7{fill:#dcae75}.st8{opacity:.43;fill:#ddc07b}.st9{fill:#593736}</style><g id="Ebene_2"><ellipse id="XMLID_220_" class="st0" cx="208.4" cy="204.7" rx="83.6" ry="88.2"/><path id="XMLID_219_" class="st1" d="M300.4 396.6c0 10.1-1.5 19.8-4.3 28.9H126.3c-2.8-9.1-4.3-18.8-4.3-28.9 0-52 39.9-94.2 89.2-94.2s89.2 42.2 89.2 94.2z"/><path id="XMLID_218_" class="st2" d="M216.3 302.7v122.5s57.7.2 79.8.2c2.4 0 4.3-18.8 4.3-28.9 0-50.1-37.2-91-84.1-93.8z"/><path id="XMLID_217_" class="st1" d="M290.1 404.8c-16.9 0-30.5-14.4-30.5-32.2v-55c-14-9.5-30.6-15.2-48.4-15.2-17.5 0-33.9 5.4-47.7 14.7v55.4c0 17.8-13.7 32.2-30.5 32.2-3.8 0-7.4-.8-10.7-2.1.5 7.8 1.9 15.4 4.1 22.6H296c2.2-7.1 3.5-14.6 4-22.4-3.1 1.4-6.4 2-9.9 2z"/><ellipse id="XMLID_216_" cx="176.7" cy="210.9" rx="7.5" ry="7.9"/><ellipse id="XMLID_215_" cx="241.7" cy="210.9" rx="7.5" ry="7.9"/><path id="XMLID_214_" class="st3" d="M224.9 118.2c24.3 15.4 40.6 43.5 40.6 75.6 0 48.7-37.4 88.2-83.6 88.2-5.7 0-11.2-.6-16.5-1.7 12.6 8 27.2 12.6 42.9 12.6 46.2 0 83.6-39.5 83.6-88.2.1-42.8-28.7-78.4-67-86.5z"/><ellipse id="XMLID_213_" class="st0" cx="124.2" cy="222.9" rx="20.9" ry="22"/><ellipse id="XMLID_212_" class="st3" cx="294.4" cy="222.9" rx="20.9" ry="22"/><path id="XMLID_211_" class="st0" d="M147.4 425.2h-25.3V397h25.3z"/><path id="XMLID_210_" class="st2" d="M290.1 404.8c-16.9 0-30.5-14.4-30.5-32.2v-54.9c-8.6-5.9-17.9-10.4-28.1-12.8l-5.3-1c-2.3 6.4-4.3 6.6-8 10.4 22.8 13.4 35.8 43.9 35.8 67.5l-.1 43.6 27.8.2s17.2-3.2 18.4-22.4c-3.1 1-6.5 1.6-10 1.6z"/><path id="XMLID_209_" class="st1" d="M191 255c0 7.9 10.4 14.4 18.3 14.4s18.3-6.4 18.3-14.4H191z"/><path id="XMLID_208_" transform="rotate(-180 287.624 411.182)" class="st3" d="M275 397h25.2v28.4H275z"/><path id="XMLID_207_" class="st4" d="M208.8 414.1h19.1"/><path id="XMLID_206_" class="st3" d="M227 281.5V305c0 10.3-7.9 18.7-17.7 18.7-9.8 0-17.7-8.4-17.7-18.7v-21.7l35.4-1.8z"/><path class="st0" d="M209.3 239.1l-8-4 8-6 8 6z"/><path class="st6" d="M189.2 391.2c-.6 0-1.2-.3-1.6-.9-.5-.9-.3-2 .6-2.6l5.6-3.5c.9-.5 2-.3 2.6.6.5.9.3 2-.6 2.6l-5.6 3.5c-.4.2-.7.3-1 .3zm2.9-11.8c-3.6 0-7.6-.1-7.6-.1-1 0-1.9-.9-1.8-1.9 0-1 .9-1.9 1.9-1.8.1 0 5.5.1 9.5.1 1 0 1.9.8 1.9 1.9 0 1-.8 1.9-1.9 1.9-.7-.1-1.4-.1-2-.1zm2.8-7.8c-.4 0-.7-.1-1-.3 0 0-2.8-1.8-5.4-3-.9-.4-1.4-1.5-1-2.5.4-.9 1.5-1.4 2.5-1 3 1.3 5.9 3.2 6 3.3.9.6 1.1 1.7.5 2.6-.4.6-1 .9-1.6.9zm30.7 1.1c-.6 0-1.2-.3-1.6-.9-.5-.9-.3-2 .6-2.6l5.6-3.5c.9-.5 2-.3 2.6.6.5.9.3 2-.6 2.6l-5.6 3.5c-.3.2-.7.3-1 .3zm10.3 8.5s-.1 0 0 0c-.1 0-5.6-.1-9.5-.1-1 0-1.9-.8-1.9-1.9 0-1 .8-1.9 1.9-1.9 4 0 9.5.1 9.6.1 1 0 1.9.9 1.8 1.9-.1 1-.9 1.9-1.9 1.9zm-4.8 10.8c-.3 0-.5-.1-.8-.2-3-1.3-5.9-3.2-6-3.3-.9-.6-1.1-1.7-.5-2.6.6-.9 1.7-1.1 2.6-.5 0 0 2.8 1.8 5.4 3 .9.4 1.4 1.5 1 2.5-.3.7-.9 1.1-1.7 1.1zm-19.1 1.5c-7.2 0-10.9-6.4-11.4-12.7-.3-3.9 1.8-10.6 6.4-13 2.3-1.2 6-1.8 10.7 2.1.8.7.9 1.8.3 2.6-.7.8-1.8.9-2.6.3-2.6-2.1-4.8-2.7-6.6-1.7-3 1.5-4.6 6.6-4.4 9.4.3 4.3 2.5 9.3 7.6 9.3 3 0 3.9-3.7 4.2-5.8-1.4-.3-3.4-.7-4.6-.7-1 0-1.9-.8-1.9-1.9 0-1 .8-1.9 1.9-1.9 2.6 0 6.6 1.1 7.1 1.3.8.2 1.4 1 1.4 1.8-.1 3.7-1.7 10.9-8.1 10.9z"/><path class="st7" d="M138.9 210.3c-3.4-11.4.9-69.3 23.3-68.9 22.4.4 28.9 7 42.4 1.6s35.2-4 41.3 1.3c6.1 5.4 21.3 15.3 29.6 15.3s3.2 47 6.8 55.8c2.3 5.6 4.2-2.8 8.2-11.6 4.2-9.3 4.7-40.8 7.8-46 3.1-5.2.2-14.4-2.5-23.6-3.3-11.3-39.6-62.5-101.4-55.9-51.4 5.5-42.2 33.9-42.2 33.9s-19.1.9-27.1 14.8c-8.1 13.9-10.5 28.7-6.1 44 4.5 15.3.7 26 5 29.8 4.5 3.8 18.3 20.9 14.9 9.5z"/><path class="st8" d="M169.6 134.3s-16.2-15.2-11.4-30.1c5.3-16.5 43-26.3 70-18.7 28.2 8 59.9 27.3 68.3 65.3 0 0-19.5-49-76.7-52.8-40.1-2.7-58 15.1-50.2 36.3z"/><path class="st8" d="M196.5 140.1s-11.7-5-11.8-16.8c-.1-14.1 35-25.2 66.3-6.4 28 16.9 18.5 39.3 43.7 37 0 0-12.1 6.8-22.5.2s-31-43.3-63.8-32.2c-20.6 7-11.9 18.2-11.9 18.2z"/><path class="st9" d="M152.7 212.3c-.1 7 5.5 27 28.6 24.7 21.8-2.1 22.1-29.1 22.1-29.1s-2.2-.6-2-4.6c.2-3.2 5.7-3.8 7.9-3.9 2.2.1 7.7.7 7.9 3.9.3 4.1-2 4.6-2 4.6s.3 26.9 22.1 29.1c23.1 2.3 28.8-17.7 28.6-24.7-.1-7 3.1-8.8 4.8-9 2-3.5 0-6.2 0-6.2s-1.7.6-4.8-1.1c-3.1-1.7-12.5-7.7-23.2-8.1-11.7-.4-17 4.6-19.5 6.8s-6.4-.2-13.8-.1h-.2c-7.4-.1-11.3 2.4-13.8.1-2.5-2.2-7.8-7.2-19.5-6.8-10.7.3-20.1 6.4-23.2 8.1-3.1 1.7-4.8 1.1-4.8 1.1s-2 2.7 0 6.2c1.7.2 4.9 2 4.8 9zm88.2-20.3c11.3 0 20.5 9.2 20.5 20.5s-9.2 20.5-20.5 20.5-20.5-9.2-20.5-20.5 9.2-20.5 20.5-20.5zm-63.2 0c11.3 0 20.5 9.2 20.5 20.5S189 233 177.7 233s-20.5-9.2-20.5-20.5 9.2-20.5 20.5-20.5z"/></g></svg>