<svg xmlns="http://www.w3.org/2000/svg" viewBox="0 0 425.2 425.2"><style>.st0{fill:#fbcfa7}.st1{fill:#fff}.st2{fill:#ececec}.st3{fill:#eec6a3}.st4{fill:#f4ca75}.st5{fill:#0ab0c4}.st6{fill:#333233}.st7{fill:#f0f0f0}.st8{fill:#593736}</style><g id="Ebene_1"><path id="XMLID_204_" class="st0" d="M298.5 208.6c0 52.8-37.4 93.5-83.6 93.5s-83.6-40.8-83.6-93.5 21.4-106.5 83.6-106.5c46.2 0 83.6 53.7 83.6 106.5z"/><path id="XMLID_203_" class="st1" d="M324.8 396.6c0 10.1-1.8 19.8-5.3 28.9H109.6c-3.4-9.1-5.3-18.8-5.3-28.9 0-52 49.3-94.2 110.2-94.2s110.3 42.2 110.3 94.2z"/><path id="XMLID_202_" class="st2" d="M221 302.8v122.5s71.3.2 98.6.2c2.9 0 5.3-18.8 5.3-28.9-.1-50.1-46-91-103.9-93.8z"/><path id="XMLID_201_" class="st1" d="M312.2 404.9c-20.8 0-37.7-14.4-37.7-32.2v-55c-17.2-9.5-37.8-15.2-59.8-15.2-21.7 0-41.8 5.4-58.9 14.7v55.4c0 17.8-16.9 32.2-37.7 32.2-4.7 0-9.1-.8-13.2-2.1.6 7.8 2.3 15.4 5 22.6h209.7c2.7-7.1 4.4-14.6 5-22.4-4 1.3-8.1 2-12.4 2z"/><ellipse id="XMLID_200_" cx="183.1" cy="212.7" rx="7.5" ry="5.1"/><ellipse id="XMLID_199_" cx="248.1" cy="212.7" rx="7.5" ry="5.1"/><path id="XMLID_198_" class="st3" d="M231.3 102.9c24.3 16.7 40.6 47.1 40.6 81.8 0 52.8-37.4 104.5-83.6 104.5-5.7 0-15.8-3.3-21.2-4.6 14.3 11.8 31.8 16.4 47.6 16.4 46.2 0 83.6-41.8 83.6-94.5.1-46.2-28.7-94.8-67-103.6z"/><ellipse id="XMLID_197_" class="st0" cx="130.6" cy="213.9" rx="20.9" ry="22"/><ellipse id="XMLID_196_" class="st3" cx="300.8" cy="213.9" rx="20.9" ry="22"/><path id="XMLID_195_" class="st0" d="M135.7 425.3h-31.2v-28.2l31.2-.1z"/><path id="XMLID_194_" class="st2" d="M312.2 404.9c-20.8 0-37.7-14.4-37.7-32.2v-54.9c-10.6-5.9-22.1-10.4-34.8-12.8l-6.6-1c-2.9 6.4-5.3 6.6-9.8 10.4 28.2 13.4 44.2 43.9 44.2 67.5l-.1 43.6 34.4.2s21.2-3.2 22.8-22.4c-4 .9-8.1 1.6-12.4 1.6z"/><path id="XMLID_193_" class="st1" d="M197.4 255.1c0 7.9 10.4 14.4 18.3 14.4s18.3-6.4 18.3-14.4h-36.6z"/><path id="XMLID_192_" transform="rotate(-180 309.091 411.242)" class="st0" d="M293.5 397h31.2v28.4h-31.2z"/><path id="XMLID_191_" class="st3" d="M235.6 287.4v17.1c0 12.2-9.4 22.1-20.9 22.1s-20.9-9.9-20.9-22.1v-9.2l41.8-7.9z"/><path class="st5" d="M195.6 391.3c-.6 0-1.2-.3-1.6-.9-.5-.9-.3-2 .6-2.6l5.6-3.5c.9-.5 2-.3 2.6.6.5.9.3 2-.6 2.6l-5.6 3.5c-.4.2-.7.3-1 .3zm2.9-11.8c-3.6 0-7.6-.1-7.6-.1-1 0-1.9-.9-1.8-1.9 0-1 .9-1.9 1.9-1.8.1 0 5.5.1 9.5.1 1 0 1.9.8 1.9 1.9 0 1-.8 1.9-1.9 1.9-.7-.1-1.4-.1-2-.1zm2.8-7.9c-.4 0-.7-.1-1-.3 0 0-2.8-1.8-5.4-3-.9-.4-1.4-1.5-1-2.5.4-.9 1.5-1.4 2.5-1 3 1.3 5.9 3.2 6 3.3.9.6 1.1 1.7.5 2.6-.4.6-1 .9-1.6.9zm30.7 1.2c-.6 0-1.2-.3-1.6-.9-.5-.9-.3-2 .6-2.6l5.6-3.5c.9-.5 2-.3 2.6.6.5.9.3 2-.6 2.6l-5.6 3.5c-.3.2-.7.3-1 .3zm10.3 8.4s-.1 0 0 0c-.1 0-5.6-.1-9.5-.1-1 0-1.9-.8-1.9-1.9 0-1 .8-1.9 1.9-1.9 4 0 9.5.1 9.6.1 1 0 1.9.9 1.8 1.9-.1 1.1-.9 1.9-1.9 1.9zm-4.8 10.9c-.3 0-.5-.1-.8-.2-3-1.3-5.9-3.2-6-3.3-.9-.6-1.1-1.7-.5-2.6.6-.9 1.7-1.1 2.6-.5 0 0 2.8 1.8 5.4 3 .9.4 1.4 1.5 1 2.5-.3.7-.9 1.1-1.7 1.1zm-19.1 1.4c-7.2 0-10.9-6.4-11.4-12.7-.3-3.9 1.8-10.6 6.4-13 2.3-1.2 6-1.8 10.7 2.1.8.7.9 1.8.3 2.6-.7.8-1.8.9-2.6.3-2.6-2.1-4.8-2.7-6.6-1.7-3 1.5-4.6 6.6-4.4 9.4.3 4.3 2.5 9.3 7.6 9.3 3 0 3.9-3.7 4.2-5.8-1.4-.3-3.4-.7-4.6-.7-1 0-1.9-.8-1.9-1.9 0-1 .8-1.9 1.9-1.9 2.6 0 6.6 1.1 7.1 1.3.8.2 1.4 1 1.4 1.8-.1 3.7-1.7 10.9-8.1 10.9z"/><path class="st6" d="M144.1 165.4c.3-2.1.5-4.2.7-6.4.4-5.5 1.6-15.9 4.9-19.4 7.8-8.3 23.1 5.8 61.2 6.3 26.8.3 37.4 0 63.7-6.3 12.1-2.9 5.3-32.1-26.3-39.4-18.4-4.3-44-11.3-81.8 2-23.7 8.4-28 27.8-28.9 36.9-.5.4-3.4 3.2-5.2 12.9 0 0-2.4 9.1-1.8 39.8 0 0 3.1-.7 7.3 7 0 0 .8-1 1.8-2.3l4.4-31.1z"/><path class="st7" d="M165.2 227c10-8.1 18-17.9 23-28.5-7.6-.9-16.4-.7-22.8-.4-12.4.7-9.9 13-9.9 13 1.4 8.5 4.1 13.4 9.7 15.9z"/><path class="st1" d="M188.2 199.2c-5 12.8-13 24.5-23 34.2 3.5 1.9 8.3 2.7 14.5 2.7 6.9-10.9 12.8-22.4 16.4-35.1-2.3-.9-5-1.4-7.9-1.8z"/><path class="st7" d="M204 205.6c-.7-2.6-3.7-4.4-7.8-5.6-3.7 10.5-9.5 20.2-16.4 29.2h2c16.8-.4 24.5-15.3 22.2-23.6zm26.7 19.8c12.1-7.7 23.2-16.4 30.3-27.1-.4-.1-.8-.1-1.3-.1-13.1-.8-36.4-.6-38.6 7.4-1.5 5.8 1.8 14.7 9.6 19.8z"/><path class="st1" d="M261.1 198.9c-7.2 12.9-18.2 23.3-30.3 32.5 2.4 1.9 5.3 3.3 8.7 4 9.5-10.8 17.8-22.7 26.6-34.5-1.3-.9-3-1.7-5-2z"/><path class="st7" d="M266 200c-8.8 9.8-17.1 19.7-26.6 28.7 1.3.2 2.7.4 4.1.4 17.6.5 23.9-3.7 26.2-18.1 0 .1 1.5-7.3-3.7-11z"/><path class="st8" d="M151.6 208.5c.8 3.7 2.7 15.9 10.1 19.7 7.4 3.8 27.4 5 35.2-1.1 7.8-6.2 8.3-10.5 9.4-12.3 1.1-1.8 2.5-4.4 6.2-4.4 3.8-.1 5.1 2.6 6.2 4.4 1.1 1.8 1.6 6.1 9.4 12.3 7.8 6.2 27.8 4.9 35.2 1.1 7.4-3.8 9.6-16.3 10.1-19.7s.9-6.8.9-6.8c.3-3.2 0-4.2-1.3-4.6-.3-.1-1.3-.3-1.6-.4-4.7-.5-3.5-.8-18.5-1.5-15.4-.7-26.4 2.8-31.6 3.5-.8.1-1.6.2-2.3.2-3.9.6-8.3.5-12.2.1-.2 0-.4-.1-.5-.1-.8-.1-1.7-.1-2.6-.3-5.2-.7-16.2-4.2-31.6-3.5-11.3.5-14.5 1.1-18.1 1.3-1.8.1-3.6 1.2-3.9 2.6-.2.9 0 2 .2 2.9v.2c.1.9.2 1.8.4 2.6l.9 3.8zm30.1 20.7c-17.6.5-23.9-3.7-26.2-18.1 0 0-2.6-12.3 9.9-13 13.1-.8 36.4-.6 38.6 7.4 2.3 8.4-5.4 23.3-22.3 23.7zm88-18.1c-2.3 14.4-8.6 18.5-26.2 18.1-16.9-.4-24.6-15.3-22.3-23.6 2.2-8 25.5-8.2 38.6-7.4 12.4.7 9.9 12.9 9.9 12.9z"/><path class="st3" d="M291.1 198.9l3 1.9-.5 1.6-3.3-.4v-2z"/><path class="st6" d="M142.5 122.4l-10.1 29.7 7.7 2.5 4.5-19.5zm142 41.4c-.2-1.5-.3-3.1-.4-4.6-.4-5.4-4.8-18-9.4-19.5-7.6-2.5-18.6 5.8-56.7 6.3-26.8.3-37.4 0-63.7-6.3-12.1-2.9-5.3-32.1 26.3-39.4 18.4-4.3 44-11.3 81.8 2 18.2 6.4 25 19.4 27.5 29.2 1.1 4.2 2.6 8.3 4.2 12.4.8 1.9 1.6 4.6 2.3 8.3 0 0 2.4 9.1 1.8 39.8 0 0-3.1-.7-7.3 7 0 0-.8-1-1.8-2.3l-4.6-32.9z"/></g></svg>