<svg xmlns="http://www.w3.org/2000/svg" viewBox="0 0 425.2 425.2"><style>.st0{fill:#f0b79b}.st1{fill:#fff}.st2{fill:#ececec}.st3{fill:#e5af99}.st4{fill:#f4ca75}.st5{fill:#0ab0c4}.st6{fill:#d1a16a}</style><g id="Ebene_1"><path id="XMLID_115_" class="st0" d="M292 204.4c0 48.7-37.4 88.2-83.6 88.2s-83.6-62-83.6-88.2c0-48.7 37.4-88.2 83.6-88.2s83.6 39.5 83.6 88.2z"/><path id="XMLID_114_" class="st1" d="M300.4 396.3c0 10.1-1.5 19.8-4.3 28.9H126.3c-2.8-9.1-4.3-18.8-4.3-28.9 0-52 39.9-94.2 89.2-94.2s89.2 42.2 89.2 94.2z"/><path id="XMLID_113_" class="st2" d="M216.4 302.5V425s57.7.2 79.8.2c2.4 0 4.3-18.8 4.3-28.9-.1-50.1-37.3-91-84.1-93.8z"/><path id="XMLID_112_" class="st1" d="M290.2 404.6c-16.9 0-30.5-14.4-30.5-32.2v-55c-14-9.5-30.6-15.2-48.4-15.2-17.5 0-33.9 5.4-47.7 14.7v55.4c0 17.8-13.7 32.2-30.5 32.2-3.8 0-7.4-.8-10.7-2.1.5 7.8 1.9 15.4 4.1 22.6h169.6c2.2-7.1 3.5-14.6 4-22.4-3.1 1.4-6.5 2-9.9 2z"/><ellipse id="XMLID_111_" cx="176.7" cy="210.6" rx="7.5" ry="7.9"/><ellipse id="XMLID_110_" cx="241.7" cy="210.6" rx="7.5" ry="7.9"/><path id="XMLID_109_" class="st3" d="M225 117.9c24.3 15.4 40.6 43.5 40.6 75.6 0 48.7-37.4 88.2-83.6 88.2-5.7 0-11.2-.6-16.5-1.7 12.6 8 27.2 12.6 42.9 12.6 46.2 0 83.6-39.5 83.6-88.2 0-42.7-28.8-78.4-67-86.5z"/><ellipse id="XMLID_108_" class="st0" cx="126.2" cy="222.6" rx="20.9" ry="22"/><ellipse id="XMLID_107_" class="st3" cx="294.5" cy="222.6" rx="20.9" ry="22"/><path id="XMLID_106_" class="st0" d="M147.4 425h-25.2v-28.2l25.2-.1z"/><path id="XMLID_105_" class="st2" d="M290.2 404.6c-16.9 0-30.5-14.4-30.5-32.2v-54.9c-8.6-5.9-17.9-10.4-28.1-12.8l-5.3-1c-2.3 6.4-4.3 6.6-8 10.4 22.8 13.4 35.8 43.9 35.8 67.5l-.1 43.6 27.8.2s17.2-3.2 18.4-22.4c-3.2.9-6.5 1.6-10 1.6z"/><path id="XMLID_104_" class="st1" d="M191 254.8c0 7.9 10.4 14.4 18.3 14.4s18.3-6.4 18.3-14.4H191z"/><path id="XMLID_103_" transform="rotate(-180 287.659 410.959)" class="st3" d="M275 396.7h25.2v28.4H275z"/><path id="XMLID_102_" class="st3" d="M227 281.3v23.4c0 10.3-7.9 18.7-17.7 18.7-9.8 0-17.7-8.4-17.7-18.7V283l35.4-1.7z"/><path class="st0" d="M209.3 238.8l-7.9-3.9 7.9-6 8 6z"/><path class="st5" d="M189.2 391c-.6 0-1.2-.3-1.6-.9-.5-.9-.3-2 .6-2.6l5.6-3.5c.9-.5 2-.3 2.6.6.5.9.3 2-.6 2.6l-5.6 3.5c-.3.2-.7.3-1 .3zm2.9-11.8c-3.6 0-7.6-.1-7.6-.1-1 0-1.9-.9-1.8-1.9 0-1 .9-1.9 1.9-1.8.1 0 5.5.1 9.5.1 1 0 1.9.8 1.9 1.9 0 1-.8 1.9-1.9 1.9-.6-.1-1.3-.1-2-.1zm2.9-7.9c-.4 0-.7-.1-1-.3 0 0-2.8-1.8-5.4-3-.9-.4-1.4-1.5-1-2.5.4-.9 1.5-1.4 2.5-1 3 1.3 5.9 3.2 6 3.3.9.6 1.1 1.7.5 2.6-.4.6-1 .9-1.6.9zm30.6 1.2c-.6 0-1.2-.3-1.6-.9-.5-.9-.3-2 .6-2.6l5.6-3.5c.9-.5 2-.3 2.6.6.5.9.3 2-.6 2.6l-5.6 3.5c-.3.2-.6.3-1 .3zm10.3 8.4c-.1 0-5.6-.1-9.5-.1-1 0-1.9-.8-1.9-1.9 0-1 .8-1.9 1.9-1.9 4 0 9.5.1 9.6.1 1 0 1.9.9 1.8 1.9 0 1.1-.9 1.9-1.9 1.9zm-4.7 10.9c-.3 0-.5-.1-.8-.2-3-1.3-5.9-3.2-6-3.3-.9-.6-1.1-1.7-.5-2.6.6-.9 1.7-1.1 2.6-.5 0 0 2.8 1.8 5.4 3 .9.4 1.4 1.5 1 2.5-.3.7-1 1.1-1.7 1.1zm-19.2 1.4c-7.2 0-10.9-6.4-11.4-12.7-.3-3.9 1.8-10.6 6.4-13 2.3-1.2 6-1.8 10.7 2.1.8.7.9 1.8.3 2.6-.7.8-1.8.9-2.6.3-2.6-2.1-4.8-2.7-6.6-1.7-3 1.5-4.6 6.6-4.4 9.4.3 4.3 2.5 9.3 7.6 9.3 3 0 3.9-3.7 4.2-5.8-1.4-.3-3.4-.7-4.6-.7-1 0-1.9-.8-1.9-1.9s.8-1.9 1.9-1.9c2.6 0 6.6 1.1 7.1 1.3.8.2 1.4 1 1.4 1.8 0 3.7-1.7 10.9-8.1 10.9z"/><path class="st6" d="M289.8 173.8c-7.4-9.6-4.1 25.4-8 41-4 15.6-15.5 20-23 29.1-2.6 3.2-4.6 6-6.2 8.5-1.6-13.3-11.2-15.6-21.2-17.8-10.7-2.3-17.2 3.5-20.9 3.7-3.7-.2-10.1-6-20.9-3.7-10 2.2-19.6 4.5-21.2 17.8-1.6-2.5-3.6-5.3-6.2-8.5-7.5-9.1-19.1-13.5-23-29.1-4-15.6-.6-50.6-8-41-4.4 5.7-8.3 30.8-2.7 50.7 5.1 17.9 7.2 23.4 18.1 41.1 8.2 13.4 26.9 46.5 63.9 46.5 36.9 0 56.2-32.8 63.9-46.5 7.8-14 10.8-20.3 16.7-38 5.9-17.6 3.1-48.1-1.3-53.8zm-56.6 101.9c-10.9 6.5-15.2 2.1-13.9-3.5 1.3-5.6-3.6-2.9-8.9-2.9s-10.2-2.6-8.9 2.9c1.3 5.6-3 10-13.9 3.5-5.5-3.3-8.6-6.1-10.9-9-2.5-4.8-2.8-10.7 6.1-11.5 9.6-.9 21 .9 27.6.9s18-1.7 27.6-.9c8.9.8 8.5 6.7 6.1 11.5-2.3 2.9-5.4 5.7-10.9 9z"/><path class="st6" d="M280.7 162.2s12.5 15.8 8 39.6c-3.2 16.8 4 15.1 4 15.1s-3.2-2.5-1.6-6.1c0 0 .6 2.5 1.9 3.2 0 0-.1-5.3 2.3-12.8 5.2-16.3 4-30.9-3.3-47.4-2.4-5.8-11.3-.3-11.3 8.4"/><path class="st6" d="M296.3 100.9c-.6-1.1-1.5-2.1-2.6-3-2.3-1.5-5.1-2.5-8-2.8 2.8.8 7 3.1 5 10-2.3 7.9-13.1 8.8-20 7.5-10.5-1.9-63-37.4-113.6-1.9-21.4 15-29.2 28.9-30.1 38.4-.5.4-5.3 4.4-6.9 12.5-.8 4.2 4 46.6 8.6 59.2 4.6 12.5 8.9 1.2 2.5 6.4 0 0-3-9.9-2.9-17.1 0 0 1.8.2 2.2 3.8 0 0 2.5-.8-.6-16.2-1.5-7.7 3.9-18 4.3-24.8.2-3.2 1-6.4.3-9.9 1.2-1.4 0-.6.4-.8 2.2-.8 3.9-1 6.4-3 0 0 1.8-1.3 4.4-2.7 2.5-1.4 5.8-2.8 9-3.3 2.8-.4 5.9-.7 9.3-.8 7.8-.2 17 .9 26.9 5.6 25.5 12 60 16.4 83.9 5.4 11.8-5.4 20.9-14.6 25.2-28.5 4.4-13.6.9-27.2-3.7-34z"/></g></svg>