<svg xmlns="http://www.w3.org/2000/svg" viewBox="0 0 425.2 425.2"><style>.st0{fill:#f0b79b}.st1{fill:#fff}.st2{fill:#ececec}.st3{fill:#e5af99}.st4{fill:none;stroke:#fff;stroke-width:.5248;stroke-linecap:round;stroke-linejoin:round;stroke-miterlimit:10}.st5{fill:#f4ca75}.st6{fill:#0ab0c4}.st7{fill:#f0f0f0}.st8{fill:#593736}.st9{fill:#020203}</style><g id="Ebene_1"><ellipse id="XMLID_173_" class="st0" cx="208.4" cy="204.1" rx="83.6" ry="88.2"/><path id="XMLID_171_" class="st1" d="M300.4 396c0 10.1-1.5 19.8-4.3 28.9H126.3c-2.8-9.1-4.3-18.8-4.3-28.9 0-52 39.9-94.2 89.2-94.2s89.2 42.2 89.2 94.2z"/><path id="XMLID_170_" class="st2" d="M216.4 302.1v122.5s57.7.2 79.8.2c2.4 0 4.3-18.8 4.3-28.9-.1-50.1-37.3-91-84.1-93.8z"/><path id="XMLID_168_" class="st1" d="M290.1 404.2c-16.9 0-30.5-14.4-30.5-32.2v-55c-14-9.5-30.6-15.2-48.4-15.2-17.5 0-33.9 5.4-47.7 14.7v55.4c0 17.8-13.7 32.2-30.5 32.2-3.8 0-7.4-.8-10.7-2.1.5 7.8 1.9 15.4 4.1 22.6H296c2.2-7.1 3.5-14.6 4-22.4-3 1.4-6.4 2-9.9 2z"/><path id="XMLID_167_" class="st3" d="M224.9 117.6c24.3 15.4 40.6 43.5 40.6 75.6 0 48.7-37.4 88.2-83.6 88.2-5.7 0-11.2-.6-16.5-1.7 12.6 8 27.2 12.6 42.9 12.6 46.2 0 83.6-39.5 83.6-88.2.1-42.8-28.7-78.4-67-86.5z"/><ellipse id="XMLID_166_" class="st0" cx="124.2" cy="222.3" rx="20.9" ry="22"/><ellipse id="XMLID_164_" class="st3" cx="294.4" cy="222.3" rx="20.9" ry="22"/><path id="XMLID_163_" class="st0" d="M147.4 424.6h-25.3v-28.2h25.3z"/><path id="XMLID_162_" class="st2" d="M290.1 404.2c-16.9 0-30.5-14.4-30.5-32.2v-55c-8.6-5.9-17.9-10.4-28.1-12.8l-5.3-1c-2.3 6.4-4.3 6.6-8 10.4C241 327 254 357.5 254 381l-.1 43.6 27.8.2s17.2-3.2 18.4-22.4c-3.1 1.2-6.5 1.8-10 1.8z"/><path id="XMLID_161_" class="st1" d="M191 247.4c0 7.9 10.4 14.4 18.3 14.4s18.3-6.4 18.3-14.4H191z"/><path id="XMLID_160_" transform="rotate(-180 287.642 410.583)" class="st3" d="M275 396.4h25.2v28.4H275z"/><path id="XMLID_159_" class="st4" d="M208.8 413.5H228"/><path id="XMLID_158_" class="st3" d="M227 280.9v23.4c0 10.3-7.9 18.7-17.7 18.7-9.8 0-17.7-8.4-17.7-18.7v-21.7l35.4-1.7z"/><path class="st0" d="M209.3 238.5l-7.9-4 7.9-6 8 6z"/><path class="st6" d="M189.2 390.6c-.6 0-1.2-.3-1.6-.9-.5-.9-.3-2 .6-2.6l5.6-3.5c.9-.5 2-.3 2.6.6.5.9.3 2-.6 2.6l-5.6 3.5c-.4.2-.7.3-1 .3zm2.9-11.8c-3.6 0-7.6-.1-7.6-.1-1 0-1.9-.9-1.8-1.9 0-1 .9-1.9 1.9-1.8.1 0 5.5.1 9.5.1 1 0 1.9.8 1.9 1.9 0 1-.8 1.9-1.9 1.9-.7-.1-1.3-.1-2-.1zm2.8-7.8c-.4 0-.7-.1-1-.3 0 0-2.8-1.8-5.4-3-.9-.4-1.4-1.5-1-2.5.4-.9 1.5-1.4 2.5-1 3 1.3 5.9 3.2 6 3.3.9.6 1.1 1.7.5 2.6-.3.6-.9.9-1.6.9zm30.7 1.1c-.6 0-1.2-.3-1.6-.9-.5-.9-.3-2 .6-2.6l5.6-3.5c.9-.5 2-.3 2.6.6.5.9.3 2-.6 2.6l-5.6 3.5c-.3.2-.6.3-1 .3zm10.3 8.5c-.1 0-5.6-.1-9.5-.1-1 0-1.9-.8-1.9-1.9 0-1 .8-1.9 1.9-1.9 4 0 9.5.1 9.6.1 1 0 1.9.9 1.8 1.9-.1 1-.9 1.9-1.9 1.9zm-4.7 10.8c-.3 0-.5-.1-.8-.2-3-1.3-5.9-3.2-6-3.3-.9-.6-1.1-1.7-.5-2.6.6-.9 1.7-1.1 2.6-.5 0 0 2.8 1.8 5.4 3 .9.4 1.4 1.5 1 2.5-.3.7-1 1.1-1.7 1.1zm-19.2 1.5c-7.2 0-10.9-6.4-11.4-12.7-.3-3.9 1.8-10.6 6.4-13 2.3-1.2 6-1.8 10.7 2.1.8.7.9 1.8.3 2.6-.7.8-1.8.9-2.6.3-2.6-2.1-4.8-2.7-6.6-1.7-3 1.5-4.6 6.6-4.4 9.4.3 4.3 2.5 9.3 7.6 9.3 3 0 3.9-3.7 4.2-5.8-1.4-.3-3.4-.7-4.6-.7-1 0-1.9-.8-1.9-1.9 0-1 .8-1.9 1.9-1.9 2.6 0 6.6 1.1 7.1 1.3.8.2 1.4 1 1.4 1.8 0 3.7-1.7 10.9-8.1 10.9z"/><ellipse id="XMLID_156_" cx="176.7" cy="203.3" rx="7.5" ry="7.9"/><ellipse id="XMLID_155_" cx="241.7" cy="203.3" rx="7.5" ry="7.9"/><path class="st7" d="M161.8 221.4c10-9.7 18-21.4 23-34.2-7.6-1-16.4-.9-22.8-.4-12.4.9-9.9 15.6-9.9 15.6 1.4 10.1 4.1 16 9.7 19z"/><path class="st1" d="M184.8 187.3c-5 12.8-13 24.5-23 34.2 3.5 1.9 8.3 2.7 14.5 2.7 6.9-10.9 12.8-22.4 16.4-35.1-2.3-.8-5-1.4-7.9-1.8z"/><path class="st7" d="M200.6 195.7c-.7-3.1-3.7-5.3-7.8-6.7-3.7 12.6-9.5 24.2-16.4 35.1h2c16.8-.5 24.4-18.4 22.2-28.4zm26.7 23.8c12.1-9.2 23.2-19.6 30.3-32.5-.4-.1-.8-.1-1.3-.1-13.1-.9-36.4-.7-38.6 8.9-1.5 6.9 1.8 17.7 9.6 23.7z"/><path class="st1" d="M257.6 187c-7.2 12.9-18.2 23.3-30.3 32.5 2.4 1.9 5.3 3.3 8.7 4 9.5-10.8 17.8-22.7 26.6-34.5-1.3-.9-2.9-1.7-5-2z"/><path class="st7" d="M262.6 189.1c-8.8 11.7-17.1 23.7-26.6 34.5 1.3.3 2.7.5 4.1.5 17.6.6 23.9-4.4 26.2-21.7 0 0 1.5-8.9-3.7-13.3z"/><path class="st8" d="M249.6 183.4c-15.4-.9-26.4 3.3-31.6 4.2-.8.1-1.6.2-2.3.3-3.9.7-8.3.6-12.2.1-.2 0-.4-.1-.5-.1-.8-.1-1.7-.1-2.6-.3-5.2-.9-16.2-5.1-31.6-4.2-15.4.9-22.1 1.5-24.2 1.4 0 0-1.7 5.2-.9 9 0 0 4.1 1.5 4.6 5.6s2.7 19 10.1 23.6c7.4 4.6 27.4 6.1 35.2-1.4 7.8-7.4 8.3-12.6 9.4-14.8 1.1-2.2 2.5-5.3 6.2-5.3 3.8-.1 5.1 3.1 6.2 5.3 1.1 2.2 1.6 7.3 9.4 14.8 7.8 7.4 27.8 5.9 35.2 1.4 7.4-4.6 9.6-19.5 10.1-23.6s4.6-5.6 4.6-5.6c.9-3.8-.9-9-.9-9-2.1.1-8.7-.5-24.2-1.4zm-71.3 40.7c-17.6.6-23.9-4.4-26.2-21.7 0 0-2.6-14.7 9.9-15.6 13.1-.9 36.4-.7 38.6 8.9 2.2 10-5.4 27.9-22.3 28.4zm88-21.7c-2.3 17.3-8.6 22.2-26.2 21.7-16.9-.5-24.6-18.4-22.3-28.3 2.2-9.6 25.5-9.8 38.6-8.9 12.4.8 9.9 15.5 9.9 15.5z"/><path class="st9" d="M189.2 140l-.5-.4.5.2V68.4c-2.4.3-4.8.8-6.5 1.7-4.5 2.1-6.1 5.6-10.9 7.4.4-.6.4-1.2.4-1.8-8.1 1.8-6.9 2.1-10.5 7.1-9.3-2.6-9.7 2.1-13 7.1-2.8 0-6.1.6-8.9 1.2l-.8 1.2c-.4 1.8-.4 3.8-.4 5.6-6.9 0-10.1 3.8-14.2 7.1.8 2.4.8 4.7 0 7.1l-1.2 1.2s-3.6 0-4.9 1.5c-1.2 1.5-.8 3.5.8 6.2 1.6 2.6-1.2 4.7-4.9 5.3-3.6.6-6.1 0-6.1 0s-3.6 7.4-.4 13.2c3.2 5.9 2 12.7-1.6 13.5-3.6.9-4.5 2.9-4.5 2.9l.4 2.4c-3.6.9-5.7 5-5.7 5 .8 5.3 8.5 11.2 8.5 11.2s.8 5 3.6 7.7c2.8 2.6.4 7.1.4 7.1-3.2 1.5-4.1 4.7-4.1 4.7s2 3.2 3.6 5.3c1.6 2.1.4 2.9 1.2 4.4.8 1.5 5.3 1.5 10.1 5 4.9 3.5 5.7 9.1 5.7 12.7 0 3.5 3.2 8.8 3.2 8.8-.4-6.2 2-10.9 2.4-12.7.4-1.8-2-11.5-2-16.2 0-4.7 7.7-16.8 7.7-16.8s.4-11.8 1.6-20.6c1.2-8.8 7.7-15.6 11.8-17.1 4.1-1.5 11.4-2.1 11.4-2.1l-2.4-1.5c8.9 2.4 18.5.7 18.2-.9-.3-2.2 3.4-4.4 5.4-3 1.5 1.1 3.3-2.1 4.9-2.4l1.7 3.1z"/><path class="st9" d="M308.8 175.6s6.5-5.9 7.2-11.2c0 0-1.7-4.1-4.8-5l.3-2.4s-.7-2.1-3.7-2.9c-3.1-.9-4.1-7.7-1.4-13.5 2.7-5.9-.3-13.2-.3-13.2s-2 .6-5.1 0c-3.1-.6-5.4-2.6-4.1-5.3 1.4-2.6 1.7-4.7.7-6.2s-4.1-1.5-4.1-1.5l3.2-3.7c-.7-2.4-.7-4.7 0-7.1-3.4-3.2-6.1-7.1-11.9-7.1 0-1.8.9-2.5.6-4.3l-.7-1.2c-2.4-.6-5.1-1.2-7.5-1.2-2.7-5-3.1-9.7-10.9-7.1-3.1-5-2-5.3-8.9-7.1 0 .6 0 1.2.3 1.8-4.1-1.8-10.6-4.1-14.3-6.1-3.1-1.8-8.2-2.1-11.9-2.1 1 .9 1.4 2.6 2 3.5-4.1.6-5.4-4.1-8.9-5.3-3.1-1.2-6.1-.9-9.2-1.2.7.6 1 1.5 1.4 2.1-5.5 1.5-6.8-5-13.3-1.5.3.6.3 1.2.7 1.8-2 .9-3.7.6-5.4-.6l-2-.3c-4.8-3.8-17-.3-22.8-1.2v.5c.3.3.7.9 1 1.2-2 .6-7.2.6-9.5 0-5.4-1.8-4.8-2.6-11.2-1.2.3.3 1 1.2 1.4 1.5-1-.3-2.7-.3-3.7-.6-.3 2.1-1.7 4.7-4.1 5.6-1.4.9-4.8-.3-5.5.3-2 1.2-1.7 5.6-1.7 8.2l-.7.9c-3.1-.9-5.8-2.1-8.5-3.2-2.7 3.8-7 6.3-9.7 9.9-2 2.6-.3 9.1-5.8 7.7.7.3.2 8.2.9 8.8-1.8.8-4.2.9-5.9 1.5 3.4 19.5 5.7 49.5 6.2 53.1 1.4-1.9 10.7-4 23.5-11.3l2.1-6s7.6-.4 12-2.8 18.3 5 18.3 5l-.7-3.4s6.9 1.7 11.6.5c4.8-1.2 11.2-3.8 16.3-2.9 5.1.9 15.3 4.4 15.3 4.4l-3.1-3.2s3.4.3 6.8.9c3.4.6 8.2 3.8 8.2 3.8s5.8-1.2 8.2-3.5l2.7-1.2-2.4 2.6s4.1 1.8 6.5-.3c0 0 3.7-.3 5.4.3 1.7.6 7.8 3.2 15.3.9l-2 1.5s6.1.6 9.5 2.1c3.4 1.5 8.9 8.2 9.9 17.1 1 8.8 1.4 20.6 1.4 20.6s6.5 12.1 6.5 16.8c0 4.7-2 14.4-1.7 16.2.3 1.8 2.4 6.5 2 12.7 0 0 2.7-5.3 2.7-8.8 0-3.5.7-9.1 4.8-12.7 4.1-3.5 7.8-3.5 8.5-5 .7-1.5-.3-2.4 1-4.4 1.4-2.1 3.1-5.3 3.1-5.3s-.7-3.2-3.4-4.7c0 0-2-4.4.3-7.1 2.3-2.9 3-7.9 3-7.9z"/></g></svg>