<svg xmlns="http://www.w3.org/2000/svg" viewBox="0 0 425.2 425.2"><style>.st0{fill:#f4ca75}.st1{fill:#fff}.st2{fill:#ececec}.st3{fill:#f0b79b}.st4{fill:#e5af99}.st5{fill:none;stroke:#fff;stroke-width:.5248;stroke-linecap:round;stroke-linejoin:round;stroke-miterlimit:10}.st6{fill:#683c11}.st7{fill:#865a31}.st8{fill:#0ab0c4}</style><g id="Ebene_2"><path id="XMLID_18_" class="st0" d="M191.6 271.9c-13.3-1.3-22.7 6-27.3 10.9-5 5.3-13.7 12.7-21 12.6-.4 0 1.1-4.4 1.1-4.4 8.9-12.3-1.3-22.2-1.3-22.2-10.8 13.4-27.3 12.9-27.3 12.9 14-22.2 6.3-39.7 6.3-39.7-10.6 9.4-21.6 5.2-21.6 5.2s12.7 6.3 9.5-50.4c0 0-8.2-64.8 47.6-92.3 0 0 56.4-31.6 109 1.1 0 0 3.2-6-3.8-15.9 0 0 10.8 6.5 13.3 26.4 0 0-23.1-5.7-13.6-4 0 0 25.3 9.1 20.2 16.7 0 0 21.9.8 27.6 44.6 0 0 3.2 21 0 47.9 0 0-3.8-3.9 14 28.8 0 0-14 1.2-21.6-5.8 0 0-6.3 19.9 8.9 40.3 0 0-13.3 2.3-27.9-10.5 0 0-8.6 11.9.2 25.6.1.2-15.8-5.8-21.3-11.1-7.2-7-21.9-19.1-35.8-16.8"/><path id="XMLID_38_" class="st1" d="M300.4 396.6c0 10.1-1.5 19.8-4.3 28.9H126.3c-2.8-9.1-4.3-18.8-4.3-28.9 0-52 39.9-94.2 89.2-94.2s89.2 42.2 89.2 94.2z"/><path id="XMLID_37_" class="st2" d="M216.4 302.7v122.5s57.7.2 79.8.2c2.4 0 4.3-18.8 4.3-28.9-.1-50.1-37.3-91-84.1-93.8z"/><path id="XMLID_36_" class="st1" d="M290.2 404.8c-16.9 0-30.5-14.4-30.5-32.2v-55c-14-9.5-30.6-15.2-48.4-15.2-17.5 0-33.9 5.4-47.7 14.7v55.4c0 17.8-13.7 32.2-30.5 32.2-3.8 0-7.4-.8-10.7-2.1.5 7.8 1.9 15.4 4.1 22.6h169.6c2.2-7.1 3.5-14.6 4-22.4-3.1 1.4-6.5 2-9.9 2z"/><ellipse id="XMLID_32_" class="st3" cx="208.4" cy="204.7" rx="83.6" ry="88.2"/><ellipse id="XMLID_31_" cx="177.5" cy="210.9" rx="7.5" ry="7.9"/><ellipse id="XMLID_30_" cx="242.5" cy="210.9" rx="7.5" ry="7.9"/><path id="XMLID_29_" class="st4" d="M225 118.2c24.3 15.4 40.6 43.5 40.6 75.6 0 48.7-37.4 88.2-83.6 88.2-5.7 0-11.2-.6-16.5-1.7 12.6 8 27.2 12.6 42.9 12.6 46.2 0 83.6-39.5 83.6-88.2 0-42.8-28.8-78.4-67-86.5z"/><ellipse id="XMLID_28_" class="st3" cx="124.2" cy="222.9" rx="20.9" ry="22"/><ellipse id="XMLID_27_" class="st4" cx="294.5" cy="222.9" rx="20.9" ry="22"/><path id="XMLID_23_" class="st3" d="M147.4 425.2h-25.2V397h25.2z"/><path id="XMLID_22_" class="st2" d="M290.2 404.8c-16.9 0-30.5-14.4-30.5-32.2v-54.9c-8.6-5.9-17.9-10.4-28.1-12.8l-5.3-1c-2.3 6.4-4.3 6.6-8 10.4 22.8 13.4 35.8 43.9 35.8 67.5l-.1 43.6 27.8.2s17.2-3.2 18.4-22.4c-3.2 1-6.5 1.6-10 1.6z"/><path id="XMLID_35_" class="st0" d="M124.2 200.8s1 6 4.1 10c0 0 .7-42 21-68.5 0 0-3.5 12.1 0 19.7 0 0 5.2-4.4 13.7-9.1 12.7-7.1 27.2-10.2 41.7-9.9 10.7.2 28.8-1.2 43.4-11.5 0 0 36.4 26 42 77.9 0 0 2.3-3.3 1.9-8.4l8.8-12.5-12.9-40.7-29.8-27.5-29.3-8.1h-41.4l-30.5 8.1-15.1 13.7-13.5 21.7-11.7 24.1v10.6l7.6 10.4z"/><path id="XMLID_4_" class="st1" d="M191 252c0 7.9 10.4 14.4 18.3 14.4s18.3-6.4 18.3-14.4H191z"/><path id="XMLID_21_" transform="rotate(-180 287.659 411.182)" class="st4" d="M275 397h25.2v28.4H275z"/><path id="XMLID_69_" class="st5" d="M208.8 414.1H228"/><path id="XMLID_25_" class="st4" d="M227 281.5V305c0 10.3-7.9 18.7-17.7 18.7-9.8 0-17.7-8.4-17.7-18.7v-21.7l35.4-1.8z"/><path class="st0" d="M210.2 233.5l-30.8 9.5v5.4h61.7V243z"/><path class="st3" d="M209.3 239.1l-7.9-4 7.9-6 8 6z"/><path id="XMLID_172_" class="st6" d="M277.3 109.5c-3.3-16.8-9.4-37.3-20-47.7-.1-.1-12.2-12.6-27.6-6.4-1.8.7-3.7 1.7-5.7 2.8-4.6 2.4-9.9 5.2-16.1 5.2-6.2 0-11.4-2.8-16.1-5.2-2-1-3.9-2-5.7-2.8-15.7-6.3-27.5 6.3-27.6 6.4-10.6 10.4-16.7 30.9-20 47.7 11.2 3 38.8 5 69.4 5 30.6.1 58.2-2 69.4-5z"/><path id="XMLID_169_" class="st6" d="M206.2 141.2c18.7 0 36.6-.8 50.5-2.1 17-1.7 21.5-3.6 22.6-4.2-.2-2.3-.9-10.2-2.7-20.3-12.6 3.1-39.7 5.1-70.3 5.1-30.6 0-57.7-2-70.3-5.1-1.8 10.1-2.5 18-2.7 20.3 1.1.6 5.6 2.5 22.6 4.2 13.7 1.4 31.6 2.1 50.3 2.1z"/><path id="XMLID_165_" class="st6" d="M285 127.4c.5 4.5.8 8 .8 8 0 3-3 6-25 8.5-14.5 1.6-33.8 2.5-54.3 2.5s-39.7-.9-54.3-2.5c-21.9-2.4-25-5.5-25-8.5 0 0 .5-3.5 1-8-.9.1-2 .3-2.9.4-29.3 5.2-39.7 11.8-39.7 16 0 3.9 8.9 9.9 34 14.9 23.2 4.6 54.1 7.1 87 7.1s63.8-2.5 87-7.1c25-5 34-10.9 34-14.9-.1-4.4-11.3-11.3-42.6-16.4z"/><path id="XMLID_26_" class="st6" d="M277.3 109.5l7.7 17.9 2.7 8s-.7 4.4-13.8 6.3c0 0-48.2 8.8-115.4 3.2 0 0-32.2-2.8-32.8-9.6l2.5-8s3.8-6.9 5.1-9.1c1.3-2.3 5.4-8.8 5.4-8.8h138.6z"/><path id="XMLID_2_" class="st7" d="M128.1 127.4s76.2 18 156.9 0l2.7 8s3.9 5.8-34 9.3c0 0-51.7 5.4-98.7 0 0 0-29.4-2.6-29.4-9.3l2.5-8z"/><path class="st0" d="M208.4 279.9c-31.5 0-59.3-15.2-75.9-38.3 13.2 30.3 42.3 51.3 75.9 51.3 33.7 0 62.7-21 75.9-51.3-16.6 23.1-44.4 38.3-75.9 38.3z"/><path class="st0" d="M195.8 279.1c9.6.8 5.9-8.6 13.6-8.6 7.7 0 4 9.4 13.6 8.6l-2.1 4-14.4.7-12.7-1.8 2-2.9z"/><path class="st8" d="M189.2 391.2c-.6 0-1.2-.3-1.6-.9-.5-.9-.3-2 .6-2.6l5.6-3.5c.9-.5 2-.3 2.6.6.5.9.3 2-.6 2.6l-5.6 3.5c-.3.2-.7.3-1 .3zm2.9-11.8c-3.6 0-7.6-.1-7.6-.1-1 0-1.9-.9-1.8-1.9 0-1 .9-1.9 1.9-1.8.1 0 5.5.1 9.5.1 1 0 1.9.8 1.9 1.9 0 1-.8 1.9-1.9 1.9-.6-.1-1.3-.1-2-.1zm2.9-7.8c-.4 0-.7-.1-1-.3 0 0-2.8-1.8-5.4-3-.9-.4-1.4-1.5-1-2.5.4-.9 1.5-1.4 2.5-1 3 1.3 5.9 3.2 6 3.3.9.6 1.1 1.7.5 2.6-.4.6-1 .9-1.6.9zm30.6 1.1c-.6 0-1.2-.3-1.6-.9-.5-.9-.3-2 .6-2.6l5.6-3.5c.9-.5 2-.3 2.6.6.5.9.3 2-.6 2.6l-5.6 3.5c-.3.2-.6.3-1 .3zm10.3 8.5c-.1 0-5.6-.1-9.5-.1-1 0-1.9-.8-1.9-1.9 0-1 .8-1.9 1.9-1.9 4 0 9.5.1 9.6.1 1 0 1.9.9 1.8 1.9 0 1-.9 1.9-1.9 1.9zm-4.7 10.8c-.3 0-.5-.1-.8-.2-3-1.3-5.9-3.2-6-3.3-.9-.6-1.1-1.7-.5-2.6.6-.9 1.7-1.1 2.6-.5 0 0 2.8 1.8 5.4 3 .9.4 1.4 1.5 1 2.5-.3.7-1 1.1-1.7 1.1zm-19.2 1.5c-7.2 0-10.9-6.4-11.4-12.7-.3-3.9 1.8-10.6 6.4-13 2.3-1.2 6-1.8 10.7 2.1.8.7.9 1.8.3 2.6-.7.8-1.8.9-2.6.3-2.6-2.1-4.8-2.7-6.6-1.7-3 1.5-4.6 6.6-4.4 9.4.3 4.3 2.5 9.3 7.6 9.3 3 0 3.9-3.7 4.2-5.8-1.4-.3-3.4-.7-4.6-.7-1 0-1.9-.8-1.9-1.9s.8-1.9 1.9-1.9c2.6 0 6.6 1.1 7.1 1.3.8.2 1.4 1 1.4 1.8 0 3.7-1.7 10.9-8.1 10.9z"/></g></svg>