<svg xmlns="http://www.w3.org/2000/svg" viewBox="0 0 425.2 425.2"><style>.st0{fill:#f5c46b}.st1{fill:#fff}.st2{fill:#ececec}.st3{fill:#f5a88c}.st4{fill:#e29f82}.st5{fill:#0ab0c4}.st6{fill:#f4ca75}.st7{fill:#1e1e1c}</style><g id="Ebene_1"><path class="st0" d="M124.9 202.4h169.7v168.5H124.9z"/><path id="XMLID_241_" class="st1" d="M299.9 396.3c0 10.1-1.5 19.8-4.3 28.9H125.8c-2.8-9.1-4.3-18.8-4.3-28.9 0-52 39.9-94.2 89.2-94.2s89.2 42.2 89.2 94.2z"/><path id="XMLID_240_" class="st2" d="M215.9 302.5V425s57.7.2 79.8.2c2.4 0 4.3-18.8 4.3-28.9-.1-50.1-37.3-91-84.1-93.8z"/><path id="XMLID_239_" class="st1" d="M289.7 404.6c-16.9 0-30.5-14.4-30.5-32.2v-55c-14-9.5-30.6-15.2-48.4-15.2-17.5 0-33.9 5.4-47.7 14.7v55.4c0 17.8-13.7 32.2-30.5 32.2-3.8 0-7.4-.8-10.7-2.1.5 7.8 1.9 15.4 4.1 22.6h169.6c2.2-7.1 3.5-14.6 4-22.4-3.1 1.4-6.5 2-9.9 2z"/><path id="XMLID_238_" class="st3" d="M146.9 425h-25.2v-28.2l25.2-.1z"/><path id="XMLID_237_" class="st2" d="M289.7 404.6c-16.9 0-30.5-14.4-30.5-32.2v-54.9c-8.6-5.9-17.9-10.4-28.1-12.8l-5.3-1c-2.3 6.4-4.3 6.6-8 10.4 22.8 13.4 35.8 43.9 35.8 67.5l-.1 43.6 27.8.2s17.2-3.2 18.4-22.4c-3.2.9-6.5 1.6-10 1.6z"/><path id="XMLID_236_" transform="rotate(-180 287.161 410.959)" class="st4" d="M274.5 396.7h25.2v28.4h-25.2z"/><path id="XMLID_235_" class="st4" d="M226.5 281.3v23.4c0 10.3-7.9 18.7-17.7 18.7-9.8 0-17.7-8.4-17.7-18.7V283l35.4-1.7z"/><path class="st5" d="M188.7 391c-.6 0-1.2-.3-1.6-.9-.5-.9-.3-2 .6-2.6l5.6-3.5c.9-.5 2-.3 2.6.6.5.9.3 2-.6 2.6l-5.6 3.5c-.3.2-.7.3-1 .3zm2.9-11.8c-3.6 0-7.6-.1-7.6-.1-1 0-1.9-.9-1.8-1.9 0-1 .9-1.9 1.9-1.8.1 0 5.5.1 9.5.1 1 0 1.9.8 1.9 1.9 0 1-.8 1.9-1.9 1.9-.6-.1-1.3-.1-2-.1zm2.9-7.9c-.4 0-.7-.1-1-.3 0 0-2.8-1.8-5.4-3-.9-.4-1.4-1.5-1-2.5.4-.9 1.5-1.4 2.5-1 3 1.3 5.9 3.2 6 3.3.9.6 1.1 1.7.5 2.6-.4.6-1 .9-1.6.9zm30.6 1.2c-.6 0-1.2-.3-1.6-.9-.5-.9-.3-2 .6-2.6l5.6-3.5c.9-.5 2-.3 2.6.6.5.9.3 2-.6 2.6l-5.6 3.5c-.3.2-.6.3-1 .3zm10.3 8.4c-.1 0-5.6-.1-9.5-.1-1 0-1.9-.8-1.9-1.9 0-1 .8-1.9 1.9-1.9 4 0 9.5.1 9.6.1 1 0 1.9.9 1.8 1.9 0 1.1-.9 1.9-1.9 1.9zm-4.7 10.9c-.3 0-.5-.1-.8-.2-3-1.3-5.9-3.2-6-3.3-.9-.6-1.1-1.7-.5-2.6.6-.9 1.7-1.1 2.6-.5 0 0 2.8 1.8 5.4 3 .9.4 1.4 1.5 1 2.5-.3.7-1 1.1-1.7 1.1zm-19.2 1.4c-7.2 0-10.9-6.4-11.4-12.7-.3-3.9 1.8-10.6 6.4-13 2.3-1.2 6-1.8 10.7 2.1.8.7.9 1.8.3 2.6-.7.8-1.8.9-2.6.3-2.6-2.1-4.8-2.7-6.6-1.7-3 1.5-4.6 6.6-4.4 9.4.3 4.3 2.5 9.3 7.6 9.3 3 0 3.9-3.7 4.2-5.8-1.4-.3-3.4-.7-4.6-.7-1 0-1.9-.8-1.9-1.9s.8-1.9 1.9-1.9c2.6 0 6.6 1.1 7.1 1.3.8.2 1.4 1 1.4 1.8 0 3.7-1.7 10.9-8.1 10.9z"/><ellipse transform="rotate(-89.083 209.757 203.687)" class="st6" cx="209.8" cy="203.7" rx="84.8" ry="84.8"/><ellipse transform="rotate(-89.083 185.41 107.829)" class="st6" cx="185.4" cy="107.8" rx="28.3" ry="28.3"/><ellipse transform="rotate(-89.083 208.27 219.006)" class="st3" cx="208.3" cy="219" rx="74.2" ry="74.2"/><ellipse transform="rotate(-89.083 175.281 215.41) scale(1.00003)" class="st7" cx="175.3" cy="215.4" rx="8.3" ry="8.3"/><ellipse transform="rotate(-89.083 242.993 216.49)" class="st7" cx="243" cy="216.5" rx="8.3" ry="8.3"/><path class="st4" d="M224.1 146.5c21.4 13.3 35.5 37.1 35.1 64.1-.7 41-34.4 73.7-75.4 73-5-.1-9.9-.7-14.7-1.7 11 6.9 24 11 37.9 11.2 41 .7 74.7-32 75.4-73 .6-35.8-24.5-66.2-58.3-73.6z"/><ellipse transform="rotate(-89.083 137.69 233.184)" class="st3" cx="137.7" cy="233.2" rx="19.8" ry="19.8"/><ellipse transform="rotate(-89.083 279.999 235.47) scale(1.00003)" class="st4" cx="280" cy="235.5" rx="19.8" ry="19.8"/><path class="st1" d="M185.4 246.8c-.2 13.1 10.2 23.8 23.3 24 13.1.2 23.8-10.2 24-23.3l-47.3-.7z"/></g></svg>