<svg xmlns="http://www.w3.org/2000/svg" viewBox="0 0 425.2 425.2"><style>.st0{fill:#f0b79b}.st1{fill:#fff}.st2{fill:#ececec}.st3{fill:#e5af99}.st4{fill:none;stroke:#fff;stroke-width:.5248;stroke-linecap:round;stroke-linejoin:round;stroke-miterlimit:10}.st5{fill:#f4ca75}.st6{fill:#0ab0c4}.st7{fill:#683c11}</style><g id="Ebene_1"><ellipse id="XMLID_100_" class="st0" cx="208.4" cy="204.5" rx="83.6" ry="88.2"/><path id="XMLID_99_" class="st1" d="M300.4 396.5c0 10.1-1.5 19.8-4.3 28.9H126.3c-2.8-9.1-4.3-18.8-4.3-28.9 0-52 39.9-94.2 89.2-94.2s89.2 42.2 89.2 94.2z"/><path id="XMLID_98_" class="st2" d="M216.4 302.6v122.5s57.7.2 79.8.2c2.4 0 4.3-18.8 4.3-28.9-.1-50.1-37.3-91-84.1-93.8z"/><path id="XMLID_97_" class="st1" d="M290.2 404.7c-16.9 0-30.5-14.4-30.5-32.2v-55c-14-9.5-30.6-15.2-48.4-15.2-17.5 0-33.9 5.4-47.7 14.7v55.4c0 17.8-13.7 32.2-30.5 32.2-3.8 0-7.4-.8-10.7-2.1.5 7.8 1.9 15.4 4.1 22.6h169.6c2.2-7.1 3.5-14.6 4-22.4-3.1 1.4-6.5 2-9.9 2z"/><ellipse id="XMLID_96_" cx="179.7" cy="210.8" rx="7.5" ry="7.9"/><ellipse id="XMLID_95_" cx="238.7" cy="210.8" rx="7.5" ry="7.9"/><path id="XMLID_94_" class="st3" d="M225 118c24.3 15.4 40.6 43.5 40.6 75.6 0 48.7-37.4 88.2-83.6 88.2-5.7 0-11.2-.6-16.5-1.7 12.6 8 27.2 12.6 42.9 12.6 46.2 0 83.6-39.5 83.6-88.2 0-42.7-28.8-78.4-67-86.5z"/><ellipse id="XMLID_93_" class="st0" cx="124.2" cy="222.7" rx="20.9" ry="22"/><ellipse id="XMLID_92_" class="st3" cx="294.5" cy="222.7" rx="20.9" ry="22"/><path id="XMLID_91_" class="st0" d="M147.4 425.1h-25.2v-28.2h25.2z"/><path id="XMLID_90_" class="st2" d="M290.2 404.7c-16.9 0-30.5-14.4-30.5-32.2v-54.9c-8.6-5.9-17.9-10.4-28.1-12.8l-5.3-1c-2.3 6.4-4.3 6.6-8 10.4 22.8 13.4 35.8 43.9 35.8 67.5l-.1 43.6 27.8.2s17.2-3.2 18.4-22.4c-3.2 1-6.5 1.6-10 1.6z"/><path id="XMLID_89_" class="st1" d="M191 254.9c0 7.9 10.4 14.4 18.3 14.4s18.3-6.4 18.3-14.4H191z"/><path id="XMLID_88_" transform="rotate(-180 287.659 411.07)" class="st3" d="M275 396.9h25.2v28.4H275z"/><path id="XMLID_87_" class="st4" d="M208.8 414H228"/><path id="XMLID_86_" class="st3" d="M227 281.4v23.4c0 10.3-7.9 18.7-17.7 18.7-9.8 0-17.7-8.4-17.7-18.7v-21.7l35.4-1.7z"/><path class="st0" d="M209.3 239l-7.9-4 7.9-6 8 6z"/><path class="st6" d="M189.2 391.1c-.6 0-1.2-.3-1.6-.9-.5-.9-.3-2 .6-2.6l5.6-3.5c.9-.5 2-.3 2.6.6.5.9.3 2-.6 2.6l-5.6 3.5c-.3.2-.7.3-1 .3zm2.9-11.8c-3.6 0-7.6-.1-7.6-.1-1 0-1.9-.9-1.8-1.9 0-1 .9-1.9 1.9-1.8.1 0 5.5.1 9.5.1 1 0 1.9.8 1.9 1.9 0 1-.8 1.9-1.9 1.9-.6-.1-1.3-.1-2-.1zm2.9-7.8c-.4 0-.7-.1-1-.3 0 0-2.8-1.8-5.4-3-.9-.4-1.4-1.5-1-2.5.4-.9 1.5-1.4 2.5-1 3 1.3 5.9 3.2 6 3.3.9.6 1.1 1.7.5 2.6-.4.6-1 .9-1.6.9zm30.6 1.1c-.6 0-1.2-.3-1.6-.9-.5-.9-.3-2 .6-2.6l5.6-3.5c.9-.5 2-.3 2.6.6.5.9.3 2-.6 2.6l-5.6 3.5c-.3.2-.6.3-1 .3zm10.3 8.4c-.1 0-5.6-.1-9.5-.1-1 0-1.9-.8-1.9-1.9 0-1 .8-1.9 1.9-1.9 4 0 9.5.1 9.6.1 1 0 1.9.9 1.8 1.9 0 1.1-.9 1.9-1.9 1.9zm-4.7 10.9c-.3 0-.5-.1-.8-.2-3-1.3-5.9-3.2-6-3.3-.9-.6-1.1-1.7-.5-2.6.6-.9 1.7-1.1 2.6-.5 0 0 2.8 1.8 5.4 3 .9.4 1.4 1.5 1 2.5-.3.7-1 1.1-1.7 1.1zm-19.2 1.4c-7.2 0-10.9-6.4-11.4-12.7-.3-3.9 1.8-10.6 6.4-13 2.3-1.2 6-1.8 10.7 2.1.8.7.9 1.8.3 2.6-.7.8-1.8.9-2.6.3-2.6-2.1-4.8-2.7-6.6-1.7-3 1.5-4.6 6.6-4.4 9.4.3 4.3 2.5 9.3 7.6 9.3 3 0 3.9-3.7 4.2-5.8-1.4-.3-3.4-.7-4.6-.7-1 0-1.9-.8-1.9-1.9 0-1 .8-1.9 1.9-1.9 2.6 0 6.6 1.1 7.1 1.3.8.2 1.4 1 1.4 1.8 0 3.7-1.7 10.9-8.1 10.9z"/><path class="st7" d="M157.6 150.9c11.1-1 32.2 12.3 62.5 5.9 0 0 32.5 17.8 59.8 11.1 27.3-6.6 28.3-25.8 20.4-33.8 0 0 2.1 12.6-7.2 8.6-6.8-2.9-12.7-31-48.3-44.6 0 0 4.1-.4-7.7-6-14.5-7-45.5-7.3-68.4 7.4 0 0 6.2-9.2 13.1-12.3 0 0-16 2.1-37.1 19.8-18.9 15.8-21.9 33.5-23.3 45-1.4 11.5-3.8 23.4 1.1 39 3.9 12.6 6.8 18.1 8.7 21.6 5.8 11.1 3.2-1.2 5.8-18.2 2.4-16.9 9.4-42.6 20.6-43.5z"/><path class="st7" d="M294.5 157.9c-1.3 32.1-3.7 56.4-9.8 58.8-5.9 2.3-7.5-11.8-15.3-50.6"/></g></svg>