<svg xmlns="http://www.w3.org/2000/svg" viewBox="0 0 425.2 425.2"><style>.st0{fill:#f0b79b}.st1{fill:#fff}.st2{fill:#ececec}.st3{fill:#e5af99}.st4{fill:none;stroke:#fff;stroke-width:.5248;stroke-linecap:round;stroke-linejoin:round;stroke-miterlimit:10}.st5{fill:#f4ca75}.st6{fill:#0ab0c4}.st7{fill:#333233}</style><g id="Ebene_1"><ellipse id="XMLID_74_" class="st0" cx="213.4" cy="204.9" rx="83.6" ry="88.2"/><path id="XMLID_73_" class="st1" d="M305.4 396.9c0 10.1-1.5 19.8-4.3 28.9H131.3c-2.8-9.1-4.3-18.8-4.3-28.9 0-52 39.9-94.2 89.2-94.2s89.2 42.2 89.2 94.2z"/><path id="XMLID_72_" class="st2" d="M221.3 303v122.5s57.7.2 79.8.2c2.4 0 4.3-18.8 4.3-28.9 0-50.1-37.2-91-84.1-93.8z"/><path id="XMLID_71_" class="st1" d="M295.1 405.1c-16.9 0-30.5-14.4-30.5-32.2v-55c-14-9.5-30.6-15.2-48.4-15.2-17.5 0-33.9 5.4-47.7 14.7v55.4c0 17.8-13.7 32.2-30.5 32.2-3.8 0-7.4-.8-10.7-2.1.5 7.8 1.9 15.4 4.1 22.6H301c2.2-7.1 3.5-14.6 4-22.4-3.1 1.4-6.4 2-9.9 2z"/><ellipse id="XMLID_70_" cx="181.7" cy="211.2" rx="7.5" ry="7.9"/><ellipse id="XMLID_68_" cx="246.7" cy="211.2" rx="7.5" ry="7.9"/><path id="XMLID_67_" class="st3" d="M229.9 118.5c24.3 15.4 40.6 43.5 40.6 75.6 0 48.7-37.4 88.2-83.6 88.2-5.7 0-11.2-.6-16.5-1.7 12.6 8 27.2 12.6 42.9 12.6 46.2 0 83.6-39.5 83.6-88.2.1-42.8-28.7-78.4-67-86.5z"/><ellipse id="XMLID_66_" class="st0" cx="129.2" cy="223.2" rx="20.9" ry="22"/><ellipse id="XMLID_65_" class="st3" cx="299.4" cy="223.2" rx="20.9" ry="22"/><path id="XMLID_64_" class="st0" d="M152.4 425.5h-25.3v-28.2h25.3z"/><path id="XMLID_63_" class="st2" d="M295.1 405.1c-16.9 0-30.5-14.4-30.5-32.2V318c-8.6-5.9-17.9-10.4-28.1-12.8l-5.3-1c-2.3 6.4-4.3 6.6-8 10.4C246 328 259 358.5 259 382.1l-.1 43.6 27.8.2s17.2-3.2 18.4-22.4c-3.1 1-6.5 1.6-10 1.6z"/><path id="XMLID_61_" class="st1" d="M196 255.3c0 7.9 10.4 14.4 18.3 14.4s18.3-6.4 18.3-14.4H196z"/><path id="XMLID_60_" transform="rotate(-180 292.631 411.478)" class="st3" d="M280 397.3h25.2v28.4H280z"/><path id="XMLID_59_" class="st4" d="M213.8 414.4H233"/><path id="XMLID_58_" class="st3" d="M232 281.8v23.4c0 10.3-7.9 18.7-17.7 18.7-9.8 0-17.7-8.4-17.7-18.7v-21.7l35.4-1.7z"/><path class="st0" d="M214.3 239.4l-7.9-4 7.9-6 8 6z"/><path class="st5" d="M213.4 280.2c-31.5 0-59.3-15.2-75.9-38.3 13.2 30.3 42.3 51.3 75.9 51.3 33.7 0 62.7-21 75.9-51.3-16.6 23.1-44.4 38.3-75.9 38.3z"/><path class="st6" d="M194.2 391.5c-.6 0-1.2-.3-1.6-.9-.5-.9-.3-2 .6-2.6l5.6-3.5c.9-.5 2-.3 2.6.6.5.9.3 2-.6 2.6l-5.6 3.5c-.4.2-.7.3-1 .3zm2.9-11.8c-3.6 0-7.6-.1-7.6-.1-1 0-1.9-.9-1.8-1.9 0-1 .9-1.9 1.9-1.8.1 0 5.5.1 9.5.1 1 0 1.9.8 1.9 1.9 0 1-.8 1.9-1.9 1.9-.7-.1-1.3-.1-2-.1zm2.8-7.8c-.4 0-.7-.1-1-.3 0 0-2.8-1.8-5.4-3-.9-.4-1.4-1.5-1-2.5.4-.9 1.5-1.4 2.5-1 3 1.3 5.9 3.2 6 3.3.9.6 1.1 1.7.5 2.6-.4.6-1 .9-1.6.9zm30.7 1.1c-.6 0-1.2-.3-1.6-.9-.5-.9-.3-2 .6-2.6l5.6-3.5c.9-.5 2-.3 2.6.6.5.9.3 2-.6 2.6l-5.6 3.5c-.3.2-.7.3-1 .3zm10.3 8.5c-.1 0-5.6-.1-9.5-.1-1 0-1.9-.8-1.9-1.9 0-1 .8-1.9 1.9-1.9 4 0 9.5.1 9.6.1 1 0 1.9.9 1.8 1.9-.1 1-.9 1.9-1.9 1.9zm-4.8 10.8c-.3 0-.5-.1-.8-.2-3-1.3-5.9-3.2-6-3.3-.9-.6-1.1-1.7-.5-2.6.6-.9 1.7-1.1 2.6-.5 0 0 2.8 1.8 5.4 3 .9.4 1.4 1.5 1 2.5-.2.7-.9 1.1-1.7 1.1zm-19.1 1.5c-7.2 0-10.9-6.4-11.4-12.7-.3-3.9 1.8-10.6 6.4-13 2.3-1.2 6-1.8 10.7 2.1.8.7.9 1.8.3 2.6-.7.8-1.8.9-2.6.3-2.6-2.1-4.8-2.7-6.6-1.7-3 1.5-4.6 6.6-4.4 9.4.3 4.3 2.5 9.3 7.6 9.3 3 0 3.9-3.7 4.2-5.8-1.4-.3-3.4-.7-4.6-.7-1 0-1.9-.8-1.9-1.9 0-1 .8-1.9 1.9-1.9 2.6 0 6.6 1.1 7.1 1.3.8.2 1.4 1 1.4 1.8-.1 3.7-1.7 10.9-8.1 10.9z"/><path class="st7" d="M296.3 201.8c-6.5-5.2-6.7 10-8.3 18.6-1.6 8.6-5.7 10.3-13.8 20.8-8.1 10.5-17.2 32.5-17.2 32.5 3.4-14.6-12.7-24.4-21.1-34.5-8.3-10-20.8-9.4-20.8-9.4h-2s-12.5-.6-20.8 9.4-24.4 19.7-21.1 34.3c0 0-9.1-21.9-17.2-32.4s-12.2-12.1-13.8-20.7c-1.6-8.6-1.7-23.8-8.3-18.6-3 2.4-.5 17.5-.2 32.1.3 14.6 10.6 44.9 23.1 64 12.5 19.1 36.3 34.7 59.2 34.7 22.9 0 46.7-15.6 59.2-34.7s22.8-49.3 23.1-64c.5-14.6 3-29.7 0-32.1zm-82.1 71.1c-20.3 0-27.6-7.6-26.5-12.4 1-4.8 13.7-1.8 26.5-12.9 12.8 11.1 25.5 8.1 26.5 12.9 1 4.8-6.2 12.4-26.5 12.4z"/><path class="st7" d="M280.7 159.3s4.6 16.5 7.3 32.5c2.6 15.2 3.4 27.2 3.4 27.2s5.2-8.5 6.4-7.9c0 0 .8-44.2-6.2-60-2.4-5.4-10.9-.1-10.9 8.2"/><path class="st7" d="M272 112.8c-1.1-.4-2.4-.9-4-1.6-17.4-7.5-60.8-29.2-102.9.4-20.5 14.4-28 27.8-28.9 36.9-.5.4-3.4 3.2-5.2 12.9-.8 4.1-5.5 44.5 1.3 78 2.6 12.6 5.1-25.6 5.2-32.5 0 0 5.3-29.1 5.7-35.7.2-3.1.1-8.1-1.4-11.1.4.1.7.2 1.1.3 2.2.3 4.7-.3 7.2-2.3 0 0 1.7-1.3 4.2-2.6 2.4-1.3 5.6-2.7 8.6-3.1 2.7-.4 5.7-.7 8.9-.8 7.5-.2 16.3.8 25.9 5.3 24.5 11.5 57.6 15.8 80.5 5.2 11.3-5.2 20.1-14 24.2-27.3 3-10.7 2.1-19.8-.1-26.2-1.3 2.3-12.1 12.4-30.3 4.2z"/></g></svg>