<svg xmlns="http://www.w3.org/2000/svg" viewBox="0 0 425.2 425.2"><style>.st0{fill:#fff}.st1{fill:#ececec}.st2{fill:#f0c4a8}.st3{fill:#0ab0c4}.st4{fill:#f0bd9d}.st5{fill:#020203}.st6{fill:#575756}.st7{fill:#b05152}.st8{fill:none;stroke:#b05152;stroke-miterlimit:10}</style><g id="Ebene_1"><path id="XMLID_263_" class="st0" d="M328.6 394.2c0 10.7-1.8 21-5.3 30.7H113.4c-3.4-9.7-5.3-20-5.3-30.7 0-55.4 49.3-100.3 110.2-100.3s110.3 44.9 110.3 100.3z"/><path id="XMLID_262_" class="st1" d="M224.8 294.2v130.5s71.3.2 98.6.2c2.9 0 5.3-20 5.3-30.7-.1-53.5-46-97-103.9-100z"/><path id="XMLID_261_" class="st0" d="M316 402.9c-20.8 0-37.7-15.4-37.7-34.3V310c-17.2-10.2-37.8-16.1-59.8-16.1-21.7 0-41.8 5.8-58.9 15.6v59.1c0 19-16.9 34.3-37.7 34.3-4.7 0-9.1-.8-13.2-2.2.6 8.4 2.3 16.4 5 24.1h209.7c2.7-7.6 4.4-15.6 5-23.8-4 1.3-8.1 1.9-12.4 1.9z"/><path id="XMLID_260_" class="st2" d="M139.5 424.6h-31.2v-30h31.2z"/><path id="XMLID_259_" class="st1" d="M316 402.9c-20.8 0-37.7-15.4-37.7-34.3v-58.5c-10.6-6.2-22.1-11-34.8-13.7l-6.6-1.1c-2.9 6.8-5.3 7-9.8 11.1 28.2 14.3 44.2 46.8 44.2 71.9l-.1 46.4 34.4.2s21.2-3.4 22.8-23.8c-4 1.2-8.1 1.8-12.4 1.8z"/><path id="XMLID_258_" transform="rotate(-180 312.866 409.72)" class="st2" d="M297.3 394.6h31.2v30.3h-31.2z"/><path class="st3" d="M199.3 388.5c-.6 0-1.2-.3-1.6-.9-.5-.9-.3-2.2.6-2.8l5.6-3.7c.9-.6 2-.3 2.6.6s.3 2.2-.6 2.8l-5.6 3.7c-.3.2-.6.3-1 .3zm2.9-12.6c-3.6 0-7.6-.1-7.6-.1-1 0-1.9-.9-1.8-2 0-1.1.9-2 1.9-2 .1 0 5.5.1 9.5.1 1 0 1.9.9 1.9 2s-.8 2-1.9 2h-2zm2.9-8.4c-.4 0-.7-.1-1-.3 0 0-2.8-1.9-5.4-3.2-.9-.4-1.4-1.6-1-2.6.4-1 1.5-1.5 2.5-1 3 1.4 5.9 3.4 6 3.5.9.6 1.1 1.8.5 2.8-.4.5-1 .8-1.6.8zm30.7 1.3c-.6 0-1.2-.3-1.6-.9-.5-.9-.3-2.2.6-2.8l5.6-3.7c.9-.6 2-.3 2.6.6.5.9.3 2.2-.6 2.8l-5.6 3.7c-.3.2-.7.3-1 .3zm10.2 8.9c-.1 0-5.6-.1-9.5-.1-1 0-1.9-.9-1.9-2s.8-2 1.9-2c4 0 9.5.1 9.6.1 1 0 1.9.9 1.8 2 0 1.2-.8 2-1.9 2zm-4.7 11.6c-.3 0-.5-.1-.8-.2-3-1.4-5.9-3.4-6-3.5-.9-.6-1.1-1.8-.5-2.8.6-.9 1.7-1.2 2.6-.6 0 0 2.8 1.9 5.4 3.2.9.4 1.4 1.6 1 2.6-.3.9-1 1.3-1.7 1.3zm-19.1 1.5c-7.2 0-10.9-6.8-11.4-13.6-.3-4.1 1.8-11.2 6.4-13.8 2.3-1.3 6-1.9 10.7 2.3.8.7.9 2 .3 2.8-.7.9-1.8 1-2.6.3-2.6-2.2-4.8-2.8-6.6-1.8-3 1.6-4.6 7-4.4 10 .3 4.6 2.5 9.9 7.6 9.9 3 0 3.9-4 4.2-6.2-1.4-.4-3.4-.8-4.6-.8-1 0-1.9-.9-1.9-2s.8-2 1.9-2c2.6 0 6.6 1.2 7.1 1.3.8.2 1.4 1 1.4 1.9-.1 4.1-1.8 11.7-8.1 11.7z"/><path id="XMLID_257_" class="st2" d="M298 190.1c0 51.8-34.4 93.7-80.6 93.7s-80.6-42-80.6-93.7 39.8-93.7 80.6-93.7c46.2-.1 80.6 41.9 80.6 93.7z"/><ellipse id="XMLID_256_" cx="185.7" cy="191.6" rx="7.5" ry="7"/><ellipse id="XMLID_255_" cx="250.7" cy="191.6" rx="7.5" ry="7"/><path id="XMLID_254_" class="st4" d="M234 98.2c24.3 16.4 40.6 46.2 40.6 80.3 0 51.8-37.4 93.7-83.6 93.7-5.7 0-11.2-.6-16.5-1.9 12.6 8.5 27.2 13.4 42.9 13.4 46.2 0 80.6-42 80.6-93.7 0-45.4-25.8-83.2-64-91.8z"/><ellipse id="XMLID_253_" class="st2" cx="142.2" cy="198.3" rx="20.9" ry="24.5"/><ellipse id="XMLID_252_" class="st4" cx="292.5" cy="198.8" rx="20.9" ry="24"/><path id="XMLID_251_" class="st0" d="M200 241.6c0 7.9 10.4 7.2 18.3 7.2s18.3.8 18.3-7.2H200z"/><path id="XMLID_154_" class="st4" d="M236.1 269.5v23.4c0 10.3-7.9 18.7-17.7 18.7-9.8 0-17.7-8.4-17.7-18.7v-21.7l35.4-1.7z"/><path class="st5" d="M186.9 130.5l-.3-.3.3.1V82.7c0-.4-.4-.7-.8-.7-1.3.2-2.6.5-3.5 1-2.9 1.4-4 3.8-7.2 5 .3-.4.3-.8.3-1.2-5.1 1.2-4.6 1.4-6.7 4.4-.2.2-.5.3-.7.3-5.5-1.5-6 1.4-7.9 4.6-.1.2-.3.3-.6.3-1.8 0-3.8.4-5.5.8l-.5.7c-.1.1-.1.2-.1.2-.2 1-.2 2-.2 3 0 .4-.3.6-.7.7-3.5.2-5.5 2-7.6 3.9-.6.5-.9 1.4-.8 2.2.2 1.1.1 2.2-.3 3.3 0 .1-.1.2-.2.3l-.5.5c-.1.1-.3.2-.4.2-.6 0-2.3.2-2.9 1-.8 1 1.5 3.4 2.5 5.2 1.1 1.8-.8 3.2-3.2 3.6-2.4.4-3 2-3 2s-3.4 2-1.3 6c2.1 4 1.3 8.6-1.1 9.2-.8.2-1.3.5-1.8.7-.8.5-1.2 1.4-1 2.3 0 .3-.1.6-.4.7-1.5.7-.6 2.7-.3 3.1 0 .1.1.1.1.2.5 3.3 2.3 6.9 2.5 7.4 0 .1 0 .1.1.2.1.5.7 3.5 2.4 5.1 1.6 1.5.7 3.9.4 4.6l-.3.3c-2 1-2.5 3.1-2.5 3.1s-.7 2.2.4 3.6.3 2 .8 3 3.5 1 6.7 3.4 3.7 6.2 3.7 8.6c0 1.1.4 2.4.9 3.5.3.6 1.2.5 1.3-.2.3-2.9 1.3-5 1.5-6 .3-1.2-1.3-7.8-1.3-11 0-3 4.3-10.2 5-11.3.1-.1.1-.2.1-.3 0-1.2.3-8.3 1.1-13.8.8-6 5.1-10.6 7.7-11.6 2.7-1 7.5-1.4 7.5-1.4l-1.6-1c5.9 1.6 12.1.5 12-.6-.2-1.5 2.2-3 3.5-2 .8.6 1.7-.6 2.5-1.3.3-.2.8-.1 1 .3l.9 1.7z"/><path class="st5" d="M299.4 153.8c.3-.5 2-4.1 2.5-7.4 0-.1 0-.1.1-.2.2-.4 1.2-2.4-.3-3.1-.3-.1-.4-.4-.4-.7.2-.9-.2-1.8-1-2.3-.4-.3-1-.5-1.8-.7-2.4-.6-3.2-5.2-1.1-9.2 2.1-4-.3-9-.3-9s2.4.4 0 0-4.3-1.8-3.2-3.6c1.1-1.8 1.3-3.2.5-4.2-.6-.8-2.3-1-2.9-1-.2 0-.3-.1-.4-.2l-.5-.5c-.1-.1-.1-.2-.2-.3-.4-1.4-.5-2.8-.1-4.2.1-.3 0-.5-.2-.7-2.4-2-4.4-4.3-8.3-4.5-.4 0-.7-.3-.7-.7 0-1 0-2.1-.2-3 0-.1-.1-.2-.1-.2l-.5-.7c-.9-.2-1.9-.4-2.9-.6-1.9-.3-3.6-1.5-4.6-3.2-.9-1.4-1.8-2.4-3.9-2.4-1.9 0-3.7-.9-4.9-2.3-.8-.9-1.8-1.3-5-2 0 .4 0 .8.3 1.2-3.2-1.2-4.3-3.6-7.2-5-2-1-5.2-1.3-7.9-1.4-.5 0-.8.5-.6 1 .1.1.1.2.2.4.3.5-.2 1.1-.7 1-2.2-.5-3.3-2.9-5.6-3.6-2.4-.8-4.8-.6-7.2-.8.5.4.8 1 1.1 1.4-4.3 1-5.3-3.4-10.4-1 .3.4.3.8.5 1.2-1.6.6-2.9.4-4.2-.3-.1 0-.2-.1-.2-.1l-1.3-.2c-.1 0-.2 0-.3-.1-3.8-2.5-13.3-.1-17.7-.7v.2c.3.2.5.6.8.8-1.6.4-5.6.4-7.4 0h-.1c-4.2-1.2-3.7-1.8-8.8-.8.3.2.8.8 1.1 1-.6-.2-1.6-.2-2.4-.3-.3 0-.6.1-.7.4-.4 1.3-1.4 2.7-3.1 3.3-1.1.6-3.7-.2-4.3.2-1.6.8-1.3 3.8-1.3 5.6l-.5.6c-2.2-.6-4.3-1.3-6.2-2-.3-.1-.5 0-.7.2-2.2 2.2-6.2 1.4-8.2 3.7-1.6 1.8-.3 6.2-4.5 5.2.5.2 1.1.8 1.6 1.2-1.2.5-2.8.6-4 .9-.3.1-.6.4-.5.8 2.4 12.3 4 36.2 4.6 41.9 0 .5.5.7 1 .5 2.4-1.2 8.8-2.8 17.3-7 .1-.1.3-.2.3-.4l1.4-3.4c.1-.2.3-.4.6-.4 1.4-.1 6.1-.5 9-1.9 2.7-1.3 10.2 1.6 13.1 2.9.5.2 1-.2.9-.8-.1-.5.3-.9.8-.8 1.7.3 5.4.7 8.1.1 3.7-.8 8.8-2.6 12.8-2 4 .6 12 3 12 3l-.9-.8c-.5-.4-.1-1.2.5-1.2 1 .1 2.1.2 3.3.4 2.3.3 5.4 2 6.2 2.5.1.1.3.1.4.1.9-.2 4.4-.9 6.1-2.3.1 0 .1-.1.2-.1l2-.8-1 1c-.4.4-.2 1 .3 1.1 1.1.2 2.6.3 3.7-.4.1-.1.2-.1.3-.1.6 0 3-.1 4.1.2 1.3.4 6.1 2.2 12 .6l-1.6 1s4.8.4 7.5 1.4c2.7 1 6.9 5.6 7.7 11.6.7 5.5 1 12.7 1.1 13.8 0 .1 0 .2.1.3.7 1.1 5 8.3 5 11.3 0 3.2-1.6 9.8-1.3 11 .2.9 1.2 3.1 1.5 6 .1.7 1 .8 1.3.2.5-1.1.9-2.5.9-3.5 0-2.4.5-6.2 3.7-8.6 3.2-2.4 3.1-2.4 3.7-3.4.5-1-.3-1.6.8-3 .9-1.2 1.3-2.9 1.4-3.4v-.3c-.2-.5-.8-2.1-2.4-2.9l-.3-.3c-.3-.7-1.2-3.1.4-4.6 1.7-1.6 2.3-4.6 2.4-5.1-.2-.4-.2-.5-.2-.5z"/><path d="M286.1 175s-4.2-.6-8.1-1.6c-3.9-1-21.4-3.8-32.2-2.6-17.4 2-19.5 6-28.3 5.9-8.8.1-10.9-3.9-28.3-5.9-10.8-1.3-28.3 1.6-32.2 2.6-3.9 1-8.1 1.6-8.1 1.6-1.5 2.3 0 10 0 10 .9.5 3.3 1.9 3.7 4.5.3 1.6 2.5 32.1 29.4 31.4 26.7-.7 28.7-24.2 29.8-29.8 1.1-5.7 5.6-6 5.6-6s4.5.4 5.6 6c1.1 5.7 3.2 29.1 29.8 29.8 26.9.8 29.2-29.7 29.4-31.4.5-2.6 2.8-4 3.7-4.5.2 0 1.7-7.7.2-10z"/><path class="st6" d="M207 197.2c1.1-7.3.3-15.1-2.9-18-.1-.1-.3-.3-.5-.4-16.2 4.1-30.9 9.8-45.4 17.7.5 4.6 2.1 9.7 5.9 14 2.8 3.2 6.1 5.2 9.5 6.4.2-.2.4-.3.6-.5 10.9-7.7 21.6-13.6 32.8-19.2z"/><path class="st6" d="M174.3 216.4c-.2.2-.4.3-.6.5 10.4 3.5 22.3-1 27.7-6.4 2.9-2.9 4.8-8 5.6-13.3-11.2 5.6-21.9 11.5-32.7 19.2zm-.1-41.3c-12.6 1.1-15 8.4-15 8.4-.3.6-1.8 6.3-1 13.1 14.5-7.9 29.2-13.5 45.4-17.7-5.4-4.7-17.1-4.9-29.4-3.8zm56.7 4.2c-2.1 1.9-3.1 5.9-3.3 10.6 11-4.9 21.9-10 32.9-14.8-12.4-1.1-24.2-.8-29.6 4.2z"/><path class="st6" d="M275.8 183.4s-2.3-7.3-15-8.4h-.3c-11 4.8-21.9 9.9-32.9 14.8-.3 7.4 1.8 16.4 6.1 20.7 2.3 2.3 5.7 4.4 9.7 5.8 10.2-6 21.2-10.2 32.2-14.4 2.8-8.9.6-17.7.2-18.5z"/><path class="st6" d="M243.4 216.3c8.6 3.1 19.8 2.9 27.5-5.8 2.3-2.7 3.8-5.6 4.8-8.6-11.1 4.2-22.1 8.5-32.3 14.4z"/><path class="st5" d="M296.8 223c-4.5-.5-7.8-4.6-7.3-9.1l5.3-47c.5-4.5 4.6-7.8 9.1-7.3 7.5.9 13 7.7 12.1 15.2l-4.1 36.1c-.8 7.5-7.6 13-15.1 12.1zm-159.5 1.1c4.5-.5 7.8-4.5 7.4-9L140 168c-.5-4.5-4.5-7.8-9-7.4-7.5.8-13.1 7.5-12.3 15.1l3.6 36.1c.7 7.6 7.5 13.1 15 12.3z"/><path class="st5" d="M304 159.6s-.2-22.5-17.2-37l7.3-5.2s16 24.8 15.4 44m-179.4 1s.2-22.5 17.2-37l-3.7-10.7s-19.5 30.4-18.9 49.5"/><path class="st7" d="M225.1 248c0 1.1-8.1 1.1-13.2 1-5.1-.1-8.8-1-9.3-2-.4-1-.7-2 9.3-1.8 5.1 0 13.2 1.7 13.2 2.8z"/><path class="st8" d="M200 241.6h36.7"/></g></svg>