<svg xmlns="http://www.w3.org/2000/svg" viewBox="0 0 425.2 425.2"><style>.st0{fill:#fff}.st1{fill:#ececec}.st2{fill:#f0c4a8}.st3{fill:none;stroke:#fff;stroke-width:.5248;stroke-linecap:round;stroke-linejoin:round;stroke-miterlimit:10}.st4{fill:#0ab0c4}.st5{fill:#f0bd9d}.st6{fill:#f4ca75}.st7,.st8{fill:#683c11}.st8{opacity:.43}.st9{fill:#62380e}</style><g id="Ebene_2"><path id="XMLID_288_" class="st0" d="M297.5 396c0 10.1-1.5 19.8-4.3 28.9H123.4c-2.8-9.1-4.3-18.8-4.3-28.9 0-52 39.9-94.2 89.2-94.2s89.2 42.2 89.2 94.2z"/><path id="XMLID_287_" class="st1" d="M213.4 302.2v122.5s57.7.2 79.8.2c2.4 0 4.3-18.8 4.3-28.9 0-50.1-37.2-91-84.1-93.8z"/><path id="XMLID_286_" class="st0" d="M287.2 404.3c-16.9 0-30.5-14.4-30.5-32.2V317c-14-9.5-30.6-15.2-48.4-15.2-17.5 0-33.9 5.4-47.7 14.7v55.4c0 17.8-13.7 32.2-30.5 32.2-3.8 0-7.4-.8-10.7-2.1.5 7.8 1.9 15.4 4.1 22.6h169.6c2.2-7.1 3.5-14.6 4-22.4-3.1 1.5-6.4 2.1-9.9 2.1z"/><path id="XMLID_285_" class="st2" d="M144.5 424.7h-25.3v-28.2l25.3-.1z"/><path id="XMLID_284_" class="st1" d="M287.2 404.3c-16.9 0-30.5-14.4-30.5-32.2v-54.9c-8.6-5.9-17.9-10.4-28.1-12.8l-5.3-1c-2.3 6.4-4.3 6.6-8 10.4 22.8 13.4 35.8 43.9 35.8 67.5l-.1 43.6 27.8.2s17.2-3.2 18.4-22.4c-3.1.9-6.5 1.6-10 1.6z"/><path id="XMLID_283_" transform="rotate(-180 284.725 410.658)" class="st2" d="M272.1 396.4h25.2v28.4h-25.2z"/><path id="XMLID_282_" class="st3" d="M205.9 413.6h19.2"/><path class="st4" d="M186.3 390.7c-.6 0-1.2-.3-1.6-.9-.5-.9-.3-2 .6-2.6l5.6-3.5c.9-.5 2-.3 2.6.6.5.9.3 2-.6 2.6l-5.6 3.5c-.4.2-.7.3-1 .3zm2.9-11.8c-3.6 0-7.6-.1-7.6-.1-1 0-1.9-.9-1.8-1.9 0-1 .9-1.9 1.9-1.8.1 0 5.5.1 9.5.1 1 0 1.9.8 1.9 1.9 0 1-.8 1.9-1.9 1.9-.7-.1-1.4-.1-2-.1zm2.8-7.9c-.4 0-.7-.1-1-.3 0 0-2.8-1.8-5.4-3-.9-.4-1.4-1.5-1-2.5.4-.9 1.5-1.4 2.5-1 3 1.3 5.9 3.2 6 3.3.9.6 1.1 1.7.5 2.6-.4.6-1 .9-1.6.9zm30.7 1.2c-.6 0-1.2-.3-1.6-.9-.5-.9-.3-2 .6-2.6l5.6-3.5c.9-.5 2-.3 2.6.6.5.9.3 2-.6 2.6l-5.6 3.5c-.3.2-.7.3-1 .3zm10.3 8.4s-.1 0 0 0c-.1 0-5.6-.1-9.5-.1-1 0-1.9-.8-1.9-1.9 0-1 .8-1.9 1.9-1.9 4 0 9.5.1 9.6.1 1 0 1.9.9 1.8 1.9-.1 1.1-.9 1.9-1.9 1.9zm-4.8 10.9c-.3 0-.5-.1-.8-.2-3-1.3-5.9-3.2-6-3.3-.9-.6-1.1-1.7-.5-2.6.6-.9 1.7-1.1 2.6-.5 0 0 2.8 1.8 5.4 3 .9.4 1.4 1.5 1 2.5-.3.7-.9 1.1-1.7 1.1zm-19.1 1.4c-7.2 0-10.9-6.4-11.4-12.7-.3-3.9 1.8-10.6 6.4-13 2.3-1.2 6-1.8 10.7 2.1.8.7.9 1.8.3 2.6-.7.8-1.8.9-2.6.3-2.6-2.1-4.8-2.7-6.6-1.7-3 1.5-4.6 6.6-4.4 9.4.3 4.3 2.5 9.3 7.6 9.3 3 0 3.9-3.7 4.2-5.8-1.4-.3-3.4-.7-4.6-.7-1 0-1.9-.8-1.9-1.9s.8-1.9 1.9-1.9c2.6 0 6.6 1.1 7.1 1.3.8.2 1.4 1 1.4 1.8-.1 3.7-1.7 10.9-8.1 10.9z"/><path id="XMLID_281_" class="st2" d="M290 200.2c0 51.8-34.4 93.7-80.6 93.7s-80.6-42-80.6-93.7 34.4-93.7 80.6-93.7 80.6 41.9 80.6 93.7z"/><ellipse id="XMLID_280_" cx="177.7" cy="201.8" rx="7.5" ry="7"/><ellipse id="XMLID_279_" cx="242.7" cy="201.8" rx="7.5" ry="7"/><path id="XMLID_278_" class="st5" d="M226 108.3c24.3 16.4 40.6 46.2 40.6 80.3 0 51.8-37.4 93.7-83.6 93.7-5.7 0-11.2-.6-16.5-1.9 12.6 8.5 27.2 13.4 42.9 13.4 46.2 0 80.6-42 80.6-93.7 0-45.3-25.8-83.2-64-91.8z"/><ellipse id="XMLID_277_" class="st2" cx="130.3" cy="208.5" rx="20.9" ry="24.5"/><ellipse id="XMLID_276_" class="st5" cx="289.5" cy="209" rx="20.9" ry="24"/><path id="XMLID_275_" class="st0" d="M192 245.1c0 7.9 10.4 14.4 18.3 14.4s18.3-6.4 18.3-14.4H192z"/><path id="XMLID_274_" class="st5" d="M228.1 279.6V303c0 10.3-7.9 18.7-17.7 18.7-9.8 0-17.7-8.4-17.7-18.7v-21.7l35.4-1.7z"/><path class="st2" d="M210.4 229.1l-8-3.9 8-6 7.9 6z"/><path class="st7" d="M135.5 193.9c-1.5-11.8 5.4-62.9 27.8-62.4 22.4.4 28.3 7.9 42.7 6.1 18-2.2 30.7-8.6 41-3.2 7.2 3.8 17 9.6 29.6 15.3 7.6 3.4 3.2 47 6.8 55.8 2.3 5.6 4.2-2.8 8.2-11.6 4.2-9.3 1.4-42.6 1.4-48.7 0-12.9-4.6-22.4-7.2-31.6-3.3-11.3-28.3-51.8-90.1-45.1-51.4 5.5-42.2 33.9-42.2 33.9s-18.4 1.5-24 16.6c-5.6 15.2-4.2 25.6-4.2 41.5 0 15.1-2.1 28.8 2.2 32.6 4.2 3.8 9.5 12.7 8 .8z"/><path class="st8" d="M170.6 124.4s-16.2-15.2-11.4-30.1c5.3-16.5 43-26.3 70-18.7 28.2 8 50.7 15.4 59.2 53.4 0 0-10.4-37.1-67.6-40.9-40.1-2.7-57.9 15.1-50.2 36.3z"/><path class="st8" d="M197.5 130.1s-11.7-5-11.8-16.8c-.1-14.1 35-25.2 66.3-6.4 28 16.9 11 32.9 36.3 30.6 0 0-4.6 13.2-15.1 6.6-10.4-6.6-31-43.3-63.8-32.2-20.5 7-11.9 18.2-11.9 18.2z"/><path class="st9" d="M164.7 116.9s-2.6 7-8.8 7c-7.4 0-13.1-20.9-3.3-39.7 7.7-14.7 22.7-12.2 25.5-21.4.2-.6 1-.4 1 .2.1 3.7-.9 7.5-4.8 9.2-9.1 4.1-25.7 18.5-19.1 37.5 4.3 12.1 9.5 7.2 9.5 7.2z"/><path class="st9" d="M166.5 119.4s.5 6.9-4.7 9.2c-6.1 2.8-18.9-12.6-17.8-32 .9-15.2 14.4-18.8 13.3-27.6-.1-.5.7-.7.9-.2 1.5 3 2 6.6-.6 9.6-6 6.9-14.5 25.3-1.8 38.6 8.2 8.6 10.7 2.4 10.7 2.4z"/><path class="st9" d="M147.3 110.3s3-2.4 2-4.7c-1.2-2.7-12.2-.4-19.7 7.1-5.9 5.9-2.3 10.9-6.3 13.9-.2.2 0 .5.2.3 1.8-.7 3.5-1.9 3.7-3.7.5-4.2 4.9-13.4 15.1-14.9 6.5-.9 5 2 5 2z"/><path class="st9" d="M150.2 112.2s2.5.5 3.2-.8c.8-1.6-5-6.2-11.9-7-5.4-.6-6.3 3.1-9.5 2.2-.2-.1-.2.2-.1.2 1.1.6 2.4 1 3.4.4 2.3-1.3 8.6-2.7 13.7 1.7 3.3 2.9 1.2 3.3 1.2 3.3zm13.3-3.4s-6.9 2.9-11.1-1.5c-5.1-5.3 6.2-23.9 26.5-29.7 15.9-4.5 24.4 8.1 33.1 3.8.5-.3 1 .4.6.8-2.6 2.6-6.1 4.4-10 2.8-9.2-3.7-31.2-6-40.3 11.9-6 11.6 1.2 11.9 1.2 11.9z"/><path class="st9" d="M176.3 115.4s-5.8 1.8-10.2-2.9c-5.3-5.5 2.3-21 19.8-23.5 13.7-2 23 10.7 30.2 7.9.4-.2 1 .5.6.8-2 2-4.9 3.2-8.6 1.2-8.8-4.6-28.7-9.6-34.6 5.4-3.7 9.8 2.8 11.1 2.8 11.1z"/><path class="st9" d="M183.8 122.9s-4.2 1.9-7.2-.8c-3.6-3.3 2.5-15.3 15-19.2 9.8-3.1 16 4.9 21.3 2 .3-.2.7.3.4.5-1.5 1.7-3.6 2.9-6.2 1.9-6.1-2.3-20.2-3.4-24.9 8.1-3 7.4 1.6 7.5 1.6 7.5zm-31.7 8.5s2.6-2.2 3.2-8c.7-6.9-5.8-13-12.9-4.4-5.6 6.7-6.2 20.8-9.5 23.2-.2.1-.2.9 0 1 1.2.2 2.6-.6 3.5-4.2 2.2-8.3 8.6-23.5 14.3-16.6 3.5 4.3 1.4 9 1.4 9z"/><path class="st9" d="M145.9 123.4s2.1-1.8 2.6-6.4c.6-5.6-4.7-10.5-10.4-3.6-4.5 5.4-5 16.8-7.7 18.7-.2.1-.2.7 0 .8 1 .2 2.1-.5 2.9-3.4 1.8-6.7 6.9-19 11.5-13.4 2.8 3.5 1.1 7.3 1.1 7.3z"/></g></svg>