<svg xmlns="http://www.w3.org/2000/svg" viewBox="0 0 425.2 425.2"><style>.st0{fill:#fff}.st1{fill:#ececec}.st2{fill:#f7ad6d}.st3{fill:#e4a066}.st4{fill:none;stroke:#fff;stroke-width:.5248;stroke-linecap:round;stroke-linejoin:round;stroke-miterlimit:10}.st5{fill:#0ab0c4}.st6{fill:#3c3c3b}.st7{fill:#f4ca75}</style><g id="Ebene_1"><path id="XMLID_41_" class="st0" d="M306.1 396.6c0 10.1-1.6 19.8-4.6 28.9H120c-3-9.1-4.6-18.8-4.6-28.9 0-52 42.7-94.2 95.3-94.2s95.4 42.2 95.4 94.2z"/><path id="XMLID_40_" class="st1" d="M216.3 302.7v122.5s61.6.2 85.2.2c2.5 0 4.6-18.8 4.6-28.9 0-50.1-39.8-91-89.8-93.8z"/><path id="XMLID_39_" class="st0" d="M295.1 404.8c-18 0-32.6-14.4-32.6-32.2v-55c-14.9-9.5-32.6-15.2-51.7-15.2-18.8 0-36.2 5.4-50.9 14.7v55.4c0 17.8-14.6 32.2-32.6 32.2-4 0-7.9-.8-11.4-2.1.5 7.8 2 15.4 4.3 22.6h181.3c2.3-7.1 3.8-14.6 4.3-22.4-3.4 1.4-6.9 2-10.7 2z"/><path id="XMLID_34_" class="st2" d="M142.6 425.2h-27V397h27z"/><path id="XMLID_33_" class="st1" d="M295.1 404.8c-18 0-32.6-14.4-32.6-32.2v-54.9c-9.2-5.9-19.1-10.4-30.1-12.8l-5.7-1c-2.5 6.4-4.6 6.6-8.5 10.4 24.4 13.4 38.2 43.9 38.2 67.5l-.1 43.6 29.7.2s18.4-3.2 19.7-22.4c-3.2 1-6.8 1.6-10.6 1.6z"/><path id="XMLID_24_" transform="rotate(-180 292.536 411.182)" class="st3" d="M279 397h27.1v28.4H279z"/><path id="XMLID_20_" class="st4" d="M208.2 414.1h20.5"/><path id="XMLID_19_" class="st3" d="M236.1 269.3v33.8c0 14.9-12.2 27-27.3 27-15.1 0-27.3-12.1-27.3-27v-31.4l54.6-2.4z"/><path class="st5" d="M189.2 391.2c-.6 0-1.2-.3-1.6-.9-.5-.9-.3-2 .6-2.6l5.6-3.5c.9-.5 2-.3 2.6.6.5.9.3 2-.6 2.6l-5.6 3.5c-.3.2-.7.3-1 .3zm2.9-11.8c-3.6 0-7.6-.1-7.6-.1-1 0-1.9-.9-1.8-1.9 0-1 .9-1.9 1.9-1.8.1 0 5.5.1 9.5.1 1 0 1.9.8 1.9 1.9 0 1-.8 1.9-1.9 1.9-.6-.1-1.3-.1-2-.1zm2.9-7.8c-.4 0-.7-.1-1-.3 0 0-2.8-1.8-5.4-3-.9-.4-1.4-1.5-1-2.5.4-.9 1.5-1.4 2.5-1 3 1.3 5.9 3.2 6 3.3.9.6 1.1 1.7.5 2.6-.4.6-1 .9-1.6.9zm30.6 1.1c-.6 0-1.2-.3-1.6-.9-.5-.9-.3-2 .6-2.6l5.6-3.5c.9-.5 2-.3 2.6.6.5.9.3 2-.6 2.6l-5.6 3.5c-.3.2-.6.3-1 .3zm10.3 8.5c-.1 0-5.6-.1-9.5-.1-1 0-1.9-.8-1.9-1.9 0-1 .8-1.9 1.9-1.9 4 0 9.5.1 9.6.1 1 0 1.9.9 1.8 1.9 0 1-.9 1.9-1.9 1.9zm-4.7 10.8c-.3 0-.5-.1-.8-.2-3-1.3-5.9-3.2-6-3.3-.9-.6-1.1-1.7-.5-2.6.6-.9 1.7-1.1 2.6-.5 0 0 2.8 1.8 5.4 3 .9.4 1.4 1.5 1 2.5-.3.7-1 1.1-1.7 1.1zm-19.2 1.5c-7.2 0-10.9-6.4-11.4-12.7-.3-3.9 1.8-10.6 6.4-13 2.3-1.2 6-1.8 10.7 2.1.8.7.9 1.8.3 2.6-.7.8-1.8.9-2.6.3-2.6-2.1-4.8-2.7-6.6-1.7-3 1.5-4.6 6.6-4.4 9.4.3 4.3 2.5 9.3 7.6 9.3 3 0 3.9-3.7 4.2-5.8-1.4-.3-3.4-.7-4.6-.7-1 0-1.9-.8-1.9-1.9s.8-1.9 1.9-1.9c2.6 0 6.6 1.1 7.1 1.3.8.2 1.4 1 1.4 1.8 0 3.7-1.7 10.9-8.1 10.9z"/><path class="st6" d="M311.1 186.4c0 53.2-47.9 90.3-104.9 90.3s-101.7-37.2-101.7-90.3 46.3-96.2 103.3-96.2 103.3 43 103.3 96.2z"/><ellipse id="XMLID_17_" class="st2" cx="207.8" cy="205.8" rx="89.3" ry="93.1"/><ellipse id="XMLID_16_" cx="174.7" cy="212.3" rx="8" ry="8.3"/><ellipse id="XMLID_15_" cx="244.2" cy="212.3" rx="8" ry="8.3"/><path id="XMLID_13_" class="st3" d="M225.5 114.5c26 16.3 43.4 45.9 43.4 79.8 0 51.4-40 93.1-89.3 93.1-6.1 0-12-.6-17.7-1.8 13.4 8.4 29.1 13.3 45.9 13.3 49.3 0 89.3-41.7 89.3-93.1 0-45.1-30.8-82.7-71.6-91.3z"/><ellipse id="XMLID_12_" class="st2" cx="117.8" cy="225" rx="22.3" ry="23.2"/><ellipse id="XMLID_11_" class="st3" cx="299.7" cy="223.9" rx="22.3" ry="23.2"/><path id="XMLID_10_" class="st0" d="M189.2 255.8c0 8.4 11.1 15.2 19.6 15.2 8.5 0 19.6-6.8 19.6-15.2h-39.2z"/><path class="st6" d="M262.9 122.7L203 105.1c-.5-.1-1-.2-1.5-.1l-42.8 8.9c-.7.1-1.3.5-1.7 1-5.8 6.9-47.8 56.7-46.5 59 1.9 3.2 4.9 24.2 5.2 26.5 0 .1 0 .3.1.4l6.3 21.9c.4 1.3 1.6 2.2 2.9 2.2 1.7 0 3-1.4 3-3v-33.4c0-.4.1-.7.2-1.1l15.7-40.3c.5-1.2 1.6-1.9 2.8-1.9h118.4c1.2 0 2.4.8 2.8 1.9l15.7 40.3c.1.4.2.7.2 1.1V222c0 1.7 1.4 3 3 3h.2c1.2 0 2.3-.7 2.8-1.9l8.9-21.9c.1-.4.2-.7.2-1.1 0-3.6.3-23.1 2.2-26.1 1.9-3.1-32.1-44.4-37-50.3-.1-.5-.6-.9-1.2-1z"/></g></svg>