<svg xmlns="http://www.w3.org/2000/svg" viewBox="0 0 425.2 425.2"><style>.st0{fill:#f0c4a8}.st1{fill:#fff}.st2{fill:#ececec}.st3{fill:#f0bd9d}.st4{fill:none;stroke:#fff;stroke-width:.5248;stroke-linecap:round;stroke-linejoin:round;stroke-miterlimit:10}.st5{fill:#f4ca75}.st6{fill:#0ab0c4}.st7{fill:#240f0b}</style><g id="Ebene_1"><ellipse id="XMLID_131_" class="st0" cx="208.6" cy="203.9" rx="83.6" ry="88.2"/><path id="XMLID_130_" class="st1" d="M300.5 395.8c0 10.1-1.5 19.8-4.3 28.9H126.4c-2.8-9.1-4.3-18.8-4.3-28.9 0-52 39.9-94.2 89.2-94.2s89.2 42.2 89.2 94.2z"/><path id="XMLID_129_" class="st2" d="M216.5 301.9v122.5s57.7.2 79.8.2c2.4 0 4.3-18.8 4.3-28.9-.1-50-37.3-90.9-84.1-93.8z"/><path id="XMLID_128_" class="st1" d="M290.3 404.1c-16.9 0-30.5-14.4-30.5-32.2v-55c-14-9.5-30.6-15.2-48.4-15.2-17.5 0-33.9 5.4-47.7 14.7v55.4c0 17.8-13.7 32.2-30.5 32.2-3.8 0-7.4-.8-10.7-2.1.5 7.8 1.9 15.4 4.1 22.6h169.6c2.2-7.1 3.5-14.6 4-22.4-3.1 1.3-6.4 2-9.9 2z"/><path id="XMLID_127_" class="st3" d="M225.1 117.4c24.3 15.4 40.6 43.5 40.6 75.6 0 48.7-37.4 88.2-83.6 88.2-5.7 0-11.2-.6-16.5-1.7 12.6 8 27.2 12.6 42.9 12.6 46.2 0 83.6-39.5 83.6-88.2 0-42.8-28.8-78.4-67-86.5z"/><ellipse id="XMLID_126_" class="st0" cx="124.4" cy="222.1" rx="20.9" ry="22"/><ellipse id="XMLID_125_" class="st3" cx="286.1" cy="222.1" rx="20.9" ry="22"/><path id="XMLID_124_" class="st0" d="M147.5 424.4h-25.2v-28.1l25.2-.1z"/><path id="XMLID_123_" class="st2" d="M290.3 404.1c-16.9 0-30.5-14.4-30.5-32.2V317c-8.6-5.9-17.9-10.4-28.1-12.8l-5.3-1c-2.3 6.4-4.3 6.6-8 10.4 22.8 13.4 35.8 43.9 35.8 67.5l-.1 43.6 27.8.2s17.2-3.2 18.4-22.4c-3.2.9-6.5 1.6-10 1.6z"/><path id="XMLID_122_" class="st1" d="M191.1 247.3c0 7.9 10.4 14.4 18.3 14.4s18.3-6.4 18.3-14.4h-36.6z"/><path id="XMLID_121_" transform="rotate(-180 287.796 410.427)" class="st3" d="M275.2 396.2h25.2v28.4h-25.2z"/><path id="XMLID_120_" class="st4" d="M208.9 413.4h19.2"/><path id="XMLID_119_" class="st3" d="M227.2 280.8v23.4c0 10.3-7.9 18.7-17.7 18.7-9.8 0-17.7-8.4-17.7-18.7v-21.7l35.4-1.7z"/><path class="st6" d="M189.3 390.5c-.6 0-1.2-.3-1.6-.9-.5-.9-.3-2 .6-2.6l5.6-3.5c.9-.5 2-.3 2.6.6.5.9.3 2-.6 2.6l-5.6 3.5c-.3.2-.6.3-1 .3zm2.9-11.9c-3.6 0-7.6-.1-7.6-.1-1 0-1.9-.9-1.8-1.9 0-1 .9-1.9 1.9-1.8.1 0 5.5.1 9.5.1 1 0 1.9.8 1.9 1.9 0 1-.8 1.9-1.9 1.9-.6-.1-1.3-.1-2-.1zm2.9-7.8c-.4 0-.7-.1-1-.3 0 0-2.8-1.8-5.4-3-.9-.4-1.4-1.5-1-2.5.4-.9 1.5-1.4 2.5-1 3 1.3 5.9 3.2 6 3.3.9.6 1.1 1.7.5 2.6-.4.6-1 .9-1.6.9zm30.7 1.2c-.6 0-1.2-.3-1.6-.9-.5-.9-.3-2 .6-2.6l5.6-3.5c.9-.5 2-.3 2.6.6.5.9.3 2-.6 2.6l-5.6 3.5c-.3.2-.7.3-1 .3zm10.2 8.4c-.1 0-5.6-.1-9.5-.1-1 0-1.9-.8-1.9-1.9 0-1 .8-1.9 1.9-1.9 4 0 9.5.1 9.6.1 1 0 1.9.9 1.8 1.9 0 1.1-.8 1.9-1.9 1.9zm-4.7 10.9c-.3 0-.5-.1-.8-.2-3-1.3-5.9-3.2-6-3.3-.9-.6-1.1-1.7-.5-2.6.6-.9 1.7-1.1 2.6-.5 0 0 2.8 1.8 5.4 3 .9.4 1.4 1.5 1 2.5-.3.7-1 1.1-1.7 1.1zm-19.1 1.4c-7.2 0-10.9-6.4-11.4-12.7-.3-3.9 1.8-10.6 6.4-13 2.3-1.2 6-1.8 10.7 2.1.8.7.9 1.8.3 2.6-.7.8-1.8.9-2.6.3-2.6-2.1-4.8-2.7-6.6-1.7-3 1.5-4.6 6.6-4.4 9.4.3 4.3 2.5 9.3 7.6 9.3 3 0 3.9-3.7 4.2-5.8-1.4-.3-3.4-.7-4.6-.7-1 0-1.9-.8-1.9-1.9 0-1 .8-1.9 1.9-1.9 2.6 0 6.6 1.1 7.1 1.3.8.2 1.4 1 1.4 1.8-.1 3.7-1.8 10.9-8.1 10.9z"/><ellipse id="XMLID_117_" cx="176.9" cy="203.1" rx="7.5" ry="7.9"/><ellipse id="XMLID_116_" cx="241.8" cy="203.1" rx="7.5" ry="7.9"/><path class="st7" d="M193.3 102.4c-16-7.4-29.6-4.2-45.6 11.6S118 142.6 118 142.6s-1.2 8.1-15.2 28.9-7.2 25.4-5.6 38.8c1.6 13.4 4-3.5 12.8 11.3s18.8 27.2 13.6 31.1c-5.2 3.9-13.6 5.3-18.4.7s-7.6 12.4 4.4 15.5c12 3.2 24 .7 24 7.1s-4.4 9.2 9.2 15.9c2.1 1 4.1 1.9 5.8 2.6 7 2.8 14.7-1.8 15.5-9.3l.6-5.7s-19.6-16.2-22-71.6c-2.4-55.4 22.8-85.4 57.6-86.5s53.2 13.8 60 42.7c6.8 28.9 18.4 69.2 7.6 87.5-10.8 18.4-14 29.7-9.2 32.8 4.8 3.2 20.4 8.5 28.8-3.2 8.4-11.6 6.5-17.4 8.5-28.7s2.7-27 2.7-27 6.5-2.2 9.3-17.4c2.8-15.2-2-15-5.4-29.7-4.2-18.2 9.5-24.2-7.3-35.2-16.8-10.9-20.1-14.7-20.1-14.7s-2.9-9.7-17.7-17.1c-14.6-7.3-40.2-21.8-64.2-9z"/><path class="st7" d="M217.7 104.1c16-7.4 29.6-4.2 45.6 11.6s29.6 28.6 29.6 28.6 1.2 8.1 15.2 28.9 7.2 25.4 5.6 38.8-4-3.5-12.8 11.3-18.8 27.2-13.6 31.1c5.2 3.9 7.1 23.4 11.9 18.8 4.8-4.6 8.2 15.1-3.8 18.3-12 3.2-13.7-4.7-27.3 2-1.3.7-2.6 1.2-3.8 1.8-7.9 3.5-16.9-1.6-18-10.2l-.2-2s19.6-18.1 22-73.5c2.4-55.4-22.8-85.4-57.6-86.5-34.8-1.1-53.2 13.8-60 42.7s-18.4 69.2-7.6 87.5c10.8 18.4 14 29.7 9.2 32.8-4.8 3.2-20.4 8.5-28.8-3.2s-6.5-17.4-8.5-28.7-2.7-27-2.7-27-6.5-2.2-9.3-17.4 2-15 5.4-29.7c4.2-18.2-9.5-24.2 7.3-35.2 16.8-10.9 20.1-14.7 20.1-14.7s2.9-9.7 17.7-17.1c14.8-7.3 40.4-21.7 64.4-9z"/></g></svg>