<svg xmlns="http://www.w3.org/2000/svg" viewBox="0 0 425.2 425.2"><style>.st0{fill:#f0b79b}.st1{fill:#fff}.st2{fill:#ececec}.st3{fill:#e5af99}.st4{fill:#f4ca75}.st5{fill:#0ab0c4}.st6{fill:#683c11}</style><g id="Ebene_1"><ellipse id="XMLID_153_" class="st0" cx="213.6" cy="204.8" rx="83.6" ry="88.2"/><path id="XMLID_152_" class="st1" d="M305.6 396.7c0 10.1-1.5 19.8-4.3 28.9H131.5c-2.8-9.1-4.3-18.8-4.3-28.9 0-52 39.9-94.2 89.2-94.2s89.2 42.2 89.2 94.2z"/><path id="XMLID_151_" class="st2" d="M221.5 302.8v122.5s57.7.2 79.8.2c2.4 0 4.3-18.8 4.3-28.9 0-50.1-37.2-90.9-84.1-93.8z"/><path id="XMLID_150_" class="st1" d="M295.3 405c-16.9 0-30.5-14.4-30.5-32.2v-55c-14-9.5-30.6-15.2-48.4-15.2-17.5 0-33.9 5.4-47.7 14.7v55.4c0 17.8-13.7 32.2-30.5 32.2-3.8 0-7.4-.8-10.7-2.1.5 7.8 1.9 15.4 4.1 22.6h169.6c2.2-7.1 3.5-14.6 4-22.4-3.1 1.3-6.4 2-9.9 2z"/><ellipse id="XMLID_149_" cx="184.9" cy="211" rx="7.5" ry="7.9"/><ellipse id="XMLID_148_" cx="243.8" cy="211" rx="7.5" ry="7.9"/><path id="XMLID_147_" class="st3" d="M230.1 118.3c24.3 15.4 40.6 43.5 40.6 75.6 0 48.7-37.4 88.2-83.6 88.2-5.7 0-11.2-.6-16.5-1.7 12.6 8 27.2 12.6 42.9 12.6 46.2 0 83.6-39.5 83.6-88.2.1-58.4-28.7-78.4-67-86.5z"/><ellipse id="XMLID_146_" class="st0" cx="129.4" cy="223" rx="20.9" ry="22"/><ellipse id="XMLID_145_" class="st3" cx="299.6" cy="223" rx="20.9" ry="22"/><path id="XMLID_141_" class="st0" d="M152.6 425.3h-25.3v-28.1l25.3-.1z"/><path id="XMLID_140_" class="st2" d="M295.3 405c-16.9 0-30.5-14.4-30.5-32.2v-54.9c-8.6-5.9-17.9-10.4-28.1-12.8l-5.3-1c-2.3 6.4-4.3 6.6-8 10.4 22.8 13.4 35.8 43.9 35.8 67.5l-.1 43.6 27.8.2s17.2-3.2 18.4-22.4c-3.1.9-6.5 1.6-10 1.6z"/><path id="XMLID_139_" class="st1" d="M196.2 255.1c0 7.9 10.4 14.4 18.3 14.4s18.3-6.4 18.3-14.4h-36.6z"/><path id="XMLID_138_" transform="rotate(-180 292.814 411.31)" class="st3" d="M280.2 397.1h25.2v28.4h-25.2z"/><path id="XMLID_137_" class="st3" d="M232.2 281.7v23.4c0 10.3-7.9 18.7-17.7 18.7-9.8 0-17.7-8.4-17.7-18.7v-21.7l35.4-1.7z"/><path class="st0" d="M214.5 239.2l-8-4 8-5.9 8 5.9z"/><path class="st5" d="M194.3 391.3c-.6 0-1.2-.3-1.6-.9-.5-.9-.3-2 .6-2.6l5.6-3.5c.9-.5 2-.3 2.6.6.5.9.3 2-.6 2.6l-5.6 3.5c-.3.2-.6.3-1 .3zm2.9-11.8c-3.6 0-7.6-.1-7.6-.1-1 0-1.9-.9-1.8-1.9 0-1 .9-1.9 1.9-1.8.1 0 5.5.1 9.5.1 1 0 1.9.8 1.9 1.9 0 1-.8 1.9-1.9 1.9-.6-.1-1.3-.1-2-.1zm2.9-7.8c-.4 0-.7-.1-1-.3 0 0-2.8-1.8-5.4-3-.9-.4-1.4-1.5-1-2.5.4-.9 1.5-1.4 2.5-1 3 1.3 5.9 3.2 6 3.3.9.6 1.1 1.7.5 2.6-.4.6-1 .9-1.6.9zm30.7 1.2c-.6 0-1.2-.3-1.6-.9-.5-.9-.3-2 .6-2.6l5.6-3.5c.9-.5 2-.3 2.6.6.5.9.3 2-.6 2.6l-5.6 3.5c-.3.2-.7.3-1 .3zm10.3 8.4c-.1 0-.1 0 0 0-.1 0-5.6-.1-9.5-.1-1 0-1.9-.8-1.9-1.9 0-1 .8-1.9 1.9-1.9 4 0 9.5.1 9.6.1 1 0 1.9.9 1.8 1.9-.1 1.1-.9 1.9-1.9 1.9zm-4.8 10.9c-.3 0-.5-.1-.8-.2-3-1.3-5.9-3.2-6-3.3-.9-.6-1.1-1.7-.5-2.6.6-.9 1.7-1.1 2.6-.5 0 0 2.8 1.8 5.4 3 .9.4 1.4 1.5 1 2.5-.3.7-1 1.1-1.7 1.1zm-19.1 1.4c-7.2 0-10.9-6.4-11.4-12.7-.3-3.9 1.8-10.6 6.4-13 2.3-1.2 6-1.8 10.7 2.1.8.7.9 1.8.3 2.6-.7.8-1.8.9-2.6.3-2.6-2.1-4.8-2.7-6.6-1.7-3 1.5-4.6 6.6-4.4 9.4.3 4.3 2.5 9.3 7.6 9.3 3 0 3.9-3.7 4.2-5.8-1.4-.3-3.4-.7-4.6-.7-1 0-1.9-.8-1.9-1.9s.8-1.9 1.9-1.9c2.6 0 6.6 1.1 7.1 1.3.8.2 1.4 1 1.4 1.8-.1 3.7-1.8 10.9-8.1 10.9z"/><path class="st6" d="M281.4 151.7c-26.1 17.4-60-6.8-60-6.8-23.8 22.5-46.9 7.6-59.2 8.4-12.2.9-23.1 22.5-28 36.8-4.9 14.3 1.9 31-3.1 28.7-3.1-1.4-5.6-25-7.7-35.7-1.8-9.5-3.9-18.9-1-28.6s8.4-24.6 31-38c17.2-10.2 30.9-14.3 37.9-15.9.7-.2 1.1.8.4 1.1-6.1 3.3-11.2 8.3-11.2 8.3 26.9-12.5 60.7-12.4 75.7-6.6 12.1 4.7 7.6 5 7.6 5s37.1 16.2 37 50c-.1 27.7-5.3 61.6-7.6 54.6-1.6-5 1-23.4-6.5-41.8-2.3-5.7-4.1-11.5-5.2-17.5l-.1-2z"/><path class="st6" d="M200.7 137.8s6.8-1.2 9.7 3.6c3.5 5.8-10.4 20.2-29.8 21.2-13.4.7-18.9-9.4-26-10.3-1.2-.1-1.3-1.8-.2-2.1 2.1-.7 7.4 1.2 9.5 2.7 7.5 5.2 23.8 9.9 35.6-4.2 7.6-9.2 1.2-10.9 1.2-10.9z"/></g></svg>