<svg xmlns="http://www.w3.org/2000/svg" xmlns:xlink="http://www.w3.org/1999/xlink" width="110" height="110" viewBox="0 0 110 110"><defs><circle id="a" cx="33.084" cy="33.084" r="33.084"/><path id="c" d="M25.106 24.902H.376V.173h24.73v24.729z"/><path id="e" d="M.316.269h28.956v28.956H.316V.269z"/></defs><g fill="none" fill-rule="evenodd"><path fill="#FFF" d="M55 110C24.624 110 0 85.376 0 55S24.624 0 55 0s55 24.624 55 55-24.624 55-55 55z"/><path fill="#F3F3F4" fill-rule="nonzero" d="M55 107c28.719 0 52-23.281 52-52S83.719 3 55 3 3 26.281 3 55s23.281 52 52 52zm0 3C24.624 110 0 85.376 0 55S24.624 0 55 0s55 24.624 55 55-24.624 55-55 55z"/><g transform="translate(22 22)"><mask id="b" fill="#fff"><use xlink:href="#a"/></mask><use fill="#D8D8D8" xlink:href="#a"/><g mask="url(#b)"><g transform="translate(20.633 49.536)"><mask id="d" fill="#fff"><use xlink:href="#c"/></mask><path fill="#FFF" d="M25.106 12.537c0 6.83-5.536 12.365-12.365 12.365-6.829 0-12.365-5.535-12.365-12.365C.376 5.708 5.912.173 12.741.173c6.83 0 12.365 5.535 12.365 12.364" mask="url(#d)"/></g><path fill="#FFF" d="M33.773 53.08h-.798c-1.419-.27-2.424-1.092-2.424-2.425v-2.307a2.432 2.432 0 0 1 2.424-2.425h.798a2.432 2.432 0 0 1 2.424 2.425v2.307c0 1.333-1.125 2.257-2.424 2.424"/><g transform="translate(18.498 17.519)"><mask id="f" fill="#fff"><use xlink:href="#e"/></mask><path fill="#FFF" d="M29.272 14.747c0 7.995-6.482 14.478-14.478 14.478-7.996 0-14.478-6.483-14.478-14.478C.316 6.75 6.798.269 14.794.269c7.996 0 14.478 6.482 14.478 14.478" mask="url(#f)"/></g><path fill="#FFF" d="M46.918 35.862c0 7.525-6.1 13.625-13.626 13.625s-13.626-6.1-13.626-13.625c0-7.526 6.1-13.627 13.626-13.627s13.626 6.101 13.626 13.627"/><path fill="#FFF" d="M50.454 36.834a2.856 2.856 0 1 1-5.711-.001 2.856 2.856 0 0 1 5.711 0m-28.379-.253a2.856 2.856 0 1 1-5.711 0 2.856 2.856 0 0 1 5.711 0"/><path fill="#FFF" d="M20.988 34.985c.353-1.319 1.372-4.317 2.749-7.215a.297.297 0 0 1 .52-.03c.507.824 1.708 2.28 3.326 1.033 0 0 12.622-7.351 14.682-2.596 0 0 3.177 5.827 3.566 9.262a.354.354 0 0 0 .457.294l1.01-.307-.38-5.208-2.198-5.124-3.902-2.86-5.302-2.642-3.616.432-4.317 2.21-4.114 1.335-2.562 2.761-1.433 4.295-.496 3.82.423.703s.498-.002.962.168a.48.48 0 0 0 .625-.33"/></g></g></g></svg>