<svg xmlns="http://www.w3.org/2000/svg" width="84" height="84" viewBox="0 0 84 84"><g fill="none" fill-rule="evenodd"><path fill="#FFF" d="M42 84C18.804 84 0 65.196 0 42S18.804 0 42 0s42 18.804 42 42-18.804 42-42 42z"/><path fill="#F3F3F4" fill-rule="nonzero" d="M42 81c21.54 0 39-17.46 39-39S63.54 3 42 3 3 20.46 3 42s17.46 39 39 39zm0 3C18.804 84 0 65.196 0 42S18.804 0 42 0s42 18.804 42 42-18.804 42-42 42z"/><g fill-rule="nonzero"><path fill="#AB704D" d="M62.533 33.174H21v-6.939c0-.123.1-.222.223-.222H62.31c.123 0 .222.1.222.222v6.939z"/><path fill="#85553B" d="M62.374 26.013H21.16a.073.073 0 0 1-.055-.121L25.297 21h32.94l4.192 4.892a.073.073 0 0 1-.055.12z"/><path fill="#935F42" d="M23.148 33.174h37.237v29.36H23.148z"/><path fill="#85563B" d="M33.89 37.47h15.754v5.729H33.89z"/><path fill="#EDEADA" d="M31.741 48.211h20.051v8.593H31.741z"/><path d="M39.619 53.224h-3.58a.716.716 0 1 0 0 1.433h3.58a.716.716 0 1 0 0-1.433zm0-1.432h7.877a.716.716 0 1 0 0-1.432h-7.877a.716.716 0 1 0 0 1.432zm-3.58 0a.753.753 0 0 0 .508-.207.753.753 0 0 0 .207-.509.75.75 0 0 0-.207-.508.75.75 0 0 0-1.017 0 .75.75 0 0 0-.208.508.74.74 0 0 0 .208.509.74.74 0 0 0 .508.207zm6.652 1.64a.75.75 0 0 0-.208.508c0 .187.079.373.208.509a.753.753 0 0 0 .508.208.753.753 0 0 0 .508-.208.753.753 0 0 0 .208-.509.75.75 0 0 0-.208-.508.75.75 0 0 0-1.016 0zm4.805-.208h-.717a.716.716 0 1 0 0 1.433h.717a.716.716 0 1 0 0-1.433z" fill="#CEC9AE"/></g></g></svg>