<svg xmlns="http://www.w3.org/2000/svg" width="84" height="84" viewBox="0 0 84 84"><g fill="none" fill-rule="evenodd"><path fill="#FFF" d="M42 84C18.804 84 0 65.196 0 42S18.804 0 42 0s42 18.804 42 42-18.804 42-42 42z"/><path fill="#F3F3F4" fill-rule="nonzero" d="M42 81c21.54 0 39-17.46 39-39S63.54 3 42 3 3 20.46 3 42s17.46 39 39 39zm0 3C18.804 84 0 65.196 0 42S18.804 0 42 0s42 18.804 42 42-18.804 42-42 42z"/><g fill-rule="nonzero"><path fill="#ECEBEB" d="M24.837 29.912v27.451c0 .746.605 1.351 1.351 1.351H48.32c.746 0 1.351-.605 1.351-1.351V29.912H24.837z"/><path fill="#FC494A" d="M49.67 53.09H24.837v4.273c0 .746.605 1.351 1.351 1.351H48.32c.746 0 1.351-.605 1.351-1.351V53.09z"/><path fill="#0B0202" d="M36.463 53.09h1.581v5.624h-1.581zm-6.929 0h1.581v5.624h-1.581z"/><path fill="#000" d="M24.837 29.912v8.314a8.67 8.67 0 0 0 1.864.204 8.605 8.605 0 0 0 5.276-1.799 8.605 8.605 0 0 0 5.277 1.799 8.605 8.605 0 0 0 5.276-1.799 8.605 8.605 0 0 0 5.276 1.799 8.67 8.67 0 0 0 1.864-.204v-8.314H24.837z" opacity=".1"/><path fill="#ECEBEB" d="M47.806 18a8.606 8.606 0 0 0-5.276 1.799A8.605 8.605 0 0 0 37.254 18a8.605 8.605 0 0 0-5.276 1.799 8.645 8.645 0 1 0 0 13.693 8.605 8.605 0 0 0 5.276 1.8 8.605 8.605 0 0 0 5.276-1.8A8.646 8.646 0 1 0 47.806 18z"/><path fill="#ABB4BD" d="M64.181 35.822l-7.855 7.855a1.054 1.054 0 0 1-1.49-1.49l7.856-7.855a1.618 1.618 0 0 0-2.289-2.289L52.547 39.9a1.053 1.053 0 1 1-1.49-1.49l7.856-7.855a1.618 1.618 0 0 0-2.289-2.289L44.508 40.38a3.26 3.26 0 0 0 0 4.61 1.258 1.258 0 0 1 0 1.779L28.451 62.827a2.445 2.445 0 1 0 3.457 3.457l16.057-16.057a1.258 1.258 0 0 1 1.78 0 3.26 3.26 0 0 0 4.609 0L66.47 38.11a1.618 1.618 0 0 0-2.289-2.289z"/><path fill="#969FAB" d="M31.531 63.994a.79.79 0 0 1-.559-1.35l4.505-4.504a.79.79 0 0 1 1.118 1.118l-4.505 4.505a.788.788 0 0 1-.559.231z"/></g></g></svg>