<svg xmlns="http://www.w3.org/2000/svg" width="84" height="84" viewBox="0 0 84 84"><g fill="none" fill-rule="evenodd"><path fill="#FFF" d="M42 84C18.804 84 0 65.196 0 42S18.804 0 42 0s42 18.804 42 42-18.804 42-42 42z"/><path fill="#F3F3F4" fill-rule="nonzero" d="M42 81c21.54 0 39-17.46 39-39S63.54 3 42 3 3 20.46 3 42s17.46 39 39 39zm0 3C18.804 84 0 65.196 0 42S18.804 0 42 0s42 18.804 42 42-18.804 42-42 42z"/><g fill-rule="nonzero"><path fill="#FF974B" d="M62.19 64.497h-4.13a.826.826 0 0 1-.826-.826V24.858c0-.456.37-.826.826-.826h4.13c.456 0 .826.37.826.826v38.813c0 .456-.37.826-.826.826z"/><path fill="#FC494A" d="M53.93 64.497H49.8a.826.826 0 0 1-.826-.826V29.813c0-.456.37-.826.826-.826h4.13c.456 0 .826.37.826.826V63.67c0 .456-.37.826-.826.826z"/><path fill="#5872C8" d="M45.67 64.497h-4.13a.826.826 0 0 1-.826-.826V44.677c0-.456.37-.825.826-.825h4.13c.456 0 .826.37.826.825v18.994c0 .456-.37.826-.826.826z"/><path fill="#FFBB41" d="M37.41 64.497h-4.13a.826.826 0 0 1-.826-.826V39.723c0-.456.37-.826.826-.826h4.13c.456 0 .826.37.826.826V63.67c0 .456-.37.826-.826.826z"/><path fill="#F3969B" d="M29.15 64.497h-4.13a.826.826 0 0 1-.825-.826V49.632c0-.456.37-.826.826-.826h4.13c.456 0 .826.37.826.826v14.039c0 .456-.37.826-.826.826z"/><path fill="#D7DEED" d="M20.478 60.368h-1.652a.826.826 0 0 1 0-1.652h1.652v1.652zm0-4.955h-1.652a.826.826 0 0 1 0-1.652h1.652v1.652zm0-4.955h-1.652a.826.826 0 0 1 0-1.652h1.652v1.652zm0-4.955h-1.652a.826.826 0 0 1 0-1.652h1.652v1.652zm0-4.955h-1.652a.826.826 0 0 1 0-1.652h1.652v1.652zm0-4.954h-1.652a.826.826 0 0 1 0-1.652h1.652v1.652zm0-4.955h-1.652a.826.826 0 0 1 0-1.652h1.652v1.652zm0-4.955h-1.652a.826.826 0 0 1 0-1.652h1.652v1.652z"/><path fill="#C7CFE2" d="M20.478 64.497a.826.826 0 0 1-.826-.826V19.903a.826.826 0 1 1 1.652 0v43.768c0 .456-.37.826-.826.826z"/><path fill="#AFB9D2" d="M18 64.497c0-.456.37-.826.826-.826h46.255a.826.826 0 0 1 0 1.652H18.826a.826.826 0 0 1-.826-.826z"/></g></g></svg>