<svg xmlns="http://www.w3.org/2000/svg" width="110" height="110" viewBox="0 0 110 110"><g fill="none" fill-rule="evenodd"><path fill="#FFF" d="M55 110C24.624 110 0 85.376 0 55S24.624 0 55 0s55 24.624 55 55-24.624 55-55 55z"/><path fill="#F3F3F4" fill-rule="nonzero" d="M55 107c28.719 0 52-23.281 52-52S83.719 3 55 3 3 26.281 3 55s23.281 52 52 52zm0 3C24.624 110 0 85.376 0 55S24.624 0 55 0s55 24.624 55 55-24.624 55-55 55z"/><path fill="#000" d="M88.958 52.628c.117 1.397.147 2.794.083 4.195a32.935 32.935 0 0 1-.451 4.154 32.708 32.708 0 0 1-1.297 5.03 32.702 32.702 0 0 1-4.497 8.635 33.91 33.91 0 0 1-2.621 3.183 34.111 34.111 0 0 1-12.364 8.429 34 34 0 0 1-5.203 1.598 34.543 34.543 0 0 1-5.105.74 36.58 36.58 0 0 1-4.486.03 33.815 33.815 0 0 1-4.448-.543 34.565 34.565 0 0 1-4.504-1.164 33.862 33.862 0 0 1-5.98-2.654 34.466 34.466 0 0 1-4.816-3.288 33.882 33.882 0 0 1-4.76-4.74 32.95 32.95 0 0 1-3.137-4.533 32.737 32.737 0 0 1-2.112-4.387 33.686 33.686 0 0 1-1.373-4.38 32.567 32.567 0 0 1-.78-4.88 33.533 33.533 0 0 1-.058-4.511 32.73 32.73 0 0 1 .662-5.035 30.04 30.04 0 0 1 .94-3.464 33.863 33.863 0 0 1 1.793-4.332 32.762 32.762 0 0 1 2.2-3.772 33.485 33.485 0 0 1 3.765-4.614 34.142 34.142 0 0 1 11.71-7.84 34.573 34.573 0 0 1 4.01-1.332 34.84 34.84 0 0 1 7.665-1.13c1.9-.072 3.79.031 5.676.26 1.434.173 2.847.448 4.242.807a34.448 34.448 0 0 1 10.51 4.703 33.977 33.977 0 0 1 8.278 7.845 33.334 33.334 0 0 1 4.224 7.504c.4.997.745 2.012 1.048 3.042.335 1.139.598 2.292.806 3.458.13.727.244 1.459.304 2.197.028.263.046.526.076.789"/><path fill="#FEFEFE" d="M55.019 86.54c-17.514.01-31.945-13.947-31.837-31.422.105-17.08 14.382-31.242 32.39-30.976 17.122.253 31.316 13.919 31.316 31.219-.001 17.264-14.317 31.201-31.87 31.178"/><path fill="#F2959A" d="M56.024 47.053c0 1.768.003 3.536-.003 5.304 0 .16.043.236.204.298 1.13.437 1.97 1.577 1.942 2.81-.01.424-.059.834-.227 1.224-.045.105.002.156.067.22.48.471.957.944 1.435 1.417 1.031 1.025 2.06 2.053 3.094 3.074 1.495 1.476 2.995 2.947 4.49 4.422.648.639 1.279 1.295 1.94 1.92.414.392.442 1 .046 1.4-.366.37-1 .369-1.41-.02-.425-.404-.832-.826-1.249-1.239-.813-.803-1.63-1.604-2.442-2.409-.666-.659-1.327-1.324-1.994-1.982-1.063-1.049-2.13-2.094-3.194-3.143-.686-.677-1.37-1.356-2.05-2.038-.084-.084-.147-.095-.257-.044-1.887.886-4.115-.196-4.483-2.273-.248-1.396.606-2.877 1.968-3.357.151-.054.164-.137.164-.264-.002-3.555-.002-7.11-.002-10.666 0-.594.42-.996 1.026-.985.52.009.935.453.935 1.008.002 1.774 0 3.549 0 5.323"/><path fill="#0AAEC3" d="M81.478 55.024c1.29 0 2.58.006 3.87-.005.212-.002.266.06.247.252a2.473 2.473 0 0 0 0 .49c.02.198-.063.237-.249.236-1.777-.006-3.555-.004-5.333-.004-.808 0-1.618-.005-2.426.004-.175.002-.218-.062-.21-.217a3.883 3.883 0 0 0 0-.55c-.012-.162.043-.21.212-.21 1.296.007 2.593.004 3.89.004m-52.898 0c1.295 0 2.591.004 3.886-.004.175 0 .24.04.226.217-.016.202-.008.405-.003.609.002.109-.043.155-.155.149-.086-.006-.173-.002-.26-.002-2.518 0-5.035-.002-7.553.005-.197 0-.257-.054-.24-.242a3.483 3.483 0 0 0 0-.549c-.01-.15.045-.187.193-.186.767.007 1.535.003 2.303.003h1.603zm46.106-10.07c-.062.004-.087-.04-.109-.077l-.37-.629c-.044-.075-.038-.12.05-.169 1.232-.691 2.462-1.387 3.692-2.082 1.01-.572 2.021-1.144 3.03-1.717.282-.16.282-.161.45.114.09.146.172.295.263.44.06.094.036.15-.06.203-.706.395-1.412.792-2.117 1.19l-4.016 2.27-.71.404c-.034.02-.07.036-.103.052m-30.468-8.651c.009.073-.06.081-.1.105-.182.108-.375.2-.55.319-.14.095-.211.061-.29-.073-.365-.63-.736-1.257-1.107-1.884l-2.32-3.913c-.165-.276-.325-.555-.498-.826-.082-.13-.067-.203.077-.273a3.53 3.53 0 0 0 .5-.286c.152-.106.218-.056.3.085.415.716.838 1.426 1.26 2.137.893 1.508 1.788 3.015 2.682 4.523l.046.086M66.63 74.215c.081.003.092.074.12.12.293.49.583.982.874 1.473 1.023 1.722 2.044 3.444 3.07 5.162.094.157.075.233-.093.31a4.888 4.888 0 0 0-.538.3c-.087.053-.13.053-.186-.042a977.35 977.35 0 0 0-2.103-3.56c-.59-.995-1.182-1.987-1.772-2.98-.024-.04-.041-.083-.07-.119-.124-.151-.076-.244.092-.323.18-.085.35-.191.523-.288.029-.017.056-.035.083-.053m-26.514 7.403l-.237-.135c-.138-.078-.273-.163-.417-.231-.127-.06-.142-.116-.068-.24.55-.918 1.09-1.841 1.634-2.762.771-1.306 1.545-2.61 2.31-3.92.074-.125.122-.133.237-.06.167.107.34.206.52.291.165.077.162.162.077.304-.455.753-.901 1.51-1.348 2.268l-2.578 4.379c-.029.047-.042.117-.13.106m-4.202-14.794c-.006.063-.067.073-.11.098-.738.42-1.476.841-2.215 1.259-1.422.803-2.845 1.603-4.267 2.405-.11.062-.227.114-.328.187-.132.096-.21.087-.285-.067a4.616 4.616 0 0 0-.308-.528c-.077-.115-.038-.17.067-.229.59-.33 1.18-.662 1.77-.996l4.574-2.585.521-.293c.057-.032.106-.059.15.017.136.232.275.463.412.695.007.011.012.023.019.037m-.018-22.652c-.02.04-.043.088-.07.132-.104.175-.221.344-.31.525-.067.134-.128.127-.243.061a761.461 761.461 0 0 0-2.923-1.66c-1.276-.722-2.55-1.446-3.83-2.16-.166-.094-.2-.172-.09-.329.105-.15.19-.314.277-.476.067-.125.135-.139.263-.065.81.467 1.626.925 2.44 1.385l3.811 2.15c.203.115.404.231.604.347.033.02.078.03.071.09m30.711-7.42c-.037-.018-.073-.034-.108-.054-.19-.108-.375-.225-.57-.324-.111-.056-.119-.1-.055-.205.441-.739.873-1.482 1.31-2.223.646-1.097 1.295-2.193 1.942-3.289.24-.405.483-.809.717-1.218.052-.09.09-.108.182-.052.198.12.402.232.607.342.104.055.12.113.058.217-1.245 2.1-2.487 4.203-3.73 6.305l-.25.424c-.023.04-.045.082-.103.078m15.098 33.354c-.021.04-.042.082-.065.12-.107.182-.221.358-.322.543-.056.102-.106.12-.214.057-1.475-.84-2.953-1.676-4.43-2.512l-2.305-1.3c-.243-.137-.243-.137-.109-.371.095-.165.198-.326.287-.494.051-.095.102-.098.19-.047 1.181.672 2.363 1.343 3.546 2.012l3.256 1.84c.065.036.155.052.166.152m-27.16 11.305c0-1.277.002-2.553-.004-3.828 0-.147.026-.213.194-.2.199.016.4.013.6 0 .155-.009.19.049.19.192-.007.759-.003 1.518-.003 2.277 0 1.786-.002 3.573.003 5.359 0 .176-.041.25-.232.233a3.66 3.66 0 0 0-.561 0c-.15.01-.193-.038-.191-.186.008-.733.003-1.466.003-2.199v-1.648zm0-51.81c0-1.283.002-2.566-.005-3.849 0-.16.048-.202.203-.193.206.012.414.008.62.001.125-.004.173.043.159.161-.003.026 0 .052 0 .079 0 2.52-.002 5.04.004 7.561 0 .193-.038.277-.251.252a2.229 2.229 0 0 0-.48 0c-.195.018-.259-.032-.257-.24.012-1.258.006-2.515.006-3.771"/></g></svg>