<svg xmlns="http://www.w3.org/2000/svg" width="84" height="84" viewBox="0 0 84 84"><g fill="none" fill-rule="evenodd"><path fill="#FFF" d="M42 84C18.804 84 0 65.196 0 42S18.804 0 42 0s42 18.804 42 42-18.804 42-42 42z"/><path fill="#F3F3F4" fill-rule="nonzero" d="M42 81c21.54 0 39-17.46 39-39S63.54 3 42 3 3 20.46 3 42s17.46 39 39 39zm0 3C18.804 84 0 65.196 0 42S18.804 0 42 0s42 18.804 42 42-18.804 42-42 42z"/><g fill-rule="nonzero"><path fill="#C7CFE2" d="M40.929 30.348h25.707c2.357 0 4.285 1.956 4.285 4.348v15.217c0 2.392-1.929 4.348-4.285 4.348H52.711v4.123c0 .484-.577.727-.914.384l-4.441-4.507h-6.427c-2.357 0-4.285-1.956-4.285-4.347V34.696c0-2.392 1.928-4.348 4.285-4.348z"/><path fill="#AFB9D2" d="M65.528 39.044h-19.67V36.87H58.03c.57 0 1.068-.437 1.105-1.015a1.08 1.08 0 0 0-1.069-1.16H47.071v-4.347H44.93s2.427 14.307 2.427 15.218c0 2.39-1.928 4.347-4.285 4.347 0 0 4-.751 4-4.348h6.678c.537 0 1.017-.386 1.093-.925a1.082 1.082 0 0 0-1.06-1.249H46.95v-2.173h18.615a1.08 1.08 0 0 0 1.069-1.16c-.037-.577-.535-1.014-1.106-1.014z"/><path fill="#959CB3" d="M65.565 36.87H62.35a1.079 1.079 0 0 1-1.07-1.087c0-.6.478-1.087 1.07-1.087h3.214c.592 0 1.071.486 1.071 1.087 0 .6-.479 1.087-1.071 1.087zm0 8.696h-7.498a1.079 1.079 0 0 1-1.071-1.087c0-.6.479-1.087 1.071-1.087h7.498c.592 0 1.071.486 1.071 1.087 0 .6-.479 1.087-1.071 1.087z"/><path fill="#AFB9D2" d="M65.565 49.914H50.569a1.079 1.079 0 0 1-1.071-1.087c0-.6.479-1.088 1.071-1.088h14.996a1.08 1.08 0 0 1 1.071 1.088c0 .6-.479 1.087-1.071 1.087z"/><path fill="#E4EAF6" d="M43.071 26H17.364c-2.356 0-4.284 1.957-4.284 4.348v15.218c0 2.39 1.928 4.347 4.284 4.347H31.29v4.123c0 .484.577.727.914.385l4.441-4.507h6.427c2.357 0 4.285-1.957 4.285-4.348V30.348c0-2.391-1.928-4.348-4.285-4.348z"/><path fill="#AFB9D2" d="M21.649 32.522h-3.214a1.079 1.079 0 0 1-1.07-1.087c0-.6.478-1.087 1.07-1.087h3.214c.592 0 1.07.487 1.07 1.087s-.478 1.087-1.07 1.087z"/><path fill="#C7CFE2" d="M42 32.522H25.933a1.079 1.079 0 0 1-1.071-1.087c0-.6.479-1.087 1.071-1.087H42c.592 0 1.071.487 1.071 1.087s-.479 1.087-1.07 1.087zm0 4.348H18.435a1.079 1.079 0 0 1-1.07-1.087c0-.6.478-1.087 1.07-1.087H42c.592 0 1.071.486 1.071 1.087 0 .6-.479 1.087-1.07 1.087z"/><path fill="#AFB9D2" d="M42 41.218h-3.213a1.079 1.079 0 0 1-1.071-1.087c0-.6.479-1.087 1.07-1.087H42c.592 0 1.071.486 1.071 1.087 0 .6-.479 1.087-1.07 1.087z"/><path fill="#C7CFE2" d="M34.502 41.218H18.435a1.079 1.079 0 0 1-1.07-1.087c0-.6.478-1.087 1.07-1.087h16.067c.592 0 1.071.486 1.071 1.087 0 .6-.479 1.087-1.07 1.087zM42 45.566H18.435a1.079 1.079 0 0 1-1.07-1.087c0-.6.478-1.087 1.07-1.087H42c.592 0 1.071.486 1.071 1.087 0 .6-.479 1.087-1.07 1.087z"/></g></g></svg>