<svg xmlns="http://www.w3.org/2000/svg" width="84" height="84" viewBox="0 0 84 84"><g fill="none" fill-rule="evenodd"><path fill="#FFF" d="M42 84C18.804 84 0 65.196 0 42S18.804 0 42 0s42 18.804 42 42-18.804 42-42 42z"/><path fill="#F3F3F4" fill-rule="nonzero" d="M42 81c21.54 0 39-17.46 39-39S63.54 3 42 3 3 20.46 3 42s17.46 39 39 39zm0 3C18.804 84 0 65.196 0 42S18.804 0 42 0s42 18.804 42 42-18.804 42-42 42z"/><g fill-rule="nonzero"><path fill="#ECEBEB" d="M49.926 19H24.362a1.92 1.92 0 0 0-1.915 1.915v42.129a1.92 1.92 0 0 0 1.915 1.915h35.235a1.92 1.92 0 0 0 1.915-1.915V30.585L49.926 19z"/><path fill="#D3D3D3" d="M49.926 28.67a1.92 1.92 0 0 0 1.915 1.915h9.671L49.926 19v9.67z"/><path fill="#0AAFC4" d="M64.001 55.48H19.957c-.574 0-.957.383-.957.957v5.554c0 .574.383.957.957.957h44.044c.575 0 .958-.383.958-.957v-5.554A.96.96 0 0 0 64 55.48z"/><path fill="#F2F2F2" d="M20.915 55.48h1v2.011h-1zm3.83 0h1v2.011h-1zm3.83 0h1v2.011h-1zm3.734 0h1v2.011h-1zm3.83 0h1v2.011h-1zm3.83 0h1v2.011h-1zm3.83 0h1v2.011h-1zm3.734 0h1v2.011h-1zm3.83 0h1v2.011h-1zm3.83 0h1v2.011h-1zm3.829 0h1v2.011h-1zm3.83 0h1v2.011h-1z"/><path fill="#F3969B" d="M64.959 50.692c0-.957-.766-1.723-1.724-1.723H59.79v3.447h3.446c.958 0 1.724-.766 1.724-1.724z"/><path fill="#FFBB41" d="M24.266 48.969v3.447l-3.255-1.053L19 50.692l2.011-.67z"/><path fill="#666" d="M21.011 50.022v1.341L19 50.692z"/><path fill="#5DBAA3" d="M24.266 48.969v1.053h33.895v-1.053z"/><path fill="#458B7A" d="M24.266 50.022h33.895v1.341H24.266z"/><path fill="#5DBAA3" d="M24.266 51.363h33.895v1.053H24.266z"/><path fill="#FFBB41" d="M58.161 48.969h1.628v3.447h-1.628z"/><path fill="#55BFE9" d="M58.16 48.969h1.628-1.627z"/><path fill="#FFD15C" d="M59.788 50.022v-1.053z"/><path fill="#55BFE9" d="M59.788 51.363v-1.341z"/></g></g></svg>