<svg xmlns="http://www.w3.org/2000/svg" width="84" height="84" viewBox="0 0 84 84"><g fill="none" fill-rule="evenodd"><path fill="#FFF" d="M42 84C18.804 84 0 65.196 0 42S18.804 0 42 0s42 18.804 42 42-18.804 42-42 42z"/><path fill="#F3F3F4" fill-rule="nonzero" d="M42 81c21.54 0 39-17.46 39-39S63.54 3 42 3 3 20.46 3 42s17.46 39 39 39zm0 3C18.804 84 0 65.196 0 42S18.804 0 42 0s42 18.804 42 42-18.804 42-42 42z"/><g fill-rule="nonzero"><path fill="#FFBB41" d="M56.903 63.6H23.566a1.165 1.165 0 0 1-1.125-1.47l7.572-20.759a1.165 1.165 0 0 1 1.125-.86h33.337c.767 0 1.125.732 1.125 1.469l-7.572 20.759a1.165 1.165 0 0 1-1.125.861z"/><path fill="#F7B43A" d="M59.841 33.807h-3.179v6.703h4.469v-5.413a1.29 1.29 0 0 0-1.29-1.29zm-31.482-5.214H23.69a1.29 1.29 0 0 0-1.29 1.29v31.825l.153.008 5.806-15.834V28.593z"/><path fill="#F4EFDC" d="M30.013 41.371a1.165 1.165 0 0 1 1.125-.86h25.524v-8.939L45.49 20.4H28.359v25.507l1.654-4.536z"/><path fill="#CEC9AE" d="M41.02 32.317h-7.448a.745.745 0 1 1 0-1.49h7.449a.745.745 0 1 1 0 1.49zm0-5.214h-7.448a.745.745 0 1 1 0-1.49h7.449a.745.745 0 1 1 0 1.49zm10.428 10.428H33.572a.745.745 0 1 1 0-1.49h17.876a.745.745 0 1 1 0 1.49z"/><path fill="#D1BF86" d="M45.49 31.572h11.172L45.49 20.4z"/></g></g></svg>