<svg xmlns="http://www.w3.org/2000/svg" width="84" height="84" viewBox="0 0 84 84"><g fill="none" fill-rule="evenodd"><path fill="#FFF" d="M42 84C18.804 84 0 65.196 0 42S18.804 0 42 0s42 18.804 42 42-18.804 42-42 42z"/><path fill="#F3F3F4" fill-rule="nonzero" d="M42 81c21.54 0 39-17.46 39-39S63.54 3 42 3 3 20.46 3 42s17.46 39 39 39zm0 3C18.804 84 0 65.196 0 42S18.804 0 42 0s42 18.804 42 42-18.804 42-42 42z"/><g fill-rule="nonzero"><path fill="#F1543F" d="M42.413 57.209h-3.051V64.8l3.051-2.551 3.052 2.551v-7.591z"/><path fill="#E6E9EE" d="M68.257 46.071a199.15 199.15 0 0 1-51.626 0V61.13a199.15 199.15 0 0 1 51.626 0V46.07z"/><path fill="#FF7058" d="M45.963 47.751v11.76h-6.975v-11.76c2.304.062 4.608.062 6.975 0z"/><path fill="#2B3B4E" d="M43.036 30.516H27.467V49.12c10.026-2.676 15.631 3.733 15.631 3.733s5.605-6.409 15.631-3.733V30.516H43.036z"/><path fill="#324A5E" d="M43.036 20L17.503 30.516l25.533 10.453 25.533-10.453z"/><g transform="translate(60 30)"><path fill="#F7B33B" d="M6.763 20.178H.349l1.37-5.414h3.674z"/><path fill="#FF7058" d="M2.964.516H4.21v16.053H2.964z"/><ellipse cx="3.587" cy="14.764" fill="#FFBB41" rx="2.553" ry="2.551"/></g></g></g></svg>