<svg xmlns="http://www.w3.org/2000/svg" width="84" height="84" viewBox="0 0 84 84"><g fill="none" fill-rule="evenodd"><path fill="#FFF" d="M42 84C18.804 84 0 65.196 0 42S18.804 0 42 0s42 18.804 42 42-18.804 42-42 42z"/><path fill="#F3F3F4" fill-rule="nonzero" d="M42 81c21.54 0 39-17.46 39-39S63.54 3 42 3 3 20.46 3 42s17.46 39 39 39zm0 3C18.804 84 0 65.196 0 42S18.804 0 42 0s42 18.804 42 42-18.804 42-42 42z"/><g fill-rule="nonzero"><path fill="#A35D17" d="M26.26 61.408c-1.167 1.16-3.003 1.16-4.087 0-1.168-1.16-1.168-2.981 0-4.058l20.855-20.703c1.168-1.16 3.003-1.16 4.087 0 1.168 1.16 1.168 2.981 0 4.058L26.26 61.408z"/><path fill="#6B400C" d="M47.115 36.647c1.168 1.16 1.168 2.981 0 4.058L26.26 61.408c-1.167 1.16-3.003 1.16-4.087 0"/><path fill="#F4AD31" d="M25.677 66.542a3.34 3.34 0 0 1-4.755 0L17 62.65c-1.335-1.325-1.335-3.395 0-4.72a3.34 3.34 0 0 1 4.755 0l3.92 3.892c1.335 1.325 1.335 3.395 0 4.72zM60.546 44.35c-3.504 3.478-7.258 1.573-10.761-1.905l-8.593-8.53c-3.503-3.478-5.338-7.204-1.918-10.682l1.501-1.491c3.504-3.478 7.258-1.573 10.761 1.905l8.592 8.53c3.504 3.477 5.34 7.204 1.92 10.682l-1.502 1.49z"/><path fill="#F4AD31" d="M37.439 29.277a1.72 1.72 0 0 1-2.42 0 1.69 1.69 0 0 1 0-2.402l9.343-9.357a1.72 1.72 0 0 1 2.42 0 1.69 1.69 0 0 1 0 2.401l-9.343 9.358z"/><path fill="#DD820A" d="M46.781 17.518a1.69 1.69 0 0 1 0 2.401l-9.342 9.358a1.72 1.72 0 0 1-2.42 0"/><path fill="#F4AD31" d="M56.959 48.655a1.72 1.72 0 0 1-2.42 0 1.69 1.69 0 0 1 0-2.402l9.343-9.275a1.72 1.72 0 0 1 2.42 0 1.69 1.69 0 0 1 0 2.402l-9.343 9.275z"/><path fill="#DD820A" d="M66.385 36.978a1.69 1.69 0 0 1 0 2.402l-9.426 9.275a1.72 1.72 0 0 1-2.42 0m-6.256-5.714c-.584.58-1.585.58-2.169 0l-5.255-5.217a1.542 1.542 0 0 1 0-2.153c.584-.58 1.585-.58 2.169 0l5.255 5.217c.584.58.584 1.573 0 2.153z"/><path fill="#FC494A" d="M49.534 58.841h17.518v7.453H49.534z"/><path fill="#F9696A" d="M67.886 67.287c0 .332-.25.663-.667.663H49.367a.656.656 0 0 1-.667-.663v-.414c0-.33.25-.662.667-.662h17.935c.334 0 .668.248.668.662v.414h-.084zm0-9.109c0 .331-.25.663-.667.663H49.367a.656.656 0 0 1-.667-.663v-.414c0-.331.25-.662.667-.662h17.935c.334 0 .668.248.668.662v.414h-.084z"/></g></g></svg>