<svg xmlns="http://www.w3.org/2000/svg" width="110" height="110" viewBox="0 0 110 110"><g fill="none" fill-rule="evenodd"><path fill="#FFF" d="M55 110C24.624 110 0 85.376 0 55S24.624 0 55 0s55 24.624 55 55-24.624 55-55 55z"/><path fill="#F3F3F4" fill-rule="nonzero" d="M55 107c28.719 0 52-23.281 52-52S83.719 3 55 3 3 26.281 3 55s23.281 52 52 52zm0 3C24.624 110 0 85.376 0 55S24.624 0 55 0s55 24.624 55 55-24.624 55-55 55z"/><g fill-rule="nonzero" transform="translate(15 37)"><path fill="#E37E67" d="M56.163 24.943l-1.83-1.331.832-.832-1.83-5.822L42.69 8.475c-1.33-.998-2.994-1.33-4.49-.832l-9.981 3.327-5.822 13.307 1.33.998 19.296 13.141c.998.666 2.495.5 3.327-.665.665-.998.499-2.495-.666-3.327L44.02 33.26l2.661 1.83c.999.665 2.496.498 3.327-.666.666-.998.5-2.495-.665-3.327l.832.666c.998.665 2.495.499 3.326-.666.666-.998.5-2.495-.665-3.327l.832.666c.998.665 2.495.499 3.326-.666.666-.665.334-2.162-.83-2.827z"/><g fill="#FBC1A2"><path d="M56.163 24.943c.499.332.831.831.998 1.33l9.149-7.152-8.151-10.314-5.656 3.16L44.52 9.14a2.324 2.324 0 0 0-2.495.5l-5.157 4.823c-.5.5-.832 1.165-.666 1.83.167 1.497.333 4.325 1.165 6.32.499 1.331 2.162 1.83 3.327.999.499-.333.831-.998.998-1.497.332-1.165.998-3.327.332-4.824l.333-.333c.333-.499.998-.499 1.497-.166l12.31 8.15zm-25.118 1.663c.832-1.164.333-2.828-.998-3.327-.998-.499-2.329-.166-2.994.832l-2.329 3.493c-.665.998-.499 2.495.666 3.16 1.164.832 2.661.5 3.326-.665l2.33-3.493zm-1.83 6.986c1.165.832 2.662.5 3.327-.665l2.495-3.826.832-1.164c.665-.998.499-2.495-.5-3.327-1.164-.832-2.494-.5-3.326.665l-.832 1.331-2.495 3.826c-.831.998-.499 2.329.5 3.16z"/><path d="M38.031 28.27c-.998-.5-2.328-.167-2.994.831l-2.661 3.992c-.666.998-.5 2.495.665 3.16 1.165.832 2.662.5 3.327-.665l2.662-3.992c.665-.998.166-2.661-.999-3.327z"/><path d="M40.36 33.093c-.998-.499-2.329-.166-2.994.832l-1.164 1.83c-.666.998-.5 2.495.665 3.16 1.164.832 2.662.5 3.327-.665l1.164-1.83c.666-.998.333-2.661-.998-3.327z"/></g><path fill="#E8EAE9" d="M21.52 27.268l-8.995-3.927 7.588-17.38 8.995 3.927z"/><rect width="17.966" height="25.119" x="4.43" y="2.687" fill="#666" rx="2" transform="rotate(-156.416 13.413 15.246)"/><circle cx="13.746" cy="24.776" r="1.663" fill="#344A5E"/><path fill="#E8EAE9" d="M50.898 9.898l8.995-3.927 7.588 17.38-8.995 3.927z"/><rect width="17.966" height="25.119" x="57.672" y="2.709" fill="#0AAFC4" rx="2" transform="rotate(-23.584 66.655 15.269)"/><circle cx="66.31" cy="24.776" r="1.663" fill="#344A5E"/></g></g></svg>