<svg xmlns="http://www.w3.org/2000/svg" width="84" height="84" viewBox="0 0 84 84"><g fill="none" fill-rule="evenodd"><path fill="#FFF" d="M42 84C18.804 84 0 65.196 0 42S18.804 0 42 0s42 18.804 42 42-18.804 42-42 42z"/><path fill="#F3F3F4" fill-rule="nonzero" d="M42 81c21.54 0 39-17.46 39-39S63.54 3 42 3 3 20.46 3 42s17.46 39 39 39zm0 3C18.804 84 0 65.196 0 42S18.804 0 42 0s42 18.804 42 42-18.804 42-42 42z"/><g fill-rule="nonzero"><path fill="#FFD3AE" d="M60.456 54.008a3.048 3.048 0 0 1-1.76 2.753 3.068 3.068 0 0 1-3.455-.605l-8.731-8.68.737.734 8.962 8.91c.01.01.02.019.027.028a3.022 3.022 0 0 1-.027 4.27 3.07 3.07 0 0 1-4.322 0l-2.276-2.263c.572.587.857 1.349.857 2.109a3.02 3.02 0 0 1-.895 2.148 3.07 3.07 0 0 1-4.32 0l-2.93-2.912a3.026 3.026 0 0 1-.074 4.336 3.05 3.05 0 0 1-2.103.835 3.05 3.05 0 0 1-2.16-.891L25.633 52.497l-1.05-1.042-1.901-1.891a18.944 18.944 0 0 1-5.49-11.455L12 32.946l6.19-6.258 8.491-8.584 5.931 5.898a3.427 3.427 0 0 0 3.944.628 7.449 7.449 0 0 1 3.319-.778c.763 0 1.526.116 2.26.35a9.87 9.87 0 0 0-1.8 1.417l7.445 3.55.906 5.845s.683-4.754-1.28-1.406l4.37.604c.011.01-1.96 3.195-1.948 3.206l9.333 14.043.4.399c.597.593.895 1.37.895 2.148z"/><path fill="#915046" d="M37.736 64.531l-.19.19a3.054 3.054 0 0 1-2.161.89 3.054 3.054 0 0 1-2.16-.89 3.027 3.027 0 0 1 0-4.297l.19-.189 3.003 1.428 1.318 2.868zm-8.83-8.78l-.002.001a3.068 3.068 0 0 1-4.322 0 3.02 3.02 0 0 1-.894-2.148c0-.777.298-1.555.895-2.148l1.892.523 1.657 1.313.774 2.46zm0 0l3.502 1.493.875 2.86-.32.282a3.069 3.069 0 0 1-4.206-.108 3.025 3.025 0 0 1-.5-3.645c.133-.233.584-.818.647-.88l.002-.002z"/><path fill="#AA6455" d="M72 32.7l-5.44 5.409a18.913 18.913 0 0 1-.728 3.57 18.983 18.983 0 0 1-4.762 7.885l-1.909 1.898-9.239-9.187-5.536-5.505a.743.743 0 0 1-.032-.03l-.046-.046-.003-.002-.04-.04-2.004-1.995-1.537 1.528a6.85 6.85 0 0 1-4.846 1.996 6.85 6.85 0 0 1-4.844-1.996.93.93 0 0 1 0-1.318l9.3-9.248a9.865 9.865 0 0 1 6.975-2.873c1.713 0 3.427.44 4.953 1.322 1.344.778 3.053.526 4.151-.566l3.653-3.631L72 32.7z"/><path fill="#E5B48F" d="M42.249 64.836a3.05 3.05 0 0 1-2.103.835 3.05 3.05 0 0 1-2.16-.891L25.633 52.497l-1.05-1.042-1.901-1.891a18.944 18.944 0 0 1-5.49-11.455L12 32.946l6.19-6.258 1.69 5.597c.576 1.913.852 3.9.863 5.896.008 1.378.232 3.148 1.097 4.714 1.119 2.024 12.719 14.75 20.409 21.94z"/><path fill="#E5B48F" d="M48.71 64.016a3.07 3.07 0 0 1-3.458-.604L42.324 60.5l-7.737-7.693a.997.997 0 0 1 0-1.416 1.01 1.01 0 0 1 1.424 0L48.71 64.016zm7.526-6.868l-8.989-8.938 8.962 8.91c.01.01.02.019.027.028z"/><path fill="#E5B48F" d="M55.24 56.156l-8.73-8.68.737.734-3.818-3.795a1 1 0 0 1 0-1.417 1.012 1.012 0 0 1 1.425 0l3.819 3.796 10.023 9.967a3.068 3.068 0 0 1-3.455-.605zm.104 5.865a3.07 3.07 0 0 1-3.456-.604l-2.277-2.262-9.8-9.745a.997.997 0 0 1 0-1.416 1.01 1.01 0 0 1 1.425 0L55.344 62.02z"/><path fill="#874E42" d="M42.261 34.657l2.149-2.137-1.109 3.173z"/></g></g></svg>