<svg xmlns="http://www.w3.org/2000/svg" width="84" height="84" viewBox="0 0 84 84"><g fill="none" fill-rule="evenodd"><path fill="#FFF" d="M42 84C18.804 84 0 65.196 0 42S18.804 0 42 0s42 18.804 42 42-18.804 42-42 42z"/><path fill="#F3F3F4" fill-rule="nonzero" d="M42 81c21.54 0 39-17.46 39-39S63.54 3 42 3 3 20.46 3 42s17.46 39 39 39zm0 3C18.804 84 0 65.196 0 42S18.804 0 42 0s42 18.804 42 42-18.804 42-42 42z"/><g fill-rule="nonzero"><path fill="#FFF" d="M20.875 27.371h42.25v26.166h-42.25z"/><path fill="#0AAFC4" d="M20.875 27.371h42.25v6.541h-42.25z"/><path fill="#5C546A" d="M62.63 24.1H21.369c-2.064 0-3.743 1.686-3.743 3.758v29.767c0 .452.363.818.813.818h47.124c.45 0 .813-.366.813-.818V27.858a3.755 3.755 0 0 0-3.744-3.757zM20.876 52.72V28.188c0-.452.364-.818.813-.818h40.624c.45 0 .813.366.813.818v24.53a.815.815 0 0 1-.813.818H21.688a.815.815 0 0 1-.813-.818z"/><path fill="#B9BBC1" d="M67.188 56.808H16.812a.815.815 0 0 0-.812.817c0 1.806 1.46 3.274 3.253 3.274h45.494C66.54 60.9 68 59.431 68 57.625a.814.814 0 0 0-.812-.817z"/><path fill="#FFBB41" d="M30.625 31.46h-5.688a.815.815 0 0 1-.812-.818c0-.452.363-.818.813-.818h5.687c.45 0 .813.366.813.818a.815.815 0 0 1-.813.818z"/><path fill="#FFF" d="M45.25 31.46h-.813a.815.815 0 0 1-.812-.818c0-.452.363-.818.813-.818h.812c.45 0 .813.366.813.818a.815.815 0 0 1-.813.818zm4.063 0H48.5a.815.815 0 0 1-.813-.818c0-.452.364-.818.813-.818h.813c.449 0 .812.366.812.818a.815.815 0 0 1-.813.818zm4.062 0h-.813a.815.815 0 0 1-.812-.818c0-.452.363-.818.813-.818h.812c.45 0 .813.366.813.818a.815.815 0 0 1-.813.818zm4.063 0h-.813a.815.815 0 0 1-.813-.818c0-.452.364-.818.813-.818h.813c.449 0 .812.366.812.818a.815.815 0 0 1-.813.818z"/><path fill="#5872C8" d="M58.25 38.001H24.13a.815.815 0 0 1-.813-.818c0-.452.364-.817.813-.817h34.12c.45 0 .813.365.813.817a.815.815 0 0 1-.813.818z"/><path fill="#B9BBC1" d="M49.313 44.543H24.13a.815.815 0 0 1-.813-.818c0-.452.364-.818.813-.818h25.183c.449 0 .812.366.812.818a.815.815 0 0 1-.813.818zm0 3.109H24.13a.815.815 0 0 1-.813-.818c0-.452.364-.818.813-.818h25.183c.449 0 .812.366.812.818a.815.815 0 0 1-.813.818zm0 3.11H24.13a.815.815 0 0 1-.813-.819c0-.452.364-.817.813-.817h25.183c.449 0 .812.365.812.817a.815.815 0 0 1-.813.818zm9.75-6.22h-6.5a.815.815 0 0 1-.813-.817c0-.452.363-.818.813-.818h6.5c.449 0 .812.366.812.818a.815.815 0 0 1-.813.818zm0 3.271h-6.5a.815.815 0 0 1-.813-.817c0-.452.363-.818.813-.818h6.5c.449 0 .812.366.812.818a.815.815 0 0 1-.813.817zm0 3.271h-6.5a.815.815 0 0 1-.813-.818c0-.452.363-.817.813-.817h6.5c.449 0 .812.365.812.817a.815.815 0 0 1-.813.818z"/><path fill="#5872C8" d="M53.375 41.272H24.13a.815.815 0 0 1-.813-.818c0-.452.364-.818.813-.818h29.245c.45 0 .813.366.813.818a.815.815 0 0 1-.813.818z"/><path fill="#8B8996" d="M38.75 58.443h6.5a1.63 1.63 0 0 0 1.625-1.635h-9.75a1.63 1.63 0 0 0 1.625 1.635z"/></g></g></svg>