<svg xmlns="http://www.w3.org/2000/svg" width="84" height="84" viewBox="0 0 84 84"><g fill="none" fill-rule="evenodd"><path fill="#FFF" d="M42 84C18.804 84 0 65.196 0 42S18.804 0 42 0s42 18.804 42 42-18.804 42-42 42z"/><path fill="#F3F3F4" fill-rule="nonzero" d="M42 81c21.54 0 39-17.46 39-39S63.54 3 42 3 3 20.46 3 42s17.46 39 39 39zm0 3C18.804 84 0 65.196 0 42S18.804 0 42 0s42 18.804 42 42-18.804 42-42 42z"/><g fill-rule="nonzero" transform="translate(14 26)"><path fill="#D54D4E" d="M39.675 23.454v3.852h-6.177v-1.303a.771.771 0 0 0-.786-.793H22.94a.771.771 0 0 0-.786.793v1.303h-7.918a4.353 4.353 0 0 0-4.212-3.229 4.353 4.353 0 0 0-4.212 3.23H1.994v-3.853h37.681z"/><path fill="#F9696A" d="M1.994 23.454c-1.067 0-1.966-.906-1.966-1.983V1.983C.028.906.927 0 1.994 0H37.71c1.067 0 1.965.906 1.965 1.983v21.471H1.994z"/><path fill="#84DBFF" d="M39.675 7.818V28.27H56.41v-9.461L50.458 7.818z"/><path fill="#E6E9EE" d="M56.41 18.809v7.93h-3.032v1.53h-3.089c-.112-2.322-2.022-4.192-4.38-4.192-2.303 0-4.212 1.87-4.38 4.193h-1.91V7.875h10.782l6.01 10.934z"/><path fill="#84DBFF" d="M54.389 17.789l-4.661-8.668h-8.761v8.668z"/><ellipse cx="10.024" cy="28.496" fill="#2B3B4E" rx="4.38" ry="4.419"/><ellipse cx="10.024" cy="28.496" fill="#E6E9EE" rx="2.808" ry="2.833"/><path fill="#E6E9EE" d="M32.712 29.233h-9.715a.771.771 0 0 1-.787-.794v-2.492c0-.453.337-.793.787-.793h9.715c.45 0 .786.34.786.793v2.492a.771.771 0 0 1-.786.794z"/><path fill="#FFBB41" d="M54.782 22.774h1.629v3.286h-1.629z"/><path fill="#2B3B4E" d="M56.467 26.74h-3.09v2.266h3.09c.28 0 .505-.227.505-.51v-1.19c0-.34-.225-.566-.505-.566zm-5.56 1.53h-.618c-.112-2.323-2.022-4.193-4.38-4.193-2.359 0-4.268 1.87-4.38 4.193h-.618c.112-2.663 2.302-4.816 4.998-4.816a4.984 4.984 0 0 1 4.998 4.816z"/><ellipse cx="45.909" cy="28.496" fill="#2B3B4E" rx="4.38" ry="4.419"/><ellipse cx="45.909" cy="28.496" fill="#E6E9EE" rx="2.808" ry="2.833"/></g></g></svg>