<svg xmlns="http://www.w3.org/2000/svg" width="110" height="110" viewBox="0 0 110 110"><g fill="none" fill-rule="evenodd"><path fill="#FFF" d="M55 110C24.624 110 0 85.376 0 55S24.624 0 55 0s55 24.624 55 55-24.624 55-55 55z"/><path fill="#F3F3F4" fill-rule="nonzero" d="M55 107c28.719 0 52-23.281 52-52S83.719 3 55 3 3 26.281 3 55s23.281 52 52 52zm0 3C24.624 110 0 85.376 0 55S24.624 0 55 0s55 24.624 55 55-24.624 55-55 55z"/><path fill="#C6C6C6" d="M82.07 70.806c0 1.067-.842 1.95-1.866 1.95H31.528c-1.024 0-1.866-.883-1.866-1.95V38.024c0-1.067.842-1.95 1.866-1.95H80.24c1.025 0 1.867.883 1.867 1.95v32.782h-.037z"/><path fill="#C1BFBD" d="M90.89 73.602c0 .625-.659 1.104-3.88 1.104H24.393c-2.306 0-4.136-.479-4.136-1.104v-.074c0-.625.44-1.103 1.062-1.103h68.767c.622 0 .805.478.805 1.103v.074z"/><path fill="#DADADA" d="M20.256 71.1H90.89v2.281H20.256z"/><path fill="#FFF" d="M32.443 38.759h46.589v29.655H32.443z"/><path fill="#C1BFBD" d="M50.925 71.21v.037c0 .368.073.515.476.515h8.527c.366 0 .44-.147.44-.515v-.037l.22-.11h-9.882s.22.074.22.11z"/><path d="M72.994 45.087H54.988c-.22 0-.366-.147-.366-.368 0-.22.146-.367.366-.367h18.006c.22 0 .366.147.366.367a.368.368 0 0 1-.366.368zm0 11.038H54.988c-.22 0-.366-.147-.366-.368 0-.22.146-.368.366-.368h18.006c.22 0 .366.147.366.368s-.183.368-.366.368zm-.842-3.68H54.988c-.22 0-.366-.146-.366-.367 0-.22.146-.368.366-.368h17.164c.22 0 .366.147.366.368 0 .22-.183.368-.366.368zm-2.818-3.678H54.988c-.22 0-.366-.148-.366-.368 0-.221.146-.368.366-.368h14.346c.22 0 .366.147.366.368 0 .22-.183.368-.366.368zm0 11.037H54.988c-.22 0-.366-.147-.366-.368 0-.22.146-.367.366-.367h14.346c.22 0 .366.147.366.367a.368.368 0 0 1-.366.368z" fill="#E4E4E4"/><path d="M37.154 55.889c-.165 0-.331-.114-.441-.284-.166-.284-.056-.568.165-.738l1.602-1.021c.277-.17.553-.057.718.17.166.284.056.567-.165.738l-1.602 1.021c-.056.114-.166.114-.277.114zm.83-3.406h-2.155c-.277 0-.553-.227-.498-.567 0-.284.221-.51.553-.51 0 0 1.547.056 2.707 0a.56.56 0 0 1 .552.567c0 .283-.22.567-.552.567-.221-.057-.387-.057-.608-.057zm.828-2.27a.416.416 0 0 1-.276-.113s-.774-.51-1.547-.851c-.276-.114-.387-.454-.276-.738.11-.284.441-.397.718-.284.828.397 1.657.908 1.712.965.221.17.332.51.166.738-.166.17-.332.283-.497.283zm8.673.341c-.166 0-.332-.114-.442-.284-.166-.284-.055-.567.166-.738l1.602-1.021c.276-.17.552-.057.718.17.166.284.055.568-.166.738l-1.602 1.021c-.11.057-.166.114-.276.114zm2.873 2.44s-1.547-.057-2.707 0a.561.561 0 0 1-.553-.567c0-.284.221-.568.553-.568h2.707c.276 0 .552.227.497.568.055.34-.166.567-.497.567zm-1.326 3.122c-.056 0-.166 0-.221-.057-.829-.397-1.658-.908-1.713-.965-.22-.17-.331-.51-.166-.738.166-.227.498-.34.719-.17 0 0 .773.51 1.546.851.277.114.387.454.277.738-.056.227-.221.34-.442.34zm-5.414.454c-2.044 0-3.094-1.873-3.204-3.69-.055-1.134.497-3.064 1.823-3.745.663-.34 1.657-.51 3.038.624.221.17.276.511.055.738a.464.464 0 0 1-.718.057c-.718-.624-1.38-.795-1.878-.51-.829.453-1.27 1.929-1.215 2.723.11 1.249.718 2.668 2.154 2.668.829 0 1.105-1.079 1.16-1.703-.386-.114-.939-.227-1.27-.227a.561.561 0 0 1-.553-.568c0-.34.221-.567.553-.567.718 0 1.878.34 1.988.34a.543.543 0 0 1 .387.511c-.055 1.249-.497 3.349-2.32 3.349z" fill="#0AAFC4" fill-rule="nonzero"/></g></svg>