<svg xmlns="http://www.w3.org/2000/svg" width="110" height="110" viewBox="0 0 110 110"><g fill="none" fill-rule="evenodd"><path fill="#FFF" d="M55 110C24.624 110 0 85.376 0 55S24.624 0 55 0s55 24.624 55 55-24.624 55-55 55z"/><path fill="#F3F3F4" fill-rule="nonzero" d="M55 107c28.719 0 52-23.281 52-52S83.719 3 55 3 3 26.281 3 55s23.281 52 52 52zm0 3C24.624 110 0 85.376 0 55S24.624 0 55 0s55 24.624 55 55-24.624 55-55 55z"/><g fill-rule="nonzero"><path fill="#FFBB41" d="M50.528 63.546l4.706 7.578-2.903 3.393z"/><path fill="#F9696A" d="M52.639 37.506H34.518c-.836 0-1.496.66-1.496 1.498V59.14c0 .837.66 1.498 1.496 1.498h18.12c.836 0 1.496-.661 1.496-1.498V39.048c0-.837-.66-1.542-1.495-1.542z"/><path fill="#FFBB41" d="M30.12 42.397a2.067 2.067 0 0 0-2.068 2.07v9.297c0 1.146.924 2.071 2.067 2.071h2.903V42.397H30.12z"/><path fill="#0AAFC4" d="M78.765 68.657l-24.631-9.958V39.533l24.631-10.002z"/><path fill="#FFBB41" d="M80.832 27.107a2.067 2.067 0 0 0-2.067 2.071v39.875a2.067 2.067 0 1 0 4.134 0V29.134c-.044-1.101-.967-2.027-2.067-2.027z"/><path fill="#D8D8D8" d="M54.662 82.36h-8.841l-9.544-21.678h13.899z"/><path d="M48.768 41.604h-10.38c-.571 0-1.055.528-1.055 1.233 0 .661.484 1.234 1.055 1.234h10.38c.572 0 1.056-.529 1.056-1.234 0-.66-.484-1.233-1.056-1.233zm0 6.256h-10.38c-.571 0-1.055.529-1.055 1.234 0 .66.484 1.234 1.055 1.234h10.38c.572 0 1.056-.53 1.056-1.234 0-.661-.484-1.234-1.056-1.234zm0 6.3h-10.38c-.571 0-1.055.53-1.055 1.235 0 .66.484 1.233 1.055 1.233h10.38c.572 0 1.056-.528 1.056-1.233 0-.705-.484-1.234-1.056-1.234z" fill="#FFF"/></g></g></svg>