<svg xmlns="http://www.w3.org/2000/svg" width="84" height="84" viewBox="0 0 84 84"><g fill="none" fill-rule="evenodd"><path fill="#FFF" d="M42 84C18.804 84 0 65.196 0 42S18.804 0 42 0s42 18.804 42 42-18.804 42-42 42z"/><path fill="#F3F3F4" fill-rule="nonzero" d="M42 81c21.54 0 39-17.46 39-39S63.54 3 42 3 3 20.46 3 42s17.46 39 39 39zm0 3C18.804 84 0 65.196 0 42S18.804 0 42 0s42 18.804 42 42-18.804 42-42 42z"/><g fill-rule="nonzero" transform="translate(25 16)"><path d="M2.112 52.518h28.951c0-3.255-1.966-5.859-4.408-5.859H6.52c-2.442 0-4.408 2.604-4.408 5.859zM32.732 36.6l-9.83 2.958c-.715.237-1.43-.177-1.668-.887l-.06-.296c-.238-.71.18-1.42.894-1.657l9.83-2.959c.714-.237 1.429.178 1.667.888l.06.296c.179.71-.179 1.42-.894 1.657z" fill="#FFBB41"/><path fill="#BFBFBF" d="M14.035 7.125l-5.977 3.224-3.09-5.728 5.977-3.225z"/><path fill="#ACB3BA" d="M11.303 1.555L4.802 5.062l-.787-1.458L10.516.097z"/><path fill="#CED5E0" d="M12.835 15.77c0-.533-.179-1.065-.536-1.42.06.177.119.414.119.65 0 1.007-.655 1.835-1.609 2.13l-.357.12.417.828.357-.119c.954-.355 1.609-1.183 1.609-2.19z"/><path fill="#ACB3BA" d="M8.248 10.562l5.778-3.077c.298-.177.655-.177 1.013-.118.357.118.595.296.774.65l5.779 10.652L15.396 7.13c-.179-.296-.417-.533-.774-.65a1.208 1.208 0 0 0-1.013.118L7.831 9.734c-.655.355-.894 1.124-.536 1.775l.417.77c-.298-.651-.06-1.42.536-1.717z"/><path fill="#BFBFBF" d="M21.651 18.67L15.873 8.017c-.179-.296-.417-.533-.774-.651a1.208 1.208 0 0 0-1.013.118l-5.778 3.078c-.596.355-.834 1.124-.537 1.716l.656 1.183.297-.236a2.143 2.143 0 0 1 1.43-.533c1.013 0 1.906.71 2.204 1.657.358.414.536.888.536 1.42 0 1.006-.655 1.834-1.608 2.13l-.417.119 2.68 4.911 8.102-4.26zM19.27 31.332c.714-.118 1.191-.71 1.31-1.36v-.06l-.595-2.84c-1.073.354-2.205.295-3.277 0l.596 2.958c.238.888 1.072 1.48 1.966 1.302zm6.195-4.556a1.6 1.6 0 0 0 0-2.308l-1.728-1.716c-.178 1.124-.714 2.13-1.489 2.958l1.132 1.125c.179.177.417.355.715.414a1.707 1.707 0 0 0 1.37-.473z"/><path fill="#FFBB41" d="M23.439 19.143l-.18-.296-10.186 5.503.179.296a5.733 5.733 0 0 0 3.276 2.722c.596.178 1.192.296 1.847.296.596 0 1.191-.059 1.728-.236.357-.119.714-.237 1.012-.415a5.83 5.83 0 0 0 1.37-1.006c.894-.887 1.43-2.07 1.609-3.313a5.623 5.623 0 0 0-.655-3.551z"/><path fill="#CECED2" d="M28.68 35.298a13.957 13.957 0 0 1-12.092 6.983c-7.625 0-13.88-6.155-13.88-13.729 0-4.438 2.204-8.64 5.897-11.184L7.235 15C2.886 18.078.146 23.285.146 28.61c0 8.58 6.672 15.623 15.19 16.274v3.668h2.622v-3.668a16.74 16.74 0 0 0 11.438-5.859c.893-1.243.595-2.959-.715-3.728z"/><path fill="#FFBB41" d="M10.094 11.036c-2.144 0-3.931 1.775-3.931 3.905s1.787 3.906 3.931 3.906c2.145 0 3.932-1.775 3.932-3.906 0-2.13-1.787-3.905-3.932-3.905z"/><ellipse cx="10.094" cy="14.941" fill="#324A5E" rx="1.549" ry="1.539"/><path fill="#ACB3BA" d="M24.03 18.882l-11.273 6.081-.786-1.458 11.272-6.081z"/></g></g></svg>