<svg xmlns="http://www.w3.org/2000/svg" width="110" height="110" viewBox="0 0 110 110"><g fill="none" fill-rule="evenodd"><path fill="#FFF" d="M55 110C24.624 110 0 85.376 0 55S24.624 0 55 0s55 24.624 55 55-24.624 55-55 55z"/><path fill="#F3F3F4" fill-rule="nonzero" d="M55 107c28.719 0 52-23.281 52-52S83.719 3 55 3 3 26.281 3 55s23.281 52 52 52zm0 3C24.624 110 0 85.376 0 55S24.624 0 55 0s55 24.624 55 55-24.624 55-55 55z"/><g fill-rule="nonzero"><path fill="#726658" d="M51.603 55.59v5.548a.5.5 0 0 0 .156.388c1.358 1.397 2.755 2.755 4.113 4.152.349.35.737.698 1.086 1.048.039-.04 0-.117 0-.195V40.108c0-.155-.039-.233-.155-.35l-3.958-3.957-1.707-1.707c0-.04 0-.04.039-.078a3.62 3.62 0 0 0 .543-.543c0-.039.039-.039.077-.039a326.029 326.029 0 0 1 5.122 5.2V27.846a1.18 1.18 0 0 1 .893 0v25.376s.038 0 .038.038c.194-.232.427-.426.621-.66 1.824-1.823 3.609-3.646 5.432-5.47a.498.498 0 0 0 .156-.388v-5.549c.038-.039.077-.039.155-.039.194.04.388.04.582 0 .039 0 .116 0 .155.04v4.888c2.445-2.483 4.85-4.889 7.256-7.333.039 0 .077 0 .116.039.156.194.31.349.505.504.039.039.039.039.039.116-1.436 1.475-2.872 2.91-4.346 4.385-1.397 1.397-2.755 2.794-4.152 4.19-1.436 1.475-2.871 2.91-4.307 4.385-.698.698-1.397 1.436-2.134 2.134-.078.078-.155.194-.155.31V78.56l.039.039c.116-.156.232-.272.349-.427 1.203-1.203 2.406-2.445 3.647-3.647.078-.078.078-.156.078-.272v-6.014c.194-.078.349 0 .543-.04.116 0 .233-.038.35.04v5.238c.154-.078.27-.233.387-.31 1.552-1.591 3.143-3.143 4.695-4.734 1.164-1.164 2.29-2.328 3.453-3.492l.156-.156a.17.17 0 0 1 .116.04c.155.154.31.31.504.465.04.039.04.039.04.116-1.592 1.63-3.221 3.26-4.85 4.89h2.366c.039.038.039.077.039.154 0 .194-.078.427-.039.621 0 .039 0 .078-.039.117h-3.026a.352.352 0 0 0-.272.116 398.136 398.136 0 0 1-3.996 4.035c-1.475 1.475-2.95 2.988-4.424 4.463a.44.44 0 0 0-.116.31V90.51a.43.43 0 0 1-.427.426c-.233 0-.427-.194-.466-.426V68.471a.498.498 0 0 0-.155-.388c-1.862-1.863-3.686-3.725-5.548-5.588-1.552-1.552-3.104-3.143-4.657-4.695-.388-.427-.814-.815-1.202-1.241a.44.44 0 0 0-.31-.117h-4.075c-.039-.039-.039-.077-.039-.155a1.47 1.47 0 0 0 0-.582c0-.039 0-.116.04-.155h3.375c-2.173-2.212-4.307-4.346-6.48-6.519 0-.077.039-.116.078-.155.194-.155.31-.388.543-.504l2.56 2.56c1.63 1.63 3.26 3.299 4.89 4.928 1.513 1.552 3.065 3.104 4.578 4.656l.155.156v-4.89c.388-.232.66-.232.97-.193z"/><path fill="#FEC54A" d="M72.905 39.293c-.194-.233-.426-.427-.62-.66-.35-.504-.66-1.008-.777-1.63-.31-1.357-.077-2.638.815-3.724a4.169 4.169 0 0 1 4.695-1.32c1.591.583 2.522 1.785 2.755 3.454a4.212 4.212 0 0 1-3.104 4.617c-1.203.31-2.367.117-3.414-.582-.117-.039-.233-.116-.35-.155zM57.85 27.769h-.892c-.504-.078-.97-.194-1.436-.427-1.358-.737-2.172-1.862-2.289-3.375-.194-1.824.699-3.454 2.367-4.23 1.552-.737 3.065-.582 4.423.505 1.203.93 1.708 2.173 1.591 3.686-.116 1.94-1.668 3.57-3.608 3.841-.04-.039-.117 0-.156 0zM38.527 48.18c-.194.232-.426.426-.62.66-.388.27-.815.542-1.28.698-2.523.853-5.161-.776-5.51-3.376a4.228 4.228 0 0 1 3.414-4.811c2.212-.427 4.423 1.086 4.85 3.375.233 1.242-.078 2.406-.854 3.454zm33.719 17.07c-.233-.194-.427-.427-.66-.62-.31-.389-.582-.816-.737-1.32-.466-1.32-.35-2.638.427-3.803.93-1.435 2.289-2.056 3.996-1.9 1.785.193 3.143 1.435 3.609 3.18.582 2.251-.854 4.618-3.104 5.161-1.203.272-2.328.078-3.337-.62-.117-.04-.156-.04-.194-.078zM51.797 33.356c-.194.233-.388.466-.62.66a2.37 2.37 0 0 1-1.164.31c-1.01-.038-1.824-.776-1.98-1.823-.154-.893.428-1.863 1.32-2.173.815-.31 1.552-.116 2.173.504.62.621.737 1.397.427 2.25-.04.078-.078.195-.156.272zm13.232 7.722c-.31.039-.582.039-.893 0-.62-.194-1.125-.543-1.397-1.164-.388-.815-.155-1.824.505-2.406.698-.62 1.746-.698 2.444-.194.699.466 1.01 1.164.893 1.979-.117.854-.621 1.436-1.436 1.707-.039.04-.078.078-.116.078zM51.603 55.59c-.31.038-.582.038-.892 0-.388-.117-.776-.31-1.048-.66-.543-.62-.698-1.32-.388-2.095.272-.776.854-1.203 1.63-1.32.892-.116 1.707.35 2.095 1.164.388.776.194 1.747-.427 2.367-.271.272-.62.427-.97.544zm-10.592-.233c.039.31.039.582 0 .892a2.25 2.25 0 0 1-.699 1.164c-.66.505-1.397.621-2.134.272-.737-.35-1.164-.97-1.203-1.824-.038-1.009.66-1.901 1.63-2.095 1.048-.194 2.057.388 2.367 1.397 0 .116.039.155.039.194zm21.884 12.727c-.31.038-.582.038-.893 0-.776-.233-1.32-.699-1.513-1.514-.35-1.319.66-2.6 2.018-2.56.853 0 1.513.426 1.862 1.241.35.815.194 1.552-.388 2.212-.31.349-.66.543-1.086.62zm6.79 2.948c-.039-.31 0-.582.039-.892.155-.427.388-.776.737-1.048 1.28-.97 3.065-.232 3.26 1.358.116.893-.234 1.552-1.01 2.018-.66.427-1.59.388-2.25-.116a1.942 1.942 0 0 1-.776-1.32z"/><path fill="#DAA940" d="M75.583 32.503a3.428 3.428 0 0 1 3.414 3.453 3.436 3.436 0 0 1-3.453 3.453 3.42 3.42 0 0 1-3.376-3.453c-.039-1.94 1.513-3.453 3.415-3.453zM57.385 20.086c1.862 0 3.453 1.552 3.453 3.454 0 1.901-1.59 3.453-3.453 3.453-1.901 0-3.415-1.513-3.415-3.453s1.552-3.454 3.415-3.454zM35.229 48.955c-1.862.038-3.414-1.553-3.414-3.454 0-1.901 1.474-3.492 3.492-3.453 1.862.039 3.376 1.513 3.337 3.492.039 1.862-1.513 3.453-3.415 3.415zm36.124 12.882c-.039-1.902 1.552-3.493 3.415-3.454 1.823 0 3.414 1.552 3.414 3.492-.039 1.824-1.513 3.454-3.53 3.415-1.785-.039-3.299-1.552-3.299-3.453z"/><path fill="#FEC54A" d="M74.768 36.616h.194c.194-.039.31 0 .271.271 0 .117.078.194.194.233.117.039.272 0 .35-.116.077-.117.116-.272 0-.427a.712.712 0 0 0-.388-.272c-.272-.116-.505-.194-.738-.388-.194-.194-.349-.388-.349-.66 0-.348 0-.659.233-.93.155-.156.31-.272.504-.31.117-.04.233-.079.194-.234 0-.077.04-.116.117-.116h.194c.116 0 .194.039.194.155-.039.155.116.155.194.155.271.078.504.155.66.427.038.039.038.078.077.155.039.155.116.35.039.505-.078.116-.272.039-.388.039h-.233c-.155.038-.233 0-.272-.194 0-.117-.038-.272-.232-.272-.117 0-.233.039-.272.155-.078.155-.078.272.039.388.116.155.349.233.543.31.233.078.466.156.66.31.388.35.388.777.31 1.204-.116.427-.427.62-.815.698-.194.039-.271.117-.233.31 0 .078.04.195-.038.195a.794.794 0 0 1-.427 0c-.078-.04-.039-.117-.039-.194 0-.194-.039-.272-.233-.31-.543-.117-.737-.389-.776-.932 0-.116.039-.194.155-.155h.31zM56.57 24.199h.194c.194-.038.31 0 .272.233 0 .117.077.233.194.233.116.039.271 0 .349-.116.077-.117.116-.272 0-.427-.117-.155-.272-.233-.466-.31-.271-.117-.582-.195-.776-.466a.766.766 0 0 1-.233-.543c0-.156 0-.35.04-.505.077-.388.348-.62.736-.737.117-.039.233-.078.194-.233 0-.078.04-.116.117-.116h.271c.078 0 .117.038.117.116-.039.194.077.233.233.233.504.116.698.35.737.931 0 .155-.039.194-.194.155h-.31c-.233.04-.427 0-.466-.31 0-.155-.194-.233-.35-.155-.155.077-.232.31-.155.465a.35.35 0 0 0 .233.233c.194.078.427.194.621.272.737.271.97 1.319.388 1.862-.155.155-.388.233-.62.272-.156.039-.195.077-.195.233 0 .077.039.232-.039.271a.661.661 0 0 1-.388 0c-.077 0-.038-.116-.038-.155.038-.194-.04-.31-.272-.35-.543-.116-.737-.426-.737-.93 0-.117.039-.194.194-.194.155.038.271.038.349.038zM34.453 46.161h.156c.271 0 .271 0 .31.271.039.194.155.272.388.233a.323.323 0 0 0 .233-.388c-.04-.194-.194-.31-.388-.388-.272-.116-.543-.194-.776-.388-.233-.194-.35-.388-.35-.698 0-.272 0-.543.117-.776.155-.233.35-.388.62-.466.117-.039.195-.077.195-.233 0-.116.039-.155.155-.155h.233c.077 0 .155.039.116.117-.039.155.078.194.194.232a.922.922 0 0 1 .776.932c0 .116-.039.155-.155.155h-.582c-.078 0-.155 0-.155-.117 0-.038-.04-.038-.04-.077 0-.155-.077-.233-.232-.272-.116 0-.233.039-.271.155a.352.352 0 0 0 0 .388c.116.156.31.233.504.31l.582.234c.427.232.504.737.466 1.164-.078.465-.272.776-.932.853-.116 0-.155.04-.155.194v.194c0 .117-.039.156-.116.156h-.117c-.232 0-.271 0-.232-.233 0-.194-.04-.233-.233-.272-.582-.116-.776-.466-.776-1.009 0-.077.038-.116.116-.116h.35zm41.052 14.822h-.233c-.155 0-.233 0-.233-.194s-.155-.31-.349-.272a.344.344 0 0 0-.233.388.482.482 0 0 0 .233.31c.194.078.388.195.582.234.388.155.737.543.737 1.047 0 .66-.349 1.048-.93 1.125-.156.04-.156.117-.156.233 0 .078.039.194-.039.233a.538.538 0 0 1-.349 0c-.078 0-.039-.078-.039-.155 0-.31 0-.31-.31-.388-.505-.117-.737-.427-.699-.931 0-.117.04-.156.156-.156h.582c.116 0 .194.04.194.194 0 .156.077.272.232.31.156.04.272 0 .35-.116.116-.155.038-.388-.117-.504-.194-.155-.465-.233-.698-.35-.388-.154-.621-.426-.66-.853-.039-.465.039-.892.505-1.164.077-.039.194-.078.31-.116.116-.04.194-.078.155-.194 0-.117.039-.156.155-.156.156 0 .35-.077.31.233 0 .078.04.078.117.078.155.039.35.077.505.155.31.194.388.505.426.854 0 .077-.038.116-.116.116-.155.039-.272.039-.388.039z"/></g></g></svg>