<svg xmlns="http://www.w3.org/2000/svg" width="84" height="84" viewBox="0 0 84 84"><g fill="none" fill-rule="evenodd"><path fill="#FFF" d="M42 84C18.804 84 0 65.196 0 42S18.804 0 42 0s42 18.804 42 42-18.804 42-42 42z"/><path fill="#F3F3F4" fill-rule="nonzero" d="M42 81c21.54 0 39-17.46 39-39S63.54 3 42 3 3 20.46 3 42s17.46 39 39 39zm0 3C18.804 84 0 65.196 0 42S18.804 0 42 0s42 18.804 42 42-18.804 42-42 42z"/><g fill-rule="nonzero"><path fill="#BFA380" d="M20.027 20h34.096v44.237H20.027z"/><path fill="#6B5B4B" d="M20.027 20h6.199v44.237h-6.199z"/><path fill="#EDEADA" d="M31.651 27.627h17.048v9.153H31.651z"/><path fill="#CEC9AE" d="M34.751 29.915H45.6v1.525H34.751zm0 3.051H45.6v1.525H34.751z"/><path fill="#E0E1E2" d="M58.773 25.339h3.1v3.051h-3.1z"/><path fill="#D75A4A" d="M61.873 20H60.31a1.564 1.564 0 0 0-.86.259 1.506 1.506 0 0 0-.678 1.255v3.825h3.1V20z"/><path fill="#F19049" d="M61.873 28.39h3.1v28.983h-3.1z"/><path fill="#C4C4C4" d="M61.873 25.339h3.1v3.051h-3.1z"/><path fill="#B74C44" d="M64.973 25.339v-3.825a1.507 1.507 0 0 0-.94-1.395 1.564 1.564 0 0 0-.599-.119h-1.561v5.339h3.1z"/><path fill="#EBD6BD" d="M64.973 57.373h-6.2l3.1 5.339z"/><path fill="#4C4C4C" d="M61.098 64.237c0 .422.346.763.775.763.428 0 .775-.34.775-.763v-3.05h-1.55v3.05z"/><path fill="#FF974B" d="M58.773 28.39h3.1v28.983h-3.1z"/></g></g></svg>