<svg xmlns="http://www.w3.org/2000/svg" width="110" height="110" viewBox="0 0 110 110"><g fill="none" fill-rule="evenodd"><path fill="#FFF" d="M55 110C24.624 110 0 85.376 0 55S24.624 0 55 0s55 24.624 55 55-24.624 55-55 55z"/><path fill="#F3F3F4" fill-rule="nonzero" d="M55 107c28.719 0 52-23.281 52-52S83.719 3 55 3 3 26.281 3 55s23.281 52 52 52zm0 3C24.624 110 0 85.376 0 55S24.624 0 55 0s55 24.624 55 55-24.624 55-55 55z"/><g fill-rule="nonzero"><path fill="#9B4116" d="M20.045 58.955h18.423l1.255-20.357c-.203-6.74-3.223-9.788-5.971-11.143-2.816-1.389-6.04-1.321-8.856.068-6.344 3.15-5.971 11.075-5.971 11.075l1.12 20.357z"/><path fill="#EBB98D" d="M32.157 48.794v3.42c0 1.49-1.255 2.71-2.816 2.71-1.56 0-2.85-1.22-2.85-2.71v-3.15l5.666-.27z"/><path fill="#2C2D2D" d="M21.605 70.302v-7.215l.95 7.215H36.5l.95-7.215v7.215h1.595c1.357-2.304 2.171-4.912 2.171-7.317 0-5.08-3.562-9.348-8.414-10.737-1.086-.304-2.273 1.287-3.46 1.287-1.222 0-2.41-1.591-3.53-1.253-4.817 1.457-8.244 5.86-8.244 10.907 0 1.456.271 4.234.814 7.113h3.223z"/><path fill="#2C2D2D" d="M38.74 62.647h2.51s.204-3.895-2.884-7.012c0 0-1.425-1.795-4.648-3.15v1.897l2.816 5.25.237 3.015h1.968z"/><path fill="#2C2D2D" d="M37.382 62.477h3.834v7.824h-3.834zm-19.814.915h3.834v6.91h-3.834z"/><path fill="#E8E7E7" d="M34.837 70.302l1.73-15.683s-1.322-1.795-4.546-2.71c0 0 .102 1.593-2.714 1.694 0 0-2.477.745-2.646-1.558 0-.034-2.579.61-4.818 2.71l1.764 15.547h11.23z"/><path fill="#F5C08E" d="M29.375 27.184c5.429 0 9.84 5.047 9.84 11.279s-4.411 11.279-9.84 11.279-9.84-5.047-9.84-11.28c-.033-6.231 4.377-11.278 9.84-11.278"/><path fill="#F5C08E" d="M20.893 38.327a2.72 2.72 0 0 1 2.714 2.71 2.72 2.72 0 0 1-2.714 2.71 2.72 2.72 0 0 1-2.714-2.71 2.72 2.72 0 0 1 2.714-2.71"/><path fill="#EBB98D" d="M40.877 41.037a2.72 2.72 0 0 1-2.715 2.71c-1.492 0-3.12-1.287-2.714-2.71.51-1.795 1.222-2.71 2.714-2.71a2.72 2.72 0 0 1 2.715 2.71"/><path fill="#FFF" d="M27.068 44.661c0 .949 1.052 1.694 2.34 1.694 1.29 0 2.342-.745 2.342-1.694h-4.682z"/><path fill="#EBB98D" d="M31.309 27.421c2.884 1.964 4.784 5.555 4.784 9.653 0 6.232-4.41 11.28-9.84 11.28a8.889 8.889 0 0 1-1.933-.238c1.492 1.016 3.223 1.626 5.055 1.626 5.429 0 9.84-5.047 9.84-11.28 0-5.452-3.394-9.991-7.906-11.041"/><path fill="#C8E5E7" d="M38.705 42.256c.238 0 .441.204.441.44a.448.448 0 0 1-.44.441.449.449 0 0 1-.442-.44c0-.237.204-.44.441-.44m-18.49 0c.237 0 .44.203.44.44s-.203.44-.44.44a.449.449 0 0 1-.442-.44c0-.237.17-.44.441-.44"/><path fill="#030304" d="M25.745 39.106c.509 0 .95.44.95.949a.948.948 0 0 1-.95.948.97.97 0 0 1-.95-.948c0-.508.407-.949.95-.949m7.328 0c.51 0 .95.44.95.949a.948.948 0 0 1-.95.948.97.97 0 0 1-.95-.948.97.97 0 0 1 .95-.949"/><path fill="#9B4116" d="M32.7 27.658c-.238 9.315-10.213 6.571-11.74 14.023-2.951-3.997-1.628-8.299.544-11.008 4.682-5.826 11.196-3.015 11.196-3.015"/><path fill="#9B4116" d="M32.157 27.523c-4.818-1.084 3.088 7.417 4.41 8.874 1.29 1.422 1.765 4.064 1.765 4.064s1.323-1.795 1.12-2.98c-.272-1.22-.272-8.4-7.295-9.958"/><path fill="#FFF" d="M24.421 52.858l3.733 2.405 1.221-1.66-3.054-1.93z"/><path fill="#FFF" d="M34.295 52.621l-3.834 2.642-1.188-1.66 3.02-1.93z"/><path fill="#2C2D2D" d="M36.5 70.302l.95-7.249v-8.298c-.679-.644-2.137-1.694-3.596-2.473l-4.513 18.02H36.5z"/><path fill="#2C2D2D" d="M22.521 70.302h6.956L24.964 52.35c-1.493.779-2.918 1.795-3.596 2.473v8.06l.237.204.916 7.215z"/><path fill="#FFF" d="M70.564 62.037c0 5.487 4.445 7.52 9.941 7.52 5.497 0 9.941-2.033 9.941-7.52s-4.444-9.924-9.94-9.924c-5.497-.034-9.942 4.437-9.942 9.924"/><path fill="#434144" d="M91.125 38.937c0 5.928-4.818 10.534-10.721 10.703-6.006.204-10.891-4.505-10.722-10.703.17-5.893 4.818-10.703 10.722-10.703 5.903 0 10.721 4.776 10.721 10.703"/><path fill="#FFF" d="M72.634 63.629h15.505v7.181H72.634z"/><path fill="#CA7C3C" d="M90.955 40.19c0 5.826-4.716 10.534-10.551 10.534-5.836 0-10.552-4.708-10.552-10.534 0-5.825 4.716-10.534 10.552-10.534 5.801 0 10.551 4.709 10.551 10.534"/><path fill="#1E1E1C" d="M75.518 40.935c0 .44-.373.813-.814.813a.825.825 0 0 1-.815-.813c0-.44.374-.812.815-.812.44 0 .814.372.814.812m11.536 0c0 .44-.374.813-.815.813a.825.825 0 0 1-.814-.813c0-.44.373-.812.814-.812.441 0 .815.372.815.812"/><path fill="#AF6C3F" d="M82.473 29.86c3.088 1.829 5.123 5.182 5.123 9.043 0 5.826-4.716 10.534-10.551 10.534-.713 0-1.425-.068-2.104-.203 1.595.948 3.427 1.524 5.429 1.524 5.835 0 10.551-4.708 10.551-10.534a10.46 10.46 0 0 0-8.448-10.364"/><path fill="#CA7C3C" d="M73.21 42.358a2.807 2.807 0 0 1-2.815 2.811 2.807 2.807 0 0 1-2.816-2.81 2.807 2.807 0 0 1 2.816-2.812 2.807 2.807 0 0 1 2.816 2.811"/><path fill="#AF6C3F" d="M93.466 42.358a2.807 2.807 0 0 1-2.816 2.811 2.807 2.807 0 0 1-2.816-2.81 2.807 2.807 0 0 1 2.816-2.812c1.527 0 2.816 1.253 2.816 2.811"/><path fill="#EAA788" d="M80.404 46.49c-2.341 0-3.19-1.185-3.224-1.219a.262.262 0 0 1 .068-.339.263.263 0 0 1 .34.068c.033.034.746 1.016 2.816 1.016s2.782-.948 2.816-1.016a.263.263 0 0 1 .339-.068.262.262 0 0 1 .068.339c-.034.034-.848 1.22-3.223 1.22"/><path fill="#AF6C3F" d="M78.266 50.08v2.812a2.257 2.257 0 0 0 2.24 2.235 2.257 2.257 0 0 0 2.239-2.235v-2.608l-4.479-.203z"/><path fill="#FFF" d="M75.721 60.445v9.145c0 .407.068.78.136 1.152H72.6v-2.676c-1.29-1.693-2.07-3.793-2.07-6.063 0-4.708 3.291-8.67 7.736-9.687v.542c0 .61.238 1.186.645 1.592-1.9 1.321-3.19 3.523-3.19 5.995"/><path fill="#293051" d="M74.263 69.76a10.029 10.029 0 0 1-1.663-1.728c-.102-.135-.17-.237-.271-.372-.034-.034-.068-.068-.068-.102a2.525 2.525 0 0 1-.238-.406c-.034-.034-.034-.068-.068-.102-.067-.135-.17-.271-.237-.44 0-.034-.034-.068-.034-.102-.068-.17-.17-.305-.238-.474 0 0 0-.034-.033-.034h2.375v-5.555c0-1.389-.543-3.218-1.086-4.539a8.909 8.909 0 0 1 2.443-2.201l5.259 7.892 5.36-8.028c.95.576 1.832 1.355 2.545 2.202-.475 1.32-.95 3.252-.95 4.674V66H89.7s0 .034-.034.034a2.08 2.08 0 0 1-.237.474c0 .034-.034.068-.034.102-.068.135-.17.27-.238.44-.034.034-.034.068-.068.102-.068.135-.17.27-.237.406-.034.034-.068.068-.068.102-.102.135-.17.237-.271.372-.475.644.407.745-.204 1.253l-.068.475.034 1.084H72.77l-.034-1.084h1.527z"/><path fill="#FFF" d="M79.86 63.866c0 .271.204.474.476.474a.463.463 0 0 0 .475-.474.463.463 0 0 0-.475-.474.485.485 0 0 0-.475.474m0 3.895c0 .271.203.474.475.474a.463.463 0 0 0 .475-.474.463.463 0 0 0-.475-.474c-.238-.034-.475.203-.475.474"/><path fill="#293051" d="M73.754 66v-5.555c0-1.389-.543-3.218-1.086-4.539.034-.033.034-.067.068-.067l.068-.068c.067-.102.135-.17.237-.271l.034-.034a10.51 10.51 0 0 1 2.07-1.795l1.832 2.777a7.044 7.044 0 0 0-1.222 3.997v9.145c0 .407.068.78.136 1.152h-3.257v-1.49c-.61-.475-.068-.508 0-1.186l-.238-.034c-.509-.643-.678-1.32-1.017-2.066l2.375.034z"/><path fill="#434144" d="M70.36 42.73s-.95-6.333 1.63-7.451c0 0 1.323-.847 3.596-.982a10.41 10.41 0 0 1 2.714.27c.814.204 2.307.407 3.868.035.271-.068.509-.204.78-.271 1.154-.34 3.36-.271 5.225.44.577.203 1.086.61 1.391 1.152.543.982 1.154 2.946.95 6.638 0 0 2.036-4.098-.848-9.145 0 0 .882-1.355 0-3.42-.441-1.085-1.29-1.931-2.307-2.507-1.222-.712-3.088-1.999-2.85-3.387 0 0-.848 1.625-5.463 1.76h-.95c-1.085-.033-5.394.17-7.6 4.37-.339.644-.509 1.389-.373 2.1.102.542.34 1.118.95 1.49-.068.034-2.714 2.54-.712 8.909"/><path fill="#293051" d="M87.291 61.8h1v4.335h-1zm.95-6.029s-.102 2.473-.102 6.029h-.848s-.61-4.37.95-6.029m-15.777 6.164h2.273v4.335h-2.273z"/><path fill="#293051" d="M72.668 55.906s.102 2.473.102 6.03h1.39s.069-4.37-1.492-6.03"/><path fill="#293051" d="M73.279 55.229c-1.765 1.863-2.918 3.658-2.918 6.605v9.01h4.003L73.28 55.229zm14.453 0c1.764 1.863 2.918 3.658 2.918 6.605v9.01h-4.004l1.086-15.615z"/><path fill="#A3D8E7" d="M68.054 86.695c.237-1.151.373-2.303.373-3.42 0-7.08-5.497-13.041-12.248-13.041-6.684 0-12.045 5.995-12.045 13.04 0 1.118.136 2.27.373 3.421h23.547z"/><path fill="#9CCFDD" d="M68.054 86.695c.237-1.151.373-2.303.373-3.42 0-6.809-4.818-12.533-11.197-12.906l-.135 16.326h10.959z"/><path fill="#A3D8E7" d="M68.02 86.695c.203-.847.305-1.727.373-2.54-.441.135-.882.237-1.357.237-2.307 0-4.14-2.202-4.14-4.607V72.3c-1.9-1.287-4.173-2.066-6.582-2.066-2.375 0-4.614.745-6.48 1.998v7.554c0 2.404-1.866 4.606-4.14 4.606a4.135 4.135 0 0 1-1.458-.271c.068.847.17 1.694.373 2.574h23.41z"/><path fill="#9CCFDD" d="M61.946 80.395v6.334h6.04c.237-1.32.407-2.574.44-3.455-.44.17-.881.237-1.356.237-2.274 0-4.14-2.066-4.14-4.301v-6.876c-1.153-.813-2.985-1.66-4.75-1.897l-.271.745c-.577.034-.238-.067-.746.407 2.34 1.558 4.783 5.826 4.783 8.806z"/><path fill="#F3A68A" d="M50.513 57.6c0 1.456-1.154 2.608-2.545 2.608s-2.545-1.185-2.545-2.608 1.154-2.608 2.545-2.608c1.39 0 2.545 1.152 2.545 2.608"/><path fill="#F3A68A" d="M56.28 67.965c-4.58 0-8.55-4.675-8.55-10.467 0-5.792 3.427-11.922 8.55-11.753 5.124-.17 8.55 5.961 8.55 11.753.034 5.758-3.97 10.467-8.55 10.467"/><path fill="#432313" d="M47.764 47.405s-.034-.068-.068-.17l2.715 3.625-.916.711-1.12 4.064c-.102.61-.713 1.457-.916.238 0 0-.204-2.134-.305-3.963-.102-1.83-.238-2.575 0-3.218.237-.711.237-1.118.61-1.287"/><path fill="#A3D8E7" d="M46.713 84.324h13.571v2.439H46.713z"/><path fill="#F3A68A" d="M44.168 83.41v3.353h3.427v-3.387zM65 83.376h3.427v3.387H65zm-6.073-15.581v2.439c0 1.084-1.222 1.964-2.68 1.964-1.493 0-2.68-.88-2.68-1.964v-2.27l5.36-.169z"/><path fill="#A3D8E7" d="M44.168 83.24v3.523h3.427v-3.557z"/><path fill="#9CCFDD" d="M47.357 83.24v3.523h.4v-3.557zM65 83.376h3.427v3.387H65z"/><path fill="#96C6D3" d="M65 83.376h1v3.387h-1z"/><path fill="#EA4E50" d="M56.179 74.637l-1.493-1.016 1.493-1.49 1.492 1.49z"/><path fill="#BEE3ED" d="M61.54 71.25l-2.376-1.524-2.918 2.472 1.46 1.728c.067.203.305.237.44.068l3.393-2.744zm-10.62 0l2.375-1.524 2.917 2.472-1.458 1.728c-.068.203-.306.237-.441.068L50.92 71.25z"/><path fill="#EA4E50" d="M55.67 73.79l-.645 12.973h2.341l-.645-12.973z"/><path fill="#F3A68A" d="M67.477 57.6c0 1.456-1.154 2.608-2.545 2.608-1.39 0-2.545-1.185-2.545-2.608s1.154-2.608 2.545-2.608 2.545 1.152 2.545 2.608"/><path fill="#020203" d="M51.564 56.211a.987.987 0 0 0 1.968-.135.987.987 0 0 0-1.052-.915c-.543 0-.95.474-.916 1.05m7.125 0a.987.987 0 0 0 1.968-.135.987.987 0 0 0-1.052-.915c-.576 0-.984.474-.916 1.05"/><path fill="#432313" d="M64.729 46.727s2.883-5.927-6.82-6.808c0 0-3.936-.406-8.55 1.22-.068.034-.102.135 0 .17l.746.304s-2.51.982-4.58-1.084c-.102-.102-.305-.068-.34.068-.101.305-.169.813.136 1.32 0 0-1.73.509-2.884-1.76-.067-.102-.203-.102-.237.033-.238 1.084-.441 4.742 5.462 9.45l1.052.475s5.768 3.556 13.232-.068l1.052.813 1.323 5.317c.102.204.611 1.084.815-.61 0 0 .44-2.065.576-3.894.102-1.83.238-3.015 0-3.692-.27-.678-.644-1.084-.983-1.254"/><path fill="#3A1E14" d="M65.136 45s-6.379 2.98-14.488-.813c0 0 1.866 2.27 4.14 2.608 0 0-4.038.305-7.804-2.608 0 0 .645 3.32 3.562 3.93 0 0-5.021.338-8.075-4.912 0 0 3.02 8.23 11.774 8.468.034 0 10.076.71 10.89-6.673"/><path fill="#432313" d="M56.009 60.073H54.21c-.747 0-1.46.237-2.036.677l-1.221.948a.547.547 0 0 1-.238.136c-.543.203-1.12-.034-1.459-.508l-1.323-1.558c-.034-.068-.136-.034-.102.034l.272 3.996c.033.305.135.61.305.847l2.748 4.03c.747 1.085 1.934 1.728 3.257 1.728h1.595v-10.33z"/><path fill="#432313" d="M55.737 60.073h2.545c.747 0 1.46.237 2.036.677l1.221.948a.547.547 0 0 0 .238.136c.543.203 1.12-.034 1.459-.508l1.323-1.558c.034-.068.136-.034.102.034l-.272 3.996a1.82 1.82 0 0 1-.305.847l-2.748 4.03c-.747 1.085-1.934 1.728-3.257 1.728h-2.342v-10.33z"/><path fill="#FFF" d="M58.52 62.342h-4.716s-.408 2.608 2.34 2.608c0 0 2.58 0 2.376-2.608"/><path fill="#FFF" d="M53.804 62.308v.576h4.716v-.576zm3.325 2.439s-.136-.678-1.086-.678c0 0-.814-.034-1.052.678.034 0 1.018.44 2.138 0"/></g></g></svg>