<svg xmlns="http://www.w3.org/2000/svg" width="110" height="110" viewBox="0 0 110 110"><g fill="none" fill-rule="evenodd"><path fill="#FFF" d="M55 110C24.624 110 0 85.376 0 55S24.624 0 55 0s55 24.624 55 55-24.624 55-55 55z"/><path fill="#F3F3F4" fill-rule="nonzero" d="M55 107c28.719 0 52-23.281 52-52S83.719 3 55 3 3 26.281 3 55s23.281 52 52 52zm0 3C24.624 110 0 85.376 0 55S24.624 0 55 0s55 24.624 55 55-24.624 55-55 55z"/><g fill-rule="nonzero"><path fill="#C1BFBD" d="M58.32 70.23h-5.825a.949.949 0 0 1-.97-.972v-1.945h7.812v1.945c-.046.556-.509.973-1.017.973z"/><path fill="#EA4D50" d="M42.695 55.593h25.332c.555 0 1.064-.232 1.433-.603.37-.416.555-.926.509-1.482l-1.526-21.91c-.277-4.077-3.698-7.274-7.766-7.274h-10.54c-4.067 0-7.488 3.197-7.765 7.273L40.8 53.508a1.949 1.949 0 0 0 .508 1.482c.324.371.879.603 1.387.603zm26.303 3.937H41.771c-2.22.046-3.883 1.714-3.883 3.891 0 2.224 1.756 3.938 4.021 3.938h26.904c2.265 0 4.022-1.668 4.022-3.938.046-2.223-1.618-3.89-3.837-3.89z"/><path fill="#DADADA" d="M66.086 70.23H63.59l-2.913-2.918h-1.386v1.39l3.19 3.197a.94.94 0 0 0 .693.277h2.912c.555 0 .97-.416.97-.972a.977.977 0 0 0-.97-.973z"/><path d="M38.812 52.674a.949.949 0 0 1-.97.973H31.97a.977.977 0 0 1-.971-.973V50.73c0-.556.416-.973.97-.973h5.825a.95.95 0 0 1 .971.973v1.945h.046zm40.91 0a.949.949 0 0 1-.97.973h-5.825a.949.949 0 0 1-.97-.973V50.73c0-.556.416-.973.97-.973h5.825c.555 0 .97.417.97.973v1.945z" fill="#C1BFBD"/><path fill="#676767" d="M58.32 83.943a2.903 2.903 0 0 1-2.912 2.918 2.903 2.903 0 0 1-2.913-2.918 2.903 2.903 0 0 1 2.913-2.919 2.903 2.903 0 0 1 2.912 2.919zm12.666 0a2.903 2.903 0 0 1-2.912 2.918 2.903 2.903 0 0 1-2.913-2.918 2.903 2.903 0 0 1 2.913-2.919c1.571-.046 2.912 1.297 2.912 2.919zm-25.332 0a2.903 2.903 0 0 1-2.912 2.918 2.903 2.903 0 0 1-2.913-2.918 2.903 2.903 0 0 1 2.913-2.919c1.571-.046 2.912 1.297 2.912 2.919z"/><path fill="#DADADA" d="M43.666 83.943a.949.949 0 0 1-.97.972.949.949 0 0 1-.971-.972c0-.556.416-.973.97-.973.555-.046.971.417.971.973zm12.666 0a.949.949 0 0 1-.97.972.949.949 0 0 1-.971-.972c0-.556.416-.973.97-.973a.95.95 0 0 1 .971.973zm12.666 0a.949.949 0 0 1-.97.972.949.949 0 0 1-.971-.972c0-.556.416-.973.97-.973.555-.046.971.417.971.973z"/><path fill="#C1BFBD" d="M52.449 55.593h5.825v3.891h-5.825z"/><path fill="#CC232C" d="M53.42 36.09a1.955 1.955 0 0 1-1.942 1.946 1.955 1.955 0 0 1-1.941-1.946c0-1.065.878-1.945 1.941-1.945 1.064 0 1.942.834 1.942 1.945zm7.812 0a1.955 1.955 0 0 1-1.941 1.946 1.955 1.955 0 0 1-1.942-1.946c0-1.065.878-1.945 1.942-1.945 1.063 0 1.941.834 1.941 1.945zm-7.812 7.783a1.955 1.955 0 0 1-1.942 1.945 1.955 1.955 0 0 1-1.941-1.945c0-1.066.878-1.946 1.941-1.946 1.064 0 1.942.88 1.942 1.946zm7.812 0a1.955 1.955 0 0 1-1.941 1.945 1.955 1.955 0 0 1-1.942-1.945c0-1.066.878-1.946 1.942-1.946 1.063 0 1.941.88 1.941 1.946z"/><path fill="#DADADA" d="M74.869 53.647v6.856a1.955 1.955 0 0 1-1.942 1.946h-.185c.093.324.14.602.14.972s-.047.695-.14.973h.185a3.88 3.88 0 0 0 3.883-3.891v-6.856h-1.94zm-36.981 9.728c0-.324.046-.649.138-.973h-.184a1.955 1.955 0 0 1-1.942-1.945v-6.81h-1.942v6.856c0 2.13 1.757 3.891 3.884 3.891h.184a3.62 3.62 0 0 1-.138-1.019zm31.11 15.657c0-.463-.277-.833-.74-.972l-11.926-2.734v-5.095h-1.941v5.095L42.464 78.06c-.462.092-.74.51-.74.972v2.131c.324-.092.648-.185.971-.185.324 0 .647.093.971.185V79.82l10.725-2.502v3.845c.323-.092.647-.185.97-.185.324 0 .647.093.971.185v-3.845l10.725 2.502v1.343c.323-.092.647-.185.97-.185.324 0 .648.093.971.185v-2.13z"/></g></g></svg>