<svg xmlns="http://www.w3.org/2000/svg" width="110" height="110" viewBox="0 0 110 110"><g fill="none" fill-rule="evenodd"><path fill="#FFF" d="M55 110C24.624 110 0 85.376 0 55S24.624 0 55 0s55 24.624 55 55-24.624 55-55 55z"/><path fill="#F3F3F4" fill-rule="nonzero" d="M55 107c28.719 0 52-23.281 52-52S83.719 3 55 3 3 26.281 3 55s23.281 52 52 52zm0 3C24.624 110 0 85.376 0 55S24.624 0 55 0s55 24.624 55 55-24.624 55-55 55z"/><g fill-rule="nonzero"><path fill="#FEE9EA" d="M56.573 86.903c-.033-.034-.066-.034-.099-.068.033-.068.1-.034.165-.034a67.23 67.23 0 0 0 3.703 0c.066 0 .1 0 .165.034 0 .034-.033.034-.033.068h-3.9zm-16.002-.068l-.066.069h-3.9l-.067-.069c.033-.034.1-.034.165-.034 1.19.034 2.38 0 3.57 0 .1 0 .2-.068.298.034z"/><path fill="#F8D1D2" d="M79.222 68.881s-.034 0 0 0c-.068-.033-.068-.099-.068-.132v-.562c0-.066 0-.1.068-.132h.034c-.034.264-.034.562-.034.826z"/><path fill="#F19499" d="M29.132 61.575v-.463c.033-1.157.199-2.281.43-3.405a18.925 18.925 0 0 1 1.322-4 22.994 22.994 0 0 1 1.654-3.075 17.57 17.57 0 0 1 1.785-2.348c.364-.397.727-.826 1.124-1.19a23.307 23.307 0 0 1 1.918-1.686 31.397 31.397 0 0 1 2.413-1.686c.959-.562 1.95-1.091 3.009-1.521.297-.132.595-.232.892-.364.033 0 .1-.033.1-.066.198.132.33.298.396.496-.066.231-.198.397-.297.595-.067.1-.1.232-.166.364.397-.132.76-.265 1.124-.364.298-.066.595-.165.893-.231.165-.033.364-.066.529-.1l.496-.099a23.712 23.712 0 0 1 1.62-.264l.694-.1c.132 0 .265-.032.397-.032.595-.067 1.19-.133 1.785-.133.066 0 .166-.033.232-.033h2.182c.231 0 .43.033.661.066a.419.419 0 0 0 .198.033c.397-.033.76.034 1.124.1.397.066.827.132 1.224.231.132.033.198 0 .264-.1.1-.197.232-.396.364-.561.066-.1.033-.165-.066-.199-.397-.099-.794-.165-1.19-.231-.265-.033-.53-.1-.827-.132-.066 0-.132 0-.165-.066 0-.199.099-.364.231-.496.066.132.198.099.298.099.76.132 1.52.264 2.248.463a23.83 23.83 0 0 1 3.075.992c.132.066.264.099.396.165.199.1.397.165.628.1 0 .065-.066.065-.099.098 1.025.463 2.05.992 3.009 1.62.364.232.727.463 1.09.728a18.63 18.63 0 0 1 2.48 2.083 21.202 21.202 0 0 1 2.282 2.578c.231.33.463.628.694.96.066.098.132.197.231.23-.033.067-.066.1 0 .199a21.09 21.09 0 0 1 1.753 3.306c.396.959.727 1.918.958 2.91.232.958.397 1.917.53 2.909.032.33.066.694.066 1.025.033.396.066.826.033 1.223-.067.033-.1 0-.166-.033-.562-.265-1.157-.496-1.785-.562-.628-.066-1.223-.066-1.851.1-1.025.264-1.885.793-2.678 1.454a9.875 9.875 0 0 0-2.249 2.579c-.462.793-.793 1.653-.86 2.578-.065.794-.032 1.587.2 2.38.198.695.495 1.39.859 2.017.33.563.727 1.058 1.19 1.521.628.595 1.29 1.124 2.182 1.29.066 0 .132.033.198.099l-.595.694a22.112 22.112 0 0 1-2.91 2.645c-.131.1-.264.198-.396.298-.099.066-.132.132-.132.231v3.042c0 .066.033.132-.033.198-.066-.066-.033-.165-.033-.231v-3.009c-.066 0-.1.033-.166.066a23.658 23.658 0 0 1-3.636 2.116.298.298 0 0 1-.166.033c-.066 0-.099-.066-.132-.132v-4.794c0-.86-.397-1.455-1.157-1.785a1.727 1.727 0 0 0-.694-.133h-3.34c-.991 0-1.85.794-1.85 1.852v6.678c0 .1.032.199-.067.298-.562.033-1.124.066-1.686.132-.562.033-1.124.033-1.653.033-.76-.033-1.521-.099-2.314-.165-.992-.1-1.984-.298-2.976-.53h-.132a6.694 6.694 0 0 1-1.091-.297 31.407 31.407 0 0 1-2.777-1.025c-.067-.033-.133-.033-.166-.099-.066-.099-.033-.198-.033-.297 0-1.554-.033-3.141 0-4.695 0-1.058-.86-1.885-1.851-1.851h-3.34c-.925 0-1.62.595-1.818 1.487-.033.066-.033.166-.099.232-.43-.43-.826-.926-1.223-1.389a20.953 20.953 0 0 1-1.95-2.876c-.497-.926-.96-1.852-1.323-2.843-.397-1.058-.728-2.116-.926-3.24-.132-.728-.265-1.455-.33-2.183-.034-.297-.034-.595-.067-.892v-1.62z"/><path fill="#EA5C61" d="M79.187 68.055v.826c-.066 1.058-.297 2.116-.76 3.075-.463 1.025-1.124 1.885-2.05 2.513-.165.099-.298.231-.496.33-.364.166-.727.364-1.157.397-.661.066-1.323 0-1.95-.297-.927-.43-1.555-1.158-2.05-2.05a5.583 5.583 0 0 1-.695-2.05c-.1-.661-.165-1.323-.1-2.017.034-.562.133-1.157.265-1.719.298-1.025.728-1.95 1.422-2.777.595-.694 1.29-1.223 2.149-1.521.793-.264 1.587-.231 2.38.066.133.033.232.132.364.199.827.462 1.422 1.124 1.852 1.983.529.959.76 1.984.826 3.042z"/><path fill="#FE8D91" d="M76.51 63.063c-.265-.1-.497-.232-.761-.298-.827-.198-1.653-.132-2.447.265-.496.23-.926.562-1.322.925-.595.595-1.058 1.323-1.422 2.116a7.957 7.957 0 0 0-.562 1.918c-.1.595-.132 1.157-.1 1.752.067.992.265 1.95.695 2.843.43.86 1.025 1.62 1.885 2.116.793.463 1.62.53 2.512.364a1.93 1.93 0 0 0 .728-.265c.033-.033.099-.066.165-.033-.265.199-.562.298-.86.397-.892.298-1.818.463-2.744.529-.694.033-1.388-.033-2.05-.132-.363-.1-.727-.166-1.058-.364a7.037 7.037 0 0 1-.826-.529 4.324 4.324 0 0 1-.794-.76c-.396-.463-.76-.96-1.09-1.521a7.544 7.544 0 0 1-.695-1.686 5.456 5.456 0 0 1-.198-1.058c-.033-.298-.033-.595-.033-.893 0-.529.099-1.058.231-1.587a7.01 7.01 0 0 1 1.124-2.215c.232-.297.463-.562.728-.86.43-.462.892-.892 1.388-1.256a6.341 6.341 0 0 1 1.521-.893c.397-.198.86-.33 1.29-.396.694-.1 1.388-.1 2.05.099a9.6 9.6 0 0 1 1.355.529c.396.231.826.496 1.19.76.033.066.066.1.1.133zm-4.63-12.431c-.066.033-.132 0-.165-.067a14.691 14.691 0 0 0-.628-.892 48.684 48.684 0 0 0-1.091-1.356 21.027 21.027 0 0 0-.793-.86c-.463-.43-.893-.892-1.356-1.289-.397-.33-.76-.661-1.157-.959a22.958 22.958 0 0 0-1.455-1.024c-.033-.033-.099-.067-.132-.1l.893-.892c.462-.463.925-.893 1.421-1.257.33-.231.628-.462.959-.66.033-.034.033-.034 0-.067.463-.1.86-.364 1.322-.529 1.158-.364 2.249-.264 3.24.43.629.43 1.125.992 1.455 1.653.496 1.058.496 2.149.199 3.273-.298 1.058-.794 2.017-1.389 2.91-.43.594-.86 1.157-1.322 1.686z"/><path fill="#000" d="M56.507 18a5.588 5.588 0 0 1 5.587 5.62c0 3.141-2.512 5.654-5.653 5.62a5.576 5.576 0 0 1-5.521-5.719A5.588 5.588 0 0 1 56.507 18zM44.175 42.3l-.397-.496a9.466 9.466 0 0 1-.793-1.388 6.655 6.655 0 0 1-.529-3.307 7.007 7.007 0 0 1 1.488-3.735c.793-.96 1.752-1.687 2.91-2.116 1.388-.53 2.842-.596 4.264-.166 1.686.496 2.976 1.488 3.901 2.943.728 1.157 1.058 2.446 1.025 3.802a7.331 7.331 0 0 1-.595 2.645c-.066.165-.165.33-.231.496a.253.253 0 0 1-.066.165c-.133.198-.265.43-.43.661-.1.165-.232.232-.43.199-.165 0-.33 0-.496-.034-.066 0-.132 0-.165-.033.033-.165.165-.231.264-.33.728-.86 1.157-1.852 1.323-2.976.198-1.29 0-2.512-.595-3.67a6.186 6.186 0 0 0-1.72-2.082c-.892-.695-1.917-1.091-3.041-1.224-1.19-.099-2.315.066-3.373.628-1.388.728-2.347 1.819-2.909 3.274-.033.066-.066.099-.066.165-.1.364-.198.694-.265 1.058a6.262 6.262 0 0 0 .199 2.71c.397 1.257 1.09 2.282 2.116 3.076.066.033.132.066.165.165-.298.132-.595.165-.893.264a.723.723 0 0 1-.165-.099c-.132-.231-.364-.364-.496-.595z"/><path fill="#FE8182" d="M68.376 41.209h.132a4.21 4.21 0 0 0-.628.43c-.43.297-.86.661-1.256.992-.43.396-.827.826-1.257 1.223-.099.066-.099.231-.264.231-.265-.165-.529-.33-.827-.496a34.852 34.852 0 0 0-1.124-.595c-.363-.198-.76-.363-1.157-.562.066-.033.132-.033.199-.099 1.289-.231 2.611-.496 3.9-.727l2.183-.397h.099z"/><path fill="#FE8D92" d="M54.92 83.693v-7.01c0-.925.727-1.718 1.587-1.85.132-.034.265-.034.364-.034h3.339c.661 0 1.19.331 1.554.86.198.297.297.628.297.992v4.86c0 .066-.033.165.1.165-.067.198-.034.397-.034.628v1.852c0 .231 0 .231.232.231h2.083c.099 0 .165-.033.264.066-.099.066-.198.033-.297.033h-2.116c-.166 0-.199.033-.199.199.033.43 0 .826-.231 1.223-.298.529-.76.86-1.356.926-1.223.066-2.446 0-3.702.033-.1 0-.232 0-.331-.033-.893-.133-1.587-.992-1.554-1.918v-1.223z"/><path fill="#FE7F87" d="M64.706 84.453h-2.413c-.166 0-.199-.033-.199-.198v-2.347c0-.1 0-.166.1-.232.33-.132.628-.297.958-.463.827-.43 1.62-.892 2.38-1.421.2-.133.43-.298.662-.463V82.7c0 .827-.628 1.62-1.488 1.752z"/><path fill="#FE8D92" d="M34.951 76.552c.066-.496.231-.926.595-1.257.33-.297.727-.496 1.19-.496h3.571c.595 0 1.058.265 1.422.728.264.33.363.727.363 1.157v4.794c0 .066 0 .165.033.231a.563.563 0 0 1 .033.232v2.215c0 .231 0 .231.232.231h2.05c.099 0 .198-.033.264.066-.1.066-.198.033-.297.033h-2.083c-.232 0-.232 0-.232.232 0 .363 0 .694-.165 1.025-.298.595-.76.958-1.389 1.09-1.058.067-2.116 0-3.207.034-.264 0-.562 0-.826-.033a1.854 1.854 0 0 1-1.587-1.852v-8.199c.033-.066.033-.132.033-.231z"/><path fill="#FB7E85" d="M44.737 84.453h-2.413c-.166 0-.199-.033-.199-.198v-2.38c0-.067-.033-.133.033-.166.926.397 1.852.76 2.844 1.058.297.1.595.165.892.265.1.033.199.033.265.099-.132.496-.43.826-.827 1.09-.165.133-.363.2-.595.232z"/><path fill="#FEFEFE" d="M45.762 42.697c-.496-.33-.926-.76-1.322-1.257a6.174 6.174 0 0 1-1.224-2.909c-.132-.893-.033-1.785.232-2.645.033-.066.033-.132.066-.198.033-.033.033-.1.066-.132a4.693 4.693 0 0 1 .893-1.587c.595-.794 1.355-1.389 2.248-1.819.694-.33 1.422-.496 2.182-.562 1.025-.066 2.017.1 2.942.562 1.224.595 2.182 1.488 2.81 2.678a5.986 5.986 0 0 1 .695 3.372c-.132 1.422-.661 2.678-1.653 3.736-.033 0-.1.033-.132.033H51.91c-.165-.165-.23-.363-.363-.562-.066-.132-.165-.132-.232-.033-.066.066-.033.1 0 .166.033.099.1.165.133.264.033.066.066.1.066.199-.066 0-.166.033-.232.033-.562 0-1.124.066-1.686.099h-.099c-.033-.033-.033-.1-.066-.132-.033-.067-.1-.067-.165-.067-.067 0-.1.033-.1.1 0 .033 0 .099-.033.132-.793.132-1.554.231-2.347.363-.033-.066 0-.132.033-.165.165-.264.298-.529.43-.76.066-.1.066-.166-.033-.232-.1-.066-.166 0-.199.066-.198.331-.396.695-.595 1.025-.033.066-.066.133-.132.166a2.894 2.894 0 0 1-.529.066z"/><path fill="#FE8D91" d="M54.127 44.383c.66-.198 1.355-.298 2.082-.198a7.15 7.15 0 0 1 1.455.33c.76.265 1.455.694 2.05 1.19.562.463 1.025.992 1.455 1.554.496.695.925 1.389 1.256 2.182.1.232.198.463.298.728.066.165.033.198-.133.198-.43 0-.892 0-1.322.033-.76.066-1.521.198-2.248.397-.827.231-1.62.595-2.315 1.157-.628.496-1.124 1.091-1.454 1.851-.066.133-.1.265-.166.397-.033.066-.033.132-.132.066-.694-.595-1.29-1.256-1.752-2.05-.463-.76-.794-1.553-.959-2.413a6.789 6.789 0 0 1-.198-1.62c0-.727.132-1.422.43-2.083.33-.76.826-1.388 1.653-1.72 0 .034 0 0 0 0z"/><path fill="#FE8182" d="M54.127 44.383c0 .033 0 .033-.033.066a3.185 3.185 0 0 0-.827.529 3.78 3.78 0 0 0-1.025 1.885 4.677 4.677 0 0 0-.165 1.52c.033.76.165 1.521.43 2.282.198.495.396.991.66 1.454.265.43.563.86.893 1.257a9 9 0 0 0 .794.793c.033.033.1.033.066.132-.364-.066-.727-.132-1.091-.165a22.157 22.157 0 0 1-1.455-.231c-.231-.033-.43-.067-.66-.1-.86-.132-1.753-.297-2.613-.43-.33-.066-.66-.099-.992-.165-.066 0-.099-.033-.099-.099 0-.165-.033-.33-.033-.463 0-.496-.033-1.025.033-1.52.033-.43.133-.893.232-1.323.165-.76.463-1.488.892-2.182a5.9 5.9 0 0 1 1.686-1.818 7.047 7.047 0 0 1 1.918-.992 3.99 3.99 0 0 1 1.389-.43z"/><path fill="#F9F9E5" d="M70.161 58.5c.033-.86.364-1.554 1.091-2.05.893-.562 1.951-.33 2.612.463.397.496.595 1.058.562 1.686-.033.86-.396 1.554-1.157 2.017a1.834 1.834 0 0 1-1.752.1c-.76-.331-1.157-.926-1.323-1.687-.033-.165-.033-.33-.033-.529zm-3.537 2.182c-.033.893-.364 1.62-1.157 2.083-.76.463-1.587.364-2.249-.198-.991-.827-1.157-2.38-.33-3.439.463-.595 1.124-.892 1.884-.793.728.099 1.257.529 1.587 1.19.166.33.265.727.265 1.157z"/><path fill="#ED7478" d="M54.358 42.003c.198.033.298-.067.397-.199.198-.264.33-.529.529-.793.165.099.363.066.562.099.562.099 1.157.165 1.719.33.1.034.1.067.066.133-.165.264-.297.496-.463.76-.033.066-.099.066-.165.066-.562-.132-1.124-.198-1.686-.33a2.288 2.288 0 0 0-.827-.033c-.066 0-.099 0-.132-.033z"/><path fill="#0CAFC4" d="M46.258 42.598c.231-.397.463-.827.694-1.257.066-.132.133-.132.265-.066s.132.132.066.265c-.198.297-.364.628-.53.958-.164.067-.297.1-.495.1z"/><path fill="#ED7478" d="M44.175 42.3c.232.231.463.43.694.661-.396.1-.793.232-1.223.397l.53-1.058z"/><path fill="#0CAFC4" d="M51.482 41.97c-.066-.133-.166-.298-.232-.43-.066-.133-.033-.199.1-.265.099-.066.165-.033.23.066.1.199.232.397.331.628h-.43z"/><path fill="#12B0C4" d="M49.101 42.145c0-.137-.066-.308.166-.308.198 0 .198 0 .198.273-.132.035-.231.035-.364.035z"/><path fill="#D8452E" d="M78.063 68.22c-.033.496-.1.893-.264 1.29a1.175 1.175 0 0 1-.364.529c-.298.23-.595.23-.893-.034-.33-.297-.463-.694-.529-1.124a3.12 3.12 0 0 1 .132-1.653c.1-.264.232-.496.43-.694.232-.231.695-.198.959.132.298.364.397.794.463 1.257.033.099.1.231.066.297zm-4.265 2.314c-.33.033-.529-.198-.694-.462-.232-.364-.33-.794-.364-1.19a3.276 3.276 0 0 1 .232-1.488c.132-.298.297-.562.628-.662.165-.066.297-.033.463.067.297.198.462.495.562.793.132.33.165.661.165.992 0 .562-.066 1.09-.397 1.554-.099.231-.264.43-.595.396z"/><path fill="#FEFEFE" d="M56.507 28.513c-2.711 0-4.86-2.182-4.86-4.959 0-2.645 2.215-4.86 4.893-4.86s4.86 2.215 4.86 4.893c-.033 2.711-2.215 4.926-4.893 4.926z"/><path fill="#B5B5B5" d="M43.582 35.556c0 .068 0 .102-.068.136 0-.068.034-.102.068-.136z"/><path fill="#F2959A" d="M49.465 36.051v.926c0 .1.033.166.132.232.265.165.33.396.265.66-.033.1.033.166.099.232l1.917 1.918.133.132c.066.1.099.198 0 .298-.1.099-.199.066-.298 0l-.76-.76c-.43-.43-.827-.86-1.257-1.29-.099-.1-.165-.132-.297-.1a.627.627 0 0 1-.728-.363c-.132-.265 0-.595.265-.76.1-.067.1-.1.1-.199v-1.851c0-.066 0-.132.032-.199.066-.066.132-.099.199-.099.099.033.165.1.165.199.033.363.033.694.033 1.024z"/><path fill="#0BAFC4" d="M54.358 40.58c0 .166-.165.232-.33.166-.397-.231-.761-.43-1.158-.661-.132-.066-.165-.165-.066-.298.066-.132.165-.099.265-.033l1.19.695c.033 0 .099.033.099.132zm-7.869-7.9c.067 0 .1.032.133.098.231.397.463.827.727 1.224.066.099.033.165-.066.198-.1.033-.165.132-.265 0-.231-.43-.496-.86-.727-1.256-.066-.133.066-.265.198-.265zm6.447 3.14c-.132 0-.132-.132-.165-.198s.033-.133.066-.166c.364-.231.728-.43 1.124-.628.033-.033.1-.033.133-.066.099-.066.165 0 .198.1.033.065.1.165 0 .23-.43.265-.86.497-1.29.728h-.066z"/><path fill="#0CAFC4" d="M49.101 32.778v-.694c0-.132.066-.165.166-.165.099 0 .198 0 .198.132v1.422c0 .132-.1.165-.198.165-.133 0-.166-.033-.166-.165v-.695z"/><path fill="#0BAFC4" d="M52.308 32.845c-.033.033-.033.066-.033.099-.231.396-.463.793-.694 1.223-.066.132-.165.1-.265.066-.099-.066-.132-.132-.066-.231.232-.43.463-.827.728-1.224.033-.066.066-.099.132-.066.066 0 .165.033.198.133zm-7.934 7.934c-.1-.033-.133-.132-.166-.198s0-.1.066-.132c.43-.232.827-.496 1.257-.728.099-.066.165 0 .198.1.066.099.1.165-.033.23-.298.166-.595.332-.893.53-.099.066-.231.132-.33.198 0-.033-.066 0-.1 0zm.033-6.05c.033.033.066.033.099.066.396.232.76.463 1.157.661.132.066.132.133.066.265s-.165.132-.264.066c-.232-.165-.463-.265-.662-.397-.165-.099-.363-.198-.529-.297-.066-.033-.099-.1-.066-.166.066-.099.066-.198.199-.198z"/><path fill="#0CAFC4" d="M44.34 37.936h-.694c-.132 0-.165-.066-.165-.165 0-.1 0-.199.165-.199h1.422c.132 0 .132.066.132.199 0 .099 0 .198-.132.198-.265-.033-.496-.033-.728-.033zm9.853 0h-.695c-.132 0-.165-.066-.165-.165 0-.1 0-.199.165-.199h1.389c.165 0 .132.1.165.199 0 .099-.033.165-.165.165h-.694z"/><path fill="#C84435" d="M71.252 58.6c0-.596.331-1.059.794-1.158.529-.132 1.025.132 1.223.694a1.24 1.24 0 0 1-.264 1.29.953.953 0 0 1-1.521-.199c-.166-.231-.265-.462-.232-.628zm-5.72 2.016c0 .595-.363 1.091-.925 1.157-.43.066-.86-.198-1.058-.661-.264-.562 0-1.322.53-1.554a1.011 1.011 0 0 1 1.355.595c.066.199.099.33.099.463z"/><path fill="#F2969B" d="M56.672 22.265v.727a.3.3 0 0 0 .1.232c.198.132.264.297.198.529-.033.132.033.165.1.231.528.53 1.024 1.025 1.553 1.554.1.1.198.198.1.33-.133.133-.232 0-.298-.099-.53-.529-1.025-1.058-1.554-1.587-.066-.066-.133-.099-.232-.066-.198.066-.463-.066-.562-.231-.099-.232-.066-.53.166-.661.132-.066.132-.133.132-.265v-1.421c0-.1 0-.199.099-.232.132-.033.231.033.231.198-.033.265-.033.496-.033.76z"/><path fill="#0CAFC4" d="M54.259 27.786c-.066-.033-.132-.066-.199-.132-.033-.066 0-.1.034-.165.198-.331.363-.629.562-.96.066-.098.099-.131.231-.065.1.066.132.132.066.231-.198.33-.364.661-.562.959l-.132.132zm-.562-5.918c0 .165-.132.232-.298.165-.297-.165-.628-.363-.925-.529-.133-.066-.133-.132-.067-.264.067-.132.133-.1.232-.033.297.198.628.364.926.529.066.066.132.066.132.132zm2.986-2.248v.562c0 .132-.068.165-.17.165-.103 0-.171-.033-.171-.132v-1.157c0-.132.102-.132.17-.132.103 0 .171.033.171.132v.562zm2.304 8c-.033.1-.1.133-.166.166s-.099 0-.132-.066c-.198-.33-.364-.661-.562-.992-.066-.099-.033-.165.066-.231.1-.066.165-.033.232.066.165.33.363.628.562.959-.033.033-.033.066 0 .099zm-5.456-2.446c.1 0 .1.1.133.166s0 .099-.033.132c-.33.198-.695.397-1.025.595-.1.033-.132 0-.199-.066-.033-.066-.099-.132 0-.199.364-.198.695-.396 1.058-.628h.066zm5.423-5.488c-.034.1-.1.165-.133.265-.165.264-.297.529-.463.793-.066.132-.132.1-.231.033-.1-.066-.1-.132-.066-.231.198-.33.397-.662.562-.992.033-.066.1-.1.165-.066.066.066.166.066.166.198zm.529 5.488c.033 0 .066.033.099.033.297.166.628.364.925.53.1.065.133.099.067.23-.067.1-.133.133-.232.067-.297-.198-.628-.364-.926-.53-.066-.032-.132-.065-.099-.164.033-.067.033-.166.166-.166z"/><path fill="#0BAFC4" d="M56.683 27.654v.529c0 .132-.068.165-.17.165-.103 0-.171-.033-.171-.165v-1.124c0-.132.034-.166.17-.166.103 0 .171 0 .171.166v.595z"/><path fill="#0CAFC4" d="M59.483 22.1c-.1 0-.1-.1-.166-.166-.033-.066-.033-.132.033-.165.33-.198.695-.397 1.025-.595.1-.033.132 0 .199.066.033.066.099.165 0 .198-.364.199-.695.397-1.058.629 0 .033-.033.033-.033.033zm-4.53-1.455c0 .1-.1.132-.165.165-.066.033-.132 0-.165-.066-.133-.264-.298-.496-.43-.76l-.1-.199c-.099-.165-.066-.198.067-.264.066-.033.132-.033.165.033.198.33.397.694.595 1.025a.102.102 0 0 1 .033.066z"/><path fill="#0DAFC4" d="M60.507 23.797h-.562c-.132 0-.165-.035-.165-.171 0-.103 0-.17.132-.17h1.157c.133 0 .133.102.133.17 0 .102 0 .17-.133.17h-.562zm-8 0h-.562c-.133 0-.166-.069-.166-.171 0-.103.033-.17.132-.17h1.125c.132 0 .132.067.132.17 0 .102-.033.17-.132.17h-.53z"/></g></g></svg>