<svg xmlns="http://www.w3.org/2000/svg" width="84" height="84" viewBox="0 0 84 84"><g fill="none" fill-rule="evenodd"><path fill="#FFF" d="M42 84C18.804 84 0 65.196 0 42S18.804 0 42 0s42 18.804 42 42-18.804 42-42 42z"/><path fill="#F3F3F4" fill-rule="nonzero" d="M42 81c21.54 0 39-17.46 39-39S63.54 3 42 3 3 20.46 3 42s17.46 39 39 39zm0 3C18.804 84 0 65.196 0 42S18.804 0 42 0s42 18.804 42 42-18.804 42-42 42z"/><g fill-rule="nonzero"><path fill="#8D959D" d="M18.817 19.088h47.367v4.66H18.817z"/><path fill="#ECF0F1" d="M20.45 23.748h44.1v32.621h-44.1z"/><path fill="#0AAFC4" d="M25.35 47.048h4.9v3.883h-4.9zm7.35 0h4.9v3.883h-4.9zm7.35 0h4.9v3.883h-4.9zm7.35 0h4.9v3.883h-4.9zm7.35 0h4.9v3.883h-4.9z"/><path fill="#FFBB41" d="M25.35 43.165h4.9v3.883h-4.9z"/><path fill="#F3969B" d="M32.7 38.505h4.9v8.544h-4.9zm7.35-4.66h4.9v13.204h-4.9z"/><path fill="#FFBB41" d="M47.4 39.282h4.9v7.767h-4.9z"/><path fill="#F3969B" d="M54.75 29.185h4.9v17.864h-4.9z"/><path fill="#D1D4D1" d="M24.533 36.175a.836.836 0 0 1-.577-.228.75.75 0 0 1 0-1.098l5.717-5.437a.846.846 0 0 1 1.154 0 .75.75 0 0 1 0 1.098l-5.716 5.437a.836.836 0 0 1-.578.228z"/><path fill="#D1D4D1" d="M30.25 34.621c-.452 0-.817-.347-.817-.776V29.96c0-.43.365-.776.817-.776.452 0 .817.347.817.776v3.884c0 .43-.365.776-.817.776z"/><path fill="#D1D4D1" d="M30.25 30.738h-4.083c-.452 0-.817-.347-.817-.777 0-.43.365-.776.817-.776h4.083c.452 0 .817.347.817.776 0 .43-.365.777-.817.777z"/><path fill="#8D959D" d="M66.183 57.145H18.817c-.452 0-.817-.347-.817-.776 0-.43.365-.777.817-.777h47.366c.452 0 .817.347.817.777 0 .43-.365.776-.817.776z"/><path fill="#8D959D" d="M42.5 59.475c-.452 0-.817-.347-.817-.776v-2.33c0-.43.365-.777.817-.777.452 0 .817.347.817.777v2.33c0 .43-.365.776-.817.776z"/><path fill="#8D959D" d="M42.5 64.912c-1.802 0-3.267-1.393-3.267-3.106 0-1.714 1.465-3.107 3.267-3.107 1.802 0 3.267 1.393 3.267 3.107 0 1.713-1.465 3.106-3.267 3.106zm0-4.66c-.9 0-1.633.697-1.633 1.554 0 .856.732 1.553 1.633 1.553.9 0 1.633-.697 1.633-1.553 0-.857-.732-1.554-1.633-1.554z"/></g></g></svg>