<svg xmlns="http://www.w3.org/2000/svg" width="84" height="84" viewBox="0 0 84 84"><g fill="none" fill-rule="evenodd"><path fill="#FFF" d="M42 84C18.804 84 0 65.196 0 42S18.804 0 42 0s42 18.804 42 42-18.804 42-42 42z"/><path fill="#F3F3F4" fill-rule="nonzero" d="M42 81c21.54 0 39-17.46 39-39S63.54 3 42 3 3 20.46 3 42s17.46 39 39 39zm0 3C18.804 84 0 65.196 0 42S18.804 0 42 0s42 18.804 42 42-18.804 42-42 42z"/><g fill-rule="nonzero" transform="translate(24 20)"><path fill="#ABB4BD" d="M28.218 29.294c-.125 0-.253-.02-.379-.062a1.213 1.213 0 0 1-.758-1.53l2.27-6.88-1.63-1.646h-4.016l-1.63 1.646 2.27 6.88c.21.633-.13 1.319-.758 1.53a1.196 1.196 0 0 1-1.516-.766l-2.505-7.588a1.219 1.219 0 0 1 .29-1.239l2.505-2.53c.224-.227.53-.354.847-.354h5.01c.318 0 .623.128.847.355l2.505 2.53c.322.323.433.803.29 1.238l-2.505 7.588a1.2 1.2 0 0 1-1.137.828z"/><path fill="#747B83" d="M23.207 5.318h5.01v10.118h-5.01z"/><path fill="#63696F" d="M25.69 5.318h2.529v10.118H25.69z"/><path fill="#939CA5" d="M20.704 12.906h10.019v5.059H20.704z"/><path fill="#FFBB41" d="M5.21 1.17h23.069v7.765H5.21z"/><path fill="#FFBB41" d="M1.364 5.054h7.689v31.059H1.364z"/><path fill="#FC494A" d="M1.364 32.232h34.602v11.647H1.364z"/><ellipse cx="5.908" cy="5.877" fill="#ABB4BD" rx="5.767" ry="5.824"/><path fill="#8D959D" d="M.143 5.751l-.003.126c0 3.216 2.582 5.824 5.767 5.824 3.185 0 5.767-2.608 5.767-5.824l-.003-.126H.143z"/><ellipse cx="5.908" cy="5.877" fill="#747B83" rx="3.495" ry="3.529"/><path fill="#63696F" d="M2.418 5.751c-.001.042-.006.083-.006.126 0 1.95 1.565 3.53 3.495 3.53 1.93 0 3.495-1.58 3.495-3.53 0-.042-.005-.084-.006-.126H2.418z"/></g></g></svg>