<svg xmlns="http://www.w3.org/2000/svg" width="110" height="110" viewBox="0 0 110 110"><g fill="none" fill-rule="evenodd"><path fill="#FFF" d="M55 110C24.624 110 0 85.376 0 55S24.624 0 55 0s55 24.624 55 55-24.624 55-55 55z"/><path fill="#F3F3F4" fill-rule="nonzero" d="M55 107c28.719 0 52-23.281 52-52S83.719 3 55 3 3 26.281 3 55s23.281 52 52 52zm0 3C24.624 110 0 85.376 0 55S24.624 0 55 0s55 24.624 55 55-24.624 55-55 55z"/><g fill-rule="nonzero" transform="translate(20 26)"><ellipse cx="30.833" cy="6.601" fill="#E3AA95" rx="2.125" ry="2.137"/><g fill="#FBBA44"><path d="M47.17 28.237c-2.619-7.383-12.94-8.871-16.337-9.177 1.632-1.297 3.567-2.136 5.616-2.136 5.693 0 10.341 6.391 10.72 11.313z"/><path d="M47.208 28.867c0 .286-.02.553-.038.82-.493 4.465-5.104 6.926-10.702 6.926-5.939 0-10.74-2.766-10.74-7.746 0-3.09 1.86-6.983 4.706-9.463.133-.115.266-.23.418-.344 2.279.192 8.052.243 12.148 2.94 4.095 2.698 3.327 3.808 4.189 6.237 0 .21.019.42.019.63z"/></g><g transform="translate(32.256 23.086)"><ellipse cx="4.421" cy="4.426" fill="#F49514" rx="4.326" ry="4.35"/><path fill="#FBBA44" d="M4.345.687A3.729 3.729 0 0 0 .683 4.503c.038 2.06 1.727 3.72 3.795 3.682A3.741 3.741 0 0 0 8.14 4.369 3.727 3.727 0 0 0 4.345.687zm1.12 5.075c-.171.19-.38.324-.646.381v.344h-.626V6.2a2.07 2.07 0 0 1-.512-.115 1.757 1.757 0 0 1-.57-.381l.437-.744c.152.171.285.286.437.362.076.038.132.057.208.095.076.02.152.039.228.039a.4.4 0 0 0 .304-.115.505.505 0 0 0 .094-.114v-.306a.373.373 0 0 0-.075-.114c-.076-.057-.228-.134-.475-.19-.019 0-.057-.02-.076-.02-.322-.095-.569-.21-.702-.343-.152-.153-.227-.363-.227-.63 0-.324.094-.591.303-.801.17-.172.38-.286.645-.344v-.4h.626v.362c.114.02.228.038.323.076.133.058.285.115.417.21l-.303.725a1.651 1.651 0 0 0-.342-.21c-.038-.019-.057-.019-.095-.038-.094-.019-.17-.038-.265-.038a.464.464 0 0 0-.285.096c-.038.038-.076.076-.076.114-.019.038-.019.076-.019.114 0 .039 0 .077.02.115a.4.4 0 0 0 .075.114c.057.058.19.096.38.153h.038c.038.02.095.02.132.038.323.096.55.191.665.305a.97.97 0 0 1 .208.325.975.975 0 0 1 .076.42 1.297 1.297 0 0 1-.322.8z"/></g><g fill="#FBBA44"><path d="M41.061 4.808l-.455 1.908h-9.222l-.151-.592c2.087.21 6.925.42 9.828-1.316z"/><path d="M41.668 2.29l-.019.057a.268.268 0 0 1-.037.114l-.057.267-.228.954-.266 1.126c-2.903 1.736-7.741 1.526-9.828 1.316l-.095-.381-.816-3.206c-.02-.076-.038-.133-.057-.21a1.929 1.929 0 0 1 1.613-2.29V.04c.076-.019.17-.019.246-.019 1.063 0 1.917.859 1.917 1.927v.076-.19A1.92 1.92 0 0 1 35.957.019c1.063 0 1.917.859 1.917 1.927v.076-.076a1.916 1.916 0 1 1 3.832 0c0 .134-.019.229-.038.343z"/><path d="M34.098 3.74C33.718.094 31.935.056 31.878.056c.076-.019.17-.019.246-.019 1.063 0 1.917.859 1.917 1.927V1.85c.019.915.057 1.888.057 1.888zm3.833 0C37.55.094 35.767.056 35.71.056c.075-.019.17-.019.246-.019 1.063 0 1.917.859 1.917 1.927V1.85c.019.915.057 1.888.057 1.888zm3.737-1.45l-.019.057a.268.268 0 0 1-.037.114l-.057.267-.228.954s.19-1.164.038-1.87C40.985.115 39.79.02 39.79.02c1.063 0 1.916.859 1.916 1.927 0 .134-.019.229-.038.343z"/></g><path fill="#F0B69A" d="M37.892 7.746h14.117v10.741H37.892z"/><ellipse cx="35.937" cy="13.05" fill="#F0B69A" rx="7.761" ry="7.803"/><g transform="translate(46.677 6.487)"><path fill="#9AD2D8" d="M6.205 6.372l-.038-5.208c0-.573-.456-1.03-1.025-1.03L1.044.153C.474.153.019.61.019 1.183L.076 12.02c.019.572.474 1.03 1.043 1.03l4.099-.02c.57 0 1.025-.457 1.025-1.03l-.038-5.628z"/><ellipse cx="1.765" cy="2.271" fill="#FFF" rx="1.006" ry="1.011" transform="rotate(-.308 1.765 2.27)"/></g><path fill="#EA4D50" d="M73.981 5.99H50.756c-.398 0-.683.459-.664 1.031v12.44c-.019.553.266 1.01.645 1.03h23.225l.019-14.5z"/><path fill="#F0B69A" d="M21.991 45.16h14.117v10.741H21.991z"/><ellipse cx="36.45" cy="48.098" fill="#F0B69A" rx="7.761" ry="7.803"/><g transform="translate(21.062 43.882)"><g fill="#9AD2D8"><path d="M6.205 6.601l.038-5.418c0-.572-.456-1.03-1.025-1.03L1.119.133A1.024 1.024 0 0 0 .095 1.164l-.038 5.42H1.46l4.744.018z"/><path d="M6.186 12.039l.019-6.01-4.744.038H.057L.019 12.02c0 .572.455 1.03 1.025 1.03l4.098.02c.57 0 1.044-.478 1.044-1.031z"/></g><ellipse cx="4.506" cy="2.279" fill="#FFF" rx="1.006" ry="1.011" transform="rotate(-89.692 4.506 2.279)"/></g><path fill="#00767C" d="M23.908 44.416c.019-.553-.266-1.011-.664-1.03H.019l.038 14.519h23.225c.379-.02.664-.477.645-1.03l-.02-12.46z"/><ellipse cx="36.867" cy="27.512" fill="#FBBA44" rx="3.055" ry="3.072"/><path fill="#F49514" d="M35.558 28.18c.152.553.474.8 1.081.8.437 0 .665-.094.95-.4.094-.095.17-.133.246-.133.17 0 .322.152.322.324 0 .076-.019.134-.056.172-.285.381-.835.648-1.462.648-.986 0-1.612-.42-1.802-1.411h-.095a.24.24 0 0 1-.247-.248c0-.134.114-.248.247-.248h.038v-.268h-.038a.24.24 0 0 1-.247-.248c0-.133.114-.248.247-.248h.095c.17-.992.797-1.469 1.802-1.469.722 0 1.177.287 1.424.649.056.076.056.134.056.19a.32.32 0 0 1-.322.325.366.366 0 0 1-.247-.114c-.227-.267-.493-.42-.93-.42-.607 0-.948.286-1.081.858h.721c.133 0 .247.115.247.248a.252.252 0 0 1-.247.249h-.797v.267h.797c.133 0 .247.114.247.248a.252.252 0 0 1-.247.248l-.702-.02z"/></g></g></svg>