<svg xmlns="http://www.w3.org/2000/svg" width="84" height="84" viewBox="0 0 84 84"><g fill="none" fill-rule="evenodd"><path fill="#FFF" d="M42 84C18.804 84 0 65.196 0 42S18.804 0 42 0s42 18.804 42 42-18.804 42-42 42z"/><path fill="#F3F3F4" fill-rule="nonzero" d="M42 81c21.54 0 39-17.46 39-39S63.54 3 42 3 3 20.46 3 42s17.46 39 39 39zm0 3C18.804 84 0 65.196 0 42S18.804 0 42 0s42 18.804 42 42-18.804 42-42 42z"/><g fill-rule="nonzero"><path fill="#ECEBEB" d="M18.728 43.347h-1.667A2.056 2.056 0 0 1 15 41.296V36.12c0-1.133.923-2.051 2.06-2.051h1.668v9.278z"/><path fill="#FC494A" d="M33.69 47.199l-12.493-.757a2.598 2.598 0 0 1-2.421-2.586V33.524c0-1.183.918-2.163 2.103-2.248l12.81-.778v16.7h.001z"/><path fill="#ECEBEB" d="M54.146 59.235l-18.3-9.108a3.88 3.88 0 0 1-2.157-3.471v-15.69c0-1.431.792-2.746 2.058-3.422l18.302-9.759c2.598-1.385 5.74.488 5.74 3.42v34.559c0 2.885-3.051 4.762-5.643 3.471"/><path fill="#FC494A" d="M60.672 34.069h-.932v9.278h.932c2.05 0 3.729-1.67 3.729-3.711V37.78c0-2.041-1.678-3.711-3.729-3.711"/><path fill="#FFF" d="M67.196 45.203a.925.925 0 0 1-.756-1.469c.528-.733 1.75-2.688 1.69-5.002-.047-1.833-.616-3.534-1.694-5.057a.925.925 0 0 1 .225-1.292.936.936 0 0 1 1.3.224c1.293 1.827 1.977 3.872 2.034 6.078.075 2.874-1.4 5.245-2.04 6.131a.937.937 0 0 1-.759.387"/><path fill="#FC494A" d="M22.505 46.524v16.912c0 1.786 1.468 3.247 3.262 3.247 1.795 0 3.263-1.461 3.263-3.247V46.929l-6.525-.405z"/><path fill="#FFBB41" d="M54 17.785l-1.717.916v39.632l1.815.902c2.592 1.291 5.642-.585 5.642-3.47v-34.56c0-2.933-3.143-4.806-5.74-3.42"/><path fill="#FFF" d="M43.798 28.09a.934.934 0 0 0-1.25-.42L38.4 29.714a3.692 3.692 0 0 0-1.962 3.262v2.022a.93.93 0 0 0 .932.928.93.93 0 0 0 .932-.928v-2.022c0-.682.375-1.306.952-1.613l4.122-2.028a.926.926 0 0 0 .422-1.243m-6.428 8.761a.93.93 0 0 0-.932.928v1.856a.93.93 0 0 0 .932.928.93.93 0 0 0 .932-.928V37.78a.93.93 0 0 0-.932-.928"/></g></g></svg>