<svg xmlns="http://www.w3.org/2000/svg" width="110" height="110" viewBox="0 0 110 110"><g fill="none" fill-rule="evenodd"><path fill="#FFF" d="M55 110C24.624 110 0 85.376 0 55S24.624 0 55 0s55 24.624 55 55-24.624 55-55 55z"/><path fill="#F3F3F4" fill-rule="nonzero" d="M55 107c28.719 0 52-23.281 52-52S83.719 3 55 3 3 26.281 3 55s23.281 52 52 52zm0 3C24.624 110 0 85.376 0 55S24.624 0 55 0s55 24.624 55 55-24.624 55-55 55z"/><path fill="#55161C" d="M28.073 74.928h54.973V24.594H28.073z"/><path fill="#A43337" d="M42.324 24.47c-1.93 18.1-5.39 28.926-13.246 35.385A839.235 839.235 0 0 0 34.89 80.24c.502 1.681-.74 3.377-2.474 3.377H24.99c-1.427 0-2.584-1.173-2.584-2.62V27.184c0-1.44 1.148-2.61 2.57-2.619l17.348-.094z"/><path fill="#F0A64F" d="M29.548 61.056h-7.063a.968.968 0 0 1-.961-.975c0-.538.43-.975.961-.975h7.063c.53 0 .962.437.962.975s-.431.975-.962.975"/><path fill="#A43337" d="M69.061 24.47c1.93 18.1 5.39 28.926 13.246 35.385a839.235 839.235 0 0 1-5.812 20.385c-.503 1.681.74 3.377 2.473 3.377h7.428c1.427 0 2.583-1.173 2.583-2.62V27.184c0-1.44-1.148-2.61-2.57-2.619l-17.348-.094z"/><path fill="#F8C46D" d="M62.562 44.723c0 3.789-3.03 6.86-6.768 6.86-3.737 0-6.767-3.071-6.767-6.86 0-3.788 3.03-6.86 6.767-6.86 3.738 0 6.768 3.072 6.768 6.86"/><path fill="#131414" d="M56.685 86.988h3.295v-2.395h-3.295z"/><path fill="#091321" d="M51.546 86.988h3.295v-2.395h-3.295z"/><path fill="#E1E2DC" d="M53.122 86.988c0-.886-.708-1.604-1.583-1.604-.873 0-1.582.718-1.582 1.604h3.165zm8.433 0c0-.886-.708-1.604-1.582-1.604-.874 0-1.583.718-1.583 1.604h3.165z"/><path fill="#2D78AA" d="M51.537 84.651h3.304V66.509h-3.304z"/><path fill="#1C6188" d="M56.679 84.651h3.304V66.182h-3.304z"/><path fill="#53606B" d="M59.973 66.323c0 2.352-1.888 4.26-4.217 4.26-2.328 0-4.216-1.908-4.216-4.26s1.888-4.26 4.216-4.26c2.329 0 4.217 1.908 4.217 4.26"/><path fill="#9AAFBB" d="M61.564 58.393c0 3.25-2.599 5.884-5.805 5.884-3.206 0-5.806-2.635-5.806-5.884 0-3.25 2.6-5.885 5.806-5.885s5.805 2.635 5.805 5.885"/><path fill="#9AAFBB" d="M51.17 66.319h9.178v-6.982H51.17z"/><path fill="#E37E67" d="M61.85 45.463c0 3.448-2.758 6.242-6.159 6.242-3.4 0-6.158-2.794-6.158-6.242 0-3.447 2.757-6.241 6.158-6.241 3.401 0 6.158 2.794 6.158 6.241"/><path fill="#131514" d="M52.852 45.903a.483.483 0 0 1-.48.486.483.483 0 0 1-.48-.486c0-.269.215-.486.48-.486s.48.217.48.486m6.719 0a.483.483 0 0 1-.48.486.483.483 0 0 1-.48-.486c0-.269.216-.486.48-.486.265 0 .48.217.48.486"/><path fill="#C3725C" d="M56.91 39.345a6.25 6.25 0 0 1 2.994 5.347c0 3.448-2.757 6.242-6.158 6.242a6.11 6.11 0 0 1-1.219-.123 6.058 6.058 0 0 0 3.164.894c3.401 0 6.158-2.794 6.158-6.242 0-3.024-2.122-5.545-4.94-6.118"/><path fill="#E37E67" d="M51.497 46.751c0 .92-.736 1.667-1.644 1.667a1.656 1.656 0 0 1-1.645-1.667c0-.92.736-1.667 1.645-1.667.908 0 1.644.747 1.644 1.667"/><path fill="#C3725C" d="M63.31 46.751c0 .92-.737 1.667-1.645 1.667a1.656 1.656 0 0 1-1.645-1.667c0-.92.737-1.667 1.645-1.667s1.645.747 1.645 1.667"/><path fill="#DE9B7E" d="M55.852 49.2c-1.382 0-1.87-.707-1.89-.737a.163.163 0 0 1 .045-.225.159.159 0 0 1 .221.043c.019.027.427.594 1.624.594 1.2 0 1.609-.562 1.626-.587a.16.16 0 0 1 .222-.039.163.163 0 0 1 .041.225c-.02.03-.508.726-1.89.726"/><path fill="#C3725C" d="M57.063 51.327v1.657c0 .73-.584 1.322-1.304 1.322-.72 0-1.304-.593-1.304-1.322v-1.538l2.608-.12z"/><path fill="#323B41" d="M54.33 69.75c-.473 0-.925-.081-1.35-.226a4.172 4.172 0 0 0 2.776 1.059c2.33 0 4.217-1.908 4.217-4.26v-.004h.375-1.892c-.382 1.955-2.08 3.431-4.127 3.431"/><path fill="#799EAB" d="M58.545 57.46v8.16h-.006a4.3 4.3 0 0 1-.08.689h1.89v-4.322a5.903 5.903 0 0 0 1.215-3.595c0-2.794-1.924-5.129-4.5-5.73v.322c0 .367-.149.698-.387.938a4.268 4.268 0 0 1 1.868 3.538"/><path fill="#F8C46D" d="M57.277 37.314c-2.095-.263-3.448-.555-3.558-2.081-1.396 2.386-.41 5.77 2.408 5.77 2.819 0 3.366-3.412 1.15-3.69"/><path fill="#F8C46D" d="M56.605 37.45c-2.065.44-3.44.609-4.031-.799-.556 2.716 1.459 5.593 4.125 4.666 2.666-.928 2.091-4.335-.094-3.868"/><path fill="#E0554D" d="M54.045 55.261v-1.929l1.81.981z"/><path fill="#E0554D" d="M57.645 55.261v-1.929l-1.81.981z"/><path fill="#E37E67" d="M49.962 65.235h1.642v-6.513h-1.642z"/><path fill="#C3725C" d="M59.913 65.617h1.643v-6.895h-1.643z"/><path fill="#BDBEBA" d="M58.762 62.447c0 1.631-1.304 2.953-2.913 2.953-1.609 0-2.913-1.322-2.913-2.953 0-1.63 1.304-2.953 2.913-2.953 1.609 0 2.913 1.323 2.913 2.953"/><path fill="#F8C46D" d="M57.328 62.372c0 .776-.62 1.406-1.387 1.406-.766 0-1.387-.63-1.387-1.406 0-.777.621-1.406 1.387-1.406s1.387.63 1.387 1.406"/><path fill="#9AAFBB" d="M57.124 65.174c0 .666-.533 1.206-1.19 1.206-.657 0-1.19-.54-1.19-1.206 0-.666.533-1.206 1.19-1.206.657 0 1.19.54 1.19 1.206"/><path fill="#E37E67" d="M57.182 62.524a1.27 1.27 0 0 1-1.262 1.28 1.27 1.27 0 0 1-1.262-1.28c0-.706.565-1.28 1.262-1.28a1.27 1.27 0 0 1 1.262 1.28"/><path fill="#131514" d="M55.38 62.634a.12.12 0 0 1-.12.12.12.12 0 0 1-.119-.12.12.12 0 0 1 .12-.12.12.12 0 0 1 .119.12m1.377 0a.12.12 0 0 1-.12.12.12.12 0 0 1-.118-.12.12.12 0 0 1 .119-.12.12.12 0 0 1 .119.12"/><path fill="#C3725C" d="M56.17 61.27c.367.223.613.63.613 1.096a1.27 1.27 0 0 1-1.511 1.254c.19.115.41.183.648.183a1.27 1.27 0 0 0 1.262-1.28c0-.619-.435-1.136-1.012-1.253"/><path fill="#E37E67" d="M55.06 62.788a.34.34 0 0 1-.337.341.34.34 0 0 1-.337-.341.34.34 0 0 1 .337-.342.34.34 0 0 1 .337.342"/><path fill="#C3725C" d="M57.482 62.788a.34.34 0 0 1-.338.341.34.34 0 0 1-.337-.341.34.34 0 0 1 .337-.342.34.34 0 0 1 .338.342"/><path fill="#DE9B7E" d="M55.953 63.331c-.284 0-.383-.174-.387-.182-.01-.018-.007-.043.009-.055.014-.013.035-.008.045.01.004.006.087.147.333.147.246 0 .33-.139.333-.145.01-.018.03-.022.046-.01a.048.048 0 0 1 .008.056c-.004.007-.104.18-.387.18"/><path fill="#C3725C" d="M56.305 63.726v.357c0 .157-.143.286-.319.286-.177 0-.32-.129-.32-.286v-.331l.64-.026z"/><path fill="#799EAB" d="M56.505 64.983v1.672h-.002a.83.83 0 0 1-.016.141h.387v-.885c.156-.204.25-.459.25-.737 0-.573-.395-1.051-.923-1.175v.066c0 .075-.03.144-.079.193.23.156.383.423.383.725"/><path fill="#F8C46D" d="M56.245 60.853c-.43-.054-.707-.113-.73-.426-.285.489-.083 1.182.494 1.182.578 0 .69-.698.236-.756"/><path fill="#F8C46D" d="M56.107 60.881c-.423.09-.705.125-.826-.163-.114.556.299 1.146.846.956.546-.19.428-.888-.02-.793"/><path fill="#E0554D" d="M55.582 64.613l.451-.234-.451-.243z"/><path fill="#E0554D" d="M55.949 64.379l.451.234v-.476z"/><path fill="#FFF" d="M51.385 69.996h9.03V57.722h-9.03v12.274zm4.514-5.187c-1.278 0-2.318-1.054-2.318-2.35 0-1.295 1.04-2.35 2.318-2.35 1.279 0 2.318 1.055 2.318 2.35 0 1.296-1.04 2.35-2.318 2.35z"/><path fill="#BDBEBA" d="M51.385 66.889h9.029v-.268h-9.029zm4.359.679h-3.658c-.06 0-.11-.06-.11-.134 0-.074.05-.134.11-.134h3.658c.06 0 .11.06.11.134 0 .074-.05.134-.11.134m2.206.803h-5.864c-.06 0-.11-.06-.11-.134 0-.074.05-.134.11-.134h7.495c.061 0 .11.06.11.134 0 .074-.049.134-.11.134h-1.63zm.952.803h-6.816c-.061 0-.11-.06-.11-.134 0-.074.049-.135.11-.135h6.816c.06 0 .11.06.11.135 0 .074-.05.134-.11.134m-7.517-10.053h9.029v-.268h-9.029z"/><path fill="#BDBEBA" d="M60.524 70.109h-9.25V57.686h9.25V70.11zm-9.03-.223h8.81V57.91h-8.81v11.977z"/><path fill="#BDBEBA" d="M57.583 58.485h-3.368c-.06 0-.11-.06-.11-.134 0-.074.05-.134.11-.134h3.368c.061 0 .11.06.11.134 0 .074-.049.134-.11.134m.659 7.566h-4.685c-.12 0-.22-.12-.22-.267 0-.149.1-.269.22-.269h4.685c.12 0 .219.12.219.269 0 .147-.098.267-.22.267M55.9 64.929c-1.343 0-2.436-1.108-2.436-2.47 0-1.361 1.093-2.47 2.436-2.47s2.437 1.109 2.437 2.47c0 1.362-1.094 2.47-2.437 2.47m0-4.717c-1.222 0-2.217 1.008-2.217 2.247 0 1.24.995 2.248 2.217 2.248 1.223 0 2.217-1.009 2.217-2.248 0-1.24-.994-2.247-2.217-2.247"/><path fill="#E37E67" d="M52.207 65.303c0 .623-.499 1.129-1.114 1.129a1.121 1.121 0 0 1-1.114-1.13c0-.623.499-1.129 1.114-1.129.615 0 1.114.506 1.114 1.13"/><path fill="#C3725C" d="M59.31 65.655c0 .624.5 1.13 1.115 1.13s1.113-.506 1.113-1.13c0-.623-.498-1.129-1.113-1.129s-1.114.506-1.114 1.13"/><path fill="#F0A64F" d="M88.658 61.056h-7.062a.968.968 0 0 1-.962-.975c0-.538.43-.975.962-.975h7.062c.532 0 .962.437.962.975s-.43.975-.962.975"/></g></svg>