<svg xmlns="http://www.w3.org/2000/svg" width="84" height="84" viewBox="0 0 84 84"><g fill="none" fill-rule="evenodd"><path fill="#FFF" d="M42 84C18.804 84 0 65.196 0 42S18.804 0 42 0s42 18.804 42 42-18.804 42-42 42z"/><path fill="#F3F3F4" fill-rule="nonzero" d="M42 81c21.54 0 39-17.46 39-39S63.54 3 42 3 3 20.46 3 42s17.46 39 39 39zm0 3C18.804 84 0 65.196 0 42S18.804 0 42 0s42 18.804 42 42-18.804 42-42 42z"/><g fill-rule="nonzero"><path fill="#9B5A50" d="M49.449 24.49a.84.84 0 0 1-.216-.03c-1.912-.509-4.48-.79-7.233-.79-2.752 0-5.321.281-7.233.79a.828.828 0 0 1-1.014-.577.818.818 0 0 1 .583-1.004c2.049-.546 4.77-.847 7.664-.847s5.615.301 7.664.847a.818.818 0 0 1-.215 1.61z"/><path fill="#FFBB41" d="M34.552 22.851a.823.823 0 0 0-.828.82v4.093h1.655V23.67a.823.823 0 0 0-.827-.819zm14.896 0a.823.823 0 0 0-.827.82v4.093h1.655V23.67a.823.823 0 0 0-.828-.819z"/><path fill="#915046" d="M61.034 62.968H22.966c-1.829 0-3.31-1.467-3.31-3.276v-15.55h44.689v15.55c0 1.81-1.482 3.276-3.31 3.276z"/><path fill="#AA6455" d="M61.034 46.598H22.966c-2.743 0-4.966-2.2-4.966-4.913v-13.11c0-.904.741-1.637 1.655-1.637h44.69c.914 0 1.655.733 1.655 1.638v13.109c0 2.713-2.223 4.913-4.966 4.913z"/><path fill="#874641" d="M61.034 48.236a6.625 6.625 0 0 0 3.31-.887v-2.01a4.97 4.97 0 0 1-3.31 1.259H22.966a4.97 4.97 0 0 1-3.31-1.259v2.01c.974.56 2.103.887 3.31.887h38.069z"/><path fill="#FFBB41" d="M44.483 49.873h-4.966a.823.823 0 0 1-.827-.819V44.96c0-.452.37-.819.827-.819h4.966c.457 0 .827.367.827.82v4.093c0 .453-.37.82-.827.82z"/><path fill="#F3CA7F" d="M43.655 49.873h-3.31v-3.275c0-.452.37-.819.827-.819h1.656c.457 0 .827.367.827.819v3.275z"/></g></g></svg>