<svg xmlns="http://www.w3.org/2000/svg" width="84" height="84" viewBox="0 0 84 84"><g fill="none" fill-rule="evenodd"><path fill="#FFF" d="M42 84C18.804 84 0 65.196 0 42S18.804 0 42 0s42 18.804 42 42-18.804 42-42 42z"/><path fill="#F3F3F4" fill-rule="nonzero" d="M42 81c21.54 0 39-17.46 39-39S63.54 3 42 3 3 20.46 3 42s17.46 39 39 39zm0 3C18.804 84 0 65.196 0 42S18.804 0 42 0s42 18.804 42 42-18.804 42-42 42z"/><g fill-rule="nonzero"><path fill="#0AAFC4" d="M42.92 43.824c0 5.636-3.658 10.409-8.705 12.022-1.187.38-2.452.585-3.765.585a12.331 12.331 0 0 1-7.874-2.834l-5.316 1.049 2.09-5.073a12.676 12.676 0 0 1-1.368-5.749c0-5.731 3.784-10.569 8.962-12.1a12.296 12.296 0 0 1 3.506-.506c6.373 0 11.628 4.832 12.377 11.068.06.504.092 1.018.092 1.538"/><path fill="#FFF" d="M28.262 46.64c0-.726.117-1.38.352-1.958.235-.579.72-1.083 1.453-1.514.22-.133.492-.285.815-.456.323-.17.638-.375.947-.612.308-.238.568-.516.781-.835.213-.319.32-.686.32-1.102 0-.312-.06-.586-.177-.824a1.882 1.882 0 0 0-.462-.6 1.916 1.916 0 0 0-.672-.368 2.574 2.574 0 0 0-.781-.122c-.323 0-.617.055-.881.166a3 3 0 0 0-.716.423 3.567 3.567 0 0 0-.572.58 6.526 6.526 0 0 0-.43.611l-1.915-1.335c.19-.46.444-.868.76-1.224a4.662 4.662 0 0 1 1.079-.902 5 5 0 0 1 1.31-.556c.47-.126.954-.19 1.453-.19.557 0 1.108.082 1.651.245a4.18 4.18 0 0 1 1.464.78c.433.356.785.812 1.057 1.368.271.557.407 1.221.407 1.993 0 .475-.055.894-.165 1.257a3.51 3.51 0 0 1-.473.99 4.16 4.16 0 0 1-.727.802 8.277 8.277 0 0 1-.946.69c-.294.178-.588.349-.881.512a5.294 5.294 0 0 0-.804.546c-.242.2-.44.43-.594.69-.154.26-.231.575-.231.946h-2.422m.044 5.186v-3.071h2.444v3.071h-2.444"/><path fill="#FFBB41" d="M35.07 66.43l6.406 2.667A40.76 40.76 0 0 0 57.63 59.055a41.364 41.364 0 0 0 9.931-16.334l-2.638-6.477-7.873 11.238 2.62.824a33.984 33.984 0 0 1-5.478 7.274A33.74 33.74 0 0 1 47 61.118l-.815-2.649-11.114 7.96z"/><path fill="#F7B33B" d="M33.713 63.534l1.357 2.896 11.114-7.961-2.635-1.984zm28.348-28.661l-6.973 9.944 1.963 2.665 7.873-11.238z"/><path fill="#5DBAA3" d="M31.816 28.206c0 5.636 3.658 10.409 8.704 12.022 1.187.38 2.452.585 3.765.585a12.33 12.33 0 0 0 7.874-2.834l5.317 1.048-2.091-5.073a12.676 12.676 0 0 0 1.368-5.748c0-5.731-3.783-10.57-8.962-12.1a12.32 12.32 0 0 0-3.506-.506c-6.887 0-12.469 5.644-12.469 12.606z"/><path fill="#FFF" d="M48.75 35.118c-1.602 0-2.904-1.317-2.904-2.935 0-1.619 1.302-2.936 2.903-2.936s2.904 1.317 2.904 2.936c0 1.618-1.303 2.935-2.904 2.935zm0-4.621a1.68 1.68 0 0 0-1.669 1.686c0 .93.749 1.686 1.668 1.686a1.68 1.68 0 0 0 1.668-1.686c0-.93-.748-1.686-1.668-1.686zm-5.31 5.138l-1.213-.241 2.902-14.618 1.212.24zm-3.62-8.47c-1.601 0-2.904-1.317-2.904-2.936 0-1.618 1.303-2.935 2.904-2.935 1.6 0 2.903 1.317 2.903 2.935 0 1.619-1.302 2.936-2.903 2.936zm0-4.622a1.68 1.68 0 0 0-1.668 1.686c0 .93.748 1.686 1.668 1.686.92 0 1.667-.756 1.667-1.686 0-.93-.748-1.686-1.667-1.686z"/></g></g></svg>