<svg xmlns="http://www.w3.org/2000/svg" width="110" height="110" viewBox="0 0 110 110"><g fill="none" fill-rule="evenodd"><path fill="#FFF" d="M55 110C24.624 110 0 85.376 0 55S24.624 0 55 0s55 24.624 55 55-24.624 55-55 55z"/><path fill="#F3F3F4" fill-rule="nonzero" d="M55 107c28.719 0 52-23.281 52-52S83.719 3 55 3 3 26.281 3 55s23.281 52 52 52zm0 3C24.624 110 0 85.376 0 55S24.624 0 55 0s55 24.624 55 55-24.624 55-55 55z"/><g fill-rule="nonzero"><path fill="#EDEDED" d="M81.016 79.865H28.957c-1.06 0-1.93-.865-1.93-1.92V33.839c0-1.054.87-1.92 1.93-1.92h52.059c1.06 0 1.93.866 1.93 1.92v44.108c0 1.054-.87 1.919-1.93 1.919z"/><path fill="#EA4D50" d="M82.946 41.514H27.027v-7.676c0-1.054.87-1.92 1.93-1.92h52.059c1.06 0 1.93.866 1.93 1.92v7.676z"/><path fill="#C1BFBD" d="M35.21 37.676a1.446 1.446 0 0 1-1.441-1.433V31.46c0-.783.652-1.432 1.44-1.432.79 0 1.441.649 1.441 1.432v4.784c0 .784-.625 1.433-1.44 1.433zm39.553 0c-.788 0-1.44-.649-1.44-1.433V31.46c0-.783.652-1.432 1.44-1.432.788 0 1.44.649 1.44 1.432v4.784c0 .784-.652 1.433-1.44 1.433z"/><path d="M37.63 54.946h-3.86a.943.943 0 0 1-.952-.946v-2.865c0-.54.435-.946.951-.946h3.86c.544 0 .952.433.952.946V54a.943.943 0 0 1-.952.946zm7.72 0h-3.86a.943.943 0 0 1-.952-.946v-2.865c0-.54.435-.946.952-.946h3.86c.543 0 .951.433.951.946V54a.96.96 0 0 1-.951.946zm7.72 0h-3.86a.943.943 0 0 1-.951-.946v-2.865c0-.54.434-.946.951-.946h3.86c.544 0 .952.433.952.946V54a.96.96 0 0 1-.952.946zm7.693 0h-3.86a.943.943 0 0 1-.951-.946v-2.865c0-.54.435-.946.951-.946h3.86c.544 0 .952.433.952.946V54c.027.514-.408.946-.952.946z" fill="#DADADA"/><path d="M68.483 54.946h-3.86a.943.943 0 0 1-.951-.946v-2.865c0-.54.435-.946.951-.946h3.86c.544 0 .952.433.952.946V54c.027.514-.408.946-.952.946zm7.72 0h-3.86a.943.943 0 0 1-.951-.946v-2.865c0-.54.435-.946.952-.946h3.86c.543 0 .951.433.951.946V54a.96.96 0 0 1-.951.946z" fill="#C1BFBD"/><path d="M37.63 48.243h-3.86a.943.943 0 0 1-.952-.946c0-.54.435-.946.951-.946h3.86c.544 0 .952.433.952.946a.943.943 0 0 1-.952.946zm7.72 0h-3.86a.943.943 0 0 1-.952-.946c0-.54.435-.946.952-.946h3.86c.543 0 .951.433.951.946a.96.96 0 0 1-.951.946zm7.72 0h-3.86a.943.943 0 0 1-.951-.946c0-.54.434-.946.951-.946h3.86c.544 0 .952.433.952.946a.96.96 0 0 1-.952.946zm7.693 0h-3.86a.943.943 0 0 1-.951-.946c0-.54.435-.946.951-.946h3.86c.544 0 .952.433.952.946.027.514-.408.946-.952.946z" fill="#07AFC4"/><path d="M68.483 48.243h-3.86a.943.943 0 0 1-.951-.946c0-.54.435-.946.951-.946h3.86c.544 0 .952.433.952.946.027.514-.408.946-.952.946zm7.72 0h-3.86a.943.943 0 0 1-.951-.946c0-.54.435-.946.952-.946h3.86c.543 0 .951.433.951.946a.96.96 0 0 1-.951.946z" fill="#EC6567"/><path d="M37.63 61.649h-3.86a.943.943 0 0 1-.952-.946v-2.865c0-.54.435-.946.951-.946h3.86c.544 0 .952.433.952.946v2.865a.943.943 0 0 1-.952.946zm7.72 0h-3.86a.943.943 0 0 1-.952-.946v-2.865c0-.54.435-.946.952-.946h3.86c.543 0 .951.433.951.946v2.865a.96.96 0 0 1-.951.946zm7.72 0h-3.86a.943.943 0 0 1-.951-.946v-2.865c0-.54.434-.946.951-.946h3.86c.544 0 .952.433.952.946v2.865a.96.96 0 0 1-.952.946zm7.693 0h-3.86a.943.943 0 0 1-.951-.946v-2.865c0-.54.435-.946.951-.946h3.86c.544 0 .952.433.952.946v2.865c.027.513-.408.946-.952.946z" fill="#DADADA"/><path d="M68.483 61.649h-3.86a.943.943 0 0 1-.951-.946v-2.865c0-.54.435-.946.951-.946h3.86c.544 0 .952.433.952.946v2.865c.027.513-.408.946-.952.946zm7.72 0h-3.86a.943.943 0 0 1-.951-.946v-2.865c0-.54.435-.946.952-.946h3.86c.543 0 .951.433.951.946v2.865a.96.96 0 0 1-.951.946z" fill="#C1BFBD"/><path d="M37.63 68.352h-3.86a.943.943 0 0 1-.952-.946V64.54c0-.54.435-.946.951-.946h3.86c.544 0 .952.433.952.946v2.865c0 .54-.408.946-.952.946zm7.72 0h-3.86a.943.943 0 0 1-.952-.946V64.54c0-.54.435-.946.952-.946h3.86c.543 0 .951.433.951.946v2.865c0 .54-.435.946-.951.946zm7.72 0h-3.86a.943.943 0 0 1-.951-.946V64.54c0-.54.434-.946.951-.946h3.86c.544 0 .952.433.952.946v2.865c0 .54-.435.946-.952.946zm7.693 0h-3.86a.943.943 0 0 1-.951-.946V64.54c0-.54.435-.946.951-.946h3.86c.544 0 .952.433.952.946v2.865c.027.54-.408.946-.952.946z" fill="#DADADA"/><path d="M68.483 68.352h-3.86a.943.943 0 0 1-.951-.946V64.54c0-.54.435-.946.951-.946h3.86c.544 0 .952.433.952.946v2.865c.027.54-.408.946-.952.946zm7.72 0h-3.86a.943.943 0 0 1-.951-.946V64.54c0-.54.435-.946.952-.946h3.86c.543 0 .951.433.951.946v2.865c0 .54-.435.946-.951.946z" fill="#C1BFBD"/><path d="M37.63 75.08h-3.86a.943.943 0 0 1-.952-.945V71.27c0-.54.435-.946.951-.946h3.86c.544 0 .952.432.952.946v2.865a.943.943 0 0 1-.952.946zm7.72 0h-3.86a.943.943 0 0 1-.952-.945V71.27c0-.54.435-.946.952-.946h3.86c.543 0 .951.432.951.946v2.865a.96.96 0 0 1-.951.946zm7.72 0h-3.86a.943.943 0 0 1-.951-.945V71.27c0-.54.434-.946.951-.946h3.86c.544 0 .952.432.952.946v2.865a.96.96 0 0 1-.952.946zm7.693 0h-3.86a.943.943 0 0 1-.951-.945V71.27c0-.54.435-.946.951-.946h3.86c.544 0 .952.432.952.946v2.865c.027.513-.408.946-.952.946z" fill="#DADADA"/><path d="M68.483 75.08h-3.86a.943.943 0 0 1-.951-.945V71.27c0-.54.435-.946.951-.946h3.86c.544 0 .952.432.952.946v2.865c.027.513-.408.946-.952.946zm7.72 0h-3.86a.943.943 0 0 1-.951-.945V71.27c0-.54.435-.946.952-.946h3.86c.543 0 .951.432.951.946v2.865a.96.96 0 0 1-.951.946z" fill="#C1BFBD"/></g></g></svg>