<svg xmlns="http://www.w3.org/2000/svg" width="110" height="110" viewBox="0 0 110 110"><g fill="none" fill-rule="evenodd"><path fill="#FFF" d="M55 110C24.624 110 0 85.376 0 55S24.624 0 55 0s55 24.624 55 55-24.624 55-55 55z"/><path fill="#F3F3F4" fill-rule="nonzero" d="M55 107c28.719 0 52-23.281 52-52S83.719 3 55 3 3 26.281 3 55s23.281 52 52 52zm0 3C24.624 110 0 85.376 0 55S24.624 0 55 0s55 24.624 55 55-24.624 55-55 55z"/><g fill="#DADADA"><path d="M34.789 36.14l-1.559-1.102c5.804-8.508 15.68-13.286 25.817-12.399 7.274.637 13.925 4.063 18.737 9.595l-1.435 1.273c-4.466-5.164-10.712-8.363-17.47-8.954-9.433-.825-18.665 3.623-24.09 11.586z"/><path d="M79.022 29.57l.161 4.643c0 .53-.463.972-1.018.827l-4.442-1.112c-.65-.153-.813-.987-.301-1.425l4.28-3.53c.512-.438 1.285-.081 1.32.597z"/></g><g fill-rule="nonzero"><path fill="#C1BFBD" d="M83.939 69.101h-2.972a.483.483 0 0 1-.495-.494v-.988h3.986v.988a.535.535 0 0 1-.52.494z"/><path fill="#EA4D50" d="M75.967 61.666h12.925c.283 0 .542-.118.73-.306a.987.987 0 0 0 .26-.753l-.778-11.13a3.984 3.984 0 0 0-3.962-3.693h-5.378a3.984 3.984 0 0 0-3.962 3.694L75 60.608a.987.987 0 0 0 .26.752.981.981 0 0 0 .707.306zm13.42 2H75.495c-1.132.024-1.98.87-1.98 1.977 0 1.129.895 2 2.051 2h13.726c1.156 0 2.052-.848 2.052-2 .024-1.13-.825-1.977-1.957-1.977z"/><path fill="#DADADA" d="M87.9 69.101h-1.273l-1.485-1.482h-.708v.706l1.627 1.623a.48.48 0 0 0 .354.142h1.486a.483.483 0 0 0 .495-.495.498.498 0 0 0-.495-.494z"/><path d="M73.986 60.184a.483.483 0 0 1-.495.494h-2.996a.498.498 0 0 1-.495-.494v-.989c0-.282.212-.494.495-.494h2.972c.283 0 .495.212.495.494v.989h.024zm20.872 0a.483.483 0 0 1-.495.494h-2.971a.483.483 0 0 1-.496-.494v-.989c0-.282.212-.494.496-.494h2.971c.283 0 .495.212.495.494v.989z" fill="#C1BFBD"/><path fill="#676767" d="M83.939 76.066c0 .824-.66 1.482-1.486 1.482a1.478 1.478 0 0 1-1.486-1.482c0-.823.66-1.482 1.486-1.482.825 0 1.486.659 1.486 1.482zm6.462 0c0 .824-.66 1.482-1.486 1.482a1.478 1.478 0 0 1-1.486-1.482c0-.823.66-1.482 1.486-1.482.802-.024 1.486.659 1.486 1.482zm-12.925 0c0 .824-.66 1.482-1.485 1.482a1.478 1.478 0 0 1-1.486-1.482c0-.823.66-1.482 1.486-1.482.801-.024 1.485.659 1.485 1.482z"/><path fill="#DADADA" d="M76.462 76.066a.483.483 0 0 1-.495.494.483.483 0 0 1-.495-.494c0-.282.212-.494.495-.494.283-.024.495.212.495.494zm6.463 0a.483.483 0 0 1-.496.494.483.483 0 0 1-.495-.494c0-.282.212-.494.495-.494.283 0 .496.212.496.494zm6.462 0a.483.483 0 0 1-.495.494.483.483 0 0 1-.496-.494c0-.282.212-.494.496-.494.283-.024.495.212.495.494z"/><path fill="#C1BFBD" d="M80.943 61.666h2.972v1.976h-2.972z"/><path fill="#CC232C" d="M81.439 51.76a.995.995 0 0 1-.99.988.995.995 0 0 1-.991-.988c0-.541.448-.988.99-.988a.98.98 0 0 1 .99.988zm3.986 0a.995.995 0 0 1-.991.988.995.995 0 0 1-.99-.988c0-.541.448-.988.99-.988a.98.98 0 0 1 .99.988zm-3.986 3.953a.995.995 0 0 1-.99.988.995.995 0 0 1-.991-.988c0-.541.448-.988.99-.988.543 0 .99.447.99.988zm3.986 0a.995.995 0 0 1-.991.988.995.995 0 0 1-.99-.988c0-.541.448-.988.99-.988s.99.447.99.988z"/><path fill="#DADADA" d="M92.382 60.678v3.482a.995.995 0 0 1-.99.988h-.095c.047.165.07.306.07.495 0 .188-.023.352-.07.494h.095a1.976 1.976 0 0 0 1.98-1.977v-3.482h-.99zm-18.868 4.941c0-.165.024-.33.07-.494h-.093a.995.995 0 0 1-.991-.988v-3.46h-.99v3.483a1.99 1.99 0 0 0 1.98 1.977h.095a1.83 1.83 0 0 1-.07-.518zm15.873 7.953a.502.502 0 0 0-.378-.494l-6.084-1.388V69.1h-.991v2.589l-6.085 1.388c-.236.047-.377.259-.377.494v1.082a1.84 1.84 0 0 1 .495-.094c.165 0 .33.047.495.094v-.682l5.472-1.27v1.952a1.84 1.84 0 0 1 .495-.094c.165 0 .33.047.496.094V72.7l5.471 1.27v.683a1.84 1.84 0 0 1 .496-.094c.165 0 .33.047.495.094v-1.082z"/></g><g fill-rule="nonzero"><path fill="#EDEDED" d="M45.008 73.551h-26.03a.966.966 0 0 1-.964-.959V50.538c0-.527.435-.96.965-.96h26.029c.53 0 .965.433.965.96v22.054c0 .527-.435.96-.965.96z"/><path fill="#EA4D50" d="M45.973 54.376h-27.96v-3.838c0-.527.436-.96.966-.96h26.029c.53 0 .965.433.965.96v3.838z"/><path fill="#C1BFBD" d="M22.105 52.457a.723.723 0 0 1-.72-.716v-2.392c0-.392.326-.716.72-.716.394 0 .72.324.72.716v2.392a.714.714 0 0 1-.72.716zm19.777 0a.723.723 0 0 1-.72-.716v-2.392c0-.392.325-.716.72-.716.394 0 .72.324.72.716v2.392a.723.723 0 0 1-.72.716z"/><path d="M23.314 61.092h-1.93a.471.471 0 0 1-.476-.473v-1.432c0-.27.218-.473.476-.473h1.93c.272 0 .476.216.476.473v1.432a.471.471 0 0 1-.476.473zm3.86 0h-1.93a.471.471 0 0 1-.475-.473v-1.432c0-.27.217-.473.475-.473h1.93c.272 0 .476.216.476.473v1.432a.48.48 0 0 1-.476.473zm3.86 0h-1.93a.471.471 0 0 1-.475-.473v-1.432c0-.27.217-.473.475-.473h1.93c.272 0 .476.216.476.473v1.432a.48.48 0 0 1-.475.473zm3.847 0h-1.93a.471.471 0 0 1-.476-.473v-1.432c0-.27.218-.473.476-.473h1.93c.272 0 .476.216.476.473v1.432c.014.257-.204.473-.476.473z" fill="#DADADA"/><path d="M38.742 61.092h-1.93a.471.471 0 0 1-.476-.473v-1.432c0-.27.218-.473.476-.473h1.93c.272 0 .476.216.476.473v1.432c.013.257-.204.473-.476.473zm3.86 0h-1.93a.471.471 0 0 1-.475-.473v-1.432c0-.27.217-.473.475-.473h1.93c.272 0 .476.216.476.473v1.432a.48.48 0 0 1-.476.473z" fill="#C1BFBD"/><path d="M23.314 57.74h-1.93a.471.471 0 0 1-.476-.472c0-.27.218-.473.476-.473h1.93c.272 0 .476.216.476.473a.471.471 0 0 1-.476.473zm3.86 0h-1.93a.471.471 0 0 1-.475-.472c0-.27.217-.473.475-.473h1.93c.272 0 .476.216.476.473a.48.48 0 0 1-.476.473zm3.86 0h-1.93a.471.471 0 0 1-.475-.472c0-.27.217-.473.475-.473h1.93c.272 0 .476.216.476.473a.48.48 0 0 1-.475.473zm3.847 0h-1.93a.471.471 0 0 1-.476-.472c0-.27.218-.473.476-.473h1.93c.272 0 .476.216.476.473.014.256-.204.473-.476.473z" fill="#07AFC4"/><path d="M38.742 57.74h-1.93a.471.471 0 0 1-.476-.472c0-.27.218-.473.476-.473h1.93c.272 0 .476.216.476.473.013.256-.204.473-.476.473zm3.86 0h-1.93a.471.471 0 0 1-.475-.472c0-.27.217-.473.475-.473h1.93c.272 0 .476.216.476.473a.48.48 0 0 1-.476.473z" fill="#EC6567"/><path d="M23.314 64.443h-1.93a.471.471 0 0 1-.476-.473v-1.432c0-.27.218-.473.476-.473h1.93c.272 0 .476.216.476.473v1.432a.471.471 0 0 1-.476.473zm3.86 0h-1.93a.471.471 0 0 1-.475-.473v-1.432c0-.27.217-.473.475-.473h1.93c.272 0 .476.216.476.473v1.432a.48.48 0 0 1-.476.473zm3.86 0h-1.93a.471.471 0 0 1-.475-.473v-1.432c0-.27.217-.473.475-.473h1.93c.272 0 .476.216.476.473v1.432a.48.48 0 0 1-.475.473zm3.847 0h-1.93a.471.471 0 0 1-.476-.473v-1.432c0-.27.218-.473.476-.473h1.93c.272 0 .476.216.476.473v1.432c.014.257-.204.473-.476.473z" fill="#DADADA"/><path d="M38.742 64.443h-1.93a.471.471 0 0 1-.476-.473v-1.432c0-.27.218-.473.476-.473h1.93c.272 0 .476.216.476.473v1.432c.013.257-.204.473-.476.473zm3.86 0h-1.93a.471.471 0 0 1-.475-.473v-1.432c0-.27.217-.473.475-.473h1.93c.272 0 .476.216.476.473v1.432a.48.48 0 0 1-.476.473z" fill="#C1BFBD"/><path d="M23.314 67.795h-1.93a.471.471 0 0 1-.476-.473V65.89c0-.27.218-.473.476-.473h1.93c.272 0 .476.216.476.473v1.432c0 .27-.204.473-.476.473zm3.86 0h-1.93a.471.471 0 0 1-.475-.473V65.89c0-.27.217-.473.475-.473h1.93c.272 0 .476.216.476.473v1.432c0 .27-.217.473-.476.473zm3.86 0h-1.93a.471.471 0 0 1-.475-.473V65.89c0-.27.217-.473.475-.473h1.93c.272 0 .476.216.476.473v1.432c0 .27-.217.473-.475.473zm3.847 0h-1.93a.471.471 0 0 1-.476-.473V65.89c0-.27.218-.473.476-.473h1.93c.272 0 .476.216.476.473v1.432c.014.27-.204.473-.476.473z" fill="#DADADA"/><path d="M38.742 67.795h-1.93a.471.471 0 0 1-.476-.473V65.89c0-.27.218-.473.476-.473h1.93c.272 0 .476.216.476.473v1.432c.013.27-.204.473-.476.473zm3.86 0h-1.93a.471.471 0 0 1-.475-.473V65.89c0-.27.217-.473.475-.473h1.93c.272 0 .476.216.476.473v1.432c0 .27-.217.473-.476.473z" fill="#C1BFBD"/><path d="M23.314 71.16h-1.93a.471.471 0 0 1-.476-.474v-1.432c0-.27.218-.473.476-.473h1.93c.272 0 .476.216.476.473v1.432a.471.471 0 0 1-.476.473zm3.86 0h-1.93a.471.471 0 0 1-.475-.474v-1.432c0-.27.217-.473.475-.473h1.93c.272 0 .476.216.476.473v1.432a.48.48 0 0 1-.476.473zm3.86 0h-1.93a.471.471 0 0 1-.475-.474v-1.432c0-.27.217-.473.475-.473h1.93c.272 0 .476.216.476.473v1.432a.48.48 0 0 1-.475.473zm3.847 0h-1.93a.471.471 0 0 1-.476-.474v-1.432c0-.27.218-.473.476-.473h1.93c.272 0 .476.216.476.473v1.432c.014.257-.204.473-.476.473z" fill="#DADADA"/><path d="M38.742 71.16h-1.93a.471.471 0 0 1-.476-.474v-1.432c0-.27.218-.473.476-.473h1.93c.272 0 .476.216.476.473v1.432c.013.257-.204.473-.476.473zm3.86 0h-1.93a.471.471 0 0 1-.475-.474v-1.432c0-.27.217-.473.475-.473h1.93c.272 0 .476.216.476.473v1.432a.48.48 0 0 1-.476.473z" fill="#C1BFBD"/></g></g></svg>