<svg xmlns="http://www.w3.org/2000/svg" width="84" height="84" viewBox="0 0 84 84"><g fill="none" fill-rule="evenodd"><path fill="#FFF" d="M42 84C18.804 84 0 65.196 0 42S18.804 0 42 0s42 18.804 42 42-18.804 42-42 42z"/><path fill="#F3F3F4" fill-rule="nonzero" d="M42 81c21.54 0 39-17.46 39-39S63.54 3 42 3 3 20.46 3 42s17.46 39 39 39zm0 3C18.804 84 0 65.196 0 42S18.804 0 42 0s42 18.804 42 42-18.804 42-42 42z"/><g fill-rule="nonzero"><path fill="#FC494A" d="M35.718 41.562l5.534-6.113L24.65 18.765a2.593 2.593 0 0 0-3.634 0l-2.23 2.23a2.593 2.593 0 0 0 0 3.634l16.932 16.933z"/><path fill="#ABB4BD" d="M61.984 65.432l3.965.496-.578-4.047-3.634-2.478-2.313 2.395z"/><path fill="#E0E0E0" d="M44.391 46.683l15.115 15.115 2.313-2.313L46.704 44.37z"/><path fill="#D73A3B" d="M36.214 37.019a.75.75 0 0 1-.578-.248L21.594 22.729a.798.798 0 0 1 0-1.156.798.798 0 0 1 1.157 0l14.041 14.042c.33.33.33.826 0 1.156a.75.75 0 0 1-.578.248"/><path fill="#ABB4BD" d="M44.391 31.815c1.9-1.9 2.148-4.873.165-6.856-3.882-3.882-6.112-3.469-10.49-3.469 6.608-2.89 11.399-3.551 16.19-1.321 2.064.908 2.89 1.734 4.542 3.386l2.974 2.974a5.112 5.112 0 0 1 1.404 2.725c.248 1.57-.165 1.9.909 3.057.33.33.826.33 1.156 0a.798.798 0 0 1 1.156 0l2.891 2.89c.661.661.661 1.652 0 2.313l-5.864 5.865c-.66.66-1.652.66-2.313 0l-2.726-2.809a.798.798 0 0 1 0-1.156.898.898 0 0 0 0-1.239c-1.156-1.156-1.486-.743-3.056-.909-1.073-.165-1.982-.66-2.725-1.404l-4.213-4.047"/><path fill="#7A8188" d="M44.391 31.815L18.786 60.476c-.991.992-1.074 2.643-.083 3.552l1.157 1.156c.99.992 2.56.909 3.551-.082L49.1 36.358l-4.708-4.543z"/><path fill="#E15649" d="M40.344 46.104l2.313 2.313 5.864-5.864-2.643-2.643z"/></g></g></svg>