<svg xmlns="http://www.w3.org/2000/svg" width="834" height="156" viewBox="0 0 834 156"><path d="M136.348 26.144c2.248 7.545-.608 17.13 3.165 24.067l5.397 9.586c-.3 3.372-7.753 3.264-3.873 7.653.608 3.88-3.765 4.18-5.92 5.612 1.432.608 4.08-.408 4.388 1.94.308 3.157-4.18 2.85-4.689 5.913.916 3.373-.108 6.937-3.372 8.362-8.053 3.264-17.947-3.773-25.092 3.164-17.23 15.906-27.84 35.801-39.773 54.564-3.165.108-5.921-2.856-8.162-5.197-3.572-3.572-6.629-8.361-4.596-13.466 6.229-13.458 15.298-25.7 26.516-37.125 8.061-8.47 21.935-2.957 31.928-6.63 4.897-3.163-1.94-10.508 5.605-11.525.516-1.124.408-3.064-1.224-3.164h-2.956v-1.016c2.348-.616 5.466-1.348 6.12-3.88-.5-1.633-1.424-3.011-.323-4.959 0 0 3.519-2.087 3.942-3.288.708-2.001-7.86-9.716-7.283-20.01.246-4.396-2.656-18.97-8.57-26.516-2.14 34.577-28.763 57.22-53.039 82.512-8.67 10.51-16.014 21.527-22.135 33.153-11.118-.916-20.803-7.445-26.724-17.239C-1.25 95.805-.75 78.06 1.49 63.261c2.556-11.325 9.893-24.683 22.55-27.032 4.382-1.016 8.77-2.04 13.567-1.94 1.94-2.748 1.124-6.629 2.656-9.585C49.54 3.384 72.692-.796 94.118.12c17.139 1.332 36.117 8.477 42.23 26.024" fill="#009b7c"/><path d="M157.028 39.771c-1.94 9.077 3.773 16.322 7.345 23.767-.308.917-1.332 1.432-2.14 1.733-6.429 1.224 1.224 6.529-3.673 8.877-1.224 1.224-4.188.308-4.188 2.448 1.324.2 3.265-.616 4.188.916.3.716.5 1.94-.308 2.556-6.836 1.325-.816 8.87-6.12 11.726-7.345 2.549-15.399-1.124-22.336 2.24-17.754 13.567-28.456 32.745-39.581 50.292-1.632 3.672-3.773 7.445-3.465 11.625 18.463 1.017 31.821-14.081 41.814-28.248 10.202.2 19.895-.724 28.264-4.896 11.326-5.413 16.83-17.139 18.363-28.564.908-20.095 2.232-45.287-18.163-54.472m132.033 11.364c-7.106-3.303-16.307-4.889-23.675-4.889-21.442 0-33.276 14.52-33.276 33.368 0 18.655 11.572 32.699 31.174 32.699 4.997 0 8.94-.524 12.103-1.31V87.107h-19.47v-14.46h37.086v49.398c-9.732 2.626-19.856 4.735-29.719 4.735-29.718 0-50.383-14.86-50.383-45.848 0-31.513 19.21-49.144 50.383-49.144 10.656 0 19.079 1.447 26.955 3.834l-1.178 15.514m18.132-22.79h17.623v16.83h-17.623v-16.83zm0 29.18h17.623v67.66h-17.623v-67.66zm31.297-.001h15.644v15.376h.262c.793-6.306 8.015-16.962 18.532-16.962 1.717 0 3.557 0 5.397.532v17.77c-1.578-.925-4.735-1.448-7.891-1.471-14.32 0-14.32 17.885-14.32 27.593v24.823H338.49v-67.66m46.541-30.913h17.623v98.572h-17.623zM490.31 50.196c-5.79-2.502-12.242-3.95-18.71-3.95-6.336 0-14.528 2.764-14.528 12.765 0 15.93 40.336 9.216 40.336 40.013 0 20.133-15.914 27.748-34.515 27.748-10.032 0-14.505-1.317-23.583-3.55l1.717-16.576c6.313 3.426 13.558 5.659 20.803 5.659 6.991 0 16.361-3.55 16.361-11.841 0-17.508-40.32-10.263-40.32-40.667 0-20.526 15.914-28.018 32.143-28.018 7.915 0 15.283 1.055 21.997 3.303l-1.702 15.114m62.194 21.896c-3.156-1.447-6.575-2.494-11.964-2.494-10.91 0-17.878 8.677-17.878 21.426 0 12.496 5.913 22.09 18.278 22.09 4.99 0 10.517-1.84 13.543-3.157l.793 14.582c-5.128 1.578-10.394 2.24-17.616 2.24-22.235 0-33.406-15.113-33.406-35.755 0-19.586 11.572-35.092 32.744-35.092 7.107 0 12.226.793 17.092 2.248l-1.586 13.912m6.829 19.725c0 19.456 13.02 34.962 35.347 34.962 22.451 0 35.47-15.506 35.47-34.962 0-22.35-15.39-35.885-35.47-35.885-19.956 0-35.347 13.535-35.347 35.885m18.417-2.11c0-10.116 5.512-20.11 16.923-20.11 11.54 0 17.069 9.725 17.069 20.11 0 11.31-3.55 23.406-17.07 23.406-13.38 0-16.922-12.226-16.922-23.405zm122.44 35.479h-16.7V116h-.262c-5.381 6.576-13.011 10.78-22.22 10.78-16.045 0-23.012-11.303-23.012-26.547V57.525h17.615v36.14c0 8.277.147 19.448 11.441 19.448 12.758 0 15.522-13.797 15.522-22.474V57.525h17.616v67.66m17.4-54.795h-13.012V57.526h13.012V43.983l17.615-5.652v19.194h15.645v12.866h-15.645v31.55c0 5.783 1.579 11.172 8.285 11.172 3.156 0 6.182-.662 8.022-1.84l.524 13.913c-3.68 1.047-7.761 1.578-13.02 1.593-13.804 0-21.426-8.546-21.426-21.95V70.391m84.867 1.309c-5.397-1.848-9.346-2.903-15.767-2.903-4.681 0-10.279 1.717-10.279 7.499 0 10.786 30.52 3.95 30.52 28.402 0 15.776-14.082 22.081-28.302 22.081-6.683 0-13.528-1.185-19.972-2.895l1.047-14.443c5.528 2.756 11.318 4.465 17.354 4.465 4.427 0 11.456-1.709 11.456-8.284 0-13.281-30.52-4.204-30.52-28.664 0-14.59 12.75-21.026 26.478-21.026 8.238 0 13.635 1.316 19.156 2.51l-1.17 13.257m20.695 31.598c-5.975 0-10.848 4.873-10.848 10.848 0 6.09 4.658 10.856 10.848 10.856 5.874 0 10.848-4.982 10.848-10.856.008-6.129-4.712-10.848-10.848-10.848m0 2.094c4.773 0 8.607 4.096 8.607 8.862 0 4.773-3.834 8.654-8.607 8.654-4.766 0-8.592-4.089-8.592-8.862 0-4.774 3.826-8.654 8.592-8.654zm4.62 14.79l-2.672-3.88c-.485-.74-.947-1.417-1.209-1.733 1.994-.207 3.303-1.47 3.303-3.564 0-1.833-1.147-3.041-4.034-3.041h-3.457v12.218h1.94v-5.505h.108l3.557 5.505h2.463zm-2.572-8.916c0 .994-.624 2.149-2.672 2.149h-.893v-3.88h1.417c1.57 0 2.148.53 2.148 1.731z" fill="#009b7c"/></svg>