<?xml version="1.0" encoding="utf-8"?>
<!-- Generator: Adobe Illustrator 21.0.2, SVG Export Plug-In . SVG Version: 6.00 Build 0)  -->
<svg version="1.1" xmlns="http://www.w3.org/2000/svg" xmlns:xlink="http://www.w3.org/1999/xlink" x="0px" y="0px"
	 viewBox="0 0 425.2 425.2" style="enable-background:new 0 0 425.2 425.2;" xml:space="preserve">
<style type="text/css">
	.st0{fill:#FFFFFF;}
	.st1{fill:#ECECEC;}
	.st2{fill:#F0B79B;}
	.st3{fill:#0AB0C4;}
	.st4{fill:#F4CA75;}
	.st5{fill:#1E1E1C;}
	.st6{fill:#E5AF99;}
	.st7{fill:#F0F0F0;}
	.st8{fill:#593736;}
</style>
<g id="Ebene_1">
	<g>
		<path id="XMLID_295_" class="st0" d="M319.4,396c0,10.1-1.8,19.8-5.3,28.9c-57.4,0-160.3,0-209.9,0c-3.4-9.1-5.3-18.8-5.3-28.9
			c0-52,49.3-94.2,110.2-94.2S319.4,344,319.4,396z"/>
		<path id="XMLID_294_" class="st1" d="M215.5,302.1v122.5c0,0,71.3,0.2,98.6,0.2c2.9,0,5.3-18.8,5.3-28.9
			C319.4,345.8,273.4,304.9,215.5,302.1z"/>
		<path id="XMLID_293_" class="st0" d="M306.7,404.2c-20.8,0-37.7-14.4-37.7-32.2c0-0.4,0-0.8,0-1.2V317
			c-17.2-9.5-37.8-15.2-59.8-15.2c-21.7,0-41.8,5.4-58.9,14.7v54.2c0,0.4,0,0.8,0,1.2c0,17.8-16.9,32.2-37.7,32.2
			c-4.7,0-9.1-0.8-13.2-2.1c0.6,7.8,2.3,15.4,5,22.6c43.3,0,163.1,0,209.7,0c2.7-7.1,4.4-14.6,5-22.4
			C315.1,403.6,311,404.2,306.7,404.2z"/>
		<polygon id="XMLID_292_" class="st2" points="130.3,424.6 99.1,424.6 99.1,396.4 130.3,396.4 		"/>
		<path id="XMLID_291_" class="st1" d="M306.7,404.2c-20.8,0-37.7-14.4-37.7-32.2c0-0.4,0-0.8,0-1.2V317
			c-10.6-5.9-22.1-10.4-34.8-12.8l-6.6-1c-2.9,6.4-5.3,6.6-9.8,10.4C246,327,262,357.5,262,381.1l-0.1,43.6l34.4,0.2
			c0,0,21.2-3.2,22.8-22.4C315.2,403.6,311,404.2,306.7,404.2z"/>
		
			<rect id="XMLID_290_" x="288" y="396.4" transform="matrix(-1 -4.490308e-12 4.490308e-12 -1 607.2225 821.1738)" class="st2" width="31.2" height="28.4"/>
		<g>
			<g>
				<path class="st3" d="M190.1,390.6c-0.6,0-1.2-0.3-1.6-0.9c-0.5-0.9-0.3-2,0.6-2.6l5.6-3.5c0.9-0.5,2-0.3,2.6,0.6
					c0.5,0.9,0.3,2-0.6,2.6l-5.6,3.5C190.8,390.5,190.4,390.6,190.1,390.6z"/>
				<path class="st3" d="M193,378.8c-3.6,0-7.6-0.1-7.6-0.1c-1,0-1.9-0.9-1.8-1.9c0-1,0.9-1.9,1.9-1.8c0.1,0,5.5,0.1,9.5,0.1
					c0,0,0,0,0,0c1,0,1.9,0.8,1.9,1.9c0,1-0.8,1.9-1.9,1.9C194.3,378.8,193.7,378.8,193,378.8z"/>
				<path class="st3" d="M195.8,371c-0.4,0-0.7-0.1-1-0.3c0,0-2.8-1.8-5.4-3c-0.9-0.4-1.4-1.5-1-2.5c0.4-0.9,1.5-1.4,2.5-1
					c3,1.3,5.9,3.2,6,3.3c0.9,0.6,1.1,1.7,0.5,2.6C197.1,370.7,196.5,371,195.8,371z"/>
			</g>
			<g>
				<path class="st3" d="M226.5,372.1c-0.6,0-1.2-0.3-1.6-0.9c-0.5-0.9-0.3-2,0.6-2.6l5.6-3.5c0.9-0.5,2-0.3,2.6,0.6
					c0.5,0.9,0.3,2-0.6,2.6l-5.6,3.5C227.2,372.1,226.9,372.1,226.5,372.1z"/>
				<path class="st3" d="M236.8,380.6C236.8,380.6,236.8,380.6,236.8,380.6c-0.1,0-5.6-0.1-9.5-0.1c-1,0-1.9-0.8-1.9-1.9
					c0-1,0.8-1.9,1.9-1.9c4,0,9.5,0.1,9.6,0.1c1,0,1.9,0.9,1.8,1.9C238.6,379.7,237.8,380.6,236.8,380.6z"/>
				<path class="st3" d="M232.1,391.4c-0.3,0-0.5-0.1-0.8-0.2c-3-1.3-5.9-3.2-6-3.3c-0.9-0.6-1.1-1.7-0.5-2.6
					c0.6-0.9,1.7-1.1,2.6-0.5c0,0,2.8,1.8,5.4,3c0.9,0.4,1.4,1.5,1,2.5C233.5,391,232.8,391.4,232.1,391.4z"/>
			</g>
			<path class="st3" d="M212.9,392.9c-7.2,0-10.9-6.4-11.4-12.7c-0.3-3.9,1.8-10.6,6.4-13c2.3-1.2,6-1.8,10.7,2.1
				c0.8,0.7,0.9,1.8,0.3,2.6c-0.7,0.8-1.8,0.9-2.6,0.3c-2.6-2.1-4.8-2.7-6.6-1.7c-3,1.5-4.6,6.6-4.4,9.4c0.3,4.3,2.5,9.3,7.6,9.3
				c3,0,3.9-3.7,4.2-5.8c-1.4-0.3-3.4-0.7-4.6-0.7c-1,0-1.9-0.8-1.9-1.9s0.8-1.9,1.9-1.9c2.6,0,6.6,1.1,7.1,1.3
				c0.8,0.2,1.4,1,1.4,1.8C221,385.7,219.3,392.9,212.9,392.9z"/>
		</g>
		<path id="XMLID_289_" class="st4" d="M142.1,281.3"/>
		<path id="XMLID_84_" class="st4" d="M311.2,224c3.2-30.4,0-54.2,0-54.2c-5.7-49.5-29.1-56.1-29.1-56.1c5.6,1.5,9.9,4.4,12.8,6.9
			c0.4,0.4,1-0.2,0.7-0.6c-9.6-12.6-18.5-14.9-18.5-14.9c-1.4-12.3-10.8-19.5-19-23.6c-1.4-0.7-2.6,1.3-1.3,2.2
			c7.2,5.1,10.8,9.5,10.8,9.5c-52.6-37-108.4-5.3-108.4-5.3c-55.8,31-48.2,108.3-48.2,108.3c3.2,64.1,6.4,26.5,6.4,26.5
			s-7.4,24.8,3.3,14.2"/>
		<path id="XMLID_83_" class="st4" d="M303.6,250"/>
		<path id="XMLID_82_" class="st4" d="M289.3,277.3c0.1-0.5,0.1-0.7,0.1-0.7l0,0"/>
		<ellipse id="XMLID_81_" class="st2" cx="209.1" cy="203.8" rx="83.5" ry="92"/>
		<ellipse id="XMLID_80_" class="st5" cx="176.3" cy="207.3" rx="8.4" ry="8.5"/>
		<ellipse id="XMLID_79_" class="st5" cx="245" cy="207.3" rx="8.4" ry="8.5"/>
		<path id="XMLID_78_" class="st6" d="M225.6,113.7c24.3,16.1,40.6,45.3,40.6,78.8c0,50.8-37.4,92-83.5,92c-5.7,0-11.2-0.6-16.5-1.8
			c12.6,8.3,27.2,13.2,42.9,13.2c46.1,0,83.5-41.2,83.5-92C292.6,159.3,263.8,122.2,225.6,113.7z"/>
		<ellipse id="XMLID_77_" class="st2" cx="125" cy="222.8" rx="20.8" ry="23"/>
		<ellipse id="XMLID_76_" class="st6" cx="295.1" cy="222.8" rx="20.8" ry="23"/>
		<path id="XMLID_75_" class="st4" d="M125,200.9c0,0,1,6.7,4.1,11.3c0,0,0.7-47.4,20.9-77.5c0,0-12.8,9.5-9.4,18.1
			c0,0,14.6-0.8,23-6.1c12.7-8,27.2-10.1,41.7-11.2c10.1-0.8,24.8-3.3,43.4-13c0,0,36.4,29.4,42,88c0,0,2.3-3.7,1.9-9.5l8.8-14.1
			l-12.9-46l-29.8-31.1l-29.3-9.2H188l-30.4,9.2l-15,15.5L129,149.9l-11.7,27.3v12L125,200.9z"/>
		<path id="XMLID_62_" class="st0" d="M191.7,253.2c0,8.3,10.4,15,18.3,15c7.9,0,18.3-6.7,18.3-15H191.7z"/>
		<path id="XMLID_56_" class="st6" d="M230.2,282.1v25.1c0,11.1-9.5,20-21.2,20c-11.7,0-21.2-9-21.2-20v-23.3L230.2,282.1z"/>
		<path id="XMLID_55_" class="st4" d="M173.1,286.9v-36.5c0-2.2,3.4-4.1,5.4-4.7L206,241c0.4-0.1,0.7,0.4,0.4,0.8l-2.3,2.7l0,0
			c-0.9,1.1-2.2,1.8-3.5,2l-20.5,3.1v20.8c0,6,2.8,7.4,8.2,9.4c0.8,0.3,1.4,0.4,1.9,0.5c1.8,0.4,3.9,0.8,7,0.9
			c4.4,0.1,6.6,0.2,7.3-0.7c1.3-1.6,1.1-3.4,1-6.6c0-1.4,1.1-2.6,2.5-2.6h3.3c1.7,0,3,0.5,2.9,3.1c-0.1,1.7,0.1,3.7,0.4,5.9
			c0.2,1.6,2.6,1.3,6.4,1.1c3.6-0.3,7.3-1,14.4-4c4.4-2.6,7.3-4,7.3-9.3v-19.4l-23.3-2.2c-1.5-0.1-2.9-0.9-3.8-2l0,0l-2.2-2.6
			c-0.3-0.3,0-0.8,0.4-0.8l29.5,3.8c2,0.6,5.4,2.5,5.4,4.7v35.4c0,0-16.7,11-36.8,11.2c-1.2,0-2.3-0.1-3.5,0
			C203.7,296.3,185.2,294.2,173.1,286.9z"/>
		<path id="XMLID_54_" class="st4" d="M290.7,207.7c0,0-15.9,43.2-42,51.8v25.4C248.7,284.8,291.6,263.3,290.7,207.7z"/>
		<path id="XMLID_53_" class="st4" d="M285.4,220.9"/>
		<path id="XMLID_52_" class="st4" d="M128.8,208.4c0,0,18.2,43.4,44.3,51.9v26.6C173.1,286.9,122.9,262.3,128.8,208.4z"/>
		<g>
			<path class="st7" d="M163.6,226.8c10-9.7,18-21.4,23-34.2c-7.6-1-16.4-0.9-22.8-0.4c-12.4,0.9-9.9,15.6-9.9,15.6
				C155.3,217.9,158,223.8,163.6,226.8z"/>
			<path class="st0" d="M186.6,192.6c-5,12.8-13,24.5-23,34.2c3.5,1.9,8.3,2.7,14.5,2.7c6.9-10.9,12.8-22.4,16.4-35.1
				C192.2,193.6,189.5,193,186.6,192.6z"/>
			<path class="st7" d="M202.4,201.1c-0.7-3.1-3.7-5.3-7.8-6.7c-3.7,12.6-9.5,24.2-16.4,35.1c0.7,0,1.3,0,2,0
				C197,228.9,204.6,211,202.4,201.1z"/>
			<path class="st7" d="M229.1,224.9c12.1-9.2,23.2-19.6,30.3-32.5c-0.4-0.1-0.8-0.1-1.3-0.1c-13.1-0.9-36.4-0.7-38.6,8.9
				C218,208,221.3,218.8,229.1,224.9z"/>
			<path class="st0" d="M259.4,192.3c-7.2,12.9-18.2,23.3-30.3,32.5c2.4,1.9,5.3,3.3,8.7,4c9.5-10.8,17.8-22.7,26.6-34.5
				C263.1,193.4,261.5,192.7,259.4,192.3z"/>
			<path class="st7" d="M264.4,194.5c-8.8,11.7-17.1,23.7-26.6,34.5c1.3,0.3,2.7,0.5,4.1,0.5c17.6,0.6,23.9-4.4,26.2-21.7
				C268,207.8,269.6,198.8,264.4,194.5z"/>
			<path class="st8" d="M251.4,188.7c-15.4-0.9-26.4,3.3-31.6,4.2c-0.8,0.1-1.6,0.2-2.3,0.3c-3.9,0.7-8.3,0.6-12.2,0.1
				c-0.2,0-0.4-0.1-0.5-0.1c-0.8-0.1-1.7-0.1-2.6-0.3c-5.2-0.9-16.2-5.1-31.6-4.2c-15.4,0.9-22.1,1.5-24.2,1.4c0,0-1.7,5.2-0.9,9
				c0,0,4.1,1.5,4.6,5.6c0.5,4.1,2.7,19,10.1,23.6c7.4,4.6,27.4,6.1,35.2-1.4c7.8-7.4,8.3-12.6,9.4-14.8c1.1-2.2,2.5-5.3,6.2-5.3
				c3.8-0.1,5.1,3.1,6.2,5.3c1.1,2.2,1.6,7.3,9.4,14.8c7.8,7.4,27.8,5.9,35.2,1.4c7.4-4.6,9.6-19.5,10.1-23.6
				c0.5-4.1,4.6-5.6,4.6-5.6c0.9-3.8-0.9-9-0.9-9C273.5,190.2,266.9,189.6,251.4,188.7z M180.1,229.4c-17.6,0.6-23.9-4.4-26.2-21.7
				c0,0-2.6-14.7,9.9-15.6c13.1-0.9,36.4-0.7,38.6,8.9C204.6,211,197,228.9,180.1,229.4z M268,207.8c-2.3,17.3-8.6,22.2-26.2,21.7
				c-16.9-0.5-24.6-18.4-22.3-28.3c2.2-9.6,25.5-9.8,38.6-8.9C270.6,193,268,207.8,268,207.8z"/>
		</g>
	</g>
</g>
<g id="Ebene_2">
</g>
</svg>
