<?xml version="1.0" encoding="utf-8"?>
<!-- Generator: Adobe Illustrator 21.0.2, SVG Export Plug-In . SVG Version: 6.00 Build 0)  -->
<svg version="1.1" xmlns="http://www.w3.org/2000/svg" xmlns:xlink="http://www.w3.org/1999/xlink" x="0px" y="0px"
	 viewBox="0 0 425.2 425.2" style="enable-background:new 0 0 425.2 425.2;" xml:space="preserve">
<style type="text/css">
	.st0{fill:#DA9381;}
	.st1{fill:#FFFFFF;}
	.st2{fill:#ECECEC;}
	.st3{fill:#CD8C79;}
	.st4{fill:none;stroke:#FFFFFF;stroke-width:0.5248;stroke-linecap:round;stroke-linejoin:round;stroke-miterlimit:10;}
	.st5{fill:#F4CA75;}
	.st6{fill:#0AB0C4;}
	.st7{fill:#333233;}
</style>
<g id="Ebene_1">
	<path id="XMLID_250_" class="st0" d="M292,207.4c0,52.8-37.4,93.5-83.6,93.5s-83.6-40.8-83.6-93.5s21.4-106.5,83.6-106.5
		C254.6,100.9,292,154.7,292,207.4z"/>
	<path id="XMLID_249_" class="st1" d="M318.5,396.5c0,10.1-1.8,19.8-5.3,28.9c-57.4,0-160.3,0-209.9,0c-3.4-9.1-5.3-18.8-5.3-28.9
		c0-52,49.3-94.2,110.2-94.2S318.5,344.5,318.5,396.5z"/>
	<path id="XMLID_248_" class="st2" d="M214.6,302.6v122.5c0,0,71.3,0.2,98.6,0.2c2.9,0,5.3-18.8,5.3-28.9
		C318.5,346.3,272.5,305.4,214.6,302.6z"/>
	<path id="XMLID_247_" class="st1" d="M305.8,404.7c-20.8,0-37.7-14.4-37.7-32.2c0-0.4,0-0.8,0-1.2v-53.8
		c-17.2-9.5-37.8-15.2-59.8-15.2c-21.7,0-41.8,5.4-58.9,14.7v54.2c0,0.4,0,0.8,0,1.2c0,17.8-16.9,32.2-37.7,32.2
		c-4.7,0-9.1-0.8-13.2-2.1c0.6,7.8,2.3,15.4,5,22.6c43.3,0,163.1,0,209.7,0c2.7-7.1,4.4-14.6,5-22.4
		C314.2,404.1,310.1,404.7,305.8,404.7z"/>
	<path id="XMLID_244_" class="st3" d="M225,102.8c24.3,16.7,40.6,47.1,40.6,81.8c0,52.8-37.4,104.5-83.6,104.5
		c-5.7,0-15.8-3.3-21.2-4.6c14.3,11.8,31.8,16.4,47.6,16.4c46.2,0,83.6-41.8,83.6-94.5C292,160.1,263.2,111.6,225,102.8z"/>
	<ellipse id="XMLID_243_" class="st0" cx="124.2" cy="213.7" rx="20.9" ry="22"/>
	<ellipse id="XMLID_242_" class="st3" cx="294.5" cy="213.7" rx="20.9" ry="22"/>
	<polygon id="XMLID_144_" class="st0" points="129.4,425.1 98.2,425.1 98.2,396.9 129.4,396.9 	"/>
	<path id="XMLID_143_" class="st2" d="M305.8,404.7c-20.8,0-37.7-14.4-37.7-32.2c0-0.4,0-0.8,0-1.2v-53.7
		c-10.6-5.9-22.1-10.4-34.8-12.8l-6.6-1c-2.9,6.4-5.3,6.6-9.8,10.4c28.2,13.4,44.2,43.9,44.2,67.5l-0.1,43.6l34.4,0.2
		c0,0,21.2-3.2,22.8-22.4C314.3,404.1,310.1,404.7,305.8,404.7z"/>
	<path id="XMLID_142_" class="st1" d="M191,254.9c0,7.9,10.4,14.4,18.3,14.4c7.9,0,18.3-6.4,18.3-14.4H191z"/>
	
		<rect id="XMLID_136_" x="287.1" y="396.9" transform="matrix(-1 -4.782075e-12 4.782075e-12 -1 605.4521 822.1412)" class="st3" width="31.2" height="28.4"/>
	<line id="XMLID_135_" class="st4" x1="205.3" y1="414" x2="229" y2="414"/>
	<path id="XMLID_133_" class="st3" d="M229.2,287.2v17.1c0,12.2-9.4,22.1-20.9,22.1s-20.9-9.9-20.9-22.1V295L229.2,287.2z"/>
	<path id="XMLID_132_" class="st5" d="M284.8,211.9"/>
	<g>
		<g>
			<path class="st6" d="M189.2,391.1c-0.6,0-1.2-0.3-1.6-0.9c-0.5-0.9-0.3-2,0.6-2.6l5.6-3.5c0.9-0.5,2-0.3,2.6,0.6
				c0.5,0.9,0.3,2-0.6,2.6l-5.6,3.5C189.9,391,189.5,391.1,189.2,391.1z"/>
			<path class="st6" d="M192.1,379.3c-3.6,0-7.6-0.1-7.6-0.1c-1,0-1.9-0.9-1.8-1.9c0-1,0.9-1.9,1.9-1.8c0.1,0,5.5,0.1,9.5,0.1
				c0,0,0,0,0,0c1,0,1.9,0.8,1.9,1.9c0,1-0.8,1.9-1.9,1.9C193.5,379.3,192.8,379.3,192.1,379.3z"/>
			<path class="st6" d="M195,371.5c-0.4,0-0.7-0.1-1-0.3c0,0-2.8-1.8-5.4-3c-0.9-0.4-1.4-1.5-1-2.5c0.4-0.9,1.5-1.4,2.5-1
				c3,1.3,5.9,3.2,6,3.3c0.9,0.6,1.1,1.7,0.5,2.6C196.2,371.2,195.6,371.5,195,371.5z"/>
		</g>
		<g>
			<path class="st6" d="M225.6,372.6c-0.6,0-1.2-0.3-1.6-0.9c-0.5-0.9-0.3-2,0.6-2.6l5.6-3.5c0.9-0.5,2-0.3,2.6,0.6
				c0.5,0.9,0.3,2-0.6,2.6l-5.6,3.5C226.3,372.5,226,372.6,225.6,372.6z"/>
			<path class="st6" d="M235.9,381C235.9,381,235.9,381,235.9,381c-0.1,0-5.6-0.1-9.5-0.1c-1,0-1.9-0.8-1.9-1.9c0-1,0.8-1.9,1.9-1.9
				c4,0,9.5,0.1,9.6,0.1c1,0,1.9,0.9,1.8,1.9C237.8,380.2,236.9,381,235.9,381z"/>
			<path class="st6" d="M231.2,391.9c-0.3,0-0.5-0.1-0.8-0.2c-3-1.3-5.9-3.2-6-3.3c-0.9-0.6-1.1-1.7-0.5-2.6
				c0.6-0.9,1.7-1.1,2.6-0.5c0,0,2.8,1.8,5.4,3c0.9,0.4,1.4,1.5,1,2.5C232.6,391.5,231.9,391.9,231.2,391.9z"/>
		</g>
		<path class="st6" d="M212,393.3c-7.2,0-10.9-6.4-11.4-12.7c-0.3-3.9,1.8-10.6,6.4-13c2.3-1.2,6-1.8,10.7,2.1
			c0.8,0.7,0.9,1.8,0.3,2.6c-0.7,0.8-1.8,0.9-2.6,0.3c-2.6-2.1-4.8-2.7-6.6-1.7c-3,1.5-4.6,6.6-4.4,9.4c0.3,4.3,2.5,9.3,7.6,9.3
			c3,0,3.9-3.7,4.2-5.8c-1.4-0.3-3.4-0.7-4.6-0.7c-1,0-1.9-0.8-1.9-1.9c0-1,0.8-1.9,1.9-1.9c2.6,0,6.6,1.1,7.1,1.3
			c0.8,0.2,1.4,1,1.4,1.8C220.1,386.1,218.4,393.3,212,393.3z"/>
	</g>
	<path class="st7" d="M275.7,149.9c0,0,4.6,16.5,7.3,32.5c1.2,7,2,13.3,2.5,18.1c0.3,2.9,3.9,4.1,5.9,2c0.6-0.6,1.1-0.9,1.4-0.8
		c0,0,0.8-44.2-6.2-60C284.3,136.2,275.7,141.6,275.7,149.9"/>
	<path class="st7" d="M271.6,100.1c-15.9-10.3-69.3-27.5-111.4,2c-20.5,14.4-28,27.8-28.9,36.9c-0.5,0.4-3.4,3.2-5.2,12.9
		c-0.5,2.7-2.8,22-2.2,44.5c0.3,10.9,6.2,13.2,7.9,7c0,0,6.1-35.1,6.5-41.7c0.2-3.1,1-18,5.1-22.3c7.8-8.3,23.8,16.4,61.9,17
		c40.3,0.6,40.2-6.4,63.1-17C279.6,134.3,297.6,116.9,271.6,100.1z"/>
	<path class="st7" d="M238.1,153.8c5.8-2.7,10.2-3.4,13.9-5.8c15.7-10.3,21-6.1,24.5,4.3c4.2,12.6,12.4,7.3,12.7-2.4
		c0.3-9.7-9.4-29.6-9.4-29.6l-29.5,11.2L238.1,153.8"/>
	<g>
		<ellipse id="XMLID_175_" cx="179.5" cy="211.6" rx="7.5" ry="7.9"/>
		<ellipse id="XMLID_174_" cx="238.4" cy="211.6" rx="7.5" ry="7.9"/>
	</g>
</g>
<g id="Ebene_2">
</g>
</svg>
