<?xml version="1.0" encoding="utf-8"?>
<!-- Generator: Adobe Illustrator 21.0.2, SVG Export Plug-In . SVG Version: 6.00 Build 0)  -->
<svg version="1.1" xmlns="http://www.w3.org/2000/svg" xmlns:xlink="http://www.w3.org/1999/xlink" x="0px" y="0px"
	 viewBox="0 0 425.2 425.2" style="enable-background:new 0 0 425.2 425.2;" xml:space="preserve">
<style type="text/css">
	.st0{fill:#DCAE75;}
	.st1{fill:#F0B79B;}
	.st2{fill:#FFFFFF;}
	.st3{fill:#ECECEC;}
	.st4{fill:#E5AF99;}
	.st5{fill:#F4CA75;}
	.st6{fill:#0AB0C4;}
	.st7{fill:#F2F2F2;}
	.st8{fill:#BC5427;}
	.st9{fill:#575756;}
</style>
<g id="Ebene_1">
	<ellipse id="XMLID_265_" class="st0" cx="208.4" cy="197.7" rx="88" ry="93"/>
	<ellipse id="XMLID_264_" class="st1" cx="208.4" cy="204.5" rx="83.6" ry="88.2"/>
	<path id="XMLID_234_" class="st2" d="M300.4,396.5c0,10.1-1.5,19.8-4.3,28.9c-46.4,0-129.7,0-169.8,0c-2.8-9.1-4.3-18.8-4.3-28.9
		c0-52,39.9-94.2,89.2-94.2S300.4,344.5,300.4,396.5z"/>
	<path id="XMLID_233_" class="st3" d="M216.4,302.6v122.5c0,0,57.7,0.2,79.8,0.2c2.4,0,4.3-18.8,4.3-28.9
		C300.4,346.3,263.2,305.4,216.4,302.6z"/>
	<path id="XMLID_232_" class="st2" d="M290.2,404.7c-16.9,0-30.5-14.4-30.5-32.2c0-0.4,0-0.8,0-1.2v-53.8
		c-14-9.5-30.6-15.2-48.4-15.2c-17.5,0-33.9,5.4-47.7,14.7v54.2c0,0.4,0,0.8,0,1.2c0,17.8-13.7,32.2-30.5,32.2
		c-3.8,0-7.4-0.8-10.7-2.1c0.5,7.8,1.9,15.4,4.1,22.6c35,0,132,0,169.6,0c2.2-7.1,3.5-14.6,4-22.4
		C297,404.1,293.6,404.7,290.2,404.7z"/>
	<g>
		<ellipse id="XMLID_231_" cx="176.7" cy="210.8" rx="7.5" ry="7.9"/>
		<ellipse id="XMLID_230_" cx="241.7" cy="210.8" rx="7.5" ry="7.9"/>
	</g>
	<path id="XMLID_229_" class="st4" d="M225,118c24.3,15.4,40.6,43.5,40.6,75.6c0,48.7-37.4,88.2-83.6,88.2c-5.7,0-11.2-0.6-16.5-1.7
		c12.6,8,27.2,12.6,42.9,12.6c46.2,0,83.6-39.5,83.6-88.2C292,161.8,263.2,126.1,225,118z"/>
	<ellipse id="XMLID_228_" class="st1" cx="124.2" cy="222.7" rx="20.9" ry="22"/>
	<ellipse id="XMLID_227_" class="st4" cx="294.5" cy="222.7" rx="20.9" ry="22"/>
	<path id="XMLID_226_" class="st3" d="M290.2,404.7c-16.9,0-30.5-14.4-30.5-32.2c0-0.4,0-0.8,0-1.2v-53.7
		c-8.6-5.9-17.9-10.4-28.1-12.8l-5.3-1c-2.3,6.4-4.3,6.6-8,10.4c22.8,13.4,35.8,43.9,35.8,67.5l-0.1,43.6l27.8,0.2
		c0,0,17.2-3.2,18.4-22.4C297,404.1,293.7,404.7,290.2,404.7z"/>
	<path id="XMLID_225_" class="st2" d="M191,254.9c0,7.9,10.4,14.4,18.3,14.4c7.9,0,18.3-6.4,18.3-14.4H191z"/>
	<path id="XMLID_224_" class="st4" d="M227,281.4v23.4c0,10.3-7.9,18.7-17.7,18.7c-9.8,0-17.7-8.4-17.7-18.7v-21.7L227,281.4z"/>
	<path id="XMLID_223_" class="st5" d="M284.8,220.9"/>
	<polygon class="st1" points="209.3,239 201.4,235 209.3,229 217.3,235 	"/>
	<g>
		<g>
			<path class="st6" d="M189.2,391.1c-0.6,0-1.2-0.3-1.6-0.9c-0.5-0.9-0.3-2,0.6-2.6l5.6-3.5c0.9-0.5,2-0.3,2.6,0.6
				c0.5,0.9,0.3,2-0.6,2.6l-5.6,3.5C189.9,391,189.5,391.1,189.2,391.1z"/>
			<path class="st6" d="M192.1,379.3c-3.6,0-7.6-0.1-7.6-0.1c-1,0-1.9-0.9-1.8-1.9c0-1,0.9-1.9,1.9-1.8c0.1,0,5.5,0.1,9.5,0.1
				c0,0,0,0,0,0c1,0,1.9,0.8,1.9,1.9c0,1-0.8,1.9-1.9,1.9C193.5,379.3,192.8,379.3,192.1,379.3z"/>
			<path class="st6" d="M195,371.5c-0.4,0-0.7-0.1-1-0.3c0,0-2.8-1.8-5.4-3c-0.9-0.4-1.4-1.5-1-2.5c0.4-0.9,1.5-1.4,2.5-1
				c3,1.3,5.9,3.2,6,3.3c0.9,0.6,1.1,1.7,0.5,2.6C196.2,371.2,195.6,371.5,195,371.5z"/>
		</g>
		<g>
			<path class="st6" d="M225.6,372.6c-0.6,0-1.2-0.3-1.6-0.9c-0.5-0.9-0.3-2,0.6-2.6l5.6-3.5c0.9-0.5,2-0.3,2.6,0.6
				c0.5,0.9,0.3,2-0.6,2.6l-5.6,3.5C226.3,372.5,226,372.6,225.6,372.6z"/>
			<path class="st6" d="M235.9,381C235.9,381,235.9,381,235.9,381c-0.1,0-5.6-0.1-9.5-0.1c-1,0-1.9-0.8-1.9-1.9c0-1,0.8-1.9,1.9-1.9
				c4,0,9.5,0.1,9.6,0.1c1,0,1.9,0.9,1.8,1.9C237.8,380.2,236.9,381,235.9,381z"/>
			<path class="st6" d="M231.2,391.9c-0.3,0-0.5-0.1-0.8-0.2c-3-1.3-5.9-3.2-6-3.3c-0.9-0.6-1.1-1.7-0.5-2.6
				c0.6-0.9,1.7-1.1,2.6-0.5c0,0,2.8,1.8,5.4,3c0.9,0.4,1.4,1.5,1,2.5C232.6,391.5,231.9,391.9,231.2,391.9z"/>
		</g>
		<path class="st6" d="M212,393.3c-7.2,0-10.9-6.4-11.4-12.7c-0.3-3.9,1.8-10.6,6.4-13c2.3-1.2,6-1.8,10.7,2.1
			c0.8,0.7,0.9,1.8,0.3,2.6c-0.7,0.8-1.8,0.9-2.6,0.3c-2.6-2.1-4.8-2.7-6.6-1.7c-3,1.5-4.6,6.6-4.4,9.4c0.3,4.3,2.5,9.3,7.6,9.3
			c3,0,3.9-3.7,4.2-5.8c-1.4-0.3-3.4-0.7-4.6-0.7c-1,0-1.9-0.8-1.9-1.9c0-1,0.8-1.9,1.9-1.9c2.6,0,6.6,1.1,7.1,1.3
			c0.8,0.2,1.4,1,1.4,1.8C220.1,386.1,218.4,393.3,212,393.3z"/>
	</g>
	<g>
		<path class="st7" d="M127.1,161.6c0,0,71.3-31,163.1,4.9c0,0,27.6-93.9-71.2-109C127.4,43.5,118.4,97.9,127.1,161.6z"/>
	</g>
	<g>
		<g>
			<g>
				<path class="st8" d="M233.5,151.5L233.5,151.5c-21.2-45.2-73.3-70.4-129-56.2c-55.7,14.1,22.6,66.3,22.6,66.3
					S170.6,142.6,233.5,151.5z"/>
			</g>
		</g>
	</g>
	<polygon id="XMLID_222_" class="st1" points="147.4,426 122.2,426 122.2,397.8 147.4,397.8 	"/>
	
		<rect id="XMLID_221_" x="275" y="397.8" transform="matrix(-1 -5.982004e-12 5.982004e-12 -1 575.3173 823.9712)" class="st4" width="25.2" height="28.4"/>
	<g>
		<path d="M277.7,190c0,0-4.2-0.6-8.1-1.6c-3.9-1-21.4-3.8-32.2-2.6c-17.4,2-19.5,6-28.3,5.9c-8.8,0.1-10.9-3.9-28.3-5.9
			c-10.8-1.3-28.3,1.6-32.2,2.6c-3.9,1-8.1,1.6-8.1,1.6c-1.5,2.3,0,10,0,10c0.9,0.5,3.3,1.9,3.7,4.5c0.3,1.6,2.5,32.1,29.4,31.4
			c26.7-0.7,28.7-24.2,29.8-29.8c1.1-5.7,5.6-6,5.6-6s4.5,0.4,5.6,6c1.1,5.7,3.2,29.1,29.8,29.8c26.9,0.8,29.2-29.7,29.4-31.4
			c0.5-2.6,2.8-4,3.7-4.5C277.7,200,279.1,192.3,277.7,190z"/>
		<path class="st9" d="M198.6,212.2c1.1-7.3,0.3-15.1-2.9-18c-0.1-0.1-0.3-0.3-0.5-0.4c-16.2,4.1-30.9,9.8-45.4,17.7
			c0.5,4.6,2.1,9.7,5.9,14c2.8,3.2,6.1,5.2,9.5,6.4c0.2-0.2,0.4-0.3,0.6-0.5C176.6,223.7,187.4,217.8,198.6,212.2z"/>
		<path class="st9" d="M165.9,231.4c-0.2,0.2-0.4,0.3-0.6,0.5c10.4,3.5,22.3-1,27.7-6.4c2.9-2.9,4.8-8,5.6-13.3
			C187.4,217.8,176.6,223.7,165.9,231.4z"/>
		<path class="st9" d="M165.8,190.1c-12.6,1.1-15,8.4-15,8.4c-0.3,0.6-1.8,6.3-1,13.1c14.5-7.9,29.2-13.5,45.4-17.7
			C189.7,189.2,178.1,189,165.8,190.1z"/>
		<path class="st9" d="M222.5,194.3c-2.1,1.9-3.1,5.9-3.3,10.6c11-4.9,21.9-10,32.9-14.8C239.6,189,227.8,189.3,222.5,194.3z"/>
		<path class="st9" d="M267.4,198.5c0,0-2.3-7.3-15-8.4c-0.1,0-0.2,0-0.3,0c-11,4.8-21.9,9.9-32.9,14.8c-0.3,7.4,1.8,16.4,6.1,20.7
			c2.3,2.3,5.7,4.4,9.7,5.8c10.2-6,21.2-10.2,32.2-14.4C270,208.1,267.7,199.2,267.4,198.5z"/>
		<path class="st9" d="M235,231.3c8.6,3.1,19.8,2.9,27.5-5.8c2.3-2.7,3.8-5.6,4.8-8.6C256.2,221.1,245.2,225.4,235,231.3z"/>
	</g>
</g>
<g id="Ebene_2">
</g>
</svg>
