<?xml version="1.0" encoding="utf-8"?>
<!-- Generator: Adobe Illustrator 21.0.2, SVG Export Plug-In . SVG Version: 6.00 Build 0)  -->
<svg version="1.1" xmlns="http://www.w3.org/2000/svg" xmlns:xlink="http://www.w3.org/1999/xlink" x="0px" y="0px"
	 viewBox="0 0 425.2 425.2" style="enable-background:new 0 0 425.2 425.2;" xml:space="preserve">
<style type="text/css">
	.st0{fill:#F0B79B;}
	.st1{fill:#FFFFFF;}
	.st2{fill:#ECECEC;}
	.st3{fill:#E5AF99;}
	.st4{fill:none;stroke:#FFFFFF;stroke-width:0.5248;stroke-linecap:round;stroke-linejoin:round;stroke-miterlimit:10;}
	.st5{fill:#F4CA75;}
	.st6{fill:#0AB0C4;}
	.st7{fill:#DCAE75;}
	.st8{opacity:0.43;fill:#DDC07B;}
	.st9{fill:#593736;}
</style>
<g id="Ebene_1">
</g>
<g id="Ebene_2">
	<g>
		<ellipse id="XMLID_220_" class="st0" cx="208.4" cy="204.7" rx="83.6" ry="88.2"/>
		<path id="XMLID_219_" class="st1" d="M300.4,396.6c0,10.1-1.5,19.8-4.3,28.9c-46.4,0-129.7,0-169.8,0c-2.8-9.1-4.3-18.8-4.3-28.9
			c0-52,39.9-94.2,89.2-94.2S300.4,344.6,300.4,396.6z"/>
		<path id="XMLID_218_" class="st2" d="M216.3,302.7v122.5c0,0,57.7,0.2,79.8,0.2c2.4,0,4.3-18.8,4.3-28.9
			C300.4,346.4,263.2,305.5,216.3,302.7z"/>
		<path id="XMLID_217_" class="st1" d="M290.1,404.8c-16.9,0-30.5-14.4-30.5-32.2c0-0.4,0-0.8,0-1.2v-53.8
			c-14-9.5-30.6-15.2-48.4-15.2c-17.5,0-33.9,5.4-47.7,14.7v54.2c0,0.4,0,0.8,0,1.2c0,17.8-13.7,32.2-30.5,32.2
			c-3.8,0-7.4-0.8-10.7-2.1c0.5,7.8,1.9,15.4,4.1,22.6c35,0,132,0,169.6,0c2.2-7.1,3.5-14.6,4-22.4
			C296.9,404.2,293.6,404.8,290.1,404.8z"/>
		<g>
			<ellipse id="XMLID_216_" cx="176.7" cy="210.9" rx="7.5" ry="7.9"/>
			<ellipse id="XMLID_215_" cx="241.7" cy="210.9" rx="7.5" ry="7.9"/>
		</g>
		<path id="XMLID_214_" class="st3" d="M224.9,118.2c24.3,15.4,40.6,43.5,40.6,75.6c0,48.7-37.4,88.2-83.6,88.2
			c-5.7,0-11.2-0.6-16.5-1.7c12.6,8,27.2,12.6,42.9,12.6c46.2,0,83.6-39.5,83.6-88.2C292,161.9,263.2,126.3,224.9,118.2z"/>
		<ellipse id="XMLID_213_" class="st0" cx="124.2" cy="222.9" rx="20.9" ry="22"/>
		<ellipse id="XMLID_212_" class="st3" cx="294.4" cy="222.9" rx="20.9" ry="22"/>
		<polygon id="XMLID_211_" class="st0" points="147.4,425.2 122.1,425.2 122.1,397 147.4,397 		"/>
		<path id="XMLID_210_" class="st2" d="M290.1,404.8c-16.9,0-30.5-14.4-30.5-32.2c0-0.4,0-0.8,0-1.2v-53.7
			c-8.6-5.9-17.9-10.4-28.1-12.8l-5.3-1c-2.3,6.4-4.3,6.6-8,10.4c22.8,13.4,35.8,43.9,35.8,67.5l-0.1,43.6l27.8,0.2
			c0,0,17.2-3.2,18.4-22.4C297,404.2,293.6,404.8,290.1,404.8z"/>
		<path id="XMLID_209_" class="st1" d="M191,255c0,7.9,10.4,14.4,18.3,14.4s18.3-6.4,18.3-14.4H191z"/>
		
			<rect id="XMLID_208_" x="275" y="397" transform="matrix(-1 -5.946033e-12 5.946033e-12 -1 575.2489 822.3638)" class="st3" width="25.2" height="28.4"/>
		<line id="XMLID_207_" class="st4" x1="208.8" y1="414.1" x2="227.9" y2="414.1"/>
		<path id="XMLID_206_" class="st3" d="M227,281.5V305c0,10.3-7.9,18.7-17.7,18.7c-9.8,0-17.7-8.4-17.7-18.7v-21.7L227,281.5z"/>
		<path id="XMLID_205_" class="st5" d="M284.7,221"/>
		<polygon class="st0" points="209.3,239.1 201.3,235.1 209.3,229.1 217.3,235.1 		"/>
		<g>
			<g>
				<path class="st6" d="M189.2,391.2c-0.6,0-1.2-0.3-1.6-0.9c-0.5-0.9-0.3-2,0.6-2.6l5.6-3.5c0.9-0.5,2-0.3,2.6,0.6
					c0.5,0.9,0.3,2-0.6,2.6l-5.6,3.5C189.8,391.1,189.5,391.2,189.2,391.2z"/>
				<path class="st6" d="M192.1,379.4c-3.6,0-7.6-0.1-7.6-0.1c-1,0-1.9-0.9-1.8-1.9c0-1,0.9-1.9,1.9-1.8c0.1,0,5.5,0.1,9.5,0.1
					c0,0,0,0,0,0c1,0,1.9,0.8,1.9,1.9c0,1-0.8,1.9-1.9,1.9C193.4,379.4,192.7,379.4,192.1,379.4z"/>
				<path class="st6" d="M194.9,371.6c-0.4,0-0.7-0.1-1-0.3c0,0-2.8-1.8-5.4-3c-0.9-0.4-1.4-1.5-1-2.5c0.4-0.9,1.5-1.4,2.5-1
					c3,1.3,5.9,3.2,6,3.3c0.9,0.6,1.1,1.7,0.5,2.6C196.1,371.3,195.5,371.6,194.9,371.6z"/>
			</g>
			<g>
				<path class="st6" d="M225.6,372.7c-0.6,0-1.2-0.3-1.6-0.9c-0.5-0.9-0.3-2,0.6-2.6l5.6-3.5c0.9-0.5,2-0.3,2.6,0.6
					c0.5,0.9,0.3,2-0.6,2.6l-5.6,3.5C226.3,372.6,225.9,372.7,225.6,372.7z"/>
				<path class="st6" d="M235.9,381.2C235.9,381.2,235.8,381.2,235.9,381.2c-0.1,0-5.6-0.1-9.5-0.1c-1,0-1.9-0.8-1.9-1.9
					c0-1,0.8-1.9,1.9-1.9c4,0,9.5,0.1,9.6,0.1c1,0,1.9,0.9,1.8,1.9C237.7,380.3,236.9,381.2,235.9,381.2z"/>
				<path class="st6" d="M231.1,392c-0.3,0-0.5-0.1-0.8-0.2c-3-1.3-5.9-3.2-6-3.3c-0.9-0.6-1.1-1.7-0.5-2.6c0.6-0.9,1.7-1.1,2.6-0.5
					c0,0,2.8,1.8,5.4,3c0.9,0.4,1.4,1.5,1,2.5C232.5,391.6,231.9,392,231.1,392z"/>
			</g>
			<path class="st6" d="M212,393.5c-7.2,0-10.9-6.4-11.4-12.7c-0.3-3.9,1.8-10.6,6.4-13c2.3-1.2,6-1.8,10.7,2.1
				c0.8,0.7,0.9,1.8,0.3,2.6c-0.7,0.8-1.8,0.9-2.6,0.3c-2.6-2.1-4.8-2.7-6.6-1.7c-3,1.5-4.6,6.6-4.4,9.4c0.3,4.3,2.5,9.3,7.6,9.3
				c3,0,3.9-3.7,4.2-5.8c-1.4-0.3-3.4-0.7-4.6-0.7c-1,0-1.9-0.8-1.9-1.9c0-1,0.8-1.9,1.9-1.9c2.6,0,6.6,1.1,7.1,1.3
				c0.8,0.2,1.4,1,1.4,1.8C220,386.3,218.4,393.5,212,393.5z"/>
		</g>
		<g>
			<path class="st7" d="M138.9,210.3c-3.4-11.4,0.9-69.3,23.3-68.9c22.4,0.4,28.9,7,42.4,1.6c13.5-5.4,35.2-4,41.3,1.3
				c6.1,5.4,21.3,15.3,29.6,15.3c8.3,0,3.2,47,6.8,55.8c2.3,5.6,4.2-2.8,8.2-11.6c4.2-9.3,4.7-40.8,7.8-46
				c3.1-5.2,0.2-14.4-2.5-23.6c-3.3-11.3-39.6-62.5-101.4-55.9c-51.4,5.5-42.2,33.9-42.2,33.9s-19.1,0.9-27.1,14.8
				c-8.1,13.9-10.5,28.7-6.1,44c4.5,15.3,0.7,26,5,29.8C128.5,204.6,142.3,221.7,138.9,210.3z"/>
			<path class="st8" d="M169.6,134.3c0,0-16.2-15.2-11.4-30.1c5.3-16.5,43-26.3,70-18.7c28.2,8,59.9,27.3,68.3,65.3
				c0,0-19.5-49-76.7-52.8C179.7,95.3,161.8,113.1,169.6,134.3z"/>
			<path class="st8" d="M196.5,140.1c0,0-11.7-5-11.8-16.8c-0.1-14.1,35-25.2,66.3-6.4c28,16.9,18.5,39.3,43.7,37
				c0,0-12.1,6.8-22.5,0.2c-10.4-6.6-31-43.3-63.8-32.2C187.8,128.9,196.5,140.1,196.5,140.1z"/>
		</g>
		<path class="st9" d="M152.7,212.3c-0.1,7,5.5,27,28.6,24.7c21.8-2.1,22.1-29.1,22.1-29.1s-2.2-0.6-2-4.6c0.2-3.2,5.7-3.8,7.9-3.9
			c2.2,0.1,7.7,0.7,7.9,3.9c0.3,4.1-2,4.6-2,4.6s0.3,26.9,22.1,29.1c23.1,2.3,28.8-17.7,28.6-24.7c-0.1-7,3.1-8.8,4.8-9
			c2-3.5,0-6.2,0-6.2s-1.7,0.6-4.8-1.1c-3.1-1.7-12.5-7.7-23.2-8.1c-11.7-0.4-17,4.6-19.5,6.8c-2.5,2.2-6.4-0.2-13.8-0.1
			c0,0-0.1,0-0.1,0c0,0-0.1,0-0.1,0c-7.4-0.1-11.3,2.4-13.8,0.1c-2.5-2.2-7.8-7.2-19.5-6.8c-10.7,0.3-20.1,6.4-23.2,8.1
			c-3.1,1.7-4.8,1.1-4.8,1.1s-2,2.7,0,6.2C149.6,203.5,152.8,205.3,152.7,212.3z M240.9,192c11.3,0,20.5,9.2,20.5,20.5
			c0,11.3-9.2,20.5-20.5,20.5c-11.3,0-20.5-9.2-20.5-20.5C220.4,201.2,229.6,192,240.9,192z M177.7,192c11.3,0,20.5,9.2,20.5,20.5
			c0,11.3-9.2,20.5-20.5,20.5c-11.3,0-20.5-9.2-20.5-20.5C157.2,201.2,166.4,192,177.7,192z"/>
	</g>
</g>
</svg>
