<?xml version="1.0" encoding="utf-8"?>
<!-- Generator: Adobe Illustrator 21.0.2, SVG Export Plug-In . SVG Version: 6.00 Build 0)  -->
<svg version="1.1" xmlns="http://www.w3.org/2000/svg" xmlns:xlink="http://www.w3.org/1999/xlink" x="0px" y="0px"
	 viewBox="0 0 425.2 425.2" style="enable-background:new 0 0 425.2 425.2;" xml:space="preserve">
<style type="text/css">
	.st0{fill:#FBCFA7;}
	.st1{fill:#FFFFFF;}
	.st2{fill:#ECECEC;}
	.st3{fill:#EEC6A3;}
	.st4{fill:#F4CA75;}
	.st5{fill:#0AB0C4;}
	.st6{fill:#333233;}
	.st7{fill:#F0F0F0;}
	.st8{fill:#593736;}
</style>
<g id="Ebene_1">
	<path id="XMLID_204_" class="st0" d="M298.5,208.6c0,52.8-37.4,93.5-83.6,93.5s-83.6-40.8-83.6-93.5s21.4-106.5,83.6-106.5
		C261.1,102.1,298.5,155.8,298.5,208.6z"/>
	<path id="XMLID_203_" class="st1" d="M324.8,396.6c0,10.1-1.8,19.8-5.3,28.9c-57.4,0-160.3,0-209.9,0c-3.4-9.1-5.3-18.8-5.3-28.9
		c0-52,49.3-94.2,110.2-94.2S324.8,344.6,324.8,396.6z"/>
	<path id="XMLID_202_" class="st2" d="M221,302.8v122.5c0,0,71.3,0.2,98.6,0.2c2.9,0,5.3-18.8,5.3-28.9
		C324.8,346.5,278.9,305.6,221,302.8z"/>
	<path id="XMLID_201_" class="st1" d="M312.2,404.9c-20.8,0-37.7-14.4-37.7-32.2c0-0.4,0-0.8,0-1.2v-53.8
		c-17.2-9.5-37.8-15.2-59.8-15.2c-21.7,0-41.8,5.4-58.9,14.7v54.2c0,0.4,0,0.8,0,1.2c0,17.8-16.9,32.2-37.7,32.2
		c-4.7,0-9.1-0.8-13.2-2.1c0.6,7.8,2.3,15.4,5,22.6c43.3,0,163.1,0,209.7,0c2.7-7.1,4.4-14.6,5-22.4
		C320.6,404.2,316.5,404.9,312.2,404.9z"/>
	<g>
		<ellipse id="XMLID_200_" cx="183.1" cy="212.7" rx="7.5" ry="5.1"/>
		<ellipse id="XMLID_199_" cx="248.1" cy="212.7" rx="7.5" ry="5.1"/>
	</g>
	<path id="XMLID_198_" class="st3" d="M231.3,102.9c24.3,16.7,40.6,47.1,40.6,81.8c0,52.8-37.4,104.5-83.6,104.5
		c-5.7,0-15.8-3.3-21.2-4.6c14.3,11.8,31.8,16.4,47.6,16.4c46.2,0,83.6-41.8,83.6-94.5C298.4,160.3,269.6,111.7,231.3,102.9z"/>
	<ellipse id="XMLID_197_" class="st0" cx="130.6" cy="213.9" rx="20.9" ry="22"/>
	<ellipse id="XMLID_196_" class="st3" cx="300.8" cy="213.9" rx="20.9" ry="22"/>
	<polygon id="XMLID_195_" class="st0" points="135.7,425.3 104.5,425.3 104.5,397.1 135.7,397 	"/>
	<path id="XMLID_194_" class="st2" d="M312.2,404.9c-20.8,0-37.7-14.4-37.7-32.2c0-0.4,0-0.8,0-1.2v-53.7
		c-10.6-5.9-22.1-10.4-34.8-12.8l-6.6-1c-2.9,6.4-5.3,6.6-9.8,10.4c28.2,13.4,44.2,43.9,44.2,67.5l-0.1,43.6l34.4,0.2
		c0,0,21.2-3.2,22.8-22.4C320.6,404.2,316.5,404.9,312.2,404.9z"/>
	<path id="XMLID_193_" class="st1" d="M197.4,255.1c0,7.9,10.4,14.4,18.3,14.4c7.9,0,18.3-6.4,18.3-14.4H197.4z"/>
	
		<rect id="XMLID_192_" x="293.5" y="397" transform="matrix(-1 -4.840251e-12 4.840251e-12 -1 618.1823 822.4847)" class="st0" width="31.2" height="28.4"/>
	<path id="XMLID_191_" class="st3" d="M235.6,287.4v17.1c0,12.2-9.4,22.1-20.9,22.1s-20.9-9.9-20.9-22.1v-9.2L235.6,287.4z"/>
	<path id="XMLID_190_" class="st4" d="M291.1,212.1"/>
	<g>
		<g>
			<path class="st5" d="M195.6,391.3c-0.6,0-1.2-0.3-1.6-0.9c-0.5-0.9-0.3-2,0.6-2.6l5.6-3.5c0.9-0.5,2-0.3,2.6,0.6
				c0.5,0.9,0.3,2-0.6,2.6l-5.6,3.5C196.2,391.2,195.9,391.3,195.6,391.3z"/>
			<path class="st5" d="M198.5,379.5c-3.6,0-7.6-0.1-7.6-0.1c-1,0-1.9-0.9-1.8-1.9c0-1,0.9-1.9,1.9-1.8c0.1,0,5.5,0.1,9.5,0.1
				c0,0,0,0,0,0c1,0,1.9,0.8,1.9,1.9c0,1-0.8,1.9-1.9,1.9C199.8,379.5,199.1,379.5,198.5,379.5z"/>
			<path class="st5" d="M201.3,371.6c-0.4,0-0.7-0.1-1-0.3c0,0-2.8-1.8-5.4-3c-0.9-0.4-1.4-1.5-1-2.5c0.4-0.9,1.5-1.4,2.5-1
				c3,1.3,5.9,3.2,6,3.3c0.9,0.6,1.1,1.7,0.5,2.6C202.5,371.3,201.9,371.6,201.3,371.6z"/>
		</g>
		<g>
			<path class="st5" d="M232,372.8c-0.6,0-1.2-0.3-1.6-0.9c-0.5-0.9-0.3-2,0.6-2.6l5.6-3.5c0.9-0.5,2-0.3,2.6,0.6
				c0.5,0.9,0.3,2-0.6,2.6l-5.6,3.5C232.7,372.7,232.3,372.8,232,372.8z"/>
			<path class="st5" d="M242.3,381.2C242.3,381.2,242.2,381.2,242.3,381.2c-0.1,0-5.6-0.1-9.5-0.1c-1,0-1.9-0.8-1.9-1.9
				c0-1,0.8-1.9,1.9-1.9c4,0,9.5,0.1,9.6,0.1c1,0,1.9,0.9,1.8,1.9C244.1,380.4,243.3,381.2,242.3,381.2z"/>
			<path class="st5" d="M237.5,392.1c-0.3,0-0.5-0.1-0.8-0.2c-3-1.3-5.9-3.2-6-3.3c-0.9-0.6-1.1-1.7-0.5-2.6
				c0.6-0.9,1.7-1.1,2.6-0.5c0,0,2.8,1.8,5.4,3c0.9,0.4,1.4,1.5,1,2.5C238.9,391.7,238.3,392.1,237.5,392.1z"/>
		</g>
		<path class="st5" d="M218.4,393.5c-7.2,0-10.9-6.4-11.4-12.7c-0.3-3.9,1.8-10.6,6.4-13c2.3-1.2,6-1.8,10.7,2.1
			c0.8,0.7,0.9,1.8,0.3,2.6c-0.7,0.8-1.8,0.9-2.6,0.3c-2.6-2.1-4.8-2.7-6.6-1.7c-3,1.5-4.6,6.6-4.4,9.4c0.3,4.3,2.5,9.3,7.6,9.3
			c3,0,3.9-3.7,4.2-5.8c-1.4-0.3-3.4-0.7-4.6-0.7c-1,0-1.9-0.8-1.9-1.9c0-1,0.8-1.9,1.9-1.9c2.6,0,6.6,1.1,7.1,1.3
			c0.8,0.2,1.4,1,1.4,1.8C226.4,386.3,224.8,393.5,218.4,393.5z"/>
	</g>
	<path class="st6" d="M144.1,165.4c0.3-2.1,0.5-4.2,0.7-6.4c0.4-5.5,1.6-15.9,4.9-19.4c7.8-8.3,23.1,5.8,61.2,6.3
		c26.8,0.3,37.4,0,63.7-6.3c12.1-2.9,5.3-32.1-26.3-39.4c-18.4-4.3-44-11.3-81.8,2c-23.7,8.4-28,27.8-28.9,36.9
		c-0.5,0.4-3.4,3.2-5.2,12.9c0,0-2.4,9.1-1.8,39.8c0,0,3.1-0.7,7.3,7c0,0,0.8-1,1.8-2.3L144.1,165.4z"/>
	<path class="st7" d="M165.2,227c10-8.1,18-17.9,23-28.5c-7.6-0.9-16.4-0.7-22.8-0.4c-12.4,0.7-9.9,13-9.9,13
		C156.9,219.6,159.6,224.5,165.2,227z"/>
	<path class="st1" d="M188.2,199.2c-5,12.8-13,24.5-23,34.2c3.5,1.9,8.3,2.7,14.5,2.7c6.9-10.9,12.8-22.4,16.4-35.1
		C193.8,200.1,191.1,199.6,188.2,199.2z"/>
	<path class="st7" d="M204,205.6c-0.7-2.6-3.7-4.4-7.8-5.6c-3.7,10.5-9.5,20.2-16.4,29.2c0.7,0,1.3,0,2,0
		C198.6,228.8,206.3,213.9,204,205.6z"/>
	<path class="st7" d="M230.7,225.4c12.1-7.7,23.2-16.4,30.3-27.1c-0.4-0.1-0.8-0.1-1.3-0.1c-13.1-0.8-36.4-0.6-38.6,7.4
		C219.6,211.4,222.9,220.3,230.7,225.4z"/>
	<path class="st1" d="M261.1,198.9c-7.2,12.9-18.2,23.3-30.3,32.5c2.4,1.9,5.3,3.3,8.7,4c9.5-10.8,17.8-22.7,26.6-34.5
		C264.8,200,263.1,199.2,261.1,198.9z"/>
	<path class="st7" d="M266,200c-8.8,9.8-17.1,19.7-26.6,28.7c1.3,0.2,2.7,0.4,4.1,0.4c17.6,0.5,23.9-3.7,26.2-18.1
		C269.7,211.1,271.2,203.7,266,200z"/>
	<path class="st8" d="M151.6,208.5c0.8,3.7,2.7,15.9,10.1,19.7c7.4,3.8,27.4,5,35.2-1.1c7.8-6.2,8.3-10.5,9.4-12.3
		c1.1-1.8,2.5-4.4,6.2-4.4c3.8-0.1,5.1,2.6,6.2,4.4c1.1,1.8,1.6,6.1,9.4,12.3c7.8,6.2,27.8,4.9,35.2,1.1c7.4-3.8,9.6-16.3,10.1-19.7
		s0.9-6.8,0.9-6.8c0.3-3.2,0-4.2-1.3-4.6c-0.3-0.1-1.3-0.3-1.6-0.4c-4.7-0.5-3.5-0.8-18.5-1.5c-15.4-0.7-26.4,2.8-31.6,3.5
		c-0.8,0.1-1.6,0.2-2.3,0.2c-3.9,0.6-8.3,0.5-12.2,0.1c-0.2,0-0.4-0.1-0.5-0.1c-0.8-0.1-1.7-0.1-2.6-0.3c-5.2-0.7-16.2-4.2-31.6-3.5
		c-11.3,0.5-14.5,1.1-18.1,1.3c-1.8,0.1-3.6,1.2-3.9,2.6c-0.2,0.9,0,2,0.2,2.9c0,0.1,0,0.1,0,0.2c0.1,0.9,0.2,1.8,0.4,2.6
		L151.6,208.5z M181.7,229.2c-17.6,0.5-23.9-3.7-26.2-18.1c0,0-2.6-12.3,9.9-13c13.1-0.8,36.4-0.6,38.6,7.4
		C206.3,213.9,198.6,228.8,181.7,229.2z M269.7,211.1c-2.3,14.4-8.6,18.5-26.2,18.1c-16.9-0.4-24.6-15.3-22.3-23.6
		c2.2-8,25.5-8.2,38.6-7.4C272.2,198.9,269.7,211.1,269.7,211.1z"/>
	<polygon class="st3" points="291.1,198.9 294.1,200.8 293.6,202.4 290.3,202 290.3,200 	"/>
	<polygon class="st6" points="142.5,122.4 132.4,152.1 140.1,154.6 144.6,135.1 	"/>
	<path class="st6" d="M284.5,163.8c-0.2-1.5-0.3-3.1-0.4-4.6c-0.4-5.4-4.8-18-9.4-19.5c-7.6-2.5-18.6,5.8-56.7,6.3
		c-26.8,0.3-37.4,0-63.7-6.3c-12.1-2.9-5.3-32.1,26.3-39.4c18.4-4.3,44-11.3,81.8,2c18.2,6.4,25,19.4,27.5,29.2
		c1.1,4.2,2.6,8.3,4.2,12.4c0.8,1.9,1.6,4.6,2.3,8.3c0,0,2.4,9.1,1.8,39.8c0,0-3.1-0.7-7.3,7c0,0-0.8-1-1.8-2.3L284.5,163.8z"/>
</g>
<g id="Ebene_2">
</g>
</svg>
