<?xml version="1.0" encoding="utf-8"?>
<!-- Generator: Adobe Illustrator 21.0.2, SVG Export Plug-In . SVG Version: 6.00 Build 0)  -->
<svg version="1.1" xmlns="http://www.w3.org/2000/svg" xmlns:xlink="http://www.w3.org/1999/xlink" x="0px" y="0px"
	 viewBox="0 0 425.2 425.2" style="enable-background:new 0 0 425.2 425.2;" xml:space="preserve">
<style type="text/css">
	.st0{fill:#F0B79B;}
	.st1{fill:#FFFFFF;}
	.st2{fill:#ECECEC;}
	.st3{fill:#E5AF99;}
	.st4{fill:#F4CA75;}
	.st5{fill:#0AB0C4;}
	.st6{fill:#D1A16A;}
</style>
<g id="Ebene_1">
	<path id="XMLID_115_" class="st0" d="M292,204.4c0,48.7-37.4,88.2-83.6,88.2s-83.6-62-83.6-88.2c0-48.7,37.4-88.2,83.6-88.2
		S292,155.7,292,204.4z"/>
	<path id="XMLID_114_" class="st1" d="M300.4,396.3c0,10.1-1.5,19.8-4.3,28.9c-46.4,0-129.7,0-169.8,0c-2.8-9.1-4.3-18.8-4.3-28.9
		c0-52,39.9-94.2,89.2-94.2S300.4,344.3,300.4,396.3z"/>
	<path id="XMLID_113_" class="st2" d="M216.4,302.5V425c0,0,57.7,0.2,79.8,0.2c2.4,0,4.3-18.8,4.3-28.9
		C300.4,346.2,263.2,305.3,216.4,302.5z"/>
	<path id="XMLID_112_" class="st1" d="M290.2,404.6c-16.9,0-30.5-14.4-30.5-32.2c0-0.4,0-0.8,0-1.2v-53.8
		c-14-9.5-30.6-15.2-48.4-15.2c-17.5,0-33.9,5.4-47.7,14.7v54.2c0,0.4,0,0.8,0,1.2c0,17.8-13.7,32.2-30.5,32.2
		c-3.8,0-7.4-0.8-10.7-2.1c0.5,7.8,1.9,15.4,4.1,22.6c35,0,132,0,169.6,0c2.2-7.1,3.5-14.6,4-22.4C297,404,293.6,404.6,290.2,404.6z
		"/>
	<g>
		<ellipse id="XMLID_111_" cx="176.7" cy="210.6" rx="7.5" ry="7.9"/>
		<ellipse id="XMLID_110_" cx="241.7" cy="210.6" rx="7.5" ry="7.9"/>
	</g>
	<path id="XMLID_109_" class="st3" d="M225,117.9c24.3,15.4,40.6,43.5,40.6,75.6c0,48.7-37.4,88.2-83.6,88.2
		c-5.7,0-11.2-0.6-16.5-1.7c12.6,8,27.2,12.6,42.9,12.6c46.2,0,83.6-39.5,83.6-88.2C292,161.7,263.2,126,225,117.9z"/>
	<ellipse id="XMLID_108_" class="st0" cx="126.2" cy="222.6" rx="20.9" ry="22"/>
	<ellipse id="XMLID_107_" class="st3" cx="294.5" cy="222.6" rx="20.9" ry="22"/>
	<polygon id="XMLID_106_" class="st0" points="147.4,425 122.2,425 122.2,396.8 147.4,396.7 	"/>
	<path id="XMLID_105_" class="st2" d="M290.2,404.6c-16.9,0-30.5-14.4-30.5-32.2c0-0.4,0-0.8,0-1.2v-53.7
		c-8.6-5.9-17.9-10.4-28.1-12.8l-5.3-1c-2.3,6.4-4.3,6.6-8,10.4c22.8,13.4,35.8,43.9,35.8,67.5l-0.1,43.6l27.8,0.2
		c0,0,17.2-3.2,18.4-22.4C297,403.9,293.7,404.6,290.2,404.6z"/>
	<path id="XMLID_104_" class="st1" d="M191,254.8c0,7.9,10.4,14.4,18.3,14.4c7.9,0,18.3-6.4,18.3-14.4H191z"/>
	
		<rect id="XMLID_103_" x="275" y="396.7" transform="matrix(-1 -5.910062e-12 5.910062e-12 -1 575.3173 821.9178)" class="st3" width="25.2" height="28.4"/>
	<path id="XMLID_102_" class="st3" d="M227,281.3v23.4c0,10.3-7.9,18.7-17.7,18.7c-9.8,0-17.7-8.4-17.7-18.7V283L227,281.3z"/>
	<path id="XMLID_101_" class="st4" d="M284.8,220.8"/>
	<polygon class="st0" points="209.3,238.8 201.4,234.9 209.3,228.9 217.3,234.9 	"/>
	<g>
		<g>
			<path class="st5" d="M189.2,391c-0.6,0-1.2-0.3-1.6-0.9c-0.5-0.9-0.3-2,0.6-2.6l5.6-3.5c0.9-0.5,2-0.3,2.6,0.6
				c0.5,0.9,0.3,2-0.6,2.6l-5.6,3.5C189.9,390.9,189.5,391,189.2,391z"/>
			<path class="st5" d="M192.1,379.2c-3.6,0-7.6-0.1-7.6-0.1c-1,0-1.9-0.9-1.8-1.9c0-1,0.9-1.9,1.9-1.8c0.1,0,5.5,0.1,9.5,0.1
				c0,0,0,0,0,0c1,0,1.9,0.8,1.9,1.9c0,1-0.8,1.9-1.9,1.9C193.5,379.2,192.8,379.2,192.1,379.2z"/>
			<path class="st5" d="M195,371.3c-0.4,0-0.7-0.1-1-0.3c0,0-2.8-1.8-5.4-3c-0.9-0.4-1.4-1.5-1-2.5c0.4-0.9,1.5-1.4,2.5-1
				c3,1.3,5.9,3.2,6,3.3c0.9,0.6,1.1,1.7,0.5,2.6C196.2,371,195.6,371.3,195,371.3z"/>
		</g>
		<g>
			<path class="st5" d="M225.6,372.5c-0.6,0-1.2-0.3-1.6-0.9c-0.5-0.9-0.3-2,0.6-2.6l5.6-3.5c0.9-0.5,2-0.3,2.6,0.6
				c0.5,0.9,0.3,2-0.6,2.6l-5.6,3.5C226.3,372.4,226,372.5,225.6,372.5z"/>
			<path class="st5" d="M235.9,380.9C235.9,380.9,235.9,380.9,235.9,380.9c-0.1,0-5.6-0.1-9.5-0.1c-1,0-1.9-0.8-1.9-1.9
				c0-1,0.8-1.9,1.9-1.9c4,0,9.5,0.1,9.6,0.1c1,0,1.9,0.9,1.8,1.9C237.8,380.1,236.9,380.9,235.9,380.9z"/>
			<path class="st5" d="M231.2,391.8c-0.3,0-0.5-0.1-0.8-0.2c-3-1.3-5.9-3.2-6-3.3c-0.9-0.6-1.1-1.7-0.5-2.6
				c0.6-0.9,1.7-1.1,2.6-0.5c0,0,2.8,1.8,5.4,3c0.9,0.4,1.4,1.5,1,2.5C232.6,391.4,231.9,391.8,231.2,391.8z"/>
		</g>
		<path class="st5" d="M212,393.2c-7.2,0-10.9-6.4-11.4-12.7c-0.3-3.9,1.8-10.6,6.4-13c2.3-1.2,6-1.8,10.7,2.1
			c0.8,0.7,0.9,1.8,0.3,2.6c-0.7,0.8-1.8,0.9-2.6,0.3c-2.6-2.1-4.8-2.7-6.6-1.7c-3,1.5-4.6,6.6-4.4,9.4c0.3,4.3,2.5,9.3,7.6,9.3
			c3,0,3.9-3.7,4.2-5.8c-1.4-0.3-3.4-0.7-4.6-0.7c-1,0-1.9-0.8-1.9-1.9s0.8-1.9,1.9-1.9c2.6,0,6.6,1.1,7.1,1.3
			c0.8,0.2,1.4,1,1.4,1.8C220.1,386,218.4,393.2,212,393.2z"/>
	</g>
	<path class="st6" d="M289.8,173.8c-7.4-9.6-4.1,25.4-8,41c-4,15.6-15.5,20-23,29.1c-2.6,3.2-4.6,6-6.2,8.5
		c-1.6-13.3-11.2-15.6-21.2-17.8c-10.7-2.3-17.2,3.5-20.9,3.7c-3.7-0.2-10.1-6-20.9-3.7c-10,2.2-19.6,4.5-21.2,17.8
		c-1.6-2.5-3.6-5.3-6.2-8.5c-7.5-9.1-19.1-13.5-23-29.1c-4-15.6-0.6-50.6-8-41c-4.4,5.7-8.3,30.8-2.7,50.7
		c5.1,17.9,7.2,23.4,18.1,41.1c8.2,13.4,26.9,46.5,63.9,46.5c36.9,0,56.2-32.8,63.9-46.5c7.8-14,10.8-20.3,16.7-38
		C297,210,294.2,179.5,289.8,173.8z M233.2,275.7c-10.9,6.5-15.2,2.1-13.9-3.5c1.3-5.6-3.6-2.9-8.9-2.9s-10.2-2.6-8.9,2.9
		c1.3,5.6-3,10-13.9,3.5c-5.5-3.3-8.6-6.1-10.9-9c-2.5-4.8-2.8-10.7,6.1-11.5c9.6-0.9,21,0.9,27.6,0.9s18-1.7,27.6-0.9
		c8.9,0.8,8.5,6.7,6.1,11.5C241.8,269.6,238.7,272.4,233.2,275.7z"/>
	<path class="st6" d="M280.7,162.2c0,0,12.5,15.8,8,39.6c-3.2,16.8,4,15.1,4,15.1s-3.2-2.5-1.6-6.1c0,0,0.6,2.5,1.9,3.2
		c0,0-0.1-5.3,2.3-12.8c5.2-16.3,4-30.9-3.3-47.4C289.6,148,280.7,153.5,280.7,162.2"/>
	<path class="st6" d="M296.3,100.9c-0.6-1.1-1.5-2.1-2.6-3c-2.3-1.5-5.1-2.5-8-2.8c2.8,0.8,7,3.1,5,10c-2.3,7.9-13.1,8.8-20,7.5
		c-10.5-1.9-63-37.4-113.6-1.9c-21.4,15-29.2,28.9-30.1,38.4c-0.5,0.4-5.3,4.4-6.9,12.5c-0.8,4.2,4,46.6,8.6,59.2
		c4.6,12.5,8.9,1.2,2.5,6.4c0,0-3-9.9-2.9-17.1c0,0,1.8,0.2,2.2,3.8c0,0,2.5-0.8-0.6-16.2c-1.5-7.7,3.9-18,4.3-24.8
		c0.2-3.2,1-6.4,0.3-9.9c1.2-1.4,0-0.6,0.4-0.8c2.2-0.8,3.9-1,6.4-3c0,0,1.8-1.3,4.4-2.7c2.5-1.4,5.8-2.8,9-3.3
		c2.8-0.4,5.9-0.7,9.3-0.8c7.8-0.2,17,0.9,26.9,5.6c25.5,12,60,16.4,83.9,5.4c11.8-5.4,20.9-14.6,25.2-28.5
		C304.4,121.3,300.9,107.7,296.3,100.9z"/>
</g>
<g id="Ebene_2">
</g>
</svg>
