<?xml version="1.0" encoding="utf-8"?>
<!-- Generator: Adobe Illustrator 21.0.2, SVG Export Plug-In . SVG Version: 6.00 Build 0)  -->
<svg version="1.1" xmlns="http://www.w3.org/2000/svg" xmlns:xlink="http://www.w3.org/1999/xlink" x="0px" y="0px"
	 viewBox="0 0 425.2 425.2" style="enable-background:new 0 0 425.2 425.2;" xml:space="preserve">
<style type="text/css">
	.st0{fill:#F0B79B;}
	.st1{fill:#FFFFFF;}
	.st2{fill:#ECECEC;}
	.st3{fill:#E5AF99;}
	.st4{fill:#F4CA75;}
	.st5{fill:#0AB0C4;}
	.st6{fill:#683C11;}
</style>
<g id="Ebene_1">
	<ellipse id="XMLID_153_" class="st0" cx="213.6" cy="204.8" rx="83.6" ry="88.2"/>
	<path id="XMLID_152_" class="st1" d="M305.6,396.7c0,10.1-1.5,19.8-4.3,28.9c-46.4,0-129.7,0-169.8,0c-2.8-9.1-4.3-18.8-4.3-28.9
		c0-52,39.9-94.2,89.2-94.2S305.6,344.7,305.6,396.7z"/>
	<path id="XMLID_151_" class="st2" d="M221.5,302.8v122.5c0,0,57.7,0.2,79.8,0.2c2.4,0,4.3-18.8,4.3-28.9
		C305.6,346.5,268.4,305.7,221.5,302.8z"/>
	<path id="XMLID_150_" class="st1" d="M295.3,405c-16.9,0-30.5-14.4-30.5-32.2c0-0.4,0-0.8,0-1.2v-53.8c-14-9.5-30.6-15.2-48.4-15.2
		c-17.5,0-33.9,5.4-47.7,14.7v54.2c0,0.4,0,0.8,0,1.2c0,17.8-13.7,32.2-30.5,32.2c-3.8,0-7.4-0.8-10.7-2.1
		c0.5,7.8,1.9,15.4,4.1,22.6c35,0,132,0,169.6,0c2.2-7.1,3.5-14.6,4-22.4C302.1,404.3,298.8,405,295.3,405z"/>
	<ellipse id="XMLID_149_" cx="184.9" cy="211" rx="7.5" ry="7.9"/>
	<ellipse id="XMLID_148_" cx="243.8" cy="211" rx="7.5" ry="7.9"/>
	<path id="XMLID_147_" class="st3" d="M230.1,118.3c24.3,15.4,40.6,43.5,40.6,75.6c0,48.7-37.4,88.2-83.6,88.2
		c-5.7,0-11.2-0.6-16.5-1.7c12.6,8,27.2,12.6,42.9,12.6c46.2,0,83.6-39.5,83.6-88.2C297.2,146.4,268.4,126.4,230.1,118.3z"/>
	<ellipse id="XMLID_146_" class="st0" cx="129.4" cy="223" rx="20.9" ry="22"/>
	<ellipse id="XMLID_145_" class="st3" cx="299.6" cy="223" rx="20.9" ry="22"/>
	<polygon id="XMLID_141_" class="st0" points="152.6,425.3 127.3,425.3 127.3,397.2 152.6,397.1 	"/>
	<path id="XMLID_140_" class="st2" d="M295.3,405c-16.9,0-30.5-14.4-30.5-32.2c0-0.4,0-0.8,0-1.2v-53.7
		c-8.6-5.9-17.9-10.4-28.1-12.8l-5.3-1c-2.3,6.4-4.3,6.6-8,10.4c22.8,13.4,35.8,43.9,35.8,67.5l-0.1,43.6l27.8,0.2
		c0,0,17.2-3.2,18.4-22.4C302.2,404.3,298.8,405,295.3,405z"/>
	<path id="XMLID_139_" class="st1" d="M196.2,255.1c0,7.9,10.4,14.4,18.3,14.4s18.3-6.4,18.3-14.4H196.2z"/>
	
		<rect id="XMLID_138_" x="280.2" y="397.1" transform="matrix(-1 -5.910062e-12 5.910062e-12 -1 585.6277 822.6199)" class="st3" width="25.2" height="28.4"/>
	<path id="XMLID_137_" class="st3" d="M232.2,281.7v23.4c0,10.3-7.9,18.7-17.7,18.7c-9.8,0-17.7-8.4-17.7-18.7v-21.7L232.2,281.7z"
		/>
	<path id="XMLID_134_" class="st4" d="M289.9,221.2"/>
	<polygon class="st0" points="214.5,239.2 206.5,235.2 214.5,229.3 222.5,235.2 	"/>
	<g>
		<g>
			<path class="st5" d="M194.3,391.3c-0.6,0-1.2-0.3-1.6-0.9c-0.5-0.9-0.3-2,0.6-2.6l5.6-3.5c0.9-0.5,2-0.3,2.6,0.6
				c0.5,0.9,0.3,2-0.6,2.6l-5.6,3.5C195,391.2,194.7,391.3,194.3,391.3z"/>
			<path class="st5" d="M197.2,379.5c-3.6,0-7.6-0.1-7.6-0.1c-1,0-1.9-0.9-1.8-1.9c0-1,0.9-1.9,1.9-1.8c0.1,0,5.5,0.1,9.5,0.1
				c0,0,0,0,0,0c1,0,1.9,0.8,1.9,1.9c0,1-0.8,1.9-1.9,1.9C198.6,379.5,197.9,379.5,197.2,379.5z"/>
			<path class="st5" d="M200.1,371.7c-0.4,0-0.7-0.1-1-0.3c0,0-2.8-1.8-5.4-3c-0.9-0.4-1.4-1.5-1-2.5c0.4-0.9,1.5-1.4,2.5-1
				c3,1.3,5.9,3.2,6,3.3c0.9,0.6,1.1,1.7,0.5,2.6C201.3,371.4,200.7,371.7,200.1,371.7z"/>
		</g>
		<g>
			<path class="st5" d="M230.8,372.9c-0.6,0-1.2-0.3-1.6-0.9c-0.5-0.9-0.3-2,0.6-2.6l5.6-3.5c0.9-0.5,2-0.3,2.6,0.6
				c0.5,0.9,0.3,2-0.6,2.6l-5.6,3.5C231.5,372.8,231.1,372.9,230.8,372.9z"/>
			<path class="st5" d="M241.1,381.3C241,381.3,241,381.3,241.1,381.3c-0.1,0-5.6-0.1-9.5-0.1c-1,0-1.9-0.8-1.9-1.9
				c0-1,0.8-1.9,1.9-1.9c4,0,9.5,0.1,9.6,0.1c1,0,1.9,0.9,1.8,1.9C242.9,380.5,242.1,381.3,241.1,381.3z"/>
			<path class="st5" d="M236.3,392.2c-0.3,0-0.5-0.1-0.8-0.2c-3-1.3-5.9-3.2-6-3.3c-0.9-0.6-1.1-1.7-0.5-2.6
				c0.6-0.9,1.7-1.1,2.6-0.5c0,0,2.8,1.8,5.4,3c0.9,0.4,1.4,1.5,1,2.5C237.7,391.8,237,392.2,236.3,392.2z"/>
		</g>
		<path class="st5" d="M217.2,393.6c-7.2,0-10.9-6.4-11.4-12.7c-0.3-3.9,1.8-10.6,6.4-13c2.3-1.2,6-1.8,10.7,2.1
			c0.8,0.7,0.9,1.8,0.3,2.6c-0.7,0.8-1.8,0.9-2.6,0.3c-2.6-2.1-4.8-2.7-6.6-1.7c-3,1.5-4.6,6.6-4.4,9.4c0.3,4.3,2.5,9.3,7.6,9.3
			c3,0,3.9-3.7,4.2-5.8c-1.4-0.3-3.4-0.7-4.6-0.7c-1,0-1.9-0.8-1.9-1.9s0.8-1.9,1.9-1.9c2.6,0,6.6,1.1,7.1,1.3
			c0.8,0.2,1.4,1,1.4,1.8C225.2,386.4,223.5,393.6,217.2,393.6z"/>
	</g>
	<path class="st6" d="M281.4,151.7c-26.1,17.4-60-6.8-60-6.8c-23.8,22.5-46.9,7.6-59.2,8.4c-12.2,0.9-23.1,22.5-28,36.8
		c-4.9,14.3,1.9,31-3.1,28.7c-3.1-1.4-5.6-25-7.7-35.7c-1.8-9.5-3.9-18.9-1-28.6s8.4-24.6,31-38c17.2-10.2,30.9-14.3,37.9-15.9
		c0.7-0.2,1.1,0.8,0.4,1.1c-6.1,3.3-11.2,8.3-11.2,8.3c26.9-12.5,60.7-12.4,75.7-6.6c12.1,4.7,7.6,5,7.6,5s37.1,16.2,37,50
		c-0.1,27.7-5.3,61.6-7.6,54.6c-1.6-5,1-23.4-6.5-41.8c-2.3-5.7-4.1-11.5-5.2-17.5L281.4,151.7z"/>
	<path class="st6" d="M200.7,137.8c0,0,6.8-1.2,9.7,3.6c3.5,5.8-10.4,20.2-29.8,21.2c-13.4,0.7-18.9-9.4-26-10.3
		c-1.2-0.1-1.3-1.8-0.2-2.1c2.1-0.7,7.4,1.2,9.5,2.7c7.5,5.2,23.8,9.9,35.6-4.2C207.1,139.5,200.7,137.8,200.7,137.8z"/>
</g>
<g id="Ebene_2">
</g>
</svg>
