<?xml version="1.0" encoding="utf-8"?>
<!-- Generator: Adobe Illustrator 21.0.2, SVG Export Plug-In . SVG Version: 6.00 Build 0)  -->
<svg version="1.1" xmlns="http://www.w3.org/2000/svg" xmlns:xlink="http://www.w3.org/1999/xlink" x="0px" y="0px"
	 viewBox="0 0 425.2 425.2" style="enable-background:new 0 0 425.2 425.2;" xml:space="preserve">
<style type="text/css">
	.st0{fill:#F0B79B;}
	.st1{fill:#FFFFFF;}
	.st2{fill:#ECECEC;}
	.st3{fill:#E5AF99;}
	.st4{fill:none;stroke:#FFFFFF;stroke-width:0.5248;stroke-linecap:round;stroke-linejoin:round;stroke-miterlimit:10;}
	.st5{fill:#F4CA75;}
	.st6{fill:#0AB0C4;}
	.st7{fill:#F0F0F0;}
	.st8{fill:#593736;}
	.st9{fill:#020203;}
</style>
<g id="Ebene_1">
	<g>
		<ellipse id="XMLID_173_" class="st0" cx="208.4" cy="204.1" rx="83.6" ry="88.2"/>
		<path id="XMLID_171_" class="st1" d="M300.4,396c0,10.1-1.5,19.8-4.3,28.9c-46.4,0-129.7,0-169.8,0c-2.8-9.1-4.3-18.8-4.3-28.9
			c0-52,39.9-94.2,89.2-94.2S300.4,344,300.4,396z"/>
		<path id="XMLID_170_" class="st2" d="M216.4,302.1v122.5c0,0,57.7,0.2,79.8,0.2c2.4,0,4.3-18.8,4.3-28.9
			C300.4,345.8,263.2,304.9,216.4,302.1z"/>
		<path id="XMLID_168_" class="st1" d="M290.1,404.2c-16.9,0-30.5-14.4-30.5-32.2c0-0.4,0-0.8,0-1.2V317
			c-14-9.5-30.6-15.2-48.4-15.2c-17.5,0-33.9,5.4-47.7,14.7v54.2c0,0.4,0,0.8,0,1.2c0,17.8-13.7,32.2-30.5,32.2
			c-3.8,0-7.4-0.8-10.7-2.1c0.5,7.8,1.9,15.4,4.1,22.6c35,0,132,0,169.6,0c2.2-7.1,3.5-14.6,4-22.4
			C297,403.6,293.6,404.2,290.1,404.2z"/>
		<path id="XMLID_167_" class="st3" d="M224.9,117.6c24.3,15.4,40.6,43.5,40.6,75.6c0,48.7-37.4,88.2-83.6,88.2
			c-5.7,0-11.2-0.6-16.5-1.7c12.6,8,27.2,12.6,42.9,12.6c46.2,0,83.6-39.5,83.6-88.2C292,161.3,263.2,125.7,224.9,117.6z"/>
		<ellipse id="XMLID_166_" class="st0" cx="124.2" cy="222.3" rx="20.9" ry="22"/>
		<ellipse id="XMLID_164_" class="st3" cx="294.4" cy="222.3" rx="20.9" ry="22"/>
		<polygon id="XMLID_163_" class="st0" points="147.4,424.6 122.1,424.6 122.1,396.4 147.4,396.4 		"/>
		<path id="XMLID_162_" class="st2" d="M290.1,404.2c-16.9,0-30.5-14.4-30.5-32.2c0-0.4,0-0.8,0-1.2V317
			c-8.6-5.9-17.9-10.4-28.1-12.8l-5.3-1c-2.3,6.4-4.3,6.6-8,10.4C241,327,254,357.5,254,381l-0.1,43.6l27.8,0.2
			c0,0,17.2-3.2,18.4-22.4C297,403.6,293.6,404.2,290.1,404.2z"/>
		<path id="XMLID_161_" class="st1" d="M191,247.4c0,7.9,10.4,14.4,18.3,14.4s18.3-6.4,18.3-14.4H191z"/>
		
			<rect id="XMLID_160_" x="275" y="396.4" transform="matrix(-1 -5.910062e-12 5.910062e-12 -1 575.283 821.1651)" class="st3" width="25.2" height="28.4"/>
		<line id="XMLID_159_" class="st4" x1="208.8" y1="413.5" x2="228" y2="413.5"/>
		<path id="XMLID_158_" class="st3" d="M227,280.9v23.4c0,10.3-7.9,18.7-17.7,18.7c-9.8,0-17.7-8.4-17.7-18.7v-21.7L227,280.9z"/>
		<path id="XMLID_157_" class="st5" d="M284.7,220.4"/>
		<polygon class="st0" points="209.3,238.5 201.4,234.5 209.3,228.5 217.3,234.5 		"/>
		<g>
			<g>
				<path class="st6" d="M189.2,390.6c-0.6,0-1.2-0.3-1.6-0.9c-0.5-0.9-0.3-2,0.6-2.6l5.6-3.5c0.9-0.5,2-0.3,2.6,0.6
					c0.5,0.9,0.3,2-0.6,2.6l-5.6,3.5C189.8,390.5,189.5,390.6,189.2,390.6z"/>
				<path class="st6" d="M192.1,378.8c-3.6,0-7.6-0.1-7.6-0.1c-1,0-1.9-0.9-1.8-1.9c0-1,0.9-1.9,1.9-1.8c0.1,0,5.5,0.1,9.5,0.1
					c0,0,0,0,0,0c1,0,1.9,0.8,1.9,1.9c0,1-0.8,1.9-1.9,1.9C193.4,378.8,192.8,378.8,192.1,378.8z"/>
				<path class="st6" d="M194.9,371c-0.4,0-0.7-0.1-1-0.3c0,0-2.8-1.8-5.4-3c-0.9-0.4-1.4-1.5-1-2.5c0.4-0.9,1.5-1.4,2.5-1
					c3,1.3,5.9,3.2,6,3.3c0.9,0.6,1.1,1.7,0.5,2.6C196.2,370.7,195.6,371,194.9,371z"/>
			</g>
			<g>
				<path class="st6" d="M225.6,372.1c-0.6,0-1.2-0.3-1.6-0.9c-0.5-0.9-0.3-2,0.6-2.6l5.6-3.5c0.9-0.5,2-0.3,2.6,0.6
					c0.5,0.9,0.3,2-0.6,2.6l-5.6,3.5C226.3,372,226,372.1,225.6,372.1z"/>
				<path class="st6" d="M235.9,380.6C235.9,380.6,235.9,380.6,235.9,380.6c-0.1,0-5.6-0.1-9.5-0.1c-1,0-1.9-0.8-1.9-1.9
					c0-1,0.8-1.9,1.9-1.9c4,0,9.5,0.1,9.6,0.1c1,0,1.9,0.9,1.8,1.9C237.7,379.7,236.9,380.6,235.9,380.6z"/>
				<path class="st6" d="M231.2,391.4c-0.3,0-0.5-0.1-0.8-0.2c-3-1.3-5.9-3.2-6-3.3c-0.9-0.6-1.1-1.7-0.5-2.6
					c0.6-0.9,1.7-1.1,2.6-0.5c0,0,2.8,1.8,5.4,3c0.9,0.4,1.4,1.5,1,2.5C232.6,391,231.9,391.4,231.2,391.4z"/>
			</g>
			<path class="st6" d="M212,392.9c-7.2,0-10.9-6.4-11.4-12.7c-0.3-3.9,1.8-10.6,6.4-13c2.3-1.2,6-1.8,10.7,2.1
				c0.8,0.7,0.9,1.8,0.3,2.6c-0.7,0.8-1.8,0.9-2.6,0.3c-2.6-2.1-4.8-2.7-6.6-1.7c-3,1.5-4.6,6.6-4.4,9.4c0.3,4.3,2.5,9.3,7.6,9.3
				c3,0,3.9-3.7,4.2-5.8c-1.4-0.3-3.4-0.7-4.6-0.7c-1,0-1.9-0.8-1.9-1.9c0-1,0.8-1.9,1.9-1.9c2.6,0,6.6,1.1,7.1,1.3
				c0.8,0.2,1.4,1,1.4,1.8C220.1,385.7,218.4,392.9,212,392.9z"/>
		</g>
		<g>
			<ellipse id="XMLID_156_" cx="176.7" cy="203.3" rx="7.5" ry="7.9"/>
			<ellipse id="XMLID_155_" cx="241.7" cy="203.3" rx="7.5" ry="7.9"/>
		</g>
		<g>
			<path class="st7" d="M161.8,221.4c10-9.7,18-21.4,23-34.2c-7.6-1-16.4-0.9-22.8-0.4c-12.4,0.9-9.9,15.6-9.9,15.6
				C153.5,212.5,156.2,218.4,161.8,221.4z"/>
			<path class="st1" d="M184.8,187.3c-5,12.8-13,24.5-23,34.2c3.5,1.9,8.3,2.7,14.5,2.7c6.9-10.9,12.8-22.4,16.4-35.1
				C190.4,188.3,187.7,187.7,184.8,187.3z"/>
			<path class="st7" d="M200.6,195.7c-0.7-3.1-3.7-5.3-7.8-6.7c-3.7,12.6-9.5,24.2-16.4,35.1c0.7,0,1.3,0,2,0
				C195.2,223.6,202.8,205.7,200.6,195.7z"/>
			<path class="st7" d="M227.3,219.5c12.1-9.2,23.2-19.6,30.3-32.5c-0.4-0.1-0.8-0.1-1.3-0.1c-13.1-0.9-36.4-0.7-38.6,8.9
				C216.2,202.7,219.5,213.5,227.3,219.5z"/>
			<path class="st1" d="M257.6,187c-7.2,12.9-18.2,23.3-30.3,32.5c2.4,1.9,5.3,3.3,8.7,4c9.5-10.8,17.8-22.7,26.6-34.5
				C261.3,188.1,259.7,187.3,257.6,187z"/>
			<path class="st7" d="M262.6,189.1c-8.8,11.7-17.1,23.7-26.6,34.5c1.3,0.3,2.7,0.5,4.1,0.5c17.6,0.6,23.9-4.4,26.2-21.7
				C266.3,202.4,267.8,193.5,262.6,189.1z"/>
			<path class="st8" d="M249.6,183.4c-15.4-0.9-26.4,3.3-31.6,4.2c-0.8,0.1-1.6,0.2-2.3,0.3c-3.9,0.7-8.3,0.6-12.2,0.1
				c-0.2,0-0.4-0.1-0.5-0.1c-0.8-0.1-1.7-0.1-2.6-0.3c-5.2-0.9-16.2-5.1-31.6-4.2c-15.4,0.9-22.1,1.5-24.2,1.4c0,0-1.7,5.2-0.9,9
				c0,0,4.1,1.5,4.6,5.6c0.5,4.1,2.7,19,10.1,23.6c7.4,4.6,27.4,6.1,35.2-1.4c7.8-7.4,8.3-12.6,9.4-14.8c1.1-2.2,2.5-5.3,6.2-5.3
				c3.8-0.1,5.1,3.1,6.2,5.3c1.1,2.2,1.6,7.3,9.4,14.8c7.8,7.4,27.8,5.9,35.2,1.4c7.4-4.6,9.6-19.5,10.1-23.6s4.6-5.6,4.6-5.6
				c0.9-3.8-0.9-9-0.9-9C271.7,184.9,265.1,184.3,249.6,183.4z M178.3,224.1c-17.6,0.6-23.9-4.4-26.2-21.7c0,0-2.6-14.7,9.9-15.6
				c13.1-0.9,36.4-0.7,38.6,8.9C202.8,205.7,195.2,223.6,178.3,224.1z M266.3,202.4c-2.3,17.3-8.6,22.2-26.2,21.7
				c-16.9-0.5-24.6-18.4-22.3-28.3c2.2-9.6,25.5-9.8,38.6-8.9C268.8,187.7,266.3,202.4,266.3,202.4z"/>
		</g>
		<path class="st9" d="M189.2,140l-0.5-0.4l0.5,0.2V68.4c-2.4,0.3-4.8,0.8-6.5,1.7c-4.5,2.1-6.1,5.6-10.9,7.4
			c0.4-0.6,0.4-1.2,0.4-1.8c-8.1,1.8-6.9,2.1-10.5,7.1c-9.3-2.6-9.7,2.1-13,7.1c-2.8,0-6.1,0.6-8.9,1.2l-0.8,1.2
			c-0.4,1.8-0.4,3.8-0.4,5.6c-6.9,0-10.1,3.8-14.2,7.1c0.8,2.4,0.8,4.7,0,7.1l-1.2,1.2c0,0-3.6,0-4.9,1.5c-1.2,1.5-0.8,3.5,0.8,6.2
			c1.6,2.6-1.2,4.7-4.9,5.3c-3.6,0.6-6.1,0-6.1,0s-3.6,7.4-0.4,13.2c3.2,5.9,2,12.7-1.6,13.5c-3.6,0.9-4.5,2.9-4.5,2.9l0.4,2.4
			c-3.6,0.9-5.7,5-5.7,5c0.8,5.3,8.5,11.2,8.5,11.2s0.8,5,3.6,7.7c2.8,2.6,0.4,7.1,0.4,7.1c-3.2,1.5-4.1,4.7-4.1,4.7s2,3.2,3.6,5.3
			c1.6,2.1,0.4,2.9,1.2,4.4c0.8,1.5,5.3,1.5,10.1,5c4.9,3.5,5.7,9.1,5.7,12.7c0,3.5,3.2,8.8,3.2,8.8c-0.4-6.2,2-10.9,2.4-12.7
			c0.4-1.8-2-11.5-2-16.2c0-4.7,7.7-16.8,7.7-16.8s0.4-11.8,1.6-20.6c1.2-8.8,7.7-15.6,11.8-17.1c4.1-1.5,11.4-2.1,11.4-2.1
			l-2.4-1.5c8.9,2.4,18.5,0.7,18.2-0.9c-0.3-2.2,3.4-4.4,5.4-3c1.5,1.1,3.3-2.1,4.9-2.4L189.2,140z"/>
		<path class="st9" d="M308.8,175.6c0,0,6.5-5.9,7.2-11.2c0,0-1.7-4.1-4.8-5l0.3-2.4c0,0-0.7-2.1-3.7-2.9c-3.1-0.9-4.1-7.7-1.4-13.5
			c2.7-5.9-0.3-13.2-0.3-13.2s-2,0.6-5.1,0c-3.1-0.6-5.4-2.6-4.1-5.3c1.4-2.6,1.7-4.7,0.7-6.2c-1-1.5-4.1-1.5-4.1-1.5l3.2-3.7
			c-0.7-2.4-0.7-4.7,0-7.1c-3.4-3.2-6.1-7.1-11.9-7.1c0-1.8,0.9-2.5,0.6-4.3l-0.7-1.2c-2.4-0.6-5.1-1.2-7.5-1.2
			c-2.7-5-3.1-9.7-10.9-7.1c-3.1-5-2-5.3-8.9-7.1c0,0.6,0,1.2,0.3,1.8c-4.1-1.8-10.6-4.1-14.3-6.1c-3.1-1.8-8.2-2.1-11.9-2.1
			c1,0.9,1.4,2.6,2,3.5c-4.1,0.6-5.4-4.1-8.9-5.3c-3.1-1.2-6.1-0.9-9.2-1.2c0.7,0.6,1,1.5,1.4,2.1c-5.5,1.5-6.8-5-13.3-1.5
			c0.3,0.6,0.3,1.2,0.7,1.8c-2,0.9-3.7,0.6-5.4-0.6l-2-0.3c-4.8-3.8-17-0.3-22.8-1.2V67c0.3,0.3,0.7,0.9,1,1.2c-2,0.6-7.2,0.6-9.5,0
			c-5.4-1.8-4.8-2.6-11.2-1.2c0.3,0.3,1,1.2,1.4,1.5c-1-0.3-2.7-0.3-3.7-0.6c-0.3,2.1-1.7,4.7-4.1,5.6c-1.4,0.9-4.8-0.3-5.5,0.3
			c-2,1.2-1.7,5.6-1.7,8.2l-0.7,0.9c-3.1-0.9-5.8-2.1-8.5-3.2c-2.7,3.8-7,6.3-9.7,9.9c-2,2.6-0.3,9.1-5.8,7.7
			c0.7,0.3,0.2,8.2,0.9,8.8c-1.8,0.8-4.2,0.9-5.9,1.5c3.4,19.5,5.7,49.5,6.2,53.1c1.4-1.9,10.7-4,23.5-11.3l2.1-6
			c0,0,7.6-0.4,12-2.8c4.4-2.4,18.3,5,18.3,5l-0.7-3.4c0,0,6.9,1.7,11.6,0.5c4.8-1.2,11.2-3.8,16.3-2.9c5.1,0.9,15.3,4.4,15.3,4.4
			l-3.1-3.2c0,0,3.4,0.3,6.8,0.9c3.4,0.6,8.2,3.8,8.2,3.8s5.8-1.2,8.2-3.5l2.7-1.2l-2.4,2.6c0,0,4.1,1.8,6.5-0.3
			c0,0,3.7-0.3,5.4,0.3c1.7,0.6,7.8,3.2,15.3,0.9l-2,1.5c0,0,6.1,0.6,9.5,2.1c3.4,1.5,8.9,8.2,9.9,17.1c1,8.8,1.4,20.6,1.4,20.6
			s6.5,12.1,6.5,16.8c0,4.7-2,14.4-1.7,16.2c0.3,1.8,2.4,6.5,2,12.7c0,0,2.7-5.3,2.7-8.8c0-3.5,0.7-9.1,4.8-12.7
			c4.1-3.5,7.8-3.5,8.5-5c0.7-1.5-0.3-2.4,1-4.4c1.4-2.1,3.1-5.3,3.1-5.3s-0.7-3.2-3.4-4.7c0,0-2-4.4,0.3-7.1
			C308.1,180.6,308.8,175.6,308.8,175.6z"/>
	</g>
</g>
<g id="Ebene_2">
</g>
</svg>
