<?xml version="1.0" encoding="utf-8"?>
<!-- Generator: Adobe Illustrator 21.0.2, SVG Export Plug-In . SVG Version: 6.00 Build 0)  -->
<svg version="1.1" xmlns="http://www.w3.org/2000/svg" xmlns:xlink="http://www.w3.org/1999/xlink" x="0px" y="0px"
	 viewBox="0 0 425.2 425.2" style="enable-background:new 0 0 425.2 425.2;" xml:space="preserve">
<style type="text/css">
	.st0{fill:#F4CA75;}
	.st1{fill:#FFFFFF;}
	.st2{fill:#ECECEC;}
	.st3{fill:#F0B79B;}
	.st4{fill:#E5AF99;}
	.st5{fill:none;stroke:#FFFFFF;stroke-width:0.5248;stroke-linecap:round;stroke-linejoin:round;stroke-miterlimit:10;}
	.st6{fill:#683C11;}
	.st7{fill:#865A31;}
	.st8{fill:#0AB0C4;}
</style>
<g id="Ebene_1">
</g>
<g id="Ebene_2">
	<path id="XMLID_18_" class="st0" d="M191.6,271.9c-13.3-1.3-22.7,6-27.3,10.9c-5,5.3-13.7,12.7-21,12.6c-0.4,0,1.1-4.4,1.1-4.4
		c8.9-12.3-1.3-22.2-1.3-22.2c-10.8,13.4-27.3,12.9-27.3,12.9c14-22.2,6.3-39.7,6.3-39.7c-10.6,9.4-21.6,5.2-21.6,5.2
		s12.7,6.3,9.5-50.4c0,0-8.2-64.8,47.6-92.3c0,0,56.4-31.6,109,1.1c0,0,3.2-6-3.8-15.9c0,0,10.8,6.5,13.3,26.4c0,0-23.1-5.7-13.6-4
		c0,0,25.3,9.1,20.2,16.7c0,0,21.9,0.8,27.6,44.6c0,0,3.2,21,0,47.9c0,0-3.8-3.9,14,28.8c0,0-14,1.2-21.6-5.8c0,0-6.3,19.9,8.9,40.3
		c0,0-13.3,2.3-27.9-10.5c0,0-8.6,11.9,0.2,25.6c0.1,0.2-15.8-5.8-21.3-11.1c-7.2-7-21.9-19.1-35.8-16.8"/>
	<path id="XMLID_38_" class="st1" d="M300.4,396.6c0,10.1-1.5,19.8-4.3,28.9c-46.4,0-129.7,0-169.8,0c-2.8-9.1-4.3-18.8-4.3-28.9
		c0-52,39.9-94.2,89.2-94.2S300.4,344.6,300.4,396.6z"/>
	<path id="XMLID_37_" class="st2" d="M216.4,302.7v122.5c0,0,57.7,0.2,79.8,0.2c2.4,0,4.3-18.8,4.3-28.9
		C300.4,346.4,263.2,305.5,216.4,302.7z"/>
	<path id="XMLID_36_" class="st1" d="M290.2,404.8c-16.9,0-30.5-14.4-30.5-32.2c0-0.4,0-0.8,0-1.2v-53.8
		c-14-9.5-30.6-15.2-48.4-15.2c-17.5,0-33.9,5.4-47.7,14.7v54.2c0,0.4,0,0.8,0,1.2c0,17.8-13.7,32.2-30.5,32.2
		c-3.8,0-7.4-0.8-10.7-2.1c0.5,7.8,1.9,15.4,4.1,22.6c35,0,132,0,169.6,0c2.2-7.1,3.5-14.6,4-22.4
		C297,404.2,293.6,404.8,290.2,404.8z"/>
	<ellipse id="XMLID_32_" class="st3" cx="208.4" cy="204.7" rx="83.6" ry="88.2"/>
	<ellipse id="XMLID_31_" cx="177.5" cy="210.9" rx="7.5" ry="7.9"/>
	<ellipse id="XMLID_30_" cx="242.5" cy="210.9" rx="7.5" ry="7.9"/>
	<path id="XMLID_29_" class="st4" d="M225,118.2c24.3,15.4,40.6,43.5,40.6,75.6c0,48.7-37.4,88.2-83.6,88.2
		c-5.7,0-11.2-0.6-16.5-1.7c12.6,8,27.2,12.6,42.9,12.6c46.2,0,83.6-39.5,83.6-88.2C292,161.9,263.2,126.3,225,118.2z"/>
	<ellipse id="XMLID_28_" class="st3" cx="124.2" cy="222.9" rx="20.9" ry="22"/>
	<ellipse id="XMLID_27_" class="st4" cx="294.5" cy="222.9" rx="20.9" ry="22"/>
	<polygon id="XMLID_23_" class="st3" points="147.4,425.2 122.2,425.2 122.2,397 147.4,397 	"/>
	<path id="XMLID_22_" class="st2" d="M290.2,404.8c-16.9,0-30.5-14.4-30.5-32.2c0-0.4,0-0.8,0-1.2v-53.7
		c-8.6-5.9-17.9-10.4-28.1-12.8l-5.3-1c-2.3,6.4-4.3,6.6-8,10.4c22.8,13.4,35.8,43.9,35.8,67.5l-0.1,43.6l27.8,0.2
		c0,0,17.2-3.2,18.4-22.4C297,404.2,293.7,404.8,290.2,404.8z"/>
	<path id="XMLID_35_" class="st0" d="M124.2,200.8c0,0,1,6,4.1,10c0,0,0.7-42,21-68.5c0,0-3.5,12.1,0,19.7c0,0,5.2-4.4,13.7-9.1
		c12.7-7.1,27.2-10.2,41.7-9.9c10.7,0.2,28.8-1.2,43.4-11.5c0,0,36.4,26,42,77.9c0,0,2.3-3.3,1.9-8.4l8.8-12.5l-12.9-40.7
		l-29.8-27.5l-29.3-8.1h-41.4l-30.5,8.1L141.8,134l-13.5,21.7l-11.7,24.1v10.6L124.2,200.8z"/>
	<path id="XMLID_4_" class="st1" d="M191,252c0,7.9,10.4,14.4,18.3,14.4c7.9,0,18.3-6.4,18.3-14.4H191z"/>
	
		<rect id="XMLID_21_" x="275" y="397" transform="matrix(-1 -5.946033e-12 5.946033e-12 -1 575.3173 822.3646)" class="st4" width="25.2" height="28.4"/>
	<line id="XMLID_69_" class="st5" x1="208.8" y1="414.1" x2="228" y2="414.1"/>
	<path id="XMLID_25_" class="st4" d="M227,281.5V305c0,10.3-7.9,18.7-17.7,18.7c-9.8,0-17.7-8.4-17.7-18.7v-21.7L227,281.5z"/>
	<path id="XMLID_3_" class="st0" d="M284.8,221"/>
	<polygon class="st0" points="210.2,233.5 179.4,243 179.4,248.4 241.1,248.4 241.1,243 	"/>
	<polygon class="st3" points="209.3,239.1 201.4,235.1 209.3,229.1 217.3,235.1 	"/>
	<path id="XMLID_172_" class="st6" d="M277.3,109.5c-3.3-16.8-9.4-37.3-20-47.7c-0.1-0.1-12.2-12.6-27.6-6.4
		c-1.8,0.7-3.7,1.7-5.7,2.8c-4.6,2.4-9.9,5.2-16.1,5.2c-6.2,0-11.4-2.8-16.1-5.2c-2-1-3.9-2-5.7-2.8c-15.7-6.3-27.5,6.3-27.6,6.4
		c-10.6,10.4-16.7,30.9-20,47.7c11.2,3,38.8,5,69.4,5C238.5,114.6,266.1,112.5,277.3,109.5z"/>
	<path id="XMLID_169_" class="st6" d="M206.2,141.2c18.7,0,36.6-0.8,50.5-2.1c17-1.7,21.5-3.6,22.6-4.2c-0.2-2.3-0.9-10.2-2.7-20.3
		c-12.6,3.1-39.7,5.1-70.3,5.1c-30.6,0-57.7-2-70.3-5.1c-1.8,10.1-2.5,18-2.7,20.3c1.1,0.6,5.6,2.5,22.6,4.2
		C169.6,140.5,187.5,141.2,206.2,141.2z"/>
	<path id="XMLID_165_" class="st6" d="M285,127.4c0.5,4.5,0.8,8,0.8,8c0,3-3,6-25,8.5c-14.5,1.6-33.8,2.5-54.3,2.5
		c-20.5,0-39.7-0.9-54.3-2.5c-21.9-2.4-25-5.5-25-8.5c0,0,0.5-3.5,1-8c-0.9,0.1-2,0.3-2.9,0.4C96,133,85.6,139.6,85.6,143.8
		c0,3.9,8.9,9.9,34,14.9c23.2,4.6,54.1,7.1,87,7.1c32.9,0,63.8-2.5,87-7.1c25-5,34-10.9,34-14.9C327.5,139.4,316.3,132.5,285,127.4z
		"/>
	<path id="XMLID_26_" class="st6" d="M277.3,109.5l7.7,17.9l2.7,8c0,0-0.7,4.4-13.8,6.3c0,0-48.2,8.8-115.4,3.2
		c0,0-32.2-2.8-32.8-9.6l2.5-8c0,0,3.8-6.9,5.1-9.1c1.3-2.3,5.4-8.8,5.4-8.8H277.3z"/>
	<path id="XMLID_2_" class="st7" d="M128.1,127.4c0,0,76.2,18,156.9,0l2.7,8c0,0,3.9,5.8-34,9.3c0,0-51.7,5.4-98.7,0
		c0,0-29.4-2.6-29.4-9.3L128.1,127.4z"/>
	<path class="st0" d="M208.4,279.9c-31.5,0-59.3-15.2-75.9-38.3c13.2,30.3,42.3,51.3,75.9,51.3c33.7,0,62.7-21,75.9-51.3
		C267.7,264.7,239.9,279.9,208.4,279.9z"/>
	<path class="st0" d="M195.8,279.1c9.6,0.8,5.9-8.6,13.6-8.6c7.7,0,4,9.4,13.6,8.6l-2.1,4l-14.4,0.7l-12.7-1.8L195.8,279.1z"/>
	<g>
		<g>
			<path class="st8" d="M189.2,391.2c-0.6,0-1.2-0.3-1.6-0.9c-0.5-0.9-0.3-2,0.6-2.6l5.6-3.5c0.9-0.5,2-0.3,2.6,0.6
				c0.5,0.9,0.3,2-0.6,2.6l-5.6,3.5C189.9,391.1,189.5,391.2,189.2,391.2z"/>
			<path class="st8" d="M192.1,379.4c-3.6,0-7.6-0.1-7.6-0.1c-1,0-1.9-0.9-1.8-1.9c0-1,0.9-1.9,1.9-1.8c0.1,0,5.5,0.1,9.5,0.1
				c0,0,0,0,0,0c1,0,1.9,0.8,1.9,1.9c0,1-0.8,1.9-1.9,1.9C193.5,379.4,192.8,379.4,192.1,379.4z"/>
			<path class="st8" d="M195,371.6c-0.4,0-0.7-0.1-1-0.3c0,0-2.8-1.8-5.4-3c-0.9-0.4-1.4-1.5-1-2.5c0.4-0.9,1.5-1.4,2.5-1
				c3,1.3,5.9,3.2,6,3.3c0.9,0.6,1.1,1.7,0.5,2.6C196.2,371.3,195.6,371.6,195,371.6z"/>
		</g>
		<g>
			<path class="st8" d="M225.6,372.7c-0.6,0-1.2-0.3-1.6-0.9c-0.5-0.9-0.3-2,0.6-2.6l5.6-3.5c0.9-0.5,2-0.3,2.6,0.6
				c0.5,0.9,0.3,2-0.6,2.6l-5.6,3.5C226.3,372.6,226,372.7,225.6,372.7z"/>
			<path class="st8" d="M235.9,381.2C235.9,381.2,235.9,381.2,235.9,381.2c-0.1,0-5.6-0.1-9.5-0.1c-1,0-1.9-0.8-1.9-1.9
				c0-1,0.8-1.9,1.9-1.9c4,0,9.5,0.1,9.6,0.1c1,0,1.9,0.9,1.8,1.9C237.8,380.3,236.9,381.2,235.9,381.2z"/>
			<path class="st8" d="M231.2,392c-0.3,0-0.5-0.1-0.8-0.2c-3-1.3-5.9-3.2-6-3.3c-0.9-0.6-1.1-1.7-0.5-2.6c0.6-0.9,1.7-1.1,2.6-0.5
				c0,0,2.8,1.8,5.4,3c0.9,0.4,1.4,1.5,1,2.5C232.6,391.6,231.9,392,231.2,392z"/>
		</g>
		<path class="st8" d="M212,393.5c-7.2,0-10.9-6.4-11.4-12.7c-0.3-3.9,1.8-10.6,6.4-13c2.3-1.2,6-1.8,10.7,2.1
			c0.8,0.7,0.9,1.8,0.3,2.6c-0.7,0.8-1.8,0.9-2.6,0.3c-2.6-2.1-4.8-2.7-6.6-1.7c-3,1.5-4.6,6.6-4.4,9.4c0.3,4.3,2.5,9.3,7.6,9.3
			c3,0,3.9-3.7,4.2-5.8c-1.4-0.3-3.4-0.7-4.6-0.7c-1,0-1.9-0.8-1.9-1.9s0.8-1.9,1.9-1.9c2.6,0,6.6,1.1,7.1,1.3
			c0.8,0.2,1.4,1,1.4,1.8C220.1,386.3,218.4,393.5,212,393.5z"/>
	</g>
</g>
</svg>
