<?xml version="1.0" encoding="utf-8"?>
<!-- Generator: Adobe Illustrator 21.0.2, SVG Export Plug-In . SVG Version: 6.00 Build 0)  -->
<svg version="1.1" xmlns="http://www.w3.org/2000/svg" xmlns:xlink="http://www.w3.org/1999/xlink" x="0px" y="0px"
	 viewBox="0 0 425.2 425.2" style="enable-background:new 0 0 425.2 425.2;" xml:space="preserve">
<style type="text/css">
	.st0{fill:#F5C46B;}
	.st1{fill:#FFFFFF;}
	.st2{fill:#ECECEC;}
	.st3{fill:#F5A88C;}
	.st4{fill:#E29F82;}
	.st5{fill:#0AB0C4;}
	.st6{fill:#F4CA75;}
	.st7{fill:#1E1E1C;}
</style>
<g id="Ebene_1">
	<rect x="124.9" y="202.4" class="st0" width="169.7" height="168.5"/>
	<path id="XMLID_241_" class="st1" d="M299.9,396.3c0,10.1-1.5,19.8-4.3,28.9c-46.4,0-129.7,0-169.8,0c-2.8-9.1-4.3-18.8-4.3-28.9
		c0-52,39.9-94.2,89.2-94.2S299.9,344.3,299.9,396.3z"/>
	<path id="XMLID_240_" class="st2" d="M215.9,302.5V425c0,0,57.7,0.2,79.8,0.2c2.4,0,4.3-18.8,4.3-28.9
		C299.9,346.2,262.7,305.3,215.9,302.5z"/>
	<path id="XMLID_239_" class="st1" d="M289.7,404.6c-16.9,0-30.5-14.4-30.5-32.2c0-0.4,0-0.8,0-1.2v-53.8
		c-14-9.5-30.6-15.2-48.4-15.2c-17.5,0-33.9,5.4-47.7,14.7v54.2c0,0.4,0,0.8,0,1.2c0,17.8-13.7,32.2-30.5,32.2
		c-3.8,0-7.4-0.8-10.7-2.1c0.5,7.8,1.9,15.4,4.1,22.6c35,0,132,0,169.6,0c2.2-7.1,3.5-14.6,4-22.4
		C296.5,404,293.1,404.6,289.7,404.6z"/>
	<polygon id="XMLID_238_" class="st3" points="146.9,425 121.7,425 121.7,396.8 146.9,396.7 	"/>
	<path id="XMLID_237_" class="st2" d="M289.7,404.6c-16.9,0-30.5-14.4-30.5-32.2c0-0.4,0-0.8,0-1.2v-53.7
		c-8.6-5.9-17.9-10.4-28.1-12.8l-5.3-1c-2.3,6.4-4.3,6.6-8,10.4c22.8,13.4,35.8,43.9,35.8,67.5l-0.1,43.6l27.8,0.2
		c0,0,17.2-3.2,18.4-22.4C296.5,403.9,293.2,404.6,289.7,404.6z"/>
	
		<rect id="XMLID_236_" x="274.5" y="396.7" transform="matrix(-1 -5.910062e-12 5.910062e-12 -1 574.3228 821.9178)" class="st4" width="25.2" height="28.4"/>
	<path id="XMLID_235_" class="st4" d="M226.5,281.3v23.4c0,10.3-7.9,18.7-17.7,18.7c-9.8,0-17.7-8.4-17.7-18.7V283L226.5,281.3z"/>
	<g>
		<g>
			<path class="st5" d="M188.7,391c-0.6,0-1.2-0.3-1.6-0.9c-0.5-0.9-0.3-2,0.6-2.6l5.6-3.5c0.9-0.5,2-0.3,2.6,0.6
				c0.5,0.9,0.3,2-0.6,2.6l-5.6,3.5C189.4,390.9,189,391,188.7,391z"/>
			<path class="st5" d="M191.6,379.2c-3.6,0-7.6-0.1-7.6-0.1c-1,0-1.9-0.9-1.8-1.9c0-1,0.9-1.9,1.9-1.8c0.1,0,5.5,0.1,9.5,0.1
				c0,0,0,0,0,0c1,0,1.9,0.8,1.9,1.9c0,1-0.8,1.9-1.9,1.9C193,379.2,192.3,379.2,191.6,379.2z"/>
			<path class="st5" d="M194.5,371.3c-0.4,0-0.7-0.1-1-0.3c0,0-2.8-1.8-5.4-3c-0.9-0.4-1.4-1.5-1-2.5c0.4-0.9,1.5-1.4,2.5-1
				c3,1.3,5.9,3.2,6,3.3c0.9,0.6,1.1,1.7,0.5,2.6C195.7,371,195.1,371.3,194.5,371.3z"/>
		</g>
		<g>
			<path class="st5" d="M225.1,372.5c-0.6,0-1.2-0.3-1.6-0.9c-0.5-0.9-0.3-2,0.6-2.6l5.6-3.5c0.9-0.5,2-0.3,2.6,0.6
				c0.5,0.9,0.3,2-0.6,2.6l-5.6,3.5C225.8,372.4,225.5,372.5,225.1,372.5z"/>
			<path class="st5" d="M235.4,380.9C235.4,380.9,235.4,380.9,235.4,380.9c-0.1,0-5.6-0.1-9.5-0.1c-1,0-1.9-0.8-1.9-1.9
				c0-1,0.8-1.9,1.9-1.9c4,0,9.5,0.1,9.6,0.1c1,0,1.9,0.9,1.8,1.9C237.3,380.1,236.4,380.9,235.4,380.9z"/>
			<path class="st5" d="M230.7,391.8c-0.3,0-0.5-0.1-0.8-0.2c-3-1.3-5.9-3.2-6-3.3c-0.9-0.6-1.1-1.7-0.5-2.6
				c0.6-0.9,1.7-1.1,2.6-0.5c0,0,2.8,1.8,5.4,3c0.9,0.4,1.4,1.5,1,2.5C232.1,391.4,231.4,391.8,230.7,391.8z"/>
		</g>
		<path class="st5" d="M211.5,393.2c-7.2,0-10.9-6.4-11.4-12.7c-0.3-3.9,1.8-10.6,6.4-13c2.3-1.2,6-1.8,10.7,2.1
			c0.8,0.7,0.9,1.8,0.3,2.6c-0.7,0.8-1.8,0.9-2.6,0.3c-2.6-2.1-4.8-2.7-6.6-1.7c-3,1.5-4.6,6.6-4.4,9.4c0.3,4.3,2.5,9.3,7.6,9.3
			c3,0,3.9-3.7,4.2-5.8c-1.4-0.3-3.4-0.7-4.6-0.7c-1,0-1.9-0.8-1.9-1.9s0.8-1.9,1.9-1.9c2.6,0,6.6,1.1,7.1,1.3
			c0.8,0.2,1.4,1,1.4,1.8C219.6,386,217.9,393.2,211.5,393.2z"/>
	</g>
	
		<ellipse transform="matrix(1.600844e-02 -0.9999 0.9999 1.600844e-02 2.7392 410.1689)" class="st6" cx="209.8" cy="203.7" rx="84.8" ry="84.8"/>
	
		<ellipse transform="matrix(1.600844e-02 -0.9999 0.9999 1.600844e-02 74.6291 291.4969)" class="st6" cx="185.4" cy="107.8" rx="28.3" ry="28.3"/>
	
		<ellipse transform="matrix(1.600844e-02 -0.9999 0.9999 1.600844e-02 -14.0411 423.7555)" class="st3" cx="208.3" cy="219" rx="74.2" ry="74.2"/>
	
		<ellipse transform="matrix(1.600844e-02 -0.9999 0.9999 1.600844e-02 -42.9074 387.2204)" class="st7" cx="175.3" cy="215.4" rx="8.3" ry="8.3"/>
	
		<ellipse transform="matrix(1.600844e-02 -0.9999 0.9999 1.600844e-02 22.6437 455.9979)" class="st7" cx="243" cy="216.5" rx="8.3" ry="8.3"/>
	<path class="st4" d="M224.1,146.5c21.4,13.3,35.5,37.1,35.1,64.1c-0.7,41-34.4,73.7-75.4,73c-5-0.1-9.9-0.7-14.7-1.7
		c11,6.9,24,11,37.9,11.2c41,0.7,74.7-32,75.4-73C283,184.3,257.9,153.9,224.1,146.5z"/>
	
		<ellipse transform="matrix(1.600844e-02 -0.9999 0.9999 1.600844e-02 -97.6712 367.1343)" class="st3" cx="137.7" cy="233.2" rx="19.8" ry="19.8"/>
	
		<ellipse transform="matrix(1.600844e-02 -0.9999 0.9999 1.600844e-02 40.0775 511.6629)" class="st4" cx="280" cy="235.5" rx="19.8" ry="19.8"/>
	<path class="st1" d="M185.4,246.8c-0.2,13.1,10.2,23.8,23.3,24c13.1,0.2,23.8-10.2,24-23.3L185.4,246.8z"/>
</g>
<g id="Ebene_2">
</g>
</svg>
