<?xml version="1.0" encoding="utf-8"?>
<!-- Generator: Adobe Illustrator 21.0.2, SVG Export Plug-In . SVG Version: 6.00 Build 0)  -->
<svg version="1.1" xmlns="http://www.w3.org/2000/svg" xmlns:xlink="http://www.w3.org/1999/xlink" x="0px" y="0px"
	 viewBox="0 0 425.2 425.2" style="enable-background:new 0 0 425.2 425.2;" xml:space="preserve">
<style type="text/css">
	.st0{fill:#FFFFFF;}
	.st1{fill:#ECECEC;}
	.st2{fill:#F0C4A8;}
	.st3{fill:#0AB0C4;}
	.st4{fill:#F0BD9D;}
	.st5{fill:#020203;}
	.st6{fill:#575756;}
	.st7{fill:#B05152;}
	.st8{fill:none;stroke:#B05152;stroke-miterlimit:10;}
</style>
<g id="Ebene_1">
	<path id="XMLID_263_" class="st0" d="M328.6,394.2c0,10.7-1.8,21-5.3,30.7c-57.4,0-160.3,0-209.9,0c-3.4-9.7-5.3-20-5.3-30.7
		c0-55.4,49.3-100.3,110.2-100.3S328.6,338.8,328.6,394.2z"/>
	<path id="XMLID_262_" class="st1" d="M224.8,294.2v130.5c0,0,71.3,0.2,98.6,0.2c2.9,0,5.3-20,5.3-30.7
		C328.6,340.7,282.7,297.2,224.8,294.2z"/>
	<path id="XMLID_261_" class="st0" d="M316,402.9c-20.8,0-37.7-15.4-37.7-34.3c0-0.4,0-0.9,0-1.3V310
		c-17.2-10.2-37.8-16.1-59.8-16.1c-21.7,0-41.8,5.8-58.9,15.6v57.8c0,0.4,0,0.9,0,1.3c0,19-16.9,34.3-37.7,34.3
		c-4.7,0-9.1-0.8-13.2-2.2c0.6,8.4,2.3,16.4,5,24.1c43.3,0,163.1,0,209.7,0c2.7-7.6,4.4-15.6,5-23.8
		C324.4,402.3,320.3,402.9,316,402.9z"/>
	<polygon id="XMLID_260_" class="st2" points="139.5,424.6 108.3,424.6 108.3,394.6 139.5,394.6 	"/>
	<path id="XMLID_259_" class="st1" d="M316,402.9c-20.8,0-37.7-15.4-37.7-34.3c0-0.4,0-0.9,0-1.3v-57.2c-10.6-6.2-22.1-11-34.8-13.7
		l-6.6-1.1c-2.9,6.8-5.3,7-9.8,11.1c28.2,14.3,44.2,46.8,44.2,71.9l-0.1,46.4l34.4,0.2c0,0,21.2-3.4,22.8-23.8
		C324.4,402.3,320.3,402.9,316,402.9z"/>
	
		<rect id="XMLID_258_" x="297.3" y="394.6" transform="matrix(-1 -5.132017e-12 5.132017e-12 -1 625.7313 819.4386)" class="st2" width="31.2" height="30.3"/>
	<g>
		<g>
			<path class="st3" d="M199.3,388.5c-0.6,0-1.2-0.3-1.6-0.9c-0.5-0.9-0.3-2.2,0.6-2.8l5.6-3.7c0.9-0.6,2-0.3,2.6,0.6
				s0.3,2.2-0.6,2.8l-5.6,3.7C200,388.4,199.7,388.5,199.3,388.5z"/>
			<path class="st3" d="M202.2,375.9c-3.6,0-7.6-0.1-7.6-0.1c-1,0-1.9-0.9-1.8-2c0-1.1,0.9-2,1.9-2c0.1,0,5.5,0.1,9.5,0.1
				c0,0,0,0,0,0c1,0,1.9,0.9,1.9,2c0,1.1-0.8,2-1.9,2C203.6,375.9,202.9,375.9,202.2,375.9z"/>
			<path class="st3" d="M205.1,367.5c-0.4,0-0.7-0.1-1-0.3c0,0-2.8-1.9-5.4-3.2c-0.9-0.4-1.4-1.6-1-2.6c0.4-1,1.5-1.5,2.5-1
				c3,1.4,5.9,3.4,6,3.5c0.9,0.6,1.1,1.8,0.5,2.8C206.3,367.2,205.7,367.5,205.1,367.5z"/>
		</g>
		<g>
			<path class="st3" d="M235.8,368.8c-0.6,0-1.2-0.3-1.6-0.9c-0.5-0.9-0.3-2.2,0.6-2.8l5.6-3.7c0.9-0.6,2-0.3,2.6,0.6
				c0.5,0.9,0.3,2.2-0.6,2.8l-5.6,3.7C236.5,368.7,236.1,368.8,235.8,368.8z"/>
			<path class="st3" d="M246,377.7C246,377.7,246,377.7,246,377.7c-0.1,0-5.6-0.1-9.5-0.1c-1,0-1.9-0.9-1.9-2c0-1.1,0.8-2,1.9-2
				c4,0,9.5,0.1,9.6,0.1c1,0,1.9,0.9,1.8,2C247.9,376.9,247.1,377.7,246,377.7z"/>
			<path class="st3" d="M241.3,389.3c-0.3,0-0.5-0.1-0.8-0.2c-3-1.4-5.9-3.4-6-3.5c-0.9-0.6-1.1-1.8-0.5-2.8
				c0.6-0.9,1.7-1.2,2.6-0.6c0,0,2.8,1.9,5.4,3.2c0.9,0.4,1.4,1.6,1,2.6C242.7,388.9,242,389.3,241.3,389.3z"/>
		</g>
		<path class="st3" d="M222.2,390.8c-7.2,0-10.9-6.8-11.4-13.6c-0.3-4.1,1.8-11.2,6.4-13.8c2.3-1.3,6-1.9,10.7,2.3
			c0.8,0.7,0.9,2,0.3,2.8c-0.7,0.9-1.8,1-2.6,0.3c-2.6-2.2-4.8-2.8-6.6-1.8c-3,1.6-4.6,7-4.4,10c0.3,4.6,2.5,9.9,7.6,9.9
			c3,0,3.9-4,4.2-6.2c-1.4-0.4-3.4-0.8-4.6-0.8c-1,0-1.9-0.9-1.9-2s0.8-2,1.9-2c2.6,0,6.6,1.2,7.1,1.3c0.8,0.2,1.4,1,1.4,1.9
			C230.2,383.2,228.5,390.8,222.2,390.8z"/>
	</g>
	<path id="XMLID_257_" class="st2" d="M298,190.1c0,51.8-34.4,93.7-80.6,93.7s-80.6-42-80.6-93.7s39.8-93.7,80.6-93.7
		C263.6,96.3,298,138.3,298,190.1z"/>
	<g>
		<ellipse id="XMLID_256_" cx="185.7" cy="191.6" rx="7.5" ry="7"/>
		<ellipse id="XMLID_255_" cx="250.7" cy="191.6" rx="7.5" ry="7"/>
	</g>
	<path id="XMLID_254_" class="st4" d="M234,98.2c24.3,16.4,40.6,46.2,40.6,80.3c0,51.8-37.4,93.7-83.6,93.7
		c-5.7,0-11.2-0.6-16.5-1.9c12.6,8.5,27.2,13.4,42.9,13.4c46.2,0,80.6-42,80.6-93.7C298,144.6,272.2,106.8,234,98.2z"/>
	<ellipse id="XMLID_253_" class="st2" cx="142.2" cy="198.3" rx="20.9" ry="24.5"/>
	<ellipse id="XMLID_252_" class="st4" cx="292.5" cy="198.8" rx="20.9" ry="24"/>
	<path id="XMLID_251_" class="st0" d="M200,241.6c0,7.9,10.4,7.2,18.3,7.2s18.3,0.8,18.3-7.2H200z"/>
	<path id="XMLID_154_" class="st4" d="M236.1,269.5v23.4c0,10.3-7.9,18.7-17.7,18.7c-9.8,0-17.7-8.4-17.7-18.7v-21.7L236.1,269.5z"
		/>
	<g>
		<path class="st5" d="M186.9,130.5l-0.3-0.3l0.3,0.1V82.7c0-0.4-0.4-0.7-0.8-0.7c-1.3,0.2-2.6,0.5-3.5,1c-2.9,1.4-4,3.8-7.2,5
			c0.3-0.4,0.3-0.8,0.3-1.2c-5.1,1.2-4.6,1.4-6.7,4.4c-0.2,0.2-0.5,0.3-0.7,0.3c-5.5-1.5-6,1.4-7.9,4.6c-0.1,0.2-0.3,0.3-0.6,0.3
			c-1.8,0-3.8,0.4-5.5,0.8l-0.5,0.7c-0.1,0.1-0.1,0.2-0.1,0.2c-0.2,1-0.2,2-0.2,3c0,0.4-0.3,0.6-0.7,0.7c-3.5,0.2-5.5,2-7.6,3.9
			c-0.6,0.5-0.9,1.4-0.8,2.2c0.2,1.1,0.1,2.2-0.3,3.3c0,0.1-0.1,0.2-0.2,0.3l-0.5,0.5c-0.1,0.1-0.3,0.2-0.4,0.2
			c-0.6,0-2.3,0.2-2.9,1c-0.8,1,1.5,3.4,2.5,5.2c1.1,1.8-0.8,3.2-3.2,3.6c-2.4,0.4-3,2-3,2s-3.4,2-1.3,6c2.1,4,1.3,8.6-1.1,9.2
			c-0.8,0.2-1.3,0.5-1.8,0.7c-0.8,0.5-1.2,1.4-1,2.3l0,0c0,0.3-0.1,0.6-0.4,0.7c-1.5,0.7-0.6,2.7-0.3,3.1c0,0.1,0.1,0.1,0.1,0.2
			c0.5,3.3,2.3,6.9,2.5,7.4c0,0.1,0,0.1,0.1,0.2c0.1,0.5,0.7,3.5,2.4,5.1c1.6,1.5,0.7,3.9,0.4,4.6c-0.1,0.1-0.2,0.2-0.3,0.3
			c-2,1-2.5,3.1-2.5,3.1s-0.7,2.2,0.4,3.6c1.1,1.4,0.3,2,0.8,3c0.5,1,3.5,1,6.7,3.4c3.2,2.4,3.7,6.2,3.7,8.6c0,1.1,0.4,2.4,0.9,3.5
			c0.3,0.6,1.2,0.5,1.3-0.2c0.3-2.9,1.3-5,1.5-6c0.3-1.2-1.3-7.8-1.3-11c0-3,4.3-10.2,5-11.3c0.1-0.1,0.1-0.2,0.1-0.3
			c0-1.2,0.3-8.3,1.1-13.8c0.8-6,5.1-10.6,7.7-11.6c2.7-1,7.5-1.4,7.5-1.4l-1.6-1c5.9,1.6,12.1,0.5,12-0.6c-0.2-1.5,2.2-3,3.5-2
			c0.8,0.6,1.7-0.6,2.5-1.3c0.3-0.2,0.8-0.1,1,0.3L186.9,130.5z"/>
		<path class="st5" d="M299.4,153.8c0.3-0.5,2-4.1,2.5-7.4c0-0.1,0-0.1,0.1-0.2c0.2-0.4,1.2-2.4-0.3-3.1c-0.3-0.1-0.4-0.4-0.4-0.7
			l0,0c0.2-0.9-0.2-1.8-1-2.3c-0.4-0.3-1-0.5-1.8-0.7c-2.4-0.6-3.2-5.2-1.1-9.2c2.1-4-0.3-9-0.3-9s2.4,0.4,0,0
			c-2.4-0.4-4.3-1.8-3.2-3.6c1.1-1.8,1.3-3.2,0.5-4.2c-0.6-0.8-2.3-1-2.9-1c-0.2,0-0.3-0.1-0.4-0.2l-0.5-0.5
			c-0.1-0.1-0.1-0.2-0.2-0.3c-0.4-1.4-0.5-2.8-0.1-4.2c0.1-0.3,0-0.5-0.2-0.7c-2.4-2-4.4-4.3-8.3-4.5c-0.4,0-0.7-0.3-0.7-0.7
			c0-1,0-2.1-0.2-3c0-0.1-0.1-0.2-0.1-0.2l-0.5-0.7c-0.9-0.2-1.9-0.4-2.9-0.6c-1.9-0.3-3.6-1.5-4.6-3.2c-0.9-1.4-1.8-2.4-3.9-2.4
			c-1.9,0-3.7-0.9-4.9-2.3c-0.8-0.9-1.8-1.3-5-2c0,0.4,0,0.8,0.3,1.2c-3.2-1.2-4.3-3.6-7.2-5c-2-1-5.2-1.3-7.9-1.4
			c-0.5,0-0.8,0.5-0.6,1c0.1,0.1,0.1,0.2,0.2,0.4c0.3,0.5-0.2,1.1-0.7,1c-2.2-0.5-3.3-2.9-5.6-3.6c-2.4-0.8-4.8-0.6-7.2-0.8
			c0.5,0.4,0.8,1,1.1,1.4c-4.3,1-5.3-3.4-10.4-1c0.3,0.4,0.3,0.8,0.5,1.2c-1.6,0.6-2.9,0.4-4.2-0.3c-0.1,0-0.2-0.1-0.2-0.1l-1.3-0.2
			c-0.1,0-0.2,0-0.3-0.1c-3.8-2.5-13.3-0.1-17.7-0.7v0.2c0.3,0.2,0.5,0.6,0.8,0.8c-1.6,0.4-5.6,0.4-7.4,0c0,0,0,0-0.1,0
			c-4.2-1.2-3.7-1.8-8.8-0.8c0.3,0.2,0.8,0.8,1.1,1c-0.6-0.2-1.6-0.2-2.4-0.3c-0.3,0-0.6,0.1-0.7,0.4c-0.4,1.3-1.4,2.7-3.1,3.3
			c-1.1,0.6-3.7-0.2-4.3,0.2c-1.6,0.8-1.3,3.8-1.3,5.6l-0.5,0.6c-2.2-0.6-4.3-1.3-6.2-2c-0.3-0.1-0.5,0-0.7,0.2
			c-2.2,2.2-6.2,1.4-8.2,3.7c-1.6,1.8-0.3,6.2-4.5,5.2c0.5,0.2,1.1,0.8,1.6,1.2c-1.2,0.5-2.8,0.6-4,0.9c-0.3,0.1-0.6,0.4-0.5,0.8
			c2.4,12.3,4,36.2,4.6,41.9c0,0.5,0.5,0.7,1,0.5c2.4-1.2,8.8-2.8,17.3-7c0.1-0.1,0.3-0.2,0.3-0.4l1.4-3.4c0.1-0.2,0.3-0.4,0.6-0.4
			c1.4-0.1,6.1-0.5,9-1.9c2.7-1.3,10.2,1.6,13.1,2.9c0.5,0.2,1-0.2,0.9-0.8l0,0c-0.1-0.5,0.3-0.9,0.8-0.8c1.7,0.3,5.4,0.7,8.1,0.1
			c3.7-0.8,8.8-2.6,12.8-2c4,0.6,12,3,12,3l-0.9-0.8c-0.5-0.4-0.1-1.2,0.5-1.2c1,0.1,2.1,0.2,3.3,0.4c2.3,0.3,5.4,2,6.2,2.5
			c0.1,0.1,0.3,0.1,0.4,0.1c0.9-0.2,4.4-0.9,6.1-2.3c0.1,0,0.1-0.1,0.2-0.1l2-0.8l-1,1c-0.4,0.4-0.2,1,0.3,1.1
			c1.1,0.2,2.6,0.3,3.7-0.4c0.1-0.1,0.2-0.1,0.3-0.1c0.6,0,3-0.1,4.1,0.2c1.3,0.4,6.1,2.2,12,0.6l-1.6,1c0,0,4.8,0.4,7.5,1.4
			c2.7,1,6.9,5.6,7.7,11.6c0.7,5.5,1,12.7,1.1,13.8c0,0.1,0,0.2,0.1,0.3c0.7,1.1,5,8.3,5,11.3c0,3.2-1.6,9.8-1.3,11
			c0.2,0.9,1.2,3.1,1.5,6c0.1,0.7,1,0.8,1.3,0.2c0.5-1.1,0.9-2.5,0.9-3.5c0-2.4,0.5-6.2,3.7-8.6c3.2-2.4,3.1-2.4,3.7-3.4
			c0.5-1-0.3-1.6,0.8-3c0.9-1.2,1.3-2.9,1.4-3.4c0-0.1,0-0.2,0-0.3c-0.2-0.5-0.8-2.1-2.4-2.9c-0.1-0.1-0.2-0.2-0.3-0.3
			c-0.3-0.7-1.2-3.1,0.4-4.6c1.7-1.6,2.3-4.6,2.4-5.1C299.4,153.9,299.4,153.8,299.4,153.8z"/>
	</g>
	<g>
		<path d="M286.1,175c0,0-4.2-0.6-8.1-1.6c-3.9-1-21.4-3.8-32.2-2.6c-17.4,2-19.5,6-28.3,5.9c-8.8,0.1-10.9-3.9-28.3-5.9
			c-10.8-1.3-28.3,1.6-32.2,2.6c-3.9,1-8.1,1.6-8.1,1.6c-1.5,2.3,0,10,0,10c0.9,0.5,3.3,1.9,3.7,4.5c0.3,1.6,2.5,32.1,29.4,31.4
			c26.7-0.7,28.7-24.2,29.8-29.8c1.1-5.7,5.6-6,5.6-6s4.5,0.4,5.6,6c1.1,5.7,3.2,29.1,29.8,29.8c26.9,0.8,29.2-29.7,29.4-31.4
			c0.5-2.6,2.8-4,3.7-4.5C286.1,185,287.6,177.3,286.1,175z"/>
		<path class="st6" d="M207,197.2c1.1-7.3,0.3-15.1-2.9-18c-0.1-0.1-0.3-0.3-0.5-0.4c-16.2,4.1-30.9,9.8-45.4,17.7
			c0.5,4.6,2.1,9.7,5.9,14c2.8,3.2,6.1,5.2,9.5,6.4c0.2-0.2,0.4-0.3,0.6-0.5C185.1,208.7,195.8,202.8,207,197.2z"/>
		<path class="st6" d="M174.3,216.4c-0.2,0.2-0.4,0.3-0.6,0.5c10.4,3.5,22.3-1,27.7-6.4c2.9-2.9,4.8-8,5.6-13.3
			C195.8,202.8,185.1,208.7,174.3,216.4z"/>
		<path class="st6" d="M174.2,175.1c-12.6,1.1-15,8.4-15,8.4c-0.3,0.6-1.8,6.3-1,13.1c14.5-7.9,29.2-13.5,45.4-17.7
			C198.2,174.2,186.5,174,174.2,175.1z"/>
		<path class="st6" d="M230.9,179.3c-2.1,1.9-3.1,5.9-3.3,10.6c11-4.9,21.9-10,32.9-14.8C248.1,174,236.3,174.3,230.9,179.3z"/>
		<path class="st6" d="M275.8,183.4c0,0-2.3-7.3-15-8.4c-0.1,0-0.2,0-0.3,0c-11,4.8-21.9,9.9-32.9,14.8c-0.3,7.4,1.8,16.4,6.1,20.7
			c2.3,2.3,5.7,4.4,9.7,5.8c10.2-6,21.2-10.2,32.2-14.4C278.4,193,276.2,184.2,275.8,183.4z"/>
		<path class="st6" d="M243.4,216.3c8.6,3.1,19.8,2.9,27.5-5.8c2.3-2.7,3.8-5.6,4.8-8.6C264.6,206.1,253.6,210.4,243.4,216.3z"/>
	</g>
	<path class="st5" d="M296.8,223L296.8,223c-4.5-0.5-7.8-4.6-7.3-9.1l5.3-47c0.5-4.5,4.6-7.8,9.1-7.3l0,0c7.5,0.9,13,7.7,12.1,15.2
		l-4.1,36.1C311.1,218.4,304.3,223.9,296.8,223z"/>
	<path class="st5" d="M137.3,224.1L137.3,224.1c4.5-0.5,7.8-4.5,7.4-9L140,168c-0.5-4.5-4.5-7.8-9-7.4h0
		c-7.5,0.8-13.1,7.5-12.3,15.1l3.6,36.1C123,219.4,129.8,224.9,137.3,224.1z"/>
	<path class="st5" d="M304,159.6c0,0-0.2-22.5-17.2-37l7.3-5.2c0,0,16,24.8,15.4,44"/>
	<path class="st5" d="M130.1,162.4c0,0,0.2-22.5,17.2-37l-3.7-10.7c0,0-19.5,30.4-18.9,49.5"/>
	<path class="st7" d="M225.1,248c0,1.1-8.1,1.1-13.2,1c-5.1-0.1-8.8-1-9.3-2c-0.4-1-0.7-2,9.3-1.8C217,245.2,225.1,246.9,225.1,248z
		"/>
	<line class="st8" x1="200" y1="241.6" x2="236.7" y2="241.6"/>
</g>
<g id="Ebene_2">
</g>
</svg>
