<?xml version="1.0" encoding="utf-8"?>
<!-- Generator: Adobe Illustrator 21.0.2, SVG Export Plug-In . SVG Version: 6.00 Build 0)  -->
<svg version="1.1" xmlns="http://www.w3.org/2000/svg" xmlns:xlink="http://www.w3.org/1999/xlink" x="0px" y="0px"
	 viewBox="0 0 425.2 425.2" style="enable-background:new 0 0 425.2 425.2;" xml:space="preserve">
<style type="text/css">
	.st0{fill:#FFFFFF;}
	.st1{fill:#ECECEC;}
	.st2{fill:#F0C4A8;}
	.st3{fill:none;stroke:#FFFFFF;stroke-width:0.5248;stroke-linecap:round;stroke-linejoin:round;stroke-miterlimit:10;}
	.st4{fill:#0AB0C4;}
	.st5{fill:#F0BD9D;}
	.st6{fill:#F4CA75;}
	.st7{fill:#683C11;}
	.st8{opacity:0.43;fill:#683C11;}
	.st9{fill:#62380E;}
</style>
<g id="Ebene_1">
</g>
<g id="Ebene_2">
	<path id="XMLID_288_" class="st0" d="M297.5,396c0,10.1-1.5,19.8-4.3,28.9c-46.4,0-129.7,0-169.8,0c-2.8-9.1-4.3-18.8-4.3-28.9
		c0-52,39.9-94.2,89.2-94.2S297.5,344,297.5,396z"/>
	<path id="XMLID_287_" class="st1" d="M213.4,302.2v122.5c0,0,57.7,0.2,79.8,0.2c2.4,0,4.3-18.8,4.3-28.9
		C297.5,345.9,260.3,305,213.4,302.2z"/>
	<path id="XMLID_286_" class="st0" d="M287.2,404.3c-16.9,0-30.5-14.4-30.5-32.2c0-0.4,0-0.8,0-1.2V317c-14-9.5-30.6-15.2-48.4-15.2
		c-17.5,0-33.9,5.4-47.7,14.7v54.2c0,0.4,0,0.8,0,1.2c0,17.8-13.7,32.2-30.5,32.2c-3.8,0-7.4-0.8-10.7-2.1
		c0.5,7.8,1.9,15.4,4.1,22.6c35,0,132,0,169.6,0c2.2-7.1,3.5-14.6,4-22.4C294,403.7,290.7,404.3,287.2,404.3z"/>
	<polygon id="XMLID_285_" class="st2" points="144.5,424.7 119.2,424.7 119.2,396.5 144.5,396.4 	"/>
	<path id="XMLID_284_" class="st1" d="M287.2,404.3c-16.9,0-30.5-14.4-30.5-32.2c0-0.4,0-0.8,0-1.2v-53.7
		c-8.6-5.9-17.9-10.4-28.1-12.8l-5.3-1c-2.3,6.4-4.3,6.6-8,10.4c22.8,13.4,35.8,43.9,35.8,67.5l-0.1,43.6l27.8,0.2
		c0,0,17.2-3.2,18.4-22.4C294.1,403.6,290.7,404.3,287.2,404.3z"/>
	
		<rect id="XMLID_283_" x="272.1" y="396.4" transform="matrix(-1 -5.910062e-12 5.910062e-12 -1 569.4506 821.3158)" class="st2" width="25.2" height="28.4"/>
	<line id="XMLID_282_" class="st3" x1="205.9" y1="413.6" x2="225.1" y2="413.6"/>
	<g>
		<g>
			<path class="st4" d="M186.3,390.7c-0.6,0-1.2-0.3-1.6-0.9c-0.5-0.9-0.3-2,0.6-2.6l5.6-3.5c0.9-0.5,2-0.3,2.6,0.6
				c0.5,0.9,0.3,2-0.6,2.6l-5.6,3.5C186.9,390.6,186.6,390.7,186.3,390.7z"/>
			<path class="st4" d="M189.2,378.9c-3.6,0-7.6-0.1-7.6-0.1c-1,0-1.9-0.9-1.8-1.9c0-1,0.9-1.9,1.9-1.8c0.1,0,5.5,0.1,9.5,0.1
				c0,0,0,0,0,0c1,0,1.9,0.8,1.9,1.9c0,1-0.8,1.9-1.9,1.9C190.5,378.9,189.8,378.9,189.2,378.9z"/>
			<path class="st4" d="M192,371c-0.4,0-0.7-0.1-1-0.3c0,0-2.8-1.8-5.4-3c-0.9-0.4-1.4-1.5-1-2.5c0.4-0.9,1.5-1.4,2.5-1
				c3,1.3,5.9,3.2,6,3.3c0.9,0.6,1.1,1.7,0.5,2.6C193.2,370.7,192.6,371,192,371z"/>
		</g>
		<g>
			<path class="st4" d="M222.7,372.2c-0.6,0-1.2-0.3-1.6-0.9c-0.5-0.9-0.3-2,0.6-2.6l5.6-3.5c0.9-0.5,2-0.3,2.6,0.6
				c0.5,0.9,0.3,2-0.6,2.6l-5.6,3.5C223.4,372.1,223,372.2,222.7,372.2z"/>
			<path class="st4" d="M233,380.6C233,380.6,232.9,380.6,233,380.6c-0.1,0-5.6-0.1-9.5-0.1c-1,0-1.9-0.8-1.9-1.9
				c0-1,0.8-1.9,1.9-1.9c4,0,9.5,0.1,9.6,0.1c1,0,1.9,0.9,1.8,1.9C234.8,379.8,234,380.6,233,380.6z"/>
			<path class="st4" d="M228.2,391.5c-0.3,0-0.5-0.1-0.8-0.2c-3-1.3-5.9-3.2-6-3.3c-0.9-0.6-1.1-1.7-0.5-2.6
				c0.6-0.9,1.7-1.1,2.6-0.5c0,0,2.8,1.8,5.4,3c0.9,0.4,1.4,1.5,1,2.5C229.6,391.1,229,391.5,228.2,391.5z"/>
		</g>
		<path class="st4" d="M209.1,392.9c-7.2,0-10.9-6.4-11.4-12.7c-0.3-3.9,1.8-10.6,6.4-13c2.3-1.2,6-1.8,10.7,2.1
			c0.8,0.7,0.9,1.8,0.3,2.6c-0.7,0.8-1.8,0.9-2.6,0.3c-2.6-2.1-4.8-2.7-6.6-1.7c-3,1.5-4.6,6.6-4.4,9.4c0.3,4.3,2.5,9.3,7.6,9.3
			c3,0,3.9-3.7,4.2-5.8c-1.4-0.3-3.4-0.7-4.6-0.7c-1,0-1.9-0.8-1.9-1.9s0.8-1.9,1.9-1.9c2.6,0,6.6,1.1,7.1,1.3
			c0.8,0.2,1.4,1,1.4,1.8C217.1,385.7,215.5,392.9,209.1,392.9z"/>
	</g>
	<path id="XMLID_281_" class="st2" d="M290,200.2c0,51.8-34.4,93.7-80.6,93.7s-80.6-42-80.6-93.7s34.4-93.7,80.6-93.7
		S290,148.4,290,200.2z"/>
	<g>
		<ellipse id="XMLID_280_" cx="177.7" cy="201.8" rx="7.5" ry="7"/>
		<ellipse id="XMLID_279_" cx="242.7" cy="201.8" rx="7.5" ry="7"/>
	</g>
	<path id="XMLID_278_" class="st5" d="M226,108.3c24.3,16.4,40.6,46.2,40.6,80.3c0,51.8-37.4,93.7-83.6,93.7
		c-5.7,0-11.2-0.6-16.5-1.9c12.6,8.5,27.2,13.4,42.9,13.4c46.2,0,80.6-42,80.6-93.7C290,154.8,264.2,116.9,226,108.3z"/>
	<ellipse id="XMLID_277_" class="st2" cx="130.3" cy="208.5" rx="20.9" ry="24.5"/>
	<ellipse id="XMLID_276_" class="st5" cx="289.5" cy="209" rx="20.9" ry="24"/>
	<path id="XMLID_275_" class="st0" d="M192,245.1c0,7.9,10.4,14.4,18.3,14.4s18.3-6.4,18.3-14.4H192z"/>
	<path id="XMLID_274_" class="st5" d="M228.1,279.6V303c0,10.3-7.9,18.7-17.7,18.7c-9.8,0-17.7-8.4-17.7-18.7v-21.7L228.1,279.6z"/>
	<path id="XMLID_273_" class="st6" d="M285.8,211.1"/>
	<polygon class="st2" points="210.4,229.1 202.4,225.2 210.4,219.2 218.3,225.2 	"/>
	<g>
		<path class="st7" d="M135.5,193.9c-1.5-11.8,5.4-62.9,27.8-62.4c22.4,0.4,28.3,7.9,42.7,6.1c18-2.2,30.7-8.6,41-3.2
			c7.2,3.8,17,9.6,29.6,15.3c7.6,3.4,3.2,47,6.8,55.8c2.3,5.6,4.2-2.8,8.2-11.6c4.2-9.3,1.4-42.6,1.4-48.7c0-12.9-4.6-22.4-7.2-31.6
			c-3.3-11.3-28.3-51.8-90.1-45.1c-51.4,5.5-42.2,33.9-42.2,33.9s-18.4,1.5-24,16.6c-5.6,15.2-4.2,25.6-4.2,41.5
			c0,15.1-2.1,28.8,2.2,32.6C131.7,196.9,137,205.8,135.5,193.9z"/>
		<path class="st8" d="M170.6,124.4c0,0-16.2-15.2-11.4-30.1c5.3-16.5,43-26.3,70-18.7c28.2,8,50.7,15.4,59.2,53.4
			c0,0-10.4-37.1-67.6-40.9C180.7,85.4,162.9,103.2,170.6,124.4z"/>
		<path class="st8" d="M197.5,130.1c0,0-11.7-5-11.8-16.8c-0.1-14.1,35-25.2,66.3-6.4c28,16.9,11,32.9,36.3,30.6
			c0,0-4.6,13.2-15.1,6.6c-10.4-6.6-31-43.3-63.8-32.2C188.9,118.9,197.5,130.1,197.5,130.1z"/>
	</g>
	<g>
		<path class="st9" d="M164.7,116.9c0,0-2.6,7-8.8,7c-7.4,0-13.1-20.9-3.3-39.7c7.7-14.7,22.7-12.2,25.5-21.4c0.2-0.6,1-0.4,1,0.2
			c0.1,3.7-0.9,7.5-4.8,9.2c-9.1,4.1-25.7,18.5-19.1,37.5C159.5,121.8,164.7,116.9,164.7,116.9z"/>
		<path class="st9" d="M166.5,119.4c0,0,0.5,6.9-4.7,9.2c-6.1,2.8-18.9-12.6-17.8-32c0.9-15.2,14.4-18.8,13.3-27.6
			c-0.1-0.5,0.7-0.7,0.9-0.2c1.5,3,2,6.6-0.6,9.6c-6,6.9-14.5,25.3-1.8,38.6C164,125.6,166.5,119.4,166.5,119.4z"/>
		<path class="st9" d="M147.3,110.3c0,0,3-2.4,2-4.7c-1.2-2.7-12.2-0.4-19.7,7.1c-5.9,5.9-2.3,10.9-6.3,13.9c-0.2,0.2,0,0.5,0.2,0.3
			c1.8-0.7,3.5-1.9,3.7-3.7c0.5-4.2,4.9-13.4,15.1-14.9C148.8,107.4,147.3,110.3,147.3,110.3z"/>
		<path class="st9" d="M150.2,112.2c0,0,2.5,0.5,3.2-0.8c0.8-1.6-5-6.2-11.9-7c-5.4-0.6-6.3,3.1-9.5,2.2c-0.2-0.1-0.2,0.2-0.1,0.2
			c1.1,0.6,2.4,1,3.4,0.4c2.3-1.3,8.6-2.7,13.7,1.7C152.3,111.8,150.2,112.2,150.2,112.2z"/>
		<path class="st9" d="M163.5,108.8c0,0-6.9,2.9-11.1-1.5c-5.1-5.3,6.2-23.9,26.5-29.7c15.9-4.5,24.4,8.1,33.1,3.8
			c0.5-0.3,1,0.4,0.6,0.8c-2.6,2.6-6.1,4.4-10,2.8c-9.2-3.7-31.2-6-40.3,11.9C156.3,108.5,163.5,108.8,163.5,108.8z"/>
		<path class="st9" d="M176.3,115.4c0,0-5.8,1.8-10.2-2.9c-5.3-5.5,2.3-21,19.8-23.5c13.7-2,23,10.7,30.2,7.9c0.4-0.2,1,0.5,0.6,0.8
			c-2,2-4.9,3.2-8.6,1.2c-8.8-4.6-28.7-9.6-34.6,5.4C169.8,114.1,176.3,115.4,176.3,115.4z"/>
		<path class="st9" d="M183.8,122.9c0,0-4.2,1.9-7.2-0.8c-3.6-3.3,2.5-15.3,15-19.2c9.8-3.1,16,4.9,21.3,2c0.3-0.2,0.7,0.3,0.4,0.5
			c-1.5,1.7-3.6,2.9-6.2,1.9c-6.1-2.3-20.2-3.4-24.9,8.1C179.2,122.8,183.8,122.9,183.8,122.9z"/>
		<path class="st9" d="M152.1,131.4c0,0,2.6-2.2,3.2-8c0.7-6.9-5.8-13-12.9-4.4c-5.6,6.7-6.2,20.8-9.5,23.2c-0.2,0.1-0.2,0.9,0,1
			c1.2,0.2,2.6-0.6,3.5-4.2c2.2-8.3,8.6-23.5,14.3-16.6C154.2,126.7,152.1,131.4,152.1,131.4z"/>
		<path class="st9" d="M145.9,123.4c0,0,2.1-1.8,2.6-6.4c0.6-5.6-4.7-10.5-10.4-3.6c-4.5,5.4-5,16.8-7.7,18.7
			c-0.2,0.1-0.2,0.7,0,0.8c1,0.2,2.1-0.5,2.9-3.4c1.8-6.7,6.9-19,11.5-13.4C147.6,119.6,145.9,123.4,145.9,123.4z"/>
	</g>
</g>
</svg>
