<?xml version="1.0" encoding="utf-8"?>
<!-- Generator: Adobe Illustrator 21.0.2, SVG Export Plug-In . SVG Version: 6.00 Build 0)  -->
<svg version="1.1" xmlns="http://www.w3.org/2000/svg" xmlns:xlink="http://www.w3.org/1999/xlink" x="0px" y="0px"
	 viewBox="0 0 425.2 425.2" style="enable-background:new 0 0 425.2 425.2;" xml:space="preserve">
<style type="text/css">
	.st0{fill:#FFFFFF;}
	.st1{fill:#ECECEC;}
	.st2{fill:#F7AD6D;}
	.st3{fill:#E4A066;}
	.st4{fill:none;stroke:#FFFFFF;stroke-width:0.5248;stroke-linecap:round;stroke-linejoin:round;stroke-miterlimit:10;}
	.st5{fill:#0AB0C4;}
	.st6{fill:#3C3C3B;}
	.st7{fill:#F4CA75;}
</style>
<g id="Ebene_1">
	<path id="XMLID_41_" class="st0" d="M306.1,396.6c0,10.1-1.6,19.8-4.6,28.9c-49.6,0-138.6,0-181.5,0c-3-9.1-4.6-18.8-4.6-28.9
		c0-52,42.7-94.2,95.3-94.2S306.1,344.6,306.1,396.6z"/>
	<path id="XMLID_40_" class="st1" d="M216.3,302.7v122.5c0,0,61.6,0.2,85.2,0.2c2.5,0,4.6-18.8,4.6-28.9
		C306.1,346.4,266.3,305.5,216.3,302.7z"/>
	<path id="XMLID_39_" class="st0" d="M295.1,404.8c-18,0-32.6-14.4-32.6-32.2c0-0.4,0-0.8,0-1.2v-53.8
		c-14.9-9.5-32.6-15.2-51.7-15.2c-18.8,0-36.2,5.4-50.9,14.7v54.2c0,0.4,0,0.8,0,1.2c0,17.8-14.6,32.2-32.6,32.2
		c-4,0-7.9-0.8-11.4-2.1c0.5,7.8,2,15.4,4.3,22.6c37.4,0,141,0,181.3,0c2.3-7.1,3.8-14.6,4.3-22.4
		C302.4,404.2,298.9,404.8,295.1,404.8z"/>
	<polygon id="XMLID_34_" class="st2" points="142.6,425.2 115.6,425.2 115.6,397 142.6,397 	"/>
	<path id="XMLID_33_" class="st1" d="M295.1,404.8c-18,0-32.6-14.4-32.6-32.2c0-0.4,0-0.8,0-1.2v-53.7c-9.2-5.9-19.1-10.4-30.1-12.8
		l-5.7-1c-2.5,6.4-4.6,6.6-8.5,10.4c24.4,13.4,38.2,43.9,38.2,67.5l-0.1,43.6l29.7,0.2c0,0,18.4-3.2,19.7-22.4
		C302.5,404.2,298.9,404.8,295.1,404.8z"/>
	
		<rect id="XMLID_24_" x="279" y="397" transform="matrix(-1 -5.633838e-12 5.633838e-12 -1 585.0729 822.3646)" class="st3" width="27.1" height="28.4"/>
	<line id="XMLID_20_" class="st4" x1="208.2" y1="414.1" x2="228.7" y2="414.1"/>
	<path id="XMLID_19_" class="st3" d="M236.1,269.3v33.8c0,14.9-12.2,27-27.3,27c-15.1,0-27.3-12.1-27.3-27v-31.4L236.1,269.3z"/>
	<g>
		<g>
			<path class="st5" d="M189.2,391.2c-0.6,0-1.2-0.3-1.6-0.9c-0.5-0.9-0.3-2,0.6-2.6l5.6-3.5c0.9-0.5,2-0.3,2.6,0.6
				c0.5,0.9,0.3,2-0.6,2.6l-5.6,3.5C189.9,391.1,189.5,391.2,189.2,391.2z"/>
			<path class="st5" d="M192.1,379.4c-3.6,0-7.6-0.1-7.6-0.1c-1,0-1.9-0.9-1.8-1.9c0-1,0.9-1.9,1.9-1.8c0.1,0,5.5,0.1,9.5,0.1
				c0,0,0,0,0,0c1,0,1.9,0.8,1.9,1.9c0,1-0.8,1.9-1.9,1.9C193.5,379.4,192.8,379.4,192.1,379.4z"/>
			<path class="st5" d="M195,371.6c-0.4,0-0.7-0.1-1-0.3c0,0-2.8-1.8-5.4-3c-0.9-0.4-1.4-1.5-1-2.5c0.4-0.9,1.5-1.4,2.5-1
				c3,1.3,5.9,3.2,6,3.3c0.9,0.6,1.1,1.7,0.5,2.6C196.2,371.3,195.6,371.6,195,371.6z"/>
		</g>
		<g>
			<path class="st5" d="M225.6,372.7c-0.6,0-1.2-0.3-1.6-0.9c-0.5-0.9-0.3-2,0.6-2.6l5.6-3.5c0.9-0.5,2-0.3,2.6,0.6
				c0.5,0.9,0.3,2-0.6,2.6l-5.6,3.5C226.3,372.6,226,372.7,225.6,372.7z"/>
			<path class="st5" d="M235.9,381.2C235.9,381.2,235.9,381.2,235.9,381.2c-0.1,0-5.6-0.1-9.5-0.1c-1,0-1.9-0.8-1.9-1.9
				c0-1,0.8-1.9,1.9-1.9c4,0,9.5,0.1,9.6,0.1c1,0,1.9,0.9,1.8,1.9C237.8,380.3,236.9,381.2,235.9,381.2z"/>
			<path class="st5" d="M231.2,392c-0.3,0-0.5-0.1-0.8-0.2c-3-1.3-5.9-3.2-6-3.3c-0.9-0.6-1.1-1.7-0.5-2.6c0.6-0.9,1.7-1.1,2.6-0.5
				c0,0,2.8,1.8,5.4,3c0.9,0.4,1.4,1.5,1,2.5C232.6,391.6,231.9,392,231.2,392z"/>
		</g>
		<path class="st5" d="M212,393.5c-7.2,0-10.9-6.4-11.4-12.7c-0.3-3.9,1.8-10.6,6.4-13c2.3-1.2,6-1.8,10.7,2.1
			c0.8,0.7,0.9,1.8,0.3,2.6c-0.7,0.8-1.8,0.9-2.6,0.3c-2.6-2.1-4.8-2.7-6.6-1.7c-3,1.5-4.6,6.6-4.4,9.4c0.3,4.3,2.5,9.3,7.6,9.3
			c3,0,3.9-3.7,4.2-5.8c-1.4-0.3-3.4-0.7-4.6-0.7c-1,0-1.9-0.8-1.9-1.9s0.8-1.9,1.9-1.9c2.6,0,6.6,1.1,7.1,1.3
			c0.8,0.2,1.4,1,1.4,1.8C220.1,386.3,218.4,393.5,212,393.5z"/>
	</g>
	<path class="st6" d="M311.1,186.4c0,53.2-47.9,90.3-104.9,90.3s-101.7-37.2-101.7-90.3s46.3-96.2,103.3-96.2
		S311.1,133.2,311.1,186.4z"/>
	<ellipse id="XMLID_17_" class="st2" cx="207.8" cy="205.8" rx="89.3" ry="93.1"/>
	<ellipse id="XMLID_16_" cx="174.7" cy="212.3" rx="8" ry="8.3"/>
	<ellipse id="XMLID_15_" cx="244.2" cy="212.3" rx="8" ry="8.3"/>
	<path id="XMLID_13_" class="st3" d="M225.5,114.5c26,16.3,43.4,45.9,43.4,79.8c0,51.4-40,93.1-89.3,93.1c-6.1,0-12-0.6-17.7-1.8
		c13.4,8.4,29.1,13.3,45.9,13.3c49.3,0,89.3-41.7,89.3-93.1C297.1,160.7,266.3,123.1,225.5,114.5z"/>
	<ellipse id="XMLID_12_" class="st2" cx="117.8" cy="225" rx="22.3" ry="23.2"/>
	<ellipse id="XMLID_11_" class="st3" cx="299.7" cy="223.9" rx="22.3" ry="23.2"/>
	<path id="XMLID_10_" class="st0" d="M189.2,255.8c0,8.4,11.1,15.2,19.6,15.2c8.5,0,19.6-6.8,19.6-15.2H189.2z"/>
	<path id="XMLID_9_" class="st7" d="M289.4,223.1"/>
	<path class="st6" d="M262.9,122.7L203,105.1c-0.5-0.1-1-0.2-1.5-0.1l-42.8,8.9c-0.7,0.1-1.3,0.5-1.7,1c-5.8,6.9-47.8,56.7-46.5,59
		c1.9,3.2,4.9,24.2,5.2,26.5c0,0.1,0,0.3,0.1,0.4l6.3,21.9c0.4,1.3,1.6,2.2,2.9,2.2h0c1.7,0,3-1.4,3-3v-33.4c0-0.4,0.1-0.7,0.2-1.1
		l15.7-40.3c0.5-1.2,1.6-1.9,2.8-1.9h58h60.4c1.2,0,2.4,0.8,2.8,1.9l15.7,40.3c0.1,0.4,0.2,0.7,0.2,1.1V222c0,1.7,1.4,3,3,3h0.2
		c1.2,0,2.3-0.7,2.8-1.9l8.9-21.9c0.1-0.4,0.2-0.7,0.2-1.1c0-3.6,0.3-23.1,2.2-26.1c1.9-3.1-32.1-44.4-37-50.3
		C264,123.2,263.5,122.8,262.9,122.7z"/>
</g>
<g id="Ebene_2">
</g>
</svg>
