<?xml version="1.0" encoding="utf-8"?>
<!-- Generator: Adobe Illustrator 21.0.2, SVG Export Plug-In . SVG Version: 6.00 Build 0)  -->
<svg version="1.1" xmlns="http://www.w3.org/2000/svg" xmlns:xlink="http://www.w3.org/1999/xlink" x="0px" y="0px"
	 viewBox="0 0 425.2 425.2" style="enable-background:new 0 0 425.2 425.2;" xml:space="preserve">
<style type="text/css">
	.st0{fill:#F0C4A8;}
	.st1{fill:#FFFFFF;}
	.st2{fill:#ECECEC;}
	.st3{fill:#F0BD9D;}
	.st4{fill:none;stroke:#FFFFFF;stroke-width:0.5248;stroke-linecap:round;stroke-linejoin:round;stroke-miterlimit:10;}
	.st5{fill:#F4CA75;}
	.st6{fill:#0AB0C4;}
	.st7{fill:#240F0B;}
</style>
<g id="Ebene_1">
	<ellipse id="XMLID_131_" class="st0" cx="208.6" cy="203.9" rx="83.6" ry="88.2"/>
	<path id="XMLID_130_" class="st1" d="M300.5,395.8c0,10.1-1.5,19.8-4.3,28.9c-46.4,0-129.7,0-169.8,0c-2.8-9.1-4.3-18.8-4.3-28.9
		c0-52,39.9-94.2,89.2-94.2S300.5,343.8,300.5,395.8z"/>
	<path id="XMLID_129_" class="st2" d="M216.5,301.9v122.5c0,0,57.7,0.2,79.8,0.2c2.4,0,4.3-18.8,4.3-28.9
		C300.5,345.7,263.3,304.8,216.5,301.9z"/>
	<path id="XMLID_128_" class="st1" d="M290.3,404.1c-16.9,0-30.5-14.4-30.5-32.2c0-0.4,0-0.8,0-1.2v-53.8
		c-14-9.5-30.6-15.2-48.4-15.2c-17.5,0-33.9,5.4-47.7,14.7v54.2c0,0.4,0,0.8,0,1.2c0,17.8-13.7,32.2-30.5,32.2
		c-3.8,0-7.4-0.8-10.7-2.1c0.5,7.8,1.9,15.4,4.1,22.6c35,0,132,0,169.6,0c2.2-7.1,3.5-14.6,4-22.4
		C297.1,403.4,293.8,404.1,290.3,404.1z"/>
	<path id="XMLID_127_" class="st3" d="M225.1,117.4c24.3,15.4,40.6,43.5,40.6,75.6c0,48.7-37.4,88.2-83.6,88.2
		c-5.7,0-11.2-0.6-16.5-1.7c12.6,8,27.2,12.6,42.9,12.6c46.2,0,83.6-39.5,83.6-88.2C292.1,161.1,263.3,125.5,225.1,117.4z"/>
	<ellipse id="XMLID_126_" class="st0" cx="124.4" cy="222.1" rx="20.9" ry="22"/>
	<ellipse id="XMLID_125_" class="st3" cx="286.1" cy="222.1" rx="20.9" ry="22"/>
	<polygon id="XMLID_124_" class="st0" points="147.5,424.4 122.3,424.4 122.3,396.3 147.5,396.2 	"/>
	<path id="XMLID_123_" class="st2" d="M290.3,404.1c-16.9,0-30.5-14.4-30.5-32.2c0-0.4,0-0.8,0-1.2v-53.7
		c-8.6-5.9-17.9-10.4-28.1-12.8l-5.3-1c-2.3,6.4-4.3,6.6-8,10.4c22.8,13.4,35.8,43.9,35.8,67.5l-0.1,43.6l27.8,0.2
		c0,0,17.2-3.2,18.4-22.4C297.1,403.4,293.8,404.1,290.3,404.1z"/>
	<path id="XMLID_122_" class="st1" d="M191.1,247.3c0,7.9,10.4,14.4,18.3,14.4c7.9,0,18.3-6.4,18.3-14.4H191.1z"/>
	
		<rect id="XMLID_121_" x="275.2" y="396.2" transform="matrix(-1 -5.910062e-12 5.910062e-12 -1 575.5921 820.8541)" class="st3" width="25.2" height="28.4"/>
	<line id="XMLID_120_" class="st4" x1="208.9" y1="413.4" x2="228.1" y2="413.4"/>
	<path id="XMLID_119_" class="st3" d="M227.2,280.8v23.4c0,10.3-7.9,18.7-17.7,18.7c-9.8,0-17.7-8.4-17.7-18.7v-21.7L227.2,280.8z"
		/>
	<path id="XMLID_118_" class="st5" d="M284.9,220.3"/>
	<g>
		<g>
			<path class="st6" d="M189.3,390.5c-0.6,0-1.2-0.3-1.6-0.9c-0.5-0.9-0.3-2,0.6-2.6l5.6-3.5c0.9-0.5,2-0.3,2.6,0.6
				c0.5,0.9,0.3,2-0.6,2.6l-5.6,3.5C190,390.4,189.7,390.5,189.3,390.5z"/>
			<path class="st6" d="M192.2,378.6c-3.6,0-7.6-0.1-7.6-0.1c-1,0-1.9-0.9-1.8-1.9c0-1,0.9-1.9,1.9-1.8c0.1,0,5.5,0.1,9.5,0.1
				c0,0,0,0,0,0c1,0,1.9,0.8,1.9,1.9c0,1-0.8,1.9-1.9,1.9C193.6,378.6,192.9,378.6,192.2,378.6z"/>
			<path class="st6" d="M195.1,370.8c-0.4,0-0.7-0.1-1-0.3c0,0-2.8-1.8-5.4-3c-0.9-0.4-1.4-1.5-1-2.5c0.4-0.9,1.5-1.4,2.5-1
				c3,1.3,5.9,3.2,6,3.3c0.9,0.6,1.1,1.7,0.5,2.6C196.3,370.5,195.7,370.8,195.1,370.8z"/>
		</g>
		<g>
			<path class="st6" d="M225.8,372c-0.6,0-1.2-0.3-1.6-0.9c-0.5-0.9-0.3-2,0.6-2.6l5.6-3.5c0.9-0.5,2-0.3,2.6,0.6
				c0.5,0.9,0.3,2-0.6,2.6l-5.6,3.5C226.5,371.9,226.1,372,225.8,372z"/>
			<path class="st6" d="M236,380.4C236,380.4,236,380.4,236,380.4c-0.1,0-5.6-0.1-9.5-0.1c-1,0-1.9-0.8-1.9-1.9c0-1,0.8-1.9,1.9-1.9
				c4,0,9.5,0.1,9.6,0.1c1,0,1.9,0.9,1.8,1.9C237.9,379.6,237.1,380.4,236,380.4z"/>
			<path class="st6" d="M231.3,391.3c-0.3,0-0.5-0.1-0.8-0.2c-3-1.3-5.9-3.2-6-3.3c-0.9-0.6-1.1-1.7-0.5-2.6
				c0.6-0.9,1.7-1.1,2.6-0.5c0,0,2.8,1.8,5.4,3c0.9,0.4,1.4,1.5,1,2.5C232.7,390.9,232,391.3,231.3,391.3z"/>
		</g>
		<path class="st6" d="M212.2,392.7c-7.2,0-10.9-6.4-11.4-12.7c-0.3-3.9,1.8-10.6,6.4-13c2.3-1.2,6-1.8,10.7,2.1
			c0.8,0.7,0.9,1.8,0.3,2.6c-0.7,0.8-1.8,0.9-2.6,0.3c-2.6-2.1-4.8-2.7-6.6-1.7c-3,1.5-4.6,6.6-4.4,9.4c0.3,4.3,2.5,9.3,7.6,9.3
			c3,0,3.9-3.7,4.2-5.8c-1.4-0.3-3.4-0.7-4.6-0.7c-1,0-1.9-0.8-1.9-1.9c0-1,0.8-1.9,1.9-1.9c2.6,0,6.6,1.1,7.1,1.3
			c0.8,0.2,1.4,1,1.4,1.8C220.2,385.5,218.5,392.7,212.2,392.7z"/>
	</g>
	<g>
		<ellipse id="XMLID_117_" cx="176.9" cy="203.1" rx="7.5" ry="7.9"/>
		<ellipse id="XMLID_116_" cx="241.8" cy="203.1" rx="7.5" ry="7.9"/>
	</g>
	<path class="st7" d="M193.3,102.4c-16-7.4-29.6-4.2-45.6,11.6S118,142.6,118,142.6s-1.2,8.1-15.2,28.9s-7.2,25.4-5.6,38.8
		c1.6,13.4,4-3.5,12.8,11.3c8.8,14.8,18.8,27.2,13.6,31.1c-5.2,3.9-13.6,5.3-18.4,0.7s-7.6,12.4,4.4,15.5c12,3.2,24,0.7,24,7.1
		s-4.4,9.2,9.2,15.9c2.1,1,4.1,1.9,5.8,2.6c7,2.8,14.7-1.8,15.5-9.3l0.6-5.7c0,0-19.6-16.2-22-71.6c-2.4-55.4,22.8-85.4,57.6-86.5
		s53.2,13.8,60,42.7c6.8,28.9,18.4,69.2,7.6,87.5c-10.8,18.4-14,29.7-9.2,32.8c4.8,3.2,20.4,8.5,28.8-3.2
		c8.4-11.6,6.5-17.4,8.5-28.7c2-11.3,2.7-27,2.7-27s6.5-2.2,9.3-17.4c2.8-15.2-2-15-5.4-29.7c-4.2-18.2,9.5-24.2-7.3-35.2
		c-16.8-10.9-20.1-14.7-20.1-14.7s-2.9-9.7-17.7-17.1C242.9,104.1,217.3,89.6,193.3,102.4z"/>
	<path class="st7" d="M217.7,104.1c16-7.4,29.6-4.2,45.6,11.6s29.6,28.6,29.6,28.6s1.2,8.1,15.2,28.9s7.2,25.4,5.6,38.8
		s-4-3.5-12.8,11.3c-8.8,14.8-18.8,27.2-13.6,31.1c5.2,3.9,7.1,23.4,11.9,18.8c4.8-4.6,8.2,15.1-3.8,18.3c-12,3.2-13.7-4.7-27.3,2
		c-1.3,0.7-2.6,1.2-3.8,1.8c-7.9,3.5-16.9-1.6-18-10.2l-0.2-2c0,0,19.6-18.1,22-73.5c2.4-55.4-22.8-85.4-57.6-86.5
		c-34.8-1.1-53.2,13.8-60,42.7s-18.4,69.2-7.6,87.5c10.8,18.4,14,29.7,9.2,32.8c-4.8,3.2-20.4,8.5-28.8-3.2s-6.5-17.4-8.5-28.7
		c-2-11.3-2.7-27-2.7-27s-6.5-2.2-9.3-17.4s2-15,5.4-29.7c4.2-18.2-9.5-24.2,7.3-35.2c16.8-10.9,20.1-14.7,20.1-14.7
		s2.9-9.7,17.7-17.1C168.1,105.8,193.7,91.4,217.7,104.1z"/>
</g>
<g id="Ebene_2">
</g>
</svg>
